G04*
G04 #@! TF.GenerationSoftware,Altium Limited,Altium Designer,23.6.0 (18)*
G04*
G04 Layer_Color=16711935*
%FSLAX25Y25*%
%MOIN*%
G70*
G04*
G04 #@! TF.SameCoordinates,41434E86-4965-44CF-8D99-FF0C004B18D3*
G04*
G04*
G04 #@! TF.FilePolarity,Negative*
G04*
G01*
G75*
%ADD66R,0.03800X0.04300*%
%ADD68R,0.04300X0.03800*%
%ADD69R,0.04422X0.04028*%
%ADD77R,0.03972X0.03472*%
%ADD84R,0.02272X0.02972*%
%ADD88R,0.04551X0.06551*%
%ADD113C,0.07099*%
%ADD114C,0.07887*%
%ADD115C,0.02362*%
%ADD116O,0.04343X0.08674*%
%ADD117O,0.04343X0.07493*%
%ADD118C,0.10630*%
%ADD119P,0.12267X4X282.0*%
%ADD120C,0.08674*%
%ADD121C,0.00800*%
%ADD122C,0.06706*%
%ADD123P,0.09483X4X158.0*%
%ADD124C,0.03162*%
%ADD276R,0.01378X0.01221*%
%ADD277R,0.03162X0.05524*%
%ADD278R,0.04737X0.07493*%
%ADD279R,0.06312X0.07965*%
%ADD280R,0.02572X0.02769*%
%ADD281R,0.03162X0.03162*%
%ADD282R,0.01981X0.05524*%
D66*
X100010Y-174780D02*
D03*
X85700Y-117500D02*
D03*
X91700D02*
D03*
X64207Y-126504D02*
D03*
X58207D02*
D03*
X66868Y-135284D02*
D03*
X60868D02*
D03*
Y-140258D02*
D03*
X66868D02*
D03*
X106010Y-174780D02*
D03*
D68*
X111028Y-173132D02*
D03*
X111028Y-179132D02*
D03*
X85381Y-130811D02*
D03*
Y-136811D02*
D03*
D69*
X72184Y-133804D02*
D03*
X80058Y-130064D02*
D03*
Y-137544D02*
D03*
D77*
X93428Y-173132D02*
D03*
X115928Y-173132D02*
D03*
Y-179132D02*
D03*
X93428Y-179132D02*
D03*
D84*
X54730Y-140258D02*
D03*
X51030D02*
D03*
D88*
X102700Y-166600D02*
D03*
X110700D02*
D03*
D113*
X45015Y20154D02*
D03*
X31675Y9731D02*
D03*
X75282Y34968D02*
D03*
X91777Y38776D02*
D03*
X142220Y35397D02*
D03*
X125661Y38916D02*
D03*
X185958Y10797D02*
D03*
X172455Y21009D02*
D03*
D114*
X43183Y29214D02*
D03*
X23327Y13701D02*
D03*
X93946Y47762D02*
D03*
X69395Y42094D02*
D03*
X123336Y47863D02*
D03*
X147983Y42624D02*
D03*
X174145Y30097D02*
D03*
X194242Y14898D02*
D03*
D115*
X47916Y-78370D02*
D03*
X50672Y-75614D02*
D03*
X56184Y-75614D02*
D03*
X50672Y-81126D02*
D03*
X53428Y-78370D02*
D03*
X56184Y-81126D02*
D03*
X58940Y-78370D02*
D03*
X58940Y-83882D02*
D03*
X56184Y-86638D02*
D03*
X50672Y-86638D02*
D03*
X47916Y-83882D02*
D03*
X53428Y-83882D02*
D03*
D116*
X91822Y-187936D02*
D03*
X125877Y-187936D02*
D03*
D117*
X91822Y-204393D02*
D03*
X125877Y-204393D02*
D03*
D118*
X150700Y-165900D02*
D03*
X212700Y-89200D02*
D03*
X63028Y-13419D02*
D03*
D119*
X213708Y-139277D02*
D03*
D120*
X208348Y-147532D02*
D03*
D121*
X97472Y-189905D02*
D03*
X120228Y-189905D02*
D03*
D122*
X224228Y-22305D02*
D03*
D123*
X228135Y-31510D02*
D03*
D124*
X44031Y-148729D02*
D03*
Y-145229D02*
D03*
X64816Y-152229D02*
D03*
X67416D02*
D03*
X62216Y-148729D02*
D03*
X59616D02*
D03*
Y-145229D02*
D03*
X62216D02*
D03*
X54416D02*
D03*
X57016D02*
D03*
X51816D02*
D03*
X49216Y-148729D02*
D03*
X46616Y-145229D02*
D03*
Y-148729D02*
D03*
X51816D02*
D03*
X57016D02*
D03*
X49216Y-145229D02*
D03*
X54416Y-148729D02*
D03*
D276*
X124466Y-181825D02*
D03*
Y-180250D02*
D03*
D277*
X121448Y-185692D02*
D03*
X96251Y-185692D02*
D03*
X118299Y-185692D02*
D03*
X99401Y-185692D02*
D03*
D278*
X133159Y-174705D02*
D03*
X124497Y-174705D02*
D03*
D279*
X122474Y-166605D02*
D03*
X133182Y-166605D02*
D03*
D280*
X81064Y-123624D02*
D03*
X85591Y-125198D02*
D03*
Y-122049D02*
D03*
D281*
X54461Y-134644D02*
D03*
X46194D02*
D03*
D282*
X115740Y-185692D02*
D03*
X113771Y-185692D02*
D03*
X111803Y-185692D02*
D03*
X109834Y-185692D02*
D03*
X101960Y-185692D02*
D03*
X103929D02*
D03*
X105897Y-185692D02*
D03*
X107866Y-185692D02*
D03*
M02*
