G04*
G04 #@! TF.GenerationSoftware,Altium Limited,Altium Designer,23.6.0 (18)*
G04*
G04 Layer_Physical_Order=1*
G04 Layer_Color=255*
%FSLAX25Y25*%
%MOIN*%
G70*
G04*
G04 #@! TF.SameCoordinates,41434E86-4965-44CF-8D99-FF0C004B18D3*
G04*
G04*
G04 #@! TF.FilePolarity,Positive*
G04*
G01*
G75*
%ADD10C,0.01000*%
%ADD15C,0.00800*%
%ADD23R,0.03000X0.03500*%
%ADD24R,0.06000X0.07000*%
%ADD25R,0.03500X0.03000*%
%ADD26R,0.03622X0.03228*%
%ADD27R,0.02500X0.01800*%
%ADD28R,0.01800X0.02500*%
G04:AMPARAMS|DCode=29|XSize=25mil|YSize=18mil|CornerRadius=0mil|HoleSize=0mil|Usage=FLASHONLY|Rotation=283.000|XOffset=0mil|YOffset=0mil|HoleType=Round|Shape=Rectangle|*
%AMROTATEDRECTD29*
4,1,4,-0.01158,0.01016,0.00596,0.01420,0.01158,-0.01016,-0.00596,-0.01420,-0.01158,0.01016,0.0*
%
%ADD29ROTATEDRECTD29*%

G04:AMPARAMS|DCode=30|XSize=55.12mil|YSize=43.31mil|CornerRadius=0mil|HoleSize=0mil|Usage=FLASHONLY|Rotation=73.000|XOffset=0mil|YOffset=0mil|HoleType=Round|Shape=Rectangle|*
%AMROTATEDRECTD30*
4,1,4,0.01265,-0.03269,-0.02877,-0.02002,-0.01265,0.03269,0.02877,0.02002,0.01265,-0.03269,0.0*
%
%ADD30ROTATEDRECTD30*%

G04:AMPARAMS|DCode=31|XSize=25mil|YSize=18mil|CornerRadius=0mil|HoleSize=0mil|Usage=FLASHONLY|Rotation=327.000|XOffset=0mil|YOffset=0mil|HoleType=Round|Shape=Rectangle|*
%AMROTATEDRECTD31*
4,1,4,-0.01539,-0.00074,-0.00558,0.01436,0.01539,0.00074,0.00558,-0.01436,-0.01539,-0.00074,0.0*
%
%ADD31ROTATEDRECTD31*%

%ADD32R,0.03543X0.05906*%
%ADD33R,0.06693X0.22441*%
%ADD34R,0.03543X0.03543*%
%ADD35R,0.05906X0.03543*%
%ADD36R,0.02638X0.01181*%
G04:AMPARAMS|DCode=37|XSize=59.06mil|YSize=39.37mil|CornerRadius=0mil|HoleSize=0mil|Usage=FLASHONLY|Rotation=320.000|XOffset=0mil|YOffset=0mil|HoleType=Round|Shape=Rectangle|*
%AMROTATEDRECTD37*
4,1,4,-0.03527,0.00390,-0.00997,0.03406,0.03527,-0.00390,0.00997,-0.03406,-0.03527,0.00390,0.0*
%
%ADD37ROTATEDRECTD37*%

G04:AMPARAMS|DCode=38|XSize=55.12mil|YSize=43.31mil|CornerRadius=0mil|HoleSize=0mil|Usage=FLASHONLY|Rotation=335.000|XOffset=0mil|YOffset=0mil|HoleType=Round|Shape=Rectangle|*
%AMROTATEDRECTD38*
4,1,4,-0.03413,-0.00798,-0.01583,0.03127,0.03413,0.00798,0.01583,-0.03127,-0.03413,-0.00798,0.0*
%
%ADD38ROTATEDRECTD38*%

G04:AMPARAMS|DCode=39|XSize=60mil|YSize=60mil|CornerRadius=0mil|HoleSize=0mil|Usage=FLASHONLY|Rotation=270.000|XOffset=0mil|YOffset=0mil|HoleType=Round|Shape=Octagon|*
%AMOCTAGOND39*
4,1,8,-0.01500,-0.03000,0.01500,-0.03000,0.03000,-0.01500,0.03000,0.01500,0.01500,0.03000,-0.01500,0.03000,-0.03000,0.01500,-0.03000,-0.01500,-0.01500,-0.03000,0.0*
%
%ADD39OCTAGOND39*%

G04:AMPARAMS|DCode=40|XSize=59.06mil|YSize=39.37mil|CornerRadius=0mil|HoleSize=0mil|Usage=FLASHONLY|Rotation=128.000|XOffset=0mil|YOffset=0mil|HoleType=Round|Shape=Rectangle|*
%AMROTATEDRECTD40*
4,1,4,0.03369,-0.01115,0.00267,-0.03539,-0.03369,0.01115,-0.00267,0.03539,0.03369,-0.01115,0.0*
%
%ADD40ROTATEDRECTD40*%

%ADD41R,0.04000X0.06000*%
%ADD42R,0.06000X0.04000*%
G04:AMPARAMS|DCode=43|XSize=59.06mil|YSize=39.37mil|CornerRadius=0mil|HoleSize=0mil|Usage=FLASHONLY|Rotation=220.000|XOffset=0mil|YOffset=0mil|HoleType=Round|Shape=Rectangle|*
%AMROTATEDRECTD43*
4,1,4,0.00997,0.03406,0.03527,0.00390,-0.00997,-0.03406,-0.03527,-0.00390,0.00997,0.03406,0.0*
%
%ADD43ROTATEDRECTD43*%

%ADD44R,0.04331X0.02362*%
%ADD45R,0.04724X0.02362*%
%ADD46R,0.09449X0.12992*%
%ADD47R,0.01772X0.00984*%
%ADD48R,0.05709X0.00787*%
%ADD49R,0.04528X0.01378*%
%ADD50R,0.01968X0.03937*%
G04:AMPARAMS|DCode=51|XSize=40mil|YSize=60mil|CornerRadius=0mil|HoleSize=0mil|Usage=FLASHONLY|Rotation=237.000|XOffset=0mil|YOffset=0mil|HoleType=Round|Shape=Rectangle|*
%AMROTATEDRECTD51*
4,1,4,-0.01427,0.03311,0.03605,0.00043,0.01427,-0.03311,-0.03605,-0.00043,-0.01427,0.03311,0.0*
%
%ADD51ROTATEDRECTD51*%

G04:AMPARAMS|DCode=52|XSize=25mil|YSize=18mil|CornerRadius=0mil|HoleSize=0mil|Usage=FLASHONLY|Rotation=155.000|XOffset=0mil|YOffset=0mil|HoleType=Round|Shape=Rectangle|*
%AMROTATEDRECTD52*
4,1,4,0.01513,0.00287,0.00753,-0.01344,-0.01513,-0.00287,-0.00753,0.01344,0.01513,0.00287,0.0*
%
%ADD52ROTATEDRECTD52*%

G04:AMPARAMS|DCode=53|XSize=25mil|YSize=18mil|CornerRadius=0mil|HoleSize=0mil|Usage=FLASHONLY|Rotation=232.900|XOffset=0mil|YOffset=0mil|HoleType=Round|Shape=Rectangle|*
%AMROTATEDRECTD53*
4,1,4,0.00036,0.01540,0.01472,0.00454,-0.00036,-0.01540,-0.01472,-0.00454,0.00036,0.01540,0.0*
%
%ADD53ROTATEDRECTD53*%

G04:AMPARAMS|DCode=54|XSize=25mil|YSize=18mil|CornerRadius=0mil|HoleSize=0mil|Usage=FLASHONLY|Rotation=258.000|XOffset=0mil|YOffset=0mil|HoleType=Round|Shape=Rectangle|*
%AMROTATEDRECTD54*
4,1,4,-0.00620,0.01410,0.01140,0.01036,0.00620,-0.01410,-0.01140,-0.01036,-0.00620,0.01410,0.0*
%
%ADD54ROTATEDRECTD54*%

G04:AMPARAMS|DCode=55|XSize=25mil|YSize=18mil|CornerRadius=0mil|HoleSize=0mil|Usage=FLASHONLY|Rotation=163.000|XOffset=0mil|YOffset=0mil|HoleType=Round|Shape=Rectangle|*
%AMROTATEDRECTD55*
4,1,4,0.01459,0.00495,0.00932,-0.01226,-0.01459,-0.00495,-0.00932,0.01226,0.01459,0.00495,0.0*
%
%ADD55ROTATEDRECTD55*%

%ADD56R,0.06299X0.01968*%
%ADD57R,0.07087X0.04724*%
%ADD58R,0.03937X0.02362*%
%ADD59R,0.02362X0.03150*%
%ADD60R,0.03150X0.02362*%
%ADD61R,0.19291X0.08268*%
%ADD62R,0.03150X0.01181*%
%ADD63R,0.01181X0.03150*%
%ADD64R,0.04842X0.04842*%
%ADD65R,0.01968X0.01772*%
%ADD115C,0.02362*%
%ADD125C,0.02200*%
%ADD126C,0.02000*%
%ADD127C,0.01500*%
%ADD128C,0.02500*%
%ADD129C,0.01200*%
%ADD130C,0.02201*%
%ADD131C,0.04000*%
%ADD132C,0.03000*%
%ADD133C,0.03937*%
%ADD134R,0.37598X0.04336*%
%ADD135R,0.37598X0.04300*%
%ADD136R,0.04300X0.23500*%
%ADD137R,0.10500X0.22368*%
G04:AMPARAMS|DCode=138|XSize=18.33mil|YSize=138.79mil|CornerRadius=0mil|HoleSize=0mil|Usage=FLASHONLY|Rotation=73.000|XOffset=0mil|YOffset=0mil|HoleType=Round|Shape=Rectangle|*
%AMROTATEDRECTD138*
4,1,4,0.06368,-0.02906,-0.06904,0.01152,-0.06368,0.02906,0.06904,-0.01152,0.06368,-0.02906,0.0*
%
%ADD138ROTATEDRECTD138*%

%ADD139R,0.04300X0.95902*%
%ADD140R,0.03800X0.10600*%
%ADD141R,0.04120X0.06221*%
%ADD142R,0.07400X0.02445*%
%ADD143R,0.02965X0.09126*%
%ADD144R,0.02416X0.12535*%
%ADD145R,0.03937X0.07271*%
%ADD146R,0.02500X0.02550*%
%ADD147R,0.10609X0.03740*%
%ADD148R,0.05860X0.03709*%
%ADD149R,0.02839X0.08209*%
%ADD150R,0.25736X0.03554*%
G04:AMPARAMS|DCode=151|XSize=175.98mil|YSize=106.41mil|CornerRadius=0mil|HoleSize=0mil|Usage=FLASHONLY|Rotation=230.000|XOffset=0mil|YOffset=0mil|HoleType=Round|Shape=Rectangle|*
%AMROTATEDRECTD151*
4,1,4,0.01580,0.10160,0.09732,0.03321,-0.01580,-0.10160,-0.09732,-0.03321,0.01580,0.10160,0.0*
%
%ADD151ROTATEDRECTD151*%

%ADD152R,0.09637X0.03600*%
%ADD153R,0.03966X0.13613*%
%ADD154R,0.12809X0.04134*%
%ADD155R,0.06299X0.06102*%
%ADD156R,0.05600X0.15240*%
%ADD157R,0.04057X0.14264*%
G04:AMPARAMS|DCode=158|XSize=30.75mil|YSize=66.79mil|CornerRadius=0mil|HoleSize=0mil|Usage=FLASHONLY|Rotation=73.000|XOffset=0mil|YOffset=0mil|HoleType=Round|Shape=Rectangle|*
%AMROTATEDRECTD158*
4,1,4,0.02744,-0.02447,-0.03643,-0.00494,-0.02744,0.02447,0.03643,0.00494,0.02744,-0.02447,0.0*
%
%ADD158ROTATEDRECTD158*%

%ADD159R,0.06944X0.03200*%
%ADD160R,0.07106X0.04805*%
%ADD161R,0.07334X0.04705*%
%ADD162R,0.15811X0.04150*%
G04:AMPARAMS|DCode=163|XSize=65.43mil|YSize=265.55mil|CornerRadius=0mil|HoleSize=0mil|Usage=FLASHONLY|Rotation=237.000|XOffset=0mil|YOffset=0mil|HoleType=Round|Shape=Rectangle|*
%AMROTATEDRECTD163*
4,1,4,-0.09354,0.09975,0.12917,-0.04488,0.09354,-0.09975,-0.12917,0.04488,-0.09354,0.09975,0.0*
%
%ADD163ROTATEDRECTD163*%

G04:AMPARAMS|DCode=164|XSize=144.05mil|YSize=225.94mil|CornerRadius=0mil|HoleSize=0mil|Usage=FLASHONLY|Rotation=237.000|XOffset=0mil|YOffset=0mil|HoleType=Round|Shape=Rectangle|*
%AMROTATEDRECTD164*
4,1,4,-0.05552,0.12194,0.13397,-0.00112,0.05552,-0.12194,-0.13397,0.00112,-0.05552,0.12194,0.0*
%
%ADD164ROTATEDRECTD164*%

%ADD165R,0.03937X0.06102*%
G04:AMPARAMS|DCode=166|XSize=44mil|YSize=311.02mil|CornerRadius=0mil|HoleSize=0mil|Usage=FLASHONLY|Rotation=163.000|XOffset=0mil|YOffset=0mil|HoleType=Round|Shape=Rectangle|*
%AMROTATEDRECTD166*
4,1,4,0.06651,0.14229,-0.02443,-0.15515,-0.06651,-0.14229,0.02443,0.15515,0.06651,0.14229,0.0*
%
%ADD166ROTATEDRECTD166*%

%ADD167R,0.02050X0.10451*%
%ADD168R,0.04500X0.07050*%
%ADD169R,0.07183X0.02362*%
%ADD170R,0.14528X0.01500*%
%ADD171R,0.03000X0.07050*%
%ADD172R,0.09778X0.03000*%
%ADD173R,0.08854X0.03000*%
G04:AMPARAMS|DCode=174|XSize=87.78mil|YSize=51.46mil|CornerRadius=0mil|HoleSize=0mil|Usage=FLASHONLY|Rotation=320.000|XOffset=0mil|YOffset=0mil|HoleType=Round|Shape=Rectangle|*
%AMROTATEDRECTD174*
4,1,4,-0.05016,0.00850,-0.01708,0.04792,0.05016,-0.00850,0.01708,-0.04792,-0.05016,0.00850,0.0*
%
%ADD174ROTATEDRECTD174*%

%ADD175R,0.09600X0.07400*%
%ADD176R,0.06693X0.28221*%
%ADD177R,0.06720X0.26622*%
%ADD178R,0.01138X0.31598*%
%ADD179R,0.14122X0.09300*%
G04:AMPARAMS|DCode=180|XSize=177.89mil|YSize=41.19mil|CornerRadius=0mil|HoleSize=0mil|Usage=FLASHONLY|Rotation=320.000|XOffset=0mil|YOffset=0mil|HoleType=Round|Shape=Rectangle|*
%AMROTATEDRECTD180*
4,1,4,-0.08137,0.04140,-0.05490,0.07295,0.08137,-0.04140,0.05490,-0.07295,-0.08137,0.04140,0.0*
%
%ADD180ROTATEDRECTD180*%

%ADD181R,0.03167X0.02974*%
%ADD182R,0.16386X0.01800*%
%ADD183R,0.26350X0.11740*%
%ADD184R,0.07900X0.12723*%
%ADD185R,0.07560X0.03940*%
%ADD186R,0.06836X0.00984*%
%ADD187R,0.05972X0.49019*%
%ADD188R,0.21715X0.01378*%
G04:AMPARAMS|DCode=189|XSize=87.52mil|YSize=71.37mil|CornerRadius=0mil|HoleSize=0mil|Usage=FLASHONLY|Rotation=335.000|XOffset=0mil|YOffset=0mil|HoleType=Round|Shape=Rectangle|*
%AMROTATEDRECTD189*
4,1,4,-0.05474,-0.01385,-0.02458,0.05084,0.05474,0.01385,0.02458,-0.05084,-0.05474,-0.01385,0.0*
%
%ADD189ROTATEDRECTD189*%

G04:AMPARAMS|DCode=190|XSize=87.52mil|YSize=73.86mil|CornerRadius=0mil|HoleSize=0mil|Usage=FLASHONLY|Rotation=335.000|XOffset=0mil|YOffset=0mil|HoleType=Round|Shape=Rectangle|*
%AMROTATEDRECTD190*
4,1,4,-0.05527,-0.01498,-0.02405,0.05196,0.05527,0.01498,0.02405,-0.05196,-0.05527,-0.01498,0.0*
%
%ADD190ROTATEDRECTD190*%

%ADD191R,0.23915X0.01939*%
%ADD192R,0.20300X0.07013*%
%ADD193R,0.06578X0.00787*%
%ADD194R,0.19775X0.03711*%
%ADD195R,0.02857X0.07206*%
%ADD196R,0.07147X0.03500*%
%ADD197R,0.04347X0.08591*%
%ADD198R,0.10915X0.03000*%
%ADD199R,0.08887X0.03500*%
%ADD200R,0.03765X0.27600*%
%ADD201R,0.09887X0.03381*%
%ADD202R,0.03543X0.09554*%
%ADD203R,0.03000X0.14143*%
%ADD204R,0.07200X0.03500*%
%ADD205R,0.02649X0.06529*%
%ADD206R,0.18047X0.03798*%
%ADD207R,0.25115X0.04914*%
%ADD208R,0.07433X0.01181*%
%ADD209R,0.03915X0.03000*%
%ADD210R,0.06943X0.01181*%
%ADD211R,0.23911X0.10398*%
%ADD212R,0.29621X0.05125*%
%ADD213R,0.05211X0.17381*%
%ADD214R,0.56620X0.05400*%
%ADD215R,0.13813X0.17500*%
%ADD216R,0.04724X0.21162*%
%ADD217R,0.42166X0.13976*%
%ADD218R,0.02800X0.03600*%
%ADD219R,0.08872X0.04091*%
%ADD220R,0.08872X0.04091*%
%ADD221R,0.08035X0.05000*%
%ADD222R,0.20700X0.05000*%
%ADD223R,0.15975X0.04900*%
%ADD224R,0.06600X0.08700*%
%ADD225C,0.06299*%
%ADD226C,0.07087*%
%ADD227O,0.03543X0.07874*%
%ADD228O,0.03543X0.06693*%
%ADD229C,0.10236*%
%ADD230P,0.11136X4X282.0*%
%ADD231C,0.07874*%
%ADD232C,0.05906*%
%ADD233P,0.08352X4X158.0*%
G36*
X116461Y55231D02*
X121704Y54842D01*
X126927Y54245D01*
X127568Y54146D01*
X127851Y53734D01*
X127266Y50979D01*
X126740Y50912D01*
X125932Y51639D01*
X125237Y51994D01*
X124314Y47655D01*
X123392Y43316D01*
X124171Y43357D01*
X125309Y43727D01*
X126312Y44378D01*
X127113Y45267D01*
X127656Y46333D01*
X127833Y46425D01*
X127859Y46414D01*
X142950Y43206D01*
X143414Y42984D01*
X143477Y41789D01*
X143846Y40651D01*
X144498Y39648D01*
X145387Y38848D01*
X146082Y38493D01*
X147004Y42832D01*
X147927Y47171D01*
X147148Y47130D01*
X146114Y46794D01*
X145662Y47071D01*
X146234Y49762D01*
X146662Y50021D01*
X147248Y49858D01*
X152201Y48265D01*
X157088Y46477D01*
X161900Y44499D01*
X166631Y42332D01*
X171272Y39981D01*
X175818Y37448D01*
X180260Y34738D01*
X180807Y34374D01*
X180897Y33882D01*
X179025Y31271D01*
X178518Y31421D01*
X178098Y32416D01*
X177619Y33031D01*
X174943Y29493D01*
X172267Y25956D01*
X172990Y25662D01*
X174177Y25514D01*
X175362Y25679D01*
X176464Y26144D01*
X177408Y26879D01*
X177623Y26888D01*
X177675Y26829D01*
X189932Y17560D01*
X190257Y17161D01*
X189807Y16053D01*
X189660Y14866D01*
X189824Y13681D01*
X190289Y12579D01*
X190769Y11963D01*
X193444Y15501D01*
X196120Y19039D01*
X195397Y19332D01*
X194320Y19466D01*
X194027Y19909D01*
X195976Y22486D01*
X196473Y22540D01*
X197637Y21547D01*
X202736Y16704D01*
X204649Y14682D01*
X204612Y14183D01*
X203645Y13427D01*
X206078Y10312D01*
X208512Y7198D01*
X210192Y8510D01*
X212124Y6238D01*
X216387Y645D01*
X217613Y-1156D01*
X217443Y-1280D01*
X217049Y-1588D01*
X216710Y-1853D01*
X215897Y-1039D01*
X215747Y-678D01*
X215246Y-177D01*
X214592Y94D01*
X213883D01*
X213229Y-177D01*
X212727Y-678D01*
X212456Y-1333D01*
Y-2041D01*
X212727Y-2696D01*
X213229Y-3197D01*
X213590Y-3347D01*
X213853Y-3610D01*
X213823Y-4109D01*
X213395Y-4443D01*
X217770Y-10042D01*
X221226Y-7342D01*
X221717Y-7433D01*
X223989Y-11182D01*
X227307Y-17383D01*
X230290Y-23751D01*
X232929Y-30270D01*
X235218Y-36919D01*
X237149Y-43681D01*
X238717Y-50536D01*
X239134Y-52942D01*
X238812Y-53324D01*
X237019D01*
Y-56687D01*
Y-60049D01*
X240225D01*
X240747Y-64448D01*
X241204Y-71466D01*
X241286Y-78498D01*
X241104Y-82867D01*
X240812Y-83246D01*
X237019D01*
Y-86608D01*
Y-89970D01*
X240199D01*
X240535Y-90340D01*
X240328Y-92525D01*
X239856Y-95684D01*
X239433Y-95951D01*
X238032Y-95523D01*
X236933Y-99114D01*
X235835Y-102706D01*
X237667Y-103266D01*
X238145Y-103412D01*
X238469Y-103495D01*
X237882Y-106370D01*
X236110Y-113175D01*
X233977Y-119877D01*
X232183Y-124624D01*
X231710Y-124463D01*
X232859Y-120701D01*
X230550Y-119995D01*
X229451Y-123587D01*
X228353Y-127179D01*
X230357Y-127791D01*
X230657Y-128349D01*
X228658Y-132891D01*
X225486Y-139168D01*
X221984Y-145266D01*
X218162Y-151169D01*
X214825Y-155768D01*
X214412Y-155484D01*
X218595Y-149044D01*
X218686Y-148555D01*
X218404Y-148145D01*
X215191Y-146059D01*
X217304Y-142805D01*
X213163Y-140116D01*
X209023Y-137427D01*
X206920Y-140665D01*
X195170Y-133034D01*
X195396Y-132685D01*
X193509Y-131460D01*
X193918Y-130831D01*
X193289Y-130422D01*
X194324Y-128829D01*
X193234Y-128121D01*
X194878Y-125590D01*
X192152Y-123820D01*
X190518Y-126336D01*
X189889Y-125927D01*
X189480Y-126557D01*
X186126Y-124378D01*
X184900Y-126265D01*
X184986Y-126321D01*
X184954Y-126896D01*
X184745Y-127039D01*
X184707Y-127098D01*
X184659Y-127123D01*
X183623Y-128358D01*
X183191Y-128095D01*
X183690Y-126889D01*
X184120Y-125099D01*
X184264Y-123263D01*
X184262D01*
Y-116747D01*
X184246Y-116669D01*
X184398Y-115130D01*
X184869Y-113575D01*
X185635Y-112141D01*
X186617Y-110946D01*
X186683Y-110902D01*
X195934Y-101650D01*
X196294Y-101303D01*
X196294Y-101303D01*
X197388Y-99970D01*
X198201Y-98449D01*
X198702Y-96799D01*
X198871Y-95083D01*
X198862D01*
Y-94355D01*
X199228D01*
Y-89655D01*
X195028D01*
Y-94355D01*
X195394D01*
Y-95083D01*
X195412Y-95171D01*
X195241Y-96468D01*
X194707Y-97757D01*
X194155Y-98476D01*
X193836Y-98844D01*
X193490Y-99191D01*
X184231Y-108450D01*
X184229Y-108448D01*
X183033Y-109848D01*
X182071Y-111418D01*
X181366Y-113120D01*
X180936Y-114911D01*
X180791Y-116747D01*
X180794D01*
Y-123263D01*
X180810Y-123341D01*
X180658Y-124880D01*
X180186Y-126435D01*
X179420Y-127868D01*
X178439Y-129063D01*
X178373Y-129108D01*
X177531Y-129950D01*
X177487Y-130016D01*
X176291Y-130997D01*
X174858Y-131763D01*
X173303Y-132235D01*
X171764Y-132387D01*
X171686Y-132371D01*
X164541D01*
Y-132324D01*
X158616D01*
Y-135886D01*
X164541D01*
Y-135838D01*
X171686D01*
Y-135841D01*
X173522Y-135697D01*
X175312Y-135267D01*
X177014Y-134562D01*
X178584Y-133600D01*
X178904Y-133982D01*
X176141Y-137274D01*
X159216D01*
X159097Y-137324D01*
X158616D01*
Y-137804D01*
X158567Y-137924D01*
Y-149255D01*
X156628D01*
Y-146455D01*
X150628D01*
Y-149255D01*
X113722D01*
Y-111849D01*
X132215D01*
X132674Y-111659D01*
X132864Y-111200D01*
Y-110923D01*
X132896Y-110435D01*
X134465D01*
Y-108845D01*
X135214D01*
Y-108117D01*
X136533D01*
X136586Y-108095D01*
X137533D01*
Y-107254D01*
X137183D01*
Y-106286D01*
X137548Y-105928D01*
X138708D01*
X139073Y-106286D01*
Y-107254D01*
X138722D01*
Y-108095D01*
X139670D01*
X139722Y-108117D01*
X141041D01*
Y-108845D01*
X141791D01*
Y-110435D01*
X143166D01*
Y-112516D01*
X144666D01*
Y-110616D01*
X145416D01*
Y-109866D01*
X147666D01*
Y-108716D01*
X148062Y-108465D01*
X149478D01*
Y-121605D01*
X149669Y-122064D01*
X150128Y-122254D01*
X158567D01*
Y-125286D01*
X158616Y-125405D01*
Y-125886D01*
X159097D01*
X159216Y-125935D01*
X163941D01*
X164060Y-125886D01*
X164541D01*
Y-125405D01*
X164590Y-125286D01*
Y-104105D01*
X164400Y-103646D01*
X163941Y-103455D01*
X144166D01*
X143707Y-103646D01*
X143516Y-104105D01*
Y-105636D01*
X142960D01*
Y-103717D01*
X142960Y-103717D01*
X143010Y-103530D01*
X143010Y-103221D01*
Y-100824D01*
X143103D01*
Y-96124D01*
X142927D01*
X142819Y-95864D01*
X142360Y-95674D01*
X139503D01*
X139044Y-95864D01*
X138936Y-96124D01*
X138903D01*
Y-96204D01*
X138854Y-96324D01*
X138354Y-96436D01*
X138082Y-96324D01*
X137374D01*
X136719Y-96595D01*
X136218Y-97096D01*
X135947Y-97750D01*
Y-98459D01*
X136218Y-99114D01*
X136719Y-99615D01*
X137374Y-99886D01*
X138082D01*
X138354Y-99773D01*
X138854Y-99979D01*
Y-103530D01*
X138614Y-103888D01*
X137533D01*
Y-103689D01*
X135214D01*
Y-102939D01*
X134465D01*
Y-101349D01*
X132896D01*
Y-102048D01*
X132396Y-102332D01*
X132311Y-102281D01*
Y-101640D01*
X129562D01*
X129443Y-101590D01*
X127377D01*
Y-100240D01*
X129211D01*
Y-97740D01*
X129961D01*
Y-96990D01*
X132711D01*
Y-95240D01*
X132487D01*
X132238Y-94740D01*
X132360Y-94445D01*
Y-88954D01*
X139696D01*
X139815Y-88905D01*
X140296D01*
Y-88538D01*
X141288D01*
X141321Y-88531D01*
X142503Y-88415D01*
X143521Y-88106D01*
X143613Y-88088D01*
X143639Y-88070D01*
X143672Y-88060D01*
X143674Y-88059D01*
X143691Y-88056D01*
X143735Y-88026D01*
X144749Y-87485D01*
X145693Y-86710D01*
X146468Y-85766D01*
X147010Y-84752D01*
X147039Y-84708D01*
X147042Y-84691D01*
X147044Y-84689D01*
X147398Y-83520D01*
X147514Y-82337D01*
X147521Y-82305D01*
Y-74376D01*
X147527D01*
X147371Y-72798D01*
X146911Y-71281D01*
X146163Y-69882D01*
X145158Y-68657D01*
X143932Y-67651D01*
X142534Y-66903D01*
X141016Y-66443D01*
X139439Y-66288D01*
Y-66293D01*
X136469D01*
X136391Y-66309D01*
X134852Y-66157D01*
X133296Y-65685D01*
X131863Y-64919D01*
X130667Y-63938D01*
X130623Y-63872D01*
X120358Y-53606D01*
X120310Y-53491D01*
X119809Y-52990D01*
X119154Y-52719D01*
X118446D01*
X117791Y-52990D01*
X117290Y-53491D01*
X117019Y-54146D01*
Y-54854D01*
X117290Y-55509D01*
X117791Y-56010D01*
X117906Y-56058D01*
X128172Y-66323D01*
X128170Y-66325D01*
X129269Y-67264D01*
X129043Y-67729D01*
X128781Y-67677D01*
X126595D01*
X126309Y-67390D01*
X125654Y-67119D01*
X124946D01*
X124291Y-67390D01*
X123790Y-67891D01*
X123519Y-68546D01*
Y-69254D01*
X123790Y-69909D01*
X124291Y-70410D01*
X124946Y-70681D01*
X125654D01*
X126309Y-70410D01*
X126595Y-70123D01*
X128274D01*
X129722Y-71572D01*
Y-77683D01*
X128181D01*
Y-78241D01*
X127317D01*
X127313Y-78242D01*
X126615Y-78334D01*
X125961Y-78605D01*
X125399Y-79036D01*
X124967Y-79598D01*
X124696Y-80252D01*
X124604Y-80950D01*
X124604Y-80955D01*
Y-86954D01*
X124606Y-86963D01*
X124489Y-87849D01*
X124225Y-88486D01*
X124128Y-88574D01*
X124024Y-88617D01*
X123524Y-88283D01*
Y-84887D01*
X123334Y-84428D01*
X122875Y-84238D01*
X118423D01*
X117978Y-84105D01*
X117978Y-83737D01*
Y-82955D01*
X115728D01*
Y-82205D01*
X114978D01*
Y-80305D01*
X113918D01*
Y-78164D01*
X111918D01*
Y-80664D01*
Y-83165D01*
X113124D01*
X113478Y-83518D01*
X113478Y-84105D01*
X113033Y-84238D01*
X104828D01*
X104369Y-84428D01*
X104178Y-84887D01*
Y-88685D01*
X104369Y-89144D01*
X104828Y-89334D01*
X122464D01*
X122773Y-89834D01*
X122673Y-90034D01*
X122043Y-90295D01*
X121157Y-90411D01*
X121148Y-90409D01*
X110108D01*
Y-90402D01*
X108838Y-90527D01*
X107616Y-90897D01*
X106491Y-91499D01*
X105504Y-92309D01*
X104694Y-93296D01*
X104092Y-94421D01*
X103722Y-95643D01*
X103596Y-96913D01*
X103604D01*
Y-159205D01*
X103606Y-159212D01*
X103492Y-160371D01*
X103152Y-161493D01*
X102599Y-162526D01*
X101856Y-163432D01*
X100950Y-164176D01*
X99916Y-164728D01*
X98794Y-165069D01*
X97636Y-165183D01*
X97628Y-165181D01*
X87628D01*
X87616Y-165183D01*
X86707Y-165064D01*
X85849Y-164708D01*
X85112Y-164143D01*
X84547Y-163406D01*
X84191Y-162548D01*
X84072Y-161639D01*
X84074Y-161627D01*
Y-160918D01*
X84093D01*
X83923Y-159627D01*
X83425Y-158424D01*
X82911Y-157755D01*
X83158Y-157255D01*
X85078D01*
Y-156105D01*
X82828D01*
Y-154605D01*
X85078D01*
Y-153455D01*
X85474Y-153204D01*
X86490D01*
Y-153205D01*
X86680Y-153664D01*
X87140Y-153854D01*
X93833D01*
X93952Y-153805D01*
X94228D01*
Y-153690D01*
X94292Y-153664D01*
X94482Y-153205D01*
Y-152836D01*
X95607D01*
Y-152838D01*
X96623Y-152705D01*
X97570Y-152312D01*
X98383Y-151688D01*
X98381Y-151687D01*
X98387Y-151678D01*
X98950Y-150944D01*
X99308Y-150080D01*
X99429Y-149164D01*
X99431Y-149153D01*
Y-143855D01*
X99581Y-143493D01*
Y-142785D01*
X99309Y-142130D01*
X98808Y-141629D01*
X98154Y-141358D01*
X97445D01*
X96790Y-141629D01*
X96289Y-142130D01*
X96018Y-142785D01*
Y-143493D01*
X96168Y-143855D01*
Y-148916D01*
X96101Y-149231D01*
X95852Y-149519D01*
X95607Y-149567D01*
Y-149573D01*
X94482D01*
Y-124984D01*
X94433Y-124865D01*
Y-124384D01*
X93952D01*
X93833Y-124335D01*
X87140D01*
X87020Y-124384D01*
X86540D01*
Y-124865D01*
X86490Y-124984D01*
Y-150105D01*
X77242D01*
X77209Y-150119D01*
X76793Y-149841D01*
Y-124984D01*
X76716Y-124799D01*
Y-124384D01*
X76263D01*
X76143Y-124335D01*
X69423D01*
X69304Y-124384D01*
X68823D01*
Y-124865D01*
X68774Y-124984D01*
Y-151606D01*
X68868Y-151835D01*
X68580Y-152335D01*
X68565D01*
Y-152632D01*
X68378Y-153055D01*
X68065Y-153055D01*
X66878D01*
Y-154955D01*
X65378D01*
Y-153055D01*
X63978D01*
Y-151105D01*
X61978D01*
Y-153605D01*
Y-156105D01*
X63524D01*
X63810Y-156390D01*
X63746Y-156904D01*
X63445Y-157016D01*
X57590D01*
X57335Y-156982D01*
X30053D01*
X28978Y-155907D01*
X29136Y-155718D01*
X26975Y-153904D01*
X26618Y-153547D01*
X26075Y-153131D01*
X26032Y-153113D01*
X23693Y-151151D01*
X20391Y-155086D01*
X22786Y-157095D01*
X22909Y-157256D01*
X27112Y-161459D01*
X27112Y-161459D01*
X27655Y-161876D01*
X28288Y-162138D01*
X28967Y-162227D01*
X28967Y-162227D01*
X49528D01*
Y-164679D01*
X49719Y-165138D01*
X50178Y-165328D01*
X57722D01*
Y-169782D01*
X57722Y-169782D01*
X57812Y-170461D01*
X58074Y-171094D01*
X58490Y-171637D01*
X62987Y-176133D01*
X62987Y-176133D01*
X63336Y-176401D01*
X63076Y-176831D01*
X46657Y-169175D01*
X46695Y-169057D01*
X46465Y-168616D01*
X39741Y-162973D01*
X39266Y-162824D01*
X38826Y-163053D01*
X35518Y-166995D01*
X35368Y-167469D01*
X35494Y-167711D01*
X35471Y-167739D01*
X35598Y-167910D01*
X35806Y-168085D01*
X40302Y-171857D01*
X40077Y-172304D01*
X39677Y-172208D01*
X38410Y-172108D01*
X37937Y-172064D01*
X37933Y-172064D01*
X37928Y-172064D01*
Y-172064D01*
X37108Y-172227D01*
X36414Y-172691D01*
X35950Y-173385D01*
X35787Y-174205D01*
X35950Y-175024D01*
X36414Y-175719D01*
X37108Y-176183D01*
X37928Y-176346D01*
Y-176346D01*
X38418Y-176370D01*
X39280Y-176454D01*
X40581Y-176849D01*
X41540Y-177362D01*
X40698Y-179167D01*
X40698Y-179168D01*
X40629Y-179470D01*
X40127Y-179738D01*
X40105Y-179728D01*
X39619Y-180770D01*
X41658Y-181721D01*
X43697Y-182672D01*
X44018Y-181984D01*
X44183Y-181630D01*
X44642Y-181723D01*
X48944Y-183730D01*
X48944Y-183730D01*
X49441Y-183751D01*
X49443Y-183749D01*
X49807Y-183415D01*
X51109Y-180625D01*
X68174Y-188582D01*
X67910Y-189148D01*
X73993Y-191984D01*
X76186Y-187281D01*
X76790Y-187027D01*
X80989Y-189159D01*
X81246Y-189231D01*
X81498Y-189320D01*
X83484Y-189603D01*
X83491Y-189610D01*
X84146Y-189881D01*
X84854D01*
X85509Y-189610D01*
X86010Y-189109D01*
X86281Y-188454D01*
Y-187746D01*
X86010Y-187091D01*
X85509Y-186590D01*
X84854Y-186319D01*
X84146D01*
X83997Y-186380D01*
X82226Y-186128D01*
X73402Y-181648D01*
X73376Y-181640D01*
X73353Y-181624D01*
X64024Y-177274D01*
X64162Y-176812D01*
X64841Y-176901D01*
X91178D01*
Y-182005D01*
X91369Y-182464D01*
X91237Y-182950D01*
X89745D01*
X89286Y-183141D01*
X89095Y-183600D01*
Y-206529D01*
X88712Y-206850D01*
X82744Y-205788D01*
X75896Y-204188D01*
X69966Y-202465D01*
X69760Y-202009D01*
X70216Y-201031D01*
X66812Y-199444D01*
X63408Y-197857D01*
X62460Y-199888D01*
X55998Y-197236D01*
X49644Y-194224D01*
X46058Y-192284D01*
X47023Y-190217D01*
X43619Y-188629D01*
X40215Y-187042D01*
X39702Y-188141D01*
X39224Y-188285D01*
X37461Y-187206D01*
X31667Y-183220D01*
X26094Y-178932D01*
X20757Y-174352D01*
X15671Y-169495D01*
X12285Y-165896D01*
X12628Y-165532D01*
X17483Y-169606D01*
X20785Y-165670D01*
X15342Y-161103D01*
X12098Y-164969D01*
X11571Y-165138D01*
X10852Y-164374D01*
X6312Y-159003D01*
X2065Y-153398D01*
X2003Y-153307D01*
X2237Y-152865D01*
X17717Y-152826D01*
X18008Y-152767D01*
X18298Y-152710D01*
X18300Y-152709D01*
X18302Y-152708D01*
X18547Y-152543D01*
X18794Y-152378D01*
X18795Y-152377D01*
X18797Y-152375D01*
X18961Y-152129D01*
X19126Y-151882D01*
X19126Y-151880D01*
X19127Y-151878D01*
X19184Y-151587D01*
X19242Y-151297D01*
Y-108D01*
X19185Y180D01*
X19129Y469D01*
X19127Y473D01*
X19126Y477D01*
X18963Y722D01*
X18801Y967D01*
X18797Y970D01*
X18794Y974D01*
X18550Y1137D01*
X18307Y1302D01*
X18302Y1302D01*
X18298Y1305D01*
X18010Y1362D01*
X17722Y1421D01*
X3514Y1507D01*
X3291Y1954D01*
X4764Y3929D01*
X7231Y7038D01*
X9791Y10071D01*
X12441Y13026D01*
X15178Y15900D01*
X18000Y18690D01*
X20808Y21303D01*
X21348Y21354D01*
X21406Y21349D01*
X23464Y18715D01*
X23178Y18268D01*
X22103Y18117D01*
X21384Y17812D01*
X24115Y14317D01*
X26846Y10821D01*
X27316Y11445D01*
X27764Y12554D01*
X27910Y13741D01*
X27743Y14926D01*
X27276Y16027D01*
X27319Y16221D01*
X27343Y16233D01*
X39502Y25733D01*
X39971Y25945D01*
X40926Y25225D01*
X42035Y24777D01*
X43223Y24632D01*
X44407Y24798D01*
X45125Y25103D01*
X42395Y28598D01*
X39664Y32094D01*
X39194Y31470D01*
X38826Y30558D01*
X38283Y30452D01*
X36423Y33000D01*
X36508Y33493D01*
X37062Y33871D01*
X41481Y36641D01*
X46006Y39234D01*
X50630Y41646D01*
X55346Y43873D01*
X60146Y45913D01*
X65023Y47761D01*
X69969Y49415D01*
X70570Y49590D01*
X71001Y49337D01*
X71638Y46580D01*
X71190Y46296D01*
X70151Y46613D01*
X69371Y46641D01*
X70369Y42319D01*
X71367Y37997D01*
X72056Y38363D01*
X72931Y39179D01*
X73564Y40194D01*
X73914Y41337D01*
X73956Y42533D01*
X74416Y42763D01*
X89450Y46234D01*
X89475Y46246D01*
X89653Y46157D01*
X90215Y45101D01*
X91031Y44226D01*
X92045Y43592D01*
X93189Y43242D01*
X93969Y43215D01*
X92971Y47537D01*
X91973Y51859D01*
X91285Y51493D01*
X90490Y50751D01*
X89963Y50810D01*
X89338Y53515D01*
X89616Y53931D01*
X90244Y54035D01*
X95460Y54692D01*
X100698Y55141D01*
X105950Y55380D01*
X111207Y55410D01*
X116461Y55231D01*
D02*
G37*
G36*
X131141Y-68484D02*
X132842Y-69188D01*
X134387Y-69559D01*
X134633Y-69618D01*
X136469Y-69763D01*
Y-69760D01*
X139439D01*
X139508Y-69746D01*
X140639Y-69895D01*
X141758Y-70358D01*
X142719Y-71096D01*
X143456Y-72056D01*
X143919Y-73175D01*
X144068Y-74306D01*
X144054Y-74376D01*
Y-82305D01*
X144059Y-82326D01*
X143967Y-83023D01*
X143824Y-83368D01*
X143690Y-83692D01*
X143249Y-84266D01*
X142675Y-84707D01*
X142351Y-84841D01*
X142006Y-84984D01*
X141309Y-85076D01*
X141288Y-85071D01*
X140296D01*
Y-84705D01*
X139815D01*
X139696Y-84655D01*
X134111D01*
Y-83955D01*
X130946D01*
Y-82455D01*
X134111D01*
Y-81024D01*
X133711D01*
Y-77683D01*
X132169D01*
Y-71065D01*
X132076Y-70597D01*
X131811Y-70200D01*
X129953Y-68343D01*
X130265Y-67947D01*
X131141Y-68484D01*
D02*
G37*
G36*
X123440Y-92608D02*
X123611Y-92758D01*
X123662Y-92843D01*
Y-94445D01*
Y-105240D01*
X123397Y-105637D01*
X107100D01*
X106641Y-105827D01*
X106551Y-106043D01*
X106051Y-105943D01*
Y-96913D01*
X106046Y-96888D01*
X106182Y-95861D01*
X106588Y-94881D01*
X107234Y-94039D01*
X108076Y-93393D01*
X109056Y-92987D01*
X110083Y-92851D01*
X110108Y-92856D01*
X121148D01*
Y-92861D01*
X122300Y-92748D01*
X123162Y-92487D01*
X123440Y-92608D01*
D02*
G37*
G36*
X125570Y-156454D02*
X110368Y-171656D01*
X80578D01*
Y-170155D01*
X75078D01*
Y-171656D01*
X65927D01*
X62967Y-168696D01*
Y-165328D01*
X70478D01*
X70655Y-165255D01*
X71078D01*
Y-164798D01*
X71127Y-164679D01*
Y-160254D01*
X74092D01*
X74552Y-160064D01*
X74742Y-159605D01*
Y-157665D01*
X75032Y-157232D01*
X76143D01*
X76543Y-157500D01*
X76454Y-158000D01*
X76378D01*
X75919Y-158190D01*
X75728Y-158650D01*
Y-161029D01*
X72378D01*
X71919Y-161219D01*
X71780Y-161555D01*
X71778D01*
Y-161559D01*
X71728Y-161679D01*
Y-165179D01*
X71919Y-165638D01*
X72378Y-165828D01*
X79578D01*
X80037Y-165638D01*
X80092Y-165505D01*
X80178D01*
Y-165298D01*
X80227Y-165179D01*
Y-161679D01*
X80178Y-161559D01*
Y-161305D01*
X80072D01*
X80037Y-161219D01*
X79676Y-161070D01*
Y-158998D01*
X79956Y-158699D01*
X80167Y-158626D01*
X80904Y-159119D01*
X81456Y-159944D01*
X81638Y-160862D01*
X81627Y-160918D01*
Y-161627D01*
X81622D01*
X81737Y-162799D01*
X82079Y-163926D01*
X82634Y-164964D01*
X83381Y-165874D01*
X84291Y-166621D01*
X85329Y-167176D01*
X86456Y-167518D01*
X87628Y-167634D01*
Y-167628D01*
X97628D01*
Y-167645D01*
X99274Y-167483D01*
X100858Y-167003D01*
X102317Y-166223D01*
X103596Y-165173D01*
X104646Y-163894D01*
X105426Y-162435D01*
X105627Y-161771D01*
X106154Y-161758D01*
X108100Y-163705D01*
X109350D01*
Y-159705D01*
X110100D01*
Y-158955D01*
X114100D01*
Y-157705D01*
X112811Y-156416D01*
X113003Y-155954D01*
X125363D01*
X125570Y-156454D01*
D02*
G37*
G36*
X209802Y-161284D02*
X209864Y-161368D01*
X209988Y-161850D01*
X209603Y-162324D01*
X204891Y-167543D01*
X204122Y-168308D01*
X203623Y-168286D01*
X202953Y-167488D01*
X199925Y-170029D01*
X196897Y-172570D01*
X198156Y-174070D01*
X194665Y-177193D01*
X189198Y-181582D01*
X188770Y-181835D01*
X188736Y-181791D01*
X188415Y-181409D01*
X185434Y-177856D01*
X179991Y-182424D01*
X180442Y-182961D01*
X178228Y-184818D01*
X148568Y-192300D01*
X148554Y-192295D01*
X147846D01*
X147191Y-192566D01*
X146690Y-193067D01*
X146419Y-193721D01*
Y-194430D01*
X146690Y-195085D01*
X147191Y-195586D01*
X147846Y-195857D01*
X148554D01*
X149209Y-195586D01*
X149319Y-195476D01*
X178956Y-188000D01*
X179157Y-188465D01*
X177550Y-189494D01*
X171435Y-192968D01*
X165145Y-196111D01*
X158695Y-198914D01*
X152105Y-201370D01*
X145394Y-203471D01*
X138581Y-205212D01*
X135336Y-205859D01*
X134949Y-205542D01*
Y-191550D01*
X136321D01*
X136800Y-191600D01*
X136800Y-192050D01*
Y-195350D01*
X140050D01*
Y-191576D01*
X139800Y-191550D01*
X139800Y-191100D01*
Y-189550D01*
X137300D01*
Y-188800D01*
X136550D01*
Y-186050D01*
X134949D01*
Y-183600D01*
X134759Y-183141D01*
X134300Y-182950D01*
X122039D01*
X121907Y-182464D01*
X122098Y-182005D01*
Y-181086D01*
X122403D01*
X123057Y-180815D01*
X123558Y-180314D01*
X123829Y-179659D01*
Y-178950D01*
X123558Y-178296D01*
X123057Y-177795D01*
X122403Y-177524D01*
X122098D01*
Y-176880D01*
X121907Y-176421D01*
X121448Y-176231D01*
X120341D01*
X120082Y-176124D01*
X119374D01*
X119115Y-176231D01*
X113918D01*
X113711Y-175731D01*
X129682Y-159759D01*
X130099Y-159216D01*
X130361Y-158583D01*
X130450Y-157905D01*
X130361Y-157226D01*
X130099Y-156594D01*
X129992Y-156454D01*
X130239Y-155954D01*
X164428D01*
X164887Y-155764D01*
X165077Y-155305D01*
Y-152549D01*
X196352D01*
X209802Y-161284D01*
D02*
G37*
G36*
X123151Y-202271D02*
X94694D01*
Y-188586D01*
X95563D01*
X95841Y-189086D01*
X95652Y-189543D01*
Y-190267D01*
X95929Y-190936D01*
X96441Y-191448D01*
X97110Y-191725D01*
X97834D01*
X98503Y-191448D01*
X99015Y-190936D01*
X99292Y-190267D01*
Y-189543D01*
X99103Y-189086D01*
X99381Y-188586D01*
X118319D01*
X118597Y-189086D01*
X118407Y-189543D01*
Y-190267D01*
X118684Y-190936D01*
X119197Y-191448D01*
X119866Y-191725D01*
X120590D01*
X121259Y-191448D01*
X121771Y-190936D01*
X122048Y-190267D01*
Y-189543D01*
X121859Y-189086D01*
X122137Y-188586D01*
X123151D01*
Y-202271D01*
D02*
G37*
%LPC*%
G36*
X123280Y52409D02*
X122501Y52369D01*
X121364Y51999D01*
X120360Y51348D01*
X119560Y50459D01*
X119206Y49763D01*
X122566Y49049D01*
X123280Y52409D01*
D02*
G37*
G36*
X93922Y52309D02*
X94695Y48961D01*
X98043Y49734D01*
X97676Y50423D01*
X96860Y51298D01*
X95846Y51932D01*
X94702Y52282D01*
X93922Y52309D01*
D02*
G37*
G36*
X118790Y47807D02*
X118831Y47028D01*
X119200Y45890D01*
X119852Y44887D01*
X120741Y44086D01*
X121436Y43732D01*
X122150Y47093D01*
X118790Y47807D01*
D02*
G37*
G36*
X98492Y47785D02*
X95145Y47012D01*
X95918Y43665D01*
X96607Y44031D01*
X97482Y44847D01*
X98115Y45862D01*
X98465Y47006D01*
X98492Y47785D01*
D02*
G37*
G36*
X149883Y46755D02*
X149169Y43395D01*
X152529Y42680D01*
X152488Y43459D01*
X152119Y44597D01*
X151467Y45600D01*
X150578Y46401D01*
X149883Y46755D01*
D02*
G37*
G36*
X67422Y46191D02*
X66733Y45825D01*
X65859Y45009D01*
X65225Y43994D01*
X64875Y42850D01*
X64848Y42070D01*
X68195Y42843D01*
X67422Y46191D01*
D02*
G37*
G36*
X125520Y43064D02*
X124898Y43032D01*
X123859Y42694D01*
X122943Y42099D01*
X122212Y41287D01*
X121929Y40732D01*
X124891Y40102D01*
X125520Y43064D01*
D02*
G37*
G36*
X127477Y42649D02*
X126847Y39687D01*
X129809Y39057D01*
X129776Y39679D01*
X129439Y40718D01*
X128843Y41635D01*
X128032Y42366D01*
X127477Y42649D01*
D02*
G37*
G36*
X148753Y41438D02*
X148038Y38078D01*
X148818Y38118D01*
X149955Y38488D01*
X150959Y39140D01*
X151759Y40029D01*
X152113Y40724D01*
X148753Y41438D01*
D02*
G37*
G36*
X68645Y40895D02*
X65298Y40122D01*
X65664Y39433D01*
X66480Y38558D01*
X67494Y37924D01*
X68638Y37574D01*
X69418Y37547D01*
X68645Y40895D01*
D02*
G37*
G36*
X75351Y39118D02*
X76032Y36167D01*
X78982Y36849D01*
X78690Y37398D01*
X77945Y38198D01*
X77018Y38776D01*
X75973Y39096D01*
X75351Y39118D01*
D02*
G37*
G36*
X121513Y38776D02*
X121546Y38154D01*
X121883Y37115D01*
X122478Y36198D01*
X123290Y35467D01*
X123845Y35184D01*
X124475Y38146D01*
X121513Y38776D01*
D02*
G37*
G36*
X73402Y38668D02*
X72852Y38375D01*
X72053Y37630D01*
X71474Y36704D01*
X71154Y35659D01*
X71133Y35036D01*
X74083Y35717D01*
X73402Y38668D01*
D02*
G37*
G36*
X126431Y37730D02*
X125802Y34768D01*
X126424Y34801D01*
X127463Y35139D01*
X128379Y35734D01*
X129110Y36546D01*
X129393Y37101D01*
X126431Y37730D01*
D02*
G37*
G36*
X174113Y34679D02*
X172928Y34514D01*
X171826Y34049D01*
X171211Y33570D01*
X173951Y31497D01*
X176023Y34238D01*
X175300Y34531D01*
X174113Y34679D01*
D02*
G37*
G36*
X79432Y34900D02*
X76482Y34219D01*
X77163Y31268D01*
X77713Y31561D01*
X78512Y32306D01*
X79091Y33232D01*
X79410Y34277D01*
X79432Y34900D01*
D02*
G37*
G36*
X74533Y33769D02*
X71583Y33088D01*
X71875Y32537D01*
X72620Y31738D01*
X73547Y31159D01*
X74591Y30840D01*
X75214Y30818D01*
X74533Y33769D01*
D02*
G37*
G36*
X43143Y33796D02*
X41958Y33630D01*
X41240Y33325D01*
X43355Y30618D01*
X46062Y32733D01*
X45439Y33202D01*
X44330Y33650D01*
X43143Y33796D01*
D02*
G37*
G36*
X170004Y31975D02*
X169711Y31252D01*
X169563Y30065D01*
X169727Y28880D01*
X170193Y27778D01*
X170672Y27162D01*
X172745Y29902D01*
X170004Y31975D01*
D02*
G37*
G36*
X47294Y31157D02*
X44586Y29041D01*
X46701Y26334D01*
X47171Y26957D01*
X47619Y28067D01*
X47765Y29254D01*
X47598Y30439D01*
X47294Y31157D01*
D02*
G37*
G36*
X44979Y24339D02*
X43897Y24187D01*
X43323Y23944D01*
X45188Y21557D01*
X47574Y23422D01*
X47076Y23797D01*
X46063Y24206D01*
X44979Y24339D01*
D02*
G37*
G36*
X41747Y22712D02*
X41372Y22215D01*
X40963Y21202D01*
X40830Y20117D01*
X40982Y19035D01*
X41225Y18462D01*
X43611Y20326D01*
X41747Y22712D01*
D02*
G37*
G36*
X48805Y21846D02*
X46419Y19982D01*
X48283Y17595D01*
X48658Y18093D01*
X49067Y19106D01*
X49200Y20190D01*
X49048Y21272D01*
X48805Y21846D01*
D02*
G37*
G36*
X91415Y42541D02*
X90453Y42319D01*
X89581Y41855D01*
X88859Y41182D01*
X88336Y40345D01*
X88047Y39400D01*
X88013Y38414D01*
X88235Y37452D01*
X88699Y36580D01*
X89372Y35858D01*
X90209Y35335D01*
X91153Y35046D01*
X92140Y35012D01*
X93019Y35215D01*
X93020Y35215D01*
X93289Y35077D01*
X93515Y34887D01*
Y21144D01*
X93531Y21066D01*
X93379Y19527D01*
X92908Y17972D01*
X92142Y16538D01*
X91428Y15669D01*
X91094Y15299D01*
Y15299D01*
X90747Y14951D01*
X88976Y13180D01*
X87817Y12913D01*
X87440Y13211D01*
X87435Y13235D01*
X86314Y12976D01*
X86820Y10784D01*
X86089Y10615D01*
X86258Y9884D01*
X84407Y9457D01*
X84744Y7996D01*
X87184Y8559D01*
X87239Y8480D01*
X87402Y8021D01*
X87371Y7974D01*
X86568Y7358D01*
X85582Y6950D01*
X84579Y6818D01*
X84524Y6829D01*
X83849D01*
Y6845D01*
X81832Y6646D01*
X79893Y6058D01*
X78106Y5103D01*
X76539Y3818D01*
X76551Y3806D01*
X75231Y2486D01*
X75222Y2496D01*
X74016Y1026D01*
X73119Y-651D01*
X72567Y-2470D01*
X72381Y-4362D01*
X72395D01*
Y-34081D01*
X72385Y-34105D01*
Y-37305D01*
X72550Y-37703D01*
X72361Y-38203D01*
X70906D01*
X70406Y-38203D01*
X70162Y-38203D01*
X65906D01*
X65662Y-38203D01*
X65162Y-38203D01*
X60906D01*
X60406Y-38203D01*
X60163Y-38203D01*
X55906D01*
X55663Y-38203D01*
X55163Y-38203D01*
X50906D01*
X50406Y-38203D01*
X50163Y-38203D01*
X45906D01*
X45406Y-38203D01*
X45162Y-38203D01*
X40906D01*
X40663Y-38203D01*
X40163Y-38203D01*
X35906D01*
X35534Y-38203D01*
X35016Y-38203D01*
X34662Y-37850D01*
Y-37205D01*
X35378D01*
Y-33005D01*
X30678D01*
Y-37205D01*
X31400D01*
Y-37850D01*
X31051Y-38199D01*
X30900Y-38203D01*
X30406Y-38203D01*
X30163Y-38203D01*
X25806D01*
Y-37803D01*
X23784D01*
Y-41756D01*
Y-45709D01*
X25806D01*
Y-45309D01*
X30163D01*
X30663Y-45309D01*
X30906Y-45309D01*
X31651D01*
Y-45862D01*
X31518Y-45996D01*
X31247Y-46650D01*
Y-47359D01*
X31518Y-48014D01*
X32019Y-48515D01*
X32674Y-48786D01*
X33382D01*
X34037Y-48515D01*
X34538Y-48014D01*
X34809Y-47359D01*
Y-46650D01*
X34538Y-45996D01*
X34616Y-45450D01*
X34758Y-45309D01*
X35534Y-45309D01*
X35906Y-45309D01*
X36658D01*
Y-56934D01*
X36762Y-57461D01*
X37061Y-57907D01*
X41927Y-62773D01*
X42373Y-63072D01*
X42900Y-63176D01*
X60100D01*
X60627Y-63072D01*
X61073Y-62773D01*
X63465Y-60381D01*
X63654D01*
X64309Y-60110D01*
X64810Y-59609D01*
X65081Y-58954D01*
Y-58246D01*
X64810Y-57591D01*
X64309Y-57090D01*
X63654Y-56819D01*
X62946D01*
X62291Y-57090D01*
X61790Y-57591D01*
X61519Y-58246D01*
Y-58434D01*
X59530Y-60424D01*
X54902D01*
X54695Y-59924D01*
X55010Y-59609D01*
X55281Y-58954D01*
Y-58246D01*
X55010Y-57591D01*
X54509Y-57090D01*
X54100Y-56921D01*
Y-56379D01*
X54509Y-56210D01*
X55010Y-55709D01*
X55281Y-55054D01*
Y-54346D01*
X55010Y-53691D01*
X54509Y-53190D01*
X53854Y-52919D01*
X53146D01*
X52491Y-53190D01*
X52358Y-53324D01*
X50370D01*
X49411Y-52364D01*
Y-45309D01*
X50163D01*
X50662Y-45309D01*
X50906Y-45309D01*
X55163D01*
X55406Y-45309D01*
X55906Y-45309D01*
X60163D01*
X60663Y-45309D01*
X60906Y-45309D01*
X65162D01*
X65406Y-45309D01*
X65906Y-45309D01*
X70162D01*
X70662Y-45309D01*
X70906Y-45309D01*
X71658D01*
Y-53996D01*
X63327Y-62327D01*
X63028Y-62773D01*
X62924Y-63300D01*
Y-98158D01*
X62790Y-98291D01*
X62519Y-98946D01*
Y-99654D01*
X62790Y-100309D01*
X63291Y-100810D01*
X63946Y-101081D01*
X64654D01*
X65309Y-100810D01*
X65810Y-100309D01*
X66081Y-99654D01*
Y-98946D01*
X65810Y-98291D01*
X65676Y-98158D01*
Y-63870D01*
X74007Y-55539D01*
X74306Y-55093D01*
X74411Y-54566D01*
Y-45662D01*
X74764Y-45309D01*
X75406Y-45309D01*
X75861Y-45309D01*
X76101D01*
X76200Y-45349D01*
X80000D01*
X80099Y-45309D01*
X80663Y-45309D01*
X80939Y-45309D01*
X85163D01*
X85534Y-45309D01*
X85906Y-45309D01*
X90406D01*
Y-43387D01*
X93583D01*
X93594Y-43385D01*
X94260Y-43473D01*
X94892Y-43734D01*
X95425Y-44143D01*
X95431Y-44153D01*
X95494Y-44195D01*
X96247Y-45177D01*
X96750Y-46389D01*
X96911Y-47617D01*
X96896Y-47691D01*
Y-51044D01*
X96508Y-51313D01*
X96396Y-51313D01*
X89403D01*
Y-55813D01*
X89403Y-56185D01*
X89403Y-56557D01*
Y-60813D01*
X89403Y-61185D01*
X89403Y-61557D01*
Y-65813D01*
X89403Y-66185D01*
X89403Y-66557D01*
Y-70813D01*
X89403Y-71057D01*
X89403Y-71557D01*
Y-75813D01*
X89403Y-76057D01*
X89403Y-76557D01*
Y-80813D01*
X89403Y-81313D01*
X89403Y-81557D01*
Y-85813D01*
X89403Y-86057D01*
X89403Y-86557D01*
Y-90813D01*
X89403Y-91313D01*
X89403Y-91557D01*
Y-95913D01*
X89003D01*
Y-97935D01*
X92955D01*
Y-98685D01*
X93705D01*
Y-101457D01*
X96850D01*
X96908Y-101457D01*
X97350Y-101597D01*
Y-102013D01*
X97914D01*
Y-103505D01*
Y-115498D01*
X97169Y-116243D01*
X91128D01*
Y-115779D01*
X86928D01*
Y-120172D01*
X86928Y-120479D01*
X86508Y-120672D01*
X85548D01*
X85128Y-120479D01*
X85128Y-120172D01*
Y-115779D01*
X84407D01*
Y-114560D01*
X84761Y-114206D01*
X85406Y-114206D01*
X85906Y-114206D01*
X90406D01*
Y-107101D01*
X85906D01*
X85663Y-107101D01*
X85163Y-107101D01*
X84411D01*
Y-69744D01*
X84544Y-69610D01*
X84815Y-68955D01*
Y-68247D01*
X84544Y-67592D01*
X84043Y-67091D01*
X83388Y-66820D01*
X82680D01*
X82025Y-67091D01*
X81524Y-67592D01*
X81253Y-68247D01*
Y-68955D01*
X81524Y-69610D01*
X81658Y-69744D01*
Y-106747D01*
X81304Y-107101D01*
X80663Y-107101D01*
X80225Y-107101D01*
X79764Y-107101D01*
X79411Y-106747D01*
Y-69744D01*
X79544Y-69610D01*
X79815Y-68955D01*
Y-68247D01*
X79544Y-67592D01*
X79043Y-67091D01*
X78388Y-66820D01*
X77680D01*
X77025Y-67091D01*
X76524Y-67592D01*
X76253Y-68247D01*
Y-68955D01*
X76524Y-69610D01*
X76658Y-69744D01*
Y-107101D01*
X75906D01*
X75406Y-107101D01*
X75163Y-107101D01*
X74411D01*
Y-66843D01*
X74568Y-66686D01*
X74839Y-66031D01*
Y-65323D01*
X74568Y-64668D01*
X74067Y-64167D01*
X73412Y-63896D01*
X72704D01*
X72049Y-64167D01*
X71548Y-64668D01*
X71277Y-65323D01*
Y-66031D01*
X71548Y-66686D01*
X71658Y-66795D01*
Y-106747D01*
X71304Y-107101D01*
X70534Y-107101D01*
X70162Y-107101D01*
X69411D01*
Y-65836D01*
X71666Y-63581D01*
X71854D01*
X72509Y-63310D01*
X73010Y-62809D01*
X73281Y-62154D01*
Y-61446D01*
X73010Y-60791D01*
X72509Y-60290D01*
X71854Y-60019D01*
X71146D01*
X70491Y-60290D01*
X69990Y-60791D01*
X69719Y-61446D01*
Y-61634D01*
X67061Y-64293D01*
X66763Y-64739D01*
X66658Y-65266D01*
Y-106747D01*
X66304Y-107101D01*
X65662Y-107101D01*
X65162Y-107101D01*
X60906D01*
X60406Y-107101D01*
X60163Y-107101D01*
X55906D01*
X55406Y-107101D01*
X55217Y-107101D01*
X54717Y-106968D01*
Y-106300D01*
X54593Y-105676D01*
X54240Y-105147D01*
X52944Y-103851D01*
X52415Y-103498D01*
X51791Y-103373D01*
X41644D01*
X41282Y-103224D01*
X40574D01*
X39919Y-103495D01*
X39418Y-103996D01*
X39147Y-104650D01*
Y-105359D01*
X39418Y-106014D01*
X39919Y-106515D01*
X40127Y-106601D01*
X40027Y-107101D01*
X35662D01*
X35662Y-107101D01*
X35406Y-107101D01*
Y-107101D01*
X34925Y-107101D01*
X34806Y-107051D01*
X31262D01*
X31143Y-107101D01*
X30677D01*
Y-95905D01*
X30487Y-95446D01*
X30028Y-95255D01*
X26263D01*
X25803Y-95446D01*
X25613Y-95905D01*
Y-106701D01*
X23784D01*
Y-110653D01*
X23034D01*
Y-111404D01*
X20263D01*
Y-114606D01*
X21533D01*
X21778Y-115005D01*
X21778Y-115106D01*
Y-116505D01*
X23678D01*
Y-118005D01*
X21778D01*
Y-119005D01*
X20028D01*
Y-121005D01*
X22528D01*
X25028D01*
Y-119858D01*
X25097Y-119789D01*
X25612Y-119981D01*
X25613Y-119990D01*
Y-123505D01*
X25803Y-123964D01*
X26263Y-124154D01*
X30754D01*
X31150Y-124405D01*
X31150Y-124654D01*
Y-126405D01*
X33650D01*
X36150D01*
Y-124405D01*
X36126D01*
X35750Y-124105D01*
X35750Y-123905D01*
Y-123624D01*
X35799Y-123505D01*
Y-120005D01*
X35750Y-119885D01*
Y-119405D01*
X35269D01*
X35150Y-119355D01*
X31181D01*
X31150Y-119254D01*
X31155Y-119235D01*
X31532Y-118792D01*
X37501D01*
Y-128905D01*
X37509Y-128925D01*
Y-133729D01*
X32136Y-139102D01*
X31672Y-139796D01*
X31509Y-140616D01*
Y-149616D01*
X31672Y-150435D01*
X32136Y-151130D01*
X36414Y-155408D01*
X37108Y-155872D01*
X37928Y-156035D01*
X38747Y-155872D01*
X39442Y-155408D01*
X39906Y-154713D01*
X40069Y-153894D01*
X39906Y-153074D01*
X39442Y-152380D01*
X35791Y-148729D01*
Y-141503D01*
X41164Y-136130D01*
X41628Y-135435D01*
X41791Y-134616D01*
Y-128925D01*
X41799Y-128905D01*
Y-114761D01*
X41776Y-114706D01*
X42111Y-114206D01*
X45162D01*
X45663Y-114206D01*
X45906Y-114206D01*
X50163D01*
X50406Y-114206D01*
X50906Y-114206D01*
X55163D01*
X55663Y-114206D01*
X55906Y-114206D01*
X56808D01*
Y-115569D01*
X56684D01*
Y-115808D01*
X56535Y-116169D01*
Y-116378D01*
X56035Y-116571D01*
X55984Y-116516D01*
Y-115569D01*
X52984D01*
Y-116784D01*
X52977Y-116795D01*
X52853Y-117419D01*
Y-119907D01*
X52637Y-120123D01*
X49014D01*
X48653Y-119974D01*
X47944D01*
X47289Y-120245D01*
X46788Y-120746D01*
X46517Y-121400D01*
Y-122109D01*
X46788Y-122764D01*
X47254Y-123229D01*
X47236Y-123397D01*
X47103Y-123729D01*
X45798D01*
X45339Y-123919D01*
X45149Y-124378D01*
Y-128118D01*
X45194Y-128228D01*
X45198Y-128239D01*
Y-128268D01*
X45198Y-128268D01*
X45273Y-128512D01*
X45198Y-128968D01*
X45149Y-129168D01*
Y-131718D01*
X45198Y-131838D01*
Y-131968D01*
X45252D01*
X45315Y-132119D01*
Y-138355D01*
X45042Y-138628D01*
X41620D01*
X41504Y-138581D01*
X40796D01*
X40141Y-138852D01*
X39640Y-139353D01*
X39369Y-140007D01*
Y-140716D01*
X39640Y-141371D01*
X40141Y-141872D01*
X40796Y-142143D01*
X41504D01*
X41620Y-142095D01*
X45760D01*
X46423Y-141963D01*
X46985Y-141587D01*
X48274Y-140299D01*
X48650Y-139736D01*
X48782Y-139073D01*
Y-132119D01*
X48844Y-131968D01*
X48898D01*
Y-131961D01*
X49330Y-131729D01*
X49442Y-131732D01*
X49464Y-131754D01*
X50119Y-132025D01*
X50828D01*
X51189Y-131875D01*
X57812D01*
Y-132458D01*
X62634D01*
Y-128030D01*
X57812D01*
Y-128358D01*
X57413Y-128466D01*
X57057Y-128107D01*
Y-127120D01*
X57165Y-126858D01*
Y-126150D01*
X57057Y-125888D01*
Y-125113D01*
X57184Y-125028D01*
X63144D01*
X63603Y-124837D01*
X63794Y-124378D01*
Y-120669D01*
X63603Y-120210D01*
X63144Y-120020D01*
X60672D01*
Y-116169D01*
X60482Y-115710D01*
X60023Y-115520D01*
X59561D01*
Y-114560D01*
X59914Y-114206D01*
X60163D01*
X60663Y-114206D01*
X60906Y-114206D01*
X61658D01*
Y-116006D01*
X61762Y-116533D01*
X62061Y-116980D01*
X68103Y-123022D01*
X68550Y-123320D01*
X69076Y-123425D01*
X99732D01*
X99865Y-123559D01*
X100520Y-123830D01*
X101228D01*
X101883Y-123559D01*
X102384Y-123058D01*
X102655Y-122403D01*
Y-121694D01*
X102384Y-121040D01*
X101883Y-120539D01*
X101228Y-120268D01*
X100520D01*
X99865Y-120539D01*
X99732Y-120672D01*
X91548D01*
X91537Y-120667D01*
X91429Y-120068D01*
X91481Y-120016D01*
X97950D01*
X98672Y-119872D01*
X99284Y-119463D01*
X101134Y-117613D01*
X101543Y-117001D01*
X101686Y-116279D01*
Y-103505D01*
Y-102013D01*
X102050D01*
Y-97813D01*
X97408D01*
X97350Y-97813D01*
X96908Y-97673D01*
Y-96154D01*
X97350Y-96013D01*
X97367Y-96013D01*
X102050D01*
Y-91813D01*
X101439D01*
Y-74805D01*
X101425Y-74731D01*
X101579Y-73168D01*
X102056Y-71594D01*
X102831Y-70143D01*
X103828Y-68928D01*
X103890Y-68887D01*
X106680Y-66097D01*
X106690Y-66107D01*
X108833Y-63709D01*
X110694Y-61085D01*
X112250Y-58270D01*
X113481Y-55299D01*
X114372Y-52208D01*
X114910Y-49036D01*
X115058Y-46407D01*
X115140Y-46374D01*
X115563Y-46330D01*
X116432Y-47956D01*
X117675Y-49470D01*
X117687Y-49458D01*
X130158Y-61929D01*
X130155Y-61932D01*
X131543Y-63118D01*
X133100Y-64072D01*
X134787Y-64771D01*
X136562Y-65197D01*
X138383Y-65341D01*
Y-65336D01*
X153635D01*
X153712Y-65321D01*
X154970Y-65486D01*
X156214Y-66002D01*
X157283Y-66822D01*
X158103Y-67890D01*
X158618Y-69135D01*
X158784Y-70393D01*
X158769Y-70470D01*
Y-81584D01*
X158619Y-81946D01*
Y-82654D01*
X158890Y-83309D01*
X159391Y-83810D01*
X160046Y-84081D01*
X160754D01*
X161409Y-83810D01*
X161910Y-83309D01*
X162181Y-82654D01*
Y-81946D01*
X162031Y-81584D01*
Y-70470D01*
X162040D01*
X161879Y-68830D01*
X161401Y-67253D01*
X160624Y-65800D01*
X159579Y-64526D01*
X158305Y-63481D01*
X156851Y-62704D01*
X155274Y-62226D01*
X153635Y-62064D01*
Y-62073D01*
X138383D01*
X138309Y-62088D01*
X136746Y-61934D01*
X135172Y-61456D01*
X133721Y-60681D01*
X132507Y-59684D01*
X132465Y-59622D01*
X119994Y-47151D01*
X119955Y-47125D01*
X119425Y-46480D01*
X119778Y-46121D01*
X120101Y-46378D01*
X121073Y-47175D01*
X122593Y-47988D01*
X124242Y-48488D01*
X125957Y-48657D01*
Y-48641D01*
X137338D01*
Y-49365D01*
X142038D01*
X142038Y-45270D01*
X142388Y-44914D01*
X142388Y-44809D01*
Y-40254D01*
X144188D01*
Y-44914D01*
X145064D01*
Y-47615D01*
X144703D01*
Y-50586D01*
X147872D01*
Y-47615D01*
X147511D01*
Y-44914D01*
X148388D01*
Y-43678D01*
X149203D01*
Y-43747D01*
X152844D01*
Y-47389D01*
X155334D01*
X155478Y-47605D01*
Y-52505D01*
X155669Y-52964D01*
X155678Y-52968D01*
Y-53005D01*
X155767D01*
X156128Y-53154D01*
X172103D01*
X172562Y-52964D01*
X172576Y-52930D01*
X172703D01*
Y-52624D01*
X172752Y-52505D01*
Y-47605D01*
X172562Y-47145D01*
X172103Y-46955D01*
X164577D01*
Y-43805D01*
X165039Y-43678D01*
X167088D01*
Y-45415D01*
X171288D01*
Y-40714D01*
X170819D01*
Y-39514D01*
X171288D01*
Y-34815D01*
X167088D01*
Y-34815D01*
X166855Y-34736D01*
X166656Y-34271D01*
X166821Y-33848D01*
X167088Y-33615D01*
X167428Y-33615D01*
X171288D01*
Y-28914D01*
X170819D01*
Y-27714D01*
X171288D01*
X171288Y-23015D01*
X171710Y-22827D01*
X172665D01*
X173088Y-23015D01*
X173088Y-23327D01*
Y-27714D01*
X177288D01*
Y-27251D01*
X194822D01*
Y-28313D01*
X215314D01*
Y-18845D01*
X194822D01*
Y-23478D01*
X177641D01*
X177590Y-23427D01*
X177701Y-22831D01*
X177710Y-22827D01*
X181034D01*
Y-22838D01*
X182728Y-22705D01*
X184380Y-22308D01*
X185949Y-21658D01*
X187398Y-20770D01*
X188690Y-19667D01*
X188682Y-19659D01*
X192409Y-15933D01*
X192753Y-15588D01*
X193123Y-15274D01*
X193867Y-14664D01*
X195144Y-13981D01*
X196529Y-13561D01*
X197935Y-13422D01*
X197970Y-13427D01*
X200475D01*
X200505Y-13423D01*
X201867Y-13557D01*
X203205Y-13963D01*
X204438Y-14623D01*
X205149Y-15206D01*
X205514Y-15514D01*
X205842Y-15879D01*
X207532Y-18041D01*
X211580Y-14878D01*
X209680Y-12447D01*
X209640Y-12349D01*
X209223Y-11806D01*
X209234Y-11795D01*
X209043Y-11632D01*
X207205Y-9279D01*
X206549Y-9792D01*
X206099Y-9517D01*
X204303Y-8773D01*
X202413Y-8319D01*
X200475Y-8167D01*
Y-8182D01*
X197970D01*
Y-8166D01*
X195993Y-8321D01*
X194064Y-8784D01*
X192232Y-9543D01*
X191575Y-9946D01*
X191263Y-9550D01*
X193294Y-7520D01*
X193300Y-7526D01*
X194460Y-6168D01*
X195393Y-4645D01*
X196077Y-2994D01*
X196368Y-1782D01*
X199460Y634D01*
X195086Y6233D01*
X191038Y3070D01*
X193794Y-458D01*
X193725Y-1162D01*
X193233Y-2783D01*
X192434Y-4277D01*
X191398Y-5539D01*
X191347Y-5574D01*
X184852Y-12069D01*
X184817Y-12120D01*
X183555Y-13156D01*
X182061Y-13955D01*
X180440Y-14447D01*
X178815Y-14607D01*
X178754Y-14595D01*
X162525D01*
X162392Y-14461D01*
X161737Y-14190D01*
X161530D01*
X161322Y-13690D01*
X166461Y-8551D01*
X166467Y-8555D01*
X166496Y-8516D01*
X167612Y-7400D01*
X167619Y-7407D01*
X167623Y-7402D01*
X167928Y-7031D01*
X168727Y-6057D01*
X169551Y-4516D01*
X170058Y-2844D01*
X170229Y-1106D01*
X170219D01*
Y16440D01*
X170216Y16457D01*
X170303Y17123D01*
X170546Y17709D01*
X170587Y17720D01*
X171502Y17349D01*
X172482Y17227D01*
X173459Y17363D01*
X174369Y17747D01*
X175148Y18353D01*
X175744Y19141D01*
X176115Y20055D01*
X176237Y21035D01*
X176101Y22013D01*
X175717Y22923D01*
X175111Y23702D01*
X174323Y24297D01*
X173408Y24669D01*
X172429Y24791D01*
X171451Y24655D01*
X170541Y24271D01*
X169762Y23664D01*
X169167Y22877D01*
X168795Y21962D01*
X168673Y20982D01*
X168689Y20872D01*
X168543Y20752D01*
X167785Y19828D01*
X167221Y18773D01*
X166874Y17629D01*
X166761Y16479D01*
X166753Y16440D01*
Y-1106D01*
X166771Y-1197D01*
X166597Y-2520D01*
X166440Y-2898D01*
X165957Y-3029D01*
X165391Y-2601D01*
X164033Y-4395D01*
X162676Y-6190D01*
X163081Y-6496D01*
X163115Y-6995D01*
X156250Y-13859D01*
X156245Y-13855D01*
X155493Y-14834D01*
X155021Y-15976D01*
X154947Y-16537D01*
X154819Y-16846D01*
Y-17554D01*
X155090Y-18209D01*
X155484Y-18602D01*
X155183Y-19008D01*
X154394Y-18587D01*
X152655Y-18059D01*
X150845Y-17881D01*
Y-17904D01*
X146434D01*
X146046Y-17516D01*
X145391Y-17245D01*
X144683D01*
X144028Y-17516D01*
X143527Y-18017D01*
X143256Y-18672D01*
Y-19380D01*
X143527Y-20035D01*
X144028Y-20536D01*
X144683Y-20807D01*
X145391D01*
X146046Y-20536D01*
X146095Y-20487D01*
X146220Y-20512D01*
X146526Y-21081D01*
X146475Y-21203D01*
Y-21911D01*
X146746Y-22566D01*
X147247Y-23067D01*
X147902Y-23338D01*
X148611D01*
X149265Y-23067D01*
X149305Y-23027D01*
X149729Y-23310D01*
X149547Y-23750D01*
Y-24459D01*
X149818Y-25114D01*
X149976Y-25272D01*
Y-35461D01*
X149203D01*
Y-36550D01*
X148762Y-36786D01*
X148597Y-36676D01*
X147977Y-36553D01*
Y-36050D01*
X147838Y-35713D01*
Y-35565D01*
X147723D01*
X147328Y-35401D01*
X121592D01*
X121348Y-35502D01*
X121304D01*
X121300Y-35502D01*
X121261Y-35501D01*
X120804Y-35267D01*
Y-33710D01*
X121300Y-33702D01*
X121304Y-33702D01*
X126000D01*
Y-33472D01*
X126473Y-33405D01*
X126663Y-33864D01*
X127122Y-34054D01*
X131088D01*
X131547Y-33864D01*
X131554Y-33846D01*
X131938Y-33564D01*
X132171Y-33564D01*
X136638D01*
Y-32841D01*
X137138D01*
Y-33764D01*
X141838D01*
Y-29564D01*
X137138D01*
Y-30088D01*
X136638D01*
Y-29364D01*
X132237D01*
X131938Y-29364D01*
X131737Y-28948D01*
Y-27964D01*
X133538D01*
Y-25464D01*
Y-22964D01*
X131737D01*
Y-19605D01*
X131547Y-19145D01*
X131088Y-18955D01*
X126173D01*
Y-14339D01*
X126170Y-14319D01*
X126297Y-13035D01*
X126677Y-11780D01*
X126871Y-11418D01*
X128035Y-10254D01*
X128384Y-9905D01*
X128760Y-9607D01*
X129083Y-9360D01*
X129428Y-9705D01*
X133028D01*
X134828Y-7905D01*
Y-4305D01*
X133028Y-2505D01*
X129428D01*
X127806Y-4127D01*
X127673Y-4167D01*
X126067Y-5026D01*
X124659Y-6181D01*
X124659Y-6181D01*
X124321Y-6550D01*
X122820Y-8051D01*
X122404Y-8594D01*
X122374Y-8659D01*
X122215Y-8918D01*
X122141Y-9098D01*
X121498Y-10649D01*
X121061Y-12471D01*
X120914Y-14339D01*
X120928D01*
Y-14878D01*
X120466Y-15069D01*
X120436Y-15040D01*
X119781Y-14768D01*
X119073D01*
X118728Y-14911D01*
X118318Y-14540D01*
X118462Y-14063D01*
X119002Y-13053D01*
X119349Y-12631D01*
X119591Y-12531D01*
X120092Y-12030D01*
X120363Y-11375D01*
Y-10667D01*
X120092Y-10012D01*
X119591Y-9511D01*
X118936Y-9240D01*
X118228D01*
X117573Y-9511D01*
X117072Y-10012D01*
X116846Y-10557D01*
X116287Y-11239D01*
X115577Y-12567D01*
X115077Y-12442D01*
Y-7476D01*
X115063Y-7403D01*
X115217Y-5839D01*
X115694Y-4265D01*
X116469Y-2814D01*
X117466Y-1600D01*
X117528Y-1558D01*
X117798Y-1289D01*
X118169Y-977D01*
X118745Y-535D01*
X119866Y-71D01*
X120584Y23D01*
X121069Y61D01*
X121551Y108D01*
X122560Y208D01*
X123995Y643D01*
X125317Y1350D01*
X125678Y1645D01*
X125828Y1746D01*
X125862Y1797D01*
X126476Y2300D01*
X126472Y2304D01*
X127915Y3748D01*
X127915Y3748D01*
X127922Y3741D01*
X128965Y5012D01*
X129739Y6462D01*
X130217Y8035D01*
X130378Y9671D01*
X130369D01*
Y10311D01*
X134464D01*
Y10308D01*
X136300Y10453D01*
X138091Y10882D01*
X139792Y11587D01*
X141362Y12550D01*
X142763Y13746D01*
X143959Y15146D01*
X144921Y16716D01*
X145626Y18418D01*
X146055Y20208D01*
X146200Y22044D01*
X146197D01*
Y29711D01*
X146209D01*
X146028Y31545D01*
X145493Y33310D01*
X145428Y33432D01*
X145785Y34134D01*
X145990Y35100D01*
X145939Y36086D01*
X145634Y37025D01*
X145096Y37853D01*
X144362Y38513D01*
X143482Y38962D01*
X142517Y39167D01*
X141531Y39115D01*
X140592Y38810D01*
X139764Y38272D01*
X139103Y37539D01*
X138655Y36659D01*
X138450Y35693D01*
X138502Y34707D01*
X138807Y33768D01*
X139344Y32940D01*
X140078Y32280D01*
X140958Y31831D01*
X141923Y31626D01*
X142391Y31651D01*
X142628Y30869D01*
X142738Y29750D01*
X142730Y29711D01*
Y22044D01*
X142746Y21966D01*
X142595Y20427D01*
X142123Y18872D01*
X141357Y17439D01*
X140326Y16182D01*
X139069Y15151D01*
X137636Y14385D01*
X136081Y13914D01*
X134542Y13762D01*
X134464Y13778D01*
X129481D01*
X127850Y14124D01*
X127439Y14596D01*
X127445Y14619D01*
X126320Y14858D01*
X125852Y12658D01*
X125384Y10457D01*
X126509Y10218D01*
Y10218D01*
X127002Y10130D01*
X127106Y10081D01*
Y9671D01*
X127121Y9594D01*
X126956Y8341D01*
X126443Y7101D01*
X125923Y6424D01*
X125608Y6055D01*
X125262Y5708D01*
X124165Y4611D01*
X124132Y4563D01*
X123267Y3899D01*
X122207Y3460D01*
X121553Y3374D01*
X121069Y3336D01*
X119528Y3184D01*
X118047Y2735D01*
X116683Y2005D01*
X115575Y1096D01*
X115486Y1023D01*
D01*
X115219Y753D01*
X115218Y752D01*
X115144Y665D01*
X114032Y-636D01*
X113078Y-2193D01*
X112379Y-3880D01*
X112361Y-3956D01*
X111861Y-3897D01*
Y-460D01*
X111846Y-382D01*
X111997Y1157D01*
X112469Y2712D01*
X113235Y4146D01*
X114216Y5341D01*
X114282Y5385D01*
X114634Y5737D01*
X114749Y5785D01*
X115250Y6286D01*
X115522Y6940D01*
Y7649D01*
X115250Y8304D01*
X114749Y8805D01*
X114095Y9076D01*
X113386D01*
X112732Y8805D01*
X112231Y8304D01*
X112183Y8188D01*
X111831Y7837D01*
X111829Y7839D01*
X110633Y6438D01*
X109671Y4868D01*
X108966Y3167D01*
X108536Y1376D01*
X108392Y-460D01*
X108395D01*
Y-5373D01*
X108081Y-5743D01*
X105862D01*
Y-7924D01*
X105112D01*
Y-8674D01*
X102144D01*
Y-10106D01*
Y-10915D01*
X105112D01*
Y-12415D01*
X102144D01*
Y-13846D01*
X102544D01*
Y-17186D01*
X107681D01*
Y-17078D01*
X108279Y-17000D01*
X109272Y-16588D01*
X110125Y-15934D01*
X110124Y-15932D01*
X110151Y-15892D01*
X110857Y-15031D01*
X111314Y-14176D01*
X111814Y-14301D01*
Y-45825D01*
X111814Y-45825D01*
X111814D01*
X111808Y-46322D01*
X111676Y-48672D01*
X111198Y-51483D01*
X110409Y-54223D01*
X109318Y-56858D01*
X107938Y-59354D01*
X106288Y-61679D01*
X104444Y-63743D01*
X104373Y-63790D01*
X104181Y-63982D01*
X103681Y-63775D01*
Y-63331D01*
X103410Y-62676D01*
X103123Y-62390D01*
Y-36196D01*
X103030Y-35728D01*
X102765Y-35331D01*
X85824Y-18389D01*
Y-13800D01*
X86950D01*
Y-9600D01*
X82250D01*
Y-13800D01*
X83376D01*
Y-18896D01*
X83470Y-19364D01*
X83735Y-19761D01*
X100677Y-36703D01*
Y-56402D01*
X100177Y-56638D01*
X100159Y-56624D01*
Y-47691D01*
X100168D01*
X100009Y-46076D01*
X99538Y-44524D01*
X98773Y-43094D01*
X97744Y-41840D01*
X97738Y-41846D01*
X97712Y-41828D01*
X96846Y-41118D01*
X95831Y-40575D01*
X94729Y-40240D01*
X93613Y-40131D01*
X93583Y-40124D01*
X90406D01*
Y-38203D01*
X85906D01*
X85534Y-38203D01*
X85163Y-38203D01*
X80663Y-38203D01*
X80650Y-37709D01*
Y-34100D01*
X80478Y-33686D01*
Y-33505D01*
X80131D01*
X80000Y-33451D01*
X76271D01*
X75901Y-33075D01*
X75922Y-32658D01*
X75928Y-32654D01*
X83034D01*
X83493Y-32464D01*
X83684Y-32005D01*
Y-27200D01*
X83493Y-26741D01*
X83034Y-26551D01*
X75928D01*
X75861Y-26506D01*
Y-4362D01*
X75852Y-4317D01*
X75968Y-3147D01*
X76322Y-1977D01*
X76898Y-900D01*
X77644Y9D01*
X77682Y35D01*
X79002Y1355D01*
X79033Y1401D01*
X80032Y2221D01*
X81220Y2855D01*
X82508Y3246D01*
X83794Y3373D01*
X83849Y3362D01*
X84524D01*
Y3359D01*
X85995Y3504D01*
X87409Y3933D01*
X88713Y4630D01*
X89856Y5568D01*
X89863Y5561D01*
X90719Y6677D01*
X91257Y7976D01*
X91441Y9371D01*
X91428D01*
Y9949D01*
X91572Y9983D01*
X91428Y10608D01*
Y10730D01*
X93192Y12494D01*
X93548Y12845D01*
X93548Y12845D01*
X94744Y14246D01*
X95706Y15816D01*
X96411Y17517D01*
X96841Y19308D01*
X96985Y21144D01*
X96982D01*
Y35205D01*
X96993D01*
X96818Y36529D01*
X96307Y37762D01*
X95529Y38776D01*
X95542Y39139D01*
X95320Y40101D01*
X94857Y40972D01*
X94183Y41695D01*
X93346Y42218D01*
X92402Y42506D01*
X91415Y42541D01*
D02*
G37*
G36*
X44843Y18750D02*
X42457Y16886D01*
X42954Y16511D01*
X43967Y16102D01*
X45052Y15969D01*
X46134Y16121D01*
X46707Y16364D01*
X44843Y18750D01*
D02*
G37*
G36*
X123728Y15409D02*
X123416Y13942D01*
X124541Y13703D01*
X124852Y15170D01*
X123728Y15409D01*
D02*
G37*
G36*
X197715Y17832D02*
X195643Y15092D01*
X198383Y13020D01*
X198676Y13743D01*
X198824Y14930D01*
X198660Y16115D01*
X198194Y17217D01*
X197715Y17832D01*
D02*
G37*
G36*
X185928Y14982D02*
X184846Y14832D01*
X183840Y14407D01*
X183348Y14024D01*
X185763Y12198D01*
X187590Y14613D01*
X187013Y14847D01*
X185928Y14982D01*
D02*
G37*
G36*
X19808Y16581D02*
X19339Y15958D01*
X18891Y14849D01*
X18745Y13661D01*
X18911Y12477D01*
X19216Y11758D01*
X21924Y13873D01*
X19808Y16581D01*
D02*
G37*
G36*
X84852Y12639D02*
X83732Y12380D01*
X84069Y10919D01*
X85190Y11177D01*
X84852Y12639D01*
D02*
G37*
G36*
X123104Y12475D02*
X122792Y11008D01*
X123917Y10769D01*
X124229Y12236D01*
X123104Y12475D01*
D02*
G37*
G36*
X194436Y13497D02*
X192364Y10757D01*
X193087Y10463D01*
X194274Y10315D01*
X195459Y10480D01*
X196561Y10945D01*
X197177Y11424D01*
X194436Y13497D01*
D02*
G37*
G36*
X189185Y13407D02*
X187358Y10991D01*
X189773Y9165D01*
X190008Y9742D01*
X190143Y10826D01*
X189993Y11908D01*
X189568Y12915D01*
X189185Y13407D01*
D02*
G37*
G36*
X23155Y12297D02*
X20448Y10182D01*
X21071Y9713D01*
X22180Y9265D01*
X23367Y9119D01*
X24552Y9285D01*
X25270Y9590D01*
X23155Y12297D01*
D02*
G37*
G36*
X202463Y12504D02*
X200714Y11138D01*
X202686Y8614D01*
X204434Y9980D01*
X202463Y12504D01*
D02*
G37*
G36*
X182142Y12429D02*
X181907Y11852D01*
X181772Y10768D01*
X181922Y9685D01*
X182348Y8679D01*
X182730Y8187D01*
X184557Y10603D01*
X182142Y12429D01*
D02*
G37*
G36*
X186152Y9396D02*
X184326Y6981D01*
X184903Y6747D01*
X185987Y6612D01*
X187069Y6762D01*
X188076Y7187D01*
X188567Y7570D01*
X186152Y9396D01*
D02*
G37*
G36*
X31642Y13513D02*
X30664Y13376D01*
X29755Y12990D01*
X28977Y12382D01*
X28383Y11593D01*
X28013Y10678D01*
X27893Y9698D01*
X28030Y8721D01*
X28416Y7812D01*
X29024Y7034D01*
X29813Y6440D01*
X30728Y6070D01*
X31708Y5949D01*
X32686Y6087D01*
X33594Y6472D01*
X34372Y7080D01*
X34966Y7869D01*
X35336Y8784D01*
X35457Y9764D01*
X35319Y10742D01*
X34934Y11651D01*
X34326Y12429D01*
X33537Y13023D01*
X32622Y13393D01*
X31642Y13513D01*
D02*
G37*
G36*
X205358Y8798D02*
X203610Y7432D01*
X205581Y4908D01*
X207330Y6274D01*
X205358Y8798D01*
D02*
G37*
G36*
X103328Y1995D02*
X98828D01*
X98428Y1829D01*
X97928Y1945D01*
Y1945D01*
X97447D01*
X97328Y1995D01*
X94328D01*
X94208Y1945D01*
X93728D01*
Y1465D01*
X93678Y1345D01*
Y-3555D01*
X82500D01*
X82392Y-3600D01*
X82250D01*
Y-3659D01*
X82041Y-3745D01*
X81851Y-4205D01*
Y-7205D01*
X82041Y-7664D01*
X82250Y-7750D01*
Y-7800D01*
X82369D01*
X82500Y-7854D01*
X92278D01*
X92397Y-7805D01*
X92878D01*
X93045Y-8235D01*
Y-9105D01*
X92772Y-9555D01*
X88778D01*
X88658Y-9605D01*
X88178D01*
Y-10085D01*
X88128Y-10205D01*
Y-13205D01*
X88178Y-13324D01*
Y-13805D01*
X88659D01*
X88778Y-13854D01*
X92692D01*
X93045Y-14224D01*
Y-21495D01*
X93235Y-21954D01*
X93695Y-22144D01*
X93986D01*
Y-23506D01*
X94118Y-24170D01*
X94494Y-24732D01*
X104367Y-34604D01*
Y-54030D01*
X104319Y-54146D01*
Y-54854D01*
X104590Y-55509D01*
X105091Y-56010D01*
X105746Y-56281D01*
X106454D01*
X107109Y-56010D01*
X107610Y-55509D01*
X107881Y-54854D01*
Y-54146D01*
X107833Y-54030D01*
Y-33887D01*
X107833Y-33887D01*
X107701Y-33223D01*
X107326Y-32661D01*
X97520Y-22856D01*
X97559Y-22332D01*
X97850Y-22150D01*
X99000D01*
Y-19900D01*
Y-17650D01*
X98281D01*
Y-14224D01*
X98232Y-14104D01*
Y-13624D01*
X98232Y-13624D01*
X98281Y-13205D01*
X98281Y-13144D01*
Y-10205D01*
X98528Y-9798D01*
X98678Y-9755D01*
X100878D01*
X101337Y-9565D01*
X101527Y-9105D01*
Y-6354D01*
X102144D01*
Y-7174D01*
X104362D01*
Y-5743D01*
X104003D01*
X103977Y-5705D01*
Y1345D01*
X103928Y1465D01*
Y1945D01*
X103447D01*
X103328Y1995D01*
D02*
G37*
G36*
X163277Y-1002D02*
X162372Y-2199D01*
X163289Y-2892D01*
X164194Y-1696D01*
X163277Y-1002D01*
D02*
G37*
G36*
X161468Y-3395D02*
X160563Y-4591D01*
X161480Y-5285D01*
X162385Y-4089D01*
X161468Y-3395D01*
D02*
G37*
G36*
X154628Y-2905D02*
X151028D01*
X149228Y-4705D01*
Y-8305D01*
X151028Y-10105D01*
X154628D01*
X156428Y-8305D01*
Y-4705D01*
X154628Y-2905D01*
D02*
G37*
G36*
X63781Y-7701D02*
X62275D01*
X60821Y-8090D01*
X59517Y-8843D01*
X58452Y-9908D01*
X57699Y-11212D01*
X57310Y-12666D01*
Y-14172D01*
X57699Y-15626D01*
X58452Y-16930D01*
X59517Y-17995D01*
X60821Y-18747D01*
X62275Y-19137D01*
X63781D01*
X65235Y-18747D01*
X66539Y-17995D01*
X67603Y-16930D01*
X68356Y-15626D01*
X68746Y-14172D01*
Y-12666D01*
X68356Y-11212D01*
X67603Y-9908D01*
X66539Y-8843D01*
X65235Y-8090D01*
X63781Y-7701D01*
D02*
G37*
G36*
X101650Y-17650D02*
X100500D01*
Y-19150D01*
X101650D01*
Y-17650D01*
D02*
G37*
G36*
Y-20650D02*
X100500D01*
Y-22150D01*
X101650D01*
Y-20650D01*
D02*
G37*
G36*
X137038Y-22964D02*
X135038D01*
Y-24714D01*
X137038D01*
Y-22964D01*
D02*
G37*
G36*
X224197Y-18721D02*
X223270Y-18852D01*
X222409Y-19217D01*
X221672Y-19793D01*
X221109Y-20540D01*
X220759Y-21407D01*
X220645Y-22336D01*
X220775Y-23262D01*
X220788Y-23293D01*
X216342Y-27739D01*
X215967Y-28301D01*
X215835Y-28964D01*
Y-35078D01*
X215314D01*
Y-32231D01*
X194822D01*
Y-32743D01*
X194322Y-33026D01*
X194204Y-32954D01*
X194140Y-32634D01*
X194154Y-32563D01*
Y-31464D01*
X194049Y-30936D01*
Y-29290D01*
X190487D01*
Y-30936D01*
X190382Y-31464D01*
Y-32563D01*
X190397Y-32641D01*
X190487Y-33552D01*
Y-33639D01*
X190496D01*
X190503Y-33716D01*
X190840Y-34825D01*
X191386Y-35847D01*
X192071Y-36683D01*
X192115Y-36748D01*
X192130Y-36758D01*
X193204Y-37640D01*
X194445Y-38303D01*
X194822Y-38417D01*
Y-41531D01*
X194822Y-42031D01*
X194822Y-42198D01*
Y-44918D01*
X194065D01*
Y-44630D01*
X190503D01*
Y-46276D01*
X190398Y-46805D01*
X190503Y-47333D01*
Y-48979D01*
X194065D01*
Y-48691D01*
X194822D01*
Y-51498D01*
X215314D01*
Y-48538D01*
X215835D01*
Y-50645D01*
X215967Y-51308D01*
X216342Y-51871D01*
X218302Y-53830D01*
X218864Y-54206D01*
X219528Y-54338D01*
X226429D01*
X227092Y-54206D01*
X227655Y-53830D01*
X229361Y-52124D01*
X229736Y-51562D01*
X229868Y-50898D01*
Y-34633D01*
X232794Y-33392D01*
X230017Y-26851D01*
X223477Y-29628D01*
X226253Y-36168D01*
X226253D01*
X226402Y-36267D01*
Y-50180D01*
X225711Y-50871D01*
X220246D01*
X219301Y-49927D01*
Y-49527D01*
X219368Y-49055D01*
X219801Y-49055D01*
X220518D01*
Y-46805D01*
Y-44555D01*
X219368D01*
Y-44579D01*
X219068Y-44955D01*
X218868Y-44955D01*
X216068D01*
Y-45071D01*
X215314D01*
Y-42198D01*
X215314Y-41698D01*
X215314Y-41531D01*
Y-38851D01*
X217568D01*
X217750Y-38814D01*
X219068D01*
X219368Y-39190D01*
Y-39215D01*
X220518D01*
Y-36964D01*
Y-34714D01*
X219368D01*
X219301Y-34242D01*
Y-29682D01*
X223245Y-25739D01*
X223331Y-25774D01*
X224259Y-25888D01*
X225185Y-25758D01*
X226047Y-25392D01*
X226784Y-24816D01*
X227347Y-24069D01*
X227697Y-23202D01*
X227811Y-22273D01*
X227681Y-21347D01*
X227315Y-20486D01*
X226740Y-19749D01*
X225992Y-19186D01*
X225125Y-18835D01*
X224197Y-18721D01*
D02*
G37*
G36*
X137038Y-26215D02*
X135038D01*
Y-27964D01*
X137038D01*
Y-26215D01*
D02*
G37*
G36*
X148238Y-29164D02*
X146238D01*
Y-30915D01*
X148238D01*
Y-29164D01*
D02*
G37*
G36*
X144738D02*
X142738D01*
Y-30915D01*
X144738D01*
Y-29164D01*
D02*
G37*
G36*
X38034Y-25751D02*
X30700D01*
X30241Y-25941D01*
X30051Y-26400D01*
Y-31105D01*
X30241Y-31564D01*
X30700Y-31754D01*
X38034D01*
X38493Y-31564D01*
X38684Y-31105D01*
Y-26400D01*
X38493Y-25941D01*
X38034Y-25751D01*
D02*
G37*
G36*
X177288Y-28914D02*
X173088D01*
Y-33615D01*
X177288D01*
Y-33351D01*
X184975D01*
Y-33639D01*
X188537D01*
Y-29290D01*
X184975D01*
Y-29578D01*
X177288D01*
Y-28914D01*
D02*
G37*
G36*
X148238Y-32414D02*
X146238D01*
Y-34165D01*
X148238D01*
Y-32414D01*
D02*
G37*
G36*
X144738D02*
X142738D01*
Y-34165D01*
X144738D01*
Y-32414D01*
D02*
G37*
G36*
X222018Y-34714D02*
Y-36215D01*
X223168D01*
Y-34714D01*
X222018D01*
D02*
G37*
G36*
X223168Y-37714D02*
X222018D01*
Y-39215D01*
X223168D01*
Y-37714D01*
D02*
G37*
G36*
X22284Y-37803D02*
X20263D01*
Y-41006D01*
X22284D01*
Y-37803D01*
D02*
G37*
G36*
Y-42506D02*
X20263D01*
Y-45709D01*
X22284D01*
Y-42506D01*
D02*
G37*
G36*
X177288Y-34815D02*
X173088D01*
Y-39514D01*
X177288D01*
Y-39051D01*
X183103D01*
X184886Y-40833D01*
Y-45802D01*
X184386Y-45928D01*
X183775Y-44785D01*
X182866Y-43678D01*
X182862Y-43671D01*
X182865Y-43668D01*
X181575Y-42609D01*
X180103Y-41822D01*
X178505Y-41337D01*
X177288Y-41217D01*
Y-40714D01*
X173088D01*
Y-45415D01*
X177288D01*
Y-45361D01*
X177664Y-45032D01*
X178077Y-45086D01*
X179226Y-45562D01*
X180148Y-46269D01*
X180194Y-46338D01*
X180238Y-46368D01*
X180777Y-47071D01*
X181137Y-47938D01*
X181252Y-48817D01*
X181242Y-48869D01*
Y-51819D01*
X181230D01*
X181423Y-53786D01*
X181997Y-55677D01*
X182929Y-57420D01*
X184182Y-58947D01*
X184191Y-58938D01*
X184217Y-58956D01*
X185455Y-60014D01*
X186870Y-60880D01*
X188403Y-61515D01*
X190016Y-61903D01*
X191640Y-62031D01*
X191671Y-62037D01*
X194822D01*
Y-64884D01*
X215314D01*
Y-55417D01*
X194822D01*
Y-58264D01*
X191671D01*
X191606Y-58277D01*
X190339Y-58152D01*
X189059Y-57764D01*
X187879Y-57133D01*
X186895Y-56325D01*
X186858Y-56271D01*
X186811Y-56239D01*
X186062Y-55326D01*
X185478Y-54235D01*
X185119Y-53051D01*
X185003Y-51875D01*
X185015Y-51819D01*
Y-49126D01*
X185015Y-48979D01*
X185328Y-48979D01*
X188553D01*
Y-47333D01*
X188658Y-46805D01*
Y-40052D01*
X188515Y-39330D01*
X188106Y-38718D01*
X185218Y-35831D01*
X184606Y-35422D01*
X183884Y-35278D01*
X177288D01*
Y-34815D01*
D02*
G37*
G36*
X223168Y-44555D02*
X222018D01*
Y-46055D01*
X223168D01*
Y-44555D01*
D02*
G37*
G36*
Y-47555D02*
X222018D01*
Y-49055D01*
X223168D01*
Y-47555D01*
D02*
G37*
G36*
X149847Y-51743D02*
X148612D01*
Y-52878D01*
X149847D01*
Y-51743D01*
D02*
G37*
G36*
X235519Y-53324D02*
X231725D01*
Y-55936D01*
X235519D01*
Y-53324D01*
D02*
G37*
G36*
X157278Y-54405D02*
X155278D01*
Y-56155D01*
X157278D01*
Y-54405D01*
D02*
G37*
G36*
X142038Y-51165D02*
X137338D01*
Y-55365D01*
X137338D01*
X137688Y-55615D01*
Y-60315D01*
X141888D01*
Y-55822D01*
X142038Y-55365D01*
X142376Y-55005D01*
X142875D01*
X143288Y-55215D01*
Y-57214D01*
X145788D01*
X148288D01*
Y-55514D01*
X149847D01*
Y-54378D01*
X147863D01*
Y-53628D01*
X147113D01*
Y-51743D01*
X145878D01*
Y-52143D01*
X143129D01*
Y-52252D01*
X142038D01*
Y-51165D01*
D02*
G37*
G36*
X157278Y-57655D02*
X155278D01*
Y-59405D01*
X157278D01*
Y-57655D01*
D02*
G37*
G36*
X235519Y-57437D02*
X231725D01*
Y-60049D01*
X235519D01*
Y-57437D01*
D02*
G37*
G36*
X160778Y-54405D02*
X158778D01*
Y-56905D01*
Y-59405D01*
X160228D01*
Y-60605D01*
X163478D01*
Y-57605D01*
Y-54605D01*
X160778D01*
Y-54405D01*
D02*
G37*
G36*
X148288Y-58714D02*
X146538D01*
Y-60715D01*
X148288D01*
Y-58714D01*
D02*
G37*
G36*
X145038D02*
X143288D01*
Y-60715D01*
X145038D01*
Y-58714D01*
D02*
G37*
G36*
X229477Y-58901D02*
X216668D01*
X216209Y-59091D01*
X216019Y-59550D01*
Y-63684D01*
X216209Y-64143D01*
X216668Y-64334D01*
X222178D01*
Y-64992D01*
X226328D01*
X230477D01*
Y-63757D01*
X230176D01*
X230127Y-63684D01*
Y-59550D01*
X229937Y-59091D01*
X229477Y-58901D01*
D02*
G37*
G36*
X172500Y-54530D02*
X168380D01*
X168200Y-54605D01*
X164978D01*
Y-57605D01*
Y-60605D01*
X167730D01*
Y-61400D01*
X167805Y-61581D01*
Y-116505D01*
X167895Y-117183D01*
X168157Y-117816D01*
X168573Y-118359D01*
X169117Y-118776D01*
X169749Y-119038D01*
X170428Y-119127D01*
X171107Y-119038D01*
X171739Y-118776D01*
X172282Y-118359D01*
X172699Y-117816D01*
X172961Y-117183D01*
X173050Y-116505D01*
Y-100903D01*
X173550Y-100778D01*
X174246Y-102080D01*
X175361Y-103439D01*
X175366Y-103434D01*
X175978Y-103843D01*
X176700Y-103986D01*
X177422Y-103843D01*
X178034Y-103434D01*
X178443Y-102822D01*
X178586Y-102100D01*
X178443Y-101378D01*
X178034Y-100766D01*
X178034D01*
X177993Y-100764D01*
X177368Y-99949D01*
X177615Y-99449D01*
X180857D01*
X181316Y-99259D01*
X181506Y-98800D01*
Y-84536D01*
X181316Y-84077D01*
X180857Y-83887D01*
X176800D01*
X176514Y-83696D01*
Y-82288D01*
X176371Y-81566D01*
X175962Y-80954D01*
X175350Y-80545D01*
X174628Y-80402D01*
X173906Y-80545D01*
X173550Y-80783D01*
X173050Y-80516D01*
Y-79299D01*
X173550Y-79069D01*
X174074Y-79286D01*
X174782D01*
X175437Y-79015D01*
X175938Y-78514D01*
X176087Y-78152D01*
X176541Y-77698D01*
X176583Y-77636D01*
X177797Y-76639D01*
X179248Y-75864D01*
X180822Y-75387D01*
X182386Y-75232D01*
X182459Y-75247D01*
X226328D01*
X226565Y-75200D01*
X230077D01*
Y-72031D01*
X226565D01*
X226328Y-71984D01*
X182459D01*
Y-71980D01*
X180639Y-72123D01*
X179851Y-72312D01*
X179518Y-71878D01*
X179552Y-71816D01*
X180759Y-71450D01*
X182323Y-71295D01*
X182396Y-71310D01*
X226328D01*
X226565Y-71263D01*
X230077D01*
Y-68226D01*
X230077Y-68094D01*
X230395Y-67726D01*
X230477D01*
Y-66492D01*
X226328D01*
X222178D01*
Y-67547D01*
X222178Y-67726D01*
X221811Y-68047D01*
X182396D01*
Y-68043D01*
X180576Y-68186D01*
X178800Y-68612D01*
X177113Y-69311D01*
X175557Y-70265D01*
X174170Y-71449D01*
X173819Y-71595D01*
X173550Y-71863D01*
X173050Y-71656D01*
Y-61639D01*
X173149Y-61400D01*
Y-55180D01*
X172959Y-54720D01*
X172500Y-54530D01*
D02*
G37*
G36*
X113728Y-71055D02*
X111978D01*
Y-73055D01*
X113728D01*
Y-71055D01*
D02*
G37*
G36*
X110478D02*
X108728D01*
Y-73055D01*
X110478D01*
Y-71055D01*
D02*
G37*
G36*
X61711Y-72843D02*
X59690D01*
Y-74864D01*
X61711D01*
Y-72843D01*
D02*
G37*
G36*
X47166Y-72843D02*
X45144D01*
Y-74864D01*
X47166D01*
Y-72843D01*
D02*
G37*
G36*
X58190Y-72843D02*
X54178D01*
Y-75614D01*
X52678D01*
Y-72843D01*
X50656D01*
Y-72843D01*
X48666D01*
Y-75614D01*
X47916D01*
Y-76364D01*
X45144D01*
Y-78386D01*
X45144D01*
Y-80376D01*
X47916D01*
Y-81876D01*
X45144D01*
Y-83898D01*
Y-85888D01*
X47916D01*
Y-86638D01*
X48666D01*
Y-89409D01*
X50656D01*
Y-89409D01*
X52678D01*
Y-86638D01*
X54178D01*
Y-89409D01*
X56200D01*
Y-89409D01*
X58190D01*
Y-86638D01*
X58940D01*
Y-85888D01*
X61711D01*
Y-83866D01*
X61711D01*
Y-81876D01*
X58940D01*
Y-80376D01*
X61711D01*
Y-78386D01*
X61711D01*
Y-76364D01*
X58940D01*
Y-75614D01*
X58190D01*
Y-72843D01*
D02*
G37*
G36*
X113728Y-74555D02*
X111978D01*
Y-76555D01*
X113728D01*
Y-74555D01*
D02*
G37*
G36*
X110478D02*
X108728D01*
Y-76555D01*
X110478D01*
Y-74555D01*
D02*
G37*
G36*
X182445Y-75919D02*
X181069Y-76054D01*
X179747Y-76455D01*
X178528Y-77107D01*
X178183Y-77390D01*
X177606Y-77629D01*
X177105Y-78130D01*
X176834Y-78785D01*
Y-79493D01*
X177105Y-80148D01*
X177606Y-80649D01*
X178261Y-80920D01*
X178970D01*
X179624Y-80649D01*
X180125Y-80148D01*
X180214Y-79934D01*
X180546Y-79679D01*
X181462Y-79300D01*
X182403Y-79176D01*
X182445Y-79184D01*
X226328D01*
X226565Y-79137D01*
X230077D01*
Y-75968D01*
X226565D01*
X226328Y-75921D01*
X182445D01*
Y-75919D01*
D02*
G37*
G36*
X110418Y-78164D02*
X108418D01*
Y-79914D01*
X110418D01*
Y-78164D01*
D02*
G37*
G36*
X122875Y-71405D02*
X115728D01*
X115609Y-71455D01*
X115128D01*
Y-71935D01*
X115078Y-72055D01*
Y-75555D01*
X115128Y-75674D01*
Y-76155D01*
X115609D01*
X115728Y-76204D01*
X117878D01*
Y-80305D01*
X116478D01*
Y-81455D01*
X118013D01*
X118478Y-81274D01*
X118528Y-81295D01*
X122875D01*
X122994Y-81246D01*
X123475D01*
Y-80765D01*
X123524Y-80646D01*
Y-72055D01*
X123334Y-71596D01*
X122875Y-71405D01*
D02*
G37*
G36*
X110418Y-81415D02*
X108418D01*
Y-83165D01*
X110418D01*
Y-81415D01*
D02*
G37*
G36*
X235519Y-83246D02*
X231725D01*
Y-85858D01*
X235519D01*
Y-83246D01*
D02*
G37*
G36*
X229477Y-79856D02*
X223178D01*
X223059Y-79905D01*
X222578D01*
Y-80386D01*
X222529Y-80505D01*
Y-86608D01*
X222719Y-87067D01*
X223178Y-87257D01*
X229477D01*
X229937Y-87067D01*
X230127Y-86608D01*
Y-80505D01*
X230077Y-80386D01*
Y-79905D01*
X229597D01*
X229477Y-79856D01*
D02*
G37*
G36*
X199228Y-84155D02*
X195028D01*
Y-88855D01*
X199228D01*
Y-88192D01*
X200113D01*
X200154Y-88209D01*
X200862D01*
X201517Y-87937D01*
X202018Y-87436D01*
X202289Y-86782D01*
Y-86073D01*
X202018Y-85419D01*
X201517Y-84918D01*
X200862Y-84646D01*
X200154D01*
X199964Y-84725D01*
X199228D01*
Y-84155D01*
D02*
G37*
G36*
X61711Y-87388D02*
X59690D01*
Y-89409D01*
X61711D01*
Y-87388D01*
D02*
G37*
G36*
X47166Y-87388D02*
X45144D01*
Y-89409D01*
X47166D01*
Y-87388D01*
D02*
G37*
G36*
X235519Y-87358D02*
X231725D01*
Y-89970D01*
X235519D01*
Y-87358D01*
D02*
G37*
G36*
X192708Y-83887D02*
X183836D01*
X183717Y-83936D01*
X183336D01*
Y-84175D01*
X183187Y-84536D01*
Y-88627D01*
X183318Y-88944D01*
X183330Y-89255D01*
X183321Y-89481D01*
X183305Y-89598D01*
X183187Y-89882D01*
Y-93973D01*
X183336Y-94334D01*
Y-94573D01*
X183717D01*
X183836Y-94623D01*
X192708D01*
X193167Y-94432D01*
X193200Y-94355D01*
X193228D01*
Y-94286D01*
X193358Y-93973D01*
Y-89882D01*
X193167Y-89423D01*
X193167Y-89087D01*
X193358Y-88627D01*
Y-84536D01*
X193228Y-84223D01*
Y-84155D01*
X193200D01*
X193167Y-84077D01*
X192708Y-83887D01*
D02*
G37*
G36*
X213453Y-83482D02*
X211947D01*
X210493Y-83872D01*
X209189Y-84624D01*
X208124Y-85689D01*
X207372Y-86993D01*
X206982Y-88447D01*
Y-89953D01*
X207372Y-91407D01*
X208124Y-92711D01*
X209189Y-93776D01*
X210493Y-94528D01*
X211947Y-94918D01*
X213453D01*
X214907Y-94528D01*
X216211Y-93776D01*
X217276Y-92711D01*
X218028Y-91407D01*
X218418Y-89953D01*
Y-88447D01*
X218028Y-86993D01*
X217276Y-85689D01*
X216211Y-84624D01*
X214907Y-83872D01*
X213453Y-83482D01*
D02*
G37*
G36*
X234287Y-94378D02*
X233408Y-97252D01*
X235718Y-97959D01*
X236597Y-95084D01*
X234287Y-94378D01*
D02*
G37*
G36*
X132711Y-98490D02*
X130711D01*
Y-100240D01*
X132711D01*
Y-98490D01*
D02*
G37*
G36*
X210472Y-99461D02*
X210136Y-100560D01*
X211571Y-100999D01*
X211907Y-99899D01*
X210472Y-99461D01*
D02*
G37*
G36*
X153500Y-89309D02*
X152830Y-89398D01*
X152205Y-89656D01*
X151668Y-90068D01*
X151256Y-90605D01*
X150998Y-91229D01*
X150909Y-91900D01*
Y-94895D01*
X149921Y-95883D01*
X147003D01*
X146333Y-95971D01*
X145965Y-96124D01*
X144903D01*
Y-96991D01*
X144760Y-97178D01*
X144501Y-97803D01*
X144412Y-98474D01*
X144501Y-99144D01*
X144760Y-99769D01*
X144903Y-99956D01*
Y-100824D01*
X145965D01*
X146333Y-100976D01*
X147003Y-101064D01*
X150994D01*
X151665Y-100976D01*
X152290Y-100717D01*
X152826Y-100305D01*
X155332Y-97800D01*
X155744Y-97263D01*
X156002Y-96638D01*
X156091Y-95968D01*
Y-91900D01*
X156002Y-91229D01*
X155744Y-90605D01*
X155332Y-90068D01*
X154795Y-89656D01*
X154171Y-89398D01*
X153500Y-89309D01*
D02*
G37*
G36*
X41482Y-72998D02*
X40774D01*
X40119Y-73269D01*
X39618Y-73770D01*
X39347Y-74425D01*
Y-75133D01*
X39618Y-75788D01*
X39751Y-75921D01*
Y-94328D01*
X39856Y-94855D01*
X40154Y-95301D01*
X45127Y-100273D01*
X45127Y-100273D01*
X45573Y-100572D01*
X46100Y-100677D01*
X46100Y-100676D01*
X56962D01*
X57096Y-100810D01*
X57750Y-101081D01*
X58459D01*
X59113Y-100810D01*
X59614Y-100309D01*
X59886Y-99654D01*
Y-98946D01*
X59614Y-98291D01*
X59113Y-97790D01*
X58459Y-97519D01*
X57750D01*
X57096Y-97790D01*
X56962Y-97924D01*
X46670D01*
X42504Y-93758D01*
Y-75921D01*
X42638Y-75788D01*
X42909Y-75133D01*
Y-74425D01*
X42638Y-73770D01*
X42137Y-73269D01*
X41482Y-72998D01*
D02*
G37*
G36*
X92205Y-99435D02*
X89003D01*
Y-101457D01*
X92205D01*
Y-99435D01*
D02*
G37*
G36*
X213341Y-100338D02*
X213005Y-101438D01*
X214440Y-101876D01*
X214776Y-100776D01*
X213341Y-100338D01*
D02*
G37*
G36*
X137533Y-101349D02*
X135965D01*
Y-102189D01*
X137533D01*
Y-101349D01*
D02*
G37*
G36*
X232970Y-98687D02*
X232091Y-101561D01*
X234401Y-102268D01*
X235280Y-99393D01*
X232970Y-98687D01*
D02*
G37*
G36*
X190154Y-95419D02*
X189446D01*
X188791Y-95690D01*
X188290Y-96191D01*
X188242Y-96307D01*
X179531Y-105018D01*
X179529Y-105016D01*
X178333Y-106416D01*
X177371Y-107986D01*
X176666Y-109688D01*
X176236Y-111478D01*
X176092Y-113314D01*
X176094D01*
Y-119727D01*
X176107Y-119791D01*
X175971Y-121172D01*
X175550Y-122561D01*
X174865Y-123841D01*
X173985Y-124914D01*
X173931Y-124950D01*
X173887Y-125016D01*
X172691Y-125997D01*
X171258Y-126764D01*
X169703Y-127235D01*
X168164Y-127387D01*
X168086Y-127371D01*
X164541D01*
Y-127324D01*
X158616D01*
Y-130886D01*
X164541D01*
Y-130838D01*
X168086D01*
Y-130841D01*
X169922Y-130696D01*
X171712Y-130266D01*
X173414Y-129562D01*
X174984Y-128599D01*
X176384Y-127403D01*
X176383Y-127401D01*
X177489Y-126107D01*
X178378Y-124654D01*
X179030Y-123081D01*
X179428Y-121425D01*
X179561Y-119727D01*
X179561D01*
Y-113314D01*
X179546Y-113236D01*
X179697Y-111697D01*
X180169Y-110142D01*
X180935Y-108709D01*
X181916Y-107513D01*
X181982Y-107469D01*
X190693Y-98758D01*
X190809Y-98710D01*
X191310Y-98209D01*
X191581Y-97554D01*
Y-96846D01*
X191310Y-96191D01*
X190809Y-95690D01*
X190154Y-95419D01*
D02*
G37*
G36*
X223258Y-91424D02*
X223117Y-91884D01*
X223035Y-91983D01*
X218687Y-106207D01*
X213971Y-104765D01*
X213665Y-104410D01*
X214001Y-103311D01*
X211849Y-102653D01*
X209698Y-101995D01*
X209379Y-103039D01*
X206889Y-102278D01*
X206394Y-102325D01*
X206078Y-102709D01*
X205179Y-105649D01*
X205227Y-106144D01*
X205610Y-106460D01*
X211997Y-108413D01*
X212492Y-108365D01*
X212808Y-107982D01*
X212891Y-107710D01*
X217771Y-109202D01*
X213942Y-121727D01*
X213954Y-121855D01*
X213814Y-122315D01*
X214273Y-122456D01*
X214373Y-122538D01*
X218581Y-123824D01*
X218709Y-123812D01*
X219103Y-123932D01*
X219194Y-123632D01*
X219392Y-123393D01*
X223409Y-110252D01*
X223413Y-110248D01*
X223949Y-108495D01*
X223948Y-108489D01*
X228485Y-93650D01*
X228455Y-93341D01*
X228547Y-93041D01*
X228154Y-92921D01*
X228054Y-92839D01*
X223846Y-91552D01*
X223846Y-91552D01*
X223718Y-91565D01*
X223258Y-91424D01*
D02*
G37*
G36*
X22284Y-106701D02*
X20263D01*
Y-109904D01*
X22284D01*
Y-106701D01*
D02*
G37*
G36*
X137533Y-109595D02*
X135965D01*
Y-110435D01*
X137533D01*
Y-109595D01*
D02*
G37*
G36*
X140291Y-109595D02*
X138722D01*
Y-110435D01*
X140291D01*
Y-109595D01*
D02*
G37*
G36*
X147666Y-111366D02*
X146166D01*
Y-112516D01*
X147666D01*
Y-111366D01*
D02*
G37*
G36*
X226805Y-118850D02*
X225927Y-121725D01*
X228236Y-122431D01*
X229115Y-119556D01*
X226805Y-118850D01*
D02*
G37*
G36*
X142039Y-121924D02*
X139427D01*
Y-123355D01*
X142039D01*
Y-121924D01*
D02*
G37*
G36*
X137927D02*
X135315D01*
Y-123355D01*
X137927D01*
Y-121924D01*
D02*
G37*
G36*
X25028Y-122505D02*
X23278D01*
Y-124505D01*
X25028D01*
Y-122505D01*
D02*
G37*
G36*
X21778D02*
X20028D01*
Y-124505D01*
X21778D01*
Y-122505D01*
D02*
G37*
G36*
X188168Y-121233D02*
X186943Y-123120D01*
X189668Y-124890D01*
X190894Y-123003D01*
X188168Y-121233D01*
D02*
G37*
G36*
X126228Y-123255D02*
X124478D01*
Y-125255D01*
X126228D01*
Y-123255D01*
D02*
G37*
G36*
X122978D02*
X121228D01*
Y-125255D01*
X122978D01*
Y-123255D01*
D02*
G37*
G36*
X142039Y-124855D02*
X139427D01*
Y-126286D01*
X142039D01*
Y-124855D01*
D02*
G37*
G36*
X137927D02*
X135315D01*
Y-126286D01*
X137927D01*
Y-124855D01*
D02*
G37*
G36*
X225488Y-123159D02*
X224609Y-126034D01*
X226919Y-126740D01*
X227798Y-123865D01*
X225488Y-123159D01*
D02*
G37*
G36*
X131828Y-123655D02*
X127628D01*
Y-128105D01*
X127628Y-128355D01*
X127231Y-128605D01*
X126228D01*
Y-126755D01*
X123728D01*
X121228D01*
Y-128755D01*
X124128D01*
Y-130855D01*
X128128D01*
X132128D01*
X132128Y-128605D01*
X131999Y-128443D01*
X132039Y-128247D01*
X132583Y-128083D01*
X134470Y-129970D01*
X134866Y-130235D01*
X135335Y-130328D01*
X135715D01*
Y-130886D01*
X141639D01*
Y-127324D01*
X135715D01*
Y-127324D01*
X135410Y-127450D01*
X133100Y-125139D01*
X132703Y-124874D01*
X132235Y-124781D01*
X131828D01*
Y-123655D01*
D02*
G37*
G36*
X36150Y-127905D02*
X34400D01*
Y-129905D01*
X36150D01*
Y-127905D01*
D02*
G37*
G36*
X32900D02*
X31150D01*
Y-129905D01*
X32900D01*
Y-127905D01*
D02*
G37*
G36*
X155852Y-124109D02*
X150878D01*
Y-130855D01*
X155852D01*
Y-124109D01*
D02*
G37*
G36*
X149378D02*
X144403D01*
Y-130855D01*
X149378D01*
Y-124109D01*
D02*
G37*
G36*
X195582Y-129646D02*
X194955Y-130610D01*
X196213Y-131427D01*
X196840Y-130463D01*
X195582Y-129646D01*
D02*
G37*
G36*
X142039Y-131924D02*
X139427D01*
Y-133355D01*
X142039D01*
Y-131924D01*
D02*
G37*
G36*
X127378Y-132355D02*
X124128D01*
Y-134605D01*
X127378D01*
Y-132355D01*
D02*
G37*
G36*
X137927Y-131924D02*
X135315D01*
Y-132955D01*
X134578D01*
Y-134855D01*
X133078D01*
Y-132955D01*
X132128D01*
Y-132355D01*
X128878D01*
Y-134605D01*
X131578D01*
X131578Y-136755D01*
X131161Y-136955D01*
X117128D01*
X116669Y-137145D01*
X116478Y-137605D01*
Y-148002D01*
X116669Y-148461D01*
X117128Y-148652D01*
X141039D01*
X141498Y-148461D01*
X141689Y-148002D01*
Y-137605D01*
X141639Y-137485D01*
Y-137324D01*
X141572D01*
X141498Y-137145D01*
X141039Y-136955D01*
X136495D01*
X136477Y-136947D01*
X136375Y-136343D01*
X136431Y-136286D01*
X137927D01*
Y-134105D01*
Y-131924D01*
D02*
G37*
G36*
X142039Y-134855D02*
X139427D01*
Y-136286D01*
X142039D01*
Y-134855D01*
D02*
G37*
G36*
X212257Y-132448D02*
X210112Y-135750D01*
X213414Y-137894D01*
X215558Y-134592D01*
X212257Y-132448D01*
D02*
G37*
G36*
X155852Y-132355D02*
X150878D01*
Y-139101D01*
X155852D01*
Y-132355D01*
D02*
G37*
G36*
X149378D02*
X144403D01*
Y-139101D01*
X149378D01*
Y-132355D01*
D02*
G37*
G36*
X217236Y-135681D02*
X215091Y-138983D01*
X218393Y-141128D01*
X220538Y-137826D01*
X217236Y-135681D01*
D02*
G37*
G36*
X156628Y-141705D02*
X154378D01*
Y-144955D01*
X156628D01*
Y-141705D01*
D02*
G37*
G36*
X152878D02*
X150628D01*
Y-144955D01*
X152878D01*
Y-141705D01*
D02*
G37*
G36*
X55078Y-151105D02*
X53078D01*
Y-152855D01*
X55078D01*
Y-151105D01*
D02*
G37*
G36*
X60478D02*
X56578D01*
Y-153605D01*
Y-156105D01*
X60478D01*
Y-153605D01*
Y-151105D01*
D02*
G37*
G36*
X55078Y-154355D02*
X53078D01*
Y-156105D01*
X55078D01*
Y-154355D01*
D02*
G37*
G36*
X94628Y-156205D02*
X91378D01*
Y-158455D01*
X94628D01*
Y-156205D01*
D02*
G37*
G36*
X89878D02*
X86628D01*
Y-158455D01*
X89878D01*
Y-156205D01*
D02*
G37*
G36*
X94628Y-159955D02*
X91378D01*
Y-162205D01*
X94628D01*
Y-159955D01*
D02*
G37*
G36*
X89878D02*
X86628D01*
Y-162205D01*
X89878D01*
Y-159955D01*
D02*
G37*
G36*
X30372Y-173193D02*
X28946Y-174892D01*
X31400Y-176951D01*
X32826Y-175251D01*
X30372Y-173193D01*
D02*
G37*
G36*
X27982Y-176041D02*
X26556Y-177741D01*
X29009Y-179799D01*
X30435Y-178100D01*
X27982Y-176041D01*
D02*
G37*
G36*
X33975Y-176216D02*
X32549Y-177915D01*
X35002Y-179974D01*
X36428Y-178274D01*
X33975Y-176216D01*
D02*
G37*
G36*
X31585Y-179064D02*
X30158Y-180764D01*
X32612Y-182822D01*
X34038Y-181123D01*
X31585Y-179064D01*
D02*
G37*
G36*
X38985Y-182130D02*
X38499Y-183172D01*
X39858Y-183806D01*
X40344Y-182764D01*
X38985Y-182130D01*
D02*
G37*
G36*
X41704Y-183398D02*
X41218Y-184440D01*
X41390Y-184520D01*
X40849Y-185682D01*
X43573Y-186953D01*
X44594Y-184764D01*
X43056Y-184047D01*
X43063Y-184032D01*
X41704Y-183398D01*
D02*
G37*
G36*
X45953Y-185398D02*
X44932Y-187587D01*
X47657Y-188857D01*
X48677Y-186668D01*
X45953Y-185398D01*
D02*
G37*
G36*
X65062Y-194308D02*
X64042Y-196497D01*
X66766Y-197768D01*
X67787Y-195579D01*
X65062Y-194308D01*
D02*
G37*
G36*
X69146Y-196212D02*
X68125Y-198402D01*
X70850Y-199672D01*
X71870Y-197483D01*
X69146Y-196212D01*
D02*
G37*
%LPD*%
G36*
X159602Y-16118D02*
Y-16325D01*
X159873Y-16980D01*
X160374Y-17481D01*
X161028Y-17752D01*
X161737D01*
X162392Y-17481D01*
X162525Y-17347D01*
X163725D01*
X163824Y-17848D01*
X163617Y-17934D01*
X163074Y-18350D01*
X162657Y-18893D01*
X162395Y-19526D01*
X162305Y-20205D01*
X162395Y-20883D01*
X162657Y-21516D01*
X163074Y-22059D01*
X163617Y-22476D01*
X164249Y-22738D01*
X164928Y-22827D01*
X166665D01*
X167088Y-23015D01*
X167088Y-23327D01*
Y-27714D01*
X167556D01*
Y-28914D01*
X167088D01*
Y-30616D01*
X166625Y-30807D01*
X165951Y-31325D01*
X165564Y-31622D01*
X165564D01*
X165437Y-31767D01*
X164873Y-32503D01*
X164518Y-33359D01*
X164398Y-34278D01*
X164398Y-34281D01*
X164406Y-34781D01*
Y-35461D01*
X161131D01*
Y-31819D01*
X159093D01*
Y-24734D01*
X159100D01*
X158988Y-23596D01*
X158656Y-22502D01*
X158117Y-21493D01*
X157392Y-20609D01*
X157403Y-20598D01*
X155998Y-19444D01*
X155793Y-19335D01*
X156007Y-18882D01*
X156246Y-18981D01*
X156954D01*
X157609Y-18710D01*
X158110Y-18209D01*
X158381Y-17554D01*
Y-16921D01*
X158422Y-16716D01*
X158685Y-16322D01*
X158702Y-16311D01*
X159102Y-15911D01*
X159602Y-16118D01*
D02*
G37*
G36*
X121592Y-40254D02*
X138188D01*
Y-40840D01*
X138089Y-40940D01*
X137688Y-41133D01*
X137182Y-40924D01*
X136474D01*
X135819Y-41195D01*
X135318Y-41696D01*
X135047Y-42350D01*
Y-43059D01*
X135318Y-43714D01*
X135819Y-44215D01*
X136474Y-44486D01*
X137182D01*
X137644Y-44294D01*
X137905Y-44420D01*
X138083Y-44534D01*
X138039Y-45008D01*
X137791Y-45164D01*
X137338D01*
Y-45888D01*
X125957D01*
X125938Y-45892D01*
X124781Y-45778D01*
X123650Y-45435D01*
X122608Y-44878D01*
X121709Y-44140D01*
X121698Y-44124D01*
X121692Y-44120D01*
X121211Y-43493D01*
X120905Y-42755D01*
X120802Y-41972D01*
X120804Y-41964D01*
Y-40388D01*
X121304Y-40135D01*
X121592Y-40254D01*
D02*
G37*
G36*
X41658Y-45662D02*
Y-54934D01*
X41763Y-55461D01*
X42061Y-55907D01*
X45727Y-59573D01*
X46173Y-59872D01*
X46434Y-59924D01*
X46385Y-60424D01*
X43470D01*
X39411Y-56364D01*
Y-45662D01*
X39764Y-45309D01*
X40406Y-45309D01*
X40843Y-45309D01*
X41304Y-45309D01*
X41658Y-45662D01*
D02*
G37*
G36*
X45162Y-45309D02*
X45663Y-45309D01*
X45906Y-45309D01*
X46658D01*
Y-52934D01*
X46762Y-53461D01*
X47061Y-53907D01*
X48827Y-55673D01*
X49273Y-55972D01*
X49800Y-56077D01*
X49800Y-56076D01*
X52358D01*
X52491Y-56210D01*
X52900Y-56379D01*
Y-56921D01*
X52491Y-57090D01*
X52358Y-57224D01*
X47270D01*
X44411Y-54364D01*
Y-45309D01*
X45162D01*
D02*
G37*
G36*
X100677Y-58578D02*
Y-62390D01*
X100390Y-62676D01*
X100119Y-63331D01*
Y-64039D01*
X100390Y-64694D01*
X100891Y-65195D01*
X101546Y-65466D01*
X101990D01*
X102197Y-65966D01*
X101583Y-66580D01*
X101580Y-66577D01*
X100394Y-67965D01*
X99440Y-69522D01*
X98742Y-71209D01*
X98315Y-72984D01*
X98172Y-74805D01*
X98177D01*
Y-91813D01*
X97350D01*
Y-92139D01*
X96850Y-92156D01*
X96508Y-91814D01*
X96508Y-91057D01*
X96508Y-90813D01*
Y-86557D01*
X96508Y-86313D01*
X96508Y-85813D01*
Y-81557D01*
X96508Y-81057D01*
X96508Y-80813D01*
Y-76557D01*
X96508Y-76313D01*
X96508Y-75813D01*
Y-71557D01*
X96508Y-71313D01*
X96508Y-70813D01*
Y-66557D01*
X96508Y-66185D01*
X96508Y-65813D01*
Y-61557D01*
X96508Y-61185D01*
X96508Y-60813D01*
Y-58890D01*
X97008Y-58790D01*
X97018Y-58814D01*
X97519Y-59315D01*
X98174Y-59586D01*
X98882D01*
X99537Y-59315D01*
X100038Y-58814D01*
X100177Y-58479D01*
X100677Y-58578D01*
D02*
G37*
G36*
X75163Y-114206D02*
X75662Y-114206D01*
X75906Y-114206D01*
X80163D01*
X80406Y-114206D01*
X80843Y-114206D01*
X81301Y-114206D01*
X81655Y-114560D01*
Y-115779D01*
X80928D01*
Y-120172D01*
X80928Y-120479D01*
X80508Y-120672D01*
X69647D01*
X64411Y-115436D01*
Y-114560D01*
X64764Y-114206D01*
X65406Y-114206D01*
X65906Y-114206D01*
X70162D01*
X70534Y-114206D01*
X70906Y-114206D01*
X75163D01*
D02*
G37*
%LPC*%
G36*
X140696Y-78305D02*
X138696D01*
Y-80055D01*
X140696D01*
Y-78305D01*
D02*
G37*
G36*
X137196D02*
X135196D01*
Y-80055D01*
X137196D01*
Y-78305D01*
D02*
G37*
G36*
X140696Y-81555D02*
X138696D01*
Y-83305D01*
X140696D01*
Y-81555D01*
D02*
G37*
G36*
X137196D02*
X135196D01*
Y-83305D01*
X137196D01*
Y-81555D01*
D02*
G37*
G36*
X114100Y-160455D02*
X110850D01*
Y-163705D01*
X112100D01*
X114100Y-161705D01*
Y-160455D01*
D02*
G37*
G36*
X80578Y-166905D02*
X78578D01*
Y-168655D01*
X80578D01*
Y-166905D01*
D02*
G37*
G36*
X77078D02*
X75078D01*
Y-168655D01*
X77078D01*
Y-166905D01*
D02*
G37*
G36*
X194559Y-154603D02*
X193850D01*
X193195Y-154874D01*
X192817Y-155253D01*
X192218Y-155317D01*
X192163Y-155251D01*
X186720Y-159818D01*
X190022Y-163753D01*
X195465Y-159186D01*
X194891Y-158502D01*
X195080Y-157949D01*
X195213Y-157894D01*
X195714Y-157393D01*
X195985Y-156738D01*
Y-156030D01*
X195714Y-155375D01*
X195213Y-154874D01*
X194559Y-154603D01*
D02*
G37*
G36*
X200563Y-164639D02*
X198110Y-166698D01*
X199536Y-168398D01*
X201989Y-166339D01*
X200563Y-164639D01*
D02*
G37*
G36*
X196961Y-167662D02*
X194507Y-169721D01*
X195933Y-171421D01*
X198387Y-169362D01*
X196961Y-167662D01*
D02*
G37*
G36*
X151453Y-160182D02*
X149947D01*
X148493Y-160572D01*
X147189Y-161324D01*
X146124Y-162389D01*
X145372Y-163693D01*
X144982Y-165147D01*
Y-166653D01*
X145372Y-168107D01*
X146124Y-169411D01*
X147189Y-170476D01*
X148493Y-171228D01*
X149947Y-171618D01*
X151453D01*
X152907Y-171228D01*
X154211Y-170476D01*
X155276Y-169411D01*
X156028Y-168107D01*
X156418Y-166653D01*
Y-165147D01*
X156028Y-163693D01*
X155276Y-162389D01*
X154211Y-161324D01*
X152907Y-160572D01*
X151453Y-160182D01*
D02*
G37*
G36*
X172828Y-165682D02*
X172149Y-165772D01*
X171517Y-166034D01*
X170974Y-166450D01*
X170557Y-166993D01*
X170295Y-167626D01*
X170205Y-168305D01*
X170295Y-168983D01*
X170557Y-169616D01*
X170974Y-170159D01*
X172273Y-171459D01*
X172251Y-171958D01*
X171640Y-172471D01*
X174942Y-176406D01*
X177280Y-174444D01*
X177324Y-174426D01*
X177867Y-174009D01*
X177990Y-173848D01*
X180385Y-171839D01*
X177083Y-167904D01*
X176568Y-168336D01*
X174682Y-166450D01*
X174139Y-166034D01*
X173507Y-165772D01*
X172828Y-165682D01*
D02*
G37*
G36*
X140100Y-162215D02*
X134500D01*
X134041Y-162405D01*
X133851Y-162864D01*
Y-178104D01*
X134041Y-178563D01*
X134500Y-178753D01*
X140100D01*
X140559Y-178563D01*
X140749Y-178104D01*
Y-162864D01*
X140559Y-162405D01*
X140100Y-162215D01*
D02*
G37*
G36*
X139800Y-186050D02*
X138050D01*
Y-188050D01*
X139800D01*
Y-186050D01*
D02*
G37*
G36*
X144800Y-191600D02*
X141550D01*
Y-195350D01*
X144800D01*
Y-191600D01*
D02*
G37*
G36*
Y-196850D02*
X141550D01*
Y-200600D01*
X144800D01*
Y-196850D01*
D02*
G37*
G36*
X140050D02*
X136800D01*
Y-200600D01*
X140050D01*
Y-196850D01*
D02*
G37*
%LPD*%
D10*
X157972Y-24734D02*
G03*
X156594Y-21407I-4705J0D01*
G01*
D02*
G03*
X150845Y-19026I-5749J-5749D01*
G01*
X152952Y-22205D02*
G03*
X151389Y-21557I-1564J-1564D01*
G01*
X154035Y-24818D02*
G03*
X152952Y-22205I-3697J0D01*
G01*
X166237Y-32567D02*
G03*
X165528Y-34280I1711J-1711D01*
G01*
X168188Y-31392D02*
G03*
X166373Y-32430I1000J-3853D01*
G01*
X165228Y-40105D02*
G03*
X165528Y-39380I-724J724D01*
G01*
X164061Y-40588D02*
G03*
X165228Y-40105I0J1651D01*
G01*
X148540Y-38017D02*
G03*
X149995Y-38620I1455J1455D01*
G01*
X148428Y-37905D02*
G03*
X147848Y-37664I-580J-580D01*
G01*
X162598Y-42557D02*
X168680D01*
X169188Y-43064D01*
X148256Y-21557D02*
X151389D01*
X154035Y-33994D02*
Y-24818D01*
X145037Y-19026D02*
X150845D01*
X157972Y-33994D02*
Y-24734D01*
X151377Y-40588D02*
X155728D01*
X166237Y-32567D02*
X166373Y-32430D01*
X165528Y-34280D02*
X165528Y-34284D01*
X168188Y-31392D02*
X169188Y-31264D01*
X165528Y-39380D02*
Y-34284D01*
X162598Y-40588D02*
X164061D01*
X149995Y-38620D02*
X151377D01*
X148428Y-37905D02*
X148540Y-38017D01*
X145488Y-37664D02*
X147848D01*
X146296Y-42557D02*
X151377D01*
X159364Y-38620D02*
X162598D01*
X156003Y-37228D02*
Y-33994D01*
D15*
X133111Y-104317D02*
G03*
X131717Y-103740I-1394J-1394D01*
G01*
X133111Y-104317D02*
G03*
X134537Y-104908I1426J1426D01*
G01*
X129961Y-103740D02*
X131717D01*
X134537Y-104908D02*
X135214D01*
X126728Y-103740D02*
X129961D01*
X52349Y-126504D02*
X55384D01*
X60223Y-130244D02*
X60223Y-130244D01*
X58034Y-110653D02*
X58184Y-110803D01*
X135214Y-104908D02*
X141041D01*
D23*
X137300Y-188800D02*
D03*
X131300D02*
D03*
X101828Y-405D02*
D03*
X95828D02*
D03*
X175188Y-25365D02*
D03*
X169188D02*
D03*
X175188Y-31264D02*
D03*
X169188D02*
D03*
X175188Y-37165D02*
D03*
X169188D02*
D03*
X175188Y-43064D02*
D03*
X169188D02*
D03*
X33650Y-127155D02*
D03*
X39650Y-127155D02*
D03*
X33650Y-121755D02*
D03*
X39650Y-121755D02*
D03*
X22528D02*
D03*
X28528D02*
D03*
X129728Y-126005D02*
D03*
X123728Y-126005D02*
D03*
X141003Y-98474D02*
D03*
X147003Y-98474D02*
D03*
X191128Y-86505D02*
D03*
X197128D02*
D03*
X83028Y-118129D02*
D03*
X89028D02*
D03*
X117228Y-73805D02*
D03*
X111228D02*
D03*
X191128Y-92005D02*
D03*
X197128D02*
D03*
X140288Y-42564D02*
D03*
X146288D02*
D03*
X139788Y-57964D02*
D03*
X145788D02*
D03*
D24*
X130800Y-196100D02*
D03*
X140800D02*
D03*
D25*
X145488Y-37664D02*
D03*
Y-31664D02*
D03*
X123650Y-37602D02*
D03*
Y-31602D02*
D03*
X129088Y-37764D02*
D03*
Y-31765D02*
D03*
X139488Y-31664D02*
D03*
Y-37664D02*
D03*
X90528Y-5705D02*
D03*
Y-11705D02*
D03*
X55828Y-159605D02*
D03*
Y-153605D02*
D03*
X61228Y-159605D02*
D03*
Y-153605D02*
D03*
X129961Y-103740D02*
D03*
X129961Y-97740D02*
D03*
X77828Y-169405D02*
D03*
Y-163405D02*
D03*
X33028Y-35105D02*
D03*
X33028Y-29105D02*
D03*
X123550Y-26942D02*
D03*
Y-20942D02*
D03*
X99700Y-99913D02*
D03*
Y-93913D02*
D03*
X78128Y-35605D02*
D03*
X78128Y-29605D02*
D03*
X137946Y-86805D02*
D03*
Y-80805D02*
D03*
X111168Y-86664D02*
D03*
Y-80664D02*
D03*
X158028Y-50905D02*
D03*
Y-56905D02*
D03*
X134288Y-25464D02*
D03*
Y-31464D02*
D03*
X139688Y-53264D02*
D03*
Y-47265D02*
D03*
X84600Y-5700D02*
D03*
Y-11700D02*
D03*
D26*
X52349Y-126504D02*
D03*
X60223Y-130244D02*
D03*
Y-122764D02*
D03*
D27*
X47048Y-126768D02*
D03*
Y-130468D02*
D03*
X82828Y-155355D02*
D03*
X82828Y-151655D02*
D03*
X145416Y-110616D02*
D03*
X145416Y-106916D02*
D03*
X66128Y-154955D02*
D03*
Y-158655D02*
D03*
X133828Y-134855D02*
D03*
X133828Y-138555D02*
D03*
X115728Y-85905D02*
D03*
Y-82205D02*
D03*
X82828Y-155355D02*
D03*
D28*
X58184Y-117419D02*
D03*
X54484D02*
D03*
X69578Y-163405D02*
D03*
X73278D02*
D03*
X27378Y-117255D02*
D03*
X23678D02*
D03*
X221268Y-46805D02*
D03*
X217568D02*
D03*
X96050Y-19900D02*
D03*
X99750D02*
D03*
X221268Y-36964D02*
D03*
X217568D02*
D03*
D29*
X86089Y10615D02*
D03*
X89695Y11448D02*
D03*
D30*
X228734Y-123367D02*
D03*
X236216Y-98895D02*
D03*
X224921Y-95442D02*
D03*
X217439Y-119914D02*
D03*
D31*
X193918Y-130831D02*
D03*
X191903Y-133934D02*
D03*
D32*
X28034Y-41756D02*
D03*
X23034Y-41756D02*
D03*
X33034D02*
D03*
X38034D02*
D03*
X43034Y-41756D02*
D03*
X48034Y-41756D02*
D03*
X53034Y-41756D02*
D03*
X58034Y-41756D02*
D03*
X63034Y-41756D02*
D03*
X68034Y-41756D02*
D03*
X73034Y-41756D02*
D03*
X78034Y-41756D02*
D03*
X83034Y-41756D02*
D03*
X88034D02*
D03*
X23034Y-110653D02*
D03*
X28034Y-110653D02*
D03*
X33034D02*
D03*
X38034Y-110653D02*
D03*
X43034Y-110653D02*
D03*
X48034Y-110653D02*
D03*
X53034Y-110653D02*
D03*
X58034Y-110653D02*
D03*
X63034Y-110653D02*
D03*
X68034Y-110653D02*
D03*
X73034D02*
D03*
X78034Y-110653D02*
D03*
X83034Y-110653D02*
D03*
X88034Y-110653D02*
D03*
D33*
X90486Y-136205D02*
D03*
X72770D02*
D03*
D34*
X58940Y-75614D02*
D03*
X58940Y-81126D02*
D03*
X58940Y-86638D02*
D03*
X53428Y-75614D02*
D03*
X53428Y-86638D02*
D03*
X47916Y-75614D02*
D03*
X47916Y-81126D02*
D03*
Y-86638D02*
D03*
X53428Y-81126D02*
D03*
D35*
X92955Y-53685D02*
D03*
Y-58685D02*
D03*
Y-63685D02*
D03*
Y-68685D02*
D03*
X92955Y-73685D02*
D03*
X92955Y-78685D02*
D03*
X92955Y-83685D02*
D03*
X92955Y-88685D02*
D03*
X92955Y-93685D02*
D03*
X92955Y-98685D02*
D03*
D36*
X141041Y-102939D02*
D03*
X141041Y-104908D02*
D03*
X141041Y-106876D02*
D03*
X141041Y-108845D02*
D03*
X135214Y-108845D02*
D03*
Y-106876D02*
D03*
Y-104908D02*
D03*
Y-102939D02*
D03*
D37*
X24764Y-155402D02*
D03*
X16412Y-165354D02*
D03*
X31492Y-178008D02*
D03*
X39843Y-168055D02*
D03*
D38*
X48927Y-177245D02*
D03*
X72120Y-188060D02*
D03*
X67128Y-198764D02*
D03*
X43936Y-187949D02*
D03*
D39*
X131228Y-6105D02*
D03*
X152828Y-6505D02*
D03*
X110100Y-159705D02*
D03*
X110072Y-150533D02*
D03*
D40*
X207369Y-13660D02*
D03*
X217606Y-5661D02*
D03*
X205487Y9851D02*
D03*
X195249Y1852D02*
D03*
D41*
X161628Y-145705D02*
D03*
X153628D02*
D03*
D42*
X128128Y-139605D02*
D03*
Y-131605D02*
D03*
X90628Y-159205D02*
D03*
Y-151205D02*
D03*
X164228Y-57605D02*
D03*
Y-49605D02*
D03*
D43*
X191092Y-159502D02*
D03*
X199443Y-169454D02*
D03*
X184364Y-182108D02*
D03*
X176012Y-172155D02*
D03*
D44*
X120710Y-86945D02*
D03*
Y-79465D02*
D03*
X130946D02*
D03*
Y-83205D02*
D03*
Y-86945D02*
D03*
D45*
X161579Y-124105D02*
D03*
X161579Y-129105D02*
D03*
Y-134105D02*
D03*
Y-139105D02*
D03*
X138677D02*
D03*
X138677Y-134105D02*
D03*
Y-129105D02*
D03*
Y-124105D02*
D03*
D46*
X150128Y-131605D02*
D03*
D47*
X78128Y-153236D02*
D03*
Y-155205D02*
D03*
Y-157173D02*
D03*
Y-159142D02*
D03*
D48*
X72419Y-156189D02*
D03*
D49*
X71829Y-158354D02*
D03*
Y-154024D02*
D03*
D50*
X179015Y-86505D02*
D03*
X184921D02*
D03*
X179015Y-92005D02*
D03*
X184921D02*
D03*
D51*
X185532Y-132637D02*
D03*
X189889Y-125927D02*
D03*
D52*
X41341Y-182401D02*
D03*
X42905Y-179048D02*
D03*
D53*
X166386Y-6175D02*
D03*
X163435Y-3943D02*
D03*
D54*
X128737Y12044D02*
D03*
X125118Y12813D02*
D03*
D55*
X212069Y-101936D02*
D03*
X210987Y-105474D02*
D03*
D56*
X226328Y-81490D02*
D03*
X226328Y-77553D02*
D03*
X226328Y-73616D02*
D03*
X226328Y-69679D02*
D03*
X226328Y-65742D02*
D03*
X226328Y-61805D02*
D03*
D57*
X236269Y-86608D02*
D03*
X236269Y-56687D02*
D03*
D58*
X95663Y-15405D02*
D03*
Y-11665D02*
D03*
Y-7924D02*
D03*
X105112D02*
D03*
Y-11665D02*
D03*
Y-15405D02*
D03*
D59*
X186772Y-46805D02*
D03*
X192284D02*
D03*
X192268Y-31464D02*
D03*
X186756D02*
D03*
D60*
X170528Y-56661D02*
D03*
Y-51149D02*
D03*
D61*
X205068Y-36964D02*
D03*
Y-23579D02*
D03*
Y-60150D02*
D03*
Y-46764D02*
D03*
D62*
X162598Y-36651D02*
D03*
Y-38620D02*
D03*
Y-40588D02*
D03*
Y-42557D02*
D03*
X151377D02*
D03*
Y-40588D02*
D03*
Y-38620D02*
D03*
Y-36651D02*
D03*
D63*
X154035Y-45214D02*
D03*
X156003D02*
D03*
X157972D02*
D03*
X159940D02*
D03*
Y-33994D02*
D03*
X157972D02*
D03*
X156003D02*
D03*
X154035D02*
D03*
D64*
X156988Y-39604D02*
D03*
D65*
X144713Y-53628D02*
D03*
X147863D02*
D03*
X146288Y-49101D02*
D03*
D115*
X47916Y-78370D02*
D03*
X50672Y-75614D02*
D03*
X56184Y-75614D02*
D03*
X50672Y-81126D02*
D03*
X53428Y-78370D02*
D03*
X56184Y-81126D02*
D03*
X58940Y-78370D02*
D03*
X58940Y-83882D02*
D03*
X56184Y-86638D02*
D03*
X50672Y-86638D02*
D03*
X47916Y-83882D02*
D03*
X53428Y-83882D02*
D03*
X81628Y-29605D02*
D03*
X41128Y-74779D02*
D03*
X86752Y-182448D02*
D03*
X122048Y-179305D02*
D03*
X93428Y-169205D02*
D03*
X119866Y-173132D02*
D03*
X148200Y-194076D02*
D03*
X84500Y-188100D02*
D03*
X129028Y-29077D02*
D03*
X63300Y-58600D02*
D03*
X64300Y-99300D02*
D03*
X71500Y-61800D02*
D03*
X53500Y-58600D02*
D03*
Y-54700D02*
D03*
X87806Y-98685D02*
D03*
X78034Y-68601D02*
D03*
X83034D02*
D03*
X100874Y-122049D02*
D03*
X73058Y-65677D02*
D03*
X106817Y-72231D02*
D03*
X156600Y-17200D02*
D03*
X125300Y-68900D02*
D03*
X134692Y-83205D02*
D03*
X145416Y-113000D02*
D03*
X123164Y-131605D02*
D03*
X149300Y-145705D02*
D03*
X58104Y-99300D02*
D03*
X37928Y-153894D02*
D03*
X174628Y-82288D02*
D03*
X174428Y-77505D02*
D03*
X174828Y-73105D02*
D03*
X170428Y-116505D02*
D03*
X97799Y-143139D02*
D03*
X159216Y-113705D02*
D03*
Y-118205D02*
D03*
X193428Y-122616D02*
D03*
X190629Y-120763D02*
D03*
X160400Y-82300D02*
D03*
X153500Y-91900D02*
D03*
X150205Y-81095D02*
D03*
X118800Y-54500D02*
D03*
X85800Y-155400D02*
D03*
X106817Y-80881D02*
D03*
X101900Y-63685D02*
D03*
X106100Y-54500D02*
D03*
X110228Y-127755D02*
D03*
X55384Y-126504D02*
D03*
X50473Y-130244D02*
D03*
X41150Y-140362D02*
D03*
X44031Y-148729D02*
D03*
Y-145229D02*
D03*
X48298Y-121755D02*
D03*
X32126Y-159605D02*
D03*
X214237Y-1687D02*
D03*
X194204Y-156384D02*
D03*
X137600Y-168404D02*
D03*
Y-176480D02*
D03*
X226328Y-84305D02*
D03*
X207886Y-104879D02*
D03*
X221286Y-41764D02*
D03*
X209519Y-101075D02*
D03*
X118928Y-141905D02*
D03*
X137600Y-173076D02*
D03*
Y-164800D02*
D03*
X127828Y-157905D02*
D03*
X95528Y-160918D02*
D03*
X218168Y-61805D02*
D03*
X176700Y-102100D02*
D03*
X189800Y-97200D02*
D03*
X113740Y7295D02*
D03*
X36634Y-29605D02*
D03*
X220228Y-142505D02*
D03*
X214866Y-150834D02*
D03*
X119427Y-16549D02*
D03*
X28946Y-168445D02*
D03*
X25760Y-171461D02*
D03*
X210180Y-129488D02*
D03*
X221080Y-135488D02*
D03*
X215080Y-131988D02*
D03*
X207256Y-135115D02*
D03*
X198568Y-146899D02*
D03*
X209568Y-154199D02*
D03*
X203668Y-150499D02*
D03*
X202268Y-141599D02*
D03*
X118582Y-11021D02*
D03*
X33028Y-47005D02*
D03*
X178615Y-79139D02*
D03*
X179015Y-97263D02*
D03*
X200508Y-86427D02*
D03*
X98528Y-57805D02*
D03*
X172828Y-168305D02*
D03*
X153628Y-57105D02*
D03*
X161383Y-15971D02*
D03*
X145488Y-28464D02*
D03*
X151328Y-24105D02*
D03*
X145037Y-19026D02*
D03*
X148256Y-21557D02*
D03*
X164928Y-20205D02*
D03*
X152828Y-6505D02*
D03*
X64816Y-152229D02*
D03*
X67416D02*
D03*
X62216Y-148729D02*
D03*
X59616D02*
D03*
Y-145229D02*
D03*
X62216D02*
D03*
X119728Y-177905D02*
D03*
X97228Y-178405D02*
D03*
X37928Y-174205D02*
D03*
X126728Y-103740D02*
D03*
X67278Y-169472D02*
D03*
X54416Y-145229D02*
D03*
X57016D02*
D03*
X51816D02*
D03*
X49216Y-148729D02*
D03*
X46616Y-145229D02*
D03*
Y-148729D02*
D03*
X51816D02*
D03*
X57016D02*
D03*
X49216Y-145229D02*
D03*
X54416Y-148729D02*
D03*
X23028Y-81005D02*
D03*
Y-69905D02*
D03*
X106528Y-86605D02*
D03*
X137728Y-98105D02*
D03*
X28034Y-132605D02*
D03*
X33034D02*
D03*
X23034D02*
D03*
X91128Y-163305D02*
D03*
X28028Y-98105D02*
D03*
X40928Y-105005D02*
D03*
X99800Y-103505D02*
D03*
X123164Y-141905D02*
D03*
X118928Y-146005D02*
D03*
X123164D02*
D03*
X153228Y-126705D02*
D03*
X154728Y-113705D02*
D03*
X170428Y-60176D02*
D03*
X154728Y-118205D02*
D03*
X147028Y-126705D02*
D03*
X147055Y-136539D02*
D03*
X153199D02*
D03*
X150128Y-131605D02*
D03*
X162328Y-45505D02*
D03*
X136828Y-42705D02*
D03*
X155728Y-40905D02*
D03*
X158328D02*
D03*
Y-38405D02*
D03*
X155728D02*
D03*
D125*
X172855Y20809D02*
G03*
X168486Y16440I0J-4369D01*
G01*
X157476Y-15085D02*
G03*
X156600Y-17200I2115J-2115D01*
G01*
X113057Y6611D02*
G03*
X110128Y-460I7071J-7071D01*
G01*
X108898Y-14707D02*
G03*
X110128Y-11738I-2969J2969D01*
G01*
X107214Y-15405D02*
G03*
X108898Y-14707I-0J2383D01*
G01*
X95249Y35205D02*
G03*
X91878Y38576I-3371J0D01*
G01*
X144464Y29711D02*
G03*
X142220Y35127I-7660J0D01*
G01*
X134464Y12044D02*
G03*
X144464Y22044I0J10000D01*
G01*
X92320Y14073D02*
G03*
X95249Y21144I-7071J7071D01*
G01*
X84524Y5095D02*
G03*
X88628Y6795I0J5804D01*
G01*
X83849Y5095D02*
G03*
X77777Y2580I0J-8587D01*
G01*
X76457Y1260D02*
G03*
X74128Y-4362I5623J-5623D01*
G01*
X166390Y-6171D02*
G03*
X168486Y-1106I-5073J5066D01*
G01*
X166386Y-6175D02*
G03*
X166390Y-6171I-5069J5069D01*
G01*
X145788Y-74376D02*
G03*
X139439Y-68027I-6349J0D01*
G01*
X141288Y-86805D02*
G03*
X142949Y-86487I0J4500D01*
G01*
X134692Y-67867D02*
G03*
X136469Y-68027I1777J9841D01*
G01*
X129398Y-65098D02*
G03*
X134692Y-67867I7071J7071D01*
G01*
X143028Y-86454D02*
G03*
X145438Y-84045I-1740J4150D01*
G01*
X142949Y-86487D02*
G03*
X143028Y-86454I-1662J4182D01*
G01*
X145438Y-84045D02*
G03*
X145788Y-82305I-4150J1740D01*
G01*
X88628Y6795D02*
G03*
X89695Y9371I-2575J2575D01*
G01*
X180757Y-106243D02*
G03*
X177828Y-113314I7071J-7071D01*
G01*
X175157Y-126176D02*
G03*
X177828Y-119727I-6448J6448D01*
G01*
X168086Y-129105D02*
G03*
X175157Y-126176I0J10000D01*
G01*
X123550Y-31360D02*
G03*
X123650Y-31602I341J0D01*
G01*
X168486Y-1106D02*
Y16440D01*
X157476Y-15085D02*
X166386Y-6175D01*
X113057Y6611D02*
X113740Y7295D01*
X110128Y-11738D02*
Y-460D01*
X91878Y38576D02*
X92320Y38134D01*
X95249Y21144D02*
Y35205D01*
X144464Y22044D02*
Y29711D01*
X128737Y12044D02*
X134464D01*
X89695Y11448D02*
X92320Y14073D01*
X83849Y5095D02*
X84524D01*
X76457Y1260D02*
X77777Y2580D01*
X74128Y-36005D02*
Y-4362D01*
X105112Y-15405D02*
X107214D01*
X145788Y-82305D02*
Y-74376D01*
X136469Y-68027D02*
X139439D01*
X137946Y-86805D02*
X141288D01*
X118800Y-54500D02*
X129398Y-65098D01*
X95663Y-19900D02*
Y-17859D01*
X95225Y-19900D02*
X95720Y-20395D01*
X41150Y-140362D02*
X45760D01*
X47048Y-139073D01*
Y-130468D01*
X94975Y-19900D02*
X95225D01*
X95720Y-23506D02*
Y-20395D01*
Y-23506D02*
X106100Y-33887D01*
Y-54500D02*
Y-33887D01*
X95663Y-19900D02*
X95720Y-19956D01*
X89695Y9371D02*
Y11448D01*
X221268Y-41925D02*
X221386Y-41808D01*
X221268Y-41602D02*
Y-36964D01*
Y-46805D02*
Y-41925D01*
Y-41602D02*
X221386Y-41720D01*
Y-41808D02*
Y-41720D01*
X180757Y-106243D02*
X189800Y-97200D01*
X177828Y-119727D02*
Y-113314D01*
X196974Y-86458D02*
X200508D01*
X161579Y-129105D02*
X168086D01*
X76908Y-35605D02*
X78128D01*
X123550Y-31360D02*
Y-26942D01*
X228135Y-50898D02*
Y-31510D01*
X226429Y-52605D02*
X228135Y-50898D01*
X219528Y-52605D02*
X226429D01*
X217568Y-50645D02*
X219528Y-52605D01*
X217568Y-50645D02*
Y-46805D01*
X205108D02*
X217568D01*
X205068Y-46764D02*
X205108Y-46805D01*
X217568Y-28964D02*
X224228Y-22305D01*
X217568Y-36964D02*
Y-28964D01*
D126*
X126762Y4901D02*
G03*
X128737Y9671I-4770J4770D01*
G01*
X98528Y-47691D02*
G03*
X96585Y-42999I-6634J0D01*
G01*
D02*
G03*
X93583Y-41756I-3002J-3002D01*
G01*
X182396Y-69679D02*
G03*
X175325Y-72608I0J-10000D01*
G01*
X95607Y-151205D02*
G03*
X97228Y-150533I0J2293D01*
G01*
D02*
G03*
X97799Y-149153I-1380J1380D01*
G01*
X182459Y-73616D02*
G03*
X175388Y-76545I0J-10000D01*
G01*
X160400Y-70470D02*
G03*
X153635Y-63705I-6765J0D01*
G01*
X131312Y-60776D02*
G03*
X138383Y-63705I7071J7071D01*
G01*
X116396Y-42403D02*
G03*
X118840Y-48305I8347J0D01*
G01*
X105526Y-64944D02*
G03*
X113446Y-45825I-19119J19119D01*
G01*
X102737Y-67734D02*
G03*
X99808Y-74805I7071J-7071D01*
G01*
X121119Y1698D02*
G03*
X124675Y2900I-50J6010D01*
G01*
X99700Y-93913D02*
G03*
X99808Y-93652I-261J261D01*
G01*
X124675Y2900D02*
G03*
X125318Y3458I-3606J4808D01*
G01*
X116375Y-405D02*
G03*
X113446Y-7476I7071J-7071D01*
G01*
X121069Y1698D02*
G03*
X116644Y-135I0J-6257D01*
G01*
X121069Y1698D02*
G03*
X121119Y1698I0J6010D01*
G01*
X217606Y-5661D02*
G03*
X217178Y-4628I-1462J0D01*
G01*
X178630Y-79124D02*
G03*
X178615Y-79139I3815J-3844D01*
G01*
X182445Y-77553D02*
G03*
X178630Y-79124I0J-5416D01*
G01*
X190924Y-159334D02*
G03*
X190913Y-159323I-7071J-7071D01*
G01*
X118579Y-11025D02*
G03*
X116396Y-16299I5282J-5275D01*
G01*
X118582Y-11021D02*
G03*
X118579Y-11025I5278J-5278D01*
G01*
X123650Y-37602D02*
G03*
X124043Y-37764I393J393D01*
G01*
X129329Y-37664D02*
G03*
X129088Y-37764I0J-341D01*
G01*
X159940Y-50750D02*
G03*
X159988Y-50864I161J0D01*
G01*
X139689Y-53466D02*
G03*
X139688Y-53465I-243J-240D01*
G01*
X139788Y-53706D02*
G03*
X139689Y-53466I-341J0D01*
G01*
X128737Y9671D02*
Y12044D01*
X81728Y-187705D02*
X84500Y-188100D01*
X148200Y-194076D02*
X178990Y-186309D01*
X88034Y-41756D02*
X93583D01*
X98528Y-57805D02*
Y-47691D01*
X182396Y-69679D02*
X226328D01*
X174828Y-73105D02*
X175325Y-72608D01*
X73034Y-65701D02*
X73058Y-65677D01*
X53034Y-110653D02*
X53086Y-110602D01*
Y-106300D01*
X40928Y-105005D02*
X51791D01*
X53086Y-106300D01*
X90628Y-151205D02*
X95607D01*
X97799Y-149153D02*
Y-143139D01*
X90628Y-151205D02*
X91299Y-150533D01*
X174428Y-77505D02*
X175388Y-76545D01*
X48298Y-121755D02*
X53313D01*
X54484Y-120583D02*
Y-117419D01*
X53313Y-121755D02*
X54484Y-120583D01*
X48229Y-121685D02*
X48298Y-121755D01*
X44166Y-169814D02*
X44176Y-169822D01*
X44159Y-169808D02*
X44166Y-169814D01*
X41236Y-167640D02*
X41236D01*
X39843Y-168055D02*
X41236Y-167640D01*
X44166Y-169814D02*
X72664Y-183103D01*
X43430Y-169471D02*
X44166Y-169814D01*
X42105Y-169953D02*
X43430Y-169471D01*
X138383Y-63705D02*
X153635D01*
X160400Y-82300D02*
Y-70470D01*
X129961Y-97740D02*
X130103Y-97598D01*
X118840Y-48305D02*
X131312Y-60776D01*
X116396Y-42403D02*
Y-16299D01*
X99586Y-93799D02*
X99700Y-93913D01*
X102737Y-67734D02*
X105526Y-64944D01*
X99808Y-93652D02*
Y-74805D01*
X113446Y-45825D02*
Y-7476D01*
X125318Y3458D02*
X126762Y4901D01*
X116375Y-405D02*
X116644Y-135D01*
X92955Y-93685D02*
X93070Y-93799D01*
X99586D01*
X50473Y-130244D02*
X60223D01*
X217606Y-5661D02*
X218068Y-6123D01*
X214237Y-1687D02*
X217178Y-4628D01*
X182445Y-77553D02*
X226328D01*
X182459Y-73616D02*
X226328D01*
X190924Y-159334D02*
X191092Y-159502D01*
X194105Y-156489D01*
X178990Y-186309D02*
X182716Y-183182D01*
X184364Y-182108D01*
X72664Y-183103D02*
X81728Y-187705D01*
X41236Y-167640D02*
X44159Y-169808D01*
X39843Y-168055D02*
X41458Y-169168D01*
X137728Y-98105D02*
X140972D01*
X141003Y-98074D01*
X33034Y-110653D02*
X33071Y-110616D01*
X33031Y-41753D02*
Y-35108D01*
X169188Y-31264D02*
Y-25365D01*
Y-43064D02*
Y-37198D01*
Y-36865D01*
X139788Y-57964D02*
Y-53506D01*
D127*
X192320Y-6547D02*
G03*
X195249Y524I-7071J7071D01*
G01*
X178754Y-15971D02*
G03*
X185825Y-13042I0J10000D01*
G01*
X120725Y-45098D02*
G03*
X125957Y-47265I5232J5232D01*
G01*
X119427Y-41964D02*
G03*
X120725Y-45098I4431J0D01*
G01*
X139488Y-31664D02*
G03*
X139005Y-31464I-483J-483D01*
G01*
X122988Y-31523D02*
G03*
X123088Y-31765I341J0D01*
G01*
X123329Y-37664D02*
G03*
X123088Y-37764I0J-341D01*
G01*
X64300Y-99300D02*
Y-63300D01*
X73034Y-54566D02*
Y-41756D01*
X64300Y-63300D02*
X73034Y-54566D01*
X83034Y-68601D02*
Y-68500D01*
Y-110653D02*
Y-68601D01*
X60100Y-61800D02*
X63300Y-58600D01*
X42900Y-61800D02*
X60100D01*
X46100Y-99300D02*
X58104D01*
X41128Y-94328D02*
Y-74779D01*
Y-94328D02*
X46100Y-99300D01*
X68034Y-65266D02*
X71500Y-61800D01*
X68034Y-110653D02*
Y-65266D01*
X43034Y-54934D02*
X46700Y-58600D01*
X53500D01*
X38034Y-56934D02*
X42900Y-61800D01*
X38034Y-56934D02*
Y-41756D01*
X43034Y-54934D02*
Y-41756D01*
X48034Y-52934D02*
Y-41756D01*
Y-52934D02*
X49800Y-54700D01*
X53500D01*
X78034Y-110653D02*
Y-68601D01*
X83031Y-110657D02*
X83034Y-110653D01*
X83031Y-118017D02*
Y-110657D01*
X83028Y-118021D02*
X83031Y-118017D01*
X69076Y-122049D02*
X100874D01*
X63034Y-116006D02*
X69076Y-122049D01*
X73034Y-110653D02*
Y-65701D01*
X161383Y-15971D02*
X178754D01*
X185825Y-13042D02*
X192320Y-6547D01*
X195249Y524D02*
Y1852D01*
X125957Y-47265D02*
X139688D01*
X119427Y-41964D02*
Y-16549D01*
X133371Y-97598D02*
X140331Y-90637D01*
X146731D01*
X150200Y-87169D01*
X130103Y-97598D02*
X133371D01*
X150200Y-87169D02*
Y-81100D01*
X130391Y-86945D02*
X130946D01*
X129960Y-87376D02*
X130391Y-86945D01*
X82828Y-155355D02*
X82850Y-155377D01*
X85777D01*
X85800Y-155400D01*
X58034Y-110653D02*
Y-109472D01*
X63034Y-116006D02*
Y-110653D01*
X58184Y-117419D02*
Y-110803D01*
X33028Y-47005D02*
Y-41762D01*
X151353Y-36626D02*
X151377Y-36651D01*
X151328Y-24105D02*
X151353Y-24129D01*
Y-36626D02*
Y-24129D01*
X141003Y-98074D02*
X141003Y-98074D01*
X136828Y-42705D02*
X140147D01*
X140566Y-53628D02*
X144713D01*
X134288Y-31464D02*
X139005D01*
D128*
X193449Y-35414D02*
G03*
X197191Y-36964I3742J3742D01*
G01*
X192268Y-32563D02*
G03*
X193449Y-35414I4033J0D01*
G01*
X174628Y-97097D02*
G03*
X176700Y-102100I7075J0D01*
G01*
X185525Y-57605D02*
G03*
X191671Y-60150I6146J6146D01*
G01*
X183128Y-51819D02*
G03*
X185525Y-57605I8181J0D01*
G01*
X181528Y-45005D02*
G03*
X176844Y-43064I-4684J-4684D01*
G01*
X183128Y-48869D02*
G03*
X181528Y-45005I-5465J0D01*
G01*
X77981Y-41703D02*
X78081Y-41603D01*
X47916Y-81126D02*
X53428D01*
X47916Y-81126D02*
Y-75614D01*
Y-86638D02*
Y-81126D01*
X53428Y-81126D02*
Y-75614D01*
Y-86638D02*
Y-81126D01*
X58940Y-83882D02*
Y-75614D01*
X99800Y-103505D02*
Y-100013D01*
Y-116279D02*
Y-103505D01*
X97950Y-118129D02*
X99800Y-116279D01*
X47916Y-75614D02*
X53428D01*
X47916D02*
X47916Y-75614D01*
X53428Y-75614D02*
X56184D01*
X53428Y-81126D02*
X56184D01*
X56184Y-86638D02*
X58940D01*
X53428Y-75614D02*
X53428Y-75614D01*
X53428Y-86638D02*
X53428Y-86638D01*
X58940D02*
Y-83882D01*
Y-86638D02*
X58940Y-86638D01*
X58940Y-75614D02*
X58940Y-75614D01*
X50672Y-86638D02*
X53428D01*
X47916D02*
X50672D01*
X47916Y-86638D02*
X47916Y-86638D01*
X47916Y-81126D02*
X47916Y-81126D01*
X53428Y-75614D02*
Y-75614D01*
X56184Y-75614D02*
X58940D01*
X58940Y-75614D01*
X87800Y-98685D02*
X92955D01*
X89028Y-118129D02*
X97950D01*
X136842Y-81055D02*
X137696D01*
X134692Y-83205D02*
X136842Y-81055D01*
X137696D02*
X137946Y-80805D01*
X145416Y-113000D02*
Y-111075D01*
X123164Y-131605D02*
X128128D01*
X149300Y-145705D02*
X153628D01*
X175188Y-25365D02*
X203282D01*
X205068Y-23579D01*
X175188Y-31464D02*
X186362D01*
X183884Y-37165D02*
X186772Y-40052D01*
Y-46805D02*
Y-40052D01*
X197191Y-36964D02*
X205068D01*
X192268Y-32563D02*
Y-31464D01*
X205068Y-36964D02*
X217568D01*
X174628Y-97097D02*
Y-82288D01*
X133788Y-25214D02*
X134038Y-25464D01*
X142488D01*
X67278Y-169472D02*
X77760D01*
X218468Y-61805D02*
X226328D01*
X33028Y-41762D02*
X33034Y-41756D01*
X33031Y-41753D02*
X33034Y-41756D01*
X142488Y-25464D02*
X145488Y-28464D01*
Y-31664D02*
Y-28464D01*
X129028Y-31705D02*
X129088Y-31765D01*
X205028Y-46805D02*
X205068Y-46764D01*
X192284Y-46805D02*
X205028D01*
X191671Y-60150D02*
X205068D01*
X183128Y-51819D02*
Y-48869D01*
X175188Y-37165D02*
X183884D01*
X33028Y-35105D02*
X33031Y-35108D01*
X77981Y-41703D02*
X78034Y-41756D01*
X175188Y-43064D02*
X176844D01*
D129*
X124311Y-90402D02*
G03*
X125298Y-89115I-3163J3448D01*
G01*
D02*
G03*
X125827Y-86954I-4150J2161D01*
G01*
X121148Y-91633D02*
G03*
X124311Y-90402I0J4679D01*
G01*
X97628Y-166405D02*
G03*
X104828Y-159205I0J7200D01*
G01*
X82850Y-161627D02*
G03*
X87628Y-166405I4777J0D01*
G01*
X82850Y-160918D02*
G03*
X79106Y-157173I-3745J0D01*
G01*
X110108Y-91633D02*
G03*
X104828Y-96913I0J-5280D01*
G01*
X127317Y-79465D02*
G03*
X125827Y-80955I0J-1490D01*
G01*
X156849Y-58165D02*
G03*
X159988Y-56865I0J4439D01*
G01*
X147863Y-57524D02*
G03*
X148128Y-58165I906J0D01*
G01*
X155972Y-38588D02*
G03*
X155528Y-38405I-444J-446D01*
G01*
X155973Y-38589D02*
G03*
X155972Y-38588I-445J-445D01*
G01*
X159940Y-45214D02*
G03*
X160642Y-45505I702J702D01*
G01*
X128781Y-68900D02*
X130946Y-71065D01*
Y-79465D02*
Y-71065D01*
X125300Y-68900D02*
X128781D01*
X127317Y-79465D02*
X130946D01*
X84600Y-18896D02*
Y-11700D01*
Y-18896D02*
X101900Y-36196D01*
Y-63685D02*
Y-36196D01*
X104828Y-159205D02*
Y-96913D01*
X87628Y-166405D02*
X97628D01*
X82850Y-161627D02*
Y-160918D01*
X78128Y-157173D02*
X79106D01*
X110108Y-91633D02*
X121148D01*
X125827Y-86954D02*
Y-80955D01*
X153628Y-58165D02*
X156849D01*
X155973Y-38589D02*
X156988Y-39604D01*
X155972Y-38588D02*
X155973Y-38589D01*
X147863Y-57524D02*
Y-53628D01*
X145788Y-58165D02*
X148128D01*
X140147Y-42705D02*
X140288Y-42564D01*
X132235Y-126005D02*
X135335Y-129105D01*
X138677D01*
X129728Y-126005D02*
X132235D01*
X160642Y-45505D02*
X162328D01*
X146288Y-42564D02*
X146296Y-42557D01*
X146288Y-49301D02*
Y-42564D01*
D130*
X195062Y-100070D02*
G03*
X197128Y-95083I-4987J4987D01*
G01*
X179599Y-130334D02*
G03*
X182528Y-123263I-7071J7071D01*
G01*
X185457Y-109676D02*
G03*
X182528Y-116747I7071J-7071D01*
G01*
X171686Y-134105D02*
G03*
X178757Y-131176I0J10000D01*
G01*
X185457Y-109676D02*
X195062Y-100070D01*
X197128Y-95083D02*
Y-92005D01*
X182528Y-123263D02*
Y-116747D01*
X178757Y-131176D02*
X179599Y-130334D01*
X161579Y-134105D02*
X171686D01*
D131*
X181034Y-20205D02*
G03*
X186828Y-17805I0J8194D01*
G01*
X197970Y-10805D02*
G03*
X190899Y-13734I0J-10000D01*
G01*
X207369Y-13660D02*
G03*
X200475Y-10805I-6893J-6893D01*
G01*
X131228Y-6105D02*
G03*
X126529Y-8051I0J-6645D01*
G01*
X124675Y-9905D02*
G03*
X123550Y-14339I8180J-4434D01*
G01*
X176012Y-172155D02*
G03*
X175542Y-171019I-1607J0D01*
G01*
X164928Y-20205D02*
X181034D01*
X57335Y-159665D02*
Y-159605D01*
X58841Y-161172D02*
X60328D01*
X57335D02*
X58761D01*
X55828Y-159605D02*
X57335D01*
X28967D02*
X55828D01*
X57335Y-159665D02*
X58841Y-161172D01*
X55828Y-159665D02*
Y-159605D01*
Y-159665D02*
X57335Y-161172D01*
X170428Y-116505D02*
Y-60176D01*
X60345Y-169782D02*
X64841Y-174279D01*
X111454D01*
X127828Y-157905D01*
X186828Y-17805D02*
X190899Y-13734D01*
X197970Y-10805D02*
X200475D01*
X123550Y-20942D02*
Y-14339D01*
X124675Y-9905D02*
X126529Y-8051D01*
X58950Y-161284D02*
Y-161060D01*
Y-161284D02*
X60345Y-162679D01*
Y-169782D02*
Y-162679D01*
X24764Y-155402D02*
X28967Y-159605D01*
X172828Y-168305D02*
X175542Y-171019D01*
D132*
X37933Y-174205D02*
G03*
X37928Y-174205I-5J-9049D01*
G01*
X44327Y-176855D02*
G03*
X37933Y-174205I-6399J-6399D01*
G01*
X44327Y-176855D02*
X45514Y-178043D01*
X33650Y-149616D02*
X37928Y-153894D01*
X33650Y-149616D02*
Y-140616D01*
X39650Y-134616D01*
Y-127155D01*
X48816Y-177134D02*
X48927Y-177245D01*
X72120Y-188060D01*
X43936Y-187949D02*
X67128Y-198764D01*
D133*
X147003Y-98474D02*
X150994D01*
X153500Y-95968D01*
Y-91900D01*
D134*
X108850Y-185768D02*
D03*
D135*
X108850Y-205070D02*
D03*
D136*
X91895Y-195350D02*
D03*
D137*
X129050Y-194784D02*
D03*
D138*
X216423Y-107152D02*
D03*
D139*
X22978Y-86754D02*
D03*
D140*
X78100Y-39400D02*
D03*
D141*
X170440Y-58290D02*
D03*
D142*
X128011Y-93222D02*
D03*
D143*
X130228Y-89882D02*
D03*
D144*
X125519Y-98972D02*
D03*
D145*
X95663Y-17859D02*
D03*
D146*
X47048Y-130443D02*
D03*
D147*
X51103Y-126248D02*
D03*
D148*
X60214Y-122524D02*
D03*
D149*
X58604Y-120274D02*
D03*
D150*
X134460Y-37827D02*
D03*
D151*
X183576Y-137701D02*
D03*
D152*
X126269Y-21405D02*
D03*
D153*
X129105Y-26598D02*
D03*
D154*
X223073Y-61617D02*
D03*
D155*
X226328Y-83557D02*
D03*
D156*
X137300Y-170484D02*
D03*
D157*
X178828Y-91668D02*
D03*
D158*
X209443Y-105345D02*
D03*
D159*
X76506Y-35705D02*
D03*
D160*
X79481Y-29602D02*
D03*
D161*
X34367Y-28752D02*
D03*
D162*
X133133Y-133680D02*
D03*
D163*
X194644Y-137368D02*
D03*
D164*
X204653Y-148578D02*
D03*
D165*
X105112Y-9794D02*
D03*
D166*
X221214Y-107688D02*
D03*
D167*
X99853Y-3880D02*
D03*
D168*
X101078Y-2180D02*
D03*
D169*
X97286Y-7924D02*
D03*
D170*
X90064Y-4955D02*
D03*
D171*
X95828Y-2180D02*
D03*
D172*
X87389Y-5705D02*
D03*
D173*
X93205Y-11705D02*
D03*
D174*
X41032Y-168263D02*
D03*
D175*
X92428Y-160805D02*
D03*
D176*
X90486Y-139094D02*
D03*
D177*
X72783Y-138295D02*
D03*
D178*
X75547Y-140783D02*
D03*
D179*
X28089Y-130055D02*
D03*
D180*
X35985Y-181896D02*
D03*
D181*
X78826Y-152242D02*
D03*
D182*
X85435Y-151655D02*
D03*
D183*
X55503Y-149985D02*
D03*
D184*
X108778Y-76843D02*
D03*
D185*
X113198Y-81135D02*
D03*
D186*
X80660Y-155205D02*
D03*
D187*
X110086Y-130795D02*
D03*
D188*
X63235Y-154024D02*
D03*
D189*
X43060Y-185993D02*
D03*
D190*
X46813Y-177945D02*
D03*
D191*
X62135Y-158635D02*
D03*
D192*
X60328Y-161172D02*
D03*
D193*
X72854Y-156189D02*
D03*
D194*
X154053Y-105960D02*
D03*
D195*
X140932Y-99927D02*
D03*
D196*
X119301Y-73805D02*
D03*
D197*
X120702Y-76350D02*
D03*
D198*
X134238Y-86805D02*
D03*
D199*
X30706Y-121755D02*
D03*
D200*
X28145Y-109705D02*
D03*
D201*
X36206Y-116452D02*
D03*
D202*
X33034Y-112478D02*
D03*
D203*
X39650Y-121833D02*
D03*
D204*
X75978Y-163429D02*
D03*
D205*
X77702Y-161914D02*
D03*
D206*
X113851Y-86786D02*
D03*
D207*
X119657Y-108743D02*
D03*
D208*
X132817Y-106876D02*
D03*
D209*
X127485Y-103740D02*
D03*
D210*
X143194Y-106876D02*
D03*
D211*
X129084Y-142804D02*
D03*
D212*
X106638Y-179442D02*
D03*
D213*
X161822Y-146614D02*
D03*
D214*
X136118Y-152605D02*
D03*
D215*
X157034Y-112855D02*
D03*
D216*
X161579Y-114705D02*
D03*
D217*
X180299Y-144912D02*
D03*
D218*
X148128Y-54305D02*
D03*
D219*
X188272Y-91927D02*
D03*
D220*
Y-86582D02*
D03*
D221*
X148245Y-57676D02*
D03*
D222*
X156978Y-57705D02*
D03*
D223*
X164115Y-50055D02*
D03*
D224*
X160628Y-48155D02*
D03*
D225*
X45015Y20154D02*
D03*
X31675Y9731D02*
D03*
X75282Y34968D02*
D03*
X91777Y38776D02*
D03*
X142220Y35397D02*
D03*
X125661Y38916D02*
D03*
X185958Y10797D02*
D03*
X172455Y21009D02*
D03*
D226*
X43183Y29214D02*
D03*
X23327Y13701D02*
D03*
X93946Y47762D02*
D03*
X69395Y42094D02*
D03*
X123336Y47863D02*
D03*
X147983Y42624D02*
D03*
X174145Y30097D02*
D03*
X194242Y14898D02*
D03*
D227*
X91822Y-187936D02*
D03*
X125877Y-187936D02*
D03*
D228*
X91822Y-204393D02*
D03*
X125877Y-204393D02*
D03*
D229*
X150700Y-165900D02*
D03*
X212700Y-89200D02*
D03*
X63028Y-13419D02*
D03*
D230*
X213708Y-139277D02*
D03*
D231*
X208348Y-147532D02*
D03*
D232*
X224228Y-22305D02*
D03*
D233*
X228135Y-31510D02*
D03*
M02*
