G04*
G04 #@! TF.GenerationSoftware,Altium Limited,Altium Designer,23.6.0 (18)*
G04*
G04 Layer_Color=128*
%FSLAX25Y25*%
%MOIN*%
G70*
G04*
G04 #@! TF.SameCoordinates,41434E86-4965-44CF-8D99-FF0C004B18D3*
G04*
G04*
G04 #@! TF.FilePolarity,Positive*
G04*
G01*
G75*
%ADD288C,0.00200*%
D288*
X43244Y20154D02*
X46787D01*
X45015Y18382D02*
Y21925D01*
X29903Y9731D02*
X33446D01*
X31675Y7959D02*
Y11503D01*
X41214Y29214D02*
X45151D01*
X43183Y27245D02*
Y31182D01*
X21359Y13701D02*
X25296D01*
X23327Y11733D02*
Y15670D01*
X73511Y34968D02*
X77054D01*
X75282Y33196D02*
Y36740D01*
X91977Y47762D02*
X95914D01*
X93946Y45793D02*
Y49730D01*
X67426Y42094D02*
X71363D01*
X69395Y40125D02*
Y44062D01*
X90006Y38776D02*
X93549D01*
X91777Y37005D02*
Y40548D01*
X140448Y35397D02*
X143992D01*
X142220Y33625D02*
Y37168D01*
X121368Y47863D02*
X125305D01*
X123336Y45894D02*
Y49831D01*
X146014Y42624D02*
X149951D01*
X147983Y40656D02*
Y44593D01*
X123889Y38916D02*
X127433D01*
X125661Y37145D02*
Y40688D01*
X184186Y10797D02*
X187729D01*
X185958Y9025D02*
Y12569D01*
X172177Y30097D02*
X176114D01*
X174145Y28128D02*
Y32065D01*
X192273Y14898D02*
X196210D01*
X194242Y12929D02*
Y16866D01*
X170684Y21009D02*
X174227D01*
X172455Y19237D02*
Y22780D01*
X47326Y-78370D02*
X48507D01*
X47916Y-78961D02*
Y-77780D01*
X50081Y-75614D02*
X51262D01*
X50672Y-76205D02*
Y-75024D01*
X55593Y-75614D02*
X56774D01*
X56184Y-76205D02*
Y-75024D01*
X50081Y-81126D02*
X51262D01*
X50672Y-81717D02*
Y-80535D01*
X52837Y-78370D02*
X54018D01*
X53428Y-78961D02*
Y-77780D01*
X55593Y-81126D02*
X56774D01*
X56184Y-81717D02*
Y-80535D01*
X58349Y-78370D02*
X59530D01*
X58940Y-78961D02*
Y-77780D01*
X58349Y-83882D02*
X59530D01*
X58940Y-84472D02*
Y-83291D01*
X55593Y-86638D02*
X56774D01*
X56184Y-87228D02*
Y-86047D01*
X50081Y-86638D02*
X51262D01*
X50672Y-87228D02*
Y-86047D01*
X47326Y-83882D02*
X48507D01*
X47916Y-84472D02*
Y-83291D01*
X52837Y-83882D02*
X54018D01*
X53428Y-84472D02*
Y-83291D01*
X90641Y-187936D02*
X93003D01*
X91822Y-189117D02*
Y-186755D01*
X90641Y-204393D02*
X93003D01*
X91822Y-205574D02*
Y-203212D01*
X124696Y-204393D02*
X127058D01*
X125877Y-205574D02*
Y-203212D01*
X124696Y-187936D02*
X127058D01*
X125877Y-189117D02*
Y-186755D01*
X146566Y-165900D02*
X154834D01*
X150700Y-170034D02*
Y-161766D01*
X208566Y-89200D02*
X216834D01*
X212700Y-93334D02*
Y-85066D01*
X211740Y-139277D02*
X215677D01*
X213708Y-141246D02*
Y-137309D01*
X206379Y-147532D02*
X210316D01*
X208348Y-149501D02*
Y-145563D01*
X58894Y-13419D02*
X67162D01*
X63028Y-17553D02*
Y-9285D01*
X96251Y-189905D02*
X98692D01*
X97472Y-191125D02*
Y-188684D01*
X119007Y-189905D02*
X121448D01*
X120228Y-191125D02*
Y-188684D01*
X222456Y-22305D02*
X225999D01*
X224228Y-24076D02*
Y-20533D01*
X226363Y-31510D02*
X229907D01*
X228135Y-33281D02*
Y-29738D01*
X81037Y-29605D02*
X82218D01*
X81628Y-30195D02*
Y-29014D01*
X40537Y-74779D02*
X41718D01*
X41128Y-75370D02*
Y-74188D01*
X86161Y-182448D02*
X87342D01*
X86752Y-183039D02*
Y-181858D01*
X121458Y-179305D02*
X122639D01*
X122048Y-179895D02*
Y-178714D01*
X92837Y-169205D02*
X94018D01*
X93428Y-169796D02*
Y-168615D01*
X119275Y-173132D02*
X120456D01*
X119866Y-173723D02*
Y-172541D01*
X147609Y-194076D02*
X148791D01*
X148200Y-194666D02*
Y-193485D01*
X83909Y-188100D02*
X85091D01*
X84500Y-188691D02*
Y-187509D01*
X128437Y-29077D02*
X129618D01*
X129028Y-29668D02*
Y-28487D01*
X62709Y-58600D02*
X63890D01*
X63300Y-59190D02*
Y-58009D01*
X63709Y-99300D02*
X64890D01*
X64300Y-99891D02*
Y-98709D01*
X70910Y-61800D02*
X72091D01*
X71500Y-62391D02*
Y-61209D01*
X52909Y-58600D02*
X54090D01*
X53500Y-59190D02*
Y-58009D01*
X52909Y-54700D02*
X54090D01*
X53500Y-55291D02*
Y-54110D01*
X87215Y-98685D02*
X88396D01*
X87806Y-99275D02*
Y-98094D01*
X77444Y-68601D02*
X78625D01*
X78034Y-69192D02*
Y-68011D01*
X82444Y-68601D02*
X83625D01*
X83034Y-69192D02*
Y-68011D01*
X100284Y-122049D02*
X101465D01*
X100874Y-122639D02*
Y-121458D01*
X72467Y-65677D02*
X73649D01*
X73058Y-66268D02*
Y-65087D01*
X106227Y-72231D02*
X107408D01*
X106817Y-72821D02*
Y-71640D01*
X156009Y-17200D02*
X157191D01*
X156600Y-17790D02*
Y-16610D01*
X124709Y-68900D02*
X125891D01*
X125300Y-69490D02*
Y-68309D01*
X134102Y-83205D02*
X135283D01*
X134692Y-83795D02*
Y-82614D01*
X144825Y-113000D02*
X146006D01*
X145416Y-113591D02*
Y-112409D01*
X122573Y-131605D02*
X123755D01*
X123164Y-132195D02*
Y-131014D01*
X148709Y-145705D02*
X149891D01*
X149300Y-146295D02*
Y-145114D01*
X57514Y-99300D02*
X58695D01*
X58104Y-99891D02*
Y-98709D01*
X37337Y-153894D02*
X38518D01*
X37928Y-154484D02*
Y-153303D01*
X174037Y-82288D02*
X175218D01*
X174628Y-82879D02*
Y-81697D01*
X173837Y-77505D02*
X175018D01*
X174428Y-78095D02*
Y-76914D01*
X174237Y-73105D02*
X175418D01*
X174828Y-73695D02*
Y-72514D01*
X169837Y-116505D02*
X171018D01*
X170428Y-117095D02*
Y-115914D01*
X97209Y-143139D02*
X98390D01*
X97799Y-143730D02*
Y-142549D01*
X158626Y-113705D02*
X159807D01*
X159216Y-114295D02*
Y-113114D01*
X158626Y-118205D02*
X159807D01*
X159216Y-118795D02*
Y-117614D01*
X192837Y-122616D02*
X194018D01*
X193428Y-123207D02*
Y-122026D01*
X190039Y-120763D02*
X191220D01*
X190629Y-121353D02*
Y-120172D01*
X159809Y-82300D02*
X160991D01*
X160400Y-82890D02*
Y-81709D01*
X152909Y-91900D02*
X154091D01*
X153500Y-92491D02*
Y-91309D01*
X149614Y-81095D02*
X150795D01*
X150205Y-81686D02*
Y-80505D01*
X118209Y-54500D02*
X119391D01*
X118800Y-55090D02*
Y-53909D01*
X85210Y-155400D02*
X86391D01*
X85800Y-155991D02*
Y-154809D01*
X106227Y-80881D02*
X107408D01*
X106817Y-81472D02*
Y-80291D01*
X101310Y-63685D02*
X102491D01*
X101900Y-64275D02*
Y-63094D01*
X105509Y-54500D02*
X106691D01*
X106100Y-55090D02*
Y-53909D01*
X109637Y-127755D02*
X110818D01*
X110228Y-128345D02*
Y-127164D01*
X54794Y-126504D02*
X55975D01*
X55384Y-127095D02*
Y-125914D01*
X49883Y-130244D02*
X51064D01*
X50473Y-130834D02*
Y-129653D01*
X40559Y-140362D02*
X41740D01*
X41150Y-140952D02*
Y-139771D01*
X43440Y-148729D02*
X44622D01*
X44031Y-149320D02*
Y-148139D01*
X43440Y-145229D02*
X44622D01*
X44031Y-145820D02*
Y-144639D01*
X47708Y-121755D02*
X48889D01*
X48298Y-122345D02*
Y-121164D01*
X31535Y-159605D02*
X32716D01*
X32126Y-160195D02*
Y-159014D01*
X213647Y-1687D02*
X214828D01*
X214237Y-2277D02*
Y-1096D01*
X193614Y-156384D02*
X194795D01*
X194204Y-156975D02*
Y-155794D01*
X137009Y-168404D02*
X138191D01*
X137600Y-168995D02*
Y-167814D01*
X137009Y-176480D02*
X138191D01*
X137600Y-177071D02*
Y-175890D01*
X225737Y-84305D02*
X226918D01*
X226328Y-84895D02*
Y-83714D01*
X207296Y-104879D02*
X208477D01*
X207886Y-105469D02*
Y-104288D01*
X220695Y-41764D02*
X221876D01*
X221286Y-42355D02*
Y-41173D01*
X208928Y-101075D02*
X210110D01*
X209519Y-101665D02*
Y-100484D01*
X118337Y-141905D02*
X119518D01*
X118928Y-142495D02*
Y-141314D01*
X137009Y-173076D02*
X138191D01*
X137600Y-173667D02*
Y-172486D01*
X137009Y-164800D02*
X138191D01*
X137600Y-165391D02*
Y-164209D01*
X127237Y-157905D02*
X128418D01*
X127828Y-158495D02*
Y-157314D01*
X94937Y-160918D02*
X96118D01*
X95528Y-161508D02*
Y-160327D01*
X217577Y-61805D02*
X218759D01*
X218168Y-62395D02*
Y-61214D01*
X176109Y-102100D02*
X177291D01*
X176700Y-102691D02*
Y-101509D01*
X189209Y-97200D02*
X190391D01*
X189800Y-97790D02*
Y-96609D01*
X113150Y7295D02*
X114331D01*
X113740Y6704D02*
Y7885D01*
X36044Y-29605D02*
X37225D01*
X36634Y-30195D02*
Y-29014D01*
X219637Y-142505D02*
X220818D01*
X220228Y-143095D02*
Y-141914D01*
X214275Y-150834D02*
X215456D01*
X214866Y-151424D02*
Y-150243D01*
X118837Y-16549D02*
X120018D01*
X119427Y-17140D02*
Y-15959D01*
X28356Y-168445D02*
X29537D01*
X28946Y-169036D02*
Y-167854D01*
X25170Y-171461D02*
X26351D01*
X25760Y-172052D02*
Y-170870D01*
X209590Y-129488D02*
X210771D01*
X210180Y-130079D02*
Y-128898D01*
X220490Y-135488D02*
X221671D01*
X221080Y-136079D02*
Y-134898D01*
X214490Y-131988D02*
X215671D01*
X215080Y-132579D02*
Y-131398D01*
X206665Y-135115D02*
X207846D01*
X207256Y-135705D02*
Y-134524D01*
X197977Y-146899D02*
X199158D01*
X198568Y-147490D02*
Y-146309D01*
X208977Y-154199D02*
X210158D01*
X209568Y-154790D02*
Y-153609D01*
X203077Y-150499D02*
X204258D01*
X203668Y-151090D02*
Y-149909D01*
X201677Y-141599D02*
X202858D01*
X202268Y-142190D02*
Y-141009D01*
X117992Y-11021D02*
X119173D01*
X118582Y-11611D02*
Y-10430D01*
X32437Y-47005D02*
X33618D01*
X33028Y-47595D02*
Y-46414D01*
X178025Y-79139D02*
X179206D01*
X178615Y-79729D02*
Y-78548D01*
X178425Y-97263D02*
X179606D01*
X179015Y-97854D02*
Y-96673D01*
X199918Y-86427D02*
X201099D01*
X200508Y-87018D02*
Y-85837D01*
X97937Y-57805D02*
X99118D01*
X98528Y-58395D02*
Y-57214D01*
X172237Y-168305D02*
X173418D01*
X172828Y-168895D02*
Y-167714D01*
X153037Y-57105D02*
X154218D01*
X153628Y-57695D02*
Y-56514D01*
X160792Y-15971D02*
X161973D01*
X161383Y-16562D02*
Y-15381D01*
X144897Y-28464D02*
X146078D01*
X145488Y-29055D02*
Y-27874D01*
X150737Y-24105D02*
X151918D01*
X151328Y-24695D02*
Y-23514D01*
X144446Y-19026D02*
X145627D01*
X145037Y-19616D02*
Y-18435D01*
X147666Y-21557D02*
X148847D01*
X148256Y-22148D02*
Y-20967D01*
X164337Y-20205D02*
X165518D01*
X164928Y-20795D02*
Y-19614D01*
X152237Y-6505D02*
X153418D01*
X152828Y-7095D02*
Y-5914D01*
X64225Y-152229D02*
X65406D01*
X64816Y-152820D02*
Y-151639D01*
X66825Y-152229D02*
X68006D01*
X67416Y-152820D02*
Y-151639D01*
X61625Y-148729D02*
X62806D01*
X62216Y-149320D02*
Y-148139D01*
X59025Y-148729D02*
X60206D01*
X59616Y-149320D02*
Y-148139D01*
X59025Y-145229D02*
X60206D01*
X59616Y-145820D02*
Y-144639D01*
X61625Y-145229D02*
X62806D01*
X62216Y-145820D02*
Y-144639D01*
X119137Y-177905D02*
X120318D01*
X119728Y-178495D02*
Y-177314D01*
X96637Y-178405D02*
X97818D01*
X97228Y-178995D02*
Y-177814D01*
X37337Y-174205D02*
X38518D01*
X37928Y-174795D02*
Y-173614D01*
X126137Y-103740D02*
X127318D01*
X126728Y-104330D02*
Y-103149D01*
X66687Y-169472D02*
X67868D01*
X67278Y-170063D02*
Y-168882D01*
X53825Y-145229D02*
X55006D01*
X54416Y-145820D02*
Y-144639D01*
X56425Y-145229D02*
X57606D01*
X57016Y-145820D02*
Y-144639D01*
X51225Y-145229D02*
X52406D01*
X51816Y-145820D02*
Y-144639D01*
X48625Y-148729D02*
X49806D01*
X49216Y-149320D02*
Y-148139D01*
X46025Y-145229D02*
X47206D01*
X46616Y-145820D02*
Y-144639D01*
X46025Y-148729D02*
X47206D01*
X46616Y-149320D02*
Y-148139D01*
X51225Y-148729D02*
X52406D01*
X51816Y-149320D02*
Y-148139D01*
X56425Y-148729D02*
X57606D01*
X57016Y-149320D02*
Y-148139D01*
X48625Y-145229D02*
X49806D01*
X49216Y-145820D02*
Y-144639D01*
X53825Y-148729D02*
X55006D01*
X54416Y-149320D02*
Y-148139D01*
X22437Y-81005D02*
X23618D01*
X23028Y-81595D02*
Y-80414D01*
X22437Y-69905D02*
X23618D01*
X23028Y-70495D02*
Y-69314D01*
X105937Y-86605D02*
X107118D01*
X106528Y-87195D02*
Y-86014D01*
X137137Y-98105D02*
X138318D01*
X137728Y-98695D02*
Y-97514D01*
X27444Y-132605D02*
X28625D01*
X28034Y-133195D02*
Y-132014D01*
X32444Y-132605D02*
X33625D01*
X33034Y-133195D02*
Y-132014D01*
X22444Y-132605D02*
X23625D01*
X23034Y-133195D02*
Y-132014D01*
X90537Y-163305D02*
X91718D01*
X91128Y-163895D02*
Y-162714D01*
X27437Y-98105D02*
X28618D01*
X28028Y-98695D02*
Y-97514D01*
X40337Y-105005D02*
X41518D01*
X40928Y-105595D02*
Y-104414D01*
X99209Y-103505D02*
X100390D01*
X99800Y-104095D02*
Y-102914D01*
X122573Y-141905D02*
X123755D01*
X123164Y-142495D02*
Y-141314D01*
X118337Y-146005D02*
X119518D01*
X118928Y-146595D02*
Y-145414D01*
X122573Y-146005D02*
X123755D01*
X123164Y-146595D02*
Y-145414D01*
X152637Y-126705D02*
X153818D01*
X153228Y-127295D02*
Y-126114D01*
X154137Y-113705D02*
X155318D01*
X154728Y-114295D02*
Y-113114D01*
X169837Y-60176D02*
X171018D01*
X170428Y-60767D02*
Y-59585D01*
X154137Y-118205D02*
X155318D01*
X154728Y-118795D02*
Y-117614D01*
X146437Y-126705D02*
X147618D01*
X147028Y-127295D02*
Y-126114D01*
X146464Y-136539D02*
X147645D01*
X147055Y-137129D02*
Y-135948D01*
X152609Y-136539D02*
X153790D01*
X153199Y-137129D02*
Y-135948D01*
X149537Y-131605D02*
X150718D01*
X150128Y-132195D02*
Y-131014D01*
X161737Y-45505D02*
X162918D01*
X162328Y-46095D02*
Y-44914D01*
X136237Y-42705D02*
X137418D01*
X136828Y-43295D02*
Y-42114D01*
X155137Y-40905D02*
X156318D01*
X155728Y-41495D02*
Y-40314D01*
X157737Y-40905D02*
X158918D01*
X158328Y-41495D02*
Y-40314D01*
X157737Y-38405D02*
X158918D01*
X158328Y-38995D02*
Y-37814D01*
X155137Y-38405D02*
X156318D01*
X155728Y-38995D02*
Y-37814D01*
M02*
