G04*
G04 #@! TF.GenerationSoftware,Altium Limited,Altium Designer,23.6.0 (18)*
G04*
G04 Layer_Color=2752767*
%FSLAX25Y25*%
%MOIN*%
G70*
G04*
G04 #@! TF.SameCoordinates,41434E86-4965-44CF-8D99-FF0C004B18D3*
G04*
G04*
G04 #@! TF.FilePolarity,Positive*
G04*
G01*
G75*
%ADD10C,0.01000*%
%ADD127C,0.01500*%
%ADD242C,0.01600*%
%ADD288C,0.00200*%
%ADD289C,0.01400*%
D10*
X341162Y73427D02*
G03*
X341162Y73427I-2000J0D01*
G01*
X342496D02*
G03*
X342496Y73427I-3333J0D01*
G01*
X338162Y102427D02*
X339162Y101427D01*
X337162Y102427D02*
X338162D01*
X337162D02*
X338162Y103428D01*
X337162Y104428D02*
X338162Y103428D01*
X337162Y104428D02*
X338162D01*
X339162Y105428D01*
X340162Y104428D01*
X341162D01*
X340162Y103428D02*
X341162Y104428D01*
X340162Y103428D02*
X341162Y102427D01*
X340162D02*
X341162D01*
X339162Y101427D02*
X340162Y102427D01*
X337496Y101761D02*
X339162Y100094D01*
X335829Y101761D02*
X337496D01*
X335829D02*
X337496Y103428D01*
X335829Y105094D02*
X337496Y103428D01*
X335829Y105094D02*
X337496D01*
X339162Y106761D01*
X340829Y105094D01*
X342496D01*
X340829Y103428D02*
X342496Y105094D01*
X340829Y103428D02*
X342496Y101761D01*
X340829D02*
X342496D01*
X339162Y100094D02*
X340829Y101761D01*
X339162Y86427D02*
X341162Y90428D01*
X337162D02*
X341162D01*
X337162D02*
X339162Y86427D01*
Y85094D02*
X342496Y91761D01*
X335829D02*
X342496D01*
X335829D02*
X339162Y85094D01*
X335829Y55094D02*
X342496D01*
Y61761D01*
X335829D02*
X342496D01*
X335829Y55094D02*
Y61761D01*
Y43428D02*
X339162Y40094D01*
X342496Y43428D01*
X339162Y46761D02*
X342496Y43428D01*
X335829D02*
X339162Y46761D01*
Y25094D02*
X342496Y31761D01*
X335829D02*
X342496D01*
X335829D02*
X339162Y25094D01*
X335829Y10094D02*
X339162Y11761D01*
X342496Y10094D01*
X340829Y13428D02*
X342496Y10094D01*
X340829Y13428D02*
X342496Y16761D01*
X339162Y15094D02*
X342496Y16761D01*
X335829D02*
X339162Y15094D01*
X335829Y16761D02*
X337496Y13428D01*
X335829Y10094D02*
X337496Y13428D01*
X1540910Y105093D02*
X1541910Y106092D01*
X1543909D01*
X1544909Y105093D01*
Y101094D01*
X1543909Y100094D01*
X1541910D01*
X1540910Y101094D01*
Y105093D01*
X1546908Y100094D02*
Y101094D01*
X1547908D01*
Y100094D01*
X1546908D01*
X1551907Y105093D02*
X1552907Y106092D01*
X1554906D01*
X1555906Y105093D01*
Y104093D01*
X1554906Y103093D01*
X1555906Y102094D01*
Y101094D01*
X1554906Y100094D01*
X1552907D01*
X1551907Y101094D01*
Y102094D01*
X1552907Y103093D01*
X1551907Y104093D01*
Y105093D01*
X1552907Y103093D02*
X1554906D01*
X1557905Y105093D02*
X1558905Y106092D01*
X1560904D01*
X1561904Y105093D01*
Y101094D01*
X1560904Y100094D01*
X1558905D01*
X1557905Y101094D01*
Y105093D01*
X1563903D02*
X1564903Y106092D01*
X1566902D01*
X1567902Y105093D01*
Y101094D01*
X1566902Y100094D01*
X1564903D01*
X1563903Y101094D01*
Y105093D01*
X1569901Y100094D02*
Y104093D01*
X1570901D01*
X1571900Y103093D01*
Y100094D01*
Y103093D01*
X1572900Y104093D01*
X1573900Y103093D01*
Y100094D01*
X1575899D02*
Y104093D01*
X1576899D01*
X1577898Y103093D01*
Y100094D01*
Y103093D01*
X1578898Y104093D01*
X1579898Y103093D01*
Y100094D01*
X1589894D02*
X1587895Y102094D01*
Y104093D01*
X1589894Y106092D01*
X1592894Y105093D02*
X1593893Y106092D01*
X1595893D01*
X1596892Y105093D01*
Y104093D01*
X1595893Y103093D01*
X1594893D01*
X1595893D01*
X1596892Y102094D01*
Y101094D01*
X1595893Y100094D01*
X1593893D01*
X1592894Y101094D01*
X1598892Y100094D02*
X1600891D01*
X1599891D01*
Y106092D01*
X1598892Y105093D01*
X1603890Y100094D02*
Y101094D01*
X1604890D01*
Y100094D01*
X1603890D01*
X1612887Y106092D02*
X1608888D01*
Y103093D01*
X1610888Y104093D01*
X1611887D01*
X1612887Y103093D01*
Y101094D01*
X1611887Y100094D01*
X1609888D01*
X1608888Y101094D01*
X1614886Y105093D02*
X1615886Y106092D01*
X1617886D01*
X1618885Y105093D01*
Y101094D01*
X1617886Y100094D01*
X1615886D01*
X1614886Y101094D01*
Y105093D01*
X1620885Y100094D02*
Y104093D01*
X1621884D01*
X1622884Y103093D01*
Y100094D01*
Y103093D01*
X1623883Y104093D01*
X1624883Y103093D01*
Y100094D01*
X1626883D02*
X1628882D01*
X1627882D01*
Y104093D01*
X1626883D01*
X1631881Y100094D02*
X1633880D01*
X1632881D01*
Y106092D01*
X1631881D01*
X1636879Y100094D02*
X1638879Y102094D01*
Y104093D01*
X1636879Y106092D01*
X1540910Y85094D02*
X1542910D01*
X1541910D01*
Y91092D01*
X1540910Y90093D01*
X1545909Y85094D02*
Y86094D01*
X1546908D01*
Y85094D01*
X1545909D01*
X1550907D02*
X1552907D01*
X1551907D01*
Y91092D01*
X1550907Y90093D01*
X1555906D02*
X1556905Y91092D01*
X1558904D01*
X1559904Y90093D01*
Y86094D01*
X1558904Y85094D01*
X1556905D01*
X1555906Y86094D01*
Y90093D01*
X1561904D02*
X1562903Y91092D01*
X1564903D01*
X1565902Y90093D01*
Y86094D01*
X1564903Y85094D01*
X1562903D01*
X1561904Y86094D01*
Y90093D01*
X1567902Y85094D02*
Y89093D01*
X1568901D01*
X1569901Y88093D01*
Y85094D01*
Y88093D01*
X1570901Y89093D01*
X1571900Y88093D01*
Y85094D01*
X1573900D02*
Y89093D01*
X1574899D01*
X1575899Y88093D01*
Y85094D01*
Y88093D01*
X1576899Y89093D01*
X1577898Y88093D01*
Y85094D01*
X1587895D02*
X1585896Y87094D01*
Y89093D01*
X1587895Y91092D01*
X1593893Y85094D02*
Y91092D01*
X1590894Y88093D01*
X1594893D01*
X1596892Y90093D02*
X1597892Y91092D01*
X1599891D01*
X1600891Y90093D01*
Y89093D01*
X1599891Y88093D01*
X1598892D01*
X1599891D01*
X1600891Y87094D01*
Y86094D01*
X1599891Y85094D01*
X1597892D01*
X1596892Y86094D01*
X1602890Y85094D02*
Y86094D01*
X1603890D01*
Y85094D01*
X1602890D01*
X1607889Y90093D02*
X1608888Y91092D01*
X1610888D01*
X1611887Y90093D01*
Y89093D01*
X1610888Y88093D01*
X1609888D01*
X1610888D01*
X1611887Y87094D01*
Y86094D01*
X1610888Y85094D01*
X1608888D01*
X1607889Y86094D01*
X1613887Y85094D02*
X1615886D01*
X1614886D01*
Y91092D01*
X1613887Y90093D01*
X1618885Y85094D02*
Y89093D01*
X1619885D01*
X1620885Y88093D01*
Y85094D01*
Y88093D01*
X1621884Y89093D01*
X1622884Y88093D01*
Y85094D01*
X1624883D02*
X1626883D01*
X1625883D01*
Y89093D01*
X1624883D01*
X1629882Y85094D02*
X1631881D01*
X1630881D01*
Y91092D01*
X1629882D01*
X1634880Y85094D02*
X1636879Y87094D01*
Y89093D01*
X1634880Y91092D01*
X1540910Y73093D02*
X1544909D01*
X1540910Y58093D02*
X1544909D01*
X1540910Y43093D02*
X1544909D01*
X1540910Y28093D02*
X1544909D01*
X1540910Y13093D02*
X1544909D01*
X1431942Y100094D02*
X1433941D01*
X1432942D01*
Y106092D01*
X1431942Y105093D01*
X1436940Y100094D02*
Y101094D01*
X1437940D01*
Y100094D01*
X1436940D01*
X1444938D02*
Y106092D01*
X1441939Y103093D01*
X1445938D01*
X1447937Y105093D02*
X1448937Y106092D01*
X1450936D01*
X1451936Y105093D01*
Y101094D01*
X1450936Y100094D01*
X1448937D01*
X1447937Y101094D01*
Y105093D01*
X1453935D02*
X1454935Y106092D01*
X1456934D01*
X1457934Y105093D01*
Y101094D01*
X1456934Y100094D01*
X1454935D01*
X1453935Y101094D01*
Y105093D01*
X1459933Y100094D02*
Y104093D01*
X1460933D01*
X1461932Y103093D01*
Y100094D01*
Y103093D01*
X1462932Y104093D01*
X1463932Y103093D01*
Y100094D01*
X1465931D02*
Y104093D01*
X1466931D01*
X1467930Y103093D01*
Y100094D01*
Y103093D01*
X1468930Y104093D01*
X1469930Y103093D01*
Y100094D01*
X1479926D02*
X1477927Y102094D01*
Y104093D01*
X1479926Y106092D01*
X1486924D02*
X1482926D01*
Y103093D01*
X1484925Y104093D01*
X1485925D01*
X1486924Y103093D01*
Y101094D01*
X1485925Y100094D01*
X1483925D01*
X1482926Y101094D01*
X1492922Y106092D02*
X1488924D01*
Y103093D01*
X1490923Y104093D01*
X1491923D01*
X1492922Y103093D01*
Y101094D01*
X1491923Y100094D01*
X1489923D01*
X1488924Y101094D01*
X1494922Y100094D02*
Y101094D01*
X1495921D01*
Y100094D01*
X1494922D01*
X1499920D02*
X1501919D01*
X1500920D01*
Y106092D01*
X1499920Y105093D01*
X1508917Y100094D02*
X1504918D01*
X1508917Y104093D01*
Y105093D01*
X1507917Y106092D01*
X1505918D01*
X1504918Y105093D01*
X1510917Y100094D02*
Y104093D01*
X1511916D01*
X1512916Y103093D01*
Y100094D01*
Y103093D01*
X1513916Y104093D01*
X1514915Y103093D01*
Y100094D01*
X1516915D02*
X1518914D01*
X1517914D01*
Y104093D01*
X1516915D01*
X1521913Y100094D02*
X1523912D01*
X1522913D01*
Y106092D01*
X1521913D01*
X1526911Y100094D02*
X1528911Y102094D01*
Y104093D01*
X1526911Y106092D01*
X1431942Y85094D02*
X1433941D01*
X1432942D01*
Y91092D01*
X1431942Y90093D01*
X1436940Y85094D02*
Y86094D01*
X1437940D01*
Y85094D01*
X1436940D01*
X1441939Y91092D02*
X1445938D01*
Y90093D01*
X1441939Y86094D01*
Y85094D01*
X1447937Y90093D02*
X1448937Y91092D01*
X1450936D01*
X1451936Y90093D01*
Y86094D01*
X1450936Y85094D01*
X1448937D01*
X1447937Y86094D01*
Y90093D01*
X1453935D02*
X1454935Y91092D01*
X1456934D01*
X1457934Y90093D01*
Y86094D01*
X1456934Y85094D01*
X1454935D01*
X1453935Y86094D01*
Y90093D01*
X1459933Y85094D02*
Y89093D01*
X1460933D01*
X1461932Y88093D01*
Y85094D01*
Y88093D01*
X1462932Y89093D01*
X1463932Y88093D01*
Y85094D01*
X1465931D02*
Y89093D01*
X1466931D01*
X1467930Y88093D01*
Y85094D01*
Y88093D01*
X1468930Y89093D01*
X1469930Y88093D01*
Y85094D01*
X1479926D02*
X1477927Y87094D01*
Y89093D01*
X1479926Y91092D01*
X1486924D02*
X1484925Y90093D01*
X1482926Y88093D01*
Y86094D01*
X1483925Y85094D01*
X1485925D01*
X1486924Y86094D01*
Y87094D01*
X1485925Y88093D01*
X1482926D01*
X1492922Y91092D02*
X1490923Y90093D01*
X1488924Y88093D01*
Y86094D01*
X1489923Y85094D01*
X1491923D01*
X1492922Y86094D01*
Y87094D01*
X1491923Y88093D01*
X1488924D01*
X1494922Y85094D02*
Y86094D01*
X1495921D01*
Y85094D01*
X1494922D01*
X1499920Y86094D02*
X1500920Y85094D01*
X1502919D01*
X1503919Y86094D01*
Y90093D01*
X1502919Y91092D01*
X1500920D01*
X1499920Y90093D01*
Y89093D01*
X1500920Y88093D01*
X1503919D01*
X1505918Y90093D02*
X1506918Y91092D01*
X1508917D01*
X1509917Y90093D01*
Y89093D01*
X1508917Y88093D01*
X1507917D01*
X1508917D01*
X1509917Y87094D01*
Y86094D01*
X1508917Y85094D01*
X1506918D01*
X1505918Y86094D01*
X1511916Y85094D02*
Y89093D01*
X1512916D01*
X1513916Y88093D01*
Y85094D01*
Y88093D01*
X1514915Y89093D01*
X1515915Y88093D01*
Y85094D01*
X1517914D02*
X1519914D01*
X1518914D01*
Y89093D01*
X1517914D01*
X1522913Y85094D02*
X1524912D01*
X1523912D01*
Y91092D01*
X1522913D01*
X1527911Y85094D02*
X1529910Y87094D01*
Y89093D01*
X1527911Y91092D01*
X1431942Y73093D02*
X1435941D01*
X1431942Y58093D02*
X1435941D01*
X1431942Y43093D02*
X1435941D01*
X1431942Y28093D02*
X1435941D01*
X1431942Y13093D02*
X1435941D01*
X965878Y104093D02*
Y100094D01*
Y102094D01*
X966877Y103093D01*
X967877Y104093D01*
X968876D01*
X971876Y101094D02*
X972875Y100094D01*
X974875D01*
X975874Y101094D01*
Y105093D01*
X974875Y106092D01*
X972875D01*
X971876Y105093D01*
Y104093D01*
X972875Y103093D01*
X975874D01*
X977874Y105093D02*
X978873Y106092D01*
X980873D01*
X981872Y105093D01*
Y101094D01*
X980873Y100094D01*
X978873D01*
X977874Y101094D01*
Y105093D01*
X983872Y99094D02*
X987870D01*
X989870Y100094D02*
X991869D01*
X990869D01*
Y106092D01*
X989870Y105093D01*
X994868Y106092D02*
X998867D01*
Y105093D01*
X994868Y101094D01*
Y100094D01*
X1000866Y105093D02*
X1001866Y106092D01*
X1003865D01*
X1004865Y105093D01*
Y101094D01*
X1003865Y100094D01*
X1001866D01*
X1000866Y101094D01*
Y105093D01*
X1006864Y106092D02*
Y100094D01*
Y103093D01*
X1007864Y104093D01*
X1009863D01*
X1010863Y103093D01*
Y100094D01*
X1016861Y106092D02*
X1014862Y105093D01*
X1012862Y103093D01*
Y101094D01*
X1013862Y100094D01*
X1015861D01*
X1016861Y101094D01*
Y102094D01*
X1015861Y103093D01*
X1012862D01*
X1018860Y105093D02*
X1019860Y106092D01*
X1021859D01*
X1022859Y105093D01*
Y101094D01*
X1021859Y100094D01*
X1019860D01*
X1018860Y101094D01*
Y105093D01*
X1024858Y99094D02*
X1028857D01*
X1030857Y100094D02*
X1032856D01*
X1031856D01*
Y106092D01*
X1030857Y105093D01*
X1038854Y100094D02*
Y106092D01*
X1035855Y103093D01*
X1039854D01*
X1041853Y105093D02*
X1042853Y106092D01*
X1044852D01*
X1045852Y105093D01*
Y101094D01*
X1044852Y100094D01*
X1042853D01*
X1041853Y101094D01*
Y105093D01*
X1047851Y104093D02*
Y100094D01*
Y102094D01*
X1048851Y103093D01*
X1049850Y104093D01*
X1050850D01*
X1053849Y100094D02*
X1055848D01*
X1054849D01*
Y106092D01*
X1053849Y105093D01*
X1058847D02*
X1059847Y106092D01*
X1061847D01*
X1062846Y105093D01*
Y101094D01*
X1061847Y100094D01*
X1059847D01*
X1058847Y101094D01*
Y105093D01*
X1064845D02*
X1065845Y106092D01*
X1067844D01*
X1068844Y105093D01*
Y101094D01*
X1067844Y100094D01*
X1065845D01*
X1064845Y101094D01*
Y105093D01*
X967877Y85094D02*
X965878Y87094D01*
Y89093D01*
X967877Y91092D01*
X970876Y85094D02*
Y91092D01*
X972875Y89093D01*
X974875Y91092D01*
Y85094D01*
X976874D02*
X978873D01*
X977874D01*
Y89093D01*
X976874D01*
X981872D02*
X985871Y85094D01*
X983872Y87094D01*
X985871Y89093D01*
X981872Y85094D01*
X990869D02*
X988870D01*
X987870Y86094D01*
Y88093D01*
X988870Y89093D01*
X990869D01*
X991869Y88093D01*
Y87094D01*
X987870D01*
X997867Y91092D02*
Y85094D01*
X994868D01*
X993868Y86094D01*
Y88093D01*
X994868Y89093D01*
X997867D01*
X999866Y85094D02*
X1001866Y87094D01*
Y89093D01*
X999866Y91092D01*
X969876Y74093D02*
X966877D01*
X965878Y73093D01*
Y71094D01*
X966877Y70094D01*
X969876D01*
X971876Y75093D02*
X972875Y76092D01*
X974875D01*
X975874Y75093D01*
Y71094D01*
X974875Y70094D01*
X972875D01*
X971876Y71094D01*
Y75093D01*
X977874Y76092D02*
Y70094D01*
Y73093D01*
X978873Y74093D01*
X980873D01*
X981872Y73093D01*
Y70094D01*
X983872D02*
Y74093D01*
X986871D01*
X987870Y73093D01*
Y70094D01*
X993869Y76092D02*
X991869Y75093D01*
X989870Y73093D01*
Y71094D01*
X990869Y70094D01*
X992869D01*
X993869Y71094D01*
Y72093D01*
X992869Y73093D01*
X989870D01*
X999866Y70094D02*
X995868D01*
X999866Y74093D01*
Y75093D01*
X998867Y76092D01*
X996867D01*
X995868Y75093D01*
X969876Y59093D02*
X966877D01*
X965878Y58093D01*
Y56094D01*
X966877Y55094D01*
X969876D01*
X975874D02*
X971876D01*
X975874Y59093D01*
Y60093D01*
X974875Y61092D01*
X972875D01*
X971876Y60093D01*
X981872Y61092D02*
X979873Y60093D01*
X977874Y58093D01*
Y56094D01*
X978873Y55094D01*
X980873D01*
X981872Y56094D01*
Y57094D01*
X980873Y58093D01*
X977874D01*
X983872Y60093D02*
X984871Y61092D01*
X986871D01*
X987870Y60093D01*
Y56094D01*
X986871Y55094D01*
X984871D01*
X983872Y56094D01*
Y60093D01*
X989870Y61092D02*
Y55094D01*
Y58093D01*
X990869Y59093D01*
X992869D01*
X993869Y58093D01*
Y55094D01*
X995868D02*
Y59093D01*
X998867D01*
X999866Y58093D01*
Y55094D01*
X1005865D02*
X1001866D01*
X1005865Y59093D01*
Y60093D01*
X1004865Y61092D01*
X1002866D01*
X1001866Y60093D01*
X1007864Y55094D02*
X1009863D01*
X1008864D01*
Y61092D01*
X1007864Y60093D01*
X1012862D02*
X1013862Y61092D01*
X1015861D01*
X1016861Y60093D01*
Y56094D01*
X1015861Y55094D01*
X1013862D01*
X1012862Y56094D01*
Y60093D01*
X1018860Y55094D02*
Y59093D01*
X1019860D01*
X1020860Y58093D01*
Y55094D01*
Y58093D01*
X1021859Y59093D01*
X1022859Y58093D01*
Y55094D01*
X1028857D02*
X1024858D01*
X1028857Y59093D01*
Y60093D01*
X1027857Y61092D01*
X1025858D01*
X1024858Y60093D01*
X1034855Y61092D02*
X1032856Y60093D01*
X1030857Y58093D01*
Y56094D01*
X1031856Y55094D01*
X1033856D01*
X1034855Y56094D01*
Y57094D01*
X1033856Y58093D01*
X1030857D01*
X1040853Y61092D02*
X1036855D01*
Y58093D01*
X1038854Y59093D01*
X1039854D01*
X1040853Y58093D01*
Y56094D01*
X1039854Y55094D01*
X1037854D01*
X1036855Y56094D01*
X967877Y40094D02*
X965878Y42094D01*
Y44093D01*
X967877Y46092D01*
X970876Y40094D02*
Y46092D01*
X972875Y44093D01*
X974875Y46092D01*
Y40094D01*
X976874D02*
X978873D01*
X977874D01*
Y44093D01*
X976874D01*
X981872D02*
X985871Y40094D01*
X983872Y42094D01*
X985871Y44093D01*
X981872Y40094D01*
X990869D02*
X988870D01*
X987870Y41094D01*
Y43093D01*
X988870Y44093D01*
X990869D01*
X991869Y43093D01*
Y42094D01*
X987870D01*
X997867Y46092D02*
Y40094D01*
X994868D01*
X993868Y41094D01*
Y43093D01*
X994868Y44093D01*
X997867D01*
X999866Y40094D02*
X1001866Y42094D01*
Y44093D01*
X999866Y46092D01*
X967877Y25094D02*
X965878Y27093D01*
Y29093D01*
X967877Y31092D01*
X970876Y25094D02*
Y31092D01*
X972875Y29093D01*
X974875Y31092D01*
Y25094D01*
X976874D02*
X978873D01*
X977874D01*
Y29093D01*
X976874D01*
X981872D02*
X985871Y25094D01*
X983872Y27093D01*
X985871Y29093D01*
X981872Y25094D01*
X990869D02*
X988870D01*
X987870Y26094D01*
Y28093D01*
X988870Y29093D01*
X990869D01*
X991869Y28093D01*
Y27093D01*
X987870D01*
X997867Y31092D02*
Y25094D01*
X994868D01*
X993868Y26094D01*
Y28093D01*
X994868Y29093D01*
X997867D01*
X999866Y25094D02*
X1001866Y27093D01*
Y29093D01*
X999866Y31092D01*
X967877Y10094D02*
X965878Y12094D01*
Y14093D01*
X967877Y16092D01*
X970876Y10094D02*
Y16092D01*
X972875Y14093D01*
X974875Y16092D01*
Y10094D01*
X976874D02*
X978873D01*
X977874D01*
Y14093D01*
X976874D01*
X981872D02*
X985871Y10094D01*
X983872Y12094D01*
X985871Y14093D01*
X981872Y10094D01*
X990869D02*
X988870D01*
X987870Y11094D01*
Y13093D01*
X988870Y14093D01*
X990869D01*
X991869Y13093D01*
Y12094D01*
X987870D01*
X997867Y16092D02*
Y10094D01*
X994868D01*
X993868Y11094D01*
Y13093D01*
X994868Y14093D01*
X997867D01*
X999866Y10094D02*
X1001866Y12094D01*
Y14093D01*
X999866Y16092D01*
X891298Y100094D02*
Y106092D01*
X894297D01*
X895296Y105093D01*
Y103093D01*
X894297Y102094D01*
X891298D01*
X893297D02*
X895296Y100094D01*
X898295D02*
X900295D01*
X901295Y101094D01*
Y103093D01*
X900295Y104093D01*
X898295D01*
X897296Y103093D01*
Y101094D01*
X898295Y100094D01*
X903294Y104093D02*
Y101094D01*
X904294Y100094D01*
X907292D01*
Y104093D01*
X909292Y100094D02*
Y104093D01*
X912291D01*
X913291Y103093D01*
Y100094D01*
X919289Y106092D02*
Y100094D01*
X916290D01*
X915290Y101094D01*
Y103093D01*
X916290Y104093D01*
X919289D01*
X924287Y100094D02*
X922288D01*
X921288Y101094D01*
Y103093D01*
X922288Y104093D01*
X924287D01*
X925287Y103093D01*
Y102094D01*
X921288D01*
X931285Y106092D02*
Y100094D01*
X928286D01*
X927286Y101094D01*
Y103093D01*
X928286Y104093D01*
X931285D01*
X891298Y85094D02*
Y91092D01*
X894297D01*
X895296Y90093D01*
Y88093D01*
X894297Y87094D01*
X891298D01*
X893297D02*
X895296Y85094D01*
X898295D02*
X900295D01*
X901295Y86094D01*
Y88093D01*
X900295Y89093D01*
X898295D01*
X897296Y88093D01*
Y86094D01*
X898295Y85094D01*
X903294Y89093D02*
Y86094D01*
X904294Y85094D01*
X907292D01*
Y89093D01*
X909292Y85094D02*
Y89093D01*
X912291D01*
X913291Y88093D01*
Y85094D01*
X919289Y91092D02*
Y85094D01*
X916290D01*
X915290Y86094D01*
Y88093D01*
X916290Y89093D01*
X919289D01*
X924287Y85094D02*
X922288D01*
X921288Y86094D01*
Y88093D01*
X922288Y89093D01*
X924287D01*
X925287Y88093D01*
Y87094D01*
X921288D01*
X931285Y91092D02*
Y85094D01*
X928286D01*
X927286Y86094D01*
Y88093D01*
X928286Y89093D01*
X931285D01*
X891298Y70094D02*
Y76092D01*
X894297D01*
X895296Y75093D01*
Y73093D01*
X894297Y72093D01*
X891298D01*
X893297D02*
X895296Y70094D01*
X898295D02*
X900295D01*
X901295Y71094D01*
Y73093D01*
X900295Y74093D01*
X898295D01*
X897296Y73093D01*
Y71094D01*
X898295Y70094D01*
X903294Y74093D02*
Y71094D01*
X904294Y70094D01*
X907292D01*
Y74093D01*
X909292Y70094D02*
Y74093D01*
X912291D01*
X913291Y73093D01*
Y70094D01*
X919289Y76092D02*
Y70094D01*
X916290D01*
X915290Y71094D01*
Y73093D01*
X916290Y74093D01*
X919289D01*
X924287Y70094D02*
X922288D01*
X921288Y71094D01*
Y73093D01*
X922288Y74093D01*
X924287D01*
X925287Y73093D01*
Y72093D01*
X921288D01*
X931285Y76092D02*
Y70094D01*
X928286D01*
X927286Y71094D01*
Y73093D01*
X928286Y74093D01*
X931285D01*
X891298Y55094D02*
Y61092D01*
X894297D01*
X895296Y60093D01*
Y58093D01*
X894297Y57094D01*
X891298D01*
X893297D02*
X895296Y55094D01*
X898295D02*
X900295D01*
X901295Y56094D01*
Y58093D01*
X900295Y59093D01*
X898295D01*
X897296Y58093D01*
Y56094D01*
X898295Y55094D01*
X903294Y59093D02*
Y56094D01*
X904294Y55094D01*
X907292D01*
Y59093D01*
X909292Y55094D02*
Y59093D01*
X912291D01*
X913291Y58093D01*
Y55094D01*
X919289Y61092D02*
Y55094D01*
X916290D01*
X915290Y56094D01*
Y58093D01*
X916290Y59093D01*
X919289D01*
X924287Y55094D02*
X922288D01*
X921288Y56094D01*
Y58093D01*
X922288Y59093D01*
X924287D01*
X925287Y58093D01*
Y57094D01*
X921288D01*
X931285Y61092D02*
Y55094D01*
X928286D01*
X927286Y56094D01*
Y58093D01*
X928286Y59093D01*
X931285D01*
X893297Y40094D02*
X891298Y42094D01*
Y44093D01*
X893297Y46092D01*
X896296Y40094D02*
Y46092D01*
X898295Y44093D01*
X900295Y46092D01*
Y40094D01*
X902294D02*
X904294D01*
X903294D01*
Y44093D01*
X902294D01*
X907292D02*
X911291Y40094D01*
X909292Y42094D01*
X911291Y44093D01*
X907292Y40094D01*
X916290D02*
X914290D01*
X913291Y41094D01*
Y43093D01*
X914290Y44093D01*
X916290D01*
X917289Y43093D01*
Y42094D01*
X913291D01*
X923287Y46092D02*
Y40094D01*
X920288D01*
X919289Y41094D01*
Y43093D01*
X920288Y44093D01*
X923287D01*
X925287Y40094D02*
X927286Y42094D01*
Y44093D01*
X925287Y46092D01*
X893297Y25094D02*
X891298Y27093D01*
Y29093D01*
X893297Y31092D01*
X896296Y25094D02*
Y31092D01*
X898295Y29093D01*
X900295Y31092D01*
Y25094D01*
X902294D02*
X904294D01*
X903294D01*
Y29093D01*
X902294D01*
X907292D02*
X911291Y25094D01*
X909292Y27093D01*
X911291Y29093D01*
X907292Y25094D01*
X916290D02*
X914290D01*
X913291Y26094D01*
Y28093D01*
X914290Y29093D01*
X916290D01*
X917289Y28093D01*
Y27093D01*
X913291D01*
X923287Y31092D02*
Y25094D01*
X920288D01*
X919289Y26094D01*
Y28093D01*
X920288Y29093D01*
X923287D01*
X925287Y25094D02*
X927286Y27093D01*
Y29093D01*
X925287Y31092D01*
X891298Y10094D02*
Y16092D01*
X894297D01*
X895296Y15092D01*
Y13093D01*
X894297Y12094D01*
X891298D01*
X893297D02*
X895296Y10094D01*
X898295D02*
X900295D01*
X901295Y11094D01*
Y13093D01*
X900295Y14093D01*
X898295D01*
X897296Y13093D01*
Y11094D01*
X898295Y10094D01*
X903294Y14093D02*
Y11094D01*
X904294Y10094D01*
X907292D01*
Y14093D01*
X909292Y10094D02*
Y14093D01*
X912291D01*
X913291Y13093D01*
Y10094D01*
X919289Y16092D02*
Y10094D01*
X916290D01*
X915290Y11094D01*
Y13093D01*
X916290Y14093D01*
X919289D01*
X924287Y10094D02*
X922288D01*
X921288Y11094D01*
Y13093D01*
X922288Y14093D01*
X924287D01*
X925287Y13093D01*
Y12094D01*
X921288D01*
X931285Y16092D02*
Y10094D01*
X928286D01*
X927286Y11094D01*
Y13093D01*
X928286Y14093D01*
X931285D01*
X832313Y100094D02*
Y106092D01*
X835312D01*
X836312Y105093D01*
Y103093D01*
X835312Y102094D01*
X832313D01*
X839311Y104093D02*
X841310D01*
X842310Y103093D01*
Y100094D01*
X839311D01*
X838311Y101094D01*
X839311Y102094D01*
X842310D01*
X848308Y106092D02*
Y100094D01*
X845309D01*
X844309Y101094D01*
Y103093D01*
X845309Y104093D01*
X848308D01*
X832313Y85094D02*
Y91092D01*
X835312D01*
X836312Y90093D01*
Y88093D01*
X835312Y87094D01*
X832313D01*
X839311Y89093D02*
X841310D01*
X842310Y88093D01*
Y85094D01*
X839311D01*
X838311Y86094D01*
X839311Y87094D01*
X842310D01*
X848308Y91092D02*
Y85094D01*
X845309D01*
X844309Y86094D01*
Y88093D01*
X845309Y89093D01*
X848308D01*
X832313Y70094D02*
Y76092D01*
X835312D01*
X836312Y75093D01*
Y73093D01*
X835312Y72093D01*
X832313D01*
X839311Y74093D02*
X841310D01*
X842310Y73093D01*
Y70094D01*
X839311D01*
X838311Y71094D01*
X839311Y72093D01*
X842310D01*
X848308Y76092D02*
Y70094D01*
X845309D01*
X844309Y71094D01*
Y73093D01*
X845309Y74093D01*
X848308D01*
X832313Y55094D02*
Y61092D01*
X835312D01*
X836312Y60093D01*
Y58093D01*
X835312Y57094D01*
X832313D01*
X839311Y59093D02*
X841310D01*
X842310Y58093D01*
Y55094D01*
X839311D01*
X838311Y56094D01*
X839311Y57094D01*
X842310D01*
X848308Y61092D02*
Y55094D01*
X845309D01*
X844309Y56094D01*
Y58093D01*
X845309Y59093D01*
X848308D01*
X832313Y40094D02*
Y46092D01*
X835312D01*
X836312Y45092D01*
Y43093D01*
X835312Y42094D01*
X832313D01*
X839311Y44093D02*
X841310D01*
X842310Y43093D01*
Y40094D01*
X839311D01*
X838311Y41094D01*
X839311Y42094D01*
X842310D01*
X848308Y46092D02*
Y40094D01*
X845309D01*
X844309Y41094D01*
Y43093D01*
X845309Y44093D01*
X848308D01*
X832313Y25094D02*
Y31092D01*
X835312D01*
X836312Y30092D01*
Y28093D01*
X835312Y27093D01*
X832313D01*
X839311Y29093D02*
X841310D01*
X842310Y28093D01*
Y25094D01*
X839311D01*
X838311Y26094D01*
X839311Y27093D01*
X842310D01*
X848308Y31092D02*
Y25094D01*
X845309D01*
X844309Y26094D01*
Y28093D01*
X845309Y29093D01*
X848308D01*
X834312Y10094D02*
X832313Y12094D01*
Y14093D01*
X834312Y16092D01*
X837311Y10094D02*
Y16092D01*
X839311Y14093D01*
X841310Y16092D01*
Y10094D01*
X843309D02*
X845309D01*
X844309D01*
Y14093D01*
X843309D01*
X848308D02*
X852306Y10094D01*
X850307Y12094D01*
X852306Y14093D01*
X848308Y10094D01*
X857305D02*
X855305D01*
X854306Y11094D01*
Y13093D01*
X855305Y14093D01*
X857305D01*
X858304Y13093D01*
Y12094D01*
X854306D01*
X864303Y16092D02*
Y10094D01*
X861304D01*
X860304Y11094D01*
Y13093D01*
X861304Y14093D01*
X864303D01*
X866302Y10094D02*
X868301Y12094D01*
Y14093D01*
X866302Y16092D01*
X682358Y106092D02*
X686356D01*
X684357D01*
Y100094D01*
X689356D02*
X691355D01*
X692355Y101094D01*
Y103093D01*
X691355Y104093D01*
X689356D01*
X688356Y103093D01*
Y101094D01*
X689356Y100094D01*
X694354Y98095D02*
Y104093D01*
X697353D01*
X698353Y103093D01*
Y101094D01*
X697353Y100094D01*
X694354D01*
X706350Y106092D02*
Y100094D01*
X710349D01*
X713348Y104093D02*
X715347D01*
X716347Y103093D01*
Y100094D01*
X713348D01*
X712348Y101094D01*
X713348Y102094D01*
X716347D01*
X718346Y104093D02*
Y101094D01*
X719346Y100094D01*
X722345D01*
Y99094D01*
X721345Y98095D01*
X720345D01*
X722345Y100094D02*
Y104093D01*
X727343Y100094D02*
X725344D01*
X724344Y101094D01*
Y103093D01*
X725344Y104093D01*
X727343D01*
X728343Y103093D01*
Y102094D01*
X724344D01*
X730342Y104093D02*
Y100094D01*
Y102094D01*
X731342Y103093D01*
X732342Y104093D01*
X733341D01*
X742338Y103093D02*
X746337D01*
X754334Y106092D02*
Y100094D01*
X757334D01*
X758333Y101094D01*
Y102094D01*
X757334Y103093D01*
X754334D01*
X757334D01*
X758333Y104093D01*
Y105093D01*
X757334Y106092D01*
X754334D01*
X761332Y100094D02*
X763332D01*
X764331Y101094D01*
Y103093D01*
X763332Y104093D01*
X761332D01*
X760333Y103093D01*
Y101094D01*
X761332Y100094D01*
X767330Y105093D02*
Y104093D01*
X766331D01*
X768330D01*
X767330D01*
Y101094D01*
X768330Y100094D01*
X772329Y105093D02*
Y104093D01*
X771329D01*
X773328D01*
X772329D01*
Y101094D01*
X773328Y100094D01*
X777327D02*
X779326D01*
X780326Y101094D01*
Y103093D01*
X779326Y104093D01*
X777327D01*
X776327Y103093D01*
Y101094D01*
X777327Y100094D01*
X782326D02*
Y104093D01*
X783325D01*
X784325Y103093D01*
Y100094D01*
Y103093D01*
X785324Y104093D01*
X786324Y103093D01*
Y100094D01*
X794322Y106092D02*
Y100094D01*
X798320D01*
X801319Y104093D02*
X803319D01*
X804318Y103093D01*
Y100094D01*
X801319D01*
X800320Y101094D01*
X801319Y102094D01*
X804318D01*
X806318Y104093D02*
Y101094D01*
X807317Y100094D01*
X810316D01*
Y99094D01*
X809317Y98095D01*
X808317D01*
X810316Y100094D02*
Y104093D01*
X815315Y100094D02*
X813315D01*
X812316Y101094D01*
Y103093D01*
X813315Y104093D01*
X815315D01*
X816315Y103093D01*
Y102094D01*
X812316D01*
X818314Y104093D02*
Y100094D01*
Y102094D01*
X819314Y103093D01*
X820313Y104093D01*
X821313D01*
X682358Y91092D02*
X686356D01*
X684357D01*
Y85094D01*
X689356D02*
X691355D01*
X692355Y86094D01*
Y88093D01*
X691355Y89093D01*
X689356D01*
X688356Y88093D01*
Y86094D01*
X689356Y85094D01*
X694354Y83095D02*
Y89093D01*
X697353D01*
X698353Y88093D01*
Y86094D01*
X697353Y85094D01*
X694354D01*
X706350Y91092D02*
Y85094D01*
X710349D01*
X713348Y89093D02*
X715347D01*
X716347Y88093D01*
Y85094D01*
X713348D01*
X712348Y86094D01*
X713348Y87094D01*
X716347D01*
X718346Y89093D02*
Y86094D01*
X719346Y85094D01*
X722345D01*
Y84095D01*
X721345Y83095D01*
X720345D01*
X722345Y85094D02*
Y89093D01*
X727343Y85094D02*
X725344D01*
X724344Y86094D01*
Y88093D01*
X725344Y89093D01*
X727343D01*
X728343Y88093D01*
Y87094D01*
X724344D01*
X730342Y89093D02*
Y85094D01*
Y87094D01*
X731342Y88093D01*
X732342Y89093D01*
X733341D01*
X742338Y88093D02*
X746337D01*
X754334Y91092D02*
Y85094D01*
X757334D01*
X758333Y86094D01*
Y87094D01*
X757334Y88093D01*
X754334D01*
X757334D01*
X758333Y89093D01*
Y90093D01*
X757334Y91092D01*
X754334D01*
X761332Y85094D02*
X763332D01*
X764331Y86094D01*
Y88093D01*
X763332Y89093D01*
X761332D01*
X760333Y88093D01*
Y86094D01*
X761332Y85094D01*
X767330Y90093D02*
Y89093D01*
X766331D01*
X768330D01*
X767330D01*
Y86094D01*
X768330Y85094D01*
X772329Y90093D02*
Y89093D01*
X771329D01*
X773328D01*
X772329D01*
Y86094D01*
X773328Y85094D01*
X777327D02*
X779326D01*
X780326Y86094D01*
Y88093D01*
X779326Y89093D01*
X777327D01*
X776327Y88093D01*
Y86094D01*
X777327Y85094D01*
X782326D02*
Y89093D01*
X783325D01*
X784325Y88093D01*
Y85094D01*
Y88093D01*
X785324Y89093D01*
X786324Y88093D01*
Y85094D01*
X794322Y91092D02*
Y85094D01*
X798320D01*
X801319Y89093D02*
X803319D01*
X804318Y88093D01*
Y85094D01*
X801319D01*
X800320Y86094D01*
X801319Y87094D01*
X804318D01*
X806318Y89093D02*
Y86094D01*
X807317Y85094D01*
X810316D01*
Y84095D01*
X809317Y83095D01*
X808317D01*
X810316Y85094D02*
Y89093D01*
X815315Y85094D02*
X813315D01*
X812316Y86094D01*
Y88093D01*
X813315Y89093D01*
X815315D01*
X816315Y88093D01*
Y87094D01*
X812316D01*
X818314Y89093D02*
Y85094D01*
Y87094D01*
X819314Y88093D01*
X820313Y89093D01*
X821313D01*
X682358Y76092D02*
X686356D01*
X684357D01*
Y70094D01*
X689356D02*
X691355D01*
X692355Y71094D01*
Y73093D01*
X691355Y74093D01*
X689356D01*
X688356Y73093D01*
Y71094D01*
X689356Y70094D01*
X694354Y68095D02*
Y74093D01*
X697353D01*
X698353Y73093D01*
Y71094D01*
X697353Y70094D01*
X694354D01*
X706350Y76092D02*
Y70094D01*
X710349D01*
X713348Y74093D02*
X715347D01*
X716347Y73093D01*
Y70094D01*
X713348D01*
X712348Y71094D01*
X713348Y72093D01*
X716347D01*
X718346Y74093D02*
Y71094D01*
X719346Y70094D01*
X722345D01*
Y69095D01*
X721345Y68095D01*
X720345D01*
X722345Y70094D02*
Y74093D01*
X727343Y70094D02*
X725344D01*
X724344Y71094D01*
Y73093D01*
X725344Y74093D01*
X727343D01*
X728343Y73093D01*
Y72093D01*
X724344D01*
X730342Y74093D02*
Y70094D01*
Y72093D01*
X731342Y73093D01*
X732342Y74093D01*
X733341D01*
X742338Y73093D02*
X746337D01*
X754334Y76092D02*
Y70094D01*
X757334D01*
X758333Y71094D01*
Y72093D01*
X757334Y73093D01*
X754334D01*
X757334D01*
X758333Y74093D01*
Y75093D01*
X757334Y76092D01*
X754334D01*
X761332Y70094D02*
X763332D01*
X764331Y71094D01*
Y73093D01*
X763332Y74093D01*
X761332D01*
X760333Y73093D01*
Y71094D01*
X761332Y70094D01*
X767330Y75093D02*
Y74093D01*
X766331D01*
X768330D01*
X767330D01*
Y71094D01*
X768330Y70094D01*
X772329Y75093D02*
Y74093D01*
X771329D01*
X773328D01*
X772329D01*
Y71094D01*
X773328Y70094D01*
X777327D02*
X779326D01*
X780326Y71094D01*
Y73093D01*
X779326Y74093D01*
X777327D01*
X776327Y73093D01*
Y71094D01*
X777327Y70094D01*
X782326D02*
Y74093D01*
X783325D01*
X784325Y73093D01*
Y70094D01*
Y73093D01*
X785324Y74093D01*
X786324Y73093D01*
Y70094D01*
X794322Y76092D02*
Y70094D01*
X798320D01*
X801319Y74093D02*
X803319D01*
X804318Y73093D01*
Y70094D01*
X801319D01*
X800320Y71094D01*
X801319Y72093D01*
X804318D01*
X806318Y74093D02*
Y71094D01*
X807317Y70094D01*
X810316D01*
Y69095D01*
X809317Y68095D01*
X808317D01*
X810316Y70094D02*
Y74093D01*
X815315Y70094D02*
X813315D01*
X812316Y71094D01*
Y73093D01*
X813315Y74093D01*
X815315D01*
X816315Y73093D01*
Y72093D01*
X812316D01*
X818314Y74093D02*
Y70094D01*
Y72093D01*
X819314Y73093D01*
X820313Y74093D01*
X821313D01*
X682358Y61092D02*
X686356D01*
X684357D01*
Y55094D01*
X689356D02*
X691355D01*
X692355Y56094D01*
Y58093D01*
X691355Y59093D01*
X689356D01*
X688356Y58093D01*
Y56094D01*
X689356Y55094D01*
X694354Y53095D02*
Y59093D01*
X697353D01*
X698353Y58093D01*
Y56094D01*
X697353Y55094D01*
X694354D01*
X706350Y61092D02*
Y55094D01*
X710349D01*
X713348Y59093D02*
X715347D01*
X716347Y58093D01*
Y55094D01*
X713348D01*
X712348Y56094D01*
X713348Y57094D01*
X716347D01*
X718346Y59093D02*
Y56094D01*
X719346Y55094D01*
X722345D01*
Y54094D01*
X721345Y53095D01*
X720345D01*
X722345Y55094D02*
Y59093D01*
X727343Y55094D02*
X725344D01*
X724344Y56094D01*
Y58093D01*
X725344Y59093D01*
X727343D01*
X728343Y58093D01*
Y57094D01*
X724344D01*
X730342Y59093D02*
Y55094D01*
Y57094D01*
X731342Y58093D01*
X732342Y59093D01*
X733341D01*
X742338Y58093D02*
X746337D01*
X754334Y61092D02*
Y55094D01*
X757334D01*
X758333Y56094D01*
Y57094D01*
X757334Y58093D01*
X754334D01*
X757334D01*
X758333Y59093D01*
Y60093D01*
X757334Y61092D01*
X754334D01*
X761332Y55094D02*
X763332D01*
X764331Y56094D01*
Y58093D01*
X763332Y59093D01*
X761332D01*
X760333Y58093D01*
Y56094D01*
X761332Y55094D01*
X767330Y60093D02*
Y59093D01*
X766331D01*
X768330D01*
X767330D01*
Y56094D01*
X768330Y55094D01*
X772329Y60093D02*
Y59093D01*
X771329D01*
X773328D01*
X772329D01*
Y56094D01*
X773328Y55094D01*
X777327D02*
X779326D01*
X780326Y56094D01*
Y58093D01*
X779326Y59093D01*
X777327D01*
X776327Y58093D01*
Y56094D01*
X777327Y55094D01*
X782326D02*
Y59093D01*
X783325D01*
X784325Y58093D01*
Y55094D01*
Y58093D01*
X785324Y59093D01*
X786324Y58093D01*
Y55094D01*
X794322Y61092D02*
Y55094D01*
X798320D01*
X801319Y59093D02*
X803319D01*
X804318Y58093D01*
Y55094D01*
X801319D01*
X800320Y56094D01*
X801319Y57094D01*
X804318D01*
X806318Y59093D02*
Y56094D01*
X807317Y55094D01*
X810316D01*
Y54094D01*
X809317Y53095D01*
X808317D01*
X810316Y55094D02*
Y59093D01*
X815315Y55094D02*
X813315D01*
X812316Y56094D01*
Y58093D01*
X813315Y59093D01*
X815315D01*
X816315Y58093D01*
Y57094D01*
X812316D01*
X818314Y59093D02*
Y55094D01*
Y57094D01*
X819314Y58093D01*
X820313Y59093D01*
X821313D01*
X682358Y46092D02*
X686356D01*
X684357D01*
Y40094D01*
X689356D02*
X691355D01*
X692355Y41094D01*
Y43093D01*
X691355Y44093D01*
X689356D01*
X688356Y43093D01*
Y41094D01*
X689356Y40094D01*
X694354Y38095D02*
Y44093D01*
X697353D01*
X698353Y43093D01*
Y41094D01*
X697353Y40094D01*
X694354D01*
X706350Y46092D02*
Y40094D01*
X710349D01*
X713348Y44093D02*
X715347D01*
X716347Y43093D01*
Y40094D01*
X713348D01*
X712348Y41094D01*
X713348Y42094D01*
X716347D01*
X718346Y44093D02*
Y41094D01*
X719346Y40094D01*
X722345D01*
Y39094D01*
X721345Y38095D01*
X720345D01*
X722345Y40094D02*
Y44093D01*
X727343Y40094D02*
X725344D01*
X724344Y41094D01*
Y43093D01*
X725344Y44093D01*
X727343D01*
X728343Y43093D01*
Y42094D01*
X724344D01*
X730342Y44093D02*
Y40094D01*
Y42094D01*
X731342Y43093D01*
X732342Y44093D01*
X733341D01*
X742338Y43093D02*
X746337D01*
X754334Y46092D02*
Y40094D01*
X757334D01*
X758333Y41094D01*
Y42094D01*
X757334Y43093D01*
X754334D01*
X757334D01*
X758333Y44093D01*
Y45092D01*
X757334Y46092D01*
X754334D01*
X761332Y40094D02*
X763332D01*
X764331Y41094D01*
Y43093D01*
X763332Y44093D01*
X761332D01*
X760333Y43093D01*
Y41094D01*
X761332Y40094D01*
X767330Y45092D02*
Y44093D01*
X766331D01*
X768330D01*
X767330D01*
Y41094D01*
X768330Y40094D01*
X772329Y45092D02*
Y44093D01*
X771329D01*
X773328D01*
X772329D01*
Y41094D01*
X773328Y40094D01*
X777327D02*
X779326D01*
X780326Y41094D01*
Y43093D01*
X779326Y44093D01*
X777327D01*
X776327Y43093D01*
Y41094D01*
X777327Y40094D01*
X782326D02*
Y44093D01*
X783325D01*
X784325Y43093D01*
Y40094D01*
Y43093D01*
X785324Y44093D01*
X786324Y43093D01*
Y40094D01*
X794322Y46092D02*
Y40094D01*
X798320D01*
X801319Y44093D02*
X803319D01*
X804318Y43093D01*
Y40094D01*
X801319D01*
X800320Y41094D01*
X801319Y42094D01*
X804318D01*
X806318Y44093D02*
Y41094D01*
X807317Y40094D01*
X810316D01*
Y39094D01*
X809317Y38095D01*
X808317D01*
X810316Y40094D02*
Y44093D01*
X815315Y40094D02*
X813315D01*
X812316Y41094D01*
Y43093D01*
X813315Y44093D01*
X815315D01*
X816315Y43093D01*
Y42094D01*
X812316D01*
X818314Y44093D02*
Y40094D01*
Y42094D01*
X819314Y43093D01*
X820313Y44093D01*
X821313D01*
X682358Y31092D02*
X686356D01*
X684357D01*
Y25094D01*
X689356D02*
X691355D01*
X692355Y26094D01*
Y28093D01*
X691355Y29093D01*
X689356D01*
X688356Y28093D01*
Y26094D01*
X689356Y25094D01*
X694354Y23095D02*
Y29093D01*
X697353D01*
X698353Y28093D01*
Y26094D01*
X697353Y25094D01*
X694354D01*
X706350Y31092D02*
Y25094D01*
X710349D01*
X713348Y29093D02*
X715347D01*
X716347Y28093D01*
Y25094D01*
X713348D01*
X712348Y26094D01*
X713348Y27093D01*
X716347D01*
X718346Y29093D02*
Y26094D01*
X719346Y25094D01*
X722345D01*
Y24094D01*
X721345Y23095D01*
X720345D01*
X722345Y25094D02*
Y29093D01*
X727343Y25094D02*
X725344D01*
X724344Y26094D01*
Y28093D01*
X725344Y29093D01*
X727343D01*
X728343Y28093D01*
Y27093D01*
X724344D01*
X730342Y29093D02*
Y25094D01*
Y27093D01*
X731342Y28093D01*
X732342Y29093D01*
X733341D01*
X742338Y28093D02*
X746337D01*
X754334Y31092D02*
Y25094D01*
X757334D01*
X758333Y26094D01*
Y27093D01*
X757334Y28093D01*
X754334D01*
X757334D01*
X758333Y29093D01*
Y30092D01*
X757334Y31092D01*
X754334D01*
X761332Y25094D02*
X763332D01*
X764331Y26094D01*
Y28093D01*
X763332Y29093D01*
X761332D01*
X760333Y28093D01*
Y26094D01*
X761332Y25094D01*
X767330Y30092D02*
Y29093D01*
X766331D01*
X768330D01*
X767330D01*
Y26094D01*
X768330Y25094D01*
X772329Y30092D02*
Y29093D01*
X771329D01*
X773328D01*
X772329D01*
Y26094D01*
X773328Y25094D01*
X777327D02*
X779326D01*
X780326Y26094D01*
Y28093D01*
X779326Y29093D01*
X777327D01*
X776327Y28093D01*
Y26094D01*
X777327Y25094D01*
X782326D02*
Y29093D01*
X783325D01*
X784325Y28093D01*
Y25094D01*
Y28093D01*
X785324Y29093D01*
X786324Y28093D01*
Y25094D01*
X794322Y31092D02*
Y25094D01*
X798320D01*
X801319Y29093D02*
X803319D01*
X804318Y28093D01*
Y25094D01*
X801319D01*
X800320Y26094D01*
X801319Y27093D01*
X804318D01*
X806318Y29093D02*
Y26094D01*
X807317Y25094D01*
X810316D01*
Y24094D01*
X809317Y23095D01*
X808317D01*
X810316Y25094D02*
Y29093D01*
X815315Y25094D02*
X813315D01*
X812316Y26094D01*
Y28093D01*
X813315Y29093D01*
X815315D01*
X816315Y28093D01*
Y27093D01*
X812316D01*
X818314Y29093D02*
Y25094D01*
Y27093D01*
X819314Y28093D01*
X820313Y29093D01*
X821313D01*
X682358Y16092D02*
X686356D01*
X684357D01*
Y10094D01*
X689356D02*
X691355D01*
X692355Y11094D01*
Y13093D01*
X691355Y14093D01*
X689356D01*
X688356Y13093D01*
Y11094D01*
X689356Y10094D01*
X694354Y8095D02*
Y14093D01*
X697353D01*
X698353Y13093D01*
Y11094D01*
X697353Y10094D01*
X694354D01*
X706350Y16092D02*
Y10094D01*
X710349D01*
X713348Y14093D02*
X715347D01*
X716347Y13093D01*
Y10094D01*
X713348D01*
X712348Y11094D01*
X713348Y12094D01*
X716347D01*
X718346Y14093D02*
Y11094D01*
X719346Y10094D01*
X722345D01*
Y9094D01*
X721345Y8095D01*
X720345D01*
X722345Y10094D02*
Y14093D01*
X727343Y10094D02*
X725344D01*
X724344Y11094D01*
Y13093D01*
X725344Y14093D01*
X727343D01*
X728343Y13093D01*
Y12094D01*
X724344D01*
X730342Y14093D02*
Y10094D01*
Y12094D01*
X731342Y13093D01*
X732342Y14093D01*
X733341D01*
X742338Y13093D02*
X746337D01*
X754334Y16092D02*
Y10094D01*
X757334D01*
X758333Y11094D01*
Y12094D01*
X757334Y13093D01*
X754334D01*
X757334D01*
X758333Y14093D01*
Y15092D01*
X757334Y16092D01*
X754334D01*
X761332Y10094D02*
X763332D01*
X764331Y11094D01*
Y13093D01*
X763332Y14093D01*
X761332D01*
X760333Y13093D01*
Y11094D01*
X761332Y10094D01*
X767330Y15092D02*
Y14093D01*
X766331D01*
X768330D01*
X767330D01*
Y11094D01*
X768330Y10094D01*
X772329Y15092D02*
Y14093D01*
X771329D01*
X773328D01*
X772329D01*
Y11094D01*
X773328Y10094D01*
X777327D02*
X779326D01*
X780326Y11094D01*
Y13093D01*
X779326Y14093D01*
X777327D01*
X776327Y13093D01*
Y11094D01*
X777327Y10094D01*
X782326D02*
Y14093D01*
X783325D01*
X784325Y13093D01*
Y10094D01*
Y13093D01*
X785324Y14093D01*
X786324Y13093D01*
Y10094D01*
X794322Y16092D02*
Y10094D01*
X798320D01*
X801319Y14093D02*
X803319D01*
X804318Y13093D01*
Y10094D01*
X801319D01*
X800320Y11094D01*
X801319Y12094D01*
X804318D01*
X806318Y14093D02*
Y11094D01*
X807317Y10094D01*
X810316D01*
Y9094D01*
X809317Y8095D01*
X808317D01*
X810316Y10094D02*
Y14093D01*
X815315Y10094D02*
X813315D01*
X812316Y11094D01*
Y13093D01*
X813315Y14093D01*
X815315D01*
X816315Y13093D01*
Y12094D01*
X812316D01*
X818314Y14093D02*
Y10094D01*
Y12094D01*
X819314Y13093D01*
X820313Y14093D01*
X821313D01*
X612976Y105093D02*
X611977Y106092D01*
X609977D01*
X608978Y105093D01*
Y104093D01*
X609977Y103093D01*
X611977D01*
X612976Y102094D01*
Y101094D01*
X611977Y100094D01*
X609977D01*
X608978Y101094D01*
X614976Y100094D02*
X616975D01*
X615975D01*
Y106092D01*
X614976D01*
X620974Y100094D02*
X622973D01*
X623973Y101094D01*
Y103093D01*
X622973Y104093D01*
X620974D01*
X619974Y103093D01*
Y101094D01*
X620974Y100094D01*
X626972Y105093D02*
Y104093D01*
X625972D01*
X627971D01*
X626972D01*
Y101094D01*
X627971Y100094D01*
X612976Y90093D02*
X611977Y91092D01*
X609977D01*
X608978Y90093D01*
Y89093D01*
X609977Y88093D01*
X611977D01*
X612976Y87094D01*
Y86094D01*
X611977Y85094D01*
X609977D01*
X608978Y86094D01*
X614976Y85094D02*
X616975D01*
X615975D01*
Y91092D01*
X614976D01*
X620974Y85094D02*
X622973D01*
X623973Y86094D01*
Y88093D01*
X622973Y89093D01*
X620974D01*
X619974Y88093D01*
Y86094D01*
X620974Y85094D01*
X626972Y90093D02*
Y89093D01*
X625972D01*
X627971D01*
X626972D01*
Y86094D01*
X627971Y85094D01*
X608978Y70094D02*
Y76092D01*
X611977D01*
X612976Y75093D01*
Y73093D01*
X611977Y72093D01*
X608978D01*
X610977D02*
X612976Y70094D01*
X615975D02*
X617975D01*
X618974Y71094D01*
Y73093D01*
X617975Y74093D01*
X615975D01*
X614976Y73093D01*
Y71094D01*
X615975Y70094D01*
X620974Y74093D02*
Y71094D01*
X621973Y70094D01*
X624972D01*
Y74093D01*
X626972Y70094D02*
Y74093D01*
X629971D01*
X630970Y73093D01*
Y70094D01*
X636969Y76092D02*
Y70094D01*
X633969D01*
X632970Y71094D01*
Y73093D01*
X633969Y74093D01*
X636969D01*
X608978Y55094D02*
Y61092D01*
X611977D01*
X612976Y60093D01*
Y58093D01*
X611977Y57094D01*
X608978D01*
X610977D02*
X612976Y55094D01*
X615975D02*
X617975D01*
X618974Y56094D01*
Y58093D01*
X617975Y59093D01*
X615975D01*
X614976Y58093D01*
Y56094D01*
X615975Y55094D01*
X620974Y59093D02*
Y56094D01*
X621973Y55094D01*
X624972D01*
Y59093D01*
X626972Y55094D02*
Y59093D01*
X629971D01*
X630970Y58093D01*
Y55094D01*
X636969Y61092D02*
Y55094D01*
X633969D01*
X632970Y56094D01*
Y58093D01*
X633969Y59093D01*
X636969D01*
X608978Y40094D02*
Y46092D01*
X611977D01*
X612976Y45092D01*
Y43093D01*
X611977Y42094D01*
X608978D01*
X610977D02*
X612976Y40094D01*
X615975D02*
X617975D01*
X618974Y41094D01*
Y43093D01*
X617975Y44093D01*
X615975D01*
X614976Y43093D01*
Y41094D01*
X615975Y40094D01*
X620974Y44093D02*
Y41094D01*
X621973Y40094D01*
X624972D01*
Y44093D01*
X626972Y40094D02*
Y44093D01*
X629971D01*
X630970Y43093D01*
Y40094D01*
X636969Y46092D02*
Y40094D01*
X633969D01*
X632970Y41094D01*
Y43093D01*
X633969Y44093D01*
X636969D01*
X608978Y25094D02*
Y31092D01*
X611977D01*
X612976Y30092D01*
Y28093D01*
X611977Y27093D01*
X608978D01*
X610977D02*
X612976Y25094D01*
X615975D02*
X617975D01*
X618974Y26094D01*
Y28093D01*
X617975Y29093D01*
X615975D01*
X614976Y28093D01*
Y26094D01*
X615975Y25094D01*
X620974Y29093D02*
Y26094D01*
X621973Y25094D01*
X624972D01*
Y29093D01*
X626972Y25094D02*
Y29093D01*
X629971D01*
X630970Y28093D01*
Y25094D01*
X636969Y31092D02*
Y25094D01*
X633969D01*
X632970Y26094D01*
Y28093D01*
X633969Y29093D01*
X636969D01*
X608978Y10094D02*
Y16092D01*
X611977D01*
X612976Y15092D01*
Y13093D01*
X611977Y12094D01*
X608978D01*
X610977D02*
X612976Y10094D01*
X615975D02*
X617975D01*
X618974Y11094D01*
Y13093D01*
X617975Y14093D01*
X615975D01*
X614976Y13093D01*
Y11094D01*
X615975Y10094D01*
X620974Y14093D02*
Y11094D01*
X621973Y10094D01*
X624972D01*
Y14093D01*
X626972Y10094D02*
Y14093D01*
X629971D01*
X630970Y13093D01*
Y10094D01*
X636969Y16092D02*
Y10094D01*
X633969D01*
X632970Y11094D01*
Y13093D01*
X633969Y14093D01*
X636969D01*
X558390Y100094D02*
Y106092D01*
X561389D01*
X562389Y105093D01*
Y103093D01*
X561389Y102094D01*
X558390D01*
X564388Y106092D02*
X568387D01*
X566387D01*
Y100094D01*
X570386Y106092D02*
Y100094D01*
Y103093D01*
X574385D01*
Y106092D01*
Y100094D01*
X558390Y85094D02*
Y91092D01*
X561389D01*
X562389Y90093D01*
Y88093D01*
X561389Y87094D01*
X558390D01*
X564388Y91092D02*
X568387D01*
X566387D01*
Y85094D01*
X570386Y91092D02*
Y85094D01*
Y88093D01*
X574385D01*
Y91092D01*
Y85094D01*
X558390Y70094D02*
Y76092D01*
X562389Y70094D01*
Y76092D01*
X564388Y70094D02*
Y76092D01*
X567387D01*
X568387Y75093D01*
Y73093D01*
X567387Y72093D01*
X564388D01*
X570386Y76092D02*
X574385D01*
X572386D01*
Y70094D01*
X576384Y76092D02*
Y70094D01*
Y73093D01*
X580383D01*
Y76092D01*
Y70094D01*
X558390Y55094D02*
Y61092D01*
X562389Y55094D01*
Y61092D01*
X564388Y55094D02*
Y61092D01*
X567387D01*
X568387Y60093D01*
Y58093D01*
X567387Y57094D01*
X564388D01*
X570386Y61092D02*
X574385D01*
X572386D01*
Y55094D01*
X576384Y61092D02*
Y55094D01*
Y58093D01*
X580383D01*
Y61092D01*
Y55094D01*
X558390Y40094D02*
Y46092D01*
X561389D01*
X562389Y45092D01*
Y43093D01*
X561389Y42094D01*
X558390D01*
X564388Y46092D02*
X568387D01*
X566387D01*
Y40094D01*
X570386Y46092D02*
Y40094D01*
Y43093D01*
X574385D01*
Y46092D01*
Y40094D01*
X558390Y25094D02*
Y31092D01*
X561389D01*
X562389Y30092D01*
Y28093D01*
X561389Y27093D01*
X558390D01*
X564388Y31092D02*
X568387D01*
X566387D01*
Y25094D01*
X570386Y31092D02*
Y25094D01*
Y28093D01*
X574385D01*
Y31092D01*
Y25094D01*
X558390Y10094D02*
Y16092D01*
X561389D01*
X562389Y15092D01*
Y13093D01*
X561389Y12094D01*
X558390D01*
X564388Y16092D02*
X568387D01*
X566387D01*
Y10094D01*
X570386Y16092D02*
Y10094D01*
Y13093D01*
X574385D01*
Y16092D01*
Y10094D01*
X448422Y105093D02*
X449422Y106092D01*
X451421D01*
X452421Y105093D01*
Y101094D01*
X451421Y100094D01*
X449422D01*
X448422Y101094D01*
Y105093D01*
X454420Y100094D02*
Y101094D01*
X455420D01*
Y100094D01*
X454420D01*
X463417Y106092D02*
X461418Y105093D01*
X459418Y103093D01*
Y101094D01*
X460418Y100094D01*
X462418D01*
X463417Y101094D01*
Y102094D01*
X462418Y103093D01*
X459418D01*
X465416Y105093D02*
X466416Y106092D01*
X468416D01*
X469415Y105093D01*
Y101094D01*
X468416Y100094D01*
X466416D01*
X465416Y101094D01*
Y105093D01*
X471415D02*
X472414Y106092D01*
X474414D01*
X475413Y105093D01*
Y101094D01*
X474414Y100094D01*
X472414D01*
X471415Y101094D01*
Y105093D01*
X477413Y100094D02*
Y104093D01*
X478412D01*
X479412Y103093D01*
Y100094D01*
Y103093D01*
X480412Y104093D01*
X481411Y103093D01*
Y100094D01*
X483411D02*
Y104093D01*
X484410D01*
X485410Y103093D01*
Y100094D01*
Y103093D01*
X486410Y104093D01*
X487409Y103093D01*
Y100094D01*
X497406D02*
X495407Y102094D01*
Y104093D01*
X497406Y106092D01*
X504404Y100094D02*
X500405D01*
X504404Y104093D01*
Y105093D01*
X503404Y106092D01*
X501405D01*
X500405Y105093D01*
X506403D02*
X507403Y106092D01*
X509402D01*
X510402Y105093D01*
Y104093D01*
X509402Y103093D01*
X508403D01*
X509402D01*
X510402Y102094D01*
Y101094D01*
X509402Y100094D01*
X507403D01*
X506403Y101094D01*
X512401Y100094D02*
Y101094D01*
X513401D01*
Y100094D01*
X512401D01*
X521398Y106092D02*
X519399Y105093D01*
X517400Y103093D01*
Y101094D01*
X518399Y100094D01*
X520399D01*
X521398Y101094D01*
Y102094D01*
X520399Y103093D01*
X517400D01*
X527396Y100094D02*
X523398D01*
X527396Y104093D01*
Y105093D01*
X526397Y106092D01*
X524398D01*
X523398Y105093D01*
X529396Y100094D02*
Y104093D01*
X530396D01*
X531395Y103093D01*
Y100094D01*
Y103093D01*
X532395Y104093D01*
X533394Y103093D01*
Y100094D01*
X535394D02*
X537393D01*
X536394D01*
Y104093D01*
X535394D01*
X540392Y100094D02*
X542392D01*
X541392D01*
Y106092D01*
X540392D01*
X545391Y100094D02*
X547390Y102094D01*
Y104093D01*
X545391Y106092D01*
X448422Y90093D02*
X449422Y91092D01*
X451421D01*
X452421Y90093D01*
Y86094D01*
X451421Y85094D01*
X449422D01*
X448422Y86094D01*
Y90093D01*
X454420Y85094D02*
Y86094D01*
X455420D01*
Y85094D01*
X454420D01*
X463417Y91092D02*
X461418Y90093D01*
X459418Y88093D01*
Y86094D01*
X460418Y85094D01*
X462418D01*
X463417Y86094D01*
Y87094D01*
X462418Y88093D01*
X459418D01*
X465416Y90093D02*
X466416Y91092D01*
X468416D01*
X469415Y90093D01*
Y86094D01*
X468416Y85094D01*
X466416D01*
X465416Y86094D01*
Y90093D01*
X471415D02*
X472414Y91092D01*
X474414D01*
X475413Y90093D01*
Y86094D01*
X474414Y85094D01*
X472414D01*
X471415Y86094D01*
Y90093D01*
X477413Y85094D02*
Y89093D01*
X478412D01*
X479412Y88093D01*
Y85094D01*
Y88093D01*
X480412Y89093D01*
X481411Y88093D01*
Y85094D01*
X483411D02*
Y89093D01*
X484410D01*
X485410Y88093D01*
Y85094D01*
Y88093D01*
X486410Y89093D01*
X487409Y88093D01*
Y85094D01*
X497406D02*
X495407Y87094D01*
Y89093D01*
X497406Y91092D01*
X504404Y85094D02*
X500405D01*
X504404Y89093D01*
Y90093D01*
X503404Y91092D01*
X501405D01*
X500405Y90093D01*
X506403D02*
X507403Y91092D01*
X509402D01*
X510402Y90093D01*
Y89093D01*
X509402Y88093D01*
X508403D01*
X509402D01*
X510402Y87094D01*
Y86094D01*
X509402Y85094D01*
X507403D01*
X506403Y86094D01*
X512401Y85094D02*
Y86094D01*
X513401D01*
Y85094D01*
X512401D01*
X521398Y91092D02*
X519399Y90093D01*
X517400Y88093D01*
Y86094D01*
X518399Y85094D01*
X520399D01*
X521398Y86094D01*
Y87094D01*
X520399Y88093D01*
X517400D01*
X527396Y85094D02*
X523398D01*
X527396Y89093D01*
Y90093D01*
X526397Y91092D01*
X524398D01*
X523398Y90093D01*
X529396Y85094D02*
Y89093D01*
X530396D01*
X531395Y88093D01*
Y85094D01*
Y88093D01*
X532395Y89093D01*
X533394Y88093D01*
Y85094D01*
X535394D02*
X537393D01*
X536394D01*
Y89093D01*
X535394D01*
X540392Y85094D02*
X542392D01*
X541392D01*
Y91092D01*
X540392D01*
X545391Y85094D02*
X547390Y87094D01*
Y89093D01*
X545391Y91092D01*
X448422Y75093D02*
X449422Y76092D01*
X451421D01*
X452421Y75093D01*
Y71094D01*
X451421Y70094D01*
X449422D01*
X448422Y71094D01*
Y75093D01*
X454420Y70094D02*
Y71094D01*
X455420D01*
Y70094D01*
X454420D01*
X463417Y76092D02*
X461418Y75093D01*
X459418Y73093D01*
Y71094D01*
X460418Y70094D01*
X462418D01*
X463417Y71094D01*
Y72093D01*
X462418Y73093D01*
X459418D01*
X469415Y70094D02*
X465416D01*
X469415Y74093D01*
Y75093D01*
X468416Y76092D01*
X466416D01*
X465416Y75093D01*
X471415D02*
X472414Y76092D01*
X474414D01*
X475413Y75093D01*
Y71094D01*
X474414Y70094D01*
X472414D01*
X471415Y71094D01*
Y75093D01*
X477413Y70094D02*
Y74093D01*
X478412D01*
X479412Y73093D01*
Y70094D01*
Y73093D01*
X480412Y74093D01*
X481411Y73093D01*
Y70094D01*
X483411D02*
Y74093D01*
X484410D01*
X485410Y73093D01*
Y70094D01*
Y73093D01*
X486410Y74093D01*
X487409Y73093D01*
Y70094D01*
X497406D02*
X495407Y72093D01*
Y74093D01*
X497406Y76092D01*
X504404Y70094D02*
X500405D01*
X504404Y74093D01*
Y75093D01*
X503404Y76092D01*
X501405D01*
X500405Y75093D01*
X509402Y70094D02*
Y76092D01*
X506403Y73093D01*
X510402D01*
X512401Y70094D02*
Y71094D01*
X513401D01*
Y70094D01*
X512401D01*
X520399D02*
Y76092D01*
X517400Y73093D01*
X521398D01*
X523398Y70094D02*
X525397D01*
X524398D01*
Y76092D01*
X523398Y75093D01*
X528396Y70094D02*
Y74093D01*
X529396D01*
X530396Y73093D01*
Y70094D01*
Y73093D01*
X531395Y74093D01*
X532395Y73093D01*
Y70094D01*
X534394D02*
X536394D01*
X535394D01*
Y74093D01*
X534394D01*
X539393Y70094D02*
X541392D01*
X540392D01*
Y76092D01*
X539393D01*
X544391Y70094D02*
X546390Y72093D01*
Y74093D01*
X544391Y76092D01*
X452421Y55094D02*
X448422D01*
X452421Y59093D01*
Y60093D01*
X451421Y61092D01*
X449422D01*
X448422Y60093D01*
X454420Y55094D02*
Y56094D01*
X455420D01*
Y55094D01*
X454420D01*
X459418D02*
X461418D01*
X460418D01*
Y61092D01*
X459418Y60093D01*
X464417D02*
X465416Y61092D01*
X467416D01*
X468416Y60093D01*
Y56094D01*
X467416Y55094D01*
X465416D01*
X464417Y56094D01*
Y60093D01*
X470415D02*
X471415Y61092D01*
X473414D01*
X474414Y60093D01*
Y56094D01*
X473414Y55094D01*
X471415D01*
X470415Y56094D01*
Y60093D01*
X476413Y55094D02*
Y59093D01*
X477413D01*
X478412Y58093D01*
Y55094D01*
Y58093D01*
X479412Y59093D01*
X480412Y58093D01*
Y55094D01*
X482411D02*
Y59093D01*
X483411D01*
X484410Y58093D01*
Y55094D01*
Y58093D01*
X485410Y59093D01*
X486410Y58093D01*
Y55094D01*
X496407D02*
X494407Y57094D01*
Y59093D01*
X496407Y61092D01*
X499405Y60093D02*
X500405Y61092D01*
X502405D01*
X503404Y60093D01*
Y59093D01*
X502405Y58093D01*
X503404Y57094D01*
Y56094D01*
X502405Y55094D01*
X500405D01*
X499405Y56094D01*
Y57094D01*
X500405Y58093D01*
X499405Y59093D01*
Y60093D01*
X500405Y58093D02*
X502405D01*
X509402Y55094D02*
X505404D01*
X509402Y59093D01*
Y60093D01*
X508403Y61092D01*
X506403D01*
X505404Y60093D01*
X511402Y55094D02*
Y56094D01*
X512401D01*
Y55094D01*
X511402D01*
X520399Y61092D02*
X518399Y60093D01*
X516400Y58093D01*
Y56094D01*
X517400Y55094D01*
X519399D01*
X520399Y56094D01*
Y57094D01*
X519399Y58093D01*
X516400D01*
X522398Y60093D02*
X523398Y61092D01*
X525397D01*
X526397Y60093D01*
Y59093D01*
X525397Y58093D01*
X526397Y57094D01*
Y56094D01*
X525397Y55094D01*
X523398D01*
X522398Y56094D01*
Y57094D01*
X523398Y58093D01*
X522398Y59093D01*
Y60093D01*
X523398Y58093D02*
X525397D01*
X528396Y55094D02*
Y59093D01*
X529396D01*
X530396Y58093D01*
Y55094D01*
Y58093D01*
X531395Y59093D01*
X532395Y58093D01*
Y55094D01*
X534394D02*
X536394D01*
X535394D01*
Y59093D01*
X534394D01*
X539393Y55094D02*
X541392D01*
X540392D01*
Y61092D01*
X539393D01*
X544391Y55094D02*
X546390Y57094D01*
Y59093D01*
X544391Y61092D01*
X448422Y45092D02*
X449422Y46092D01*
X451421D01*
X452421Y45092D01*
Y41094D01*
X451421Y40094D01*
X449422D01*
X448422Y41094D01*
Y45092D01*
X454420Y40094D02*
Y41094D01*
X455420D01*
Y40094D01*
X454420D01*
X459418Y41094D02*
X460418Y40094D01*
X462418D01*
X463417Y41094D01*
Y45092D01*
X462418Y46092D01*
X460418D01*
X459418Y45092D01*
Y44093D01*
X460418Y43093D01*
X463417D01*
X465416Y45092D02*
X466416Y46092D01*
X468416D01*
X469415Y45092D01*
Y41094D01*
X468416Y40094D01*
X466416D01*
X465416Y41094D01*
Y45092D01*
X471415D02*
X472414Y46092D01*
X474414D01*
X475413Y45092D01*
Y41094D01*
X474414Y40094D01*
X472414D01*
X471415Y41094D01*
Y45092D01*
X477413Y40094D02*
Y44093D01*
X478412D01*
X479412Y43093D01*
Y40094D01*
Y43093D01*
X480412Y44093D01*
X481411Y43093D01*
Y40094D01*
X483411D02*
Y44093D01*
X484410D01*
X485410Y43093D01*
Y40094D01*
Y43093D01*
X486410Y44093D01*
X487409Y43093D01*
Y40094D01*
X497406D02*
X495407Y42094D01*
Y44093D01*
X497406Y46092D01*
X500405Y45092D02*
X501405Y46092D01*
X503404D01*
X504404Y45092D01*
Y44093D01*
X503404Y43093D01*
X502405D01*
X503404D01*
X504404Y42094D01*
Y41094D01*
X503404Y40094D01*
X501405D01*
X500405Y41094D01*
X510402Y46092D02*
X506403D01*
Y43093D01*
X508403Y44093D01*
X509402D01*
X510402Y43093D01*
Y41094D01*
X509402Y40094D01*
X507403D01*
X506403Y41094D01*
X512401Y40094D02*
Y41094D01*
X513401D01*
Y40094D01*
X512401D01*
X520399D02*
Y46092D01*
X517400Y43093D01*
X521398D01*
X523398Y45092D02*
X524398Y46092D01*
X526397D01*
X527396Y45092D01*
Y44093D01*
X526397Y43093D01*
X525397D01*
X526397D01*
X527396Y42094D01*
Y41094D01*
X526397Y40094D01*
X524398D01*
X523398Y41094D01*
X529396Y40094D02*
Y44093D01*
X530396D01*
X531395Y43093D01*
Y40094D01*
Y43093D01*
X532395Y44093D01*
X533394Y43093D01*
Y40094D01*
X535394D02*
X537393D01*
X536394D01*
Y44093D01*
X535394D01*
X540392Y40094D02*
X542392D01*
X541392D01*
Y46092D01*
X540392D01*
X545391Y40094D02*
X547390Y42094D01*
Y44093D01*
X545391Y46092D01*
X448422Y25094D02*
X450421D01*
X449422D01*
Y31092D01*
X448422Y30092D01*
X453420Y25094D02*
Y26094D01*
X454420D01*
Y25094D01*
X453420D01*
X458419Y30092D02*
X459418Y31092D01*
X461418D01*
X462418Y30092D01*
Y26094D01*
X461418Y25094D01*
X459418D01*
X458419Y26094D01*
Y30092D01*
X464417D02*
X465416Y31092D01*
X467416D01*
X468416Y30092D01*
Y26094D01*
X467416Y25094D01*
X465416D01*
X464417Y26094D01*
Y30092D01*
X470415D02*
X471415Y31092D01*
X473414D01*
X474414Y30092D01*
Y26094D01*
X473414Y25094D01*
X471415D01*
X470415Y26094D01*
Y30092D01*
X476413Y25094D02*
Y29093D01*
X477413D01*
X478412Y28093D01*
Y25094D01*
Y28093D01*
X479412Y29093D01*
X480412Y28093D01*
Y25094D01*
X482411D02*
Y29093D01*
X483411D01*
X484410Y28093D01*
Y25094D01*
Y28093D01*
X485410Y29093D01*
X486410Y28093D01*
Y25094D01*
X496407D02*
X494407Y27093D01*
Y29093D01*
X496407Y31092D01*
X499405Y30092D02*
X500405Y31092D01*
X502405D01*
X503404Y30092D01*
Y29093D01*
X502405Y28093D01*
X501405D01*
X502405D01*
X503404Y27093D01*
Y26094D01*
X502405Y25094D01*
X500405D01*
X499405Y26094D01*
X505404D02*
X506403Y25094D01*
X508403D01*
X509402Y26094D01*
Y30092D01*
X508403Y31092D01*
X506403D01*
X505404Y30092D01*
Y29093D01*
X506403Y28093D01*
X509402D01*
X511402Y25094D02*
Y26094D01*
X512401D01*
Y25094D01*
X511402D01*
X516400Y30092D02*
X517400Y31092D01*
X519399D01*
X520399Y30092D01*
Y29093D01*
X519399Y28093D01*
X518399D01*
X519399D01*
X520399Y27093D01*
Y26094D01*
X519399Y25094D01*
X517400D01*
X516400Y26094D01*
X522398Y31092D02*
X526397D01*
Y30092D01*
X522398Y26094D01*
Y25094D01*
X528396D02*
Y29093D01*
X529396D01*
X530396Y28093D01*
Y25094D01*
Y28093D01*
X531395Y29093D01*
X532395Y28093D01*
Y25094D01*
X534394D02*
X536394D01*
X535394D01*
Y29093D01*
X534394D01*
X539393Y25094D02*
X541392D01*
X540392D01*
Y31092D01*
X539393D01*
X544391Y25094D02*
X546390Y27093D01*
Y29093D01*
X544391Y31092D01*
X448422Y15092D02*
X449422Y16092D01*
X451421D01*
X452421Y15092D01*
Y11094D01*
X451421Y10094D01*
X449422D01*
X448422Y11094D01*
Y15092D01*
X454420Y10094D02*
Y11094D01*
X455420D01*
Y10094D01*
X454420D01*
X459418Y15092D02*
X460418Y16092D01*
X462418D01*
X463417Y15092D01*
Y14093D01*
X462418Y13093D01*
X461418D01*
X462418D01*
X463417Y12094D01*
Y11094D01*
X462418Y10094D01*
X460418D01*
X459418Y11094D01*
X465416Y15092D02*
X466416Y16092D01*
X468416D01*
X469415Y15092D01*
Y11094D01*
X468416Y10094D01*
X466416D01*
X465416Y11094D01*
Y15092D01*
X471415D02*
X472414Y16092D01*
X474414D01*
X475413Y15092D01*
Y11094D01*
X474414Y10094D01*
X472414D01*
X471415Y11094D01*
Y15092D01*
X477413Y10094D02*
Y14093D01*
X478412D01*
X479412Y13093D01*
Y10094D01*
Y13093D01*
X480412Y14093D01*
X481411Y13093D01*
Y10094D01*
X483411D02*
Y14093D01*
X484410D01*
X485410Y13093D01*
Y10094D01*
Y13093D01*
X486410Y14093D01*
X487409Y13093D01*
Y10094D01*
X497406D02*
X495407Y12094D01*
Y14093D01*
X497406Y16092D01*
X500405Y10094D02*
X502405D01*
X501405D01*
Y16092D01*
X500405Y15092D01*
X505404Y10094D02*
X507403D01*
X506403D01*
Y16092D01*
X505404Y15092D01*
X510402Y10094D02*
Y11094D01*
X511402D01*
Y10094D01*
X510402D01*
X515400Y15092D02*
X516400Y16092D01*
X518399D01*
X519399Y15092D01*
Y14093D01*
X518399Y13093D01*
X519399Y12094D01*
Y11094D01*
X518399Y10094D01*
X516400D01*
X515400Y11094D01*
Y12094D01*
X516400Y13093D01*
X515400Y14093D01*
Y15092D01*
X516400Y13093D02*
X518399D01*
X521398Y10094D02*
X523398D01*
X522398D01*
Y16092D01*
X521398Y15092D01*
X526397Y10094D02*
Y14093D01*
X527396D01*
X528396Y13093D01*
Y10094D01*
Y13093D01*
X529396Y14093D01*
X530396Y13093D01*
Y10094D01*
X532395D02*
X534394D01*
X533394D01*
Y14093D01*
X532395D01*
X537393Y10094D02*
X539393D01*
X538393D01*
Y16092D01*
X537393D01*
X542392Y10094D02*
X544391Y12094D01*
Y14093D01*
X542392Y16092D01*
X389438Y-4906D02*
X391437D01*
X390437D01*
Y1092D01*
X389438Y93D01*
X394436D02*
X395436Y1092D01*
X397435D01*
X398435Y93D01*
Y-907D01*
X397435Y-1907D01*
X398435Y-2906D01*
Y-3906D01*
X397435Y-4906D01*
X395436D01*
X394436Y-3906D01*
Y-2906D01*
X395436Y-1907D01*
X394436Y-907D01*
Y93D01*
X395436Y-1907D02*
X397435D01*
X400434Y-3906D02*
X401434Y-4906D01*
X403433D01*
X404433Y-3906D01*
Y93D01*
X403433Y1092D01*
X401434D01*
X400434Y93D01*
Y-907D01*
X401434Y-1907D01*
X404433D01*
X412430Y1092D02*
X416429D01*
X414430D01*
Y-4906D01*
X419428D02*
X421427D01*
X422427Y-3906D01*
Y-1907D01*
X421427Y-907D01*
X419428D01*
X418428Y-1907D01*
Y-3906D01*
X419428Y-4906D01*
X425426Y93D02*
Y-907D01*
X424426D01*
X426426D01*
X425426D01*
Y-3906D01*
X426426Y-4906D01*
X430424Y-907D02*
X432424D01*
X433423Y-1907D01*
Y-4906D01*
X430424D01*
X429425Y-3906D01*
X430424Y-2906D01*
X433423D01*
X435423Y-4906D02*
X437422D01*
X436422D01*
Y1092D01*
X435423D01*
X393436Y100094D02*
X389438D01*
X393436Y104093D01*
Y105093D01*
X392437Y106092D01*
X390437D01*
X389438Y105093D01*
X393436Y85094D02*
X389438D01*
X393436Y89093D01*
Y90093D01*
X392437Y91092D01*
X390437D01*
X389438Y90093D01*
X393436Y70094D02*
X389438D01*
X393436Y74093D01*
Y75093D01*
X392437Y76092D01*
X390437D01*
X389438Y75093D01*
Y60093D02*
X390437Y61092D01*
X392437D01*
X393436Y60093D01*
Y59093D01*
X392437Y58093D01*
X391437D01*
X392437D01*
X393436Y57094D01*
Y56094D01*
X392437Y55094D01*
X390437D01*
X389438Y56094D01*
Y40094D02*
X391437D01*
X390437D01*
Y46092D01*
X389438Y45092D01*
X394436D02*
X395436Y46092D01*
X397435D01*
X398435Y45092D01*
Y41094D01*
X397435Y40094D01*
X395436D01*
X394436Y41094D01*
Y45092D01*
X389438Y25094D02*
X391437D01*
X390437D01*
Y31092D01*
X389438Y30092D01*
X394436D02*
X395436Y31092D01*
X397435D01*
X398435Y30092D01*
Y26094D01*
X397435Y25094D01*
X395436D01*
X394436Y26094D01*
Y30092D01*
X389438Y10094D02*
X391437D01*
X390437D01*
Y16092D01*
X389438Y15092D01*
X398435Y16092D02*
X396435Y15092D01*
X394436Y13093D01*
Y11094D01*
X395436Y10094D01*
X397435D01*
X398435Y11094D01*
Y12094D01*
X397435Y13093D01*
X394436D01*
X400434Y15092D02*
X401434Y16092D01*
X403433D01*
X404433Y15092D01*
Y11094D01*
X403433Y10094D01*
X401434D01*
X400434Y11094D01*
Y15092D01*
X517397Y-27401D02*
X521396D01*
X517397Y-25402D02*
X521396D01*
X529393Y-29401D02*
Y-23403D01*
X532392D01*
X533392Y-24402D01*
Y-26402D01*
X532392Y-27401D01*
X529393D01*
X531392D02*
X533392Y-29401D01*
X536391D02*
X538390D01*
X539390Y-28401D01*
Y-26402D01*
X538390Y-25402D01*
X536391D01*
X535391Y-26402D01*
Y-28401D01*
X536391Y-29401D01*
X541389Y-25402D02*
Y-28401D01*
X542389Y-29401D01*
X545388D01*
Y-25402D01*
X548387Y-24402D02*
Y-25402D01*
X547387D01*
X549387D01*
X548387D01*
Y-28401D01*
X549387Y-29401D01*
X555385D02*
X553385D01*
X552386Y-28401D01*
Y-26402D01*
X553385Y-25402D01*
X555385D01*
X556384Y-26402D01*
Y-27401D01*
X552386D01*
X562382Y-23403D02*
Y-29401D01*
X559383D01*
X558384Y-28401D01*
Y-26402D01*
X559383Y-25402D01*
X562382D01*
X570380Y-29401D02*
Y-23403D01*
X573379D01*
X574378Y-24402D01*
Y-26402D01*
X573379Y-27401D01*
X570380D01*
X577378Y-25402D02*
X579377D01*
X580377Y-26402D01*
Y-29401D01*
X577378D01*
X576378Y-28401D01*
X577378Y-27401D01*
X580377D01*
X583376Y-24402D02*
Y-25402D01*
X582376D01*
X584375D01*
X583376D01*
Y-28401D01*
X584375Y-29401D01*
X587374Y-23403D02*
Y-29401D01*
Y-26402D01*
X588374Y-25402D01*
X590373D01*
X591373Y-26402D01*
Y-29401D01*
X599370Y-23403D02*
Y-29401D01*
X603369D01*
X608367D02*
X606368D01*
X605369Y-28401D01*
Y-26402D01*
X606368Y-25402D01*
X608367D01*
X609367Y-26402D01*
Y-27401D01*
X605369D01*
X611367Y-29401D02*
Y-25402D01*
X614366D01*
X615365Y-26402D01*
Y-29401D01*
X619364Y-31400D02*
X620364D01*
X621363Y-30400D01*
Y-25402D01*
X618364D01*
X617365Y-26402D01*
Y-28401D01*
X618364Y-29401D01*
X621363D01*
X624362Y-24402D02*
Y-25402D01*
X623363D01*
X625362D01*
X624362D01*
Y-28401D01*
X625362Y-29401D01*
X628361Y-23403D02*
Y-29401D01*
Y-26402D01*
X629361Y-25402D01*
X631360D01*
X632360Y-26402D01*
Y-29401D01*
X640357Y-26402D02*
X644356D01*
X642356Y-24402D02*
Y-28401D01*
X652353Y-23403D02*
X656352D01*
X654353D01*
Y-29401D01*
X659351D02*
X661350D01*
X662350Y-28401D01*
Y-26402D01*
X661350Y-25402D01*
X659351D01*
X658351Y-26402D01*
Y-28401D01*
X659351Y-29401D01*
X665349D02*
X667348D01*
X668348Y-28401D01*
Y-26402D01*
X667348Y-25402D01*
X665349D01*
X664349Y-26402D01*
Y-28401D01*
X665349Y-29401D01*
X670347D02*
X672347D01*
X671347D01*
Y-23403D01*
X670347D01*
X685343Y-24402D02*
X684343Y-23403D01*
X682344D01*
X681344Y-24402D01*
Y-25402D01*
X682344Y-26402D01*
X684343D01*
X685343Y-27401D01*
Y-28401D01*
X684343Y-29401D01*
X682344D01*
X681344Y-28401D01*
X687342Y-29401D02*
X689341D01*
X688342D01*
Y-25402D01*
X687342D01*
X692340D02*
X696339D01*
X692340Y-29401D01*
X696339D01*
X701337D02*
X699338D01*
X698338Y-28401D01*
Y-26402D01*
X699338Y-25402D01*
X701337D01*
X702337Y-26402D01*
Y-27401D01*
X698338D01*
X710334D02*
X714333D01*
X710334Y-25402D02*
X714333D01*
X726329Y-24402D02*
X725330Y-23403D01*
X723330D01*
X722331Y-24402D01*
Y-25402D01*
X723330Y-26402D01*
X725330D01*
X726329Y-27401D01*
Y-28401D01*
X725330Y-29401D01*
X723330D01*
X722331Y-28401D01*
X728329Y-29401D02*
X730328D01*
X729328D01*
Y-23403D01*
X728329D01*
X734327Y-29401D02*
X736326D01*
X737326Y-28401D01*
Y-26402D01*
X736326Y-25402D01*
X734327D01*
X733327Y-26402D01*
Y-28401D01*
X734327Y-29401D01*
X740325Y-24402D02*
Y-25402D01*
X739325D01*
X741325D01*
X740325D01*
Y-28401D01*
X741325Y-29401D01*
X750322D02*
X752321D01*
X751321D01*
Y-23403D01*
X750322D01*
X758319Y-29401D02*
X756320D01*
X755320Y-28401D01*
Y-26402D01*
X756320Y-25402D01*
X758319D01*
X759319Y-26402D01*
Y-27401D01*
X755320D01*
X761318Y-29401D02*
Y-25402D01*
X764317D01*
X765317Y-26402D01*
Y-29401D01*
X769315Y-31400D02*
X770315D01*
X771315Y-30400D01*
Y-25402D01*
X768316D01*
X767316Y-26402D01*
Y-28401D01*
X768316Y-29401D01*
X771315D01*
X774314Y-24402D02*
Y-25402D01*
X773314D01*
X775314D01*
X774314D01*
Y-28401D01*
X775314Y-29401D01*
X778312Y-23403D02*
Y-29401D01*
Y-26402D01*
X779312Y-25402D01*
X781312D01*
X782311Y-26402D01*
Y-29401D01*
X791308Y-25402D02*
X793308D01*
X794307Y-26402D01*
Y-29401D01*
X791308D01*
X790309Y-28401D01*
X791308Y-27401D01*
X794307D01*
X796307Y-29401D02*
X799306D01*
X800305Y-28401D01*
X799306Y-27401D01*
X797306D01*
X796307Y-26402D01*
X797306Y-25402D01*
X800305D01*
X812302Y-23403D02*
Y-29401D01*
X809303D01*
X808303Y-28401D01*
Y-26402D01*
X809303Y-25402D01*
X812302D01*
X817300Y-29401D02*
X815301D01*
X814301Y-28401D01*
Y-26402D01*
X815301Y-25402D01*
X817300D01*
X818300Y-26402D01*
Y-27401D01*
X814301D01*
X821299Y-29401D02*
Y-24402D01*
Y-26402D01*
X820299D01*
X822298D01*
X821299D01*
Y-24402D01*
X822298Y-23403D01*
X825297Y-29401D02*
X827297D01*
X826297D01*
Y-25402D01*
X825297D01*
X830296Y-29401D02*
Y-25402D01*
X833295D01*
X834294Y-26402D01*
Y-29401D01*
X839293D02*
X837293D01*
X836294Y-28401D01*
Y-26402D01*
X837293Y-25402D01*
X839293D01*
X840292Y-26402D01*
Y-27401D01*
X836294D01*
X846290Y-23403D02*
Y-29401D01*
X843291D01*
X842292Y-28401D01*
Y-26402D01*
X843291Y-25402D01*
X846290D01*
X854288Y-29401D02*
X856287D01*
X855288D01*
Y-25402D01*
X854288D01*
X859286Y-29401D02*
Y-25402D01*
X862285D01*
X863285Y-26402D01*
Y-29401D01*
X872282Y-24402D02*
Y-25402D01*
X871282D01*
X873282D01*
X872282D01*
Y-28401D01*
X873282Y-29401D01*
X876281Y-23403D02*
Y-29401D01*
Y-26402D01*
X877281Y-25402D01*
X879280D01*
X880280Y-26402D01*
Y-29401D01*
X885278D02*
X883279D01*
X882279Y-28401D01*
Y-26402D01*
X883279Y-25402D01*
X885278D01*
X886278Y-26402D01*
Y-27401D01*
X882279D01*
X894275Y-29401D02*
Y-23403D01*
X897274D01*
X898274Y-24402D01*
Y-26402D01*
X897274Y-27401D01*
X894275D01*
X904272Y-24402D02*
X903272Y-23403D01*
X901273D01*
X900273Y-24402D01*
Y-28401D01*
X901273Y-29401D01*
X903272D01*
X904272Y-28401D01*
X906271Y-23403D02*
Y-29401D01*
X909270D01*
X910270Y-28401D01*
Y-27401D01*
X909270Y-26402D01*
X906271D01*
X909270D01*
X910270Y-25402D01*
Y-24402D01*
X909270Y-23403D01*
X906271D01*
X918267Y-29401D02*
X920267D01*
X919267D01*
Y-23403D01*
X918267D01*
X924265Y-25402D02*
X926265D01*
X927264Y-26402D01*
Y-29401D01*
X924265D01*
X923266Y-28401D01*
X924265Y-27401D01*
X927264D01*
X929264Y-25402D02*
Y-28401D01*
X930263Y-29401D01*
X933262D01*
Y-30400D01*
X932263Y-31400D01*
X931263D01*
X933262Y-29401D02*
Y-25402D01*
X936261Y-29401D02*
X938261D01*
X939260Y-28401D01*
Y-26402D01*
X938261Y-25402D01*
X936261D01*
X935262Y-26402D01*
Y-28401D01*
X936261Y-29401D01*
X941260Y-25402D02*
Y-28401D01*
X942260Y-29401D01*
X945259D01*
Y-25402D01*
X948258Y-24402D02*
Y-25402D01*
X947258D01*
X949257D01*
X948258D01*
Y-28401D01*
X949257Y-29401D01*
X552386Y-17404D02*
X556384D01*
X552386Y-15405D02*
X556384D01*
X568380Y-14405D02*
X567381Y-13405D01*
X565381D01*
X564382Y-14405D01*
Y-18404D01*
X565381Y-19403D01*
X567381D01*
X568380Y-18404D01*
X571380Y-15405D02*
X573379D01*
X574378Y-16404D01*
Y-19403D01*
X571380D01*
X570380Y-18404D01*
X571380Y-17404D01*
X574378D01*
X576378Y-19403D02*
X578377D01*
X577378D01*
Y-13405D01*
X576378D01*
X585375Y-15405D02*
X582376D01*
X581376Y-16404D01*
Y-18404D01*
X582376Y-19403D01*
X585375D01*
X587374Y-15405D02*
Y-18404D01*
X588374Y-19403D01*
X591373D01*
Y-15405D01*
X593372Y-19403D02*
X595372D01*
X594372D01*
Y-13405D01*
X593372D01*
X599370Y-15405D02*
X601370D01*
X602369Y-16404D01*
Y-19403D01*
X599370D01*
X598371Y-18404D01*
X599370Y-17404D01*
X602369D01*
X605369Y-14405D02*
Y-15405D01*
X604369D01*
X606368D01*
X605369D01*
Y-18404D01*
X606368Y-19403D01*
X612366D02*
X610367D01*
X609367Y-18404D01*
Y-16404D01*
X610367Y-15405D01*
X612366D01*
X613366Y-16404D01*
Y-17404D01*
X609367D01*
X619364Y-13405D02*
Y-19403D01*
X616365D01*
X615365Y-18404D01*
Y-16404D01*
X616365Y-15405D01*
X619364D01*
X628361Y-19403D02*
Y-14405D01*
Y-16404D01*
X627361D01*
X629361D01*
X628361D01*
Y-14405D01*
X629361Y-13405D01*
X632360Y-15405D02*
Y-19403D01*
Y-17404D01*
X633359Y-16404D01*
X634359Y-15405D01*
X635359D01*
X639358Y-19403D02*
X641357D01*
X642356Y-18404D01*
Y-16404D01*
X641357Y-15405D01*
X639358D01*
X638358Y-16404D01*
Y-18404D01*
X639358Y-19403D01*
X644356D02*
Y-15405D01*
X645356D01*
X646355Y-16404D01*
Y-19403D01*
Y-16404D01*
X647355Y-15405D01*
X648355Y-16404D01*
Y-19403D01*
X657352Y-14405D02*
Y-15405D01*
X656352D01*
X658351D01*
X657352D01*
Y-18404D01*
X658351Y-19403D01*
X662350D02*
X664349D01*
X665349Y-18404D01*
Y-16404D01*
X664349Y-15405D01*
X662350D01*
X661350Y-16404D01*
Y-18404D01*
X662350Y-19403D01*
X668348D02*
X670347D01*
X671347Y-18404D01*
Y-16404D01*
X670347Y-15405D01*
X668348D01*
X667348Y-16404D01*
Y-18404D01*
X668348Y-19403D01*
X673347D02*
X675346D01*
X674346D01*
Y-13405D01*
X673347D01*
X684343Y-19403D02*
X687342D01*
X688342Y-18404D01*
X687342Y-17404D01*
X685343D01*
X684343Y-16404D01*
X685343Y-15405D01*
X688342D01*
X691341Y-14405D02*
Y-15405D01*
X690341D01*
X692340D01*
X691341D01*
Y-18404D01*
X692340Y-19403D01*
X696339Y-15405D02*
X698338D01*
X699338Y-16404D01*
Y-19403D01*
X696339D01*
X695339Y-18404D01*
X696339Y-17404D01*
X699338D01*
X701337Y-15405D02*
Y-19403D01*
Y-17404D01*
X702337Y-16404D01*
X703337Y-15405D01*
X704337D01*
X708335Y-14405D02*
Y-15405D01*
X707336D01*
X709335D01*
X708335D01*
Y-18404D01*
X709335Y-19403D01*
X722331Y-15405D02*
X719332D01*
X718332Y-16404D01*
Y-18404D01*
X719332Y-19403D01*
X722331D01*
X727329D02*
X725330D01*
X724330Y-18404D01*
Y-16404D01*
X725330Y-15405D01*
X727329D01*
X728329Y-16404D01*
Y-17404D01*
X724330D01*
X730328Y-19403D02*
Y-15405D01*
X733327D01*
X734327Y-16404D01*
Y-19403D01*
X737326Y-14405D02*
Y-15405D01*
X736326D01*
X738326D01*
X737326D01*
Y-18404D01*
X738326Y-19403D01*
X741325Y-15405D02*
Y-19403D01*
Y-17404D01*
X742324Y-16404D01*
X743324Y-15405D01*
X744323D01*
X750322Y-19403D02*
X748322D01*
X747323Y-18404D01*
Y-16404D01*
X748322Y-15405D01*
X750322D01*
X751321Y-16404D01*
Y-17404D01*
X747323D01*
X759319Y-21403D02*
Y-15405D01*
X762318D01*
X763317Y-16404D01*
Y-18404D01*
X762318Y-19403D01*
X759319D01*
X766316D02*
X768316D01*
X769315Y-18404D01*
Y-16404D01*
X768316Y-15405D01*
X766316D01*
X765317Y-16404D01*
Y-18404D01*
X766316Y-19403D01*
X771315D02*
X774314D01*
X775314Y-18404D01*
X774314Y-17404D01*
X772315D01*
X771315Y-16404D01*
X772315Y-15405D01*
X775314D01*
X777313Y-19403D02*
X779312D01*
X778312D01*
Y-15405D01*
X777313D01*
X783311Y-14405D02*
Y-15405D01*
X782311D01*
X784311D01*
X783311D01*
Y-18404D01*
X784311Y-19403D01*
X787310D02*
X789309D01*
X788309D01*
Y-15405D01*
X787310D01*
X793308Y-19403D02*
X795307D01*
X796307Y-18404D01*
Y-16404D01*
X795307Y-15405D01*
X793308D01*
X792308Y-16404D01*
Y-18404D01*
X793308Y-19403D01*
X798306D02*
Y-15405D01*
X801305D01*
X802305Y-16404D01*
Y-19403D01*
X811302Y-14405D02*
Y-15405D01*
X810302D01*
X812302D01*
X811302D01*
Y-18404D01*
X812302Y-19403D01*
X816300D02*
X818300D01*
X819299Y-18404D01*
Y-16404D01*
X818300Y-15405D01*
X816300D01*
X815301Y-16404D01*
Y-18404D01*
X816300Y-19403D01*
X828296Y-14405D02*
Y-15405D01*
X827297D01*
X829296D01*
X828296D01*
Y-18404D01*
X829296Y-19403D01*
X833295D02*
X835294D01*
X836294Y-18404D01*
Y-16404D01*
X835294Y-15405D01*
X833295D01*
X832295Y-16404D01*
Y-18404D01*
X833295Y-19403D01*
X839293D02*
X841292D01*
X842292Y-18404D01*
Y-16404D01*
X841292Y-15405D01*
X839293D01*
X838293Y-16404D01*
Y-18404D01*
X839293Y-19403D01*
X844291D02*
X846290D01*
X845291D01*
Y-13405D01*
X844291D01*
X858287Y-19403D02*
X856287D01*
X855288Y-18404D01*
Y-16404D01*
X856287Y-15405D01*
X858287D01*
X859286Y-16404D01*
Y-17404D01*
X855288D01*
X861286Y-19403D02*
Y-15405D01*
X864285D01*
X865284Y-16404D01*
Y-19403D01*
X871282Y-13405D02*
Y-19403D01*
X868283D01*
X867284Y-18404D01*
Y-16404D01*
X868283Y-15405D01*
X871282D01*
X883279D02*
X880280D01*
X879280Y-16404D01*
Y-18404D01*
X880280Y-19403D01*
X883279D01*
X888277D02*
X886278D01*
X885278Y-18404D01*
Y-16404D01*
X886278Y-15405D01*
X888277D01*
X889277Y-16404D01*
Y-17404D01*
X885278D01*
X891276Y-19403D02*
Y-15405D01*
X894275D01*
X895275Y-16404D01*
Y-19403D01*
X898274Y-14405D02*
Y-15405D01*
X897274D01*
X899273D01*
X898274D01*
Y-18404D01*
X899273Y-19403D01*
X902272Y-15405D02*
Y-19403D01*
Y-17404D01*
X903272Y-16404D01*
X904272Y-15405D01*
X905271D01*
X911269Y-19403D02*
X909270D01*
X908270Y-18404D01*
Y-16404D01*
X909270Y-15405D01*
X911269D01*
X912269Y-16404D01*
Y-17404D01*
X908270D01*
X920267Y-21403D02*
Y-15405D01*
X923266D01*
X924265Y-16404D01*
Y-18404D01*
X923266Y-19403D01*
X920267D01*
X927264D02*
X929264D01*
X930263Y-18404D01*
Y-16404D01*
X929264Y-15405D01*
X927264D01*
X926265Y-16404D01*
Y-18404D01*
X927264Y-19403D01*
X932263D02*
X935262D01*
X936261Y-18404D01*
X935262Y-17404D01*
X933262D01*
X932263Y-16404D01*
X933262Y-15405D01*
X936261D01*
X938261Y-19403D02*
X940260D01*
X939260D01*
Y-15405D01*
X938261D01*
X944259Y-14405D02*
Y-15405D01*
X943259D01*
X945259D01*
X944259D01*
Y-18404D01*
X945259Y-19403D01*
X948258D02*
X950257D01*
X949257D01*
Y-15405D01*
X948258D01*
X954256Y-19403D02*
X956255D01*
X957255Y-18404D01*
Y-16404D01*
X956255Y-15405D01*
X954256D01*
X953256Y-16404D01*
Y-18404D01*
X954256Y-19403D01*
X959254D02*
Y-15405D01*
X962253D01*
X963253Y-16404D01*
Y-19403D01*
X965252D02*
Y-18404D01*
X966252D01*
Y-19403D01*
X965252D01*
D127*
X329850Y110594D02*
X1676670D01*
X329850Y5594D02*
X1676670D01*
X329850Y-9406D02*
X1676670D01*
Y125594D01*
X329850D02*
X1676670D01*
X329850Y-9406D02*
Y125594D01*
X1536410Y-9406D02*
Y125594D01*
X1427442Y-9406D02*
Y125594D01*
X1294081Y-9406D02*
Y125594D01*
X1160721Y-9406D02*
Y125594D01*
X1075344Y-9406D02*
Y125594D01*
X961378Y-9406D02*
Y125594D01*
X886798Y-9406D02*
Y125594D01*
X827813Y-9406D02*
Y125594D01*
X677858Y-9406D02*
Y125594D01*
X604478Y-9406D02*
Y125594D01*
X553890Y-9406D02*
Y125594D01*
X443922Y-9406D02*
Y125594D01*
X384938Y-9406D02*
Y125594D01*
D242*
X1540910Y115094D02*
Y122292D01*
X1544509D01*
X1545709Y121092D01*
Y118693D01*
X1544509Y117493D01*
X1540910D01*
X1543310D02*
X1545709Y115094D01*
X1549308D02*
X1551707D01*
X1552907Y116294D01*
Y118693D01*
X1551707Y119893D01*
X1549308D01*
X1548108Y118693D01*
Y116294D01*
X1549308Y115094D01*
X1555306Y119893D02*
Y116294D01*
X1556505Y115094D01*
X1560104D01*
Y119893D01*
X1563703Y121092D02*
Y119893D01*
X1562503D01*
X1564903D01*
X1563703D01*
Y116294D01*
X1564903Y115094D01*
X1572100D02*
X1569701D01*
X1568501Y116294D01*
Y118693D01*
X1569701Y119893D01*
X1572100D01*
X1573300Y118693D01*
Y117493D01*
X1568501D01*
X1580498Y122292D02*
Y115094D01*
X1576899D01*
X1575699Y116294D01*
Y118693D01*
X1576899Y119893D01*
X1580498D01*
X1590094Y115094D02*
Y122292D01*
X1593693D01*
X1594893Y121092D01*
Y118693D01*
X1593693Y117493D01*
X1590094D01*
X1598492Y119893D02*
X1600891D01*
X1602091Y118693D01*
Y115094D01*
X1598492D01*
X1597292Y116294D01*
X1598492Y117493D01*
X1602091D01*
X1605689Y121092D02*
Y119893D01*
X1604490D01*
X1606889D01*
X1605689D01*
Y116294D01*
X1606889Y115094D01*
X1610488Y122292D02*
Y115094D01*
Y118693D01*
X1611687Y119893D01*
X1614087D01*
X1615286Y118693D01*
Y115094D01*
X1624883Y122292D02*
Y115094D01*
X1629682D01*
X1635680D02*
X1633281D01*
X1632081Y116294D01*
Y118693D01*
X1633281Y119893D01*
X1635680D01*
X1636879Y118693D01*
Y117493D01*
X1632081D01*
X1639278Y115094D02*
Y119893D01*
X1642877D01*
X1644077Y118693D01*
Y115094D01*
X1648875Y112695D02*
X1650075D01*
X1651275Y113895D01*
Y119893D01*
X1647676D01*
X1646476Y118693D01*
Y116294D01*
X1647676Y115094D01*
X1651275D01*
X1654873Y121092D02*
Y119893D01*
X1653674D01*
X1656073D01*
X1654873D01*
Y116294D01*
X1656073Y115094D01*
X1659672Y122292D02*
Y115094D01*
Y118693D01*
X1660872Y119893D01*
X1663271D01*
X1664470Y118693D01*
Y115094D01*
X1431942Y122292D02*
Y115094D01*
Y118693D01*
X1436740D01*
Y122292D01*
Y115094D01*
X1440339D02*
X1442739D01*
X1443938Y116294D01*
Y118693D01*
X1442739Y119893D01*
X1440339D01*
X1439140Y118693D01*
Y116294D01*
X1440339Y115094D01*
X1446337D02*
X1448737D01*
X1447537D01*
Y122292D01*
X1446337D01*
X1455934Y115094D02*
X1453535D01*
X1452335Y116294D01*
Y118693D01*
X1453535Y119893D01*
X1455934D01*
X1457134Y118693D01*
Y117493D01*
X1452335D01*
X1466731Y122292D02*
Y115094D01*
X1471529D01*
X1477527D02*
X1475128D01*
X1473929Y116294D01*
Y118693D01*
X1475128Y119893D01*
X1477527D01*
X1478727Y118693D01*
Y117493D01*
X1473929D01*
X1481126Y115094D02*
Y119893D01*
X1484725D01*
X1485925Y118693D01*
Y115094D01*
X1490723Y112695D02*
X1491923D01*
X1493122Y113895D01*
Y119893D01*
X1489523D01*
X1488324Y118693D01*
Y116294D01*
X1489523Y115094D01*
X1493122D01*
X1496721Y121092D02*
Y119893D01*
X1495522D01*
X1497921D01*
X1496721D01*
Y116294D01*
X1497921Y115094D01*
X1501520Y122292D02*
Y115094D01*
Y118693D01*
X1502719Y119893D01*
X1505118D01*
X1506318Y118693D01*
Y115094D01*
X1298581Y122292D02*
Y115094D01*
Y118693D01*
X1303380D01*
Y122292D01*
Y115094D01*
X1306979D02*
X1309378D01*
X1310577Y116294D01*
Y118693D01*
X1309378Y119893D01*
X1306979D01*
X1305779Y118693D01*
Y116294D01*
X1306979Y115094D01*
X1312977D02*
X1315376D01*
X1314176D01*
Y122292D01*
X1312977D01*
X1322573Y115094D02*
X1320174D01*
X1318975Y116294D01*
Y118693D01*
X1320174Y119893D01*
X1322573D01*
X1323773Y118693D01*
Y117493D01*
X1318975D01*
X1333370Y122292D02*
X1338169D01*
X1335769D01*
Y115094D01*
X1341767D02*
X1344166D01*
X1345366Y116294D01*
Y118693D01*
X1344166Y119893D01*
X1341767D01*
X1340568Y118693D01*
Y116294D01*
X1341767Y115094D01*
X1347765D02*
X1350165D01*
X1348965D01*
Y122292D01*
X1347765D01*
X1357362Y115094D02*
X1354963D01*
X1353763Y116294D01*
Y118693D01*
X1354963Y119893D01*
X1357362D01*
X1358562Y118693D01*
Y117493D01*
X1353763D01*
X1360961Y119893D02*
Y115094D01*
Y117493D01*
X1362161Y118693D01*
X1363360Y119893D01*
X1364560D01*
X1369358D02*
X1371758D01*
X1372957Y118693D01*
Y115094D01*
X1369358D01*
X1368159Y116294D01*
X1369358Y117493D01*
X1372957D01*
X1375356Y115094D02*
Y119893D01*
X1378955D01*
X1380155Y118693D01*
Y115094D01*
X1387353Y119893D02*
X1383754D01*
X1382554Y118693D01*
Y116294D01*
X1383754Y115094D01*
X1387353D01*
X1393351D02*
X1390951D01*
X1389752Y116294D01*
Y118693D01*
X1390951Y119893D01*
X1393351D01*
X1394550Y118693D01*
Y117493D01*
X1389752D01*
X1406546Y115094D02*
X1404147Y117493D01*
Y119893D01*
X1406546Y122292D01*
X1410145Y118693D02*
X1414944D01*
X1417343Y115094D02*
X1419742Y117493D01*
Y119893D01*
X1417343Y122292D01*
X1165221D02*
Y115094D01*
Y118693D01*
X1170019D01*
Y122292D01*
Y115094D01*
X1173618D02*
X1176017D01*
X1177217Y116294D01*
Y118693D01*
X1176017Y119893D01*
X1173618D01*
X1172418Y118693D01*
Y116294D01*
X1173618Y115094D01*
X1179616D02*
X1182015D01*
X1180816D01*
Y122292D01*
X1179616D01*
X1189213Y115094D02*
X1186814D01*
X1185614Y116294D01*
Y118693D01*
X1186814Y119893D01*
X1189213D01*
X1190412Y118693D01*
Y117493D01*
X1185614D01*
X1200009Y122292D02*
X1204808D01*
X1202409D01*
Y115094D01*
X1208407D02*
X1210806D01*
X1212005Y116294D01*
Y118693D01*
X1210806Y119893D01*
X1208407D01*
X1207207Y118693D01*
Y116294D01*
X1208407Y115094D01*
X1214405D02*
X1216804D01*
X1215604D01*
Y122292D01*
X1214405D01*
X1224002Y115094D02*
X1221602D01*
X1220403Y116294D01*
Y118693D01*
X1221602Y119893D01*
X1224002D01*
X1225201Y118693D01*
Y117493D01*
X1220403D01*
X1227600Y119893D02*
Y115094D01*
Y117493D01*
X1228800Y118693D01*
X1230000Y119893D01*
X1231199D01*
X1235998D02*
X1238397D01*
X1239596Y118693D01*
Y115094D01*
X1235998D01*
X1234798Y116294D01*
X1235998Y117493D01*
X1239596D01*
X1241996Y115094D02*
Y119893D01*
X1245595D01*
X1246794Y118693D01*
Y115094D01*
X1253992Y119893D02*
X1250393D01*
X1249193Y118693D01*
Y116294D01*
X1250393Y115094D01*
X1253992D01*
X1259990D02*
X1257591D01*
X1256391Y116294D01*
Y118693D01*
X1257591Y119893D01*
X1259990D01*
X1261189Y118693D01*
Y117493D01*
X1256391D01*
X1273186Y115094D02*
X1270786Y117493D01*
Y119893D01*
X1273186Y122292D01*
X1276784Y118693D02*
X1281583D01*
X1279184Y121092D02*
Y116294D01*
X1283982Y115094D02*
X1286381Y117493D01*
Y119893D01*
X1283982Y122292D01*
X1079844D02*
Y115094D01*
X1083443D01*
X1084643Y116294D01*
Y121092D01*
X1083443Y122292D01*
X1079844D01*
X1090641Y115094D02*
X1088241D01*
X1087042Y116294D01*
Y118693D01*
X1088241Y119893D01*
X1090641D01*
X1091840Y118693D01*
Y117493D01*
X1087042D01*
X1094240Y115094D02*
X1097838D01*
X1099038Y116294D01*
X1097838Y117493D01*
X1095439D01*
X1094240Y118693D01*
X1095439Y119893D01*
X1099038D01*
X1106236D02*
X1102637D01*
X1101437Y118693D01*
Y116294D01*
X1102637Y115094D01*
X1106236D01*
X1108635Y119893D02*
Y115094D01*
Y117493D01*
X1109834Y118693D01*
X1111034Y119893D01*
X1112234D01*
X1115833Y115094D02*
X1118232D01*
X1117032D01*
Y119893D01*
X1115833D01*
X1121831Y112695D02*
Y119893D01*
X1125429D01*
X1126629Y118693D01*
Y116294D01*
X1125429Y115094D01*
X1121831D01*
X1130228Y121092D02*
Y119893D01*
X1129028D01*
X1131427D01*
X1130228D01*
Y116294D01*
X1131427Y115094D01*
X1135026D02*
X1137426D01*
X1136226D01*
Y119893D01*
X1135026D01*
X1142224Y115094D02*
X1144623D01*
X1145823Y116294D01*
Y118693D01*
X1144623Y119893D01*
X1142224D01*
X1141024Y118693D01*
Y116294D01*
X1142224Y115094D01*
X1148222D02*
Y119893D01*
X1151821D01*
X1153020Y118693D01*
Y115094D01*
X965878Y122292D02*
X970676D01*
X968277D01*
Y115094D01*
X976674D02*
X974275D01*
X973075Y116294D01*
Y118693D01*
X974275Y119893D01*
X976674D01*
X977874Y118693D01*
Y117493D01*
X973075D01*
X980273Y115094D02*
Y119893D01*
X981472D01*
X982672Y118693D01*
Y115094D01*
Y118693D01*
X983872Y119893D01*
X985071Y118693D01*
Y115094D01*
X987471Y112695D02*
Y119893D01*
X991069D01*
X992269Y118693D01*
Y116294D01*
X991069Y115094D01*
X987471D01*
X994668D02*
X997067D01*
X995868D01*
Y122292D01*
X994668D01*
X1001866Y119893D02*
X1004265D01*
X1005465Y118693D01*
Y115094D01*
X1001866D01*
X1000666Y116294D01*
X1001866Y117493D01*
X1005465D01*
X1009064Y121092D02*
Y119893D01*
X1007864D01*
X1010263D01*
X1009064D01*
Y116294D01*
X1010263Y115094D01*
X1017461D02*
X1015062D01*
X1013862Y116294D01*
Y118693D01*
X1015062Y119893D01*
X1017461D01*
X1018660Y118693D01*
Y117493D01*
X1013862D01*
X891298Y115094D02*
Y122292D01*
X894897D01*
X896096Y121092D01*
Y118693D01*
X894897Y117493D01*
X891298D01*
X899695Y119893D02*
X902094D01*
X903294Y118693D01*
Y115094D01*
X899695D01*
X898495Y116294D01*
X899695Y117493D01*
X903294D01*
X910491Y122292D02*
Y115094D01*
X906893D01*
X905693Y116294D01*
Y118693D01*
X906893Y119893D01*
X910491D01*
X924887Y121092D02*
X923687Y122292D01*
X921288D01*
X920088Y121092D01*
Y119893D01*
X921288Y118693D01*
X923687D01*
X924887Y117493D01*
Y116294D01*
X923687Y115094D01*
X921288D01*
X920088Y116294D01*
X927286Y122292D02*
Y115094D01*
Y118693D01*
X928486Y119893D01*
X930885D01*
X932084Y118693D01*
Y115094D01*
X935683Y119893D02*
X938083D01*
X939282Y118693D01*
Y115094D01*
X935683D01*
X934484Y116294D01*
X935683Y117493D01*
X939282D01*
X941681Y112695D02*
Y119893D01*
X945280D01*
X946480Y118693D01*
Y116294D01*
X945280Y115094D01*
X941681D01*
X952478D02*
X950079D01*
X948879Y116294D01*
Y118693D01*
X950079Y119893D01*
X952478D01*
X953677Y118693D01*
Y117493D01*
X948879D01*
X832313Y122292D02*
Y117493D01*
X834712Y115094D01*
X837111Y117493D01*
Y122292D01*
X839511Y115094D02*
X841910D01*
X840710D01*
Y119893D01*
X839511D01*
X846708D02*
X849107D01*
X850307Y118693D01*
Y115094D01*
X846708D01*
X845509Y116294D01*
X846708Y117493D01*
X850307D01*
X852706Y115094D02*
X857505Y119893D01*
X859904Y115094D02*
Y122292D01*
X863503D01*
X864702Y121092D01*
Y118693D01*
X863503Y117493D01*
X859904D01*
X868301Y119893D02*
X870700D01*
X871900Y118693D01*
Y115094D01*
X868301D01*
X867102Y116294D01*
X868301Y117493D01*
X871900D01*
X879098Y122292D02*
Y115094D01*
X875499D01*
X874299Y116294D01*
Y118693D01*
X875499Y119893D01*
X879098D01*
X682358Y122292D02*
Y115094D01*
X685957D01*
X687156Y116294D01*
Y121092D01*
X685957Y122292D01*
X682358D01*
X689556Y119893D02*
Y115094D01*
Y117493D01*
X690755Y118693D01*
X691955Y119893D01*
X693154D01*
X696753Y115094D02*
X699152D01*
X697953D01*
Y119893D01*
X696753D01*
X702751Y115094D02*
X705150D01*
X703951D01*
Y122292D01*
X702751D01*
X708749Y115094D02*
X711149D01*
X709949D01*
Y122292D01*
X708749D01*
X721945D02*
Y115094D01*
X726743D01*
X730342Y119893D02*
X732741D01*
X733941Y118693D01*
Y115094D01*
X730342D01*
X729143Y116294D01*
X730342Y117493D01*
X733941D01*
X736340Y119893D02*
Y116294D01*
X737540Y115094D01*
X741139D01*
Y113895D01*
X739939Y112695D01*
X738739D01*
X741139Y115094D02*
Y119893D01*
X747137Y115094D02*
X744738D01*
X743538Y116294D01*
Y118693D01*
X744738Y119893D01*
X747137D01*
X748336Y118693D01*
Y117493D01*
X743538D01*
X750736Y119893D02*
Y115094D01*
Y117493D01*
X751935Y118693D01*
X753135Y119893D01*
X754334D01*
X765131Y115094D02*
Y122292D01*
X768730D01*
X769929Y121092D01*
Y118693D01*
X768730Y117493D01*
X765131D01*
X773528Y119893D02*
X775927D01*
X777127Y118693D01*
Y115094D01*
X773528D01*
X772329Y116294D01*
X773528Y117493D01*
X777127D01*
X779526Y115094D02*
X781926D01*
X780726D01*
Y119893D01*
X779526D01*
X785524D02*
Y115094D01*
Y117493D01*
X786724Y118693D01*
X787924Y119893D01*
X789123D01*
X608978Y122292D02*
Y115094D01*
Y118693D01*
X613776D01*
Y122292D01*
Y115094D01*
X617375D02*
X619774D01*
X620974Y116294D01*
Y118693D01*
X619774Y119893D01*
X617375D01*
X616175Y118693D01*
Y116294D01*
X617375Y115094D01*
X623373D02*
X625772D01*
X624573D01*
Y122292D01*
X623373D01*
X632970Y115094D02*
X630571D01*
X629371Y116294D01*
Y118693D01*
X630571Y119893D01*
X632970D01*
X634169Y118693D01*
Y117493D01*
X629371D01*
X643766Y122292D02*
X648565D01*
X646166D01*
Y115094D01*
X650964Y119893D02*
Y116294D01*
X652164Y115094D01*
X655762D01*
Y113895D01*
X654563Y112695D01*
X653363D01*
X655762Y115094D02*
Y119893D01*
X658162Y112695D02*
Y119893D01*
X661761D01*
X662960Y118693D01*
Y116294D01*
X661761Y115094D01*
X658162D01*
X668958D02*
X666559D01*
X665359Y116294D01*
Y118693D01*
X666559Y119893D01*
X668958D01*
X670158Y118693D01*
Y117493D01*
X665359D01*
X558390Y115094D02*
Y122292D01*
X561989D01*
X563189Y121092D01*
Y118693D01*
X561989Y117493D01*
X558390D01*
X565588Y115094D02*
X567987D01*
X566787D01*
Y122292D01*
X565588D01*
X572785Y119893D02*
X575185D01*
X576384Y118693D01*
Y115094D01*
X572785D01*
X571586Y116294D01*
X572785Y117493D01*
X576384D01*
X579983Y121092D02*
Y119893D01*
X578783D01*
X581183D01*
X579983D01*
Y116294D01*
X581183Y115094D01*
X588380D02*
X585981D01*
X584782Y116294D01*
Y118693D01*
X585981Y119893D01*
X588380D01*
X589580Y118693D01*
Y117493D01*
X584782D01*
X596778Y122292D02*
Y115094D01*
X593179D01*
X591979Y116294D01*
Y118693D01*
X593179Y119893D01*
X596778D01*
X448422Y122292D02*
Y115094D01*
Y118693D01*
X453221D01*
Y122292D01*
Y115094D01*
X456819D02*
X459219D01*
X460418Y116294D01*
Y118693D01*
X459219Y119893D01*
X456819D01*
X455620Y118693D01*
Y116294D01*
X456819Y115094D01*
X462817D02*
X465217D01*
X464017D01*
Y122292D01*
X462817D01*
X472414Y115094D02*
X470015D01*
X468815Y116294D01*
Y118693D01*
X470015Y119893D01*
X472414D01*
X473614Y118693D01*
Y117493D01*
X468815D01*
X488009Y121092D02*
X486810Y122292D01*
X484410D01*
X483211Y121092D01*
Y119893D01*
X484410Y118693D01*
X486810D01*
X488009Y117493D01*
Y116294D01*
X486810Y115094D01*
X484410D01*
X483211Y116294D01*
X490408Y115094D02*
X492808D01*
X491608D01*
Y119893D01*
X490408D01*
X496407D02*
X501205D01*
X496407Y115094D01*
X501205D01*
X507203D02*
X504804D01*
X503604Y116294D01*
Y118693D01*
X504804Y119893D01*
X507203D01*
X508403Y118693D01*
Y117493D01*
X503604D01*
X394236Y121092D02*
X393036Y122292D01*
X390637D01*
X389438Y121092D01*
Y116294D01*
X390637Y115094D01*
X393036D01*
X394236Y116294D01*
X397835Y115094D02*
X400234D01*
X401434Y116294D01*
Y118693D01*
X400234Y119893D01*
X397835D01*
X396635Y118693D01*
Y116294D01*
X397835Y115094D01*
X403833Y119893D02*
Y116294D01*
X405032Y115094D01*
X408631D01*
Y119893D01*
X411031Y115094D02*
Y119893D01*
X414629D01*
X415829Y118693D01*
Y115094D01*
X419428Y121092D02*
Y119893D01*
X418228D01*
X420627D01*
X419428D01*
Y116294D01*
X420627Y115094D01*
X343649Y121092D02*
X342449Y122292D01*
X340050D01*
X338850Y121092D01*
Y119893D01*
X340050Y118693D01*
X342449D01*
X343649Y117493D01*
Y116294D01*
X342449Y115094D01*
X340050D01*
X338850Y116294D01*
X346048Y119893D02*
Y116294D01*
X347247Y115094D01*
X350846D01*
Y113895D01*
X349646Y112695D01*
X348447D01*
X350846Y115094D02*
Y119893D01*
X353245Y115094D02*
Y119893D01*
X354445D01*
X355645Y118693D01*
Y115094D01*
Y118693D01*
X356844Y119893D01*
X358044Y118693D01*
Y115094D01*
X360443Y122292D02*
Y115094D01*
X364042D01*
X365242Y116294D01*
Y117493D01*
Y118693D01*
X364042Y119893D01*
X360443D01*
X368840Y115094D02*
X371239D01*
X372439Y116294D01*
Y118693D01*
X371239Y119893D01*
X368840D01*
X367641Y118693D01*
Y116294D01*
X368840Y115094D01*
X374838D02*
X377238D01*
X376038D01*
Y122292D01*
X374838D01*
D288*
X120828Y-189905D02*
G03*
X120828Y-189905I-600J0D01*
G01*
X121228D02*
G03*
X121228Y-189905I-1000J0D01*
G01*
X98072Y-189905D02*
G03*
X98072Y-189905I-600J0D01*
G01*
X98472D02*
G03*
X98472Y-189905I-1000J0D01*
G01*
X154728Y-39405D02*
X155728Y-38905D01*
X156728Y-39405D01*
X156228Y-38405D02*
X156728Y-39405D01*
X156228Y-38405D02*
X156728Y-37405D01*
X155728Y-37905D02*
X156728Y-37405D01*
X154728D02*
X155728Y-37905D01*
X154728Y-37405D02*
X155228Y-38405D01*
X154728Y-39405D02*
X155228Y-38405D01*
X157328Y-39405D02*
X158328Y-38905D01*
X159328Y-39405D01*
X158828Y-38405D02*
X159328Y-39405D01*
X158828Y-38405D02*
X159328Y-37405D01*
X158328Y-37905D02*
X159328Y-37405D01*
X157328D02*
X158328Y-37905D01*
X157328Y-37405D02*
X157828Y-38405D01*
X157328Y-39405D02*
X157828Y-38405D01*
X157328Y-41905D02*
X158328Y-41405D01*
X159328Y-41905D01*
X158828Y-40905D02*
X159328Y-41905D01*
X158828Y-40905D02*
X159328Y-39905D01*
X158328Y-40405D02*
X159328Y-39905D01*
X157328D02*
X158328Y-40405D01*
X157328Y-39905D02*
X157828Y-40905D01*
X157328Y-41905D02*
X157828Y-40905D01*
X154728Y-41905D02*
X155728Y-41405D01*
X156728Y-41905D01*
X156228Y-40905D02*
X156728Y-41905D01*
X156228Y-40905D02*
X156728Y-39905D01*
X155728Y-40405D02*
X156728Y-39905D01*
X154728D02*
X155728Y-40405D01*
X154728Y-39905D02*
X155228Y-40905D01*
X154728Y-41905D02*
X155228Y-40905D01*
X135828Y-43705D02*
X136828Y-43205D01*
X137828Y-43705D01*
X137328Y-42705D02*
X137828Y-43705D01*
X137328Y-42705D02*
X137828Y-41705D01*
X136828Y-42205D02*
X137828Y-41705D01*
X135828D02*
X136828Y-42205D01*
X135828Y-41705D02*
X136328Y-42705D01*
X135828Y-43705D02*
X136328Y-42705D01*
X161328Y-46505D02*
X162328Y-46005D01*
X163328Y-46505D01*
X162828Y-45505D02*
X163328Y-46505D01*
X162828Y-45505D02*
X163328Y-44505D01*
X162328Y-45005D02*
X163328Y-44505D01*
X161328D02*
X162328Y-45005D01*
X161328Y-44505D02*
X161828Y-45505D01*
X161328Y-46505D02*
X161828Y-45505D01*
X149128Y-132605D02*
X150128Y-132105D01*
X151128Y-132605D01*
X150628Y-131605D02*
X151128Y-132605D01*
X150628Y-131605D02*
X151128Y-130605D01*
X150128Y-131105D02*
X151128Y-130605D01*
X149128D02*
X150128Y-131105D01*
X149128Y-130605D02*
X149628Y-131605D01*
X149128Y-132605D02*
X149628Y-131605D01*
X152199Y-137539D02*
X153199Y-137039D01*
X154199Y-137539D01*
X153699Y-136539D02*
X154199Y-137539D01*
X153699Y-136539D02*
X154199Y-135538D01*
X153199Y-136038D02*
X154199Y-135538D01*
X152199D02*
X153199Y-136038D01*
X152199Y-135538D02*
X152699Y-136539D01*
X152199Y-137539D02*
X152699Y-136539D01*
X146055Y-137539D02*
X147055Y-137039D01*
X148055Y-137539D01*
X147555Y-136539D02*
X148055Y-137539D01*
X147555Y-136539D02*
X148055Y-135538D01*
X147055Y-136038D02*
X148055Y-135538D01*
X146055D02*
X147055Y-136038D01*
X146055Y-135538D02*
X146555Y-136539D01*
X146055Y-137539D02*
X146555Y-136539D01*
X146028Y-127705D02*
X147028Y-127205D01*
X148028Y-127705D01*
X147528Y-126705D02*
X148028Y-127705D01*
X147528Y-126705D02*
X148028Y-125705D01*
X147028Y-126205D02*
X148028Y-125705D01*
X146028D02*
X147028Y-126205D01*
X146028Y-125705D02*
X146528Y-126705D01*
X146028Y-127705D02*
X146528Y-126705D01*
X153728Y-119205D02*
X154728Y-118705D01*
X155728Y-119205D01*
X155228Y-118205D02*
X155728Y-119205D01*
X155228Y-118205D02*
X155728Y-117205D01*
X154728Y-117705D02*
X155728Y-117205D01*
X153728D02*
X154728Y-117705D01*
X153728Y-117205D02*
X154228Y-118205D01*
X153728Y-119205D02*
X154228Y-118205D01*
X169428Y-61176D02*
X170428Y-60676D01*
X171428Y-61176D01*
X170928Y-60176D02*
X171428Y-61176D01*
X170928Y-60176D02*
X171428Y-59176D01*
X170428Y-59676D02*
X171428Y-59176D01*
X169428D02*
X170428Y-59676D01*
X169428Y-59176D02*
X169928Y-60176D01*
X169428Y-61176D02*
X169928Y-60176D01*
X153728Y-114705D02*
X154728Y-114205D01*
X155728Y-114705D01*
X155228Y-113705D02*
X155728Y-114705D01*
X155228Y-113705D02*
X155728Y-112705D01*
X154728Y-113205D02*
X155728Y-112705D01*
X153728D02*
X154728Y-113205D01*
X153728Y-112705D02*
X154228Y-113705D01*
X153728Y-114705D02*
X154228Y-113705D01*
X152228Y-127705D02*
X153228Y-127205D01*
X154228Y-127705D01*
X153728Y-126705D02*
X154228Y-127705D01*
X153728Y-126705D02*
X154228Y-125705D01*
X153228Y-126205D02*
X154228Y-125705D01*
X152228D02*
X153228Y-126205D01*
X152228Y-125705D02*
X152728Y-126705D01*
X152228Y-127705D02*
X152728Y-126705D01*
X122164Y-147005D02*
X123164Y-146505D01*
X124164Y-147005D01*
X123664Y-146005D02*
X124164Y-147005D01*
X123664Y-146005D02*
X124164Y-145005D01*
X123164Y-145505D02*
X124164Y-145005D01*
X122164D02*
X123164Y-145505D01*
X122164Y-145005D02*
X122664Y-146005D01*
X122164Y-147005D02*
X122664Y-146005D01*
X117928Y-147005D02*
X118928Y-146505D01*
X119928Y-147005D01*
X119428Y-146005D02*
X119928Y-147005D01*
X119428Y-146005D02*
X119928Y-145005D01*
X118928Y-145505D02*
X119928Y-145005D01*
X117928D02*
X118928Y-145505D01*
X117928Y-145005D02*
X118428Y-146005D01*
X117928Y-147005D02*
X118428Y-146005D01*
X122164Y-142905D02*
X123164Y-142405D01*
X124164Y-142905D01*
X123664Y-141905D02*
X124164Y-142905D01*
X123664Y-141905D02*
X124164Y-140905D01*
X123164Y-141405D02*
X124164Y-140905D01*
X122164D02*
X123164Y-141405D01*
X122164Y-140905D02*
X122664Y-141905D01*
X122164Y-142905D02*
X122664Y-141905D01*
X98800Y-104505D02*
X99800Y-104005D01*
X100800Y-104505D01*
X100300Y-103505D02*
X100800Y-104505D01*
X100300Y-103505D02*
X100800Y-102505D01*
X99800Y-103005D02*
X100800Y-102505D01*
X98800D02*
X99800Y-103005D01*
X98800Y-102505D02*
X99300Y-103505D01*
X98800Y-104505D02*
X99300Y-103505D01*
X39928Y-106005D02*
X40928Y-105505D01*
X41928Y-106005D01*
X41428Y-105005D02*
X41928Y-106005D01*
X41428Y-105005D02*
X41928Y-104005D01*
X40928Y-104505D02*
X41928Y-104005D01*
X39928D02*
X40928Y-104505D01*
X39928Y-104005D02*
X40428Y-105005D01*
X39928Y-106005D02*
X40428Y-105005D01*
X27028Y-99105D02*
X28028Y-98605D01*
X29028Y-99105D01*
X28528Y-98105D02*
X29028Y-99105D01*
X28528Y-98105D02*
X29028Y-97105D01*
X28028Y-97605D02*
X29028Y-97105D01*
X27028D02*
X28028Y-97605D01*
X27028Y-97105D02*
X27528Y-98105D01*
X27028Y-99105D02*
X27528Y-98105D01*
X90128Y-164305D02*
X91128Y-163805D01*
X92128Y-164305D01*
X91628Y-163305D02*
X92128Y-164305D01*
X91628Y-163305D02*
X92128Y-162305D01*
X91128Y-162805D02*
X92128Y-162305D01*
X90128D02*
X91128Y-162805D01*
X90128Y-162305D02*
X90628Y-163305D01*
X90128Y-164305D02*
X90628Y-163305D01*
X22034Y-133605D02*
X23034Y-133105D01*
X24034Y-133605D01*
X23534Y-132605D02*
X24034Y-133605D01*
X23534Y-132605D02*
X24034Y-131605D01*
X23034Y-132105D02*
X24034Y-131605D01*
X22034D02*
X23034Y-132105D01*
X22034Y-131605D02*
X22534Y-132605D01*
X22034Y-133605D02*
X22534Y-132605D01*
X32034Y-133605D02*
X33034Y-133105D01*
X34034Y-133605D01*
X33534Y-132605D02*
X34034Y-133605D01*
X33534Y-132605D02*
X34034Y-131605D01*
X33034Y-132105D02*
X34034Y-131605D01*
X32034D02*
X33034Y-132105D01*
X32034Y-131605D02*
X32534Y-132605D01*
X32034Y-133605D02*
X32534Y-132605D01*
X27034Y-133605D02*
X28034Y-133105D01*
X29034Y-133605D01*
X28534Y-132605D02*
X29034Y-133605D01*
X28534Y-132605D02*
X29034Y-131605D01*
X28034Y-132105D02*
X29034Y-131605D01*
X27034D02*
X28034Y-132105D01*
X27034Y-131605D02*
X27534Y-132605D01*
X27034Y-133605D02*
X27534Y-132605D01*
X136728Y-99105D02*
X137728Y-98605D01*
X138728Y-99105D01*
X138228Y-98105D02*
X138728Y-99105D01*
X138228Y-98105D02*
X138728Y-97105D01*
X137728Y-97605D02*
X138728Y-97105D01*
X136728D02*
X137728Y-97605D01*
X136728Y-97105D02*
X137228Y-98105D01*
X136728Y-99105D02*
X137228Y-98105D01*
X105528Y-87605D02*
X106528Y-87105D01*
X107528Y-87605D01*
X107028Y-86605D02*
X107528Y-87605D01*
X107028Y-86605D02*
X107528Y-85605D01*
X106528Y-86105D02*
X107528Y-85605D01*
X105528D02*
X106528Y-86105D01*
X105528Y-85605D02*
X106028Y-86605D01*
X105528Y-87605D02*
X106028Y-86605D01*
X22028Y-70905D02*
X23028Y-70405D01*
X24028Y-70905D01*
X23528Y-69905D02*
X24028Y-70905D01*
X23528Y-69905D02*
X24028Y-68905D01*
X23028Y-69405D02*
X24028Y-68905D01*
X22028D02*
X23028Y-69405D01*
X22028Y-68905D02*
X22528Y-69905D01*
X22028Y-70905D02*
X22528Y-69905D01*
X22028Y-82005D02*
X23028Y-81505D01*
X24028Y-82005D01*
X23528Y-81005D02*
X24028Y-82005D01*
X23528Y-81005D02*
X24028Y-80005D01*
X23028Y-80505D02*
X24028Y-80005D01*
X22028D02*
X23028Y-80505D01*
X22028Y-80005D02*
X22528Y-81005D01*
X22028Y-82005D02*
X22528Y-81005D01*
X53416Y-149729D02*
X54416Y-149229D01*
X55416Y-149729D01*
X54916Y-148729D02*
X55416Y-149729D01*
X54916Y-148729D02*
X55416Y-147729D01*
X54416Y-148229D02*
X55416Y-147729D01*
X53416D02*
X54416Y-148229D01*
X53416Y-147729D02*
X53916Y-148729D01*
X53416Y-149729D02*
X53916Y-148729D01*
X48216Y-146229D02*
X49216Y-145729D01*
X50216Y-146229D01*
X49716Y-145229D02*
X50216Y-146229D01*
X49716Y-145229D02*
X50216Y-144229D01*
X49216Y-144729D02*
X50216Y-144229D01*
X48216D02*
X49216Y-144729D01*
X48216Y-144229D02*
X48716Y-145229D01*
X48216Y-146229D02*
X48716Y-145229D01*
X56016Y-149729D02*
X57016Y-149229D01*
X58016Y-149729D01*
X57516Y-148729D02*
X58016Y-149729D01*
X57516Y-148729D02*
X58016Y-147729D01*
X57016Y-148229D02*
X58016Y-147729D01*
X56016D02*
X57016Y-148229D01*
X56016Y-147729D02*
X56516Y-148729D01*
X56016Y-149729D02*
X56516Y-148729D01*
X50816Y-149729D02*
X51816Y-149229D01*
X52816Y-149729D01*
X52316Y-148729D02*
X52816Y-149729D01*
X52316Y-148729D02*
X52816Y-147729D01*
X51816Y-148229D02*
X52816Y-147729D01*
X50816D02*
X51816Y-148229D01*
X50816Y-147729D02*
X51316Y-148729D01*
X50816Y-149729D02*
X51316Y-148729D01*
X45616Y-149729D02*
X46616Y-149229D01*
X47616Y-149729D01*
X47116Y-148729D02*
X47616Y-149729D01*
X47116Y-148729D02*
X47616Y-147729D01*
X46616Y-148229D02*
X47616Y-147729D01*
X45616D02*
X46616Y-148229D01*
X45616Y-147729D02*
X46116Y-148729D01*
X45616Y-149729D02*
X46116Y-148729D01*
X45616Y-146229D02*
X46616Y-145729D01*
X47616Y-146229D01*
X47116Y-145229D02*
X47616Y-146229D01*
X47116Y-145229D02*
X47616Y-144229D01*
X46616Y-144729D02*
X47616Y-144229D01*
X45616D02*
X46616Y-144729D01*
X45616Y-144229D02*
X46116Y-145229D01*
X45616Y-146229D02*
X46116Y-145229D01*
X48216Y-149729D02*
X49216Y-149229D01*
X50216Y-149729D01*
X49716Y-148729D02*
X50216Y-149729D01*
X49716Y-148729D02*
X50216Y-147729D01*
X49216Y-148229D02*
X50216Y-147729D01*
X48216D02*
X49216Y-148229D01*
X48216Y-147729D02*
X48716Y-148729D01*
X48216Y-149729D02*
X48716Y-148729D01*
X50816Y-146229D02*
X51816Y-145729D01*
X52816Y-146229D01*
X52316Y-145229D02*
X52816Y-146229D01*
X52316Y-145229D02*
X52816Y-144229D01*
X51816Y-144729D02*
X52816Y-144229D01*
X50816D02*
X51816Y-144729D01*
X50816Y-144229D02*
X51316Y-145229D01*
X50816Y-146229D02*
X51316Y-145229D01*
X56016Y-146229D02*
X57016Y-145729D01*
X58016Y-146229D01*
X57516Y-145229D02*
X58016Y-146229D01*
X57516Y-145229D02*
X58016Y-144229D01*
X57016Y-144729D02*
X58016Y-144229D01*
X56016D02*
X57016Y-144729D01*
X56016Y-144229D02*
X56516Y-145229D01*
X56016Y-146229D02*
X56516Y-145229D01*
X53416Y-146229D02*
X54416Y-145729D01*
X55416Y-146229D01*
X54916Y-145229D02*
X55416Y-146229D01*
X54916Y-145229D02*
X55416Y-144229D01*
X54416Y-144729D02*
X55416Y-144229D01*
X53416D02*
X54416Y-144729D01*
X53416Y-144229D02*
X53916Y-145229D01*
X53416Y-146229D02*
X53916Y-145229D01*
X66278Y-170472D02*
X67278Y-169972D01*
X68278Y-170472D01*
X67778Y-169472D02*
X68278Y-170472D01*
X67778Y-169472D02*
X68278Y-168472D01*
X67278Y-168972D02*
X68278Y-168472D01*
X66278D02*
X67278Y-168972D01*
X66278Y-168472D02*
X66778Y-169472D01*
X66278Y-170472D02*
X66778Y-169472D01*
X125728Y-104740D02*
X126728Y-104240D01*
X127728Y-104740D01*
X127228Y-103740D02*
X127728Y-104740D01*
X127228Y-103740D02*
X127728Y-102740D01*
X126728Y-103240D02*
X127728Y-102740D01*
X125728D02*
X126728Y-103240D01*
X125728Y-102740D02*
X126228Y-103740D01*
X125728Y-104740D02*
X126228Y-103740D01*
X36928Y-175205D02*
X37928Y-174705D01*
X38928Y-175205D01*
X38428Y-174205D02*
X38928Y-175205D01*
X38428Y-174205D02*
X38928Y-173205D01*
X37928Y-173705D02*
X38928Y-173205D01*
X36928D02*
X37928Y-173705D01*
X36928Y-173205D02*
X37428Y-174205D01*
X36928Y-175205D02*
X37428Y-174205D01*
X96228Y-179405D02*
X97228Y-178905D01*
X98228Y-179405D01*
X97728Y-178405D02*
X98228Y-179405D01*
X97728Y-178405D02*
X98228Y-177405D01*
X97228Y-177905D02*
X98228Y-177405D01*
X96228D02*
X97228Y-177905D01*
X96228Y-177405D02*
X96728Y-178405D01*
X96228Y-179405D02*
X96728Y-178405D01*
X118728Y-178905D02*
X119728Y-178405D01*
X120728Y-178905D01*
X120228Y-177905D02*
X120728Y-178905D01*
X120228Y-177905D02*
X120728Y-176905D01*
X119728Y-177405D02*
X120728Y-176905D01*
X118728D02*
X119728Y-177405D01*
X118728Y-176905D02*
X119228Y-177905D01*
X118728Y-178905D02*
X119228Y-177905D01*
X61216Y-146229D02*
X62216Y-145729D01*
X63216Y-146229D01*
X62716Y-145229D02*
X63216Y-146229D01*
X62716Y-145229D02*
X63216Y-144229D01*
X62216Y-144729D02*
X63216Y-144229D01*
X61216D02*
X62216Y-144729D01*
X61216Y-144229D02*
X61716Y-145229D01*
X61216Y-146229D02*
X61716Y-145229D01*
X58616Y-146229D02*
X59616Y-145729D01*
X60616Y-146229D01*
X60116Y-145229D02*
X60616Y-146229D01*
X60116Y-145229D02*
X60616Y-144229D01*
X59616Y-144729D02*
X60616Y-144229D01*
X58616D02*
X59616Y-144729D01*
X58616Y-144229D02*
X59116Y-145229D01*
X58616Y-146229D02*
X59116Y-145229D01*
X58616Y-149729D02*
X59616Y-149229D01*
X60616Y-149729D01*
X60116Y-148729D02*
X60616Y-149729D01*
X60116Y-148729D02*
X60616Y-147729D01*
X59616Y-148229D02*
X60616Y-147729D01*
X58616D02*
X59616Y-148229D01*
X58616Y-147729D02*
X59116Y-148729D01*
X58616Y-149729D02*
X59116Y-148729D01*
X61216Y-149729D02*
X62216Y-149229D01*
X63216Y-149729D01*
X62716Y-148729D02*
X63216Y-149729D01*
X62716Y-148729D02*
X63216Y-147729D01*
X62216Y-148229D02*
X63216Y-147729D01*
X61216D02*
X62216Y-148229D01*
X61216Y-147729D02*
X61716Y-148729D01*
X61216Y-149729D02*
X61716Y-148729D01*
X66416Y-153229D02*
X67416Y-152729D01*
X68416Y-153229D01*
X67916Y-152229D02*
X68416Y-153229D01*
X67916Y-152229D02*
X68416Y-151229D01*
X67416Y-151729D02*
X68416Y-151229D01*
X66416D02*
X67416Y-151729D01*
X66416Y-151229D02*
X66916Y-152229D01*
X66416Y-153229D02*
X66916Y-152229D01*
X63816Y-153229D02*
X64816Y-152729D01*
X65816Y-153229D01*
X65316Y-152229D02*
X65816Y-153229D01*
X65316Y-152229D02*
X65816Y-151229D01*
X64816Y-151729D02*
X65816Y-151229D01*
X63816D02*
X64816Y-151729D01*
X63816Y-151229D02*
X64316Y-152229D01*
X63816Y-153229D02*
X64316Y-152229D01*
X151828Y-7505D02*
X152828Y-7005D01*
X153828Y-7505D01*
X153328Y-6505D02*
X153828Y-7505D01*
X153328Y-6505D02*
X153828Y-5505D01*
X152828Y-6005D02*
X153828Y-5505D01*
X151828D02*
X152828Y-6005D01*
X151828Y-5505D02*
X152328Y-6505D01*
X151828Y-7505D02*
X152328Y-6505D01*
X163928Y-21205D02*
X164928Y-20705D01*
X165928Y-21205D01*
X165428Y-20205D02*
X165928Y-21205D01*
X165428Y-20205D02*
X165928Y-19205D01*
X164928Y-19705D02*
X165928Y-19205D01*
X163928D02*
X164928Y-19705D01*
X163928Y-19205D02*
X164428Y-20205D01*
X163928Y-21205D02*
X164428Y-20205D01*
X147256Y-22557D02*
X148256Y-22057D01*
X149256Y-22557D01*
X148756Y-21557D02*
X149256Y-22557D01*
X148756Y-21557D02*
X149256Y-20557D01*
X148256Y-21057D02*
X149256Y-20557D01*
X147256D02*
X148256Y-21057D01*
X147256Y-20557D02*
X147756Y-21557D01*
X147256Y-22557D02*
X147756Y-21557D01*
X144037Y-20026D02*
X145037Y-19526D01*
X146037Y-20026D01*
X145537Y-19026D02*
X146037Y-20026D01*
X145537Y-19026D02*
X146037Y-18026D01*
X145037Y-18526D02*
X146037Y-18026D01*
X144037D02*
X145037Y-18526D01*
X144037Y-18026D02*
X144537Y-19026D01*
X144037Y-20026D02*
X144537Y-19026D01*
X150328Y-25105D02*
X151328Y-24605D01*
X152328Y-25105D01*
X151828Y-24105D02*
X152328Y-25105D01*
X151828Y-24105D02*
X152328Y-23105D01*
X151328Y-23605D02*
X152328Y-23105D01*
X150328D02*
X151328Y-23605D01*
X150328Y-23105D02*
X150828Y-24105D01*
X150328Y-25105D02*
X150828Y-24105D01*
X144488Y-29465D02*
X145488Y-28964D01*
X146488Y-29465D01*
X145988Y-28464D02*
X146488Y-29465D01*
X145988Y-28464D02*
X146488Y-27465D01*
X145488Y-27964D02*
X146488Y-27465D01*
X144488D02*
X145488Y-27964D01*
X144488Y-27465D02*
X144988Y-28464D01*
X144488Y-29465D02*
X144988Y-28464D01*
X160383Y-16971D02*
X161383Y-16471D01*
X162383Y-16971D01*
X161883Y-15971D02*
X162383Y-16971D01*
X161883Y-15971D02*
X162383Y-14971D01*
X161383Y-15471D02*
X162383Y-14971D01*
X160383D02*
X161383Y-15471D01*
X160383Y-14971D02*
X160883Y-15971D01*
X160383Y-16971D02*
X160883Y-15971D01*
X152628Y-58105D02*
X153628Y-57605D01*
X154628Y-58105D01*
X154128Y-57105D02*
X154628Y-58105D01*
X154128Y-57105D02*
X154628Y-56105D01*
X153628Y-56605D02*
X154628Y-56105D01*
X152628D02*
X153628Y-56605D01*
X152628Y-56105D02*
X153128Y-57105D01*
X152628Y-58105D02*
X153128Y-57105D01*
X171828Y-169305D02*
X172828Y-168805D01*
X173828Y-169305D01*
X173328Y-168305D02*
X173828Y-169305D01*
X173328Y-168305D02*
X173828Y-167305D01*
X172828Y-167805D02*
X173828Y-167305D01*
X171828D02*
X172828Y-167805D01*
X171828Y-167305D02*
X172328Y-168305D01*
X171828Y-169305D02*
X172328Y-168305D01*
X97528Y-58805D02*
X98528Y-58305D01*
X99528Y-58805D01*
X99028Y-57805D02*
X99528Y-58805D01*
X99028Y-57805D02*
X99528Y-56805D01*
X98528Y-57305D02*
X99528Y-56805D01*
X97528D02*
X98528Y-57305D01*
X97528Y-56805D02*
X98028Y-57805D01*
X97528Y-58805D02*
X98028Y-57805D01*
X199508Y-87428D02*
X200508Y-86927D01*
X201508Y-87428D01*
X201008Y-86427D02*
X201508Y-87428D01*
X201008Y-86427D02*
X201508Y-85427D01*
X200508Y-85927D02*
X201508Y-85427D01*
X199508D02*
X200508Y-85927D01*
X199508Y-85427D02*
X200008Y-86427D01*
X199508Y-87428D02*
X200008Y-86427D01*
X178015Y-98263D02*
X179015Y-97763D01*
X180015Y-98263D01*
X179515Y-97263D02*
X180015Y-98263D01*
X179515Y-97263D02*
X180015Y-96263D01*
X179015Y-96763D02*
X180015Y-96263D01*
X178015D02*
X179015Y-96763D01*
X178015Y-96263D02*
X178515Y-97263D01*
X178015Y-98263D02*
X178515Y-97263D01*
X177615Y-80139D02*
X178615Y-79639D01*
X179615Y-80139D01*
X179115Y-79139D02*
X179615Y-80139D01*
X179115Y-79139D02*
X179615Y-78139D01*
X178615Y-78639D02*
X179615Y-78139D01*
X177615D02*
X178615Y-78639D01*
X177615Y-78139D02*
X178115Y-79139D01*
X177615Y-80139D02*
X178115Y-79139D01*
X32028Y-48005D02*
X33028Y-47505D01*
X34028Y-48005D01*
X33528Y-47005D02*
X34028Y-48005D01*
X33528Y-47005D02*
X34028Y-46005D01*
X33028Y-46505D02*
X34028Y-46005D01*
X32028D02*
X33028Y-46505D01*
X32028Y-46005D02*
X32528Y-47005D01*
X32028Y-48005D02*
X32528Y-47005D01*
X117582Y-12021D02*
X118582Y-11521D01*
X119582Y-12021D01*
X119082Y-11021D02*
X119582Y-12021D01*
X119082Y-11021D02*
X119582Y-10021D01*
X118582Y-10521D02*
X119582Y-10021D01*
X117582D02*
X118582Y-10521D01*
X117582Y-10021D02*
X118082Y-11021D01*
X117582Y-12021D02*
X118082Y-11021D01*
X201268Y-142599D02*
X202268Y-142099D01*
X203268Y-142599D01*
X202768Y-141599D02*
X203268Y-142599D01*
X202768Y-141599D02*
X203268Y-140599D01*
X202268Y-141099D02*
X203268Y-140599D01*
X201268D02*
X202268Y-141099D01*
X201268Y-140599D02*
X201768Y-141599D01*
X201268Y-142599D02*
X201768Y-141599D01*
X202668Y-151499D02*
X203668Y-150999D01*
X204668Y-151499D01*
X204168Y-150499D02*
X204668Y-151499D01*
X204168Y-150499D02*
X204668Y-149499D01*
X203668Y-149999D02*
X204668Y-149499D01*
X202668D02*
X203668Y-149999D01*
X202668Y-149499D02*
X203168Y-150499D01*
X202668Y-151499D02*
X203168Y-150499D01*
X208568Y-155199D02*
X209568Y-154699D01*
X210568Y-155199D01*
X210068Y-154199D02*
X210568Y-155199D01*
X210068Y-154199D02*
X210568Y-153199D01*
X209568Y-153699D02*
X210568Y-153199D01*
X208568D02*
X209568Y-153699D01*
X208568Y-153199D02*
X209068Y-154199D01*
X208568Y-155199D02*
X209068Y-154199D01*
X197568Y-147899D02*
X198568Y-147399D01*
X199568Y-147899D01*
X199068Y-146899D02*
X199568Y-147899D01*
X199068Y-146899D02*
X199568Y-145899D01*
X198568Y-146399D02*
X199568Y-145899D01*
X197568D02*
X198568Y-146399D01*
X197568Y-145899D02*
X198068Y-146899D01*
X197568Y-147899D02*
X198068Y-146899D01*
X206256Y-136115D02*
X207256Y-135615D01*
X208256Y-136115D01*
X207756Y-135115D02*
X208256Y-136115D01*
X207756Y-135115D02*
X208256Y-134115D01*
X207256Y-134615D02*
X208256Y-134115D01*
X206256D02*
X207256Y-134615D01*
X206256Y-134115D02*
X206756Y-135115D01*
X206256Y-136115D02*
X206756Y-135115D01*
X214080Y-132988D02*
X215080Y-132488D01*
X216080Y-132988D01*
X215580Y-131988D02*
X216080Y-132988D01*
X215580Y-131988D02*
X216080Y-130988D01*
X215080Y-131488D02*
X216080Y-130988D01*
X214080D02*
X215080Y-131488D01*
X214080Y-130988D02*
X214580Y-131988D01*
X214080Y-132988D02*
X214580Y-131988D01*
X220080Y-136488D02*
X221080Y-135988D01*
X222080Y-136488D01*
X221580Y-135488D02*
X222080Y-136488D01*
X221580Y-135488D02*
X222080Y-134488D01*
X221080Y-134988D02*
X222080Y-134488D01*
X220080D02*
X221080Y-134988D01*
X220080Y-134488D02*
X220580Y-135488D01*
X220080Y-136488D02*
X220580Y-135488D01*
X209180Y-130488D02*
X210180Y-129988D01*
X211180Y-130488D01*
X210680Y-129488D02*
X211180Y-130488D01*
X210680Y-129488D02*
X211180Y-128488D01*
X210180Y-128988D02*
X211180Y-128488D01*
X209180D02*
X210180Y-128988D01*
X209180Y-128488D02*
X209680Y-129488D01*
X209180Y-130488D02*
X209680Y-129488D01*
X24760Y-172461D02*
X25760Y-171961D01*
X26760Y-172461D01*
X26260Y-171461D02*
X26760Y-172461D01*
X26260Y-171461D02*
X26760Y-170461D01*
X25760Y-170961D02*
X26760Y-170461D01*
X24760D02*
X25760Y-170961D01*
X24760Y-170461D02*
X25260Y-171461D01*
X24760Y-172461D02*
X25260Y-171461D01*
X27946Y-169445D02*
X28946Y-168945D01*
X29946Y-169445D01*
X29446Y-168445D02*
X29946Y-169445D01*
X29446Y-168445D02*
X29946Y-167445D01*
X28946Y-167945D02*
X29946Y-167445D01*
X27946D02*
X28946Y-167945D01*
X27946Y-167445D02*
X28446Y-168445D01*
X27946Y-169445D02*
X28446Y-168445D01*
X118427Y-17549D02*
X119427Y-17050D01*
X120427Y-17549D01*
X119927Y-16549D02*
X120427Y-17549D01*
X119927Y-16549D02*
X120427Y-15550D01*
X119427Y-16049D02*
X120427Y-15550D01*
X118427D02*
X119427Y-16049D01*
X118427Y-15550D02*
X118927Y-16549D01*
X118427Y-17549D02*
X118927Y-16549D01*
X213866Y-151834D02*
X214866Y-151334D01*
X215866Y-151834D01*
X215366Y-150834D02*
X215866Y-151834D01*
X215366Y-150834D02*
X215866Y-149834D01*
X214866Y-150334D02*
X215866Y-149834D01*
X213866D02*
X214866Y-150334D01*
X213866Y-149834D02*
X214366Y-150834D01*
X213866Y-151834D02*
X214366Y-150834D01*
X219228Y-143505D02*
X220228Y-143005D01*
X221228Y-143505D01*
X220728Y-142505D02*
X221228Y-143505D01*
X220728Y-142505D02*
X221228Y-141505D01*
X220228Y-142005D02*
X221228Y-141505D01*
X219228D02*
X220228Y-142005D01*
X219228Y-141505D02*
X219728Y-142505D01*
X219228Y-143505D02*
X219728Y-142505D01*
X35634Y-30605D02*
X36634Y-30105D01*
X37634Y-30605D01*
X37134Y-29605D02*
X37634Y-30605D01*
X37134Y-29605D02*
X37634Y-28605D01*
X36634Y-29105D02*
X37634Y-28605D01*
X35634D02*
X36634Y-29105D01*
X35634Y-28605D02*
X36134Y-29605D01*
X35634Y-30605D02*
X36134Y-29605D01*
X112740Y6295D02*
X113740Y6795D01*
X114740Y6295D01*
X114240Y7295D02*
X114740Y6295D01*
X114240Y7295D02*
X114740Y8295D01*
X113740Y7795D02*
X114740Y8295D01*
X112740D02*
X113740Y7795D01*
X112740Y8295D02*
X113240Y7295D01*
X112740Y6295D02*
X113240Y7295D01*
X188800Y-98200D02*
X189800Y-97700D01*
X190800Y-98200D01*
X190300Y-97200D02*
X190800Y-98200D01*
X190300Y-97200D02*
X190800Y-96200D01*
X189800Y-96700D02*
X190800Y-96200D01*
X188800D02*
X189800Y-96700D01*
X188800Y-96200D02*
X189300Y-97200D01*
X188800Y-98200D02*
X189300Y-97200D01*
X175700Y-103100D02*
X176700Y-102600D01*
X177700Y-103100D01*
X177200Y-102100D02*
X177700Y-103100D01*
X177200Y-102100D02*
X177700Y-101100D01*
X176700Y-101600D02*
X177700Y-101100D01*
X175700D02*
X176700Y-101600D01*
X175700Y-101100D02*
X176200Y-102100D01*
X175700Y-103100D02*
X176200Y-102100D01*
X217168Y-62805D02*
X218168Y-62305D01*
X219168Y-62805D01*
X218668Y-61805D02*
X219168Y-62805D01*
X218668Y-61805D02*
X219168Y-60805D01*
X218168Y-61305D02*
X219168Y-60805D01*
X217168D02*
X218168Y-61305D01*
X217168Y-60805D02*
X217668Y-61805D01*
X217168Y-62805D02*
X217668Y-61805D01*
X94528Y-161918D02*
X95528Y-161418D01*
X96528Y-161918D01*
X96028Y-160918D02*
X96528Y-161918D01*
X96028Y-160918D02*
X96528Y-159918D01*
X95528Y-160418D02*
X96528Y-159918D01*
X94528D02*
X95528Y-160418D01*
X94528Y-159918D02*
X95028Y-160918D01*
X94528Y-161918D02*
X95028Y-160918D01*
X126828Y-158905D02*
X127828Y-158405D01*
X128828Y-158905D01*
X128328Y-157905D02*
X128828Y-158905D01*
X128328Y-157905D02*
X128828Y-156905D01*
X127828Y-157405D02*
X128828Y-156905D01*
X126828D02*
X127828Y-157405D01*
X126828Y-156905D02*
X127328Y-157905D01*
X126828Y-158905D02*
X127328Y-157905D01*
X136600Y-165800D02*
X137600Y-165300D01*
X138600Y-165800D01*
X138100Y-164800D02*
X138600Y-165800D01*
X138100Y-164800D02*
X138600Y-163800D01*
X137600Y-164300D02*
X138600Y-163800D01*
X136600D02*
X137600Y-164300D01*
X136600Y-163800D02*
X137100Y-164800D01*
X136600Y-165800D02*
X137100Y-164800D01*
X136600Y-174076D02*
X137600Y-173576D01*
X138600Y-174076D01*
X138100Y-173076D02*
X138600Y-174076D01*
X138100Y-173076D02*
X138600Y-172076D01*
X137600Y-172576D02*
X138600Y-172076D01*
X136600D02*
X137600Y-172576D01*
X136600Y-172076D02*
X137100Y-173076D01*
X136600Y-174076D02*
X137100Y-173076D01*
X117928Y-142905D02*
X118928Y-142405D01*
X119928Y-142905D01*
X119428Y-141905D02*
X119928Y-142905D01*
X119428Y-141905D02*
X119928Y-140905D01*
X118928Y-141405D02*
X119928Y-140905D01*
X117928D02*
X118928Y-141405D01*
X117928Y-140905D02*
X118428Y-141905D01*
X117928Y-142905D02*
X118428Y-141905D01*
X208519Y-102075D02*
X209519Y-101575D01*
X210519Y-102075D01*
X210019Y-101075D02*
X210519Y-102075D01*
X210019Y-101075D02*
X210519Y-100075D01*
X209519Y-100575D02*
X210519Y-100075D01*
X208519D02*
X209519Y-100575D01*
X208519Y-100075D02*
X209019Y-101075D01*
X208519Y-102075D02*
X209019Y-101075D01*
X220286Y-42764D02*
X221286Y-42264D01*
X222286Y-42764D01*
X221786Y-41764D02*
X222286Y-42764D01*
X221786Y-41764D02*
X222286Y-40764D01*
X221286Y-41264D02*
X222286Y-40764D01*
X220286D02*
X221286Y-41264D01*
X220286Y-40764D02*
X220786Y-41764D01*
X220286Y-42764D02*
X220786Y-41764D01*
X206886Y-105879D02*
X207886Y-105379D01*
X208886Y-105879D01*
X208386Y-104879D02*
X208886Y-105879D01*
X208386Y-104879D02*
X208886Y-103879D01*
X207886Y-104379D02*
X208886Y-103879D01*
X206886D02*
X207886Y-104379D01*
X206886Y-103879D02*
X207386Y-104879D01*
X206886Y-105879D02*
X207386Y-104879D01*
X225328Y-85305D02*
X226328Y-84805D01*
X227328Y-85305D01*
X226828Y-84305D02*
X227328Y-85305D01*
X226828Y-84305D02*
X227328Y-83305D01*
X226328Y-83805D02*
X227328Y-83305D01*
X225328D02*
X226328Y-83805D01*
X225328Y-83305D02*
X225828Y-84305D01*
X225328Y-85305D02*
X225828Y-84305D01*
X136600Y-177480D02*
X137600Y-176980D01*
X138600Y-177480D01*
X138100Y-176480D02*
X138600Y-177480D01*
X138100Y-176480D02*
X138600Y-175480D01*
X137600Y-175980D02*
X138600Y-175480D01*
X136600D02*
X137600Y-175980D01*
X136600Y-175480D02*
X137100Y-176480D01*
X136600Y-177480D02*
X137100Y-176480D01*
X136600Y-169404D02*
X137600Y-168904D01*
X138600Y-169404D01*
X138100Y-168404D02*
X138600Y-169404D01*
X138100Y-168404D02*
X138600Y-167404D01*
X137600Y-167904D02*
X138600Y-167404D01*
X136600D02*
X137600Y-167904D01*
X136600Y-167404D02*
X137100Y-168404D01*
X136600Y-169404D02*
X137100Y-168404D01*
X193204Y-157384D02*
X194204Y-156884D01*
X195204Y-157384D01*
X194704Y-156384D02*
X195204Y-157384D01*
X194704Y-156384D02*
X195204Y-155384D01*
X194204Y-155884D02*
X195204Y-155384D01*
X193204D02*
X194204Y-155884D01*
X193204Y-155384D02*
X193704Y-156384D01*
X193204Y-157384D02*
X193704Y-156384D01*
X213237Y-2687D02*
X214237Y-2187D01*
X215237Y-2687D01*
X214737Y-1687D02*
X215237Y-2687D01*
X214737Y-1687D02*
X215237Y-687D01*
X214237Y-1187D02*
X215237Y-687D01*
X213237D02*
X214237Y-1187D01*
X213237Y-687D02*
X213737Y-1687D01*
X213237Y-2687D02*
X213737Y-1687D01*
X31126Y-160605D02*
X32126Y-160105D01*
X33126Y-160605D01*
X32626Y-159605D02*
X33126Y-160605D01*
X32626Y-159605D02*
X33126Y-158605D01*
X32126Y-159105D02*
X33126Y-158605D01*
X31126D02*
X32126Y-159105D01*
X31126Y-158605D02*
X31626Y-159605D01*
X31126Y-160605D02*
X31626Y-159605D01*
X47298Y-122755D02*
X48298Y-122255D01*
X49298Y-122755D01*
X48798Y-121755D02*
X49298Y-122755D01*
X48798Y-121755D02*
X49298Y-120755D01*
X48298Y-121255D02*
X49298Y-120755D01*
X47298D02*
X48298Y-121255D01*
X47298Y-120755D02*
X47798Y-121755D01*
X47298Y-122755D02*
X47798Y-121755D01*
X43031Y-146229D02*
X44031Y-145729D01*
X45031Y-146229D01*
X44531Y-145229D02*
X45031Y-146229D01*
X44531Y-145229D02*
X45031Y-144229D01*
X44031Y-144729D02*
X45031Y-144229D01*
X43031D02*
X44031Y-144729D01*
X43031Y-144229D02*
X43531Y-145229D01*
X43031Y-146229D02*
X43531Y-145229D01*
X43031Y-149729D02*
X44031Y-149229D01*
X45031Y-149729D01*
X44531Y-148729D02*
X45031Y-149729D01*
X44531Y-148729D02*
X45031Y-147729D01*
X44031Y-148229D02*
X45031Y-147729D01*
X43031D02*
X44031Y-148229D01*
X43031Y-147729D02*
X43531Y-148729D01*
X43031Y-149729D02*
X43531Y-148729D01*
X40150Y-141362D02*
X41150Y-140862D01*
X42150Y-141362D01*
X41650Y-140362D02*
X42150Y-141362D01*
X41650Y-140362D02*
X42150Y-139362D01*
X41150Y-139862D02*
X42150Y-139362D01*
X40150D02*
X41150Y-139862D01*
X40150Y-139362D02*
X40650Y-140362D01*
X40150Y-141362D02*
X40650Y-140362D01*
X49473Y-131244D02*
X50473Y-130744D01*
X51473Y-131244D01*
X50973Y-130244D02*
X51473Y-131244D01*
X50973Y-130244D02*
X51473Y-129244D01*
X50473Y-129744D02*
X51473Y-129244D01*
X49473D02*
X50473Y-129744D01*
X49473Y-129244D02*
X49973Y-130244D01*
X49473Y-131244D02*
X49973Y-130244D01*
X54384Y-127504D02*
X55384Y-127004D01*
X56384Y-127504D01*
X55884Y-126504D02*
X56384Y-127504D01*
X55884Y-126504D02*
X56384Y-125504D01*
X55384Y-126004D02*
X56384Y-125504D01*
X54384D02*
X55384Y-126004D01*
X54384Y-125504D02*
X54884Y-126504D01*
X54384Y-127504D02*
X54884Y-126504D01*
X109228Y-128755D02*
X110228Y-128255D01*
X111228Y-128755D01*
X110728Y-127755D02*
X111228Y-128755D01*
X110728Y-127755D02*
X111228Y-126755D01*
X110228Y-127255D02*
X111228Y-126755D01*
X109228D02*
X110228Y-127255D01*
X109228Y-126755D02*
X109728Y-127755D01*
X109228Y-128755D02*
X109728Y-127755D01*
X105100Y-55500D02*
X106100Y-55000D01*
X107100Y-55500D01*
X106600Y-54500D02*
X107100Y-55500D01*
X106600Y-54500D02*
X107100Y-53500D01*
X106100Y-54000D02*
X107100Y-53500D01*
X105100D02*
X106100Y-54000D01*
X105100Y-53500D02*
X105600Y-54500D01*
X105100Y-55500D02*
X105600Y-54500D01*
X100900Y-64685D02*
X101900Y-64185D01*
X102900Y-64685D01*
X102400Y-63685D02*
X102900Y-64685D01*
X102400Y-63685D02*
X102900Y-62685D01*
X101900Y-63185D02*
X102900Y-62685D01*
X100900D02*
X101900Y-63185D01*
X100900Y-62685D02*
X101400Y-63685D01*
X100900Y-64685D02*
X101400Y-63685D01*
X105817Y-81881D02*
X106817Y-81381D01*
X107817Y-81881D01*
X107317Y-80881D02*
X107817Y-81881D01*
X107317Y-80881D02*
X107817Y-79881D01*
X106817Y-80381D02*
X107817Y-79881D01*
X105817D02*
X106817Y-80381D01*
X105817Y-79881D02*
X106317Y-80881D01*
X105817Y-81881D02*
X106317Y-80881D01*
X84800Y-156400D02*
X85800Y-155900D01*
X86800Y-156400D01*
X86300Y-155400D02*
X86800Y-156400D01*
X86300Y-155400D02*
X86800Y-154400D01*
X85800Y-154900D02*
X86800Y-154400D01*
X84800D02*
X85800Y-154900D01*
X84800Y-154400D02*
X85300Y-155400D01*
X84800Y-156400D02*
X85300Y-155400D01*
X117800Y-55500D02*
X118800Y-55000D01*
X119800Y-55500D01*
X119300Y-54500D02*
X119800Y-55500D01*
X119300Y-54500D02*
X119800Y-53500D01*
X118800Y-54000D02*
X119800Y-53500D01*
X117800D02*
X118800Y-54000D01*
X117800Y-53500D02*
X118300Y-54500D01*
X117800Y-55500D02*
X118300Y-54500D01*
X149205Y-82095D02*
X150205Y-81595D01*
X151205Y-82095D01*
X150705Y-81095D02*
X151205Y-82095D01*
X150705Y-81095D02*
X151205Y-80095D01*
X150205Y-80595D02*
X151205Y-80095D01*
X149205D02*
X150205Y-80595D01*
X149205Y-80095D02*
X149705Y-81095D01*
X149205Y-82095D02*
X149705Y-81095D01*
X152500Y-92900D02*
X153500Y-92400D01*
X154500Y-92900D01*
X154000Y-91900D02*
X154500Y-92900D01*
X154000Y-91900D02*
X154500Y-90900D01*
X153500Y-91400D02*
X154500Y-90900D01*
X152500D02*
X153500Y-91400D01*
X152500Y-90900D02*
X153000Y-91900D01*
X152500Y-92900D02*
X153000Y-91900D01*
X159400Y-83300D02*
X160400Y-82800D01*
X161400Y-83300D01*
X160900Y-82300D02*
X161400Y-83300D01*
X160900Y-82300D02*
X161400Y-81300D01*
X160400Y-81800D02*
X161400Y-81300D01*
X159400D02*
X160400Y-81800D01*
X159400Y-81300D02*
X159900Y-82300D01*
X159400Y-83300D02*
X159900Y-82300D01*
X189629Y-121763D02*
X190629Y-121263D01*
X191629Y-121763D01*
X191129Y-120763D02*
X191629Y-121763D01*
X191129Y-120763D02*
X191629Y-119763D01*
X190629Y-120263D02*
X191629Y-119763D01*
X189629D02*
X190629Y-120263D01*
X189629Y-119763D02*
X190129Y-120763D01*
X189629Y-121763D02*
X190129Y-120763D01*
X192428Y-123616D02*
X193428Y-123116D01*
X194428Y-123616D01*
X193928Y-122616D02*
X194428Y-123616D01*
X193928Y-122616D02*
X194428Y-121616D01*
X193428Y-122116D02*
X194428Y-121616D01*
X192428D02*
X193428Y-122116D01*
X192428Y-121616D02*
X192928Y-122616D01*
X192428Y-123616D02*
X192928Y-122616D01*
X158216Y-119205D02*
X159216Y-118705D01*
X160216Y-119205D01*
X159716Y-118205D02*
X160216Y-119205D01*
X159716Y-118205D02*
X160216Y-117205D01*
X159216Y-117705D02*
X160216Y-117205D01*
X158216D02*
X159216Y-117705D01*
X158216Y-117205D02*
X158716Y-118205D01*
X158216Y-119205D02*
X158716Y-118205D01*
X158216Y-114705D02*
X159216Y-114205D01*
X160216Y-114705D01*
X159716Y-113705D02*
X160216Y-114705D01*
X159716Y-113705D02*
X160216Y-112705D01*
X159216Y-113205D02*
X160216Y-112705D01*
X158216D02*
X159216Y-113205D01*
X158216Y-112705D02*
X158716Y-113705D01*
X158216Y-114705D02*
X158716Y-113705D01*
X96799Y-144139D02*
X97799Y-143639D01*
X98799Y-144139D01*
X98299Y-143139D02*
X98799Y-144139D01*
X98299Y-143139D02*
X98799Y-142139D01*
X97799Y-142639D02*
X98799Y-142139D01*
X96799D02*
X97799Y-142639D01*
X96799Y-142139D02*
X97299Y-143139D01*
X96799Y-144139D02*
X97299Y-143139D01*
X169428Y-117505D02*
X170428Y-117005D01*
X171428Y-117505D01*
X170928Y-116505D02*
X171428Y-117505D01*
X170928Y-116505D02*
X171428Y-115505D01*
X170428Y-116005D02*
X171428Y-115505D01*
X169428D02*
X170428Y-116005D01*
X169428Y-115505D02*
X169928Y-116505D01*
X169428Y-117505D02*
X169928Y-116505D01*
X173828Y-74105D02*
X174828Y-73605D01*
X175828Y-74105D01*
X175328Y-73105D02*
X175828Y-74105D01*
X175328Y-73105D02*
X175828Y-72105D01*
X174828Y-72605D02*
X175828Y-72105D01*
X173828D02*
X174828Y-72605D01*
X173828Y-72105D02*
X174328Y-73105D01*
X173828Y-74105D02*
X174328Y-73105D01*
X173428Y-78505D02*
X174428Y-78005D01*
X175428Y-78505D01*
X174928Y-77505D02*
X175428Y-78505D01*
X174928Y-77505D02*
X175428Y-76505D01*
X174428Y-77005D02*
X175428Y-76505D01*
X173428D02*
X174428Y-77005D01*
X173428Y-76505D02*
X173928Y-77505D01*
X173428Y-78505D02*
X173928Y-77505D01*
X173628Y-83288D02*
X174628Y-82788D01*
X175628Y-83288D01*
X175128Y-82288D02*
X175628Y-83288D01*
X175128Y-82288D02*
X175628Y-81288D01*
X174628Y-81788D02*
X175628Y-81288D01*
X173628D02*
X174628Y-81788D01*
X173628Y-81288D02*
X174128Y-82288D01*
X173628Y-83288D02*
X174128Y-82288D01*
X36928Y-154894D02*
X37928Y-154394D01*
X38928Y-154894D01*
X38428Y-153894D02*
X38928Y-154894D01*
X38428Y-153894D02*
X38928Y-152894D01*
X37928Y-153394D02*
X38928Y-152894D01*
X36928D02*
X37928Y-153394D01*
X36928Y-152894D02*
X37428Y-153894D01*
X36928Y-154894D02*
X37428Y-153894D01*
X57104Y-100300D02*
X58104Y-99800D01*
X59105Y-100300D01*
X58605Y-99300D02*
X59105Y-100300D01*
X58605Y-99300D02*
X59105Y-98300D01*
X58104Y-98800D02*
X59105Y-98300D01*
X57104D02*
X58104Y-98800D01*
X57104Y-98300D02*
X57604Y-99300D01*
X57104Y-100300D02*
X57604Y-99300D01*
X148300Y-146705D02*
X149300Y-146205D01*
X150300Y-146705D01*
X149800Y-145705D02*
X150300Y-146705D01*
X149800Y-145705D02*
X150300Y-144705D01*
X149300Y-145205D02*
X150300Y-144705D01*
X148300D02*
X149300Y-145205D01*
X148300Y-144705D02*
X148800Y-145705D01*
X148300Y-146705D02*
X148800Y-145705D01*
X122164Y-132605D02*
X123164Y-132105D01*
X124164Y-132605D01*
X123664Y-131605D02*
X124164Y-132605D01*
X123664Y-131605D02*
X124164Y-130605D01*
X123164Y-131105D02*
X124164Y-130605D01*
X122164D02*
X123164Y-131105D01*
X122164Y-130605D02*
X122664Y-131605D01*
X122164Y-132605D02*
X122664Y-131605D01*
X144416Y-114000D02*
X145416Y-113500D01*
X146416Y-114000D01*
X145916Y-113000D02*
X146416Y-114000D01*
X145916Y-113000D02*
X146416Y-112000D01*
X145416Y-112500D02*
X146416Y-112000D01*
X144416D02*
X145416Y-112500D01*
X144416Y-112000D02*
X144916Y-113000D01*
X144416Y-114000D02*
X144916Y-113000D01*
X133692Y-84205D02*
X134692Y-83705D01*
X135692Y-84205D01*
X135192Y-83205D02*
X135692Y-84205D01*
X135192Y-83205D02*
X135692Y-82205D01*
X134692Y-82705D02*
X135692Y-82205D01*
X133692D02*
X134692Y-82705D01*
X133692Y-82205D02*
X134192Y-83205D01*
X133692Y-84205D02*
X134192Y-83205D01*
X124300Y-69900D02*
X125300Y-69400D01*
X126300Y-69900D01*
X125800Y-68900D02*
X126300Y-69900D01*
X125800Y-68900D02*
X126300Y-67900D01*
X125300Y-68400D02*
X126300Y-67900D01*
X124300D02*
X125300Y-68400D01*
X124300Y-67900D02*
X124800Y-68900D01*
X124300Y-69900D02*
X124800Y-68900D01*
X155600Y-18200D02*
X156600Y-17700D01*
X157600Y-18200D01*
X157100Y-17200D02*
X157600Y-18200D01*
X157100Y-17200D02*
X157600Y-16200D01*
X156600Y-16700D02*
X157600Y-16200D01*
X155600D02*
X156600Y-16700D01*
X155600Y-16200D02*
X156100Y-17200D01*
X155600Y-18200D02*
X156100Y-17200D01*
X105817Y-73231D02*
X106817Y-72731D01*
X107817Y-73231D01*
X107317Y-72231D02*
X107817Y-73231D01*
X107317Y-72231D02*
X107817Y-71231D01*
X106817Y-71731D02*
X107817Y-71231D01*
X105817D02*
X106817Y-71731D01*
X105817Y-71231D02*
X106317Y-72231D01*
X105817Y-73231D02*
X106317Y-72231D01*
X72058Y-66677D02*
X73058Y-66177D01*
X74058Y-66677D01*
X73558Y-65677D02*
X74058Y-66677D01*
X73558Y-65677D02*
X74058Y-64677D01*
X73058Y-65177D02*
X74058Y-64677D01*
X72058D02*
X73058Y-65177D01*
X72058Y-64677D02*
X72558Y-65677D01*
X72058Y-66677D02*
X72558Y-65677D01*
X99874Y-123049D02*
X100874Y-122549D01*
X101874Y-123049D01*
X101374Y-122049D02*
X101874Y-123049D01*
X101374Y-122049D02*
X101874Y-121049D01*
X100874Y-121549D02*
X101874Y-121049D01*
X99874D02*
X100874Y-121549D01*
X99874Y-121049D02*
X100374Y-122049D01*
X99874Y-123049D02*
X100374Y-122049D01*
X82034Y-69601D02*
X83034Y-69101D01*
X84034Y-69601D01*
X83534Y-68601D02*
X84034Y-69601D01*
X83534Y-68601D02*
X84034Y-67601D01*
X83034Y-68101D02*
X84034Y-67601D01*
X82034D02*
X83034Y-68101D01*
X82034Y-67601D02*
X82534Y-68601D01*
X82034Y-69601D02*
X82534Y-68601D01*
X77034Y-69601D02*
X78034Y-69101D01*
X79034Y-69601D01*
X78534Y-68601D02*
X79034Y-69601D01*
X78534Y-68601D02*
X79034Y-67601D01*
X78034Y-68101D02*
X79034Y-67601D01*
X77034D02*
X78034Y-68101D01*
X77034Y-67601D02*
X77534Y-68601D01*
X77034Y-69601D02*
X77534Y-68601D01*
X86806Y-99685D02*
X87806Y-99185D01*
X88806Y-99685D01*
X88306Y-98685D02*
X88806Y-99685D01*
X88306Y-98685D02*
X88806Y-97685D01*
X87806Y-98185D02*
X88806Y-97685D01*
X86806D02*
X87806Y-98185D01*
X86806Y-97685D02*
X87306Y-98685D01*
X86806Y-99685D02*
X87306Y-98685D01*
X52500Y-55700D02*
X53500Y-55200D01*
X54500Y-55700D01*
X54000Y-54700D02*
X54500Y-55700D01*
X54000Y-54700D02*
X54500Y-53700D01*
X53500Y-54200D02*
X54500Y-53700D01*
X52500D02*
X53500Y-54200D01*
X52500Y-53700D02*
X53000Y-54700D01*
X52500Y-55700D02*
X53000Y-54700D01*
X52500Y-59600D02*
X53500Y-59100D01*
X54500Y-59600D01*
X54000Y-58600D02*
X54500Y-59600D01*
X54000Y-58600D02*
X54500Y-57600D01*
X53500Y-58100D02*
X54500Y-57600D01*
X52500D02*
X53500Y-58100D01*
X52500Y-57600D02*
X53000Y-58600D01*
X52500Y-59600D02*
X53000Y-58600D01*
X70500Y-62800D02*
X71500Y-62300D01*
X72500Y-62800D01*
X72000Y-61800D02*
X72500Y-62800D01*
X72000Y-61800D02*
X72500Y-60800D01*
X71500Y-61300D02*
X72500Y-60800D01*
X70500D02*
X71500Y-61300D01*
X70500Y-60800D02*
X71000Y-61800D01*
X70500Y-62800D02*
X71000Y-61800D01*
X63300Y-100300D02*
X64300Y-99800D01*
X65300Y-100300D01*
X64800Y-99300D02*
X65300Y-100300D01*
X64800Y-99300D02*
X65300Y-98300D01*
X64300Y-98800D02*
X65300Y-98300D01*
X63300D02*
X64300Y-98800D01*
X63300Y-98300D02*
X63800Y-99300D01*
X63300Y-100300D02*
X63800Y-99300D01*
X62300Y-59600D02*
X63300Y-59100D01*
X64300Y-59600D01*
X63800Y-58600D02*
X64300Y-59600D01*
X63800Y-58600D02*
X64300Y-57600D01*
X63300Y-58100D02*
X64300Y-57600D01*
X62300D02*
X63300Y-58100D01*
X62300Y-57600D02*
X62800Y-58600D01*
X62300Y-59600D02*
X62800Y-58600D01*
X128028Y-30077D02*
X129028Y-29577D01*
X130028Y-30077D01*
X129528Y-29077D02*
X130028Y-30077D01*
X129528Y-29077D02*
X130028Y-28077D01*
X129028Y-28577D02*
X130028Y-28077D01*
X128028D02*
X129028Y-28577D01*
X128028Y-28077D02*
X128528Y-29077D01*
X128028Y-30077D02*
X128528Y-29077D01*
X83500Y-189100D02*
X84500Y-188600D01*
X85500Y-189100D01*
X85000Y-188100D02*
X85500Y-189100D01*
X85000Y-188100D02*
X85500Y-187100D01*
X84500Y-187600D02*
X85500Y-187100D01*
X83500D02*
X84500Y-187600D01*
X83500Y-187100D02*
X84000Y-188100D01*
X83500Y-189100D02*
X84000Y-188100D01*
X147200Y-195076D02*
X148200Y-194576D01*
X149200Y-195076D01*
X148700Y-194076D02*
X149200Y-195076D01*
X148700Y-194076D02*
X149200Y-193076D01*
X148200Y-193576D02*
X149200Y-193076D01*
X147200D02*
X148200Y-193576D01*
X147200Y-193076D02*
X147700Y-194076D01*
X147200Y-195076D02*
X147700Y-194076D01*
X118866Y-174132D02*
X119866Y-173632D01*
X120866Y-174132D01*
X120366Y-173132D02*
X120866Y-174132D01*
X120366Y-173132D02*
X120866Y-172132D01*
X119866Y-172632D02*
X120866Y-172132D01*
X118866D02*
X119866Y-172632D01*
X118866Y-172132D02*
X119366Y-173132D01*
X118866Y-174132D02*
X119366Y-173132D01*
X92428Y-170205D02*
X93428Y-169705D01*
X94428Y-170205D01*
X93928Y-169205D02*
X94428Y-170205D01*
X93928Y-169205D02*
X94428Y-168205D01*
X93428Y-168705D02*
X94428Y-168205D01*
X92428D02*
X93428Y-168705D01*
X92428Y-168205D02*
X92928Y-169205D01*
X92428Y-170205D02*
X92928Y-169205D01*
X121048Y-180305D02*
X122048Y-179805D01*
X123048Y-180305D01*
X122548Y-179305D02*
X123048Y-180305D01*
X122548Y-179305D02*
X123048Y-178305D01*
X122048Y-178805D02*
X123048Y-178305D01*
X121048D02*
X122048Y-178805D01*
X121048Y-178305D02*
X121548Y-179305D01*
X121048Y-180305D02*
X121548Y-179305D01*
X85751Y-183449D02*
X86752Y-182949D01*
X87752Y-183449D01*
X87252Y-182448D02*
X87752Y-183449D01*
X87252Y-182448D02*
X87752Y-181448D01*
X86752Y-181948D02*
X87752Y-181448D01*
X85751D02*
X86752Y-181948D01*
X85751Y-181448D02*
X86251Y-182448D01*
X85751Y-183449D02*
X86251Y-182448D01*
X40128Y-75779D02*
X41128Y-75279D01*
X42128Y-75779D01*
X41628Y-74779D02*
X42128Y-75779D01*
X41628Y-74779D02*
X42128Y-73779D01*
X41128Y-74279D02*
X42128Y-73779D01*
X40128D02*
X41128Y-74279D01*
X40128Y-73779D02*
X40628Y-74779D01*
X40128Y-75779D02*
X40628Y-74779D01*
X80628Y-30605D02*
X81628Y-30105D01*
X82628Y-30605D01*
X82128Y-29605D02*
X82628Y-30605D01*
X82128Y-29605D02*
X82628Y-28605D01*
X81628Y-29105D02*
X82628Y-28605D01*
X80628D02*
X81628Y-29105D01*
X80628Y-28605D02*
X81128Y-29605D01*
X80628Y-30605D02*
X81128Y-29605D01*
X227135Y-31510D02*
X228135Y-32510D01*
X229135Y-31510D01*
X228135Y-30510D02*
X229135Y-31510D01*
X227135D02*
X228135Y-30510D01*
X223228Y-22305D02*
X224228Y-23305D01*
X225228Y-22305D01*
X224228Y-21305D02*
X225228Y-22305D01*
X223228D02*
X224228Y-21305D01*
X62028Y-14419D02*
X64028D01*
Y-12419D01*
X62028D02*
X64028D01*
X62028Y-14419D02*
Y-12419D01*
X208348Y-148532D02*
X209348Y-146532D01*
X207347D02*
X209348D01*
X207347D02*
X208348Y-148532D01*
X213708Y-140277D02*
X214708Y-138277D01*
X212708D02*
X214708D01*
X212708D02*
X213708Y-140277D01*
X211700Y-90200D02*
X213700D01*
Y-88200D01*
X211700D02*
X213700D01*
X211700Y-90200D02*
Y-88200D01*
X149700Y-166900D02*
X151700D01*
Y-164900D01*
X149700D02*
X151700D01*
X149700Y-166900D02*
Y-164900D01*
X125877Y-188536D02*
X126477Y-187336D01*
X125277D02*
X126477D01*
X125277D02*
X125877Y-188536D01*
Y-188936D02*
X126877Y-186936D01*
X124877D02*
X126877D01*
X124877D02*
X125877Y-188936D01*
X125577Y-204693D02*
X125877Y-204993D01*
X125277Y-204693D02*
X125577D01*
X125277D02*
X125577Y-204393D01*
X125277Y-204093D02*
X125577Y-204393D01*
X125277Y-204093D02*
X125577D01*
X125877Y-203793D01*
X126177Y-204093D01*
X126477D01*
X126177Y-204393D02*
X126477Y-204093D01*
X126177Y-204393D02*
X126477Y-204693D01*
X126177D02*
X126477D01*
X125877Y-204993D02*
X126177Y-204693D01*
X125377Y-204893D02*
X125877Y-205393D01*
X124877Y-204893D02*
X125377D01*
X124877D02*
X125377Y-204393D01*
X124877Y-203893D02*
X125377Y-204393D01*
X124877Y-203893D02*
X125377D01*
X125877Y-203393D01*
X126377Y-203893D01*
X126877D01*
X126377Y-204393D02*
X126877Y-203893D01*
X126377Y-204393D02*
X126877Y-204893D01*
X126377D02*
X126877D01*
X125877Y-205393D02*
X126377Y-204893D01*
X91522Y-204693D02*
X91822Y-204993D01*
X91222Y-204693D02*
X91522D01*
X91222D02*
X91522Y-204393D01*
X91222Y-204093D02*
X91522Y-204393D01*
X91222Y-204093D02*
X91522D01*
X91822Y-203793D01*
X92122Y-204093D01*
X92422D01*
X92122Y-204393D02*
X92422Y-204093D01*
X92122Y-204393D02*
X92422Y-204693D01*
X92122D02*
X92422D01*
X91822Y-204993D02*
X92122Y-204693D01*
X91322Y-204893D02*
X91822Y-205393D01*
X90822Y-204893D02*
X91322D01*
X90822D02*
X91322Y-204393D01*
X90822Y-203893D02*
X91322Y-204393D01*
X90822Y-203893D02*
X91322D01*
X91822Y-203393D01*
X92322Y-203893D01*
X92822D01*
X92322Y-204393D02*
X92822Y-203893D01*
X92322Y-204393D02*
X92822Y-204893D01*
X92322D02*
X92822D01*
X91822Y-205393D02*
X92322Y-204893D01*
X91822Y-188536D02*
X92422Y-187336D01*
X91222D02*
X92422D01*
X91222D02*
X91822Y-188536D01*
Y-188936D02*
X92822Y-186936D01*
X90822D02*
X92822D01*
X90822D02*
X91822Y-188936D01*
X52428Y-84882D02*
X53428Y-84382D01*
X54428Y-84882D01*
X53928Y-83882D02*
X54428Y-84882D01*
X53928Y-83882D02*
X54428Y-82882D01*
X53428Y-83382D02*
X54428Y-82882D01*
X52428D02*
X53428Y-83382D01*
X52428Y-82882D02*
X52928Y-83882D01*
X52428Y-84882D02*
X52928Y-83882D01*
X46916Y-84882D02*
X47916Y-84382D01*
X48916Y-84882D01*
X48416Y-83882D02*
X48916Y-84882D01*
X48416Y-83882D02*
X48916Y-82882D01*
X47916Y-83382D02*
X48916Y-82882D01*
X46916D02*
X47916Y-83382D01*
X46916Y-82882D02*
X47416Y-83882D01*
X46916Y-84882D02*
X47416Y-83882D01*
X49672Y-87638D02*
X50672Y-87138D01*
X51672Y-87638D01*
X51172Y-86638D02*
X51672Y-87638D01*
X51172Y-86638D02*
X51672Y-85638D01*
X50672Y-86138D02*
X51672Y-85638D01*
X49672D02*
X50672Y-86138D01*
X49672Y-85638D02*
X50172Y-86638D01*
X49672Y-87638D02*
X50172Y-86638D01*
X55184Y-87638D02*
X56184Y-87138D01*
X57184Y-87638D01*
X56684Y-86638D02*
X57184Y-87638D01*
X56684Y-86638D02*
X57184Y-85638D01*
X56184Y-86138D02*
X57184Y-85638D01*
X55184D02*
X56184Y-86138D01*
X55184Y-85638D02*
X55684Y-86638D01*
X55184Y-87638D02*
X55684Y-86638D01*
X57940Y-84882D02*
X58940Y-84382D01*
X59940Y-84882D01*
X59440Y-83882D02*
X59940Y-84882D01*
X59440Y-83882D02*
X59940Y-82882D01*
X58940Y-83382D02*
X59940Y-82882D01*
X57940D02*
X58940Y-83382D01*
X57940Y-82882D02*
X58440Y-83882D01*
X57940Y-84882D02*
X58440Y-83882D01*
X57940Y-79370D02*
X58940Y-78870D01*
X59940Y-79370D01*
X59440Y-78370D02*
X59940Y-79370D01*
X59440Y-78370D02*
X59940Y-77370D01*
X58940Y-77870D02*
X59940Y-77370D01*
X57940D02*
X58940Y-77870D01*
X57940Y-77370D02*
X58440Y-78370D01*
X57940Y-79370D02*
X58440Y-78370D01*
X55184Y-82126D02*
X56184Y-81626D01*
X57184Y-82126D01*
X56684Y-81126D02*
X57184Y-82126D01*
X56684Y-81126D02*
X57184Y-80126D01*
X56184Y-80626D02*
X57184Y-80126D01*
X55184D02*
X56184Y-80626D01*
X55184Y-80126D02*
X55684Y-81126D01*
X55184Y-82126D02*
X55684Y-81126D01*
X52428Y-79370D02*
X53428Y-78870D01*
X54428Y-79370D01*
X53928Y-78370D02*
X54428Y-79370D01*
X53928Y-78370D02*
X54428Y-77370D01*
X53428Y-77870D02*
X54428Y-77370D01*
X52428D02*
X53428Y-77870D01*
X52428Y-77370D02*
X52928Y-78370D01*
X52428Y-79370D02*
X52928Y-78370D01*
X49672Y-82126D02*
X50672Y-81626D01*
X51672Y-82126D01*
X51172Y-81126D02*
X51672Y-82126D01*
X51172Y-81126D02*
X51672Y-80126D01*
X50672Y-80626D02*
X51672Y-80126D01*
X49672D02*
X50672Y-80626D01*
X49672Y-80126D02*
X50172Y-81126D01*
X49672Y-82126D02*
X50172Y-81126D01*
X55184Y-76614D02*
X56184Y-76114D01*
X57184Y-76614D01*
X56684Y-75614D02*
X57184Y-76614D01*
X56684Y-75614D02*
X57184Y-74614D01*
X56184Y-75114D02*
X57184Y-74614D01*
X55184D02*
X56184Y-75114D01*
X55184Y-74614D02*
X55684Y-75614D01*
X55184Y-76614D02*
X55684Y-75614D01*
X49672Y-76614D02*
X50672Y-76114D01*
X51672Y-76614D01*
X51172Y-75614D02*
X51672Y-76614D01*
X51172Y-75614D02*
X51672Y-74614D01*
X50672Y-75114D02*
X51672Y-74614D01*
X49672D02*
X50672Y-75114D01*
X49672Y-74614D02*
X50172Y-75614D01*
X49672Y-76614D02*
X50172Y-75614D01*
X46916Y-79370D02*
X47916Y-78870D01*
X48916Y-79370D01*
X48416Y-78370D02*
X48916Y-79370D01*
X48416Y-78370D02*
X48916Y-77370D01*
X47916Y-77870D02*
X48916Y-77370D01*
X46916D02*
X47916Y-77870D01*
X46916Y-77370D02*
X47416Y-78370D01*
X46916Y-79370D02*
X47416Y-78370D01*
X171455Y21009D02*
X172455Y20009D01*
X173455Y21009D01*
X172455Y22009D02*
X173455Y21009D01*
X171455D02*
X172455Y22009D01*
X194242Y13898D02*
X195242Y15898D01*
X193242D02*
X195242D01*
X193242D02*
X194242Y13898D01*
X174145Y29097D02*
X175145Y31097D01*
X173145D02*
X175145D01*
X173145D02*
X174145Y29097D01*
X184958Y10797D02*
X185958Y9797D01*
X186958Y10797D01*
X185958Y11797D02*
X186958Y10797D01*
X184958D02*
X185958Y11797D01*
X124661Y38916D02*
X125661Y37916D01*
X126661Y38916D01*
X125661Y39916D02*
X126661Y38916D01*
X124661D02*
X125661Y39916D01*
X147983Y41624D02*
X148983Y43624D01*
X146983D02*
X148983D01*
X146983D02*
X147983Y41624D01*
X123336Y46863D02*
X124336Y48863D01*
X122336D02*
X124336D01*
X122336D02*
X123336Y46863D01*
X141220Y35397D02*
X142220Y34397D01*
X143220Y35397D01*
X142220Y36397D02*
X143220Y35397D01*
X141220D02*
X142220Y36397D01*
X90777Y38776D02*
X91777Y37776D01*
X92778Y38776D01*
X91777Y39776D02*
X92778Y38776D01*
X90777D02*
X91777Y39776D01*
X69395Y41094D02*
X70395Y43094D01*
X68395D02*
X70395D01*
X68395D02*
X69395Y41094D01*
X93946Y46762D02*
X94946Y48762D01*
X92946D02*
X94946D01*
X92946D02*
X93946Y46762D01*
X74282Y34968D02*
X75282Y33968D01*
X76282Y34968D01*
X75282Y35968D02*
X76282Y34968D01*
X74282D02*
X75282Y35968D01*
X23327Y12701D02*
X24327Y14701D01*
X22327D02*
X24327D01*
X22327D02*
X23327Y12701D01*
X43183Y28214D02*
X44183Y30214D01*
X42183D02*
X44183D01*
X42183D02*
X43183Y28214D01*
X30675Y9731D02*
X31675Y8731D01*
X32675Y9731D01*
X31675Y10731D02*
X32675Y9731D01*
X30675D02*
X31675Y10731D01*
X44015Y20154D02*
X45015Y19154D01*
X46015Y20154D01*
X45015Y21154D02*
X46015Y20154D01*
X44015D02*
X45015Y21154D01*
D289*
X442119Y-23403D02*
Y-29401D01*
Y-26402D01*
X446118D01*
Y-23403D01*
Y-29401D01*
X449117D02*
X451116D01*
X452116Y-28401D01*
Y-26402D01*
X451116Y-25402D01*
X449117D01*
X448117Y-26402D01*
Y-28401D01*
X449117Y-29401D01*
X454115D02*
X456114D01*
X455115D01*
Y-23403D01*
X454115D01*
X462113Y-29401D02*
X460113D01*
X459113Y-28401D01*
Y-26402D01*
X460113Y-25402D01*
X462113D01*
X463112Y-26402D01*
Y-27401D01*
X459113D01*
X471110Y-23403D02*
Y-29401D01*
X475108D01*
X480107D02*
X478107D01*
X477108Y-28401D01*
Y-26402D01*
X478107Y-25402D01*
X480107D01*
X481106Y-26402D01*
Y-27401D01*
X477108D01*
X483106Y-29401D02*
Y-25402D01*
X486105D01*
X487104Y-26402D01*
Y-29401D01*
X491103Y-31400D02*
X492103D01*
X493103Y-30400D01*
Y-25402D01*
X490103D01*
X489104Y-26402D01*
Y-28401D01*
X490103Y-29401D01*
X493103D01*
X496102Y-24402D02*
Y-25402D01*
X495102D01*
X497101D01*
X496102D01*
Y-28401D01*
X497101Y-29401D01*
X500100Y-23403D02*
Y-29401D01*
Y-26402D01*
X501100Y-25402D01*
X503099D01*
X504099Y-26402D01*
Y-29401D01*
X442119Y-19403D02*
Y-13405D01*
X445118D01*
X446118Y-14405D01*
Y-16404D01*
X445118Y-17404D01*
X442119D01*
X444118D02*
X446118Y-19403D01*
X449117D02*
X451116D01*
X452116Y-18404D01*
Y-16404D01*
X451116Y-15405D01*
X449117D01*
X448117Y-16404D01*
Y-18404D01*
X449117Y-19403D01*
X454115Y-15405D02*
Y-18404D01*
X455115Y-19403D01*
X458114D01*
Y-15405D01*
X461113Y-14405D02*
Y-15405D01*
X460113D01*
X462113D01*
X461113D01*
Y-18404D01*
X462113Y-19403D01*
X468111D02*
X466111D01*
X465111Y-18404D01*
Y-16404D01*
X466111Y-15405D01*
X468111D01*
X469110Y-16404D01*
Y-17404D01*
X465111D01*
X475108Y-13405D02*
Y-19403D01*
X472109D01*
X471110Y-18404D01*
Y-16404D01*
X472109Y-15405D01*
X475108D01*
X483106Y-19403D02*
Y-13405D01*
X486105D01*
X487104Y-14405D01*
Y-16404D01*
X486105Y-17404D01*
X483106D01*
X490103Y-15405D02*
X492103D01*
X493103Y-16404D01*
Y-19403D01*
X490103D01*
X489104Y-18404D01*
X490103Y-17404D01*
X493103D01*
X496102Y-14405D02*
Y-15405D01*
X495102D01*
X497101D01*
X496102D01*
Y-18404D01*
X497101Y-19403D01*
X500100Y-13405D02*
Y-19403D01*
Y-16404D01*
X501100Y-15405D01*
X503099D01*
X504099Y-16404D01*
Y-19403D01*
X512096Y-13405D02*
Y-19403D01*
X516095D01*
X521093D02*
X519094D01*
X518094Y-18404D01*
Y-16404D01*
X519094Y-15405D01*
X521093D01*
X522093Y-16404D01*
Y-17404D01*
X518094D01*
X524092Y-19403D02*
Y-15405D01*
X527091D01*
X528091Y-16404D01*
Y-19403D01*
X532090Y-21403D02*
X533089D01*
X534089Y-20403D01*
Y-15405D01*
X531090D01*
X530091Y-16404D01*
Y-18404D01*
X531090Y-19403D01*
X534089D01*
X537088Y-14405D02*
Y-15405D01*
X536089D01*
X538088D01*
X537088D01*
Y-18404D01*
X538088Y-19403D01*
X541087Y-13405D02*
Y-19403D01*
Y-16404D01*
X542087Y-15405D01*
X544086D01*
X545086Y-16404D01*
Y-19403D01*
X342849Y-14405D02*
X341849Y-13405D01*
X339850D01*
X338850Y-14405D01*
Y-15405D01*
X339850Y-16404D01*
X341849D01*
X342849Y-17404D01*
Y-18404D01*
X341849Y-19403D01*
X339850D01*
X338850Y-18404D01*
X344848Y-19403D02*
X346847D01*
X345848D01*
Y-13405D01*
X344848D01*
X350846Y-19403D02*
X352846D01*
X353845Y-18404D01*
Y-16404D01*
X352846Y-15405D01*
X350846D01*
X349846Y-16404D01*
Y-18404D01*
X350846Y-19403D01*
X356844Y-14405D02*
Y-15405D01*
X355844D01*
X357844D01*
X356844D01*
Y-18404D01*
X357844Y-19403D01*
X370840Y-13405D02*
Y-19403D01*
X367841D01*
X366841Y-18404D01*
Y-16404D01*
X367841Y-15405D01*
X370840D01*
X375838Y-19403D02*
X373839D01*
X372839Y-18404D01*
Y-16404D01*
X373839Y-15405D01*
X375838D01*
X376838Y-16404D01*
Y-17404D01*
X372839D01*
X379837Y-19403D02*
Y-14405D01*
Y-16404D01*
X378837D01*
X380836D01*
X379837D01*
Y-14405D01*
X380836Y-13405D01*
X383835Y-19403D02*
X385835D01*
X384835D01*
Y-15405D01*
X383835D01*
X388834Y-19403D02*
Y-15405D01*
X391833D01*
X392832Y-16404D01*
Y-19403D01*
X394832D02*
X396831D01*
X395832D01*
Y-15405D01*
X394832D01*
X400830Y-14405D02*
Y-15405D01*
X399830D01*
X401830D01*
X400830D01*
Y-18404D01*
X401830Y-19403D01*
X404829D02*
X406828D01*
X405828D01*
Y-15405D01*
X404829D01*
X410827Y-19403D02*
X412826D01*
X413826Y-18404D01*
Y-16404D01*
X412826Y-15405D01*
X410827D01*
X409827Y-16404D01*
Y-18404D01*
X410827Y-19403D01*
X415825D02*
Y-15405D01*
X418824D01*
X419824Y-16404D01*
Y-19403D01*
X421823D02*
X424822D01*
X425822Y-18404D01*
X424822Y-17404D01*
X422823D01*
X421823Y-16404D01*
X422823Y-15405D01*
X425822D01*
X433819D02*
X434819D01*
Y-16404D01*
X433819D01*
Y-15405D01*
Y-18404D02*
X434819D01*
Y-19403D01*
X433819D01*
Y-18404D01*
M02*
