M48
;Layer_Color=9474304
;FILE_FORMAT=2:5
INCH,LZ
;TYPE=PLATED
T1F00S00C0.01181
T3F00S00C0.03543
T4F00S00C0.03937
;TYPE=NON_PLATED
T5F00S00C0.02441
T6F00S00C0.08268
%
T01
X0194204Y-0156384
X0198568Y-0146899
X0203668Y-0150499
X0209568Y-0154199
X0214866Y-0150834
X0220228Y-0142505
X022108Y-0135488
X021508Y-0131988
X021018Y-0129488
X0207256Y-0135115
X0202268Y-0141599
X0193428Y-0122616
X0190629Y-0120763
X01898Y-00972
X0200508Y-0086427
X0209519Y-0101075
X0207886Y-0104879
X0226328Y-0084305
X0178615Y-0079139
X0174428Y-0077505
X0174828Y-0073105
X0174628Y-0082288
X01604Y-00823
X0150205Y-0081095
X01535Y-00919
X0137728Y-0098105
X0126728Y-010374
X00998Y-0103505
X0087806Y-0098685
X00643Y-00993
X0058104
X0056184Y-0086638
X0053428Y-0083882
X0050672Y-0086638
Y-0081126
X0047916Y-0083882
Y-007837
X0050672Y-0075614
X0053428Y-007837
X0056184Y-0075614
X005894Y-007837
X0056184Y-0081126
X005894Y-0083882
X0041128Y-0074779
X0040928Y-0105005
X0048298Y-0121755
X0050473Y-0130244
X0055384Y-0126504
X0054416Y-0145229
X0057016
X0059616
X0062216
Y-0148729
X0059616
X0057016
X0054416
X0051816
X0049216
X0046616
X0044031
Y-0145229
X0046616
X0049216
X0051816
X004115Y-0140362
X0033034Y-0132605
X0037928Y-0153894
X0032126Y-0159605
X0037928Y-0174205
X0067278Y-0169472
X0067416Y-0152229
X0064816
X00858Y-01554
X0091128Y-0163305
X0095528Y-0160918
X0093428Y-0169205
X0097228Y-0178405
X0086752Y-0182448
X00845Y-01881
X0119728Y-0177905
X0122048Y-0179305
X0119866Y-0173132
X01376Y-0173076
Y-017648
Y-0168404
Y-01648
X0127828Y-0157905
X0123164Y-0146005
Y-0141905
X0118928
Y-0146005
X0123164Y-0131605
X0110228Y-0127755
X0100874Y-0122049
X0097799Y-0143139
X01493Y-0145705
X0147055Y-0136539
X0153199
X0150128Y-0131605
X0153228Y-0126705
X0147028
X0145416Y-0113
X0154728Y-0113705
X0159216
Y-0118205
X0154728
X0170428Y-0116505
X01767Y-01021
X0179015Y-0097263
X0134692Y-0083205
X0106817Y-0080881
X0106528Y-0086605
X0172828Y-0168305
X01482Y-0194076
X0028946Y-0168445
X002576Y-0171461
X0028034Y-0132605
X0023034
X0028028Y-0098105
X0023028Y-0081005
Y-0069905
X0033028Y-0047005
X0036634Y-0029605
X00535Y-00547
Y-00586
X00633
X00715Y-00618
X0073058Y-0065677
X0078034Y-0068601
X0083034
X01019Y-0063685
X0098528Y-0057805
X01061Y-00545
X01188
X01253Y-00689
X0106817Y-0072231
X0136828Y-0042705
X0155728Y-0040905
Y-0038405
X0158328
Y-0040905
X0162328Y-0045505
X0153628Y-0057105
X0170428Y-0060176
X0164928Y-0020205
X0161383Y-0015971
X01566Y-00172
X0151328Y-0024105
X0148256Y-0021557
X0145037Y-0019026
X0145488Y-0028464
X0129028Y-0029077
X0119427Y-0016549
X0118582Y-0011021
X011374Y0007295
X0152828Y-0006505
X0081628Y-0029605
X0221286Y-0041764
X0218168Y-0061805
X0214237Y-0001687
T03
X0031675Y0009731
X0045015Y0020154
X0075282Y0034968
X0091777Y0038776
X0125661Y0038916
X014222Y0035397
X0172455Y0021009
X0185958Y0010797
X0224228Y-0022305
X0228135Y-003151
T04
X0208348Y-0147532
X0213708Y-0139277
X0023327Y0013701
X0043183Y0029214
X0069395Y0042094
X0093946Y0047762
X0123336Y0047863
X0147983Y0042624
X0174145Y0030097
X0194242Y0014898
T05
X0097472Y-0189905
X0120228Y-0189905
T06
X02127Y-00892
X01507Y-01659
X0063028Y-0013419
M30
