G04*
G04 #@! TF.GenerationSoftware,Altium Limited,Altium Designer,22.1.2 (22)*
G04*
G04 Layer_Color=8388736*
%FSLAX25Y25*%
%MOIN*%
G70*
G04*
G04 #@! TF.SameCoordinates,673B4CCC-D109-4FC9-AC55-69538E973762*
G04*
G04*
G04 #@! TF.FilePolarity,Negative*
G04*
G01*
G75*
%ADD66R,0.04300X0.03800*%
%ADD67R,0.03800X0.04300*%
%ADD68R,0.06800X0.07800*%
%ADD69R,0.04422X0.04028*%
%ADD70R,0.02933X0.02233*%
%ADD71R,0.02233X0.02933*%
%ADD72R,0.02972X0.02272*%
G04:AMPARAMS|DCode=73|XSize=29.72mil|YSize=22.72mil|CornerRadius=0mil|HoleSize=0mil|Usage=FLASHONLY|Rotation=283.000|XOffset=0mil|YOffset=0mil|HoleType=Round|Shape=Rectangle|*
%AMROTATEDRECTD73*
4,1,4,-0.01441,0.01193,0.00773,0.01704,0.01441,-0.01193,-0.00773,-0.01704,-0.01441,0.01193,0.0*
%
%ADD73ROTATEDRECTD73*%

G04:AMPARAMS|DCode=74|XSize=63.12mil|YSize=51.31mil|CornerRadius=0mil|HoleSize=0mil|Usage=FLASHONLY|Rotation=73.000|XOffset=0mil|YOffset=0mil|HoleType=Round|Shape=Rectangle|*
%AMROTATEDRECTD74*
4,1,4,0.01531,-0.03768,-0.03376,-0.02268,-0.01531,0.03768,0.03376,0.02268,0.01531,-0.03768,0.0*
%
%ADD74ROTATEDRECTD74*%

G04:AMPARAMS|DCode=75|XSize=29.72mil|YSize=22.72mil|CornerRadius=0mil|HoleSize=0mil|Usage=FLASHONLY|Rotation=327.000|XOffset=0mil|YOffset=0mil|HoleType=Round|Shape=Rectangle|*
%AMROTATEDRECTD75*
4,1,4,-0.01865,-0.00144,-0.00628,0.01762,0.01865,0.00144,0.00628,-0.01762,-0.01865,-0.00144,0.0*
%
%ADD75ROTATEDRECTD75*%

%ADD76R,0.04343X0.06706*%
%ADD77R,0.03972X0.03472*%
%ADD78R,0.07493X0.23241*%
%ADD79R,0.04343X0.04343*%
%ADD80R,0.06706X0.04343*%
%ADD81R,0.03438X0.01981*%
G04:AMPARAMS|DCode=82|XSize=67.06mil|YSize=47.37mil|CornerRadius=0mil|HoleSize=0mil|Usage=FLASHONLY|Rotation=320.000|XOffset=0mil|YOffset=0mil|HoleType=Round|Shape=Rectangle|*
%AMROTATEDRECTD82*
4,1,4,-0.04091,0.00341,-0.01046,0.03970,0.04091,-0.00341,0.01046,-0.03970,-0.04091,0.00341,0.0*
%
%ADD82ROTATEDRECTD82*%

%ADD83R,0.03472X0.03972*%
%ADD84R,0.02272X0.02972*%
G04:AMPARAMS|DCode=85|XSize=63.12mil|YSize=51.31mil|CornerRadius=0mil|HoleSize=0mil|Usage=FLASHONLY|Rotation=335.000|XOffset=0mil|YOffset=0mil|HoleType=Round|Shape=Rectangle|*
%AMROTATEDRECTD85*
4,1,4,-0.03944,-0.00991,-0.01776,0.03659,0.03944,0.00991,0.01776,-0.03659,-0.03944,-0.00991,0.0*
%
%ADD85ROTATEDRECTD85*%

%ADD86P,0.07360X8X292.5*%
G04:AMPARAMS|DCode=87|XSize=67.06mil|YSize=47.37mil|CornerRadius=0mil|HoleSize=0mil|Usage=FLASHONLY|Rotation=128.000|XOffset=0mil|YOffset=0mil|HoleType=Round|Shape=Rectangle|*
%AMROTATEDRECTD87*
4,1,4,0.03931,-0.01184,0.00198,-0.04100,-0.03931,0.01184,-0.00198,0.04100,0.03931,-0.01184,0.0*
%
%ADD87ROTATEDRECTD87*%

%ADD88R,0.04551X0.06551*%
%ADD89R,0.06551X0.04551*%
G04:AMPARAMS|DCode=90|XSize=67.06mil|YSize=47.37mil|CornerRadius=0mil|HoleSize=0mil|Usage=FLASHONLY|Rotation=220.000|XOffset=0mil|YOffset=0mil|HoleType=Round|Shape=Rectangle|*
%AMROTATEDRECTD90*
4,1,4,0.01046,0.03970,0.04091,0.00341,-0.01046,-0.03970,-0.04091,-0.00341,0.01046,0.03970,0.0*
%
%ADD90ROTATEDRECTD90*%

%ADD91R,0.05131X0.03162*%
%ADD92R,0.05524X0.03162*%
%ADD93R,0.10249X0.13792*%
%ADD94R,0.02572X0.01784*%
%ADD95R,0.06509X0.01587*%
%ADD96R,0.05328X0.02178*%
%ADD97R,0.02769X0.04737*%
G04:AMPARAMS|DCode=98|XSize=45.51mil|YSize=65.51mil|CornerRadius=0mil|HoleSize=0mil|Usage=FLASHONLY|Rotation=237.000|XOffset=0mil|YOffset=0mil|HoleType=Round|Shape=Rectangle|*
%AMROTATEDRECTD98*
4,1,4,-0.01508,0.03693,0.03987,0.00125,0.01508,-0.03693,-0.03987,-0.00125,-0.01508,0.03693,0.0*
%
%ADD98ROTATEDRECTD98*%

G04:AMPARAMS|DCode=99|XSize=29.72mil|YSize=22.72mil|CornerRadius=0mil|HoleSize=0mil|Usage=FLASHONLY|Rotation=155.000|XOffset=0mil|YOffset=0mil|HoleType=Round|Shape=Rectangle|*
%AMROTATEDRECTD99*
4,1,4,0.01827,0.00402,0.00867,-0.01658,-0.01827,-0.00402,-0.00867,0.01658,0.01827,0.00402,0.0*
%
%ADD99ROTATEDRECTD99*%

G04:AMPARAMS|DCode=100|XSize=29.72mil|YSize=22.72mil|CornerRadius=0mil|HoleSize=0mil|Usage=FLASHONLY|Rotation=232.900|XOffset=0mil|YOffset=0mil|HoleType=Round|Shape=Rectangle|*
%AMROTATEDRECTD100*
4,1,4,-0.00010,0.01871,0.01803,0.00500,0.00010,-0.01871,-0.01803,-0.00500,-0.00010,0.01871,0.0*
%
%ADD100ROTATEDRECTD100*%

G04:AMPARAMS|DCode=101|XSize=29.72mil|YSize=22.72mil|CornerRadius=0mil|HoleSize=0mil|Usage=FLASHONLY|Rotation=258.000|XOffset=0mil|YOffset=0mil|HoleType=Round|Shape=Rectangle|*
%AMROTATEDRECTD101*
4,1,4,-0.00802,0.01690,0.01420,0.01218,0.00802,-0.01690,-0.01420,-0.01218,-0.00802,0.01690,0.0*
%
%ADD101ROTATEDRECTD101*%

G04:AMPARAMS|DCode=102|XSize=29.72mil|YSize=22.72mil|CornerRadius=0mil|HoleSize=0mil|Usage=FLASHONLY|Rotation=163.000|XOffset=0mil|YOffset=0mil|HoleType=Round|Shape=Rectangle|*
%AMROTATEDRECTD102*
4,1,4,0.01753,0.00652,0.01089,-0.01521,-0.01753,-0.00652,-0.01089,0.01521,0.01753,0.00652,0.0*
%
%ADD102ROTATEDRECTD102*%

%ADD103R,0.07099X0.02769*%
%ADD104R,0.07887X0.05524*%
%ADD105R,0.04737X0.03162*%
%ADD106R,0.03162X0.03950*%
%ADD107R,0.03950X0.03162*%
%ADD108R,0.20091X0.09068*%
%ADD109R,0.03950X0.01981*%
%ADD110R,0.01981X0.03950*%
%ADD111R,0.05642X0.05642*%
%ADD112R,0.02769X0.02572*%
%ADD113C,0.07099*%
%ADD114C,0.07887*%
%ADD115C,0.02362*%
%ADD116O,0.04343X0.08674*%
%ADD117O,0.04343X0.07493*%
%ADD118C,0.10630*%
%ADD119P,0.12267X4X282.0*%
%ADD120C,0.08674*%
%ADD121C,0.00800*%
%ADD122C,0.06706*%
%ADD123P,0.09483X4X158.0*%
%ADD124C,0.03162*%
D66*
X97228Y-156728D02*
D03*
Y-150728D02*
D03*
X145488Y-37664D02*
D03*
Y-31664D02*
D03*
X123650Y-37602D02*
D03*
Y-31602D02*
D03*
X129088Y-37764D02*
D03*
Y-31765D02*
D03*
X139488Y-31664D02*
D03*
Y-37664D02*
D03*
X90528Y-5705D02*
D03*
Y-11705D02*
D03*
X77828Y-169405D02*
D03*
Y-163405D02*
D03*
X33028Y-35105D02*
D03*
X33028Y-29105D02*
D03*
X123550Y-26942D02*
D03*
Y-20942D02*
D03*
X99700Y-99913D02*
D03*
Y-93913D02*
D03*
X78128Y-35605D02*
D03*
X78128Y-29605D02*
D03*
X134288Y-25464D02*
D03*
Y-31464D02*
D03*
X139688Y-53264D02*
D03*
Y-47265D02*
D03*
X84600Y-5700D02*
D03*
Y-11700D02*
D03*
D67*
X135128Y-113200D02*
D03*
X141128D02*
D03*
X137300Y-188800D02*
D03*
X131300D02*
D03*
X101828Y-405D02*
D03*
X95828D02*
D03*
X175188Y-25365D02*
D03*
X169188D02*
D03*
X175188Y-31264D02*
D03*
X169188D02*
D03*
X175188Y-37165D02*
D03*
X169188D02*
D03*
X175188Y-43064D02*
D03*
X169188D02*
D03*
X33650Y-121755D02*
D03*
X39650Y-121755D02*
D03*
X129728Y-126005D02*
D03*
X123728Y-126005D02*
D03*
X141003Y-98474D02*
D03*
X147003Y-98474D02*
D03*
X191128Y-86505D02*
D03*
X197128D02*
D03*
X83028Y-118129D02*
D03*
X89028D02*
D03*
X191128Y-92005D02*
D03*
X197128D02*
D03*
X140288Y-42564D02*
D03*
X146288D02*
D03*
X139788Y-57964D02*
D03*
X145788D02*
D03*
D68*
X130800Y-196100D02*
D03*
X140800D02*
D03*
D69*
X52349Y-126504D02*
D03*
X60223Y-130244D02*
D03*
Y-122764D02*
D03*
D70*
X47048Y-126768D02*
D03*
Y-130468D02*
D03*
D71*
X58184Y-117419D02*
D03*
X54484D02*
D03*
X69578Y-163405D02*
D03*
X73278D02*
D03*
D72*
X82828Y-155355D02*
D03*
X82828Y-151655D02*
D03*
X145416Y-110616D02*
D03*
X145416Y-106916D02*
D03*
X66128Y-154955D02*
D03*
Y-158655D02*
D03*
X133828Y-134855D02*
D03*
X133828Y-138555D02*
D03*
X115728Y-85905D02*
D03*
Y-82205D02*
D03*
D73*
X86089Y10615D02*
D03*
X89695Y11448D02*
D03*
D74*
X228734Y-123367D02*
D03*
X236216Y-98895D02*
D03*
X224921Y-95442D02*
D03*
X217439Y-119914D02*
D03*
D75*
X193918Y-130831D02*
D03*
X191903Y-133934D02*
D03*
D76*
X28034Y-41756D02*
D03*
X23034Y-41756D02*
D03*
X33034D02*
D03*
X38034D02*
D03*
X43034Y-41756D02*
D03*
X48034Y-41756D02*
D03*
X53034Y-41756D02*
D03*
X58034Y-41756D02*
D03*
X63034Y-41756D02*
D03*
X68034Y-41756D02*
D03*
X73034Y-41756D02*
D03*
X78034Y-41756D02*
D03*
X83034Y-41756D02*
D03*
X88034D02*
D03*
X23034Y-110653D02*
D03*
X28034Y-110653D02*
D03*
X33034D02*
D03*
X38034Y-110653D02*
D03*
X43034Y-110653D02*
D03*
X48034Y-110653D02*
D03*
X53034Y-110653D02*
D03*
X58034Y-110653D02*
D03*
X63034Y-110653D02*
D03*
X68034Y-110653D02*
D03*
X73034D02*
D03*
X78034Y-110653D02*
D03*
X83034Y-110653D02*
D03*
X88034Y-110653D02*
D03*
D77*
X55828Y-159605D02*
D03*
Y-153605D02*
D03*
X61228Y-159605D02*
D03*
Y-153605D02*
D03*
X129961Y-103740D02*
D03*
X129961Y-97740D02*
D03*
X137946Y-86805D02*
D03*
Y-80805D02*
D03*
X111168Y-86664D02*
D03*
Y-80664D02*
D03*
X158028Y-50905D02*
D03*
Y-56905D02*
D03*
D78*
X90486Y-136205D02*
D03*
X72770D02*
D03*
D79*
X58940Y-75614D02*
D03*
X58940Y-81126D02*
D03*
X58940Y-86638D02*
D03*
X53428Y-75614D02*
D03*
X53428Y-86638D02*
D03*
X47916Y-75614D02*
D03*
X47916Y-81126D02*
D03*
Y-86638D02*
D03*
X53428Y-81126D02*
D03*
D80*
X92955Y-53685D02*
D03*
Y-58685D02*
D03*
Y-63685D02*
D03*
Y-68685D02*
D03*
X92955Y-73685D02*
D03*
X92955Y-78685D02*
D03*
X92955Y-83685D02*
D03*
X92955Y-88685D02*
D03*
X92955Y-93685D02*
D03*
X92955Y-98685D02*
D03*
D81*
X141041Y-102939D02*
D03*
X141041Y-104908D02*
D03*
X141041Y-106876D02*
D03*
X141041Y-108845D02*
D03*
X135214Y-108845D02*
D03*
Y-106876D02*
D03*
Y-104908D02*
D03*
Y-102939D02*
D03*
D82*
X24764Y-155402D02*
D03*
X16412Y-165354D02*
D03*
X31492Y-178008D02*
D03*
X39843Y-168055D02*
D03*
D83*
X33650Y-127155D02*
D03*
X39650Y-127155D02*
D03*
X22528Y-121755D02*
D03*
X28528D02*
D03*
X117228Y-73805D02*
D03*
X111228D02*
D03*
D84*
X27378Y-117255D02*
D03*
X23678D02*
D03*
X221268Y-46805D02*
D03*
X217568D02*
D03*
X96050Y-19900D02*
D03*
X99750D02*
D03*
X221268Y-36964D02*
D03*
X217568D02*
D03*
D85*
X48927Y-177245D02*
D03*
X72120Y-188060D02*
D03*
X67128Y-198764D02*
D03*
X43936Y-187949D02*
D03*
D86*
X131228Y-6105D02*
D03*
X152828Y-6505D02*
D03*
X110100Y-159705D02*
D03*
X110072Y-150533D02*
D03*
D87*
X207369Y-13660D02*
D03*
X217606Y-5661D02*
D03*
X205487Y9851D02*
D03*
X195249Y1852D02*
D03*
D88*
X161628Y-145705D02*
D03*
X153628D02*
D03*
D89*
X128128Y-139605D02*
D03*
Y-131605D02*
D03*
X90628Y-159205D02*
D03*
Y-151205D02*
D03*
X164228Y-57605D02*
D03*
Y-49605D02*
D03*
D90*
X191092Y-159502D02*
D03*
X199443Y-169454D02*
D03*
X184364Y-182108D02*
D03*
X176012Y-172155D02*
D03*
D91*
X120710Y-86945D02*
D03*
Y-79465D02*
D03*
X130946D02*
D03*
Y-83205D02*
D03*
Y-86945D02*
D03*
D92*
X161579Y-124105D02*
D03*
X161579Y-129105D02*
D03*
Y-134105D02*
D03*
Y-139105D02*
D03*
X138677D02*
D03*
X138677Y-134105D02*
D03*
Y-129105D02*
D03*
Y-124105D02*
D03*
D93*
X150128Y-131605D02*
D03*
D94*
X78128Y-153236D02*
D03*
Y-155205D02*
D03*
Y-157173D02*
D03*
Y-159142D02*
D03*
D95*
X72419Y-156189D02*
D03*
D96*
X71829Y-158354D02*
D03*
Y-154024D02*
D03*
D97*
X179015Y-86505D02*
D03*
X184921D02*
D03*
X179015Y-92005D02*
D03*
X184921D02*
D03*
D98*
X185532Y-132637D02*
D03*
X189889Y-125927D02*
D03*
D99*
X41341Y-182401D02*
D03*
X42905Y-179048D02*
D03*
D100*
X166386Y-6175D02*
D03*
X163435Y-3943D02*
D03*
D101*
X128737Y12044D02*
D03*
X125118Y12813D02*
D03*
D102*
X212069Y-101936D02*
D03*
X210987Y-105474D02*
D03*
D103*
X226328Y-81490D02*
D03*
X226328Y-77553D02*
D03*
X226328Y-73616D02*
D03*
X226328Y-69679D02*
D03*
X226328Y-65742D02*
D03*
X226328Y-61805D02*
D03*
D104*
X236269Y-86608D02*
D03*
X236269Y-56687D02*
D03*
D105*
X95663Y-15405D02*
D03*
Y-11665D02*
D03*
Y-7924D02*
D03*
X105112D02*
D03*
Y-11665D02*
D03*
Y-15405D02*
D03*
D106*
X186772Y-46805D02*
D03*
X192284D02*
D03*
X192268Y-31464D02*
D03*
X186756D02*
D03*
D107*
X170528Y-56661D02*
D03*
Y-51149D02*
D03*
D108*
X205068Y-36964D02*
D03*
Y-23579D02*
D03*
Y-60150D02*
D03*
Y-46764D02*
D03*
D109*
X162598Y-36651D02*
D03*
Y-38620D02*
D03*
Y-40588D02*
D03*
Y-42557D02*
D03*
X151377D02*
D03*
Y-40588D02*
D03*
Y-38620D02*
D03*
Y-36651D02*
D03*
D110*
X154035Y-45214D02*
D03*
X156003D02*
D03*
X157972D02*
D03*
X159940D02*
D03*
Y-33994D02*
D03*
X157972D02*
D03*
X156003D02*
D03*
X154035D02*
D03*
D111*
X156988Y-39604D02*
D03*
D112*
X144713Y-53628D02*
D03*
X147863D02*
D03*
X146288Y-49101D02*
D03*
D113*
X45015Y20154D02*
D03*
X31675Y9731D02*
D03*
X75282Y34968D02*
D03*
X91777Y38776D02*
D03*
X142220Y35397D02*
D03*
X125661Y38916D02*
D03*
X185958Y10797D02*
D03*
X172455Y21009D02*
D03*
D114*
X43183Y29214D02*
D03*
X23327Y13701D02*
D03*
X93946Y47762D02*
D03*
X69395Y42094D02*
D03*
X123336Y47863D02*
D03*
X147983Y42624D02*
D03*
X174145Y30097D02*
D03*
X194242Y14898D02*
D03*
D115*
X47916Y-78370D02*
D03*
X50672Y-75614D02*
D03*
X56184Y-75614D02*
D03*
X50672Y-81126D02*
D03*
X53428Y-78370D02*
D03*
X56184Y-81126D02*
D03*
X58940Y-78370D02*
D03*
X58940Y-83882D02*
D03*
X56184Y-86638D02*
D03*
X50672Y-86638D02*
D03*
X47916Y-83882D02*
D03*
X53428Y-83882D02*
D03*
D116*
X91822Y-187936D02*
D03*
X125877Y-187936D02*
D03*
D117*
X91822Y-204393D02*
D03*
X125877Y-204393D02*
D03*
D118*
X150700Y-165900D02*
D03*
X212700Y-89200D02*
D03*
X63028Y-13419D02*
D03*
D119*
X213708Y-139277D02*
D03*
D120*
X208348Y-147532D02*
D03*
D121*
X97472Y-189905D02*
D03*
X120228Y-189905D02*
D03*
D122*
X224228Y-22305D02*
D03*
D123*
X228135Y-31510D02*
D03*
D124*
X44031Y-148729D02*
D03*
Y-145229D02*
D03*
X64816Y-152229D02*
D03*
X67416D02*
D03*
X62216Y-148729D02*
D03*
X59616D02*
D03*
Y-145229D02*
D03*
X62216D02*
D03*
X54416D02*
D03*
X57016D02*
D03*
X51816D02*
D03*
X49216Y-148729D02*
D03*
X46616Y-145229D02*
D03*
Y-148729D02*
D03*
X51816D02*
D03*
X57016D02*
D03*
X49216Y-145229D02*
D03*
X54416Y-148729D02*
D03*
M02*
