G04*
G04 #@! TF.GenerationSoftware,Altium Limited,Altium Designer,22.1.2 (22)*
G04*
G04 Layer_Color=128*
%FSLAX25Y25*%
%MOIN*%
G70*
G04*
G04 #@! TF.SameCoordinates,673B4CCC-D109-4FC9-AC55-69538E973762*
G04*
G04*
G04 #@! TF.FilePolarity,Positive*
G04*
G01*
G75*
%ADD23R,0.03500X0.03000*%
%ADD24R,0.03000X0.03500*%
%ADD26R,0.03622X0.03228*%
%ADD28R,0.01800X0.02500*%
%ADD41R,0.04000X0.06000*%
%ADD240R,0.00945X0.00787*%
%ADD241R,0.02362X0.04724*%
%ADD242R,0.03937X0.06693*%
%ADD243R,0.05512X0.07165*%
%ADD244R,0.01772X0.01968*%
%ADD245R,0.02362X0.02362*%
%ADD246R,0.01181X0.04724*%
D23*
X93428Y-173132D02*
D03*
X115928Y-173132D02*
D03*
X111028Y-173132D02*
D03*
X111028Y-179132D02*
D03*
X115928Y-179132D02*
D03*
X93428Y-179132D02*
D03*
X85381Y-130811D02*
D03*
Y-136811D02*
D03*
D24*
X100010Y-174780D02*
D03*
X85700Y-117500D02*
D03*
X91700D02*
D03*
X64207Y-126504D02*
D03*
X58207D02*
D03*
X66868Y-135284D02*
D03*
X60868D02*
D03*
Y-140258D02*
D03*
X66868D02*
D03*
X106010Y-174780D02*
D03*
D26*
X72184Y-133804D02*
D03*
X80058Y-130064D02*
D03*
Y-137544D02*
D03*
D28*
X54730Y-140258D02*
D03*
X51030D02*
D03*
D41*
X102700Y-166600D02*
D03*
X110700D02*
D03*
D240*
X124466Y-181825D02*
D03*
Y-180250D02*
D03*
D241*
X121448Y-185692D02*
D03*
X96251Y-185692D02*
D03*
X118299Y-185692D02*
D03*
X99401Y-185692D02*
D03*
D242*
X133159Y-174705D02*
D03*
X124497Y-174705D02*
D03*
D243*
X122474Y-166605D02*
D03*
X133182Y-166605D02*
D03*
D244*
X81064Y-123624D02*
D03*
X85591Y-125198D02*
D03*
Y-122049D02*
D03*
D245*
X54461Y-134644D02*
D03*
X46194D02*
D03*
D246*
X115740Y-185692D02*
D03*
X113771Y-185692D02*
D03*
X111803Y-185692D02*
D03*
X109834Y-185692D02*
D03*
X101960Y-185692D02*
D03*
X103929D02*
D03*
X105897Y-185692D02*
D03*
X107866Y-185692D02*
D03*
M02*
