G04*
G04 #@! TF.GenerationSoftware,Altium Limited,Altium Designer,22.1.2 (22)*
G04*
G04 Layer_Color=255*
%FSLAX25Y25*%
%MOIN*%
G70*
G04*
G04 #@! TF.SameCoordinates,673B4CCC-D109-4FC9-AC55-69538E973762*
G04*
G04*
G04 #@! TF.FilePolarity,Positive*
G04*
G01*
G75*
%ADD23R,0.03500X0.03000*%
%ADD24R,0.03000X0.03500*%
%ADD25R,0.06000X0.07000*%
%ADD26R,0.03622X0.03228*%
%ADD27R,0.02500X0.01800*%
%ADD28R,0.01800X0.02500*%
G04:AMPARAMS|DCode=29|XSize=25mil|YSize=18mil|CornerRadius=0mil|HoleSize=0mil|Usage=FLASHONLY|Rotation=283.000|XOffset=0mil|YOffset=0mil|HoleType=Round|Shape=Rectangle|*
%AMROTATEDRECTD29*
4,1,4,-0.01158,0.01016,0.00596,0.01420,0.01158,-0.01016,-0.00596,-0.01420,-0.01158,0.01016,0.0*
%
%ADD29ROTATEDRECTD29*%

G04:AMPARAMS|DCode=30|XSize=55.12mil|YSize=43.31mil|CornerRadius=0mil|HoleSize=0mil|Usage=FLASHONLY|Rotation=73.000|XOffset=0mil|YOffset=0mil|HoleType=Round|Shape=Rectangle|*
%AMROTATEDRECTD30*
4,1,4,0.01265,-0.03269,-0.02877,-0.02002,-0.01265,0.03269,0.02877,0.02002,0.01265,-0.03269,0.0*
%
%ADD30ROTATEDRECTD30*%

G04:AMPARAMS|DCode=31|XSize=25mil|YSize=18mil|CornerRadius=0mil|HoleSize=0mil|Usage=FLASHONLY|Rotation=327.000|XOffset=0mil|YOffset=0mil|HoleType=Round|Shape=Rectangle|*
%AMROTATEDRECTD31*
4,1,4,-0.01539,-0.00074,-0.00558,0.01436,0.01539,0.00074,0.00558,-0.01436,-0.01539,-0.00074,0.0*
%
%ADD31ROTATEDRECTD31*%

%ADD32R,0.03543X0.05906*%
%ADD33R,0.06693X0.22441*%
%ADD34R,0.03543X0.03543*%
%ADD35R,0.05906X0.03543*%
%ADD36R,0.02638X0.01181*%
G04:AMPARAMS|DCode=37|XSize=59.06mil|YSize=39.37mil|CornerRadius=0mil|HoleSize=0mil|Usage=FLASHONLY|Rotation=320.000|XOffset=0mil|YOffset=0mil|HoleType=Round|Shape=Rectangle|*
%AMROTATEDRECTD37*
4,1,4,-0.03527,0.00390,-0.00997,0.03406,0.03527,-0.00390,0.00997,-0.03406,-0.03527,0.00390,0.0*
%
%ADD37ROTATEDRECTD37*%

G04:AMPARAMS|DCode=38|XSize=55.12mil|YSize=43.31mil|CornerRadius=0mil|HoleSize=0mil|Usage=FLASHONLY|Rotation=335.000|XOffset=0mil|YOffset=0mil|HoleType=Round|Shape=Rectangle|*
%AMROTATEDRECTD38*
4,1,4,-0.03413,-0.00798,-0.01583,0.03127,0.03413,0.00798,0.01583,-0.03127,-0.03413,-0.00798,0.0*
%
%ADD38ROTATEDRECTD38*%

%ADD39P,0.06494X8X292.5*%
G04:AMPARAMS|DCode=40|XSize=59.06mil|YSize=39.37mil|CornerRadius=0mil|HoleSize=0mil|Usage=FLASHONLY|Rotation=128.000|XOffset=0mil|YOffset=0mil|HoleType=Round|Shape=Rectangle|*
%AMROTATEDRECTD40*
4,1,4,0.03369,-0.01115,0.00267,-0.03539,-0.03369,0.01115,-0.00267,0.03539,0.03369,-0.01115,0.0*
%
%ADD40ROTATEDRECTD40*%

%ADD41R,0.04000X0.06000*%
%ADD42R,0.06000X0.04000*%
G04:AMPARAMS|DCode=43|XSize=59.06mil|YSize=39.37mil|CornerRadius=0mil|HoleSize=0mil|Usage=FLASHONLY|Rotation=220.000|XOffset=0mil|YOffset=0mil|HoleType=Round|Shape=Rectangle|*
%AMROTATEDRECTD43*
4,1,4,0.00997,0.03406,0.03527,0.00390,-0.00997,-0.03406,-0.03527,-0.00390,0.00997,0.03406,0.0*
%
%ADD43ROTATEDRECTD43*%

%ADD44R,0.04331X0.02362*%
%ADD45R,0.04724X0.02362*%
%ADD46R,0.09449X0.12992*%
%ADD47R,0.01772X0.00984*%
%ADD48R,0.05709X0.00787*%
%ADD49R,0.04528X0.01378*%
%ADD50R,0.01968X0.03937*%
G04:AMPARAMS|DCode=51|XSize=40mil|YSize=60mil|CornerRadius=0mil|HoleSize=0mil|Usage=FLASHONLY|Rotation=237.000|XOffset=0mil|YOffset=0mil|HoleType=Round|Shape=Rectangle|*
%AMROTATEDRECTD51*
4,1,4,-0.01427,0.03311,0.03605,0.00043,0.01427,-0.03311,-0.03605,-0.00043,-0.01427,0.03311,0.0*
%
%ADD51ROTATEDRECTD51*%

G04:AMPARAMS|DCode=52|XSize=25mil|YSize=18mil|CornerRadius=0mil|HoleSize=0mil|Usage=FLASHONLY|Rotation=155.000|XOffset=0mil|YOffset=0mil|HoleType=Round|Shape=Rectangle|*
%AMROTATEDRECTD52*
4,1,4,0.01513,0.00287,0.00753,-0.01344,-0.01513,-0.00287,-0.00753,0.01344,0.01513,0.00287,0.0*
%
%ADD52ROTATEDRECTD52*%

G04:AMPARAMS|DCode=53|XSize=25mil|YSize=18mil|CornerRadius=0mil|HoleSize=0mil|Usage=FLASHONLY|Rotation=232.900|XOffset=0mil|YOffset=0mil|HoleType=Round|Shape=Rectangle|*
%AMROTATEDRECTD53*
4,1,4,0.00036,0.01540,0.01472,0.00454,-0.00036,-0.01540,-0.01472,-0.00454,0.00036,0.01540,0.0*
%
%ADD53ROTATEDRECTD53*%

G04:AMPARAMS|DCode=54|XSize=25mil|YSize=18mil|CornerRadius=0mil|HoleSize=0mil|Usage=FLASHONLY|Rotation=258.000|XOffset=0mil|YOffset=0mil|HoleType=Round|Shape=Rectangle|*
%AMROTATEDRECTD54*
4,1,4,-0.00620,0.01410,0.01140,0.01036,0.00620,-0.01410,-0.01140,-0.01036,-0.00620,0.01410,0.0*
%
%ADD54ROTATEDRECTD54*%

G04:AMPARAMS|DCode=55|XSize=25mil|YSize=18mil|CornerRadius=0mil|HoleSize=0mil|Usage=FLASHONLY|Rotation=163.000|XOffset=0mil|YOffset=0mil|HoleType=Round|Shape=Rectangle|*
%AMROTATEDRECTD55*
4,1,4,0.01459,0.00495,0.00932,-0.01226,-0.01459,-0.00495,-0.00932,0.01226,0.01459,0.00495,0.0*
%
%ADD55ROTATEDRECTD55*%

%ADD56R,0.06299X0.01968*%
%ADD57R,0.07087X0.04724*%
%ADD58R,0.03937X0.02362*%
%ADD59R,0.02362X0.03150*%
%ADD60R,0.03150X0.02362*%
%ADD61R,0.19291X0.08268*%
%ADD62R,0.03150X0.01181*%
%ADD63R,0.01181X0.03150*%
%ADD64R,0.04842X0.04842*%
%ADD65R,0.01968X0.01772*%
%ADD115C,0.02362*%
%ADD231C,0.06299*%
%ADD232C,0.07087*%
%ADD233O,0.03543X0.07874*%
%ADD234O,0.03543X0.06693*%
%ADD235C,0.10236*%
%ADD236P,0.11136X4X282.0*%
%ADD237C,0.07874*%
%ADD238C,0.05906*%
%ADD239P,0.08352X4X158.0*%
D23*
X97228Y-156728D02*
D03*
Y-150728D02*
D03*
X145488Y-37664D02*
D03*
Y-31664D02*
D03*
X123650Y-37602D02*
D03*
Y-31602D02*
D03*
X129088Y-37764D02*
D03*
Y-31765D02*
D03*
X139488Y-31664D02*
D03*
Y-37664D02*
D03*
X90528Y-5705D02*
D03*
Y-11705D02*
D03*
X55828Y-159605D02*
D03*
Y-153605D02*
D03*
X61228Y-159605D02*
D03*
Y-153605D02*
D03*
X129961Y-103740D02*
D03*
X129961Y-97740D02*
D03*
X77828Y-169405D02*
D03*
Y-163405D02*
D03*
X33028Y-35105D02*
D03*
X33028Y-29105D02*
D03*
X123550Y-26942D02*
D03*
Y-20942D02*
D03*
X99700Y-99913D02*
D03*
Y-93913D02*
D03*
X78128Y-35605D02*
D03*
X78128Y-29605D02*
D03*
X137946Y-86805D02*
D03*
Y-80805D02*
D03*
X111168Y-86664D02*
D03*
Y-80664D02*
D03*
X158028Y-50905D02*
D03*
Y-56905D02*
D03*
X134288Y-25464D02*
D03*
Y-31464D02*
D03*
X139688Y-53264D02*
D03*
Y-47265D02*
D03*
X84600Y-5700D02*
D03*
Y-11700D02*
D03*
D24*
X135128Y-113200D02*
D03*
X141128D02*
D03*
X137300Y-188800D02*
D03*
X131300D02*
D03*
X101828Y-405D02*
D03*
X95828D02*
D03*
X175188Y-25365D02*
D03*
X169188D02*
D03*
X175188Y-31264D02*
D03*
X169188D02*
D03*
X175188Y-37165D02*
D03*
X169188D02*
D03*
X175188Y-43064D02*
D03*
X169188D02*
D03*
X33650Y-127155D02*
D03*
X39650Y-127155D02*
D03*
X33650Y-121755D02*
D03*
X39650Y-121755D02*
D03*
X22528D02*
D03*
X28528D02*
D03*
X129728Y-126005D02*
D03*
X123728Y-126005D02*
D03*
X141003Y-98474D02*
D03*
X147003Y-98474D02*
D03*
X191128Y-86505D02*
D03*
X197128D02*
D03*
X83028Y-118129D02*
D03*
X89028D02*
D03*
X117228Y-73805D02*
D03*
X111228D02*
D03*
X191128Y-92005D02*
D03*
X197128D02*
D03*
X140288Y-42564D02*
D03*
X146288D02*
D03*
X139788Y-57964D02*
D03*
X145788D02*
D03*
D25*
X130800Y-196100D02*
D03*
X140800D02*
D03*
D26*
X52349Y-126504D02*
D03*
X60223Y-130244D02*
D03*
Y-122764D02*
D03*
D27*
X47048Y-126768D02*
D03*
Y-130468D02*
D03*
X82828Y-155355D02*
D03*
X82828Y-151655D02*
D03*
X145416Y-110616D02*
D03*
X145416Y-106916D02*
D03*
X66128Y-154955D02*
D03*
Y-158655D02*
D03*
X133828Y-134855D02*
D03*
X133828Y-138555D02*
D03*
X115728Y-85905D02*
D03*
Y-82205D02*
D03*
D28*
X58184Y-117419D02*
D03*
X54484D02*
D03*
X69578Y-163405D02*
D03*
X73278D02*
D03*
X27378Y-117255D02*
D03*
X23678D02*
D03*
X221268Y-46805D02*
D03*
X217568D02*
D03*
X96050Y-19900D02*
D03*
X99750D02*
D03*
X221268Y-36964D02*
D03*
X217568D02*
D03*
D29*
X86089Y10615D02*
D03*
X89695Y11448D02*
D03*
D30*
X228734Y-123367D02*
D03*
X236216Y-98895D02*
D03*
X224921Y-95442D02*
D03*
X217439Y-119914D02*
D03*
D31*
X193918Y-130831D02*
D03*
X191903Y-133934D02*
D03*
D32*
X28034Y-41756D02*
D03*
X23034Y-41756D02*
D03*
X33034D02*
D03*
X38034D02*
D03*
X43034Y-41756D02*
D03*
X48034Y-41756D02*
D03*
X53034Y-41756D02*
D03*
X58034Y-41756D02*
D03*
X63034Y-41756D02*
D03*
X68034Y-41756D02*
D03*
X73034Y-41756D02*
D03*
X78034Y-41756D02*
D03*
X83034Y-41756D02*
D03*
X88034D02*
D03*
X23034Y-110653D02*
D03*
X28034Y-110653D02*
D03*
X33034D02*
D03*
X38034Y-110653D02*
D03*
X43034Y-110653D02*
D03*
X48034Y-110653D02*
D03*
X53034Y-110653D02*
D03*
X58034Y-110653D02*
D03*
X63034Y-110653D02*
D03*
X68034Y-110653D02*
D03*
X73034D02*
D03*
X78034Y-110653D02*
D03*
X83034Y-110653D02*
D03*
X88034Y-110653D02*
D03*
D33*
X90486Y-136205D02*
D03*
X72770D02*
D03*
D34*
X58940Y-75614D02*
D03*
X58940Y-81126D02*
D03*
X58940Y-86638D02*
D03*
X53428Y-75614D02*
D03*
X53428Y-86638D02*
D03*
X47916Y-75614D02*
D03*
X47916Y-81126D02*
D03*
Y-86638D02*
D03*
X53428Y-81126D02*
D03*
D35*
X92955Y-53685D02*
D03*
Y-58685D02*
D03*
Y-63685D02*
D03*
Y-68685D02*
D03*
X92955Y-73685D02*
D03*
X92955Y-78685D02*
D03*
X92955Y-83685D02*
D03*
X92955Y-88685D02*
D03*
X92955Y-93685D02*
D03*
X92955Y-98685D02*
D03*
D36*
X141041Y-102939D02*
D03*
X141041Y-104908D02*
D03*
X141041Y-106876D02*
D03*
X141041Y-108845D02*
D03*
X135214Y-108845D02*
D03*
Y-106876D02*
D03*
Y-104908D02*
D03*
Y-102939D02*
D03*
D37*
X24764Y-155402D02*
D03*
X16412Y-165354D02*
D03*
X31492Y-178008D02*
D03*
X39843Y-168055D02*
D03*
D38*
X48927Y-177245D02*
D03*
X72120Y-188060D02*
D03*
X67128Y-198764D02*
D03*
X43936Y-187949D02*
D03*
D39*
X131228Y-6105D02*
D03*
X152828Y-6505D02*
D03*
X110100Y-159705D02*
D03*
X110072Y-150533D02*
D03*
D40*
X207369Y-13660D02*
D03*
X217606Y-5661D02*
D03*
X205487Y9851D02*
D03*
X195249Y1852D02*
D03*
D41*
X161628Y-145705D02*
D03*
X153628D02*
D03*
D42*
X128128Y-139605D02*
D03*
Y-131605D02*
D03*
X90628Y-159205D02*
D03*
Y-151205D02*
D03*
X164228Y-57605D02*
D03*
Y-49605D02*
D03*
D43*
X191092Y-159502D02*
D03*
X199443Y-169454D02*
D03*
X184364Y-182108D02*
D03*
X176012Y-172155D02*
D03*
D44*
X120710Y-86945D02*
D03*
Y-79465D02*
D03*
X130946D02*
D03*
Y-83205D02*
D03*
Y-86945D02*
D03*
D45*
X161579Y-124105D02*
D03*
X161579Y-129105D02*
D03*
Y-134105D02*
D03*
Y-139105D02*
D03*
X138677D02*
D03*
X138677Y-134105D02*
D03*
Y-129105D02*
D03*
Y-124105D02*
D03*
D46*
X150128Y-131605D02*
D03*
D47*
X78128Y-153236D02*
D03*
Y-155205D02*
D03*
Y-157173D02*
D03*
Y-159142D02*
D03*
D48*
X72419Y-156189D02*
D03*
D49*
X71829Y-158354D02*
D03*
Y-154024D02*
D03*
D50*
X179015Y-86505D02*
D03*
X184921D02*
D03*
X179015Y-92005D02*
D03*
X184921D02*
D03*
D51*
X185532Y-132637D02*
D03*
X189889Y-125927D02*
D03*
D52*
X41341Y-182401D02*
D03*
X42905Y-179048D02*
D03*
D53*
X166386Y-6175D02*
D03*
X163435Y-3943D02*
D03*
D54*
X128737Y12044D02*
D03*
X125118Y12813D02*
D03*
D55*
X212069Y-101936D02*
D03*
X210987Y-105474D02*
D03*
D56*
X226328Y-81490D02*
D03*
X226328Y-77553D02*
D03*
X226328Y-73616D02*
D03*
X226328Y-69679D02*
D03*
X226328Y-65742D02*
D03*
X226328Y-61805D02*
D03*
D57*
X236269Y-86608D02*
D03*
X236269Y-56687D02*
D03*
D58*
X95663Y-15405D02*
D03*
Y-11665D02*
D03*
Y-7924D02*
D03*
X105112D02*
D03*
Y-11665D02*
D03*
Y-15405D02*
D03*
D59*
X186772Y-46805D02*
D03*
X192284D02*
D03*
X192268Y-31464D02*
D03*
X186756D02*
D03*
D60*
X170528Y-56661D02*
D03*
Y-51149D02*
D03*
D61*
X205068Y-36964D02*
D03*
Y-23579D02*
D03*
Y-60150D02*
D03*
Y-46764D02*
D03*
D62*
X162598Y-36651D02*
D03*
Y-38620D02*
D03*
Y-40588D02*
D03*
Y-42557D02*
D03*
X151377D02*
D03*
Y-40588D02*
D03*
Y-38620D02*
D03*
Y-36651D02*
D03*
D63*
X154035Y-45214D02*
D03*
X156003D02*
D03*
X157972D02*
D03*
X159940D02*
D03*
Y-33994D02*
D03*
X157972D02*
D03*
X156003D02*
D03*
X154035D02*
D03*
D64*
X156988Y-39604D02*
D03*
D65*
X144713Y-53628D02*
D03*
X147863D02*
D03*
X146288Y-49101D02*
D03*
D115*
X47916Y-78370D02*
D03*
X50672Y-75614D02*
D03*
X56184Y-75614D02*
D03*
X50672Y-81126D02*
D03*
X53428Y-78370D02*
D03*
X56184Y-81126D02*
D03*
X58940Y-78370D02*
D03*
X58940Y-83882D02*
D03*
X56184Y-86638D02*
D03*
X50672Y-86638D02*
D03*
X47916Y-83882D02*
D03*
X53428Y-83882D02*
D03*
D231*
X45015Y20154D02*
D03*
X31675Y9731D02*
D03*
X75282Y34968D02*
D03*
X91777Y38776D02*
D03*
X142220Y35397D02*
D03*
X125661Y38916D02*
D03*
X185958Y10797D02*
D03*
X172455Y21009D02*
D03*
D232*
X43183Y29214D02*
D03*
X23327Y13701D02*
D03*
X93946Y47762D02*
D03*
X69395Y42094D02*
D03*
X123336Y47863D02*
D03*
X147983Y42624D02*
D03*
X174145Y30097D02*
D03*
X194242Y14898D02*
D03*
D233*
X91822Y-187936D02*
D03*
X125877Y-187936D02*
D03*
D234*
X91822Y-204393D02*
D03*
X125877Y-204393D02*
D03*
D235*
X150700Y-165900D02*
D03*
X212700Y-89200D02*
D03*
X63028Y-13419D02*
D03*
D236*
X213708Y-139277D02*
D03*
D237*
X208348Y-147532D02*
D03*
D238*
X224228Y-22305D02*
D03*
D239*
X228135Y-31510D02*
D03*
M02*
