G04*
G04 #@! TF.GenerationSoftware,Altium Limited,Altium Designer,22.1.2 (22)*
G04*
G04 Layer_Color=3148100*
%FSLAX25Y25*%
%MOIN*%
G70*
G04*
G04 #@! TF.SameCoordinates,673B4CCC-D109-4FC9-AC55-69538E973762*
G04*
G04*
G04 #@! TF.FilePolarity,Positive*
G04*
G01*
G75*
%ADD10C,0.01000*%
%ADD11C,0.00500*%
%ADD297C,0.00050*%
D10*
X154834Y-165900D02*
G03*
X154834Y-165900I-4134J0D01*
G01*
X216834Y-89200D02*
G03*
X216834Y-89200I-4134J0D01*
G01*
X67162Y-13419D02*
G03*
X67162Y-13419I-4134J0D01*
G01*
X-1173Y-151344D02*
G03*
X195955Y24993I110505J74819D01*
G01*
X21391Y23852D02*
G03*
X0Y-1I87941J-100377D01*
G01*
X129759Y55354D02*
G03*
X87400Y55112I-20427J-131879D01*
G01*
X72046Y51612D02*
G03*
X34046Y33663I37286J-128137D01*
G01*
X183273Y34570D02*
G03*
X145152Y52029I-73940J-111095D01*
G01*
X17713Y-151297D02*
Y-108D01*
X-1173Y-151344D02*
X17666D01*
X87400Y55112D02*
X89106Y47724D01*
X0Y-1D02*
X17713Y-108D01*
X128177Y47910D02*
X129759Y55354D01*
X143581Y44635D02*
X145152Y52029D01*
X128177Y47910D02*
X143581Y44635D01*
X73761Y44182D02*
X89106Y47724D01*
X72046Y51612D02*
X73761Y44182D01*
X34046Y33663D02*
X38812Y27135D01*
X26402Y17438D02*
X38812Y27135D01*
X21391Y23852D02*
X26402Y17438D01*
X191110Y18586D02*
X195955Y24993D01*
X178598Y28049D02*
X191110Y18586D01*
X178598Y28049D02*
X183273Y34570D01*
D11*
X17666Y-151344D02*
X17713Y-151297D01*
D297*
X-0Y-0D02*
X17787D01*
X35914Y53630D02*
X35963Y53668D01*
X-0Y-0D02*
X17713Y-106D01*
M02*
