G04*
G04 #@! TF.GenerationSoftware,Altium Limited,Altium Designer,22.1.2 (22)*
G04*
G04 Layer_Color=65535*
%FSLAX25Y25*%
%MOIN*%
G70*
G04*
G04 #@! TF.SameCoordinates,673B4CCC-D109-4FC9-AC55-69538E973762*
G04*
G04*
G04 #@! TF.FilePolarity,Positive*
G04*
G01*
G75*
%ADD10C,0.01000*%
%ADD11C,0.00500*%
%ADD12C,0.00013*%
%ADD13C,0.00787*%
%ADD14C,0.01181*%
%ADD15C,0.00800*%
%ADD16R,0.10000X0.02100*%
%ADD17R,0.02100X0.10000*%
%ADD18R,0.16400X0.02800*%
%ADD19R,0.02100X0.09700*%
%ADD20R,0.01732X0.07795*%
%ADD21R,0.04244X0.01646*%
%ADD22R,0.02500X0.05200*%
G36*
X208662Y-120297D02*
X208669Y-120285D01*
X221603Y-128684D01*
X219663Y-131671D01*
X207494Y-123769D01*
X191453Y-148470D01*
X205278Y-157448D01*
X203212Y-160629D01*
X189388Y-151651D01*
X189380Y-151662D01*
X184921Y-148766D01*
X204967Y-117898D01*
X208662Y-120297D01*
D02*
G37*
G36*
X120619Y52613D02*
X117636Y38579D01*
X112760Y39615D01*
X115743Y53649D01*
X120619Y52613D01*
D02*
G37*
G36*
X105278Y38516D02*
X100420Y37395D01*
X96921Y52554D01*
X101778Y53675D01*
X105278Y38516D01*
D02*
G37*
G36*
X30209Y-1497D02*
X26280Y-4566D01*
X13480Y11818D01*
X17408Y14887D01*
X30209Y-1497D01*
D02*
G37*
G36*
X222377Y-92080D02*
X213679Y-120529D01*
X208912Y-119072D01*
X217610Y-90623D01*
X222377Y-92080D01*
D02*
G37*
G36*
X143957Y-2105D02*
X118498D01*
Y3798D01*
X143957D01*
Y-2105D01*
D02*
G37*
G36*
X126900Y-162200D02*
X114500D01*
Y-157215D01*
X126900D01*
Y-162200D01*
D02*
G37*
G36*
X170507Y36805D02*
X161494Y24887D01*
X157518Y27894D01*
X166531Y39812D01*
X170507Y36805D01*
D02*
G37*
G36*
X159023Y-15505D02*
X146633D01*
Y-10527D01*
X159023D01*
Y-15505D01*
D02*
G37*
G36*
X177101Y-89045D02*
X147474D01*
Y-84060D01*
X177101D01*
Y-89045D01*
D02*
G37*
G36*
X222354Y-85607D02*
X217369D01*
Y-55858D01*
X222354D01*
Y-85607D01*
D02*
G37*
G36*
X129274Y-153129D02*
X114471D01*
Y-148151D01*
X129274D01*
Y-153129D01*
D02*
G37*
G36*
X73605Y-179022D02*
X71365Y-183825D01*
X53691Y-175584D01*
X55931Y-170781D01*
X73605Y-179022D01*
D02*
G37*
G36*
X177101Y-94445D02*
X147474D01*
Y-89460D01*
X177101D01*
Y-94445D01*
D02*
G37*
%LPC*%
G36*
X202787Y-122312D02*
X202262Y-123120D01*
X203125Y-124830D01*
X201202Y-124753D01*
X200671Y-125572D01*
X203525Y-125611D01*
X204993Y-126564D01*
X205452Y-125857D01*
X203990Y-124907D01*
X202787Y-122312D01*
D02*
G37*
G36*
X212522Y-123383D02*
X212286Y-123746D01*
X213483Y-124523D01*
X213105Y-125106D01*
X212032Y-124409D01*
X211796Y-124772D01*
X212869Y-125469D01*
X212559Y-125946D01*
X211405Y-125196D01*
X211169Y-125559D01*
X212758Y-126592D01*
X214154Y-124443D01*
X212522Y-123383D01*
D02*
G37*
G36*
X216026Y-126472D02*
X215758Y-126884D01*
X216566Y-127409D01*
X216834Y-126997D01*
X216026Y-126472D01*
D02*
G37*
G36*
X215139Y-125082D02*
X212978Y-126734D01*
X213442Y-127036D01*
X214998Y-125786D01*
X214512Y-127730D01*
X214979Y-128034D01*
X215606Y-125386D01*
X215139Y-125082D01*
D02*
G37*
G36*
X200803Y-126323D02*
X200676Y-126331D01*
X200566Y-126350D01*
X200462Y-126381D01*
X200373Y-126414D01*
X200298Y-126448D01*
X200240Y-126479D01*
X200209Y-126504D01*
X200200Y-126506D01*
X200197Y-126511D01*
X200149Y-126549D01*
X200096Y-126597D01*
X199991Y-126711D01*
X199884Y-126830D01*
X199787Y-126956D01*
X199744Y-127011D01*
X199671Y-127122D01*
X199635Y-127167D01*
X198619Y-128730D01*
X202113Y-130999D01*
X202572Y-130291D01*
X201115Y-129345D01*
X201260Y-129122D01*
X201314Y-129051D01*
X201357Y-128996D01*
X201399Y-128955D01*
X201428Y-128921D01*
X201456Y-128902D01*
X201472Y-128889D01*
X201475Y-128884D01*
X201519Y-128852D01*
X201564Y-128828D01*
X201657Y-128790D01*
X201696Y-128777D01*
X201731Y-128770D01*
X201748Y-128766D01*
X201757Y-128764D01*
X201792Y-128757D01*
X201838Y-128756D01*
X201950Y-128746D01*
X202071Y-128734D01*
X202200Y-128734D01*
X202323Y-128731D01*
X202372Y-128725D01*
X202423Y-128728D01*
X202460Y-128730D01*
X202492Y-128727D01*
X202506Y-128729D01*
X202515Y-128727D01*
X203594Y-128718D01*
X204143Y-127872D01*
X203186Y-127856D01*
X203081Y-127855D01*
X202990Y-127856D01*
X202902Y-127852D01*
X202815Y-127857D01*
X202678Y-127858D01*
X202560Y-127865D01*
X202471Y-127875D01*
X202413Y-127883D01*
X202373Y-127886D01*
X202364Y-127888D01*
X202267Y-127909D01*
X202173Y-127938D01*
X202078Y-127967D01*
X201998Y-127998D01*
X201926Y-128027D01*
X201872Y-128053D01*
X201838Y-128069D01*
X201830Y-128071D01*
X201826Y-128076D01*
X201866Y-127980D01*
X201898Y-127896D01*
X201925Y-127807D01*
X201940Y-127726D01*
X201955Y-127645D01*
X201966Y-127570D01*
X201971Y-127505D01*
X201975Y-127439D01*
X201973Y-127385D01*
X201970Y-127330D01*
X201961Y-127287D01*
X201962Y-127250D01*
X201951Y-127220D01*
X201951Y-127197D01*
X201953Y-127183D01*
X201947Y-127179D01*
X201927Y-127106D01*
X201898Y-127034D01*
X201826Y-126912D01*
X201742Y-126797D01*
X201662Y-126699D01*
X201582Y-126625D01*
X201548Y-126595D01*
X201511Y-126571D01*
X201488Y-126548D01*
X201466Y-126535D01*
X201456Y-126528D01*
X201450Y-126524D01*
X201335Y-126457D01*
X201219Y-126404D01*
X201111Y-126372D01*
X201014Y-126347D01*
X200924Y-126334D01*
X200863Y-126324D01*
X200817Y-126324D01*
X200803Y-126323D01*
D02*
G37*
G36*
X198184Y-129400D02*
X196506Y-131984D01*
X200000Y-134253D01*
X201723Y-131600D01*
X201132Y-131216D01*
X199869Y-133162D01*
X198922Y-132548D01*
X200055Y-130804D01*
X199465Y-130420D01*
X198332Y-132164D01*
X197556Y-131660D01*
X198775Y-129783D01*
X198184Y-129400D01*
D02*
G37*
G36*
X196206Y-132447D02*
X194414Y-135206D01*
X195004Y-135590D01*
X195670Y-134564D01*
X198574Y-136449D01*
X199033Y-135742D01*
X196130Y-133856D01*
X196796Y-132830D01*
X196206Y-132447D01*
D02*
G37*
G36*
X194272Y-135424D02*
X192480Y-138184D01*
X193070Y-138567D01*
X193737Y-137541D01*
X196640Y-139426D01*
X197099Y-138719D01*
X194196Y-136834D01*
X194862Y-135808D01*
X194272Y-135424D01*
D02*
G37*
G36*
X191486Y-139715D02*
X191002Y-140460D01*
X193615Y-144084D01*
X194098Y-143340D01*
X193493Y-142538D01*
X194408Y-141129D01*
X195393Y-141346D01*
X195890Y-140580D01*
X191486Y-139715D01*
D02*
G37*
G36*
X190256Y-142644D02*
X190165Y-142645D01*
X190079Y-142650D01*
X190000Y-142666D01*
X189933Y-142676D01*
X189872Y-142689D01*
X189830Y-142707D01*
X189800Y-142718D01*
X189791Y-142720D01*
X189713Y-142760D01*
X189643Y-142797D01*
X189575Y-142844D01*
X189521Y-142892D01*
X189474Y-142930D01*
X189439Y-142960D01*
X189416Y-142983D01*
X189409Y-142994D01*
X189344Y-143072D01*
X189271Y-143161D01*
X189200Y-143258D01*
X189129Y-143356D01*
X189065Y-143443D01*
X188067Y-144979D01*
X191560Y-147248D01*
X192545Y-145733D01*
X192598Y-145639D01*
X192691Y-145495D01*
X192727Y-145428D01*
X192789Y-145332D01*
X192808Y-145292D01*
X192843Y-145238D01*
X192848Y-145219D01*
X192862Y-145198D01*
X192911Y-145086D01*
X192949Y-144982D01*
X192974Y-144885D01*
X192987Y-144795D01*
X192998Y-144720D01*
X193005Y-144663D01*
X193003Y-144632D01*
X193004Y-144617D01*
X192996Y-144514D01*
X192970Y-144414D01*
X192946Y-144323D01*
X192915Y-144242D01*
X192888Y-144179D01*
X192863Y-144125D01*
X192847Y-144092D01*
X192839Y-144079D01*
X192779Y-143987D01*
X192716Y-143909D01*
X192650Y-143836D01*
X192588Y-143780D01*
X192531Y-143728D01*
X192492Y-143695D01*
X192449Y-143667D01*
X192334Y-143600D01*
X192219Y-143556D01*
X192117Y-143527D01*
X192017Y-143507D01*
X191929Y-143503D01*
X191864Y-143499D01*
X191823Y-143503D01*
X191809Y-143501D01*
X191684Y-143518D01*
X191563Y-143553D01*
X191458Y-143598D01*
X191364Y-143651D01*
X191287Y-143699D01*
X191223Y-143740D01*
X191204Y-143758D01*
X191188Y-143771D01*
X191176Y-143778D01*
X191172Y-143783D01*
X191182Y-143676D01*
X191182Y-143570D01*
X191172Y-143481D01*
X191154Y-143393D01*
X191139Y-143323D01*
X191119Y-143272D01*
X191111Y-143237D01*
X191104Y-143225D01*
X191052Y-143130D01*
X190993Y-143047D01*
X190936Y-142972D01*
X190877Y-142911D01*
X190825Y-142862D01*
X190781Y-142826D01*
X190749Y-142805D01*
X190738Y-142798D01*
X190650Y-142748D01*
X190568Y-142711D01*
X190486Y-142687D01*
X190411Y-142661D01*
X190350Y-142652D01*
X190299Y-142649D01*
X190270Y-142646D01*
X190256Y-142644D01*
D02*
G37*
G36*
X194783Y-151366D02*
X194547Y-151729D01*
X195744Y-152506D01*
X195366Y-153088D01*
X194293Y-152392D01*
X194058Y-152755D01*
X195130Y-153451D01*
X194820Y-153929D01*
X193666Y-153179D01*
X193430Y-153542D01*
X195019Y-154575D01*
X196415Y-152426D01*
X194783Y-151366D01*
D02*
G37*
G36*
X199126Y-154623D02*
X198765Y-155180D01*
X198203Y-154814D01*
X197956Y-155194D01*
X198519Y-155559D01*
X198158Y-156115D01*
X198534Y-156359D01*
X198895Y-155803D01*
X199458Y-156168D01*
X199704Y-155789D01*
X199141Y-155424D01*
X199503Y-154868D01*
X199126Y-154623D01*
D02*
G37*
G36*
X197399Y-153065D02*
X195239Y-154717D01*
X195703Y-155018D01*
X197259Y-153769D01*
X196773Y-155713D01*
X197240Y-156017D01*
X197867Y-153369D01*
X197399Y-153065D01*
D02*
G37*
%LPD*%
G36*
X200801Y-127199D02*
X200863Y-127208D01*
X200912Y-127225D01*
X200953Y-127244D01*
X200988Y-127260D01*
X201015Y-127277D01*
X201020Y-127280D01*
X201075Y-127324D01*
X201119Y-127360D01*
X201160Y-127402D01*
X201187Y-127442D01*
X201209Y-127479D01*
X201223Y-127503D01*
X201236Y-127519D01*
X201238Y-127527D01*
X201257Y-127578D01*
X201263Y-127627D01*
X201270Y-127722D01*
X201260Y-127761D01*
X201256Y-127789D01*
X201257Y-127812D01*
X201253Y-127817D01*
X201241Y-127847D01*
X201228Y-127892D01*
X201209Y-127932D01*
X201183Y-127983D01*
X201123Y-128088D01*
X201059Y-128198D01*
X200999Y-128302D01*
X200557Y-128983D01*
X199669Y-128406D01*
X200190Y-127603D01*
X200227Y-127559D01*
X200296Y-127453D01*
X200332Y-127408D01*
X200349Y-127382D01*
X200365Y-127369D01*
X200369Y-127364D01*
X200423Y-127316D01*
X200473Y-127273D01*
X200522Y-127244D01*
X200573Y-127224D01*
X200615Y-127206D01*
X200650Y-127199D01*
X200667Y-127195D01*
X200676Y-127193D01*
X200739Y-127189D01*
X200801Y-127199D01*
D02*
G37*
G36*
X193669Y-140974D02*
X193044Y-141937D01*
X192054Y-140621D01*
X193669Y-140974D01*
D02*
G37*
G36*
X190189Y-143470D02*
X190242Y-143481D01*
X190291Y-143498D01*
X190327Y-143514D01*
X190362Y-143529D01*
X190383Y-143543D01*
X190389Y-143546D01*
X190444Y-143590D01*
X190495Y-143638D01*
X190527Y-143682D01*
X190556Y-143731D01*
X190574Y-143773D01*
X190585Y-143802D01*
X190594Y-143824D01*
X190596Y-143832D01*
X190600Y-143895D01*
X190605Y-143959D01*
X190595Y-144020D01*
X190580Y-144079D01*
X190566Y-144123D01*
X190551Y-144158D01*
X190542Y-144183D01*
X190522Y-144215D01*
X190506Y-144250D01*
X190406Y-144404D01*
X190353Y-144498D01*
X189914Y-145173D01*
X189106Y-144649D01*
X189565Y-143941D01*
X189605Y-143892D01*
X189688Y-143764D01*
X189714Y-143736D01*
X189752Y-143677D01*
X189771Y-143659D01*
X189775Y-143654D01*
X189827Y-143597D01*
X189877Y-143554D01*
X189926Y-143526D01*
X189971Y-143502D01*
X190013Y-143484D01*
X190043Y-143473D01*
X190061Y-143469D01*
X190069Y-143467D01*
X190133Y-143463D01*
X190189Y-143470D01*
D02*
G37*
G36*
X191681Y-144280D02*
X191743Y-144290D01*
X191792Y-144307D01*
X191842Y-144324D01*
X191882Y-144343D01*
X191912Y-144354D01*
X191934Y-144368D01*
X191939Y-144372D01*
X191999Y-144419D01*
X192051Y-144467D01*
X192094Y-144518D01*
X192126Y-144561D01*
X192144Y-144603D01*
X192160Y-144636D01*
X192169Y-144657D01*
X192171Y-144666D01*
X192184Y-144728D01*
X192189Y-144791D01*
X192179Y-144852D01*
X192176Y-144904D01*
X192162Y-144948D01*
X192156Y-144981D01*
X192147Y-145006D01*
X192144Y-145011D01*
X192135Y-145036D01*
X192118Y-145062D01*
X192078Y-145135D01*
X192032Y-145218D01*
X191977Y-145303D01*
X191934Y-145381D01*
X191429Y-146158D01*
X190494Y-145550D01*
X190967Y-144821D01*
X191020Y-144750D01*
X191067Y-144690D01*
X191105Y-144632D01*
X191141Y-144587D01*
X191178Y-144543D01*
X191207Y-144509D01*
X191233Y-144481D01*
X191260Y-144452D01*
X191289Y-144418D01*
X191317Y-144399D01*
X191320Y-144393D01*
X191376Y-144354D01*
X191425Y-144325D01*
X191476Y-144305D01*
X191523Y-144291D01*
X191563Y-144287D01*
X191595Y-144284D01*
X191613Y-144281D01*
X191621Y-144279D01*
X191681Y-144280D01*
D02*
G37*
%LPC*%
G36*
X118175Y52326D02*
X117875Y50913D01*
X118596Y50759D01*
X118896Y52173D01*
X118175Y52326D01*
D02*
G37*
G36*
X118866Y50230D02*
X118466Y48347D01*
X115376Y49004D01*
X115214Y48243D01*
X118939Y47451D01*
X119501Y50094D01*
X118866Y50230D01*
D02*
G37*
G36*
X116453Y47291D02*
X116309Y47286D01*
X116175Y47279D01*
X116052Y47263D01*
X115934Y47240D01*
X115827Y47215D01*
X115730Y47182D01*
X115647Y47158D01*
X115575Y47125D01*
X115516Y47102D01*
X115463Y47077D01*
X115429Y47061D01*
X115409Y47047D01*
X115401Y47043D01*
X115289Y46965D01*
X115187Y46879D01*
X115095Y46785D01*
X115009Y46689D01*
X114941Y46590D01*
X114871Y46486D01*
X114814Y46390D01*
X114762Y46287D01*
X114725Y46194D01*
X114688Y46106D01*
X114660Y46028D01*
X114634Y45962D01*
X114621Y45905D01*
X114606Y45860D01*
X114599Y45826D01*
X114569Y45658D01*
X114553Y45500D01*
X114553Y45357D01*
X114550Y45232D01*
X114556Y45177D01*
X114558Y45129D01*
X114567Y45085D01*
X114571Y45048D01*
X114571Y45018D01*
X114578Y44999D01*
X114582Y44986D01*
X114580Y44980D01*
X114605Y44873D01*
X114638Y44771D01*
X114678Y44679D01*
X114719Y44592D01*
X114753Y44525D01*
X114783Y44471D01*
X114806Y44436D01*
X114815Y44422D01*
X114885Y44330D01*
X114960Y44236D01*
X115034Y44160D01*
X115103Y44092D01*
X115163Y44037D01*
X115215Y43996D01*
X115245Y43972D01*
X115250Y43965D01*
X115255Y43964D01*
X115398Y43874D01*
X115550Y43799D01*
X115704Y43737D01*
X115855Y43687D01*
X115921Y43661D01*
X115984Y43647D01*
X116040Y43630D01*
X116090Y43613D01*
X116187Y43592D01*
X116354Y43563D01*
X116513Y43547D01*
X116660Y43539D01*
X116804Y43539D01*
X116938Y43552D01*
X117061Y43568D01*
X117174Y43592D01*
X117281Y43617D01*
X117376Y43644D01*
X117461Y43674D01*
X117532Y43701D01*
X117592Y43730D01*
X117638Y43750D01*
X117672Y43767D01*
X117692Y43780D01*
X117700Y43785D01*
X117812Y43863D01*
X117908Y43950D01*
X117999Y44039D01*
X118080Y44141D01*
X118155Y44238D01*
X118218Y44339D01*
X118275Y44440D01*
X118326Y44537D01*
X118369Y44629D01*
X118400Y44719D01*
X118430Y44802D01*
X118456Y44868D01*
X118468Y44925D01*
X118484Y44970D01*
X118491Y45004D01*
X118518Y45160D01*
X118531Y45307D01*
X118536Y45443D01*
X118529Y45576D01*
X118514Y45705D01*
X118497Y45822D01*
X118472Y45929D01*
X118440Y46032D01*
X118411Y46122D01*
X118380Y46200D01*
X118354Y46271D01*
X118323Y46326D01*
X118297Y46373D01*
X118281Y46407D01*
X118267Y46428D01*
X118263Y46434D01*
X118178Y46542D01*
X118086Y46645D01*
X117985Y46733D01*
X117883Y46814D01*
X117774Y46891D01*
X117662Y46957D01*
X117555Y47016D01*
X117445Y47063D01*
X117347Y47107D01*
X117246Y47141D01*
X117163Y47170D01*
X117085Y47199D01*
X117023Y47212D01*
X116978Y47228D01*
X116938Y47236D01*
X116771Y47266D01*
X116607Y47283D01*
X116453Y47291D01*
D02*
G37*
G36*
X114227Y43769D02*
X114055Y42957D01*
X116641Y41450D01*
X113657Y41086D01*
X113483Y40268D01*
X117528Y40813D01*
X117702Y41631D01*
X114227Y43769D01*
D02*
G37*
%LPD*%
G36*
X116457Y46495D02*
X116527Y46486D01*
X116593Y46484D01*
X116644Y46473D01*
X116691Y46469D01*
X116726Y46462D01*
X116748Y46457D01*
X116754Y46456D01*
X116873Y46425D01*
X116981Y46396D01*
X117086Y46356D01*
X117174Y46319D01*
X117260Y46277D01*
X117335Y46237D01*
X117404Y46192D01*
X117462Y46156D01*
X117513Y46115D01*
X117558Y46076D01*
X117594Y46044D01*
X117623Y46014D01*
X117648Y45991D01*
X117661Y45970D01*
X117672Y45962D01*
X117676Y45955D01*
X117721Y45886D01*
X117761Y45817D01*
X117787Y45746D01*
X117814Y45674D01*
X117829Y45605D01*
X117844Y45537D01*
X117860Y45414D01*
X117861Y45306D01*
X117857Y45259D01*
X117854Y45217D01*
X117854Y45188D01*
X117844Y45142D01*
X117822Y45063D01*
X117799Y44984D01*
X117766Y44913D01*
X117727Y44844D01*
X117649Y44729D01*
X117563Y44633D01*
X117487Y44560D01*
X117451Y44532D01*
X117422Y44508D01*
X117395Y44490D01*
X117374Y44476D01*
X117367Y44472D01*
X117360Y44467D01*
X117286Y44429D01*
X117202Y44399D01*
X117119Y44375D01*
X117033Y44363D01*
X116860Y44340D01*
X116693Y44340D01*
X116616Y44344D01*
X116546Y44353D01*
X116488Y44360D01*
X116429Y44366D01*
X116388Y44369D01*
X116354Y44376D01*
X116331Y44381D01*
X116325Y44382D01*
X116206Y44413D01*
X116099Y44442D01*
X115999Y44481D01*
X115906Y44519D01*
X115824Y44555D01*
X115750Y44600D01*
X115680Y44639D01*
X115623Y44681D01*
X115571Y44716D01*
X115531Y44754D01*
X115490Y44787D01*
X115460Y44811D01*
X115442Y44839D01*
X115427Y44854D01*
X115417Y44862D01*
X115412Y44869D01*
X115367Y44939D01*
X115328Y45007D01*
X115301Y45078D01*
X115274Y45150D01*
X115253Y45220D01*
X115244Y45288D01*
X115229Y45417D01*
X115228Y45524D01*
X115232Y45571D01*
X115235Y45613D01*
X115237Y45648D01*
X115246Y45694D01*
X115270Y45779D01*
X115293Y45858D01*
X115365Y45998D01*
X115444Y46118D01*
X115523Y46209D01*
X115562Y46249D01*
X115599Y46283D01*
X115635Y46311D01*
X115664Y46335D01*
X115691Y46353D01*
X115712Y46366D01*
X115719Y46371D01*
X115726Y46376D01*
X115800Y46414D01*
X115878Y46445D01*
X115960Y46463D01*
X116048Y46481D01*
X116219Y46498D01*
X116381Y46499D01*
X116457Y46495D01*
D02*
G37*
%LPC*%
G36*
X101336Y53055D02*
X100703Y52909D01*
X101185Y50823D01*
X100170Y50589D01*
X99738Y52459D01*
X99106Y52312D01*
X99537Y50443D01*
X98705Y50251D01*
X98241Y52263D01*
X97608Y52117D01*
X98247Y49347D01*
X101992Y50211D01*
X101336Y53055D01*
D02*
G37*
G36*
X98995Y48997D02*
X98362Y48851D01*
X99045Y45892D01*
X99678Y46038D01*
X99424Y47139D01*
X102536Y47857D01*
X102361Y48615D01*
X99249Y47897D01*
X98995Y48997D01*
D02*
G37*
G36*
X102119Y45972D02*
X102113Y45970D01*
X102107Y45969D01*
X102048Y45967D01*
X101982Y45964D01*
X101907Y45953D01*
X101831Y45941D01*
X101675Y45917D01*
X101513Y45892D01*
X101438Y45875D01*
X101370Y45859D01*
X101306Y45850D01*
X99169Y45357D01*
X99344Y44598D01*
X101424Y45079D01*
X101504Y45097D01*
X101578Y45114D01*
X101648Y45124D01*
X101710Y45139D01*
X101826Y45159D01*
X101913Y45173D01*
X101982Y45184D01*
X102029Y45188D01*
X102059Y45189D01*
X102070Y45192D01*
X102143Y45191D01*
X102212Y45177D01*
X102271Y45154D01*
X102325Y45131D01*
X102371Y45111D01*
X102406Y45089D01*
X102429Y45070D01*
X102436Y45066D01*
X102497Y45008D01*
X102543Y44941D01*
X102584Y44866D01*
X102618Y44796D01*
X102647Y44725D01*
X102665Y44669D01*
X102677Y44618D01*
X102697Y44508D01*
X102703Y44401D01*
X102700Y44311D01*
X102693Y44237D01*
X102683Y44175D01*
X102670Y44129D01*
X102658Y44103D01*
X102655Y44090D01*
X102612Y44014D01*
X102566Y43955D01*
X102513Y43901D01*
X102458Y43852D01*
X102410Y43823D01*
X102374Y43797D01*
X102349Y43779D01*
X102337Y43777D01*
X102310Y43764D01*
X102270Y43755D01*
X102180Y43728D01*
X102079Y43699D01*
X101976Y43675D01*
X101875Y43646D01*
X101829Y43635D01*
X101795Y43627D01*
X101761Y43619D01*
X101738Y43614D01*
X101721Y43610D01*
X101715Y43609D01*
X99681Y43139D01*
X99856Y42381D01*
X101970Y42869D01*
X102077Y42900D01*
X102180Y42924D01*
X102270Y42950D01*
X102354Y42976D01*
X102432Y43000D01*
X102499Y43022D01*
X102561Y43042D01*
X102617Y43060D01*
X102661Y43077D01*
X102705Y43093D01*
X102732Y43105D01*
X102760Y43117D01*
X102775Y43127D01*
X102787Y43130D01*
X102792Y43131D01*
X102867Y43172D01*
X102933Y43224D01*
X102999Y43275D01*
X103054Y43324D01*
X103097Y43370D01*
X103131Y43407D01*
X103150Y43430D01*
X103160Y43438D01*
X103212Y43522D01*
X103265Y43606D01*
X103299Y43692D01*
X103335Y43773D01*
X103354Y43843D01*
X103371Y43901D01*
X103380Y43939D01*
X103385Y43946D01*
X103383Y43952D01*
X103393Y44014D01*
X103397Y44075D01*
X103395Y44213D01*
X103388Y44349D01*
X103369Y44483D01*
X103353Y44605D01*
X103341Y44657D01*
X103336Y44704D01*
X103316Y44789D01*
X103274Y44947D01*
X103229Y45087D01*
X103185Y45203D01*
X103138Y45300D01*
X103101Y45382D01*
X103082Y45413D01*
X103071Y45435D01*
X103060Y45456D01*
X103050Y45472D01*
X103043Y45476D01*
X103042Y45482D01*
X102974Y45569D01*
X102903Y45642D01*
X102835Y45704D01*
X102768Y45761D01*
X102717Y45798D01*
X102674Y45829D01*
X102640Y45846D01*
X102633Y45850D01*
X102546Y45890D01*
X102454Y45923D01*
X102366Y45939D01*
X102284Y45956D01*
X102211Y45963D01*
X102155Y45968D01*
X102119Y45972D01*
D02*
G37*
G36*
X103774Y42493D02*
X100029Y41629D01*
X100292Y40489D01*
X103006Y40413D01*
X100603Y39143D01*
X100864Y38015D01*
X104609Y38879D01*
X104447Y39581D01*
X101500Y38900D01*
X104276Y40321D01*
X104108Y41045D01*
X100990Y41106D01*
X103936Y41792D01*
X103774Y42493D01*
D02*
G37*
G36*
X16141Y12931D02*
X15629Y12532D01*
X16616Y11268D01*
X15897Y10707D01*
X14755Y12168D01*
X14244Y11768D01*
X15864Y9694D01*
X18893Y12060D01*
X18414Y12673D01*
X17128Y11668D01*
X16141Y12931D01*
D02*
G37*
G36*
X18158Y10350D02*
X17646Y9950D01*
X18633Y8687D01*
X17914Y8125D01*
X16772Y9586D01*
X16261Y9187D01*
X17881Y7112D01*
X20910Y9478D01*
X20431Y10092D01*
X19145Y9087D01*
X18158Y10350D01*
D02*
G37*
G36*
X21106Y8325D02*
X20968Y8321D01*
X20836Y8300D01*
X20708Y8274D01*
X20579Y8240D01*
X20457Y8196D01*
X20343Y8152D01*
X20236Y8098D01*
X20139Y8052D01*
X20049Y7996D01*
X19972Y7952D01*
X19900Y7910D01*
X19850Y7871D01*
X19809Y7846D01*
X19777Y7821D01*
X19647Y7712D01*
X19529Y7598D01*
X19423Y7485D01*
X19334Y7371D01*
X19254Y7265D01*
X19187Y7160D01*
X19129Y7055D01*
X19079Y6957D01*
X19042Y6861D01*
X19008Y6782D01*
X18986Y6706D01*
X18966Y6646D01*
X18951Y6589D01*
X18942Y6553D01*
X18939Y6528D01*
X18938Y6520D01*
X18925Y6384D01*
X18926Y6250D01*
X18939Y6120D01*
X18957Y5992D01*
X18988Y5876D01*
X19023Y5755D01*
X19060Y5650D01*
X19106Y5545D01*
X19153Y5456D01*
X19197Y5371D01*
X19238Y5299D01*
X19272Y5237D01*
X19308Y5191D01*
X19332Y5150D01*
X19354Y5123D01*
X19463Y4992D01*
X19574Y4879D01*
X19684Y4786D01*
X19778Y4704D01*
X19824Y4673D01*
X19862Y4643D01*
X19901Y4622D01*
X19932Y4602D01*
X19954Y4582D01*
X19974Y4575D01*
X19986Y4570D01*
X19990Y4565D01*
X20088Y4516D01*
X20187Y4474D01*
X20284Y4446D01*
X20377Y4422D01*
X20449Y4405D01*
X20511Y4393D01*
X20552Y4388D01*
X20568Y4386D01*
X20684Y4380D01*
X20805Y4378D01*
X20910Y4386D01*
X21007Y4395D01*
X21087Y4405D01*
X21151Y4419D01*
X21190Y4426D01*
X21198Y4425D01*
X21203Y4429D01*
X21363Y4480D01*
X21517Y4549D01*
X21665Y4626D01*
X21800Y4710D01*
X21862Y4744D01*
X21913Y4783D01*
X21963Y4815D01*
X22008Y4843D01*
X22086Y4904D01*
X22216Y5013D01*
X22330Y5124D01*
X22431Y5232D01*
X22523Y5342D01*
X22600Y5453D01*
X22667Y5558D01*
X22721Y5659D01*
X22770Y5757D01*
X22811Y5848D01*
X22842Y5932D01*
X22867Y6004D01*
X22884Y6069D01*
X22898Y6117D01*
X22906Y6153D01*
X22909Y6178D01*
X22910Y6186D01*
X22923Y6322D01*
X22918Y6452D01*
X22908Y6578D01*
X22883Y6707D01*
X22856Y6826D01*
X22819Y6939D01*
X22779Y7049D01*
X22737Y7149D01*
X22694Y7242D01*
X22646Y7323D01*
X22601Y7400D01*
X22567Y7462D01*
X22531Y7508D01*
X22507Y7549D01*
X22485Y7576D01*
X22383Y7697D01*
X22279Y7802D01*
X22178Y7893D01*
X22071Y7973D01*
X21963Y8045D01*
X21863Y8107D01*
X21765Y8157D01*
X21665Y8198D01*
X21578Y8234D01*
X21498Y8260D01*
X21426Y8286D01*
X21365Y8297D01*
X21312Y8308D01*
X21276Y8317D01*
X21251Y8320D01*
X21243Y8321D01*
X21106Y8325D01*
D02*
G37*
G36*
X24357Y5171D02*
X20636Y3481D01*
X20978Y3044D01*
X24692Y4742D01*
X24357Y5171D01*
D02*
G37*
G36*
X24901Y4371D02*
X21872Y2004D01*
X22315Y1437D01*
X24348Y3026D01*
X23291Y188D01*
X23752Y-402D01*
X26781Y1964D01*
X26338Y2531D01*
X24351Y979D01*
X25379Y3758D01*
X24901Y4371D01*
D02*
G37*
G36*
X26976Y811D02*
X26838Y807D01*
X26707Y786D01*
X26579Y760D01*
X26449Y726D01*
X26327Y682D01*
X26213Y638D01*
X26107Y584D01*
X26009Y538D01*
X25919Y482D01*
X25843Y438D01*
X25771Y396D01*
X25720Y357D01*
X25680Y332D01*
X25648Y307D01*
X25518Y198D01*
X25399Y84D01*
X25294Y-29D01*
X25205Y-143D01*
X25125Y-250D01*
X25058Y-354D01*
X24999Y-459D01*
X24950Y-557D01*
X24913Y-653D01*
X24878Y-732D01*
X24856Y-808D01*
X24836Y-869D01*
X24821Y-925D01*
X24813Y-961D01*
X24810Y-986D01*
X24809Y-994D01*
X24796Y-1130D01*
X24796Y-1264D01*
X24810Y-1394D01*
X24827Y-1522D01*
X24859Y-1638D01*
X24894Y-1759D01*
X24931Y-1864D01*
X24976Y-1969D01*
X25024Y-2058D01*
X25068Y-2143D01*
X25109Y-2215D01*
X25143Y-2277D01*
X25179Y-2323D01*
X25203Y-2364D01*
X25225Y-2392D01*
X25334Y-2522D01*
X25445Y-2635D01*
X25554Y-2728D01*
X25648Y-2810D01*
X25695Y-2841D01*
X25733Y-2871D01*
X25772Y-2892D01*
X25802Y-2912D01*
X25825Y-2932D01*
X25845Y-2939D01*
X25857Y-2944D01*
X25861Y-2949D01*
X25959Y-2998D01*
X26058Y-3040D01*
X26154Y-3068D01*
X26247Y-3092D01*
X26320Y-3109D01*
X26381Y-3121D01*
X26422Y-3126D01*
X26439Y-3128D01*
X26555Y-3134D01*
X26675Y-3136D01*
X26780Y-3128D01*
X26877Y-3119D01*
X26958Y-3109D01*
X27022Y-3096D01*
X27060Y-3088D01*
X27069Y-3089D01*
X27073Y-3085D01*
X27234Y-3034D01*
X27388Y-2966D01*
X27535Y-2888D01*
X27670Y-2804D01*
X27733Y-2770D01*
X27784Y-2731D01*
X27833Y-2699D01*
X27878Y-2671D01*
X27957Y-2610D01*
X28087Y-2501D01*
X28201Y-2390D01*
X28301Y-2282D01*
X28394Y-2172D01*
X28470Y-2061D01*
X28537Y-1956D01*
X28591Y-1855D01*
X28641Y-1757D01*
X28681Y-1666D01*
X28712Y-1582D01*
X28738Y-1510D01*
X28754Y-1445D01*
X28768Y-1397D01*
X28777Y-1361D01*
X28780Y-1336D01*
X28781Y-1328D01*
X28794Y-1192D01*
X28789Y-1062D01*
X28779Y-936D01*
X28753Y-808D01*
X28726Y-688D01*
X28690Y-575D01*
X28649Y-466D01*
X28608Y-365D01*
X28565Y-272D01*
X28516Y-191D01*
X28472Y-114D01*
X28438Y-52D01*
X28402Y-6D01*
X28377Y35D01*
X28356Y62D01*
X28254Y183D01*
X28150Y288D01*
X28049Y379D01*
X27942Y459D01*
X27834Y531D01*
X27733Y593D01*
X27635Y642D01*
X27536Y684D01*
X27449Y720D01*
X27369Y746D01*
X27297Y772D01*
X27236Y783D01*
X27183Y794D01*
X27146Y802D01*
X27122Y806D01*
X27114Y807D01*
X26976Y811D01*
D02*
G37*
%LPD*%
G36*
X21212Y7562D02*
X21225Y7564D01*
X21233Y7563D01*
X21315Y7553D01*
X21393Y7540D01*
X21465Y7514D01*
X21537Y7489D01*
X21599Y7456D01*
X21662Y7423D01*
X21766Y7356D01*
X21849Y7288D01*
X21883Y7254D01*
X21913Y7226D01*
X21935Y7206D01*
X21964Y7169D01*
X22010Y7101D01*
X22056Y7033D01*
X22089Y6962D01*
X22117Y6888D01*
X22155Y6754D01*
X22173Y6627D01*
X22181Y6522D01*
X22179Y6476D01*
X22179Y6439D01*
X22175Y6406D01*
X22172Y6381D01*
X22171Y6373D01*
X22170Y6365D01*
X22151Y6284D01*
X22120Y6200D01*
X22085Y6121D01*
X22039Y6047D01*
X21946Y5900D01*
X21838Y5772D01*
X21786Y5716D01*
X21734Y5668D01*
X21691Y5627D01*
X21649Y5587D01*
X21620Y5557D01*
X21593Y5535D01*
X21574Y5521D01*
X21570Y5517D01*
X21469Y5446D01*
X21378Y5382D01*
X21284Y5331D01*
X21195Y5284D01*
X21115Y5244D01*
X21033Y5217D01*
X20958Y5188D01*
X20890Y5172D01*
X20829Y5154D01*
X20774Y5148D01*
X20723Y5138D01*
X20684Y5130D01*
X20652Y5134D01*
X20630Y5133D01*
X20618Y5130D01*
X20609Y5131D01*
X20527Y5141D01*
X20450Y5155D01*
X20378Y5180D01*
X20306Y5206D01*
X20239Y5235D01*
X20181Y5271D01*
X20073Y5343D01*
X19990Y5411D01*
X19956Y5445D01*
X19926Y5473D01*
X19900Y5497D01*
X19871Y5534D01*
X19822Y5607D01*
X19776Y5675D01*
X19715Y5820D01*
X19673Y5959D01*
X19655Y6078D01*
X19649Y6132D01*
X19647Y6183D01*
X19648Y6228D01*
X19649Y6266D01*
X19653Y6299D01*
X19656Y6323D01*
X19657Y6332D01*
X19658Y6340D01*
X19676Y6421D01*
X19703Y6501D01*
X19741Y6576D01*
X19784Y6654D01*
X19880Y6796D01*
X19983Y6921D01*
X20036Y6977D01*
X20088Y7025D01*
X20131Y7074D01*
X20173Y7106D01*
X20206Y7139D01*
X20234Y7161D01*
X20252Y7175D01*
X20257Y7179D01*
X20357Y7250D01*
X20448Y7314D01*
X20547Y7368D01*
X20631Y7412D01*
X20719Y7451D01*
X20798Y7483D01*
X20876Y7507D01*
X20941Y7528D01*
X21005Y7541D01*
X21065Y7551D01*
X21112Y7557D01*
X21154Y7561D01*
X21188Y7565D01*
X21212Y7562D01*
D02*
G37*
G36*
X27083Y48D02*
X27096Y50D01*
X27104Y49D01*
X27186Y39D01*
X27264Y25D01*
X27335Y-0D01*
X27407Y-25D01*
X27470Y-58D01*
X27533Y-91D01*
X27637Y-158D01*
X27720Y-227D01*
X27754Y-260D01*
X27783Y-288D01*
X27806Y-308D01*
X27835Y-345D01*
X27881Y-413D01*
X27926Y-481D01*
X27959Y-552D01*
X27988Y-626D01*
X28026Y-760D01*
X28043Y-887D01*
X28051Y-992D01*
X28050Y-1038D01*
X28049Y-1075D01*
X28045Y-1108D01*
X28042Y-1133D01*
X28041Y-1141D01*
X28040Y-1149D01*
X28022Y-1230D01*
X27991Y-1314D01*
X27956Y-1393D01*
X27910Y-1467D01*
X27817Y-1614D01*
X27709Y-1742D01*
X27656Y-1798D01*
X27605Y-1846D01*
X27562Y-1887D01*
X27520Y-1927D01*
X27491Y-1957D01*
X27463Y-1979D01*
X27445Y-1993D01*
X27440Y-1997D01*
X27340Y-2068D01*
X27249Y-2132D01*
X27155Y-2183D01*
X27066Y-2230D01*
X26986Y-2270D01*
X26903Y-2297D01*
X26829Y-2326D01*
X26760Y-2342D01*
X26700Y-2360D01*
X26645Y-2366D01*
X26594Y-2376D01*
X26555Y-2384D01*
X26522Y-2380D01*
X26501Y-2382D01*
X26488Y-2384D01*
X26480Y-2383D01*
X26398Y-2373D01*
X26320Y-2359D01*
X26249Y-2334D01*
X26177Y-2308D01*
X26109Y-2279D01*
X26051Y-2243D01*
X25943Y-2171D01*
X25860Y-2103D01*
X25827Y-2070D01*
X25797Y-2041D01*
X25771Y-2017D01*
X25742Y-1980D01*
X25693Y-1907D01*
X25647Y-1839D01*
X25585Y-1694D01*
X25544Y-1555D01*
X25525Y-1436D01*
X25519Y-1382D01*
X25517Y-1331D01*
X25519Y-1286D01*
X25519Y-1248D01*
X25523Y-1215D01*
X25526Y-1191D01*
X25527Y-1182D01*
X25528Y-1174D01*
X25547Y-1093D01*
X25573Y-1013D01*
X25611Y-939D01*
X25654Y-860D01*
X25751Y-718D01*
X25854Y-593D01*
X25907Y-537D01*
X25958Y-489D01*
X26002Y-441D01*
X26043Y-408D01*
X26077Y-375D01*
X26104Y-353D01*
X26123Y-339D01*
X26127Y-335D01*
X26228Y-264D01*
X26319Y-200D01*
X26417Y-146D01*
X26502Y-102D01*
X26590Y-63D01*
X26669Y-31D01*
X26747Y-7D01*
X26812Y14D01*
X26876Y27D01*
X26936Y37D01*
X26982Y43D01*
X27024Y46D01*
X27058Y51D01*
X27083Y48D01*
D02*
G37*
%LPC*%
G36*
X217284Y-93601D02*
X217103Y-94194D01*
X218954Y-96503D01*
X219564Y-96690D01*
X220024Y-95185D01*
X220762Y-95411D01*
X220971Y-94728D01*
X220233Y-94502D01*
X220371Y-94049D01*
X219756Y-93861D01*
X219617Y-94314D01*
X217284Y-93601D01*
D02*
G37*
G36*
X216473Y-96295D02*
X216262Y-96983D01*
X218729Y-97738D01*
X215799Y-98500D01*
X215580Y-99216D01*
X219255Y-100339D01*
X219466Y-99651D01*
X217055Y-98914D01*
X219921Y-98163D01*
X220148Y-97419D01*
X216473Y-96295D01*
D02*
G37*
G36*
X216492Y-100253D02*
X216369Y-100258D01*
X216248Y-100270D01*
X216140Y-100286D01*
X216040Y-100311D01*
X215956Y-100328D01*
X215880Y-100354D01*
X215820Y-100372D01*
X215765Y-100392D01*
X215730Y-100406D01*
X215708Y-100417D01*
X215701Y-100421D01*
X215582Y-100489D01*
X215473Y-100566D01*
X215373Y-100651D01*
X215280Y-100739D01*
X215202Y-100831D01*
X215123Y-100930D01*
X215059Y-101020D01*
X214999Y-101118D01*
X214953Y-101208D01*
X214908Y-101292D01*
X214873Y-101367D01*
X214842Y-101431D01*
X214825Y-101487D01*
X214805Y-101530D01*
X214795Y-101563D01*
X214751Y-101727D01*
X214721Y-101883D01*
X214708Y-102026D01*
X214695Y-102150D01*
X214696Y-102206D01*
X214694Y-102254D01*
X214699Y-102298D01*
X214700Y-102336D01*
X214697Y-102365D01*
X214703Y-102385D01*
X214705Y-102398D01*
X214703Y-102404D01*
X214719Y-102513D01*
X214742Y-102618D01*
X214774Y-102713D01*
X214808Y-102803D01*
X214835Y-102872D01*
X214861Y-102929D01*
X214880Y-102966D01*
X214888Y-102980D01*
X214949Y-103079D01*
X215017Y-103179D01*
X215084Y-103260D01*
X215146Y-103335D01*
X215202Y-103394D01*
X215249Y-103439D01*
X215278Y-103466D01*
X215281Y-103474D01*
X215287Y-103475D01*
X215421Y-103578D01*
X215566Y-103665D01*
X215714Y-103741D01*
X215860Y-103804D01*
X215923Y-103835D01*
X215985Y-103854D01*
X216039Y-103877D01*
X216088Y-103898D01*
X216183Y-103927D01*
X216347Y-103971D01*
X216503Y-104000D01*
X216650Y-104021D01*
X216792Y-104034D01*
X216928Y-104032D01*
X217051Y-104027D01*
X217166Y-104013D01*
X217274Y-103998D01*
X217372Y-103978D01*
X217459Y-103956D01*
X217532Y-103936D01*
X217594Y-103912D01*
X217642Y-103896D01*
X217677Y-103882D01*
X217699Y-103870D01*
X217706Y-103866D01*
X217825Y-103799D01*
X217928Y-103720D01*
X218026Y-103640D01*
X218116Y-103545D01*
X218199Y-103454D01*
X218271Y-103360D01*
X218337Y-103264D01*
X218396Y-103172D01*
X218447Y-103084D01*
X218486Y-102998D01*
X218523Y-102917D01*
X218554Y-102853D01*
X218571Y-102797D01*
X218591Y-102754D01*
X218601Y-102721D01*
X218641Y-102568D01*
X218667Y-102423D01*
X218684Y-102287D01*
X218688Y-102154D01*
X218685Y-102025D01*
X218678Y-101906D01*
X218663Y-101798D01*
X218640Y-101693D01*
X218619Y-101601D01*
X218595Y-101520D01*
X218575Y-101446D01*
X218549Y-101390D01*
X218527Y-101340D01*
X218514Y-101305D01*
X218502Y-101284D01*
X218498Y-101276D01*
X218423Y-101162D01*
X218341Y-101051D01*
X218248Y-100955D01*
X218153Y-100865D01*
X218051Y-100778D01*
X217945Y-100703D01*
X217844Y-100636D01*
X217739Y-100579D01*
X217645Y-100526D01*
X217547Y-100484D01*
X217467Y-100447D01*
X217392Y-100412D01*
X217331Y-100393D01*
X217287Y-100374D01*
X217248Y-100362D01*
X217084Y-100318D01*
X216922Y-100287D01*
X216770Y-100265D01*
X216626Y-100257D01*
X216492Y-100253D01*
D02*
G37*
G36*
X214212Y-103691D02*
X213324Y-106595D01*
X213945Y-106784D01*
X214275Y-105705D01*
X217330Y-106639D01*
X217557Y-105895D01*
X214503Y-104961D01*
X214833Y-103881D01*
X214212Y-103691D01*
D02*
G37*
G36*
X213254Y-106824D02*
X212366Y-109728D01*
X212987Y-109917D01*
X213317Y-108838D01*
X216372Y-109772D01*
X216599Y-109027D01*
X213545Y-108094D01*
X213875Y-107014D01*
X213254Y-106824D01*
D02*
G37*
G36*
X212205Y-110253D02*
X211978Y-110997D01*
X214020Y-111622D01*
X214098Y-111646D01*
X214171Y-111668D01*
X214236Y-111694D01*
X214298Y-111713D01*
X214408Y-111753D01*
X214490Y-111784D01*
X214556Y-111810D01*
X214599Y-111829D01*
X214625Y-111843D01*
X214636Y-111847D01*
X214698Y-111884D01*
X214751Y-111931D01*
X214791Y-111980D01*
X214826Y-112027D01*
X214856Y-112067D01*
X214876Y-112104D01*
X214886Y-112131D01*
X214890Y-112138D01*
X214914Y-112219D01*
X214920Y-112301D01*
X214918Y-112386D01*
X214913Y-112464D01*
X214901Y-112540D01*
X214890Y-112597D01*
X214875Y-112648D01*
X214837Y-112752D01*
X214789Y-112848D01*
X214741Y-112925D01*
X214698Y-112985D01*
X214658Y-113034D01*
X214624Y-113067D01*
X214601Y-113084D01*
X214592Y-113093D01*
X214517Y-113138D01*
X214447Y-113165D01*
X214374Y-113186D01*
X214302Y-113200D01*
X214246Y-113202D01*
X214202Y-113207D01*
X214171Y-113209D01*
X214159Y-113206D01*
X214130Y-113203D01*
X214091Y-113191D01*
X213999Y-113169D01*
X213897Y-113144D01*
X213796Y-113113D01*
X213694Y-113088D01*
X213649Y-113074D01*
X213616Y-113064D01*
X213582Y-113054D01*
X213560Y-113047D01*
X213543Y-113042D01*
X213537Y-113040D01*
X211540Y-112430D01*
X211313Y-113174D01*
X213388Y-113808D01*
X213496Y-113835D01*
X213597Y-113866D01*
X213688Y-113888D01*
X213774Y-113908D01*
X213854Y-113926D01*
X213923Y-113941D01*
X213986Y-113954D01*
X214043Y-113966D01*
X214090Y-113974D01*
X214136Y-113982D01*
X214166Y-113985D01*
X214196Y-113988D01*
X214214Y-113987D01*
X214225Y-113991D01*
X214231Y-113993D01*
X214316Y-113994D01*
X214399Y-113983D01*
X214482Y-113971D01*
X214554Y-113957D01*
X214615Y-113938D01*
X214662Y-113923D01*
X214690Y-113912D01*
X214703Y-113910D01*
X214790Y-113864D01*
X214878Y-113817D01*
X214951Y-113760D01*
X215021Y-113708D01*
X215074Y-113657D01*
X215117Y-113615D01*
X215144Y-113587D01*
X215152Y-113583D01*
X215153Y-113577D01*
X215193Y-113528D01*
X215227Y-113477D01*
X215294Y-113357D01*
X215356Y-113235D01*
X215406Y-113110D01*
X215453Y-112996D01*
X215469Y-112946D01*
X215488Y-112902D01*
X215514Y-112819D01*
X215556Y-112660D01*
X215587Y-112517D01*
X215607Y-112394D01*
X215615Y-112287D01*
X215624Y-112198D01*
X215623Y-112161D01*
X215624Y-112137D01*
X215626Y-112113D01*
X215625Y-112094D01*
X215621Y-112087D01*
X215623Y-112081D01*
X215607Y-111972D01*
X215582Y-111873D01*
X215554Y-111785D01*
X215525Y-111703D01*
X215499Y-111646D01*
X215477Y-111596D01*
X215456Y-111565D01*
X215452Y-111558D01*
X215397Y-111480D01*
X215334Y-111406D01*
X215266Y-111348D01*
X215203Y-111292D01*
X215143Y-111249D01*
X215098Y-111217D01*
X215068Y-111196D01*
X215062Y-111194D01*
X215056Y-111192D01*
X215004Y-111164D01*
X214946Y-111134D01*
X214875Y-111106D01*
X214804Y-111078D01*
X214656Y-111021D01*
X214503Y-110962D01*
X214430Y-110940D01*
X214363Y-110919D01*
X214303Y-110895D01*
X212205Y-110253D01*
D02*
G37*
G36*
X211670Y-114225D02*
X211613Y-114232D01*
X211567Y-114242D01*
X211541Y-114247D01*
X211528Y-114249D01*
X211448Y-114273D01*
X211372Y-114299D01*
X211307Y-114334D01*
X211250Y-114359D01*
X211199Y-114387D01*
X211166Y-114413D01*
X211142Y-114431D01*
X211135Y-114435D01*
X211075Y-114490D01*
X211023Y-114541D01*
X210975Y-114600D01*
X210939Y-114656D01*
X210907Y-114701D01*
X210884Y-114737D01*
X210869Y-114763D01*
X210866Y-114774D01*
X210827Y-114860D01*
X210786Y-114958D01*
X210747Y-115062D01*
X210709Y-115167D01*
X210675Y-115260D01*
X210180Y-116877D01*
X213856Y-118001D01*
X214343Y-116406D01*
X214367Y-116310D01*
X214413Y-116159D01*
X214428Y-116090D01*
X214459Y-115989D01*
X214465Y-115948D01*
X214482Y-115892D01*
X214482Y-115874D01*
X214489Y-115851D01*
X214504Y-115740D01*
X214511Y-115638D01*
X214509Y-115545D01*
X214497Y-115463D01*
X214488Y-115392D01*
X214479Y-115341D01*
X214470Y-115313D01*
X214467Y-115300D01*
X214434Y-115211D01*
X214385Y-115129D01*
X214341Y-115054D01*
X214293Y-114990D01*
X214253Y-114941D01*
X214217Y-114900D01*
X214194Y-114874D01*
X214184Y-114865D01*
X214107Y-114799D01*
X214032Y-114745D01*
X213954Y-114697D01*
X213885Y-114664D01*
X213821Y-114632D01*
X213778Y-114613D01*
X213734Y-114599D01*
X213614Y-114569D01*
X213501Y-114558D01*
X213403Y-114559D01*
X213309Y-114567D01*
X213230Y-114586D01*
X213171Y-114598D01*
X213136Y-114612D01*
X213123Y-114614D01*
X213017Y-114661D01*
X212919Y-114723D01*
X212837Y-114790D01*
X212767Y-114860D01*
X212711Y-114922D01*
X212664Y-114976D01*
X212652Y-114996D01*
X212641Y-115011D01*
X212632Y-115021D01*
X212630Y-115026D01*
X212611Y-114929D01*
X212585Y-114835D01*
X212553Y-114758D01*
X212514Y-114685D01*
X212483Y-114627D01*
X212453Y-114587D01*
X212437Y-114557D01*
X212428Y-114548D01*
X212357Y-114478D01*
X212284Y-114419D01*
X212214Y-114367D01*
X212146Y-114328D01*
X212088Y-114298D01*
X212040Y-114277D01*
X212006Y-114267D01*
X211995Y-114263D01*
X211904Y-114241D01*
X211822Y-114229D01*
X211742Y-114229D01*
X211670Y-114225D01*
D02*
G37*
%LPD*%
G36*
X219408Y-94997D02*
X219148Y-95847D01*
X218150Y-94612D01*
X219408Y-94997D01*
D02*
G37*
G36*
X216629Y-101047D02*
X216705Y-101058D01*
X216774Y-101073D01*
X216839Y-101081D01*
X216889Y-101096D01*
X216936Y-101104D01*
X216969Y-101115D01*
X216991Y-101121D01*
X216997Y-101123D01*
X217113Y-101165D01*
X217217Y-101203D01*
X217319Y-101252D01*
X217403Y-101296D01*
X217486Y-101346D01*
X217557Y-101392D01*
X217621Y-101443D01*
X217676Y-101484D01*
X217723Y-101529D01*
X217765Y-101572D01*
X217798Y-101607D01*
X217824Y-101639D01*
X217847Y-101664D01*
X217859Y-101686D01*
X217868Y-101695D01*
X217872Y-101703D01*
X217911Y-101776D01*
X217944Y-101847D01*
X217965Y-101921D01*
X217985Y-101994D01*
X217994Y-102064D01*
X218003Y-102134D01*
X218008Y-102258D01*
X218000Y-102366D01*
X217992Y-102412D01*
X217985Y-102453D01*
X217982Y-102483D01*
X217969Y-102527D01*
X217939Y-102604D01*
X217910Y-102681D01*
X217871Y-102748D01*
X217826Y-102814D01*
X217738Y-102922D01*
X217644Y-103009D01*
X217562Y-103076D01*
X217524Y-103101D01*
X217493Y-103122D01*
X217464Y-103138D01*
X217442Y-103149D01*
X217435Y-103153D01*
X217427Y-103157D01*
X217351Y-103189D01*
X217264Y-103211D01*
X217179Y-103228D01*
X217092Y-103232D01*
X216919Y-103240D01*
X216752Y-103226D01*
X216676Y-103215D01*
X216607Y-103200D01*
X216549Y-103189D01*
X216492Y-103177D01*
X216451Y-103171D01*
X216417Y-103160D01*
X216395Y-103154D01*
X216389Y-103152D01*
X216273Y-103110D01*
X216169Y-103072D01*
X216073Y-103025D01*
X215983Y-102979D01*
X215904Y-102936D01*
X215835Y-102884D01*
X215769Y-102840D01*
X215716Y-102793D01*
X215667Y-102753D01*
X215631Y-102712D01*
X215593Y-102676D01*
X215564Y-102649D01*
X215549Y-102620D01*
X215535Y-102603D01*
X215526Y-102594D01*
X215522Y-102587D01*
X215483Y-102514D01*
X215450Y-102443D01*
X215429Y-102369D01*
X215409Y-102295D01*
X215394Y-102224D01*
X215391Y-102155D01*
X215388Y-102026D01*
X215396Y-101918D01*
X215404Y-101872D01*
X215410Y-101831D01*
X215415Y-101796D01*
X215429Y-101751D01*
X215460Y-101669D01*
X215490Y-101592D01*
X215573Y-101459D01*
X215663Y-101345D01*
X215750Y-101262D01*
X215791Y-101226D01*
X215831Y-101195D01*
X215869Y-101170D01*
X215900Y-101149D01*
X215930Y-101133D01*
X215952Y-101122D01*
X215959Y-101118D01*
X215966Y-101114D01*
X216043Y-101082D01*
X216124Y-101058D01*
X216207Y-101047D01*
X216296Y-101037D01*
X216467Y-101035D01*
X216629Y-101047D01*
D02*
G37*
G36*
X211776Y-114998D02*
X211812Y-115002D01*
X211847Y-115007D01*
X211869Y-115014D01*
X211875Y-115016D01*
X211935Y-115040D01*
X211993Y-115070D01*
X212033Y-115101D01*
X212070Y-115137D01*
X212097Y-115169D01*
X212115Y-115193D01*
X212128Y-115209D01*
X212132Y-115217D01*
X212152Y-115271D01*
X212172Y-115326D01*
X212178Y-115384D01*
X212180Y-115439D01*
X212179Y-115482D01*
X212174Y-115517D01*
X212173Y-115541D01*
X212163Y-115575D01*
X212158Y-115610D01*
X212109Y-115772D01*
X212085Y-115869D01*
X211868Y-116579D01*
X211018Y-116320D01*
X211245Y-115576D01*
X211268Y-115521D01*
X211309Y-115387D01*
X211325Y-115355D01*
X211344Y-115294D01*
X211356Y-115273D01*
X211358Y-115267D01*
X211389Y-115204D01*
X211423Y-115153D01*
X211459Y-115115D01*
X211494Y-115083D01*
X211526Y-115056D01*
X211550Y-115039D01*
X211564Y-115031D01*
X211572Y-115027D01*
X211627Y-115007D01*
X211678Y-114998D01*
X211728Y-114995D01*
X211776Y-114998D01*
D02*
G37*
G36*
X213313Y-115333D02*
X213362Y-115336D01*
X213403Y-115342D01*
X213432Y-115345D01*
X213455Y-115352D01*
X213460Y-115353D01*
X213526Y-115380D01*
X213584Y-115410D01*
X213634Y-115443D01*
X213674Y-115474D01*
X213701Y-115506D01*
X213724Y-115532D01*
X213737Y-115548D01*
X213741Y-115556D01*
X213768Y-115607D01*
X213788Y-115662D01*
X213795Y-115719D01*
X213805Y-115765D01*
X213805Y-115807D01*
X213807Y-115839D01*
X213806Y-115863D01*
X213804Y-115868D01*
X213803Y-115893D01*
X213794Y-115921D01*
X213778Y-115995D01*
X213758Y-116081D01*
X213730Y-116170D01*
X213712Y-116250D01*
X213462Y-117067D01*
X212478Y-116766D01*
X212712Y-115999D01*
X212742Y-115923D01*
X212768Y-115857D01*
X212787Y-115796D01*
X212807Y-115747D01*
X212828Y-115699D01*
X212846Y-115661D01*
X212862Y-115629D01*
X212878Y-115597D01*
X212895Y-115560D01*
X212915Y-115535D01*
X212917Y-115530D01*
X212956Y-115481D01*
X212992Y-115443D01*
X213032Y-115412D01*
X213071Y-115387D01*
X213105Y-115373D01*
X213133Y-115364D01*
X213147Y-115356D01*
X213155Y-115352D01*
X213208Y-115338D01*
X213265Y-115331D01*
X213313Y-115333D01*
D02*
G37*
%LPC*%
G36*
X142884Y3222D02*
D01*
X142147Y2789D01*
Y2239D01*
X141808D01*
D01*
Y-616D01*
X143446D01*
X142861D01*
X142978Y-610D01*
X143089Y-599D01*
X143188Y-581D01*
X143276Y-563D01*
X143346Y-546D01*
X143399Y-528D01*
X143434Y-517D01*
X143446Y-511D01*
X143381Y63D01*
X143311Y39D01*
X143253Y22D01*
X143200Y10D01*
X143159Y4D01*
X143124Y-2D01*
X143100Y-8D01*
X143083D01*
X143036Y-2D01*
X142995Y10D01*
X142972Y22D01*
X142960Y27D01*
X142931Y57D01*
X142907Y86D01*
X142896Y109D01*
Y121D01*
Y133D01*
X142890Y156D01*
Y209D01*
Y273D01*
X142884Y343D01*
Y408D01*
Y466D01*
Y490D01*
Y507D01*
Y513D01*
Y519D01*
Y1654D01*
X143387D01*
Y2239D01*
X142884D01*
Y3222D01*
D02*
G37*
G36*
X141462Y2297D02*
D01*
Y314D01*
X141451Y443D01*
X141427Y548D01*
X141386Y648D01*
X141345Y724D01*
X141305Y782D01*
X141263Y829D01*
X141240Y852D01*
X141228Y864D01*
X141182Y899D01*
X141123Y934D01*
X141000Y999D01*
X140866Y1057D01*
X140731Y1104D01*
X140603Y1139D01*
X140550Y1156D01*
X140497Y1168D01*
X140462Y1180D01*
X140427Y1186D01*
X140409Y1192D01*
X140404D01*
X140298Y1215D01*
X140205Y1238D01*
X140123Y1262D01*
X140053Y1279D01*
X139988Y1303D01*
X139930Y1320D01*
X139883Y1332D01*
X139842Y1350D01*
X139807Y1361D01*
X139784Y1373D01*
X139743Y1390D01*
X139725Y1396D01*
X139719Y1402D01*
X139696Y1426D01*
X139678Y1443D01*
X139661Y1490D01*
X139649Y1525D01*
Y1531D01*
Y1537D01*
X139655Y1572D01*
X139661Y1601D01*
X139690Y1648D01*
X139719Y1677D01*
X139725Y1689D01*
X139731D01*
X139784Y1718D01*
X139848Y1736D01*
X139982Y1759D01*
X140047Y1765D01*
X140099Y1771D01*
X140146D01*
X140228Y1765D01*
X140298Y1759D01*
X140357Y1742D01*
X140409Y1730D01*
X140445Y1712D01*
X140474Y1695D01*
X140491Y1689D01*
X140497Y1683D01*
X140544Y1648D01*
X140579Y1607D01*
X140608Y1566D01*
X140632Y1525D01*
X140649Y1490D01*
X140661Y1461D01*
X140673Y1443D01*
Y1437D01*
X141369Y1566D01*
X141322Y1695D01*
X141263Y1800D01*
X141199Y1894D01*
X141135Y1970D01*
X141076Y2034D01*
X141030Y2075D01*
X140994Y2104D01*
X140989Y2110D01*
X140983D01*
X140930Y2145D01*
X140866Y2174D01*
X140737Y2221D01*
X140591Y2251D01*
X140456Y2274D01*
X140333Y2286D01*
X140275Y2291D01*
X140228Y2297D01*
X138871D01*
X140023D01*
X139924Y2286D01*
X139830Y2274D01*
X139743Y2256D01*
X139661Y2239D01*
X139590Y2215D01*
X139520Y2198D01*
X139462Y2174D01*
X139415Y2151D01*
X139368Y2128D01*
X139333Y2104D01*
X139298Y2087D01*
X139275Y2069D01*
X139257Y2057D01*
X139251Y2052D01*
X139245Y2046D01*
X139199Y1999D01*
X139152Y1952D01*
X139082Y1847D01*
X139035Y1747D01*
X139000Y1648D01*
X138982Y1566D01*
X138970Y1496D01*
X138964Y1472D01*
Y1455D01*
Y1443D01*
Y1437D01*
X138970Y1367D01*
X138976Y1297D01*
X139017Y1174D01*
X139070Y1063D01*
X139128Y975D01*
X139187Y905D01*
X139239Y852D01*
X139280Y823D01*
X139286Y811D01*
X139292D01*
X139345Y782D01*
X139409Y747D01*
X139485Y718D01*
X139567Y689D01*
X139661Y653D01*
X139754Y624D01*
X139947Y571D01*
X140041Y548D01*
X140129Y525D01*
X140210Y507D01*
X140281Y490D01*
X140339Y472D01*
X140380Y466D01*
X140409Y454D01*
X140421D01*
X140486Y437D01*
X140544Y419D01*
X140585Y402D01*
X140620Y390D01*
X140643Y373D01*
X140661Y367D01*
X140673Y355D01*
X140702Y308D01*
X140719Y267D01*
X140725Y232D01*
Y221D01*
Y215D01*
X140719Y174D01*
X140708Y133D01*
X140679Y68D01*
X140655Y45D01*
X140643Y27D01*
X140632Y22D01*
X140626Y16D01*
X140567Y-19D01*
X140497Y-43D01*
X140427Y-60D01*
X140357Y-72D01*
X140298Y-78D01*
X140246Y-84D01*
X140199D01*
X140105Y-78D01*
X140029Y-66D01*
X139959Y-49D01*
X139901Y-31D01*
X139854Y-13D01*
X139824Y4D01*
X139801Y16D01*
X139795Y22D01*
X139748Y68D01*
X139707Y121D01*
X139672Y174D01*
X139649Y226D01*
X139631Y273D01*
X139620Y314D01*
X139608Y338D01*
Y349D01*
X138871Y238D01*
X138918Y98D01*
X138982Y-25D01*
X139052Y-136D01*
X139122Y-224D01*
X139187Y-294D01*
X139245Y-347D01*
X139269Y-365D01*
X139286Y-376D01*
X139292Y-388D01*
X139298D01*
X139433Y-464D01*
X139579Y-522D01*
X139731Y-557D01*
X139871Y-587D01*
X139941Y-599D01*
X140000Y-604D01*
X140058Y-610D01*
X140105D01*
X140146Y-616D01*
X141462D01*
Y2297D01*
D02*
G37*
G36*
X131927Y3298D02*
Y566D01*
X131921Y689D01*
X131898Y800D01*
X131868Y893D01*
X131833Y981D01*
X131792Y1051D01*
X131763Y1104D01*
X131740Y1133D01*
X131734Y1145D01*
X131658Y1233D01*
X131570Y1309D01*
X131482Y1367D01*
X131395Y1414D01*
X131318Y1449D01*
X131254Y1478D01*
X131231Y1484D01*
X131213Y1490D01*
X131202Y1496D01*
X131196D01*
X131283Y1543D01*
X131365Y1595D01*
X131430Y1648D01*
X131488Y1706D01*
X131535Y1753D01*
X131564Y1794D01*
X131588Y1818D01*
X131594Y1829D01*
X131640Y1917D01*
X131675Y2005D01*
X131705Y2087D01*
X131722Y2163D01*
X131734Y2227D01*
X131740Y2280D01*
Y2315D01*
Y2327D01*
X131734Y2420D01*
X131722Y2502D01*
X131699Y2578D01*
X131681Y2648D01*
X131658Y2701D01*
X131634Y2742D01*
X131623Y2765D01*
X131617Y2777D01*
X131570Y2847D01*
X131523Y2912D01*
X131471Y2964D01*
X131430Y3011D01*
X131389Y3052D01*
X131354Y3075D01*
X131330Y3093D01*
X131324Y3099D01*
X131254Y3140D01*
X131190Y3175D01*
X131120Y3204D01*
X131055Y3222D01*
X131003Y3239D01*
X130962Y3251D01*
X130932Y3257D01*
X130921D01*
X130827Y3268D01*
X130722Y3280D01*
X130611Y3286D01*
X130499Y3292D01*
X130400Y3298D01*
X128709D01*
Y-546D01*
X130377D01*
X130476Y-540D01*
X130634D01*
X130704Y-534D01*
X130810D01*
X130851Y-528D01*
X130909D01*
X130927Y-522D01*
X130950D01*
X131061Y-505D01*
X131161Y-482D01*
X131248Y-452D01*
X131324Y-417D01*
X131389Y-388D01*
X131436Y-365D01*
X131459Y-347D01*
X131471Y-341D01*
X131547Y-283D01*
X131611Y-212D01*
X131669Y-148D01*
X131716Y-84D01*
X131751Y-31D01*
X131781Y16D01*
X131798Y45D01*
X131804Y57D01*
X131845Y150D01*
X131874Y238D01*
X131898Y326D01*
X131909Y402D01*
X131921Y472D01*
X131927Y519D01*
Y3298D01*
D02*
G37*
G36*
X121590Y3239D02*
X119472D01*
X119098Y1238D01*
X119689Y1156D01*
X119736Y1203D01*
X119788Y1250D01*
X119882Y1320D01*
X119981Y1367D01*
X120069Y1402D01*
X120145Y1426D01*
X120209Y1431D01*
X120233Y1437D01*
X120262D01*
X120350Y1431D01*
X120432Y1408D01*
X120502Y1379D01*
X120560Y1350D01*
X120607Y1314D01*
X120642Y1285D01*
X120666Y1262D01*
X120671Y1256D01*
X120724Y1186D01*
X120765Y1098D01*
X120794Y1010D01*
X120818Y922D01*
X120829Y847D01*
X120835Y782D01*
Y759D01*
Y741D01*
Y729D01*
Y724D01*
X120829Y595D01*
X120812Y478D01*
X120783Y384D01*
X120753Y302D01*
X120724Y244D01*
X120695Y197D01*
X120677Y174D01*
X120671Y162D01*
X120607Y98D01*
X120543Y57D01*
X120478Y22D01*
X120414Y-2D01*
X120361Y-13D01*
X120320Y-19D01*
X120291Y-25D01*
X120280D01*
X120209Y-19D01*
X120139Y-2D01*
X120081Y22D01*
X120028Y45D01*
X119981Y68D01*
X119952Y92D01*
X119929Y109D01*
X119923Y115D01*
X119870Y174D01*
X119829Y238D01*
X119800Y308D01*
X119776Y367D01*
X119759Y425D01*
X119747Y472D01*
X119741Y501D01*
Y513D01*
X119010Y437D01*
X119028Y349D01*
X119045Y267D01*
X119098Y109D01*
X119162Y-19D01*
X119232Y-131D01*
X119267Y-177D01*
X119297Y-218D01*
X119326Y-253D01*
X119355Y-283D01*
X119379Y-306D01*
X119396Y-323D01*
X119402Y-329D01*
X119408Y-335D01*
X119472Y-382D01*
X119543Y-429D01*
X119683Y-499D01*
X119829Y-546D01*
X119964Y-581D01*
X120028Y-593D01*
X120087Y-599D01*
X120139Y-610D01*
X120186D01*
X120221Y-616D01*
X120274D01*
X120397Y-610D01*
X120508Y-593D01*
X120619Y-569D01*
X120718Y-540D01*
X120812Y-499D01*
X120894Y-458D01*
X120976Y-411D01*
X121046Y-365D01*
X121104Y-318D01*
X121163Y-271D01*
X121210Y-230D01*
X121245Y-189D01*
X121274Y-160D01*
X121298Y-136D01*
X121309Y-119D01*
X121315Y-113D01*
X121362Y-43D01*
X121409Y33D01*
X121473Y180D01*
X121526Y320D01*
X121555Y454D01*
X121567Y513D01*
X121578Y566D01*
X121584Y612D01*
Y653D01*
X121590Y689D01*
Y735D01*
X121584Y841D01*
X121572Y940D01*
X121561Y1034D01*
X121537Y1121D01*
X121508Y1203D01*
X121479Y1279D01*
X121450Y1350D01*
X121420Y1414D01*
X121385Y1472D01*
X121356Y1525D01*
X121327Y1566D01*
X121298Y1601D01*
X121274Y1630D01*
X121262Y1648D01*
X121251Y1660D01*
X121245Y1665D01*
X121180Y1730D01*
X121110Y1782D01*
X121040Y1829D01*
X120970Y1870D01*
X120900Y1905D01*
X120835Y1935D01*
X120701Y1976D01*
X120642Y1993D01*
X120590Y2005D01*
X120537Y2011D01*
X120496Y2017D01*
X120461Y2022D01*
X120414D01*
X120320Y2017D01*
X120227Y2005D01*
X120139Y1981D01*
X120069Y1964D01*
X120005Y1940D01*
X119952Y1917D01*
X119923Y1905D01*
X119911Y1900D01*
X120028Y2549D01*
X121420D01*
Y3239D01*
X121590D01*
D01*
D02*
G37*
G36*
X138543Y2297D02*
X135683D01*
D01*
X137110D01*
X136958Y2291D01*
X136823Y2268D01*
X136695Y2239D01*
X136583Y2210D01*
X136496Y2174D01*
X136455Y2157D01*
X136426Y2145D01*
X136402Y2134D01*
X136385Y2122D01*
X136373Y2116D01*
X136367D01*
X136250Y2040D01*
X136151Y1958D01*
X136063Y1870D01*
X135993Y1782D01*
X135934Y1706D01*
X135893Y1648D01*
X135876Y1625D01*
X135864Y1607D01*
X135858Y1595D01*
Y1589D01*
X135800Y1461D01*
X135759Y1332D01*
X135724Y1215D01*
X135706Y1104D01*
X135694Y1010D01*
X135688Y969D01*
Y940D01*
X135683Y911D01*
Y876D01*
X135688Y706D01*
X135712Y548D01*
X135741Y408D01*
X135770Y291D01*
X135788Y238D01*
X135805Y191D01*
X135817Y156D01*
X135829Y121D01*
X135841Y98D01*
X135852Y80D01*
X135858Y68D01*
Y63D01*
X135934Y-54D01*
X136016Y-160D01*
X136104Y-247D01*
X136192Y-318D01*
X136268Y-370D01*
X136326Y-411D01*
X136349Y-429D01*
X136367Y-440D01*
X136379Y-446D01*
X136385D01*
X136513Y-505D01*
X136642Y-546D01*
X136765Y-575D01*
X136876Y-593D01*
X136970Y-604D01*
X137011Y-610D01*
X137046Y-616D01*
X137110D01*
X137221Y-610D01*
X137332Y-599D01*
X137438Y-575D01*
X137531Y-552D01*
X137625Y-522D01*
X137707Y-487D01*
X137783Y-446D01*
X137853Y-405D01*
X137917Y-370D01*
X137976Y-329D01*
X138023Y-294D01*
X138064Y-265D01*
X138093Y-242D01*
X138116Y-218D01*
X138128Y-206D01*
X138134Y-201D01*
X138204Y-119D01*
X138268Y-37D01*
X138321Y51D01*
X138374Y139D01*
X138409Y226D01*
X138444Y314D01*
X138473Y396D01*
X138491Y478D01*
X138508Y554D01*
X138520Y624D01*
X138532Y689D01*
X138537Y741D01*
X138543Y788D01*
Y-546D01*
Y2297D01*
D02*
G37*
G36*
X125334Y3298D02*
X121754D01*
X123128Y-546D01*
X123965D01*
X125334Y3298D01*
D02*
G37*
G36*
X135267Y2297D02*
X132407D01*
D01*
X133834D01*
X133682Y2291D01*
X133547Y2268D01*
X133419Y2239D01*
X133308Y2210D01*
X133220Y2174D01*
X133179Y2157D01*
X133150Y2145D01*
X133126Y2134D01*
X133109Y2122D01*
X133097Y2116D01*
X133091D01*
X132974Y2040D01*
X132875Y1958D01*
X132787Y1870D01*
X132717Y1782D01*
X132658Y1706D01*
X132617Y1648D01*
X132600Y1625D01*
X132588Y1607D01*
X132582Y1595D01*
Y1589D01*
X132524Y1461D01*
X132483Y1332D01*
X132448Y1215D01*
X132430Y1104D01*
X132418Y1010D01*
X132413Y969D01*
Y940D01*
X132407Y911D01*
Y876D01*
X132413Y706D01*
X132436Y548D01*
X132465Y408D01*
X132494Y291D01*
X132512Y238D01*
X132529Y191D01*
X132541Y156D01*
X132553Y121D01*
X132565Y98D01*
X132576Y80D01*
X132582Y68D01*
Y63D01*
X132658Y-54D01*
X132740Y-160D01*
X132828Y-247D01*
X132916Y-318D01*
X132992Y-370D01*
X133050Y-411D01*
X133073Y-429D01*
X133091Y-440D01*
X133103Y-446D01*
X133109D01*
X133237Y-505D01*
X133366Y-546D01*
X133489Y-575D01*
X133600Y-593D01*
X133694Y-604D01*
X133735Y-610D01*
X133770Y-616D01*
X133834D01*
X133945Y-610D01*
X134056Y-599D01*
X134162Y-575D01*
X134255Y-552D01*
X134349Y-522D01*
X134431Y-487D01*
X134507Y-446D01*
X134577Y-405D01*
X134641Y-370D01*
X134700Y-329D01*
X134747Y-294D01*
X134788Y-265D01*
X134817Y-242D01*
X134840Y-218D01*
X134852Y-206D01*
X134858Y-201D01*
X134928Y-119D01*
X134992Y-37D01*
X135045Y51D01*
X135098Y139D01*
X135133Y226D01*
X135168Y314D01*
X135197Y396D01*
X135215Y478D01*
X135232Y554D01*
X135244Y624D01*
X135256Y689D01*
X135261Y741D01*
X135267Y788D01*
Y-575D01*
Y2297D01*
D02*
G37*
G36*
X128341Y-546D02*
Y-1125D01*
X125281D01*
Y-546D01*
X128341D01*
X125334D01*
X124294D01*
X125281D01*
Y-1605D01*
X128341D01*
Y-546D01*
D02*
G37*
%LPD*%
G36*
X142147Y431D02*
Y361D01*
Y297D01*
X142153Y185D01*
Y92D01*
X142159Y22D01*
X142164Y-25D01*
Y-60D01*
X142170Y-84D01*
Y-90D01*
X142182Y-154D01*
X142194Y-212D01*
X142211Y-259D01*
X142229Y-306D01*
X142246Y-335D01*
X142258Y-365D01*
X142264Y-376D01*
X142270Y-382D01*
X142299Y-417D01*
X142340Y-452D01*
X142416Y-505D01*
X142451Y-528D01*
X142480Y-540D01*
X142498Y-546D01*
X142504Y-552D01*
X142562Y-575D01*
X142627Y-587D01*
X142685Y-599D01*
X142744Y-610D01*
X142790D01*
X142825Y-616D01*
X141808D01*
Y1654D01*
X142147D01*
Y431D01*
D02*
G37*
G36*
X141462Y-616D02*
X140199D01*
X140310Y-610D01*
X140421Y-604D01*
X140521Y-593D01*
X140608Y-575D01*
X140696Y-552D01*
X140772Y-528D01*
X140842Y-505D01*
X140907Y-476D01*
X140959Y-452D01*
X141006Y-429D01*
X141047Y-405D01*
X141082Y-382D01*
X141106Y-365D01*
X141129Y-353D01*
X141135Y-341D01*
X141141D01*
X141199Y-288D01*
X141246Y-236D01*
X141293Y-177D01*
X141328Y-125D01*
X141386Y-13D01*
X141421Y92D01*
X141445Y180D01*
X141451Y221D01*
X141457Y250D01*
X141462Y279D01*
Y-616D01*
D02*
G37*
G36*
X130324Y2654D02*
X130464D01*
X130499Y2648D01*
X130564D01*
X130587Y2642D01*
X130593D01*
X130663Y2631D01*
X130722Y2613D01*
X130769Y2590D01*
X130810Y2566D01*
X130845Y2543D01*
X130868Y2525D01*
X130880Y2514D01*
X130886Y2508D01*
X130921Y2461D01*
X130944Y2414D01*
X130962Y2368D01*
X130973Y2321D01*
X130979Y2286D01*
X130985Y2251D01*
Y2227D01*
Y2221D01*
X130979Y2157D01*
X130967Y2093D01*
X130950Y2046D01*
X130927Y1999D01*
X130903Y1964D01*
X130886Y1940D01*
X130874Y1923D01*
X130868Y1917D01*
X130821Y1882D01*
X130774Y1847D01*
X130722Y1823D01*
X130669Y1806D01*
X130628Y1794D01*
X130593Y1788D01*
X130570Y1782D01*
X130535D01*
X130499Y1777D01*
X130330D01*
X130230Y1771D01*
X129488D01*
Y2660D01*
X130265D01*
X130324Y2654D01*
D02*
G37*
G36*
X130371Y1127D02*
X130441Y1121D01*
X130505D01*
X130558Y1116D01*
X130611Y1110D01*
X130652Y1104D01*
X130687Y1098D01*
X130722Y1092D01*
X130763Y1086D01*
X130792Y1075D01*
X130798D01*
X130856Y1051D01*
X130903Y1028D01*
X130944Y999D01*
X130979Y969D01*
X131003Y940D01*
X131020Y917D01*
X131032Y905D01*
X131038Y899D01*
X131067Y852D01*
X131090Y800D01*
X131102Y753D01*
X131114Y706D01*
X131120Y665D01*
X131125Y636D01*
Y612D01*
Y607D01*
X131120Y536D01*
X131108Y472D01*
X131090Y414D01*
X131073Y367D01*
X131049Y332D01*
X131032Y302D01*
X131020Y285D01*
X131014Y279D01*
X130973Y238D01*
X130927Y203D01*
X130874Y180D01*
X130833Y156D01*
X130792Y144D01*
X130763Y133D01*
X130739Y127D01*
X130734D01*
X130710Y121D01*
X130681D01*
X130605Y115D01*
X130517Y109D01*
X130423D01*
X130342Y103D01*
X129488D01*
Y1133D01*
X130289D01*
X130371Y1127D01*
D02*
G37*
G36*
X138543Y847D02*
X138537Y963D01*
X138526Y1069D01*
X138508Y1174D01*
X138479Y1273D01*
X138450Y1361D01*
X138415Y1449D01*
X138380Y1525D01*
X138344Y1601D01*
X138303Y1665D01*
X138268Y1718D01*
X138233Y1771D01*
X138204Y1806D01*
X138175Y1841D01*
X138157Y1864D01*
X138145Y1876D01*
X138140Y1882D01*
X138064Y1958D01*
X137982Y2017D01*
X137894Y2075D01*
X137806Y2122D01*
X137724Y2163D01*
X137636Y2198D01*
X137555Y2221D01*
X137473Y2245D01*
X137397Y2262D01*
X137332Y2274D01*
X137268Y2286D01*
X137215Y2291D01*
X137169Y2297D01*
X138543D01*
Y847D01*
D02*
G37*
G36*
X137215Y1683D02*
X137309Y1660D01*
X137391Y1625D01*
X137455Y1584D01*
X137514Y1543D01*
X137555Y1508D01*
X137584Y1484D01*
X137590Y1472D01*
X137654Y1379D01*
X137707Y1279D01*
X137742Y1174D01*
X137765Y1075D01*
X137777Y981D01*
X137783Y940D01*
X137789Y911D01*
Y882D01*
Y858D01*
Y847D01*
Y841D01*
X137783Y694D01*
X137759Y566D01*
X137724Y454D01*
X137689Y367D01*
X137654Y297D01*
X137619Y244D01*
X137596Y215D01*
X137590Y203D01*
X137514Y133D01*
X137432Y80D01*
X137356Y39D01*
X137280Y16D01*
X137209Y-2D01*
X137157Y-8D01*
X137122Y-13D01*
X137110D01*
X137005Y-2D01*
X136917Y22D01*
X136835Y57D01*
X136765Y98D01*
X136706Y133D01*
X136665Y168D01*
X136642Y191D01*
X136630Y203D01*
X136566Y297D01*
X136519Y396D01*
X136484Y501D01*
X136461Y607D01*
X136449Y700D01*
X136443Y735D01*
Y770D01*
X136437Y800D01*
Y823D01*
Y835D01*
Y841D01*
X136443Y987D01*
X136467Y1110D01*
X136496Y1221D01*
X136537Y1309D01*
X136572Y1379D01*
X136601Y1431D01*
X136625Y1461D01*
X136630Y1472D01*
X136706Y1548D01*
X136788Y1601D01*
X136864Y1642D01*
X136940Y1665D01*
X137011Y1683D01*
X137063Y1689D01*
X137098Y1695D01*
X137110D01*
X137215Y1683D01*
D02*
G37*
G36*
X123567Y454D02*
X122590Y3298D01*
X124503D01*
X123567Y454D01*
D02*
G37*
G36*
X135267Y847D02*
X135261Y963D01*
X135250Y1069D01*
X135232Y1174D01*
X135203Y1273D01*
X135174Y1361D01*
X135139Y1449D01*
X135103Y1525D01*
X135068Y1601D01*
X135027Y1665D01*
X134992Y1718D01*
X134957Y1771D01*
X134928Y1806D01*
X134899Y1841D01*
X134881Y1864D01*
X134870Y1876D01*
X134864Y1882D01*
X134788Y1958D01*
X134706Y2017D01*
X134618Y2075D01*
X134530Y2122D01*
X134448Y2163D01*
X134361Y2198D01*
X134279Y2221D01*
X134197Y2245D01*
X134121Y2262D01*
X134056Y2274D01*
X133992Y2286D01*
X133939Y2291D01*
X133893Y2297D01*
X135267D01*
Y847D01*
D02*
G37*
G36*
X133939Y1683D02*
X134033Y1660D01*
X134115Y1625D01*
X134179Y1584D01*
X134238Y1543D01*
X134279Y1508D01*
X134308Y1484D01*
X134314Y1472D01*
X134378Y1379D01*
X134431Y1279D01*
X134466Y1174D01*
X134489Y1075D01*
X134501Y981D01*
X134507Y940D01*
X134513Y911D01*
Y882D01*
Y858D01*
Y847D01*
Y841D01*
X134507Y694D01*
X134483Y566D01*
X134448Y454D01*
X134413Y367D01*
X134378Y297D01*
X134343Y244D01*
X134320Y215D01*
X134314Y203D01*
X134238Y133D01*
X134156Y80D01*
X134080Y39D01*
X134004Y16D01*
X133933Y-2D01*
X133881Y-8D01*
X133846Y-13D01*
X133834D01*
X133729Y-2D01*
X133641Y22D01*
X133559Y57D01*
X133489Y98D01*
X133430Y133D01*
X133389Y168D01*
X133366Y191D01*
X133354Y203D01*
X133290Y297D01*
X133243Y396D01*
X133208Y501D01*
X133185Y607D01*
X133173Y700D01*
X133167Y735D01*
Y770D01*
X133161Y800D01*
Y823D01*
Y835D01*
Y841D01*
X133167Y987D01*
X133191Y1110D01*
X133220Y1221D01*
X133261Y1309D01*
X133296Y1379D01*
X133325Y1431D01*
X133349Y1461D01*
X133354Y1472D01*
X133430Y1548D01*
X133512Y1601D01*
X133588Y1642D01*
X133664Y1665D01*
X133735Y1683D01*
X133787Y1689D01*
X133822Y1695D01*
X133834D01*
X133939Y1683D01*
D02*
G37*
%LPC*%
G36*
X116976Y-157722D02*
X116906D01*
X116707Y-157728D01*
X116532Y-157751D01*
X116450Y-157769D01*
X116374Y-157781D01*
X116304Y-157798D01*
X116239Y-157816D01*
X116187Y-157839D01*
X116134Y-157857D01*
X116093Y-157868D01*
X116052Y-157886D01*
X116023Y-157897D01*
X116005Y-157909D01*
X115994Y-157915D01*
X115988D01*
X115818Y-158020D01*
X115666Y-158132D01*
X115543Y-158254D01*
X115438Y-158371D01*
X115356Y-158471D01*
X115327Y-158518D01*
X115297Y-158558D01*
X115280Y-158588D01*
X115262Y-158611D01*
X115257Y-158629D01*
X115251Y-158635D01*
X115169Y-158816D01*
X115110Y-158997D01*
X115064Y-159179D01*
X115034Y-159343D01*
X115028Y-159418D01*
X115017Y-159483D01*
X115011Y-159547D01*
Y-159600D01*
X115005Y-159641D01*
Y-157722D01*
D01*
D01*
Y-161700D01*
D01*
Y-159699D01*
X115017Y-159904D01*
X115040Y-160097D01*
X115075Y-160267D01*
X115093Y-160349D01*
X115116Y-160425D01*
X115140Y-160489D01*
X115157Y-160548D01*
X115175Y-160600D01*
X115192Y-160647D01*
X115210Y-160682D01*
X115216Y-160705D01*
X115227Y-160723D01*
Y-160729D01*
X115321Y-160893D01*
X115426Y-161039D01*
X115537Y-161162D01*
X115643Y-161261D01*
X115742Y-161343D01*
X115783Y-161378D01*
X115824Y-161402D01*
X115853Y-161419D01*
X115877Y-161437D01*
X115888Y-161443D01*
X115894Y-161449D01*
X115982Y-161495D01*
X116070Y-161530D01*
X116251Y-161595D01*
X116427Y-161636D01*
X116590Y-161671D01*
X116666Y-161677D01*
X116731Y-161688D01*
X116795Y-161694D01*
X116848D01*
X116889Y-161700D01*
X118591D01*
X116947D01*
X117123Y-161694D01*
X117292Y-161671D01*
X117450Y-161642D01*
X117591Y-161612D01*
X117655Y-161595D01*
X117714Y-161577D01*
X117760Y-161565D01*
X117801Y-161554D01*
X117836Y-161542D01*
X117860Y-161530D01*
X117877Y-161524D01*
X117883D01*
X118047Y-161454D01*
X118187Y-161384D01*
X118310Y-161314D01*
X118410Y-161249D01*
X118492Y-161191D01*
X118544Y-161150D01*
X118579Y-161121D01*
X118591Y-161109D01*
Y-159571D01*
X116924D01*
Y-160220D01*
X117807D01*
Y-160711D01*
X117737Y-160764D01*
X117667Y-160805D01*
X117597Y-160846D01*
X117532Y-160881D01*
X117474Y-160910D01*
X117427Y-160928D01*
X117398Y-160940D01*
X117386Y-160945D01*
X117292Y-160975D01*
X117205Y-160998D01*
X117123Y-161016D01*
X117052Y-161027D01*
X116988Y-161033D01*
X116941Y-161039D01*
X116900D01*
X116813Y-161033D01*
X116725Y-161021D01*
X116643Y-161010D01*
X116567Y-160986D01*
X116432Y-160934D01*
X116321Y-160869D01*
X116269Y-160840D01*
X116228Y-160805D01*
X116193Y-160776D01*
X116157Y-160752D01*
X116134Y-160729D01*
X116116Y-160711D01*
X116111Y-160705D01*
X116105Y-160700D01*
X116052Y-160629D01*
X116005Y-160553D01*
X115964Y-160477D01*
X115935Y-160396D01*
X115877Y-160220D01*
X115842Y-160056D01*
X115830Y-159974D01*
X115824Y-159904D01*
X115818Y-159840D01*
X115812Y-159781D01*
X115806Y-159734D01*
Y-159699D01*
Y-159676D01*
Y-159670D01*
X115812Y-159553D01*
X115818Y-159448D01*
X115836Y-159343D01*
X115853Y-159249D01*
X115877Y-159167D01*
X115900Y-159085D01*
X115924Y-159015D01*
X115953Y-158950D01*
X115982Y-158892D01*
X116005Y-158845D01*
X116029Y-158804D01*
X116052Y-158769D01*
X116070Y-158746D01*
X116087Y-158728D01*
X116093Y-158716D01*
X116099Y-158711D01*
X116157Y-158652D01*
X116222Y-158599D01*
X116286Y-158558D01*
X116350Y-158523D01*
X116485Y-158465D01*
X116614Y-158424D01*
X116731Y-158401D01*
X116778Y-158395D01*
X116824Y-158389D01*
X116859Y-158383D01*
X116906D01*
X117023Y-158389D01*
X117134Y-158406D01*
X117228Y-158436D01*
X117310Y-158465D01*
X117374Y-158494D01*
X117421Y-158523D01*
X117450Y-158541D01*
X117462Y-158547D01*
X117538Y-158611D01*
X117602Y-158687D01*
X117655Y-158757D01*
X117696Y-158828D01*
X117731Y-158892D01*
X117749Y-158945D01*
X117760Y-158980D01*
X117766Y-158986D01*
Y-158992D01*
X118538Y-158845D01*
X118515Y-158752D01*
X118480Y-158658D01*
X118410Y-158500D01*
X118369Y-158424D01*
X118322Y-158360D01*
X118281Y-158295D01*
X118234Y-158243D01*
X118193Y-158190D01*
X118152Y-158149D01*
X118117Y-158114D01*
X118082Y-158079D01*
X118059Y-158055D01*
X118035Y-158038D01*
X118024Y-158032D01*
X118018Y-158026D01*
X117942Y-157974D01*
X117854Y-157927D01*
X117766Y-157886D01*
X117678Y-157851D01*
X117491Y-157798D01*
X117316Y-157757D01*
X117228Y-157745D01*
X117152Y-157740D01*
X117082Y-157734D01*
X117023Y-157728D01*
X116976Y-157722D01*
D02*
G37*
G36*
X126395Y-157786D02*
X123183D01*
Y-161630D01*
X124634D01*
X124786Y-161624D01*
X124927Y-161618D01*
X125044Y-161606D01*
X125137Y-161589D01*
X125219Y-161577D01*
X125272Y-161565D01*
X125307Y-161560D01*
X125319Y-161554D01*
X125441Y-161507D01*
X125547Y-161460D01*
X125640Y-161407D01*
X125722Y-161355D01*
X125781Y-161314D01*
X125828Y-161279D01*
X125851Y-161249D01*
X125863Y-161244D01*
X125956Y-161138D01*
X126038Y-161027D01*
X126108Y-160916D01*
X126167Y-160805D01*
X126214Y-160711D01*
X126231Y-160670D01*
X126249Y-160635D01*
X126260Y-160606D01*
X126266Y-160583D01*
X126272Y-160571D01*
Y-160565D01*
X126313Y-160431D01*
X126342Y-160290D01*
X126366Y-160156D01*
X126377Y-160027D01*
X126389Y-159916D01*
Y-159869D01*
X126395Y-159828D01*
Y-159746D01*
X126389Y-159553D01*
X126377Y-159378D01*
X126354Y-159220D01*
X126342Y-159155D01*
X126331Y-159091D01*
X126319Y-159032D01*
X126307Y-158986D01*
X126295Y-158939D01*
X126284Y-158904D01*
X126278Y-158874D01*
X126272Y-158857D01*
X126266Y-158845D01*
Y-158839D01*
X126214Y-158705D01*
X126155Y-158588D01*
X126097Y-158483D01*
X126038Y-158389D01*
X125980Y-158319D01*
X125939Y-158266D01*
X125909Y-158231D01*
X125904Y-158219D01*
X125898D01*
X125804Y-158132D01*
X125705Y-158055D01*
X125611Y-157991D01*
X125523Y-157944D01*
X125441Y-157909D01*
X125383Y-157880D01*
X125359Y-157874D01*
X125342Y-157868D01*
X125330Y-157862D01*
X125324D01*
X125219Y-157839D01*
X125102Y-157816D01*
X124985Y-157804D01*
X124862Y-157798D01*
X124757Y-157792D01*
X124710Y-157786D01*
X126395D01*
D02*
G37*
G36*
X122364D02*
X119311D01*
Y-161630D01*
X120030D01*
Y-159108D01*
X121586Y-161630D01*
X122364D01*
Y-157786D01*
D02*
G37*
%LPD*%
G36*
X124540Y-158442D02*
X124605D01*
X124663Y-158447D01*
X124710D01*
X124757Y-158453D01*
X124798D01*
X124862Y-158465D01*
X124903Y-158471D01*
X124933Y-158477D01*
X124938D01*
X125014Y-158500D01*
X125085Y-158523D01*
X125149Y-158553D01*
X125196Y-158582D01*
X125237Y-158611D01*
X125272Y-158635D01*
X125289Y-158652D01*
X125295Y-158658D01*
X125348Y-158711D01*
X125389Y-158775D01*
X125424Y-158834D01*
X125459Y-158898D01*
X125482Y-158950D01*
X125500Y-158992D01*
X125506Y-159021D01*
X125512Y-159032D01*
X125541Y-159126D01*
X125558Y-159237D01*
X125576Y-159348D01*
X125582Y-159459D01*
X125588Y-159559D01*
X125593Y-159600D01*
Y-159635D01*
Y-159670D01*
Y-159694D01*
Y-159705D01*
Y-159711D01*
X125588Y-159869D01*
X125582Y-160009D01*
X125570Y-160132D01*
X125553Y-160232D01*
X125535Y-160314D01*
X125523Y-160372D01*
X125517Y-160390D01*
Y-160407D01*
X125512Y-160413D01*
Y-160419D01*
X125482Y-160507D01*
X125447Y-160583D01*
X125418Y-160647D01*
X125383Y-160700D01*
X125354Y-160741D01*
X125336Y-160764D01*
X125319Y-160782D01*
X125313Y-160787D01*
X125266Y-160828D01*
X125213Y-160858D01*
X125108Y-160910D01*
X125067Y-160922D01*
X125032Y-160934D01*
X125003Y-160945D01*
X124997D01*
X124938Y-160957D01*
X124868Y-160963D01*
X124786Y-160975D01*
X124716D01*
X124646Y-160980D01*
X123961D01*
Y-158436D01*
X124470D01*
X124540Y-158442D01*
D02*
G37*
G36*
X121645Y-160366D02*
X120059Y-157786D01*
X121645D01*
Y-160366D01*
D02*
G37*
%LPC*%
G36*
X167975Y38088D02*
X167368Y37285D01*
X166575Y37885D01*
X166169Y37349D01*
X166962Y36749D01*
X166355Y35946D01*
X166896Y35537D01*
X167503Y36340D01*
X168297Y35740D01*
X168702Y36276D01*
X167909Y36876D01*
X168516Y37679D01*
X167975Y38088D01*
D02*
G37*
G36*
X163697Y35060D02*
X163228Y34439D01*
X166265Y32142D01*
X167895Y34297D01*
X167377Y34689D01*
X166217Y33154D01*
X163697Y35060D01*
D02*
G37*
G36*
X162959Y33278D02*
X162921Y33277D01*
X162897Y33274D01*
X162888Y33273D01*
X162754Y33250D01*
X162625Y33215D01*
X162502Y33169D01*
X162383Y33119D01*
X162279Y33059D01*
X162171Y32994D01*
X162080Y32931D01*
X161989Y32860D01*
X161915Y32791D01*
X161845Y32727D01*
X161786Y32669D01*
X161734Y32620D01*
X161699Y32573D01*
X161666Y32539D01*
X161645Y32511D01*
X161547Y32372D01*
X161466Y32236D01*
X161405Y32106D01*
X161349Y31994D01*
X161331Y31942D01*
X161313Y31897D01*
X161302Y31854D01*
X161290Y31819D01*
X161277Y31792D01*
X161276Y31771D01*
X161274Y31758D01*
X161270Y31754D01*
X161247Y31646D01*
X161233Y31539D01*
X161230Y31439D01*
X161231Y31343D01*
X161233Y31268D01*
X161237Y31206D01*
X161243Y31165D01*
X161245Y31149D01*
X161269Y31035D01*
X161298Y30918D01*
X161333Y30818D01*
X161366Y30727D01*
X161398Y30652D01*
X161427Y30593D01*
X161444Y30558D01*
X161445Y30550D01*
X161450Y30547D01*
X161541Y30405D01*
X161647Y30273D01*
X161760Y30151D01*
X161875Y30042D01*
X161924Y29990D01*
X161975Y29951D01*
X162018Y29911D01*
X162057Y29875D01*
X162136Y29815D01*
X162275Y29717D01*
X162412Y29636D01*
X162542Y29566D01*
X162672Y29505D01*
X162799Y29460D01*
X162917Y29422D01*
X163030Y29396D01*
X163137Y29373D01*
X163235Y29358D01*
X163324Y29349D01*
X163400Y29343D01*
X163467Y29344D01*
X163517Y29342D01*
X163555Y29344D01*
X163579Y29347D01*
X163587Y29348D01*
X163722Y29371D01*
X163846Y29409D01*
X163966Y29451D01*
X164083Y29509D01*
X164192Y29566D01*
X164292Y29629D01*
X164387Y29697D01*
X164474Y29763D01*
X164552Y29829D01*
X164618Y29896D01*
X164680Y29959D01*
X164732Y30008D01*
X164767Y30055D01*
X164800Y30088D01*
X164821Y30116D01*
X164912Y30246D01*
X164986Y30373D01*
X165049Y30495D01*
X165098Y30618D01*
X165140Y30741D01*
X165174Y30854D01*
X165197Y30962D01*
X165211Y31068D01*
X165223Y31162D01*
X165228Y31246D01*
X165234Y31322D01*
X165230Y31384D01*
X165227Y31438D01*
X165226Y31475D01*
X165222Y31500D01*
X165221Y31508D01*
X165190Y31642D01*
X165151Y31774D01*
X165096Y31896D01*
X165038Y32013D01*
X164972Y32129D01*
X164899Y32236D01*
X164827Y32335D01*
X164748Y32424D01*
X164678Y32506D01*
X164601Y32579D01*
X164538Y32641D01*
X164480Y32700D01*
X164428Y32739D01*
X164394Y32772D01*
X164362Y32796D01*
X164223Y32894D01*
X164082Y32979D01*
X163946Y33052D01*
X163813Y33109D01*
X163689Y33158D01*
X163571Y33196D01*
X163454Y33226D01*
X163347Y33249D01*
X163245Y33260D01*
X163160Y33273D01*
X163080Y33274D01*
X163017Y33278D01*
X162959Y33278D01*
D02*
G37*
G36*
X160437Y30807D02*
X159935Y30144D01*
X161638Y27683D01*
X158782Y28618D01*
X158277Y27951D01*
X162172Y26729D01*
X162676Y27397D01*
X160437Y30807D01*
D02*
G37*
%LPD*%
G36*
X163067Y32529D02*
X163148Y32511D01*
X163235Y32490D01*
X163397Y32433D01*
X163545Y32366D01*
X163612Y32329D01*
X163672Y32291D01*
X163730Y32262D01*
X163772Y32230D01*
X163813Y32207D01*
X163841Y32185D01*
X163860Y32171D01*
X163864Y32168D01*
X163959Y32089D01*
X164044Y32017D01*
X164122Y31936D01*
X164186Y31866D01*
X164247Y31791D01*
X164298Y31723D01*
X164341Y31653D01*
X164378Y31596D01*
X164407Y31537D01*
X164431Y31482D01*
X164450Y31439D01*
X164464Y31399D01*
X164477Y31367D01*
X164480Y31343D01*
X164486Y31331D01*
X164487Y31323D01*
X164498Y31241D01*
X164505Y31163D01*
X164499Y31087D01*
X164493Y31010D01*
X164477Y30942D01*
X164462Y30872D01*
X164424Y30755D01*
X164379Y30656D01*
X164355Y30616D01*
X164335Y30579D01*
X164322Y30553D01*
X164294Y30515D01*
X164240Y30453D01*
X164186Y30392D01*
X164126Y30342D01*
X164062Y30295D01*
X163942Y30224D01*
X163824Y30174D01*
X163724Y30140D01*
X163680Y30129D01*
X163643Y30120D01*
X163610Y30115D01*
X163586Y30112D01*
X163578Y30111D01*
X163569Y30110D01*
X163486Y30107D01*
X163398Y30115D01*
X163312Y30128D01*
X163229Y30154D01*
X163063Y30207D01*
X162911Y30277D01*
X162844Y30314D01*
X162784Y30352D01*
X162734Y30382D01*
X162684Y30413D01*
X162648Y30433D01*
X162620Y30454D01*
X162601Y30468D01*
X162596Y30472D01*
X162502Y30551D01*
X162417Y30622D01*
X162343Y30700D01*
X162275Y30774D01*
X162215Y30841D01*
X162168Y30913D01*
X162121Y30978D01*
X162087Y31040D01*
X162055Y31094D01*
X162035Y31146D01*
X162012Y31192D01*
X161994Y31228D01*
X161990Y31260D01*
X161983Y31280D01*
X161977Y31292D01*
X161976Y31300D01*
X161965Y31382D01*
X161958Y31461D01*
X161964Y31537D01*
X161970Y31613D01*
X161981Y31685D01*
X162001Y31751D01*
X162043Y31873D01*
X162088Y31971D01*
X162111Y32012D01*
X162131Y32048D01*
X162148Y32080D01*
X162176Y32117D01*
X162233Y32184D01*
X162287Y32245D01*
X162412Y32342D01*
X162535Y32418D01*
X162645Y32466D01*
X162697Y32486D01*
X162745Y32501D01*
X162789Y32511D01*
X162826Y32521D01*
X162858Y32525D01*
X162883Y32529D01*
X162891Y32530D01*
X162899Y32531D01*
X162982Y32534D01*
X163067Y32529D01*
D02*
G37*
%LPC*%
G36*
X157388Y-11079D02*
X156072D01*
X155955Y-11085D01*
X155843Y-11097D01*
X155750Y-11120D01*
X155662Y-11138D01*
X155592Y-11161D01*
X155539Y-11185D01*
X155504Y-11196D01*
X155498Y-11202D01*
X155492D01*
X155405Y-11249D01*
X155323Y-11302D01*
X155259Y-11354D01*
X155200Y-11407D01*
X155153Y-11460D01*
X155124Y-11495D01*
X155101Y-11518D01*
X155095Y-11530D01*
X155048Y-11612D01*
X155001Y-11705D01*
X154966Y-11799D01*
X154937Y-11887D01*
X154913Y-11969D01*
X154896Y-12033D01*
X154890Y-12056D01*
Y-12074D01*
X154884Y-12086D01*
Y-12091D01*
X155563Y-12202D01*
X155574Y-12115D01*
X155598Y-12039D01*
X155621Y-11974D01*
X155650Y-11916D01*
X155680Y-11875D01*
X155697Y-11846D01*
X155715Y-11828D01*
X155721Y-11822D01*
X155773Y-11776D01*
X155832Y-11746D01*
X155885Y-11723D01*
X155937Y-11705D01*
X155984Y-11694D01*
X156019Y-11688D01*
X156048D01*
X156119Y-11694D01*
X156183Y-11705D01*
X156236Y-11723D01*
X156282Y-11746D01*
X156317Y-11770D01*
X156341Y-11787D01*
X156358Y-11799D01*
X156364Y-11805D01*
X156405Y-11851D01*
X156434Y-11904D01*
X156452Y-11957D01*
X156470Y-12004D01*
X156475Y-12045D01*
X156481Y-12080D01*
Y-12109D01*
Y-12115D01*
X156475Y-12197D01*
X156458Y-12267D01*
X156429Y-12331D01*
X156399Y-12384D01*
X156370Y-12425D01*
X156341Y-12460D01*
X156323Y-12477D01*
X156317Y-12483D01*
X156253Y-12524D01*
X156177Y-12559D01*
X156101Y-12583D01*
X156031Y-12595D01*
X155966Y-12600D01*
X155908Y-12606D01*
X155861D01*
X155779Y-13203D01*
X155849Y-13185D01*
X155914Y-13168D01*
X155972Y-13156D01*
X156019Y-13150D01*
X156060Y-13144D01*
X156113D01*
X156189Y-13150D01*
X156259Y-13168D01*
X156323Y-13197D01*
X156376Y-13226D01*
X156423Y-13255D01*
X156452Y-13285D01*
X156475Y-13302D01*
X156481Y-13308D01*
X156534Y-13373D01*
X156569Y-13449D01*
X156598Y-13519D01*
X156616Y-13589D01*
X156627Y-13653D01*
X156633Y-13706D01*
Y-13741D01*
Y-13747D01*
Y-13753D01*
X156627Y-13858D01*
X156610Y-13952D01*
X156581Y-14034D01*
X156557Y-14104D01*
X156528Y-14156D01*
X156499Y-14191D01*
X156481Y-14221D01*
X156475Y-14227D01*
X156411Y-14285D01*
X156347Y-14326D01*
X156282Y-14355D01*
X156224Y-14373D01*
X156171Y-14385D01*
X156130Y-14396D01*
X156089D01*
X156013Y-14390D01*
X155943Y-14373D01*
X155885Y-14349D01*
X155832Y-14326D01*
X155785Y-14303D01*
X155756Y-14279D01*
X155732Y-14262D01*
X155727Y-14256D01*
X155674Y-14197D01*
X155633Y-14127D01*
X155604Y-14057D01*
X155580Y-13993D01*
X155563Y-13928D01*
X155551Y-13882D01*
X155545Y-13846D01*
Y-13840D01*
Y-13835D01*
X154832Y-13922D01*
X154843Y-14010D01*
X154861Y-14098D01*
X154913Y-14250D01*
X154978Y-14385D01*
X155048Y-14496D01*
X155083Y-14543D01*
X155112Y-14583D01*
X155141Y-14624D01*
X155171Y-14654D01*
X155194Y-14677D01*
X155212Y-14695D01*
X155218Y-14701D01*
X155223Y-14706D01*
X155288Y-14759D01*
X155358Y-14806D01*
X155434Y-14847D01*
X155504Y-14876D01*
X155650Y-14934D01*
X155791Y-14970D01*
X155849Y-14981D01*
X155908Y-14987D01*
X155961Y-14993D01*
X156007Y-14999D01*
X156042Y-15005D01*
X154832D01*
X156095D01*
X156194Y-14999D01*
X156294Y-14987D01*
X156382Y-14970D01*
X156470Y-14946D01*
X156551Y-14923D01*
X156627Y-14894D01*
X156698Y-14858D01*
X156762Y-14823D01*
X156820Y-14794D01*
X156867Y-14759D01*
X156914Y-14730D01*
X156949Y-14701D01*
X156978Y-14683D01*
X156996Y-14665D01*
X157008Y-14654D01*
X157013Y-14648D01*
X157078Y-14578D01*
X157136Y-14507D01*
X157189Y-14437D01*
X157230Y-14361D01*
X157265Y-14291D01*
X157294Y-14221D01*
X157341Y-14086D01*
X157359Y-14022D01*
X157370Y-13963D01*
X157376Y-13917D01*
X157382Y-13870D01*
X157388Y-13835D01*
Y-13788D01*
X157382Y-13659D01*
X157359Y-13548D01*
X157324Y-13443D01*
X157289Y-13355D01*
X157253Y-13285D01*
X157218Y-13232D01*
X157195Y-13203D01*
X157189Y-13191D01*
X157107Y-13109D01*
X157025Y-13039D01*
X156938Y-12981D01*
X156850Y-12940D01*
X156780Y-12910D01*
X156715Y-12887D01*
X156692Y-12881D01*
X156680D01*
X156668Y-12875D01*
X156662D01*
X156762Y-12817D01*
X156844Y-12752D01*
X156920Y-12688D01*
X156984Y-12618D01*
X157037Y-12553D01*
X157084Y-12483D01*
X157119Y-12419D01*
X157148Y-12355D01*
X157171Y-12296D01*
X157189Y-12244D01*
X157201Y-12197D01*
X157212Y-12150D01*
Y-12115D01*
X157218Y-12091D01*
Y-12074D01*
Y-12068D01*
Y-12004D01*
X157207Y-11939D01*
X157177Y-11816D01*
X157131Y-11711D01*
X157084Y-11618D01*
X157031Y-11536D01*
X156984Y-11477D01*
X156967Y-11460D01*
X156955Y-11442D01*
X156949Y-11436D01*
X156943Y-11430D01*
X156879Y-11366D01*
X156815Y-11313D01*
X156739Y-11266D01*
X156668Y-11226D01*
X156598Y-11191D01*
X156522Y-11167D01*
X156388Y-11120D01*
X156323Y-11109D01*
X156259Y-11097D01*
X156206Y-11091D01*
X156159Y-11085D01*
X156124Y-11079D01*
X157388D01*
D02*
G37*
G36*
X149597D02*
X149508D01*
X149391Y-11085D01*
X149280Y-11097D01*
X149186Y-11120D01*
X149099Y-11138D01*
X149028Y-11161D01*
X148976Y-11185D01*
X148941Y-11196D01*
X148935Y-11202D01*
X148929D01*
X148841Y-11249D01*
X148759Y-11302D01*
X148695Y-11354D01*
X148636Y-11407D01*
X148590Y-11460D01*
X148560Y-11495D01*
X148537Y-11518D01*
X148531Y-11530D01*
X148484Y-11612D01*
X148437Y-11705D01*
X148402Y-11799D01*
X148373Y-11887D01*
X148350Y-11969D01*
X148332Y-12033D01*
X148326Y-12056D01*
Y-12074D01*
X148320Y-12086D01*
Y-12091D01*
X148999Y-12202D01*
X149011Y-12115D01*
X149034Y-12039D01*
X149057Y-11974D01*
X149087Y-11916D01*
X149116Y-11875D01*
X149134Y-11846D01*
X149151Y-11828D01*
X149157Y-11822D01*
X149210Y-11776D01*
X149268Y-11746D01*
X149321Y-11723D01*
X149373Y-11705D01*
X149420Y-11694D01*
X149455Y-11688D01*
X149485D01*
X149555Y-11694D01*
X149619Y-11705D01*
X149672Y-11723D01*
X149719Y-11746D01*
X149754Y-11770D01*
X149777Y-11787D01*
X149795Y-11799D01*
X149801Y-11805D01*
X149841Y-11851D01*
X149871Y-11904D01*
X149888Y-11957D01*
X149906Y-12004D01*
X149912Y-12045D01*
X149917Y-12080D01*
Y-12109D01*
Y-12115D01*
X149912Y-12197D01*
X149894Y-12267D01*
X149865Y-12331D01*
X149836Y-12384D01*
X149806Y-12425D01*
X149777Y-12460D01*
X149759Y-12477D01*
X149754Y-12483D01*
X149689Y-12524D01*
X149613Y-12559D01*
X149537Y-12583D01*
X149467Y-12595D01*
X149403Y-12600D01*
X149344Y-12606D01*
X149297D01*
X149215Y-13203D01*
X149286Y-13185D01*
X149350Y-13168D01*
X149408Y-13156D01*
X149455Y-13150D01*
X149496Y-13144D01*
X149549D01*
X149625Y-13150D01*
X149695Y-13168D01*
X149759Y-13197D01*
X149812Y-13226D01*
X149859Y-13255D01*
X149888Y-13285D01*
X149912Y-13302D01*
X149917Y-13308D01*
X149970Y-13373D01*
X150005Y-13449D01*
X150034Y-13519D01*
X150052Y-13589D01*
X150064Y-13653D01*
X150070Y-13706D01*
Y-13741D01*
Y-13747D01*
Y-13753D01*
X150064Y-13858D01*
X150046Y-13952D01*
X150017Y-14034D01*
X149994Y-14104D01*
X149964Y-14156D01*
X149935Y-14191D01*
X149917Y-14221D01*
X149912Y-14227D01*
X149847Y-14285D01*
X149783Y-14326D01*
X149719Y-14355D01*
X149660Y-14373D01*
X149607Y-14385D01*
X149566Y-14396D01*
X149525D01*
X149450Y-14390D01*
X149379Y-14373D01*
X149321Y-14349D01*
X149268Y-14326D01*
X149221Y-14303D01*
X149192Y-14279D01*
X149169Y-14262D01*
X149163Y-14256D01*
X149110Y-14197D01*
X149069Y-14127D01*
X149040Y-14057D01*
X149017Y-13993D01*
X148999Y-13928D01*
X148987Y-13882D01*
X148981Y-13846D01*
Y-13840D01*
Y-13835D01*
X148268Y-13922D01*
X148280Y-14010D01*
X148297Y-14098D01*
X148350Y-14250D01*
X148414Y-14385D01*
X148484Y-14496D01*
X148519Y-14543D01*
X148549Y-14583D01*
X148578Y-14624D01*
X148607Y-14654D01*
X148630Y-14677D01*
X148648Y-14695D01*
X148654Y-14701D01*
X148660Y-14706D01*
X148724Y-14759D01*
X148794Y-14806D01*
X148870Y-14847D01*
X148941Y-14876D01*
X149087Y-14934D01*
X149227Y-14970D01*
X149286Y-14981D01*
X149344Y-14987D01*
X149397Y-14993D01*
X149444Y-14999D01*
X149479Y-15005D01*
X148268D01*
X149531D01*
X149685D01*
X149531D01*
X149631Y-14999D01*
X149730Y-14987D01*
X149818Y-14970D01*
X149906Y-14946D01*
X149988Y-14923D01*
X150064Y-14894D01*
X150134Y-14858D01*
X150198Y-14823D01*
X150257Y-14794D01*
X150304Y-14759D01*
X150350Y-14730D01*
X150385Y-14701D01*
X150415Y-14683D01*
X150432Y-14665D01*
X150444Y-14654D01*
X150450Y-14648D01*
X150514Y-14578D01*
X150573Y-14507D01*
X150625Y-14437D01*
X150666Y-14361D01*
X150701Y-14291D01*
X150731Y-14221D01*
X150777Y-14086D01*
X150795Y-14022D01*
X150807Y-13963D01*
X150812Y-13917D01*
X150818Y-13870D01*
X150824Y-13835D01*
Y-13788D01*
X150818Y-13659D01*
X150795Y-13548D01*
X150760Y-13443D01*
X150725Y-13355D01*
X150690Y-13285D01*
X150655Y-13232D01*
X150631Y-13203D01*
X150625Y-13191D01*
X150543Y-13109D01*
X150461Y-13039D01*
X150374Y-12981D01*
X150286Y-12940D01*
X150216Y-12910D01*
X150152Y-12887D01*
X150128Y-12881D01*
X150116D01*
X150105Y-12875D01*
X150099D01*
X150198Y-12817D01*
X150280Y-12752D01*
X150356Y-12688D01*
X150421Y-12618D01*
X150473Y-12553D01*
X150520Y-12483D01*
X150555Y-12419D01*
X150584Y-12355D01*
X150608Y-12296D01*
X150625Y-12244D01*
X150637Y-12197D01*
X150649Y-12150D01*
Y-12115D01*
X150655Y-12091D01*
Y-12074D01*
Y-12068D01*
Y-12004D01*
X150643Y-11939D01*
X150614Y-11816D01*
X150567Y-11711D01*
X150520Y-11618D01*
X150467Y-11536D01*
X150421Y-11477D01*
X150403Y-11460D01*
X150391Y-11442D01*
X150385Y-11436D01*
X150380Y-11430D01*
X150315Y-11366D01*
X150251Y-11313D01*
X150175Y-11266D01*
X150105Y-11226D01*
X150034Y-11191D01*
X149958Y-11167D01*
X149824Y-11120D01*
X149759Y-11109D01*
X149695Y-11097D01*
X149643Y-11091D01*
X149596Y-11085D01*
X149561Y-11079D01*
X149597D01*
D02*
G37*
G36*
X154633Y-11091D02*
X151052D01*
Y-14934D01*
D01*
Y-11091D01*
X152427Y-14934D01*
X153264D01*
X154633Y-11091D01*
D01*
D02*
G37*
G36*
X154832Y-11079D02*
D01*
Y-15005D01*
D01*
Y-11079D01*
D01*
D02*
G37*
G36*
X150824Y-15005D02*
X149685D01*
X150824D01*
D01*
D02*
G37*
%LPD*%
G36*
X149531D02*
D01*
D01*
D01*
D02*
G37*
%LPC*%
G36*
X148268Y-11079D02*
D01*
Y-15005D01*
D01*
Y-11079D01*
D01*
D02*
G37*
%LPD*%
G36*
X152866Y-13934D02*
X151889Y-11091D01*
X153802D01*
X152866Y-13934D01*
D02*
G37*
%LPC*%
G36*
X174982Y-84567D02*
X174912D01*
X174713Y-84573D01*
X174538Y-84596D01*
X174456Y-84614D01*
X174380Y-84625D01*
X174309Y-84643D01*
X174245Y-84660D01*
X174192Y-84684D01*
X174140Y-84701D01*
X174099Y-84713D01*
X174058Y-84731D01*
X174029Y-84742D01*
X174011Y-84754D01*
X173999Y-84760D01*
X173994D01*
X173824Y-84865D01*
X173672Y-84976D01*
X173549Y-85099D01*
X173444Y-85216D01*
X173362Y-85316D01*
X173333Y-85362D01*
X173303Y-85403D01*
X173286Y-85433D01*
X173268Y-85456D01*
X173262Y-85474D01*
X173256Y-85479D01*
X173175Y-85661D01*
X173116Y-85842D01*
X173069Y-86023D01*
X173040Y-86187D01*
X173034Y-86263D01*
X173022Y-86328D01*
X173017Y-86392D01*
Y-86445D01*
X173011Y-86486D01*
Y-86544D01*
X173022Y-86749D01*
X173046Y-86942D01*
X173081Y-87112D01*
X173099Y-87194D01*
X173122Y-87270D01*
X173145Y-87334D01*
X173163Y-87392D01*
X173180Y-87445D01*
X173198Y-87492D01*
X173215Y-87527D01*
X173221Y-87550D01*
X173233Y-87568D01*
Y-87574D01*
X173327Y-87738D01*
X173432Y-87884D01*
X173543Y-88007D01*
X173648Y-88106D01*
X173748Y-88188D01*
X173789Y-88223D01*
X173830Y-88247D01*
X173859Y-88264D01*
X173882Y-88282D01*
X173894Y-88287D01*
X173900Y-88293D01*
X173988Y-88340D01*
X174075Y-88375D01*
X174257Y-88440D01*
X174432Y-88481D01*
X174596Y-88516D01*
X174672Y-88521D01*
X174736Y-88533D01*
X174801Y-88539D01*
X174854D01*
X174894Y-88545D01*
X173011D01*
X176597Y-88545D01*
Y-86415D01*
X174929Y-86415D01*
Y-87065D01*
X175813D01*
Y-87556D01*
X175743Y-87609D01*
X175672Y-87650D01*
X175602Y-87691D01*
X175538Y-87726D01*
X175479Y-87755D01*
X175433Y-87773D01*
X175403Y-87784D01*
X175392Y-87790D01*
X175298Y-87819D01*
X175210Y-87843D01*
X175128Y-87860D01*
X175058Y-87872D01*
X174994Y-87878D01*
X174947Y-87884D01*
X174906D01*
X174818Y-87878D01*
X174731Y-87866D01*
X174649Y-87854D01*
X174573Y-87831D01*
X174438Y-87779D01*
X174327Y-87714D01*
X174274Y-87685D01*
X174233Y-87650D01*
X174198Y-87621D01*
X174163Y-87597D01*
X174140Y-87574D01*
X174122Y-87556D01*
X174116Y-87550D01*
X174110Y-87545D01*
X174058Y-87474D01*
X174011Y-87398D01*
X173970Y-87322D01*
X173941Y-87240D01*
X173882Y-87065D01*
X173847Y-86901D01*
X173836Y-86819D01*
X173830Y-86749D01*
X173824Y-86685D01*
X173818Y-86626D01*
X173812Y-86579D01*
Y-86544D01*
Y-86521D01*
Y-86515D01*
X173818Y-86398D01*
X173824Y-86293D01*
X173841Y-86187D01*
X173859Y-86094D01*
X173882Y-86012D01*
X173906Y-85930D01*
X173929Y-85860D01*
X173958Y-85795D01*
X173988Y-85737D01*
X174011Y-85690D01*
X174035Y-85649D01*
X174058Y-85614D01*
X174075Y-85591D01*
X174093Y-85573D01*
X174099Y-85561D01*
X174105Y-85555D01*
X174163Y-85497D01*
X174227Y-85444D01*
X174292Y-85403D01*
X174356Y-85368D01*
X174491Y-85310D01*
X174619Y-85269D01*
X174736Y-85245D01*
X174783Y-85240D01*
X174830Y-85234D01*
X174865Y-85228D01*
X174912D01*
X175029Y-85234D01*
X175140Y-85251D01*
X175234Y-85281D01*
X175316Y-85310D01*
X175380Y-85339D01*
X175427Y-85368D01*
X175456Y-85386D01*
X175468Y-85392D01*
X175544Y-85456D01*
X175608Y-85532D01*
X175661Y-85602D01*
X175702Y-85672D01*
X175737Y-85737D01*
X175754Y-85790D01*
X175766Y-85825D01*
X175772Y-85830D01*
Y-85836D01*
X176544Y-85690D01*
X176521Y-85596D01*
X176486Y-85503D01*
X176415Y-85345D01*
X176374Y-85269D01*
X176328Y-85204D01*
X176287Y-85140D01*
X176240Y-85088D01*
X176199Y-85035D01*
X176158Y-84994D01*
X176123Y-84959D01*
X176088Y-84924D01*
X176064Y-84900D01*
X176041Y-84883D01*
X176029Y-84877D01*
X176023Y-84871D01*
X175947Y-84818D01*
X175860Y-84772D01*
X175772Y-84731D01*
X175684Y-84696D01*
X175497Y-84643D01*
X175321Y-84602D01*
X175234Y-84590D01*
X175158Y-84584D01*
X175087Y-84579D01*
X175029Y-84573D01*
X174982Y-84567D01*
D02*
G37*
G36*
X165447D02*
X165376D01*
X165178Y-84573D01*
X165002Y-84596D01*
X164920Y-84614D01*
X164844Y-84625D01*
X164774Y-84643D01*
X164710Y-84660D01*
X164657Y-84684D01*
X164604Y-84701D01*
X164563Y-84713D01*
X164522Y-84731D01*
X164493Y-84742D01*
X164476Y-84754D01*
X164464Y-84760D01*
X164458D01*
X164288Y-84865D01*
X164136Y-84976D01*
X164013Y-85099D01*
X163908Y-85216D01*
X163826Y-85316D01*
X163797Y-85362D01*
X163768Y-85403D01*
X163750Y-85433D01*
X163733Y-85456D01*
X163727Y-85474D01*
X163721Y-85479D01*
X163639Y-85661D01*
X163581Y-85842D01*
X163534Y-86023D01*
X163505Y-86187D01*
X163499Y-86263D01*
X163487Y-86328D01*
X163481Y-86392D01*
Y-86445D01*
X163475Y-86486D01*
Y-86544D01*
X163487Y-86749D01*
X163510Y-86942D01*
X163545Y-87112D01*
X163563Y-87194D01*
X163586Y-87270D01*
X163610Y-87334D01*
X163627Y-87392D01*
X163645Y-87445D01*
X163662Y-87492D01*
X163680Y-87527D01*
X163686Y-87550D01*
X163698Y-87568D01*
Y-87574D01*
X163791Y-87738D01*
X163896Y-87884D01*
X164008Y-88007D01*
X164113Y-88106D01*
X164212Y-88188D01*
X164253Y-88223D01*
X164294Y-88247D01*
X164323Y-88264D01*
X164347Y-88282D01*
X164359Y-88287D01*
X164364Y-88293D01*
X164452Y-88340D01*
X164540Y-88375D01*
X164721Y-88440D01*
X164897Y-88481D01*
X165061Y-88516D01*
X165137Y-88521D01*
X165201Y-88533D01*
X165265Y-88539D01*
X165318D01*
X165359Y-88545D01*
X163475D01*
X167061D01*
Y-86415D01*
X165394D01*
Y-87065D01*
X166277D01*
Y-87556D01*
X166207Y-87609D01*
X166137Y-87650D01*
X166067Y-87691D01*
X166002Y-87726D01*
X165944Y-87755D01*
X165897Y-87773D01*
X165868Y-87784D01*
X165856Y-87790D01*
X165763Y-87819D01*
X165675Y-87843D01*
X165593Y-87860D01*
X165523Y-87872D01*
X165458Y-87878D01*
X165412Y-87884D01*
X165371D01*
X165283Y-87878D01*
X165195Y-87866D01*
X165113Y-87854D01*
X165037Y-87831D01*
X164903Y-87779D01*
X164792Y-87714D01*
X164739Y-87685D01*
X164698Y-87650D01*
X164663Y-87621D01*
X164628Y-87597D01*
X164604Y-87574D01*
X164587Y-87556D01*
X164581Y-87550D01*
X164575Y-87545D01*
X164522Y-87474D01*
X164476Y-87398D01*
X164435Y-87322D01*
X164405Y-87240D01*
X164347Y-87065D01*
X164312Y-86901D01*
X164300Y-86819D01*
X164294Y-86749D01*
X164288Y-86685D01*
X164283Y-86626D01*
X164277Y-86579D01*
Y-86544D01*
Y-86521D01*
Y-86515D01*
X164283Y-86398D01*
X164288Y-86293D01*
X164306Y-86187D01*
X164323Y-86094D01*
X164347Y-86012D01*
X164370Y-85930D01*
X164394Y-85860D01*
X164423Y-85795D01*
X164452Y-85737D01*
X164476Y-85690D01*
X164499Y-85649D01*
X164522Y-85614D01*
X164540Y-85591D01*
X164558Y-85573D01*
X164563Y-85561D01*
X164569Y-85555D01*
X164628Y-85497D01*
X164692Y-85444D01*
X164756Y-85403D01*
X164821Y-85368D01*
X164955Y-85310D01*
X165084Y-85269D01*
X165201Y-85245D01*
X165248Y-85240D01*
X165295Y-85234D01*
X165330Y-85228D01*
X165376D01*
X165494Y-85234D01*
X165605Y-85251D01*
X165698Y-85281D01*
X165780Y-85310D01*
X165845Y-85339D01*
X165891Y-85368D01*
X165920Y-85386D01*
X165932Y-85392D01*
X166008Y-85456D01*
X166073Y-85532D01*
X166125Y-85602D01*
X166166Y-85672D01*
X166201Y-85737D01*
X166219Y-85790D01*
X166231Y-85825D01*
X166236Y-85830D01*
Y-85836D01*
X167009Y-85690D01*
X166985Y-85596D01*
X166950Y-85503D01*
X166880Y-85345D01*
X166839Y-85269D01*
X166792Y-85204D01*
X166751Y-85140D01*
X166704Y-85088D01*
X166664Y-85035D01*
X166622Y-84994D01*
X166587Y-84959D01*
X166552Y-84924D01*
X166529Y-84900D01*
X166506Y-84883D01*
X166494Y-84877D01*
X166488Y-84871D01*
X166412Y-84818D01*
X166324Y-84772D01*
X166236Y-84731D01*
X166149Y-84696D01*
X165962Y-84643D01*
X165786Y-84602D01*
X165698Y-84590D01*
X165622Y-84584D01*
X165552Y-84579D01*
X165494Y-84573D01*
X165447Y-84567D01*
D02*
G37*
G36*
X149845D02*
X149775D01*
X149628Y-84573D01*
X149488Y-84590D01*
X149353Y-84614D01*
X149231Y-84649D01*
X149114Y-84690D01*
X149008Y-84737D01*
X148909Y-84783D01*
X148821Y-84830D01*
X148739Y-84883D01*
X148669Y-84930D01*
X148610Y-84976D01*
X148558Y-85017D01*
X148523Y-85052D01*
X148493Y-85076D01*
X148476Y-85093D01*
X148470Y-85099D01*
X148382Y-85204D01*
X148306Y-85316D01*
X148242Y-85433D01*
X148183Y-85555D01*
X148136Y-85678D01*
X148101Y-85807D01*
X148066Y-85924D01*
X148043Y-86047D01*
X148020Y-86158D01*
X148002Y-86257D01*
X147996Y-86351D01*
X147984Y-86433D01*
Y-86497D01*
X147979Y-86550D01*
D01*
D01*
Y-86591D01*
X147984Y-86755D01*
X148002Y-86913D01*
X148025Y-87059D01*
X148055Y-87194D01*
X148096Y-87322D01*
X148136Y-87439D01*
X148178Y-87550D01*
X148224Y-87644D01*
X148271Y-87732D01*
X148312Y-87808D01*
X148359Y-87872D01*
X148394Y-87925D01*
X148423Y-87966D01*
X148447Y-87995D01*
X148464Y-88012D01*
X148470Y-88018D01*
X148564Y-88112D01*
X148663Y-88188D01*
X148768Y-88258D01*
X148874Y-88317D01*
X148979Y-88369D01*
X149084Y-88410D01*
X149184Y-88445D01*
X149283Y-88475D01*
X149377Y-88498D01*
X149459Y-88510D01*
X149535Y-88521D01*
X149599Y-88533D01*
X149652D01*
X149693Y-88539D01*
X147979D01*
D01*
X151325D01*
Y-88358D01*
Y-88539D01*
X149728D01*
X149839Y-88533D01*
X149950Y-88527D01*
X150049Y-88510D01*
X150149Y-88492D01*
X150237Y-88469D01*
X150319Y-88445D01*
X150395Y-88416D01*
X150465Y-88387D01*
X150529Y-88358D01*
X150588Y-88328D01*
X150635Y-88305D01*
X150675Y-88282D01*
X150705Y-88264D01*
X150728Y-88247D01*
X150740Y-88241D01*
X150746Y-88235D01*
X150822Y-88176D01*
X150886Y-88106D01*
X151009Y-87960D01*
X151108Y-87802D01*
X151184Y-87650D01*
X151219Y-87580D01*
X151249Y-87509D01*
X151272Y-87451D01*
X151290Y-87398D01*
X151307Y-87351D01*
X151319Y-87322D01*
X151325Y-87299D01*
Y-88358D01*
Y-87299D01*
Y-87246D01*
Y-87293D01*
X150570Y-87059D01*
X150529Y-87211D01*
X150477Y-87334D01*
X150424Y-87445D01*
X150371Y-87533D01*
X150324Y-87597D01*
X150284Y-87650D01*
X150260Y-87673D01*
X150248Y-87685D01*
X150161Y-87749D01*
X150073Y-87796D01*
X149985Y-87831D01*
X149897Y-87854D01*
X149827Y-87866D01*
X149769Y-87872D01*
X149745Y-87878D01*
X149716D01*
X149640Y-87872D01*
X149570Y-87866D01*
X149435Y-87831D01*
X149318Y-87784D01*
X149219Y-87726D01*
X149143Y-87667D01*
X149084Y-87621D01*
X149049Y-87585D01*
X149043Y-87580D01*
X149037Y-87574D01*
X148991Y-87509D01*
X148956Y-87439D01*
X148920Y-87363D01*
X148891Y-87281D01*
X148844Y-87106D01*
X148815Y-86936D01*
X148803Y-86854D01*
X148792Y-86778D01*
X148786Y-86714D01*
Y-86649D01*
X148780Y-86603D01*
Y-86562D01*
Y-86538D01*
Y-86532D01*
X148786Y-86410D01*
X148792Y-86293D01*
X148803Y-86181D01*
X148821Y-86088D01*
X148838Y-85994D01*
X148862Y-85912D01*
X148885Y-85842D01*
X148915Y-85778D01*
X148938Y-85719D01*
X148961Y-85672D01*
X148985Y-85632D01*
X149002Y-85596D01*
X149020Y-85573D01*
X149032Y-85550D01*
X149043Y-85544D01*
Y-85538D01*
X149096Y-85485D01*
X149149Y-85433D01*
X149207Y-85392D01*
X149260Y-85357D01*
X149377Y-85304D01*
X149488Y-85269D01*
X149587Y-85245D01*
X149628Y-85240D01*
X149663Y-85234D01*
X149693Y-85228D01*
X149734D01*
X149845Y-85234D01*
X149944Y-85257D01*
X150038Y-85281D01*
X150114Y-85316D01*
X150178Y-85345D01*
X150219Y-85374D01*
X150248Y-85397D01*
X150260Y-85403D01*
X150336Y-85474D01*
X150395Y-85550D01*
X150447Y-85626D01*
X150482Y-85702D01*
X150512Y-85772D01*
X150535Y-85825D01*
X150541Y-85860D01*
X150547Y-85865D01*
Y-85871D01*
X151313Y-85690D01*
X151260Y-85526D01*
X151196Y-85386D01*
X151126Y-85269D01*
X151061Y-85169D01*
X151003Y-85088D01*
X150956Y-85035D01*
X150927Y-85000D01*
X150921Y-84988D01*
X150915D01*
X150828Y-84912D01*
X150740Y-84848D01*
X150646Y-84795D01*
X150553Y-84742D01*
X150459Y-84701D01*
X150359Y-84672D01*
X150272Y-84643D01*
X150178Y-84619D01*
X150096Y-84602D01*
X150020Y-84590D01*
X149950Y-84579D01*
X149891Y-84573D01*
X149845Y-84567D01*
D02*
G37*
G36*
X155063Y-84631D02*
X153527D01*
X154285D01*
Y-86146D01*
X152770D01*
Y-84631D01*
X151992D01*
Y-88475D01*
X153527D01*
X152770D01*
Y-86796D01*
X154285D01*
Y-88475D01*
X155063D01*
Y-84631D01*
D02*
G37*
G36*
X172326D02*
X171607D01*
Y-87211D01*
X170021Y-84631D01*
X169273D01*
Y-88475D01*
X172326D01*
Y-84631D01*
D02*
G37*
G36*
X168535D02*
X167757D01*
Y-88475D01*
X168535D01*
Y-84631D01*
D02*
G37*
G36*
X161457D02*
X159737D01*
Y-88475D01*
X163177D01*
X162709Y-87726D01*
X162656Y-87644D01*
X162609Y-87574D01*
X162568Y-87503D01*
X162522Y-87439D01*
X162452Y-87334D01*
X162387Y-87246D01*
X162335Y-87182D01*
X162299Y-87141D01*
X162276Y-87112D01*
X162270Y-87106D01*
X162206Y-87041D01*
X162136Y-86983D01*
X162065Y-86924D01*
X162001Y-86878D01*
X161943Y-86837D01*
X161896Y-86807D01*
X161866Y-86790D01*
X161861Y-86784D01*
X161855D01*
X161948Y-86766D01*
X162030Y-86749D01*
X162112Y-86725D01*
X162182Y-86696D01*
X162253Y-86667D01*
X162317Y-86638D01*
X162370Y-86608D01*
X162422Y-86579D01*
X162463Y-86550D01*
X162504Y-86521D01*
X162533Y-86492D01*
X162563Y-86474D01*
X162580Y-86450D01*
X162598Y-86439D01*
X162609Y-86433D01*
Y-86427D01*
X162656Y-86374D01*
X162697Y-86316D01*
X162756Y-86199D01*
X162803Y-86076D01*
X162838Y-85965D01*
X162855Y-85865D01*
X162861Y-85825D01*
Y-85784D01*
X162867Y-85754D01*
Y-85731D01*
Y-85719D01*
Y-85713D01*
X162861Y-85591D01*
X162843Y-85474D01*
X162814Y-85374D01*
X162785Y-85286D01*
X162750Y-85210D01*
X162726Y-85158D01*
X162703Y-85123D01*
X162697Y-85111D01*
X162627Y-85017D01*
X162557Y-84941D01*
X162481Y-84877D01*
X162410Y-84824D01*
X162346Y-84783D01*
X162294Y-84754D01*
X162258Y-84742D01*
X162253Y-84737D01*
X162247D01*
X162194Y-84719D01*
X162130Y-84701D01*
X161989Y-84678D01*
X161843Y-84655D01*
X161697Y-84643D01*
X161633Y-84637D01*
X161510D01*
X161457Y-84631D01*
D02*
G37*
G36*
X157783D02*
X156964D01*
X155472Y-88475D01*
D01*
X159328D01*
D01*
X157783Y-84631D01*
D02*
G37*
%LPD*%
G36*
X176597Y-88545D02*
X174953Y-88545D01*
X175128Y-88539D01*
X175298Y-88516D01*
X175456Y-88486D01*
X175596Y-88457D01*
X175661Y-88440D01*
X175719Y-88422D01*
X175766Y-88410D01*
X175807Y-88399D01*
X175842Y-88387D01*
X175865Y-88375D01*
X175883Y-88369D01*
X175889D01*
X176053Y-88299D01*
X176193Y-88229D01*
X176316Y-88159D01*
X176415Y-88094D01*
X176497Y-88036D01*
X176550Y-87995D01*
X176585Y-87966D01*
X176597Y-87954D01*
Y-88545D01*
D02*
G37*
G36*
X167061Y-88545D02*
X165417D01*
X165593Y-88539D01*
X165763Y-88516D01*
X165920Y-88486D01*
X166061Y-88457D01*
X166125Y-88440D01*
X166184Y-88422D01*
X166231Y-88410D01*
X166271Y-88399D01*
X166307Y-88387D01*
X166330Y-88375D01*
X166348Y-88369D01*
X166353D01*
X166517Y-88299D01*
X166658Y-88229D01*
X166780Y-88159D01*
X166880Y-88094D01*
X166962Y-88036D01*
X167015Y-87995D01*
X167050Y-87966D01*
X167061Y-87954D01*
Y-88545D01*
D02*
G37*
G36*
X171548Y-88475D02*
X169992D01*
Y-85953D01*
X171548Y-88475D01*
D02*
G37*
G36*
X161451Y-85286D02*
X161568D01*
X161621Y-85292D01*
X161650D01*
X161668Y-85298D01*
X161673D01*
X161738Y-85316D01*
X161796Y-85333D01*
X161843Y-85357D01*
X161884Y-85386D01*
X161919Y-85409D01*
X161943Y-85433D01*
X161954Y-85444D01*
X161960Y-85450D01*
X161995Y-85497D01*
X162019Y-85550D01*
X162042Y-85602D01*
X162054Y-85649D01*
X162059Y-85690D01*
X162065Y-85725D01*
Y-85754D01*
Y-85760D01*
X162059Y-85825D01*
X162054Y-85877D01*
X162042Y-85930D01*
X162024Y-85971D01*
X162007Y-86006D01*
X161995Y-86029D01*
X161989Y-86047D01*
X161984Y-86053D01*
X161954Y-86094D01*
X161919Y-86123D01*
X161849Y-86176D01*
X161814Y-86187D01*
X161790Y-86199D01*
X161773Y-86211D01*
X161767D01*
X161738Y-86216D01*
X161697Y-86228D01*
X161656Y-86234D01*
X161603Y-86240D01*
X161492Y-86246D01*
X161375Y-86252D01*
X161264Y-86257D01*
X160515D01*
Y-85281D01*
X161398D01*
X161451Y-85286D01*
D02*
G37*
G36*
X160843Y-86878D02*
X160907Y-86883D01*
X160960Y-86895D01*
X161001Y-86901D01*
X161030Y-86913D01*
X161047Y-86918D01*
X161053D01*
X161100Y-86936D01*
X161141Y-86959D01*
X161217Y-87012D01*
X161246Y-87036D01*
X161270Y-87059D01*
X161282Y-87071D01*
X161287Y-87076D01*
X161311Y-87100D01*
X161334Y-87135D01*
X161398Y-87217D01*
X161469Y-87305D01*
X161533Y-87404D01*
X161597Y-87498D01*
X161627Y-87533D01*
X161650Y-87574D01*
X161668Y-87603D01*
X161685Y-87626D01*
X161691Y-87638D01*
X161697Y-87644D01*
X162247Y-88475D01*
X160515D01*
Y-86872D01*
X160761D01*
X160843Y-86878D01*
D02*
G37*
G36*
X157906Y-86954D02*
X156847D01*
X157368Y-85526D01*
X157906Y-86954D01*
D02*
G37*
G36*
X158485Y-88475D02*
X156291D01*
X156607Y-87603D01*
X158158D01*
X158485Y-88475D01*
D02*
G37*
%LPC*%
G36*
X221784Y-56365D02*
X221046D01*
Y-57102D01*
X221784D01*
Y-56365D01*
D02*
G37*
G36*
Y-57862D02*
X217940D01*
Y-59032D01*
X220567Y-59716D01*
X217940Y-60413D01*
Y-61571D01*
X221784D01*
Y-57862D01*
D02*
G37*
G36*
Y-61969D02*
X217940D01*
D01*
X221784D01*
X217940Y-63513D01*
Y-63390D01*
Y-65824D01*
Y-64332D01*
X221784Y-65824D01*
D01*
Y-63929D01*
Y-65005D01*
X220912Y-64689D01*
Y-63139D01*
X221784Y-62811D01*
Y-61969D01*
D02*
G37*
G36*
Y-65865D02*
X217940D01*
D01*
X221784D01*
X221035Y-66333D01*
X220953Y-66386D01*
X220883Y-66432D01*
X220813Y-66473D01*
X220748Y-66520D01*
X220643Y-66590D01*
X220555Y-66655D01*
X220491Y-66707D01*
X220450Y-66742D01*
X220421Y-66766D01*
X220415Y-66772D01*
X220350Y-66836D01*
X220292Y-66906D01*
X220233Y-66976D01*
X220187Y-67041D01*
X220146Y-67099D01*
X220116Y-67146D01*
X220099Y-67175D01*
X220093Y-67181D01*
Y-67187D01*
X220075Y-67093D01*
X220058Y-67011D01*
X220035Y-66930D01*
X220005Y-66859D01*
X219976Y-66789D01*
X219947Y-66725D01*
X219917Y-66672D01*
X219888Y-66620D01*
X219859Y-66579D01*
X219830Y-66538D01*
X219800Y-66508D01*
X219783Y-66479D01*
X219759Y-66462D01*
X219748Y-66444D01*
X219742Y-66432D01*
X219736D01*
X219684Y-66386D01*
X219625Y-66345D01*
X219508Y-66286D01*
X219385Y-66239D01*
X219274Y-66204D01*
X219175Y-66187D01*
X219134Y-66181D01*
X219093D01*
X219063Y-66175D01*
X219040D01*
X219028D01*
X219022D01*
X218900Y-66181D01*
X218783Y-66198D01*
X218683Y-66228D01*
X218595Y-66257D01*
X218519Y-66292D01*
X218467Y-66315D01*
X218432Y-66339D01*
X218420Y-66345D01*
X218326Y-66415D01*
X218250Y-66485D01*
X218186Y-66561D01*
X218133Y-66631D01*
X218092Y-66696D01*
X218063Y-66748D01*
X218051Y-66783D01*
X218045Y-66789D01*
Y-66795D01*
X218028Y-66848D01*
X218010Y-66912D01*
X217987Y-67052D01*
X217964Y-67199D01*
X217952Y-67345D01*
X217946Y-67409D01*
Y-67532D01*
X217940Y-67585D01*
Y-69305D01*
X221784D01*
Y-67585D01*
Y-68527D01*
X220181D01*
Y-68281D01*
X220187Y-68199D01*
X220192Y-68135D01*
X220204Y-68082D01*
X220210Y-68041D01*
X220222Y-68012D01*
X220228Y-67994D01*
Y-67989D01*
X220245Y-67942D01*
X220269Y-67901D01*
X220321Y-67825D01*
X220344Y-67795D01*
X220368Y-67772D01*
X220380Y-67760D01*
X220386Y-67754D01*
X220409Y-67731D01*
X220444Y-67708D01*
X220526Y-67643D01*
X220614Y-67573D01*
X220713Y-67509D01*
X220807Y-67444D01*
X220842Y-67415D01*
X220883Y-67392D01*
X220912Y-67374D01*
X220935Y-67357D01*
X220947Y-67351D01*
X220953Y-67345D01*
X221784Y-66795D01*
Y-65865D01*
D02*
G37*
G36*
X221854Y-70024D02*
X217876D01*
D01*
X219724D01*
Y-71692D01*
X220374D01*
Y-70808D01*
X220865D01*
X220918Y-70878D01*
X220959Y-70949D01*
X221000Y-71019D01*
X221035Y-71083D01*
X221064Y-71142D01*
X221082Y-71188D01*
X221093Y-71218D01*
X221099Y-71229D01*
X221128Y-71323D01*
X221152Y-71411D01*
X221169Y-71493D01*
X221181Y-71563D01*
X221187Y-71627D01*
X221193Y-71674D01*
Y-71715D01*
X221187Y-71803D01*
X221175Y-71890D01*
X221164Y-71972D01*
X221140Y-72048D01*
X221088Y-72183D01*
X221023Y-72294D01*
X220994Y-72347D01*
X220959Y-72388D01*
X220930Y-72423D01*
X220906Y-72458D01*
X220883Y-72481D01*
X220865Y-72499D01*
X220859Y-72505D01*
X220853Y-72510D01*
X220783Y-72563D01*
X220707Y-72610D01*
X220631Y-72651D01*
X220549Y-72680D01*
X220374Y-72739D01*
X220210Y-72774D01*
X220128Y-72786D01*
X220058Y-72791D01*
X219993Y-72797D01*
X219935Y-72803D01*
X219888Y-72809D01*
X219853D01*
X219830D01*
X219824D01*
X219707Y-72803D01*
X219602Y-72797D01*
X219496Y-72780D01*
X219403Y-72762D01*
X219321Y-72739D01*
X219239Y-72715D01*
X219169Y-72692D01*
X219104Y-72663D01*
X219046Y-72633D01*
X218999Y-72610D01*
X218958Y-72587D01*
X218923Y-72563D01*
X218900Y-72546D01*
X218882Y-72528D01*
X218870Y-72522D01*
X218864Y-72516D01*
X218806Y-72458D01*
X218753Y-72394D01*
X218712Y-72329D01*
X218677Y-72265D01*
X218619Y-72130D01*
X218578Y-72001D01*
X218554Y-71885D01*
X218549Y-71838D01*
X218543Y-71791D01*
X218537Y-71756D01*
Y-71709D01*
X218543Y-71592D01*
X218560Y-71481D01*
X218589Y-71387D01*
X218619Y-71305D01*
X218648Y-71241D01*
X218677Y-71194D01*
X218695Y-71165D01*
X218701Y-71153D01*
X218765Y-71077D01*
X218841Y-71013D01*
X218911Y-70960D01*
X218982Y-70919D01*
X219046Y-70884D01*
X219098Y-70867D01*
X219134Y-70855D01*
X219139Y-70849D01*
X219145D01*
X218999Y-70077D01*
X218905Y-70100D01*
X218812Y-70135D01*
X218654Y-70206D01*
X218578Y-70247D01*
X218513Y-70293D01*
X218449Y-70334D01*
X218396Y-70381D01*
X218344Y-70422D01*
X218303Y-70463D01*
X218268Y-70498D01*
X218233Y-70533D01*
X218209Y-70557D01*
X218192Y-70580D01*
X218186Y-70592D01*
X218180Y-70598D01*
X218127Y-70674D01*
X218081Y-70761D01*
X218040Y-70849D01*
X218004Y-70937D01*
X217952Y-71124D01*
X217911Y-71299D01*
X217899Y-71387D01*
X217893Y-71463D01*
X217887Y-71534D01*
X217882Y-71592D01*
X217876Y-71639D01*
Y-71709D01*
X217882Y-71908D01*
X217905Y-72083D01*
X217923Y-72165D01*
X217934Y-72241D01*
X217952Y-72312D01*
X217969Y-72376D01*
X217993Y-72429D01*
X218010Y-72481D01*
X218022Y-72522D01*
X218040Y-72563D01*
X218051Y-72592D01*
X218063Y-72610D01*
X218069Y-72622D01*
Y-72628D01*
X218174Y-72797D01*
X218285Y-72949D01*
X218408Y-73072D01*
X218525Y-73177D01*
X218625Y-73259D01*
X218671Y-73289D01*
X218712Y-73318D01*
X218742Y-73335D01*
X218765Y-73353D01*
X218783Y-73359D01*
X218788Y-73365D01*
X218970Y-73447D01*
X219151Y-73505D01*
X219333Y-73552D01*
X219496Y-73581D01*
X219572Y-73587D01*
X219637Y-73599D01*
X219701Y-73604D01*
X219754D01*
X219795Y-73610D01*
X219853D01*
X220058Y-73599D01*
X220251Y-73575D01*
X220421Y-73540D01*
X220502Y-73523D01*
X220579Y-73499D01*
X220643Y-73476D01*
X220701Y-73458D01*
X220754Y-73441D01*
X220801Y-73423D01*
X220836Y-73406D01*
X220859Y-73400D01*
X220877Y-73388D01*
X220883D01*
X221046Y-73294D01*
X221193Y-73189D01*
X221316Y-73078D01*
X221415Y-72973D01*
X221497Y-72873D01*
X221532Y-72832D01*
X221555Y-72791D01*
X221573Y-72762D01*
X221591Y-72739D01*
X221596Y-72727D01*
X221602Y-72721D01*
X221649Y-72633D01*
X221684Y-72546D01*
X221748Y-72364D01*
X221790Y-72189D01*
X221825Y-72025D01*
X221830Y-71949D01*
X221842Y-71885D01*
X221848Y-71820D01*
Y-71768D01*
X221854Y-71727D01*
Y-73610D01*
D01*
Y-70024D01*
D02*
G37*
G36*
Y-74084D02*
X217876D01*
D01*
X219871D01*
X219701Y-74090D01*
X219537Y-74108D01*
X219385Y-74131D01*
X219245Y-74166D01*
X219116Y-74201D01*
X218999Y-74242D01*
X218888Y-74289D01*
X218788Y-74336D01*
X218701Y-74388D01*
X218625Y-74429D01*
X218560Y-74476D01*
X218508Y-74511D01*
X218461Y-74546D01*
X218432Y-74570D01*
X218414Y-74587D01*
X218408Y-74593D01*
X218315Y-74693D01*
X218233Y-74798D01*
X218162Y-74909D01*
X218098Y-75020D01*
X218051Y-75131D01*
X218004Y-75248D01*
X217969Y-75354D01*
X217940Y-75465D01*
X217923Y-75564D01*
X217905Y-75658D01*
X217893Y-75740D01*
X217882Y-75810D01*
Y-75868D01*
X217876Y-75915D01*
Y-75950D01*
X217882Y-76120D01*
X217899Y-76278D01*
X217929Y-76418D01*
X217952Y-76541D01*
X217969Y-76594D01*
X217981Y-76641D01*
X217999Y-76682D01*
X218010Y-76717D01*
X218016Y-76746D01*
X218028Y-76763D01*
X218034Y-76775D01*
Y-76781D01*
X218081Y-76880D01*
X218133Y-76974D01*
X218192Y-77056D01*
X218250Y-77132D01*
X218297Y-77191D01*
X218338Y-77237D01*
X218367Y-77267D01*
X218379Y-77278D01*
X218467Y-77354D01*
X218560Y-77430D01*
X218648Y-77489D01*
X218730Y-77542D01*
X218800Y-77582D01*
X218859Y-77612D01*
X218894Y-77629D01*
X218900Y-77635D01*
X218905D01*
X219063Y-77694D01*
X219227Y-77735D01*
X219391Y-77764D01*
X219549Y-77781D01*
X219619Y-77793D01*
X219684D01*
X219742Y-77799D01*
X219795Y-77805D01*
X219894D01*
X220064Y-77799D01*
X220222Y-77781D01*
X220368Y-77758D01*
X220508Y-77729D01*
X220637Y-77688D01*
X220754Y-77647D01*
X220859Y-77600D01*
X220959Y-77553D01*
X221046Y-77506D01*
X221123Y-77460D01*
X221187Y-77419D01*
X221240Y-77378D01*
X221281Y-77349D01*
X221310Y-77325D01*
X221327Y-77307D01*
X221333Y-77302D01*
X221427Y-77202D01*
X221503Y-77097D01*
X221573Y-76992D01*
X221632Y-76875D01*
X221684Y-76763D01*
X221725Y-76652D01*
X221760Y-76541D01*
X221790Y-76436D01*
X221813Y-76336D01*
X221825Y-76243D01*
X221836Y-76155D01*
X221848Y-76085D01*
Y-76026D01*
X221854Y-75980D01*
Y-77805D01*
D01*
Y-74084D01*
D02*
G37*
G36*
X221784Y-78080D02*
X217940D01*
D01*
X221784D01*
X221035Y-78548D01*
X220953Y-78600D01*
X220883Y-78647D01*
X220813Y-78688D01*
X220748Y-78735D01*
X220643Y-78805D01*
X220555Y-78869D01*
X220491Y-78922D01*
X220450Y-78957D01*
X220421Y-78981D01*
X220415Y-78987D01*
X220350Y-79051D01*
X220292Y-79121D01*
X220233Y-79191D01*
X220187Y-79256D01*
X220146Y-79314D01*
X220116Y-79361D01*
X220099Y-79390D01*
X220093Y-79396D01*
Y-79402D01*
X220075Y-79308D01*
X220058Y-79226D01*
X220035Y-79144D01*
X220005Y-79074D01*
X219976Y-79004D01*
X219947Y-78940D01*
X219917Y-78887D01*
X219888Y-78834D01*
X219859Y-78793D01*
X219830Y-78752D01*
X219800Y-78723D01*
X219783Y-78694D01*
X219759Y-78676D01*
X219748Y-78659D01*
X219742Y-78647D01*
X219736D01*
X219684Y-78600D01*
X219625Y-78559D01*
X219508Y-78501D01*
X219385Y-78454D01*
X219274Y-78419D01*
X219175Y-78401D01*
X219134Y-78396D01*
X219093D01*
X219063Y-78390D01*
X219040D01*
X219028D01*
X219022D01*
X218900Y-78396D01*
X218783Y-78413D01*
X218683Y-78442D01*
X218595Y-78472D01*
X218519Y-78507D01*
X218467Y-78530D01*
X218432Y-78553D01*
X218420Y-78559D01*
X218326Y-78630D01*
X218250Y-78700D01*
X218186Y-78776D01*
X218133Y-78846D01*
X218092Y-78910D01*
X218063Y-78963D01*
X218051Y-78998D01*
X218045Y-79004D01*
Y-79010D01*
X218028Y-79062D01*
X218010Y-79127D01*
X217987Y-79267D01*
X217964Y-79413D01*
X217952Y-79560D01*
X217946Y-79624D01*
Y-79747D01*
X217940Y-79800D01*
Y-81520D01*
X221784D01*
Y-78080D01*
D02*
G37*
G36*
Y-82157D02*
X217940D01*
D01*
X219128D01*
X218964Y-82169D01*
X218818Y-82192D01*
X218689Y-82227D01*
X218578Y-82268D01*
X218496Y-82315D01*
X218461Y-82333D01*
X218432Y-82350D01*
X218408Y-82362D01*
X218391Y-82374D01*
X218385Y-82385D01*
X218379D01*
X218280Y-82473D01*
X218198Y-82567D01*
X218127Y-82654D01*
X218081Y-82742D01*
X218040Y-82818D01*
X218016Y-82883D01*
X218010Y-82906D01*
X218004Y-82918D01*
X217999Y-82929D01*
Y-82935D01*
X217987Y-82982D01*
X217981Y-83035D01*
X217969Y-83099D01*
X217964Y-83169D01*
X217952Y-83321D01*
X217946Y-83479D01*
Y-83555D01*
X217940Y-83626D01*
Y-85100D01*
X221784D01*
Y-82157D01*
D02*
G37*
%LPD*%
G36*
Y-59348D02*
X218759Y-58587D01*
X221784Y-58582D01*
Y-59348D01*
D02*
G37*
G36*
Y-60851D02*
X218759D01*
X221784Y-60091D01*
Y-60851D01*
D02*
G37*
G36*
X220263Y-64449D02*
X218835Y-63929D01*
X220263Y-63390D01*
Y-64449D01*
D02*
G37*
G36*
X219134Y-66982D02*
X219186Y-66988D01*
X219239Y-67000D01*
X219280Y-67017D01*
X219315Y-67035D01*
X219338Y-67047D01*
X219356Y-67052D01*
X219362Y-67058D01*
X219403Y-67088D01*
X219432Y-67123D01*
X219485Y-67193D01*
X219496Y-67228D01*
X219508Y-67251D01*
X219520Y-67269D01*
Y-67275D01*
X219526Y-67304D01*
X219537Y-67345D01*
X219543Y-67386D01*
X219549Y-67439D01*
X219555Y-67550D01*
X219561Y-67667D01*
X219566Y-67778D01*
Y-68527D01*
X218589D01*
Y-67643D01*
X218595Y-67591D01*
Y-67474D01*
X218601Y-67421D01*
Y-67392D01*
X218607Y-67374D01*
Y-67368D01*
X218625Y-67304D01*
X218642Y-67246D01*
X218666Y-67199D01*
X218695Y-67158D01*
X218718Y-67123D01*
X218742Y-67099D01*
X218753Y-67088D01*
X218759Y-67082D01*
X218806Y-67047D01*
X218859Y-67023D01*
X218911Y-67000D01*
X218958Y-66988D01*
X218999Y-66982D01*
X219034Y-66976D01*
X219063D01*
X219069D01*
X219134Y-66982D01*
D02*
G37*
G36*
X221854Y-71668D02*
X221848Y-71493D01*
X221825Y-71323D01*
X221795Y-71165D01*
X221766Y-71025D01*
X221748Y-70960D01*
X221731Y-70902D01*
X221719Y-70855D01*
X221708Y-70814D01*
X221696Y-70779D01*
X221684Y-70755D01*
X221678Y-70738D01*
Y-70732D01*
X221608Y-70568D01*
X221538Y-70428D01*
X221468Y-70305D01*
X221403Y-70206D01*
X221345Y-70124D01*
X221304Y-70071D01*
X221275Y-70036D01*
X221263Y-70024D01*
X221854D01*
Y-71668D01*
D02*
G37*
G36*
Y-75944D02*
X221848Y-75787D01*
X221830Y-75640D01*
X221807Y-75506D01*
X221772Y-75377D01*
X221731Y-75254D01*
X221690Y-75143D01*
X221643Y-75044D01*
X221591Y-74950D01*
X221544Y-74868D01*
X221497Y-74798D01*
X221456Y-74734D01*
X221415Y-74687D01*
X221380Y-74646D01*
X221357Y-74616D01*
X221339Y-74599D01*
X221333Y-74593D01*
X221228Y-74505D01*
X221117Y-74423D01*
X221000Y-74359D01*
X220883Y-74301D01*
X220760Y-74248D01*
X220637Y-74207D01*
X220520Y-74172D01*
X220403Y-74148D01*
X220298Y-74125D01*
X220192Y-74113D01*
X220105Y-74102D01*
X220023Y-74090D01*
X219958D01*
X219912Y-74084D01*
X221854D01*
Y-75944D01*
D02*
G37*
G36*
X219976Y-74891D02*
X220087Y-74897D01*
X220198Y-74915D01*
X220292Y-74932D01*
X220386Y-74956D01*
X220467Y-74979D01*
X220543Y-75008D01*
X220608Y-75032D01*
X220666Y-75061D01*
X220719Y-75090D01*
X220760Y-75114D01*
X220795Y-75137D01*
X220824Y-75155D01*
X220842Y-75172D01*
X220853Y-75178D01*
X220859Y-75184D01*
X220918Y-75242D01*
X220971Y-75301D01*
X221011Y-75365D01*
X221052Y-75430D01*
X221082Y-75494D01*
X221111Y-75558D01*
X221152Y-75675D01*
X221175Y-75781D01*
X221181Y-75827D01*
X221187Y-75868D01*
X221193Y-75898D01*
Y-75944D01*
X221187Y-76026D01*
X221181Y-76108D01*
X221164Y-76184D01*
X221140Y-76260D01*
X221088Y-76389D01*
X221023Y-76500D01*
X220965Y-76588D01*
X220935Y-76623D01*
X220912Y-76652D01*
X220889Y-76676D01*
X220871Y-76693D01*
X220865Y-76699D01*
X220859Y-76705D01*
X220795Y-76758D01*
X220719Y-76804D01*
X220643Y-76845D01*
X220561Y-76875D01*
X220397Y-76933D01*
X220233Y-76968D01*
X220157Y-76980D01*
X220087Y-76986D01*
X220029Y-76992D01*
X219970Y-76998D01*
X219929Y-77003D01*
X219894D01*
X219871D01*
X219865D01*
X219742Y-76998D01*
X219631Y-76992D01*
X219526Y-76974D01*
X219426Y-76956D01*
X219338Y-76939D01*
X219256Y-76910D01*
X219180Y-76886D01*
X219116Y-76857D01*
X219057Y-76834D01*
X219011Y-76804D01*
X218964Y-76781D01*
X218929Y-76763D01*
X218905Y-76740D01*
X218888Y-76728D01*
X218876Y-76723D01*
X218870Y-76717D01*
X218812Y-76658D01*
X218759Y-76600D01*
X218718Y-76535D01*
X218677Y-76471D01*
X218642Y-76407D01*
X218619Y-76342D01*
X218578Y-76219D01*
X218554Y-76114D01*
X218549Y-76067D01*
X218543Y-76026D01*
X218537Y-75991D01*
Y-75944D01*
X218543Y-75857D01*
X218549Y-75775D01*
X218589Y-75623D01*
X218642Y-75488D01*
X218701Y-75383D01*
X218730Y-75336D01*
X218759Y-75295D01*
X218788Y-75260D01*
X218812Y-75231D01*
X218835Y-75207D01*
X218853Y-75190D01*
X218859Y-75184D01*
X218864Y-75178D01*
X218929Y-75125D01*
X218999Y-75079D01*
X219075Y-75044D01*
X219157Y-75008D01*
X219321Y-74956D01*
X219479Y-74921D01*
X219555Y-74909D01*
X219625Y-74903D01*
X219689Y-74891D01*
X219742D01*
X219789Y-74886D01*
X219824D01*
X219847D01*
X219853D01*
X219976Y-74891D01*
D02*
G37*
G36*
X221784Y-80741D02*
X220181D01*
Y-80496D01*
X220187Y-80414D01*
X220192Y-80349D01*
X220204Y-80297D01*
X220210Y-80256D01*
X220222Y-80227D01*
X220228Y-80209D01*
Y-80203D01*
X220245Y-80156D01*
X220269Y-80115D01*
X220321Y-80039D01*
X220344Y-80010D01*
X220368Y-79987D01*
X220380Y-79975D01*
X220386Y-79969D01*
X220409Y-79946D01*
X220444Y-79922D01*
X220526Y-79858D01*
X220614Y-79788D01*
X220713Y-79724D01*
X220807Y-79659D01*
X220842Y-79630D01*
X220883Y-79607D01*
X220912Y-79589D01*
X220935Y-79571D01*
X220947Y-79566D01*
X220953Y-79560D01*
X221784Y-79010D01*
Y-80741D01*
D02*
G37*
G36*
X219134Y-79197D02*
X219186Y-79203D01*
X219239Y-79215D01*
X219280Y-79232D01*
X219315Y-79250D01*
X219338Y-79261D01*
X219356Y-79267D01*
X219362Y-79273D01*
X219403Y-79302D01*
X219432Y-79338D01*
X219485Y-79408D01*
X219496Y-79443D01*
X219508Y-79466D01*
X219520Y-79484D01*
Y-79489D01*
X219526Y-79519D01*
X219537Y-79560D01*
X219543Y-79601D01*
X219549Y-79653D01*
X219555Y-79764D01*
X219561Y-79882D01*
X219566Y-79993D01*
Y-80741D01*
X218589D01*
Y-79858D01*
X218595Y-79805D01*
Y-79689D01*
X218601Y-79636D01*
Y-79607D01*
X218607Y-79589D01*
Y-79583D01*
X218625Y-79519D01*
X218642Y-79460D01*
X218666Y-79413D01*
X218695Y-79373D01*
X218718Y-79338D01*
X218742Y-79314D01*
X218753Y-79302D01*
X218759Y-79296D01*
X218806Y-79261D01*
X218859Y-79238D01*
X218911Y-79215D01*
X218958Y-79203D01*
X218999Y-79197D01*
X219034Y-79191D01*
X219063D01*
X219069D01*
X219134Y-79197D01*
D02*
G37*
G36*
X221784Y-84322D02*
X220333D01*
Y-83631D01*
X220327Y-83549D01*
Y-83473D01*
X220321Y-83397D01*
X220315Y-83333D01*
X220309Y-83275D01*
X220304Y-83222D01*
Y-83175D01*
X220298Y-83134D01*
X220292Y-83099D01*
X220286Y-83070D01*
Y-83046D01*
X220280Y-83029D01*
Y-83017D01*
X220257Y-82941D01*
X220233Y-82865D01*
X220204Y-82801D01*
X220169Y-82736D01*
X220146Y-82689D01*
X220122Y-82649D01*
X220105Y-82619D01*
X220099Y-82613D01*
X220040Y-82543D01*
X219982Y-82479D01*
X219917Y-82420D01*
X219853Y-82374D01*
X219800Y-82339D01*
X219759Y-82309D01*
X219730Y-82292D01*
X219719Y-82286D01*
X219625Y-82245D01*
X219526Y-82210D01*
X219426Y-82186D01*
X219333Y-82175D01*
X219251Y-82163D01*
X219186Y-82157D01*
X221784D01*
Y-84322D01*
D02*
G37*
G36*
X219198Y-82964D02*
X219256Y-82970D01*
X219309Y-82988D01*
X219350Y-82999D01*
X219385Y-83017D01*
X219414Y-83035D01*
X219432Y-83040D01*
X219438Y-83046D01*
X219485Y-83081D01*
X219520Y-83122D01*
X219555Y-83163D01*
X219578Y-83204D01*
X219602Y-83239D01*
X219613Y-83269D01*
X219619Y-83286D01*
X219625Y-83292D01*
X219637Y-83321D01*
X219642Y-83362D01*
X219660Y-83450D01*
X219672Y-83549D01*
X219678Y-83655D01*
Y-83748D01*
X219684Y-83789D01*
Y-84322D01*
X218589D01*
Y-83742D01*
X218595Y-83690D01*
X218601Y-83590D01*
Y-83514D01*
X218607Y-83462D01*
X218613Y-83427D01*
X218619Y-83403D01*
Y-83397D01*
X218636Y-83327D01*
X218660Y-83269D01*
X218689Y-83210D01*
X218718Y-83169D01*
X218747Y-83128D01*
X218771Y-83105D01*
X218788Y-83087D01*
X218794Y-83081D01*
X218847Y-83040D01*
X218905Y-83011D01*
X218964Y-82988D01*
X219017Y-82976D01*
X219063Y-82964D01*
X219104Y-82959D01*
X219128D01*
X219139D01*
X219198Y-82964D01*
D02*
G37*
%LPC*%
G36*
X118195Y-148785D02*
Y-151517D01*
X118190Y-151394D01*
X118166Y-151283D01*
X118137Y-151189D01*
X118102Y-151102D01*
X118061Y-151031D01*
X118032Y-150979D01*
X118008Y-150950D01*
X118002Y-150938D01*
X117926Y-150850D01*
X117839Y-150774D01*
X117751Y-150716D01*
X117663Y-150669D01*
X117587Y-150634D01*
X117523Y-150604D01*
X117499Y-150599D01*
X117482Y-150593D01*
X117470Y-150587D01*
X117464D01*
X117552Y-150540D01*
X117634Y-150487D01*
X117698Y-150435D01*
X117757Y-150376D01*
X117804Y-150329D01*
X117833Y-150288D01*
X117856Y-150265D01*
X117862Y-150253D01*
X117909Y-150166D01*
X117944Y-150078D01*
X117973Y-149996D01*
X117991Y-149920D01*
X118002Y-149856D01*
X118008Y-149803D01*
Y-149768D01*
Y-149756D01*
X118002Y-149663D01*
X117991Y-149581D01*
X117967Y-149505D01*
X117950Y-149434D01*
X117926Y-149382D01*
X117903Y-149341D01*
X117891Y-149317D01*
X117885Y-149306D01*
X117839Y-149235D01*
X117792Y-149171D01*
X117739Y-149118D01*
X117698Y-149072D01*
X117657Y-149031D01*
X117622Y-149007D01*
X117599Y-148990D01*
X117593Y-148984D01*
X117523Y-148943D01*
X117458Y-148908D01*
X117388Y-148879D01*
X117324Y-148861D01*
X117271Y-148844D01*
X117230Y-148832D01*
X117201Y-148826D01*
X117189D01*
X117096Y-148814D01*
X116990Y-148803D01*
X116879Y-148797D01*
X116768Y-148791D01*
X116669Y-148785D01*
X118195D01*
X114978D01*
Y-152629D01*
X118195D01*
X116645D01*
X116745Y-152623D01*
X116903D01*
X116973Y-152617D01*
X117078D01*
X117119Y-152611D01*
X117177D01*
X117195Y-152605D01*
X117218D01*
X117330Y-152588D01*
X117429Y-152564D01*
X117517Y-152535D01*
X117593Y-152500D01*
X117657Y-152471D01*
X117704Y-152447D01*
X117727Y-152430D01*
X117739Y-152424D01*
X117815Y-152365D01*
X117879Y-152295D01*
X117938Y-152231D01*
X117985Y-152166D01*
X118020Y-152114D01*
X118049Y-152067D01*
X118067Y-152038D01*
X118073Y-152026D01*
X118114Y-151932D01*
X118143Y-151845D01*
X118166Y-151757D01*
X118178Y-151681D01*
X118190Y-151611D01*
X118195Y-151564D01*
Y-148785D01*
D02*
G37*
G36*
X128766D02*
X125730D01*
Y-149434D01*
X126859D01*
Y-152629D01*
X125730D01*
X128766D01*
Y-148785D01*
D02*
G37*
G36*
X125490D02*
X122454D01*
Y-149434D01*
X123583D01*
Y-152629D01*
X122454D01*
X125490D01*
Y-148785D01*
D02*
G37*
G36*
X120870D02*
X119950D01*
X118459Y-152629D01*
X122314D01*
D01*
X120770Y-148785D01*
X120870D01*
D02*
G37*
%LPD*%
G36*
X116593Y-149429D02*
X116733D01*
X116768Y-149434D01*
X116832D01*
X116856Y-149440D01*
X116862D01*
X116932Y-149452D01*
X116990Y-149469D01*
X117037Y-149493D01*
X117078Y-149516D01*
X117113Y-149540D01*
X117137Y-149557D01*
X117148Y-149569D01*
X117154Y-149575D01*
X117189Y-149622D01*
X117213Y-149668D01*
X117230Y-149715D01*
X117242Y-149762D01*
X117248Y-149797D01*
X117254Y-149832D01*
Y-149856D01*
Y-149862D01*
X117248Y-149926D01*
X117236Y-149990D01*
X117218Y-150037D01*
X117195Y-150084D01*
X117172Y-150119D01*
X117154Y-150142D01*
X117142Y-150160D01*
X117137Y-150166D01*
X117090Y-150201D01*
X117043Y-150236D01*
X116990Y-150259D01*
X116938Y-150277D01*
X116897Y-150288D01*
X116862Y-150294D01*
X116838Y-150300D01*
X116803D01*
X116768Y-150306D01*
X116598D01*
X116499Y-150312D01*
X115756D01*
Y-149423D01*
X116534D01*
X116593Y-149429D01*
D02*
G37*
G36*
X116639Y-150955D02*
X116709Y-150961D01*
X116774D01*
X116826Y-150967D01*
X116879Y-150973D01*
X116920Y-150979D01*
X116955Y-150985D01*
X116990Y-150990D01*
X117031Y-150996D01*
X117060Y-151008D01*
X117066D01*
X117125Y-151031D01*
X117172Y-151055D01*
X117213Y-151084D01*
X117248Y-151113D01*
X117271Y-151143D01*
X117289Y-151166D01*
X117300Y-151178D01*
X117306Y-151184D01*
X117335Y-151230D01*
X117359Y-151283D01*
X117371Y-151330D01*
X117382Y-151377D01*
X117388Y-151418D01*
X117394Y-151447D01*
Y-151470D01*
Y-151476D01*
X117388Y-151546D01*
X117376Y-151611D01*
X117359Y-151669D01*
X117341Y-151716D01*
X117318Y-151751D01*
X117300Y-151780D01*
X117289Y-151798D01*
X117283Y-151804D01*
X117242Y-151845D01*
X117195Y-151880D01*
X117142Y-151903D01*
X117102Y-151927D01*
X117060Y-151938D01*
X117031Y-151950D01*
X117008Y-151956D01*
X117002D01*
X116979Y-151962D01*
X116949D01*
X116873Y-151968D01*
X116786Y-151973D01*
X116692D01*
X116610Y-151979D01*
X115756D01*
Y-150950D01*
X116557D01*
X116639Y-150955D01*
D02*
G37*
G36*
X128766Y-152629D02*
X127637D01*
Y-149434D01*
X128766D01*
Y-152629D01*
D02*
G37*
G36*
X125490D02*
X124361D01*
Y-149434D01*
X125490D01*
Y-152629D01*
D02*
G37*
G36*
X120892Y-151108D02*
X119833D01*
X120354Y-149680D01*
X120892Y-151108D01*
D02*
G37*
G36*
X121472Y-152629D02*
X119278D01*
X119594Y-151757D01*
X121144D01*
X121472Y-152629D01*
D02*
G37*
%LPC*%
G36*
X57028Y-172624D02*
X55537Y-175822D01*
X56184Y-176124D01*
X56806Y-174790D01*
X57010Y-174885D01*
X57076Y-174922D01*
X57127Y-174952D01*
X57167Y-174982D01*
X57198Y-175003D01*
X57218Y-175024D01*
X57231Y-175036D01*
X57235Y-175038D01*
X57267Y-175071D01*
X57292Y-175106D01*
X57335Y-175179D01*
X57351Y-175210D01*
X57361Y-175239D01*
X57366Y-175253D01*
X57369Y-175260D01*
X57379Y-175289D01*
X57385Y-175327D01*
X57407Y-175420D01*
X57431Y-175520D01*
X57446Y-175628D01*
X57463Y-175731D01*
X57474Y-175771D01*
X57478Y-175814D01*
X57481Y-175846D01*
X57486Y-175872D01*
X57487Y-175884D01*
X57489Y-175891D01*
X57625Y-176795D01*
X58398Y-177156D01*
X58299Y-176352D01*
X58288Y-176263D01*
X58276Y-176187D01*
X58269Y-176112D01*
X58255Y-176041D01*
X58237Y-175926D01*
X58218Y-175828D01*
X58199Y-175754D01*
X58186Y-175706D01*
X58178Y-175673D01*
X58175Y-175666D01*
X58147Y-175587D01*
X58111Y-175511D01*
X58075Y-175435D01*
X58040Y-175372D01*
X58007Y-175315D01*
X57979Y-175272D01*
X57962Y-175246D01*
X57959Y-175239D01*
X57954Y-175237D01*
X58039Y-175259D01*
X58114Y-175276D01*
X58191Y-175288D01*
X58261Y-175291D01*
X58331Y-175294D01*
X58395Y-175294D01*
X58451Y-175291D01*
X58506Y-175287D01*
X58551Y-175278D01*
X58597Y-175270D01*
X58632Y-175257D01*
X58663Y-175253D01*
X58687Y-175241D01*
X58706Y-175238D01*
X58718Y-175238D01*
X58721Y-175233D01*
X58780Y-175207D01*
X58837Y-175174D01*
X58931Y-175100D01*
X59017Y-175016D01*
X59090Y-174937D01*
X59143Y-174861D01*
X59164Y-174829D01*
X59180Y-174795D01*
X59196Y-174773D01*
X59205Y-174753D01*
X59209Y-174744D01*
X59212Y-174739D01*
X59254Y-174634D01*
X59285Y-174530D01*
X59299Y-174436D01*
X59309Y-174352D01*
X59309Y-174275D01*
X59310Y-174222D01*
X59304Y-174184D01*
X59304Y-174172D01*
X59282Y-174067D01*
X59253Y-173976D01*
X59215Y-173893D01*
X59177Y-173822D01*
X59139Y-173763D01*
X59107Y-173718D01*
X59082Y-173695D01*
X59080Y-173688D01*
X59075Y-173686D01*
X59038Y-173651D01*
X58991Y-173611D01*
X58883Y-173537D01*
X58771Y-173461D01*
X58653Y-173394D01*
X58602Y-173364D01*
X58500Y-173317D01*
X58459Y-173292D01*
X57028Y-172624D01*
D02*
G37*
G36*
X60250Y-174127D02*
X58758Y-177324D01*
X61187Y-178457D01*
X61439Y-177917D01*
X59658Y-177086D01*
X60062Y-176219D01*
X61658Y-176964D01*
X61910Y-176424D01*
X60314Y-175679D01*
X60645Y-174969D01*
X62363Y-175770D01*
X62615Y-175230D01*
X60250Y-174127D01*
D02*
G37*
G36*
X63695Y-175798D02*
X63687Y-175801D01*
X63683Y-175799D01*
X63570Y-175799D01*
X63467Y-175817D01*
X63374Y-175838D01*
X63295Y-175867D01*
X63229Y-175895D01*
X63177Y-175918D01*
X63146Y-175934D01*
X63139Y-175936D01*
X63136Y-175941D01*
X63054Y-176003D01*
X62984Y-176065D01*
X62923Y-176132D01*
X62877Y-176193D01*
X62837Y-176252D01*
X62807Y-176291D01*
X62798Y-176311D01*
X62791Y-176325D01*
X62789Y-176330D01*
X62787Y-176335D01*
X62760Y-176405D01*
X62738Y-176478D01*
X62723Y-176548D01*
X62710Y-176613D01*
X62707Y-176748D01*
X62717Y-176865D01*
X62728Y-176918D01*
X62734Y-176968D01*
X62745Y-177009D01*
X62758Y-177044D01*
X62764Y-177071D01*
X62771Y-177092D01*
X62777Y-177106D01*
X62779Y-177113D01*
X62807Y-177168D01*
X62840Y-177225D01*
X62918Y-177338D01*
X63014Y-177448D01*
X63115Y-177549D01*
X63204Y-177638D01*
X63246Y-177675D01*
X63285Y-177705D01*
X63315Y-177731D01*
X63335Y-177752D01*
X63352Y-177766D01*
X63357Y-177768D01*
X63421Y-177822D01*
X63477Y-177866D01*
X63529Y-177907D01*
X63576Y-177947D01*
X63617Y-177984D01*
X63652Y-178012D01*
X63686Y-178040D01*
X63711Y-178063D01*
X63753Y-178101D01*
X63782Y-178126D01*
X63797Y-178145D01*
X63802Y-178147D01*
X63849Y-178199D01*
X63886Y-178246D01*
X63916Y-178284D01*
X63939Y-178324D01*
X63954Y-178355D01*
X63962Y-178376D01*
X63967Y-178390D01*
X63970Y-178398D01*
X63981Y-178438D01*
X63979Y-178479D01*
X63972Y-178546D01*
X63963Y-178578D01*
X63959Y-178600D01*
X63952Y-178614D01*
X63950Y-178619D01*
X63915Y-178680D01*
X63868Y-178729D01*
X63819Y-178772D01*
X63770Y-178802D01*
X63717Y-178825D01*
X63682Y-178838D01*
X63653Y-178848D01*
X63646Y-178851D01*
X63562Y-178865D01*
X63473Y-178865D01*
X63386Y-178848D01*
X63300Y-178831D01*
X63227Y-178809D01*
X63171Y-178789D01*
X63117Y-178764D01*
X63013Y-178709D01*
X62929Y-178647D01*
X62863Y-178586D01*
X62806Y-178530D01*
X62766Y-178476D01*
X62736Y-178438D01*
X62721Y-178408D01*
X62713Y-178398D01*
X62685Y-178308D01*
X62670Y-178212D01*
X62667Y-178116D01*
X62672Y-178029D01*
X62682Y-177945D01*
X62692Y-177885D01*
X62699Y-177858D01*
X62705Y-177843D01*
X62705Y-177831D01*
X62707Y-177826D01*
X62050Y-177597D01*
X62019Y-177701D01*
X61996Y-177803D01*
X61979Y-177902D01*
X61967Y-177991D01*
X61967Y-178080D01*
X61965Y-178162D01*
X61971Y-178236D01*
X61978Y-178310D01*
X61992Y-178370D01*
X62001Y-178427D01*
X62014Y-178475D01*
X62025Y-178516D01*
X62038Y-178551D01*
X62046Y-178573D01*
X62051Y-178587D01*
X62053Y-178594D01*
X62094Y-178672D01*
X62147Y-178750D01*
X62204Y-178818D01*
X62261Y-178886D01*
X62327Y-178947D01*
X62394Y-179007D01*
X62529Y-179112D01*
X62597Y-179156D01*
X62656Y-179195D01*
X62712Y-179227D01*
X62758Y-179255D01*
X62800Y-179280D01*
X62858Y-179307D01*
X63011Y-179373D01*
X63150Y-179419D01*
X63273Y-179459D01*
X63387Y-179482D01*
X63435Y-179493D01*
X63479Y-179502D01*
X63512Y-179506D01*
X63544Y-179514D01*
X63568Y-179514D01*
X63585Y-179516D01*
X63597Y-179515D01*
X63602Y-179517D01*
X63727Y-179516D01*
X63836Y-179497D01*
X63942Y-179474D01*
X64027Y-179443D01*
X64099Y-179417D01*
X64153Y-179390D01*
X64191Y-179372D01*
X64198Y-179369D01*
X64201Y-179364D01*
X64297Y-179297D01*
X64379Y-179222D01*
X64444Y-179146D01*
X64500Y-179077D01*
X64542Y-179014D01*
X64576Y-178965D01*
X64599Y-178916D01*
X64644Y-178807D01*
X64675Y-178702D01*
X64691Y-178604D01*
X64706Y-178522D01*
X64709Y-178452D01*
X64707Y-178392D01*
X64704Y-178361D01*
X64704Y-178349D01*
X64684Y-178251D01*
X64662Y-178157D01*
X64629Y-178077D01*
X64593Y-178001D01*
X64561Y-177944D01*
X64535Y-177897D01*
X64513Y-177868D01*
X64510Y-177861D01*
X64505Y-177859D01*
X64473Y-177814D01*
X64433Y-177772D01*
X64342Y-177676D01*
X64246Y-177590D01*
X64147Y-177497D01*
X64056Y-177425D01*
X64019Y-177390D01*
X63985Y-177362D01*
X63955Y-177336D01*
X63933Y-177320D01*
X63921Y-177308D01*
X63916Y-177306D01*
X63842Y-177248D01*
X63776Y-177187D01*
X63717Y-177136D01*
X63668Y-177089D01*
X63616Y-177047D01*
X63581Y-177007D01*
X63544Y-176972D01*
X63519Y-176937D01*
X63492Y-176907D01*
X63472Y-176885D01*
X63442Y-176848D01*
X63430Y-176824D01*
X63427Y-176817D01*
X63414Y-176769D01*
X63403Y-176729D01*
X63404Y-176688D01*
X63403Y-176652D01*
X63412Y-176620D01*
X63416Y-176599D01*
X63423Y-176584D01*
X63425Y-176579D01*
X63451Y-176538D01*
X63478Y-176503D01*
X63509Y-176476D01*
X63542Y-176456D01*
X63573Y-176441D01*
X63594Y-176433D01*
X63609Y-176428D01*
X63616Y-176425D01*
X63697Y-176416D01*
X63784Y-176421D01*
X63866Y-176435D01*
X63941Y-176452D01*
X64009Y-176472D01*
X64064Y-176492D01*
X64108Y-176513D01*
X64203Y-176563D01*
X64279Y-176616D01*
X64341Y-176662D01*
X64390Y-176709D01*
X64422Y-176754D01*
X64445Y-176782D01*
X64457Y-176806D01*
X64460Y-176813D01*
X64488Y-176879D01*
X64502Y-176951D01*
X64504Y-177023D01*
X64501Y-177093D01*
X64496Y-177155D01*
X64485Y-177204D01*
X64481Y-177237D01*
X64479Y-177242D01*
X64477Y-177247D01*
X65135Y-177525D01*
X65167Y-177445D01*
X65188Y-177360D01*
X65203Y-177278D01*
X65215Y-177201D01*
X65216Y-177059D01*
X65217Y-176994D01*
X65210Y-176932D01*
X65201Y-176874D01*
X65191Y-176822D01*
X65182Y-176776D01*
X65169Y-176741D01*
X65159Y-176712D01*
X65151Y-176691D01*
X65146Y-176676D01*
X65143Y-176669D01*
X65107Y-176593D01*
X65057Y-176523D01*
X65007Y-176452D01*
X64948Y-176389D01*
X64820Y-176270D01*
X64688Y-176172D01*
X64624Y-176131D01*
X64565Y-176092D01*
X64509Y-176060D01*
X64458Y-176030D01*
X64421Y-176007D01*
X64363Y-175979D01*
X64229Y-175923D01*
X64100Y-175881D01*
X63987Y-175846D01*
X63885Y-175822D01*
X63801Y-175812D01*
X63767Y-175808D01*
X63740Y-175802D01*
X63716Y-175803D01*
X63695Y-175798D01*
D02*
G37*
G36*
X66207Y-176904D02*
X64716Y-180102D01*
X67144Y-181235D01*
X67396Y-180694D01*
X65615Y-179864D01*
X66019Y-178997D01*
X67615Y-179742D01*
X67867Y-179201D01*
X66271Y-178457D01*
X66602Y-177747D01*
X68320Y-178548D01*
X68572Y-178007D01*
X66207Y-176904D01*
D02*
G37*
G36*
X68961Y-178189D02*
X68709Y-178729D01*
X69649Y-179167D01*
X68410Y-181825D01*
X69057Y-182126D01*
X70296Y-179469D01*
X71235Y-179907D01*
X71487Y-179367D01*
X68961Y-178189D01*
D02*
G37*
%LPD*%
G36*
X58158Y-173809D02*
X58200Y-173834D01*
X58297Y-173880D01*
X58338Y-173905D01*
X58363Y-173916D01*
X58375Y-173928D01*
X58380Y-173930D01*
X58427Y-173970D01*
X58469Y-174007D01*
X58498Y-174045D01*
X58521Y-174085D01*
X58541Y-174118D01*
X58552Y-174147D01*
X58557Y-174161D01*
X58559Y-174168D01*
X58570Y-174221D01*
X58569Y-174274D01*
X58569Y-174326D01*
X58560Y-174370D01*
X58549Y-174406D01*
X58540Y-174438D01*
X58529Y-174462D01*
X58527Y-174467D01*
X58497Y-174518D01*
X58472Y-174560D01*
X58441Y-174599D01*
X58411Y-174626D01*
X58383Y-174649D01*
X58364Y-174663D01*
X58352Y-174676D01*
X58345Y-174678D01*
X58305Y-174701D01*
X58264Y-174712D01*
X58185Y-174728D01*
X58152Y-174724D01*
X58128Y-174725D01*
X58109Y-174728D01*
X58104Y-174726D01*
X58077Y-174719D01*
X58039Y-174713D01*
X58002Y-174702D01*
X57956Y-174687D01*
X57861Y-174648D01*
X57762Y-174608D01*
X57667Y-174570D01*
X57044Y-174279D01*
X57423Y-173466D01*
X58158Y-173809D01*
D02*
G37*
%LPC*%
G36*
X151026Y-89967D02*
X150956D01*
X150798Y-89973D01*
X150652Y-89990D01*
X150523Y-90008D01*
X150412Y-90031D01*
X150324Y-90060D01*
X150289Y-90072D01*
X150260Y-90078D01*
X150237Y-90090D01*
X150213Y-90096D01*
X150207Y-90101D01*
X150202D01*
X150090Y-90154D01*
X149997Y-90218D01*
X149915Y-90283D01*
X149851Y-90347D01*
X149798Y-90406D01*
X149757Y-90452D01*
X149734Y-90482D01*
X149728Y-90487D01*
Y-90493D01*
X149675Y-90593D01*
X149634Y-90686D01*
X149605Y-90780D01*
X149587Y-90862D01*
X149576Y-90938D01*
X149564Y-90991D01*
Y-91014D01*
Y-91031D01*
Y-91037D01*
Y-91043D01*
X149570Y-91125D01*
X149582Y-91207D01*
X149599Y-91283D01*
X149617Y-91353D01*
X149675Y-91488D01*
X149739Y-91599D01*
X149775Y-91646D01*
X149804Y-91693D01*
X149833Y-91728D01*
X149862Y-91757D01*
X149880Y-91780D01*
X149897Y-91798D01*
X149909Y-91810D01*
X149915Y-91815D01*
X149968Y-91856D01*
X150026Y-91897D01*
X150155Y-91973D01*
X150301Y-92038D01*
X150447Y-92090D01*
X150576Y-92137D01*
X150635Y-92155D01*
X150687Y-92166D01*
X150728Y-92178D01*
X150757Y-92190D01*
X150781Y-92196D01*
X150787D01*
X150874Y-92219D01*
X150950Y-92237D01*
X151021Y-92254D01*
X151085Y-92272D01*
X151143Y-92289D01*
X151190Y-92301D01*
X151237Y-92313D01*
X151272Y-92324D01*
X151331Y-92342D01*
X151372Y-92354D01*
X151395Y-92365D01*
X151401D01*
X151471Y-92395D01*
X151530Y-92424D01*
X151576Y-92447D01*
X151617Y-92476D01*
X151646Y-92500D01*
X151664Y-92517D01*
X151676Y-92529D01*
X151682Y-92535D01*
X151711Y-92570D01*
X151728Y-92611D01*
X151752Y-92681D01*
X151758Y-92716D01*
X151763Y-92740D01*
Y-92757D01*
Y-92763D01*
X151758Y-92839D01*
X151734Y-92909D01*
X151705Y-92974D01*
X151670Y-93026D01*
X151629Y-93073D01*
X151600Y-93102D01*
X151576Y-93126D01*
X151570Y-93132D01*
X151494Y-93184D01*
X151407Y-93225D01*
X151313Y-93249D01*
X151219Y-93272D01*
X151138Y-93284D01*
X151073Y-93290D01*
X151009D01*
X150880Y-93284D01*
X150769Y-93260D01*
X150675Y-93231D01*
X150593Y-93202D01*
X150529Y-93167D01*
X150482Y-93143D01*
X150453Y-93120D01*
X150441Y-93114D01*
X150371Y-93038D01*
X150313Y-92950D01*
X150266Y-92857D01*
X150231Y-92769D01*
X150202Y-92681D01*
X150184Y-92617D01*
X150178Y-92588D01*
Y-92570D01*
X150172Y-92558D01*
Y-92553D01*
X149418Y-92629D01*
X149435Y-92746D01*
X149459Y-92857D01*
X149488Y-92962D01*
X149517Y-93056D01*
X149558Y-93143D01*
X149593Y-93225D01*
X149634Y-93296D01*
X149675Y-93366D01*
X149716Y-93418D01*
X149751Y-93471D01*
X149786Y-93512D01*
X149815Y-93547D01*
X149845Y-93576D01*
X149862Y-93594D01*
X149874Y-93606D01*
X149880Y-93611D01*
X149956Y-93670D01*
X150044Y-93722D01*
X150131Y-93764D01*
X150219Y-93804D01*
X150313Y-93834D01*
X150406Y-93863D01*
X150588Y-93904D01*
X150675Y-93916D01*
X150751Y-93927D01*
X150822Y-93933D01*
X150880Y-93939D01*
X150933Y-93945D01*
X149418D01*
X152542D01*
D01*
X151003D01*
X151184Y-93939D01*
X151342Y-93921D01*
X151483Y-93904D01*
X151606Y-93875D01*
X151658Y-93863D01*
X151705Y-93851D01*
X151740Y-93840D01*
X151775Y-93834D01*
X151799Y-93822D01*
X151816Y-93816D01*
X151828Y-93810D01*
X151834D01*
X151957Y-93752D01*
X152056Y-93682D01*
X152150Y-93611D01*
X152220Y-93541D01*
X152278Y-93483D01*
X152319Y-93430D01*
X152348Y-93395D01*
X152354Y-93389D01*
Y-93383D01*
X152419Y-93272D01*
X152465Y-93161D01*
X152495Y-93056D01*
X152518Y-92962D01*
X152530Y-92880D01*
X152542Y-92816D01*
Y-92757D01*
X152536Y-92629D01*
X152518Y-92512D01*
X152489Y-92406D01*
X152465Y-92318D01*
X152436Y-92248D01*
X152407Y-92190D01*
X152390Y-92161D01*
X152384Y-92149D01*
X152319Y-92061D01*
X152255Y-91979D01*
X152185Y-91915D01*
X152114Y-91856D01*
X152056Y-91815D01*
X152009Y-91780D01*
X151974Y-91763D01*
X151968Y-91757D01*
X151962D01*
X151910Y-91728D01*
X151851Y-91704D01*
X151717Y-91652D01*
X151582Y-91611D01*
X151442Y-91564D01*
X151319Y-91535D01*
X151266Y-91517D01*
X151219Y-91505D01*
X151179Y-91494D01*
X151149Y-91488D01*
X151132Y-91482D01*
X151126D01*
X151026Y-91459D01*
X150933Y-91429D01*
X150851Y-91406D01*
X150781Y-91382D01*
X150710Y-91365D01*
X150658Y-91342D01*
X150605Y-91324D01*
X150564Y-91301D01*
X150523Y-91283D01*
X150494Y-91271D01*
X150447Y-91248D01*
X150424Y-91230D01*
X150418Y-91225D01*
X150383Y-91184D01*
X150354Y-91149D01*
X150336Y-91108D01*
X150319Y-91072D01*
X150313Y-91037D01*
X150307Y-91014D01*
Y-90996D01*
Y-90991D01*
X150313Y-90938D01*
X150324Y-90891D01*
X150342Y-90850D01*
X150365Y-90815D01*
X150389Y-90786D01*
X150406Y-90768D01*
X150418Y-90757D01*
X150424Y-90751D01*
X150500Y-90704D01*
X150588Y-90669D01*
X150675Y-90645D01*
X150757Y-90628D01*
X150833Y-90616D01*
X150898Y-90610D01*
X150950D01*
X151067Y-90616D01*
X151167Y-90634D01*
X151249Y-90651D01*
X151319Y-90675D01*
X151372Y-90704D01*
X151407Y-90721D01*
X151430Y-90739D01*
X151436Y-90745D01*
X151494Y-90798D01*
X151541Y-90862D01*
X151576Y-90932D01*
X151606Y-91002D01*
X151629Y-91067D01*
X151641Y-91119D01*
X151652Y-91154D01*
Y-91160D01*
Y-91166D01*
X152430Y-91137D01*
X152425Y-91043D01*
X152407Y-90950D01*
X152384Y-90862D01*
X152360Y-90780D01*
X152296Y-90640D01*
X152267Y-90575D01*
X152232Y-90517D01*
X152196Y-90464D01*
X152161Y-90417D01*
X152132Y-90376D01*
X152103Y-90347D01*
X152079Y-90324D01*
X152062Y-90306D01*
X152050Y-90294D01*
X152044Y-90289D01*
X151974Y-90230D01*
X151892Y-90183D01*
X151810Y-90136D01*
X151723Y-90101D01*
X151541Y-90043D01*
X151366Y-90008D01*
X151284Y-89996D01*
X151208Y-89984D01*
X151138Y-89978D01*
X151073Y-89973D01*
X151026Y-89967D01*
D02*
G37*
G36*
X175158Y-90031D02*
X171572D01*
Y-93875D01*
D01*
Y-90031D01*
X172976Y-92260D01*
Y-93875D01*
X173754D01*
Y-92266D01*
X175158Y-90031D01*
D01*
D02*
G37*
G36*
X171314D02*
X168097D01*
Y-93875D01*
X169764D01*
X169863Y-93869D01*
X170021D01*
X170092Y-93863D01*
X170197D01*
X170238Y-93857D01*
X170296D01*
X170314Y-93851D01*
X170337D01*
X170448Y-93834D01*
X170548Y-93810D01*
X170636Y-93781D01*
X170712Y-93746D01*
X170776Y-93717D01*
X170823Y-93693D01*
X170846Y-93676D01*
X170858Y-93670D01*
X170934Y-93611D01*
X170998Y-93541D01*
X171057Y-93477D01*
X171104Y-93413D01*
X171139Y-93360D01*
X171168Y-93313D01*
X171186Y-93284D01*
X171191Y-93272D01*
X171232Y-93178D01*
X171262Y-93091D01*
X171285Y-93003D01*
X171297Y-92927D01*
X171308Y-92857D01*
X171314Y-92810D01*
Y-92763D01*
X171308Y-92640D01*
X171285Y-92529D01*
X171256Y-92435D01*
X171221Y-92348D01*
X171180Y-92278D01*
X171150Y-92225D01*
X171127Y-92196D01*
X171121Y-92184D01*
X171045Y-92096D01*
X170957Y-92020D01*
X170870Y-91962D01*
X170782Y-91915D01*
X170706Y-91880D01*
X170642Y-91851D01*
X170618Y-91845D01*
X170600Y-91839D01*
X170589Y-91833D01*
X170583D01*
X170671Y-91786D01*
X170753Y-91733D01*
X170817Y-91681D01*
X170876Y-91622D01*
X170922Y-91576D01*
X170951Y-91535D01*
X170975Y-91511D01*
X170981Y-91500D01*
X171028Y-91412D01*
X171063Y-91324D01*
X171092Y-91242D01*
X171109Y-91166D01*
X171121Y-91102D01*
X171127Y-91049D01*
Y-91014D01*
Y-91002D01*
X171121Y-90909D01*
X171109Y-90827D01*
X171086Y-90751D01*
X171069Y-90680D01*
X171045Y-90628D01*
X171022Y-90587D01*
X171010Y-90563D01*
X171004Y-90552D01*
X170957Y-90482D01*
X170911Y-90417D01*
X170858Y-90365D01*
X170817Y-90318D01*
X170776Y-90277D01*
X170741Y-90254D01*
X170718Y-90236D01*
X170712Y-90230D01*
X170642Y-90189D01*
X170577Y-90154D01*
X170507Y-90125D01*
X170443Y-90107D01*
X170390Y-90090D01*
X170349Y-90078D01*
X170320Y-90072D01*
X170308D01*
X170214Y-90060D01*
X170109Y-90049D01*
X169998Y-90043D01*
X169887Y-90037D01*
X169787Y-90031D01*
X171314D01*
D02*
G37*
G36*
X165751D02*
X164224D01*
Y-93875D01*
X165675D01*
X165827Y-93869D01*
X165967Y-93863D01*
X166084Y-93851D01*
X166178Y-93834D01*
X166260Y-93822D01*
X166313Y-93810D01*
X166348Y-93804D01*
X166359Y-93799D01*
X166482Y-93752D01*
X166587Y-93705D01*
X166681Y-93652D01*
X166763Y-93600D01*
X166821Y-93559D01*
X166868Y-93524D01*
X166892Y-93494D01*
X166903Y-93489D01*
X166997Y-93383D01*
X167079Y-93272D01*
X167149Y-93161D01*
X167208Y-93050D01*
X167254Y-92956D01*
X167272Y-92915D01*
X167289Y-92880D01*
X167301Y-92851D01*
X167307Y-92827D01*
X167313Y-92816D01*
Y-92810D01*
X167354Y-92675D01*
X167383Y-92535D01*
X167406Y-92400D01*
X167418Y-92272D01*
X167430Y-92161D01*
Y-92114D01*
X167436Y-92073D01*
Y-91991D01*
X167430Y-91798D01*
X167418Y-91622D01*
X167395Y-91464D01*
X167383Y-91400D01*
X167371Y-91336D01*
X167360Y-91277D01*
X167348Y-91230D01*
X167336Y-91184D01*
X167324Y-91149D01*
X167319Y-91119D01*
X167313Y-91102D01*
X167307Y-91090D01*
Y-91084D01*
X167254Y-90950D01*
X167196Y-90833D01*
X167137Y-90727D01*
X167079Y-90634D01*
X167020Y-90563D01*
X166979Y-90511D01*
X166950Y-90476D01*
X166944Y-90464D01*
X166938D01*
X166845Y-90376D01*
X166745Y-90300D01*
X166652Y-90236D01*
X166564Y-90189D01*
X166482Y-90154D01*
X166424Y-90125D01*
X166400Y-90119D01*
X166383Y-90113D01*
X166371Y-90107D01*
X166365D01*
X166260Y-90084D01*
X166143Y-90060D01*
X166026Y-90049D01*
X165903Y-90043D01*
X165798Y-90037D01*
X165751Y-90031D01*
D02*
G37*
G36*
X163405D02*
X160351D01*
Y-93875D01*
X161071D01*
Y-91353D01*
X162627Y-93875D01*
X163405D01*
Y-90031D01*
D02*
G37*
G36*
X159942D02*
X157578D01*
X156087Y-93875D01*
X159942D01*
D01*
X158397Y-90031D01*
X159942D01*
D02*
G37*
G36*
X156087D02*
D01*
Y-93875D01*
D01*
Y-90031D01*
D01*
D02*
G37*
G36*
X155970D02*
X152934D01*
Y-93875D01*
D01*
Y-90680D01*
X154063D01*
Y-93875D01*
X152934D01*
X155970D01*
X154841D01*
Y-90680D01*
X155970D01*
Y-90031D01*
D02*
G37*
G36*
X149418Y-89967D02*
D01*
Y-93945D01*
D01*
Y-89967D01*
D01*
D02*
G37*
%LPD*%
G36*
X173379Y-91558D02*
X172473Y-90031D01*
X174268D01*
X173379Y-91558D01*
D02*
G37*
G36*
X169711Y-90675D02*
X169852D01*
X169887Y-90680D01*
X169951D01*
X169975Y-90686D01*
X169980D01*
X170051Y-90698D01*
X170109Y-90716D01*
X170156Y-90739D01*
X170197Y-90762D01*
X170232Y-90786D01*
X170255Y-90803D01*
X170267Y-90815D01*
X170273Y-90821D01*
X170308Y-90868D01*
X170331Y-90914D01*
X170349Y-90961D01*
X170361Y-91008D01*
X170367Y-91043D01*
X170372Y-91078D01*
Y-91102D01*
Y-91108D01*
X170367Y-91172D01*
X170355Y-91236D01*
X170337Y-91283D01*
X170314Y-91330D01*
X170291Y-91365D01*
X170273Y-91388D01*
X170261Y-91406D01*
X170255Y-91412D01*
X170209Y-91447D01*
X170162Y-91482D01*
X170109Y-91505D01*
X170056Y-91523D01*
X170016Y-91535D01*
X169980Y-91540D01*
X169957Y-91546D01*
X169922D01*
X169887Y-91552D01*
X169717D01*
X169618Y-91558D01*
X168875D01*
Y-90669D01*
X169653D01*
X169711Y-90675D01*
D02*
G37*
G36*
X169758Y-92202D02*
X169828Y-92207D01*
X169893D01*
X169945Y-92213D01*
X169998Y-92219D01*
X170039Y-92225D01*
X170074Y-92231D01*
X170109Y-92237D01*
X170150Y-92242D01*
X170179Y-92254D01*
X170185D01*
X170244Y-92278D01*
X170291Y-92301D01*
X170331Y-92330D01*
X170367Y-92360D01*
X170390Y-92389D01*
X170407Y-92412D01*
X170419Y-92424D01*
X170425Y-92430D01*
X170454Y-92476D01*
X170478Y-92529D01*
X170489Y-92576D01*
X170501Y-92623D01*
X170507Y-92664D01*
X170513Y-92693D01*
Y-92716D01*
Y-92722D01*
X170507Y-92792D01*
X170495Y-92857D01*
X170478Y-92915D01*
X170460Y-92962D01*
X170437Y-92997D01*
X170419Y-93026D01*
X170407Y-93044D01*
X170402Y-93050D01*
X170361Y-93091D01*
X170314Y-93126D01*
X170261Y-93149D01*
X170220Y-93173D01*
X170179Y-93184D01*
X170150Y-93196D01*
X170127Y-93202D01*
X170121D01*
X170097Y-93208D01*
X170068D01*
X169992Y-93214D01*
X169904Y-93219D01*
X169811D01*
X169729Y-93225D01*
X168875D01*
Y-92196D01*
X169676D01*
X169758Y-92202D01*
D02*
G37*
G36*
X165581Y-90686D02*
X165646D01*
X165704Y-90692D01*
X165751D01*
X165798Y-90698D01*
X165839D01*
X165903Y-90710D01*
X165944Y-90716D01*
X165973Y-90721D01*
X165979D01*
X166055Y-90745D01*
X166125Y-90768D01*
X166190Y-90798D01*
X166236Y-90827D01*
X166277Y-90856D01*
X166313Y-90879D01*
X166330Y-90897D01*
X166336Y-90903D01*
X166388Y-90956D01*
X166429Y-91020D01*
X166465Y-91078D01*
X166500Y-91143D01*
X166523Y-91195D01*
X166541Y-91236D01*
X166546Y-91265D01*
X166552Y-91277D01*
X166582Y-91371D01*
X166599Y-91482D01*
X166617Y-91593D01*
X166622Y-91704D01*
X166628Y-91804D01*
X166634Y-91845D01*
Y-91880D01*
Y-91915D01*
Y-91938D01*
Y-91950D01*
Y-91956D01*
X166628Y-92114D01*
X166622Y-92254D01*
X166611Y-92377D01*
X166593Y-92476D01*
X166576Y-92558D01*
X166564Y-92617D01*
X166558Y-92634D01*
Y-92652D01*
X166552Y-92658D01*
Y-92664D01*
X166523Y-92751D01*
X166488Y-92827D01*
X166459Y-92892D01*
X166424Y-92945D01*
X166394Y-92985D01*
X166377Y-93009D01*
X166359Y-93026D01*
X166353Y-93032D01*
X166307Y-93073D01*
X166254Y-93102D01*
X166149Y-93155D01*
X166108Y-93167D01*
X166073Y-93178D01*
X166043Y-93190D01*
X166037D01*
X165979Y-93202D01*
X165909Y-93208D01*
X165827Y-93219D01*
X165757D01*
X165687Y-93225D01*
X165002D01*
Y-90680D01*
X165511D01*
X165581Y-90686D01*
D02*
G37*
G36*
X162686Y-92611D02*
X161100Y-90031D01*
X162686D01*
Y-92611D01*
D02*
G37*
G36*
X158520Y-92354D02*
X157461D01*
X157982Y-90926D01*
X158520Y-92354D01*
D02*
G37*
G36*
X159099Y-93875D02*
X156906D01*
X157222Y-93003D01*
X158772D01*
X159099Y-93875D01*
D02*
G37*
D10*
X230468Y-109405D02*
G03*
X230468Y-109405I-3640J0D01*
G01*
X234261D02*
G03*
X234261Y-109405I-7433J0D01*
G01*
X60221Y-188005D02*
G03*
X60221Y-188005I-2193J0D01*
G01*
X42355Y-139345D02*
X43300Y-138400D01*
Y-122700D01*
X42355Y-121755D02*
X43300Y-122700D01*
X41450Y-121755D02*
X42355D01*
X57618Y-165075D02*
X60218Y-165094D01*
Y-162038D01*
X65287Y-161723D02*
X66005Y-160286D01*
X115693Y-89061D02*
X115710Y-87672D01*
X194669Y-128771D02*
X195941Y-126737D01*
X68527Y-150415D02*
X70101Y-151989D01*
X21324Y-153033D02*
X22029Y-152971D01*
X21967Y-152267D02*
X22029Y-152971D01*
X21324Y-153033D02*
X21967Y-152267D01*
X209538Y-16606D02*
X210240Y-16692D01*
X209452Y-17308D02*
X209538Y-16606D01*
X209452Y-17308D02*
X210240Y-16692D01*
X172439Y-174365D02*
X173082Y-175131D01*
X172439Y-174365D02*
X173144Y-174426D01*
X173082Y-175131D02*
X173144Y-174426D01*
X129336Y-91271D02*
X128670Y-90604D01*
X127337D01*
X126670Y-91271D01*
Y-93937D01*
X127337Y-94603D01*
X128670D01*
X129336Y-93937D01*
X130669Y-90604D02*
X133335D01*
Y-91271D01*
X130669Y-93937D01*
Y-94603D01*
X136667D02*
Y-90604D01*
X134668Y-92604D01*
X137333D01*
X124529Y-106846D02*
Y-110178D01*
X125195Y-110844D01*
X126528D01*
X127194Y-110178D01*
Y-106846D01*
X131193Y-110844D02*
X128527D01*
X131193Y-108178D01*
Y-107512D01*
X130526Y-106846D01*
X129194D01*
X128527Y-107512D01*
X128902Y-120599D02*
Y-116601D01*
X130901D01*
X131567Y-117267D01*
Y-118600D01*
X130901Y-119266D01*
X128902D01*
X130235D02*
X131567Y-120599D01*
X132900D02*
X134233D01*
X133567D01*
Y-116601D01*
X132900Y-117267D01*
X136233D02*
X136899Y-116601D01*
X138232D01*
X138898Y-117267D01*
Y-117933D01*
X138232Y-118600D01*
X137566D01*
X138232D01*
X138898Y-119266D01*
Y-119933D01*
X138232Y-120599D01*
X136899D01*
X136233Y-119933D01*
X100977Y-169903D02*
X96978D01*
Y-167904D01*
X97645Y-167237D01*
X98978D01*
X99644Y-167904D01*
Y-169903D01*
Y-168570D02*
X100977Y-167237D01*
Y-165904D02*
Y-164571D01*
Y-165238D01*
X96978D01*
X97645Y-165904D01*
X100977Y-160573D02*
X96978D01*
X98978Y-162572D01*
Y-159906D01*
X140568Y-190899D02*
Y-186901D01*
X142568D01*
X143234Y-187567D01*
Y-188900D01*
X142568Y-189567D01*
X140568D01*
X141901D02*
X143234Y-190899D01*
X147233Y-186901D02*
X145900Y-187567D01*
X144567Y-188900D01*
Y-190233D01*
X145234Y-190899D01*
X146566D01*
X147233Y-190233D01*
Y-189567D01*
X146566Y-188900D01*
X144567D01*
X148566Y-190233D02*
X149232Y-190899D01*
X150565D01*
X151232Y-190233D01*
Y-187567D01*
X150565Y-186901D01*
X149232D01*
X148566Y-187567D01*
Y-188233D01*
X149232Y-188900D01*
X151232D01*
X147834Y-193567D02*
X147168Y-192901D01*
X145835D01*
X145168Y-193567D01*
Y-196233D01*
X145835Y-196899D01*
X147168D01*
X147834Y-196233D01*
X149167Y-192901D02*
X151833D01*
Y-193567D01*
X149167Y-196233D01*
Y-196899D01*
X153166Y-196233D02*
X153832Y-196899D01*
X155165D01*
X155832Y-196233D01*
Y-193567D01*
X155165Y-192901D01*
X153832D01*
X153166Y-193567D01*
Y-194234D01*
X153832Y-194900D01*
X155832D01*
X142199Y-28332D02*
X138201D01*
Y-26332D01*
X138867Y-25666D01*
X140200D01*
X140866Y-26332D01*
Y-28332D01*
Y-26999D02*
X142199Y-25666D01*
X138867Y-24333D02*
X138201Y-23666D01*
Y-22333D01*
X138867Y-21667D01*
X139533D01*
X140200Y-22333D01*
Y-23000D01*
Y-22333D01*
X140866Y-21667D01*
X141533D01*
X142199Y-22333D01*
Y-23666D01*
X141533Y-24333D01*
Y-20334D02*
X142199Y-19668D01*
Y-18335D01*
X141533Y-17668D01*
X138867D01*
X138201Y-18335D01*
Y-19668D01*
X138867Y-20334D01*
X139533D01*
X140200Y-19668D01*
Y-17668D01*
X120340Y-41736D02*
X116341D01*
Y-39737D01*
X117008Y-39070D01*
X118340D01*
X119007Y-39737D01*
Y-41736D01*
Y-40403D02*
X120340Y-39070D01*
X117008Y-37738D02*
X116341Y-37071D01*
Y-35738D01*
X117008Y-35072D01*
X117674D01*
X118340Y-35738D01*
Y-36405D01*
Y-35738D01*
X119007Y-35072D01*
X119673D01*
X120340Y-35738D01*
Y-37071D01*
X119673Y-37738D01*
X117008Y-33739D02*
X116341Y-33072D01*
Y-31740D01*
X117008Y-31073D01*
X117674D01*
X118340Y-31740D01*
X119007Y-31073D01*
X119673D01*
X120340Y-31740D01*
Y-33072D01*
X119673Y-33739D01*
X119007D01*
X118340Y-33072D01*
X117674Y-33739D01*
X117008D01*
X118340Y-33072D02*
Y-31740D01*
X130899Y-27832D02*
X126901D01*
Y-25832D01*
X127567Y-25166D01*
X128900D01*
X129567Y-25832D01*
Y-27832D01*
Y-26499D02*
X130899Y-25166D01*
X127567Y-23833D02*
X126901Y-23167D01*
Y-21834D01*
X127567Y-21167D01*
X128234D01*
X128900Y-21834D01*
Y-22500D01*
Y-21834D01*
X129567Y-21167D01*
X130233D01*
X130899Y-21834D01*
Y-23167D01*
X130233Y-23833D01*
X126901Y-19834D02*
Y-17168D01*
X127567D01*
X130233Y-19834D01*
X130899D01*
X148599Y-28532D02*
X144601D01*
Y-26532D01*
X145267Y-25866D01*
X146600D01*
X147266Y-26532D01*
Y-28532D01*
Y-27199D02*
X148599Y-25866D01*
X145267Y-24533D02*
X144601Y-23866D01*
Y-22534D01*
X145267Y-21867D01*
X145933D01*
X146600Y-22534D01*
Y-23200D01*
Y-22534D01*
X147266Y-21867D01*
X147933D01*
X148599Y-22534D01*
Y-23866D01*
X147933Y-24533D01*
X144601Y-17868D02*
X145267Y-19201D01*
X146600Y-20534D01*
X147933D01*
X148599Y-19868D01*
Y-18535D01*
X147933Y-17868D01*
X147266D01*
X146600Y-18535D01*
Y-20534D01*
X174968Y-64799D02*
Y-60801D01*
X176968D01*
X177634Y-61467D01*
Y-62800D01*
X176968Y-63466D01*
X174968D01*
X176301D02*
X177634Y-64799D01*
X178967Y-61467D02*
X179633Y-60801D01*
X180966D01*
X181633Y-61467D01*
Y-62134D01*
X180966Y-62800D01*
X180300D01*
X180966D01*
X181633Y-63466D01*
Y-64133D01*
X180966Y-64799D01*
X179633D01*
X178967Y-64133D01*
X185632Y-60801D02*
X182966D01*
Y-62800D01*
X184299Y-62134D01*
X184965D01*
X185632Y-62800D01*
Y-64133D01*
X184965Y-64799D01*
X183632D01*
X182966Y-64133D01*
X174968Y-70499D02*
Y-66501D01*
X176968D01*
X177634Y-67167D01*
Y-68500D01*
X176968Y-69166D01*
X174968D01*
X176301D02*
X177634Y-70499D01*
X178967Y-67167D02*
X179633Y-66501D01*
X180966D01*
X181633Y-67167D01*
Y-67834D01*
X180966Y-68500D01*
X180300D01*
X180966D01*
X181633Y-69166D01*
Y-69833D01*
X180966Y-70499D01*
X179633D01*
X178967Y-69833D01*
X184965Y-70499D02*
Y-66501D01*
X182966Y-68500D01*
X185632D01*
X174936Y-81909D02*
Y-77910D01*
X176936D01*
X177602Y-78576D01*
Y-79909D01*
X176936Y-80576D01*
X174936D01*
X176269D02*
X177602Y-81909D01*
X178935Y-78576D02*
X179602Y-77910D01*
X180934D01*
X181601Y-78576D01*
Y-79243D01*
X180934Y-79909D01*
X180268D01*
X180934D01*
X181601Y-80576D01*
Y-81242D01*
X180934Y-81909D01*
X179602D01*
X178935Y-81242D01*
X185600Y-81909D02*
X182934D01*
X185600Y-79243D01*
Y-78576D01*
X184933Y-77910D01*
X183600D01*
X182934Y-78576D01*
X174935Y-76199D02*
Y-72201D01*
X176934D01*
X177601Y-72867D01*
Y-74200D01*
X176934Y-74866D01*
X174935D01*
X176268D02*
X177601Y-76199D01*
X178934Y-72867D02*
X179600Y-72201D01*
X180933D01*
X181599Y-72867D01*
Y-73534D01*
X180933Y-74200D01*
X180266D01*
X180933D01*
X181599Y-74866D01*
Y-75533D01*
X180933Y-76199D01*
X179600D01*
X178934Y-75533D01*
X182932Y-76199D02*
X184265D01*
X183599D01*
Y-72201D01*
X182932Y-72867D01*
X92528Y-25288D02*
X88529D01*
Y-23289D01*
X89196Y-22622D01*
X90528D01*
X91195Y-23289D01*
Y-25288D01*
Y-23955D02*
X92528Y-22622D01*
X89196Y-21289D02*
X88529Y-20623D01*
Y-19290D01*
X89196Y-18623D01*
X89862D01*
X90528Y-19290D01*
Y-19956D01*
Y-19290D01*
X91195Y-18623D01*
X91861D01*
X92528Y-19290D01*
Y-20623D01*
X91861Y-21289D01*
X89196Y-17291D02*
X88529Y-16624D01*
Y-15291D01*
X89196Y-14625D01*
X91861D01*
X92528Y-15291D01*
Y-16624D01*
X91861Y-17291D01*
X89196D01*
X104796Y-2459D02*
Y1539D01*
X106796D01*
X107462Y873D01*
Y-460D01*
X106796Y-1126D01*
X104796D01*
X106129D02*
X107462Y-2459D01*
X111461D02*
X108795D01*
X111461Y206D01*
Y873D01*
X110794Y1539D01*
X109461D01*
X108795Y873D01*
X112794Y-1793D02*
X113460Y-2459D01*
X114793D01*
X115459Y-1793D01*
Y873D01*
X114793Y1539D01*
X113460D01*
X112794Y873D01*
Y206D01*
X113460Y-460D01*
X115459D01*
X65243Y30127D02*
X64744Y29328D01*
X65043Y28029D01*
X65843Y27530D01*
X66492Y27680D01*
X66992Y28479D01*
X66692Y29778D01*
X67191Y30577D01*
X67840Y30727D01*
X68640Y30227D01*
X68940Y28929D01*
X68440Y28129D01*
X64294Y31276D02*
X68190Y32175D01*
X66591Y33174D01*
X67590Y34773D01*
X63694Y33874D01*
X62795Y37770D02*
X63394Y35172D01*
X65342Y35622D01*
X64393Y36771D01*
X64243Y37420D01*
X64743Y38219D01*
X66041Y38519D01*
X66841Y38020D01*
X67141Y36721D01*
X66641Y35922D01*
X62702Y-137397D02*
Y-141396D01*
X65368D01*
X66701D02*
X68034D01*
X67367D01*
Y-137397D01*
X66701Y-138064D01*
X20101Y-37332D02*
X23433D01*
X24099Y-36666D01*
Y-35333D01*
X23433Y-34666D01*
X20101D01*
X24099Y-31334D02*
X20101D01*
X22100Y-33334D01*
Y-30668D01*
X31684Y-149872D02*
X29114Y-152935D01*
X31156Y-154649D01*
X36790Y-154156D02*
X34748Y-152443D01*
X32177Y-155506D01*
X34220Y-157219D01*
X33463Y-153974D02*
X34484Y-154831D01*
X37811Y-155013D02*
X35241Y-158076D01*
X36772Y-159361D01*
X37711Y-159279D01*
X39425Y-157237D01*
X39342Y-156298D01*
X37811Y-155013D01*
X42916Y-159297D02*
X40874Y-157583D01*
X39589Y-159115D01*
X41038Y-159461D01*
X41549Y-159889D01*
X41631Y-160828D01*
X40774Y-161849D01*
X39835Y-161932D01*
X38814Y-161075D01*
X38732Y-160136D01*
X89295Y-170137D02*
X88629Y-170804D01*
Y-172137D01*
X89295Y-172803D01*
X91961D01*
X92627Y-172137D01*
Y-170804D01*
X91961Y-170137D01*
X92627Y-168804D02*
Y-167471D01*
Y-168138D01*
X88629D01*
X89295Y-168804D01*
X88629Y-162806D02*
X89295Y-164139D01*
X90628Y-165472D01*
X91961D01*
X92627Y-164806D01*
Y-163473D01*
X91961Y-162806D01*
X91294D01*
X90628Y-163473D01*
Y-165472D01*
X64328Y-149762D02*
X67661D01*
X68327Y-149095D01*
Y-147762D01*
X67661Y-147096D01*
X64328D01*
X64995Y-145763D02*
X64328Y-145097D01*
Y-143764D01*
X64995Y-143097D01*
X65661D01*
X66328Y-143764D01*
Y-144430D01*
Y-143764D01*
X66994Y-143097D01*
X67661D01*
X68327Y-143764D01*
Y-145097D01*
X67661Y-145763D01*
X171925Y-164023D02*
X174495Y-167087D01*
X176537Y-165373D01*
X177030Y-159739D02*
X174988Y-161453D01*
X177558Y-164516D01*
X179600Y-162803D01*
X176273Y-162985D02*
X177294Y-162128D01*
X178051Y-158883D02*
X180621Y-161946D01*
X182153Y-160661D01*
X182235Y-159722D01*
X180522Y-157680D01*
X179583Y-157597D01*
X178051Y-158883D01*
X185216Y-158090D02*
X182646Y-155027D01*
X182399Y-157844D01*
X184442Y-156130D01*
X192578Y-3114D02*
X189427Y-5575D01*
X191068Y-7676D01*
X196681Y-8365D02*
X195040Y-6265D01*
X191889Y-8726D01*
X193530Y-10827D01*
X193464Y-7495D02*
X194285Y-8546D01*
X197502Y-9416D02*
X194351Y-11877D01*
X195582Y-13453D01*
X196517Y-13568D01*
X198618Y-11926D01*
X198733Y-10991D01*
X197502Y-9416D01*
X199438Y-12977D02*
X200374Y-13092D01*
X201195Y-14142D01*
X201080Y-15078D01*
X200554Y-15488D01*
X199619Y-15373D01*
X199209Y-14848D01*
X199619Y-15373D01*
X199504Y-16308D01*
X198979Y-16719D01*
X198044Y-16604D01*
X197223Y-15554D01*
X197338Y-14618D01*
X44362Y-152072D02*
X43696Y-151405D01*
X42363D01*
X41696Y-152072D01*
Y-154738D01*
X42363Y-155404D01*
X43696D01*
X44362Y-154738D01*
X48361Y-155404D02*
X45695D01*
X48361Y-152738D01*
Y-152072D01*
X47694Y-151405D01*
X46361D01*
X45695Y-152072D01*
X52359Y-151405D02*
X51026Y-152072D01*
X49694Y-153405D01*
Y-154738D01*
X50360Y-155404D01*
X51693D01*
X52359Y-154738D01*
Y-154071D01*
X51693Y-153405D01*
X49694D01*
X48399Y-163163D02*
X47732Y-162496D01*
X46399D01*
X45733Y-163163D01*
Y-165829D01*
X46399Y-166495D01*
X47732D01*
X48399Y-165829D01*
X52397Y-166495D02*
X49731D01*
X52397Y-163829D01*
Y-163163D01*
X51731Y-162496D01*
X50398D01*
X49731Y-163163D01*
X56396Y-162496D02*
X53730D01*
Y-164496D01*
X55063Y-163829D01*
X55730D01*
X56396Y-164496D01*
Y-165829D01*
X55730Y-166495D01*
X54397D01*
X53730Y-165829D01*
X86802Y7331D02*
X86003Y7830D01*
X84704Y7530D01*
X84205Y6731D01*
X84804Y4134D01*
X85603Y3634D01*
X86902Y3934D01*
X87402Y4733D01*
X91448Y4983D02*
X88850Y4384D01*
X90848Y7581D01*
X90698Y8230D01*
X89899Y8730D01*
X88600Y8430D01*
X88101Y7631D01*
X94695Y5733D02*
X93795Y9629D01*
X92297Y7231D01*
X94894Y7831D01*
X22334Y-131467D02*
X21668Y-130801D01*
X20335D01*
X19668Y-131467D01*
Y-134133D01*
X20335Y-134799D01*
X21668D01*
X22334Y-134133D01*
X26333Y-134799D02*
X23667D01*
X26333Y-132133D01*
Y-131467D01*
X25666Y-130801D01*
X24333D01*
X23667Y-131467D01*
X27666D02*
X28332Y-130801D01*
X29665D01*
X30332Y-131467D01*
Y-132133D01*
X29665Y-132800D01*
X28999D01*
X29665D01*
X30332Y-133466D01*
Y-134133D01*
X29665Y-134799D01*
X28332D01*
X27666Y-134133D01*
X101666Y-91071D02*
X97667D01*
Y-89072D01*
X98334Y-88405D01*
X99666D01*
X100333Y-89072D01*
Y-91071D01*
Y-89738D02*
X101666Y-88405D01*
Y-84406D02*
Y-87072D01*
X99000Y-84406D01*
X98334D01*
X97667Y-85073D01*
Y-86406D01*
X98334Y-87072D01*
Y-83074D02*
X97667Y-82407D01*
Y-81074D01*
X98334Y-80408D01*
X100999D01*
X101666Y-81074D01*
Y-82407D01*
X100999Y-83074D01*
X98334D01*
X81639Y-165125D02*
X80973Y-165791D01*
Y-167124D01*
X81639Y-167790D01*
X84305D01*
X84971Y-167124D01*
Y-165791D01*
X84305Y-165125D01*
X84971Y-163792D02*
Y-162459D01*
Y-163125D01*
X80973D01*
X81639Y-163792D01*
Y-160459D02*
X80973Y-159793D01*
Y-158460D01*
X81639Y-157794D01*
X82306D01*
X82972Y-158460D01*
X83639Y-157794D01*
X84305D01*
X84971Y-158460D01*
Y-159793D01*
X84305Y-160459D01*
X83639D01*
X82972Y-159793D01*
X82306Y-160459D01*
X81639D01*
X82972Y-159793D02*
Y-158460D01*
X137716Y-65449D02*
Y-61450D01*
X139716D01*
X140382Y-62117D01*
Y-63450D01*
X139716Y-64116D01*
X137716D01*
X139049D02*
X140382Y-65449D01*
X141715D02*
X143048D01*
X142381D01*
Y-61450D01*
X141715Y-62117D01*
X147713Y-65449D02*
X145047D01*
X147713Y-62783D01*
Y-62117D01*
X147046Y-61450D01*
X145714D01*
X145047Y-62117D01*
X135950Y-55330D02*
X131951D01*
Y-53331D01*
X132617Y-52664D01*
X133950D01*
X134617Y-53331D01*
Y-55330D01*
Y-53997D02*
X135950Y-52664D01*
Y-51331D02*
Y-49998D01*
Y-50665D01*
X131951D01*
X132617Y-51331D01*
X135950Y-47999D02*
Y-46666D01*
Y-47333D01*
X131951D01*
X132617Y-47999D01*
X81436Y-13897D02*
X77437D01*
Y-11898D01*
X78103Y-11232D01*
X79436D01*
X80103Y-11898D01*
Y-13897D01*
Y-12564D02*
X81436Y-11232D01*
Y-9899D02*
Y-8566D01*
Y-9232D01*
X77437D01*
X78103Y-9899D01*
Y-6566D02*
X77437Y-5900D01*
Y-4567D01*
X78103Y-3901D01*
X80769D01*
X81436Y-4567D01*
Y-5900D01*
X80769Y-6566D01*
X78103D01*
X153361Y-51871D02*
X150695D01*
X150029Y-52538D01*
Y-53870D01*
X150695Y-54537D01*
X153361D01*
X154027Y-53870D01*
Y-52538D01*
X152694Y-53204D02*
X154027Y-51871D01*
Y-52538D02*
X153361Y-51871D01*
X150695Y-50538D02*
X150029Y-49872D01*
Y-48539D01*
X150695Y-47872D01*
X151361D01*
X152028Y-48539D01*
Y-49205D01*
Y-48539D01*
X152694Y-47872D01*
X153361D01*
X154027Y-48539D01*
Y-49872D01*
X153361Y-50538D01*
X195526Y-65813D02*
Y-69812D01*
X198192D01*
X202191D02*
X199525D01*
X202191Y-67146D01*
Y-66480D01*
X201524Y-65813D01*
X200191D01*
X199525Y-66480D01*
X188464Y-26003D02*
Y-28669D01*
X190464D01*
Y-27336D01*
Y-28669D01*
X192463D01*
X188464Y-24670D02*
X192463D01*
Y-22671D01*
X191797Y-22004D01*
X191130D01*
X190464Y-22671D01*
Y-24670D01*
Y-22671D01*
X189797Y-22004D01*
X189131D01*
X188464Y-22671D01*
Y-24670D01*
X189131Y-20671D02*
X188464Y-20005D01*
Y-18672D01*
X189131Y-18006D01*
X189797D01*
X190464Y-18672D01*
Y-19339D01*
Y-18672D01*
X191130Y-18006D01*
X191797D01*
X192463Y-18672D01*
Y-20005D01*
X191797Y-20671D01*
X218887Y-40431D02*
X218221Y-39765D01*
X216888D01*
X216221Y-40431D01*
Y-43097D01*
X216888Y-43763D01*
X218221D01*
X218887Y-43097D01*
X220220Y-43763D02*
X221553D01*
X220887D01*
Y-39765D01*
X220220Y-40431D01*
X223552Y-43763D02*
X224885D01*
X224219D01*
Y-39765D01*
X223552Y-40431D01*
X219267Y-50412D02*
X218600Y-49745D01*
X217267D01*
X216601Y-50412D01*
Y-53078D01*
X217267Y-53744D01*
X218600D01*
X219267Y-53078D01*
X220600Y-53744D02*
X221933D01*
X221266D01*
Y-49745D01*
X220600Y-50412D01*
X223932D02*
X224598Y-49745D01*
X225931D01*
X226598Y-50412D01*
Y-53078D01*
X225931Y-53744D01*
X224598D01*
X223932Y-53078D01*
Y-50412D01*
X35299Y-26332D02*
X31301D01*
Y-24332D01*
X31967Y-23666D01*
X33300D01*
X33966Y-24332D01*
Y-26332D01*
Y-24999D02*
X35299Y-23666D01*
Y-19667D02*
Y-22333D01*
X32634Y-19667D01*
X31967D01*
X31301Y-20334D01*
Y-21666D01*
X31967Y-22333D01*
X35299Y-15668D02*
Y-18334D01*
X32634Y-15668D01*
X31967D01*
X31301Y-16335D01*
Y-17668D01*
X31967Y-18334D01*
X151789Y-27065D02*
Y-30397D01*
X152456Y-31064D01*
X153789D01*
X154455Y-30397D01*
Y-27065D01*
X155788Y-31064D02*
X157121D01*
X156455D01*
Y-27065D01*
X155788Y-27732D01*
X161786Y-27065D02*
X160453Y-27732D01*
X159120Y-29065D01*
Y-30397D01*
X159787Y-31064D01*
X161120D01*
X161786Y-30397D01*
Y-29731D01*
X161120Y-29065D01*
X159120D01*
X120629Y-27931D02*
X116630D01*
Y-25932D01*
X117297Y-25266D01*
X118630D01*
X119296Y-25932D01*
Y-27931D01*
Y-26599D02*
X120629Y-25266D01*
X116630Y-21267D02*
X117297Y-22600D01*
X118630Y-23933D01*
X119962D01*
X120629Y-23266D01*
Y-21934D01*
X119962Y-21267D01*
X119296D01*
X118630Y-21934D01*
Y-23933D01*
X116630Y-19934D02*
Y-17268D01*
X117297D01*
X119962Y-19934D01*
X120629D01*
X136599Y-22532D02*
X132601D01*
Y-20532D01*
X133267Y-19866D01*
X134600D01*
X135266Y-20532D01*
Y-22532D01*
Y-21199D02*
X136599Y-19866D01*
X132601Y-15867D02*
X133267Y-17200D01*
X134600Y-18533D01*
X135933D01*
X136599Y-17866D01*
Y-16533D01*
X135933Y-15867D01*
X135266D01*
X134600Y-16533D01*
Y-18533D01*
X132601Y-11868D02*
X133267Y-13201D01*
X134600Y-14534D01*
X135933D01*
X136599Y-13868D01*
Y-12535D01*
X135933Y-11868D01*
X135266D01*
X134600Y-12535D01*
Y-14534D01*
X126656Y-44864D02*
Y-40865D01*
X128655D01*
X129322Y-41532D01*
Y-42865D01*
X128655Y-43531D01*
X126656D01*
X127989D02*
X129322Y-44864D01*
X133321Y-40865D02*
X131988Y-41532D01*
X130655Y-42865D01*
Y-44197D01*
X131321Y-44864D01*
X132654D01*
X133321Y-44197D01*
Y-43531D01*
X132654Y-42865D01*
X130655D01*
X137319Y-40865D02*
X134653D01*
Y-42865D01*
X135986Y-42198D01*
X136653D01*
X137319Y-42865D01*
Y-44197D01*
X136653Y-44864D01*
X135320D01*
X134653Y-44197D01*
X149867Y-100403D02*
Y-96405D01*
X151867D01*
X152533Y-97071D01*
Y-98404D01*
X151867Y-99071D01*
X149867D01*
X151200D02*
X152533Y-100403D01*
X156532Y-96405D02*
X155199Y-97071D01*
X153866Y-98404D01*
Y-99737D01*
X154533Y-100403D01*
X155866D01*
X156532Y-99737D01*
Y-99071D01*
X155866Y-98404D01*
X153866D01*
X114168Y-128099D02*
Y-124101D01*
X116167D01*
X116833Y-124767D01*
Y-126100D01*
X116167Y-126767D01*
X114168D01*
X115501D02*
X116833Y-128099D01*
X120832Y-124101D02*
X118166D01*
Y-126100D01*
X119499Y-125434D01*
X120166D01*
X120832Y-126100D01*
Y-127433D01*
X120166Y-128099D01*
X118833D01*
X118166Y-127433D01*
X186985Y-35838D02*
Y-39837D01*
X189651D01*
X190984Y-36504D02*
X191651Y-35838D01*
X192983D01*
X193650Y-36504D01*
Y-37171D01*
X192983Y-37837D01*
X192317D01*
X192983D01*
X193650Y-38504D01*
Y-39170D01*
X192983Y-39837D01*
X191651D01*
X190984Y-39170D01*
X230705Y-37220D02*
X229478Y-37741D01*
X230092Y-37480D01*
X231394Y-40548D01*
X231041Y-41422D01*
X230427Y-41682D01*
X229554Y-41329D01*
X233234Y-39766D02*
X234108Y-40120D01*
X235335Y-39599D01*
X235688Y-38725D01*
X234647Y-36271D01*
X233773Y-35918D01*
X232546Y-36439D01*
X232193Y-37313D01*
X232453Y-37926D01*
X233327Y-38279D01*
X235167Y-37498D01*
X173601Y-53999D02*
Y-56665D01*
X175600D01*
Y-55332D01*
Y-56665D01*
X177599D01*
X173601Y-52666D02*
X177599D01*
Y-50667D01*
X176933Y-50001D01*
X176267D01*
X175600Y-50667D01*
Y-52666D01*
Y-50667D01*
X174934Y-50001D01*
X174267D01*
X173601Y-50667D01*
Y-52666D01*
X177599Y-48668D02*
Y-47335D01*
Y-48001D01*
X173601D01*
X174267Y-48668D01*
X188485Y-57420D02*
Y-60086D01*
X190484D01*
Y-58753D01*
Y-60086D01*
X192483D01*
X188485Y-56087D02*
X192483D01*
Y-54088D01*
X191817Y-53421D01*
X191151D01*
X190484Y-54088D01*
Y-56087D01*
Y-54088D01*
X189818Y-53421D01*
X189151D01*
X188485Y-54088D01*
Y-56087D01*
X192483Y-49423D02*
Y-52088D01*
X189818Y-49423D01*
X189151D01*
X188485Y-50089D01*
Y-51422D01*
X189151Y-52088D01*
X162971Y-72140D02*
X162305Y-72807D01*
Y-74140D01*
X162971Y-74806D01*
X165637D01*
X166303Y-74140D01*
Y-72807D01*
X165637Y-72140D01*
X166303Y-70807D02*
Y-69474D01*
Y-70141D01*
X162305D01*
X162971Y-70807D01*
Y-67475D02*
X162305Y-66809D01*
Y-65476D01*
X162971Y-64809D01*
X165637D01*
X166303Y-65476D01*
Y-66809D01*
X165637Y-67475D01*
X162971D01*
Y-63476D02*
X162305Y-62810D01*
Y-61477D01*
X162971Y-60811D01*
X163638D01*
X164304Y-61477D01*
Y-62143D01*
Y-61477D01*
X164971Y-60811D01*
X165637D01*
X166303Y-61477D01*
Y-62810D01*
X165637Y-63476D01*
X156483Y-72170D02*
X155816Y-72836D01*
Y-74169D01*
X156483Y-74836D01*
X159149D01*
X159815Y-74169D01*
Y-72836D01*
X159149Y-72170D01*
X159815Y-70837D02*
Y-69504D01*
Y-70171D01*
X155816D01*
X156483Y-70837D01*
Y-67505D02*
X155816Y-66838D01*
Y-65505D01*
X156483Y-64839D01*
X159149D01*
X159815Y-65505D01*
Y-66838D01*
X159149Y-67505D01*
X156483D01*
X159815Y-60840D02*
Y-63506D01*
X157149Y-60840D01*
X156483D01*
X155816Y-61507D01*
Y-62840D01*
X156483Y-63506D01*
X97463Y-23276D02*
X96796Y-22610D01*
X95463D01*
X94797Y-23276D01*
Y-25942D01*
X95463Y-26608D01*
X96796D01*
X97463Y-25942D01*
X98795D02*
X99462Y-26608D01*
X100795D01*
X101461Y-25942D01*
Y-23276D01*
X100795Y-22610D01*
X99462D01*
X98795Y-23276D01*
Y-23943D01*
X99462Y-24609D01*
X101461D01*
X67891Y-169941D02*
Y-165942D01*
X69890D01*
X70556Y-166608D01*
Y-167941D01*
X69890Y-168608D01*
X67891D01*
X69223D02*
X70556Y-169941D01*
X71889Y-165942D02*
X74555D01*
Y-166608D01*
X71889Y-169274D01*
Y-169941D01*
X133095Y-145171D02*
X132429Y-145838D01*
Y-147170D01*
X133095Y-147837D01*
X135761D01*
X136427Y-147170D01*
Y-145838D01*
X135761Y-145171D01*
X133095Y-143838D02*
X132429Y-143172D01*
Y-141839D01*
X133095Y-141172D01*
X133761D01*
X134428Y-141839D01*
Y-142505D01*
Y-141839D01*
X135094Y-141172D01*
X135761D01*
X136427Y-141839D01*
Y-143172D01*
X135761Y-143838D01*
X104508Y-18305D02*
Y-21638D01*
X105175Y-22304D01*
X106508D01*
X107174Y-21638D01*
Y-18305D01*
X108507Y-18972D02*
X109173Y-18305D01*
X110506D01*
X111173Y-18972D01*
Y-19638D01*
X110506Y-20305D01*
X111173Y-20971D01*
Y-21638D01*
X110506Y-22304D01*
X109173D01*
X108507Y-21638D01*
Y-20971D01*
X109173Y-20305D01*
X108507Y-19638D01*
Y-18972D01*
X109173Y-20305D02*
X110506D01*
X124314Y-72305D02*
Y-75638D01*
X124980Y-76304D01*
X126313D01*
X126979Y-75638D01*
Y-72305D01*
X128312D02*
X130978D01*
Y-72972D01*
X128312Y-75638D01*
Y-76304D01*
X147423Y-116487D02*
Y-119819D01*
X148089Y-120486D01*
X149422D01*
X150089Y-119819D01*
Y-116487D01*
X151422Y-120486D02*
X152755D01*
X152088D01*
Y-116487D01*
X151422Y-117154D01*
X76660Y-189590D02*
X75774Y-189912D01*
X75211Y-191120D01*
X75533Y-192006D01*
X76137Y-192287D01*
X77023Y-191965D01*
X77586Y-190757D01*
X78472Y-190435D01*
X79076Y-190716D01*
X79398Y-191602D01*
X78835Y-192810D01*
X77949Y-193132D01*
X76619Y-188100D02*
X80243Y-189790D01*
X79598Y-188019D01*
X81370Y-187374D01*
X77745Y-185684D01*
X81933Y-186166D02*
X82496Y-184958D01*
X82214Y-185562D01*
X78591Y-183872D01*
X78913Y-184757D01*
X74841Y-36797D02*
X70842D01*
Y-34798D01*
X71509Y-34131D01*
X72842D01*
X73508Y-34798D01*
Y-36797D01*
Y-35464D02*
X74841Y-34131D01*
Y-30132D02*
Y-32798D01*
X72175Y-30132D01*
X71509D01*
X70842Y-30799D01*
Y-32132D01*
X71509Y-32798D01*
X74841Y-28800D02*
Y-27467D01*
Y-28133D01*
X70842D01*
X71509Y-28800D01*
X31702Y-140399D02*
Y-136401D01*
X33701D01*
X34367Y-137067D01*
Y-138400D01*
X33701Y-139067D01*
X31702D01*
X33035D02*
X34367Y-140399D01*
X35700D02*
X37033D01*
X36367D01*
Y-136401D01*
X35700Y-137067D01*
X39033D02*
X39699Y-136401D01*
X41032D01*
X41698Y-137067D01*
Y-137733D01*
X41032Y-138400D01*
X41698Y-139067D01*
Y-139733D01*
X41032Y-140399D01*
X39699D01*
X39033Y-139733D01*
Y-139067D01*
X39699Y-138400D01*
X39033Y-137733D01*
Y-137067D01*
X39699Y-138400D02*
X41032D01*
X79876Y-179285D02*
X75878D01*
Y-177286D01*
X76544Y-176619D01*
X77877D01*
X78544Y-177286D01*
Y-179285D01*
Y-177952D02*
X79876Y-176619D01*
X76544Y-175286D02*
X75878Y-174620D01*
Y-173287D01*
X76544Y-172620D01*
X77211D01*
X77877Y-173287D01*
X78544Y-172620D01*
X79210D01*
X79876Y-173287D01*
Y-174620D01*
X79210Y-175286D01*
X78544D01*
X77877Y-174620D01*
X77211Y-175286D01*
X76544D01*
X77877Y-174620D02*
Y-173287D01*
X192468Y-83499D02*
Y-79501D01*
X194467D01*
X195133Y-80167D01*
Y-81500D01*
X194467Y-82166D01*
X192468D01*
X193801D02*
X195133Y-83499D01*
X198466D02*
Y-79501D01*
X196467Y-81500D01*
X199132D01*
X192468Y-99097D02*
Y-95098D01*
X194467D01*
X195133Y-95764D01*
Y-97097D01*
X194467Y-97764D01*
X192468D01*
X193801D02*
X195133Y-99097D01*
X196467Y-95764D02*
X197133Y-95098D01*
X198466D01*
X199132Y-95764D01*
Y-96431D01*
X198466Y-97097D01*
X197799D01*
X198466D01*
X199132Y-97764D01*
Y-98430D01*
X198466Y-99097D01*
X197133D01*
X196467Y-98430D01*
X234661Y-49005D02*
X233329D01*
X233995D01*
Y-52338D01*
X233329Y-53004D01*
X232662D01*
X231996Y-52338D01*
X235994Y-49672D02*
X236661Y-49005D01*
X237994D01*
X238660Y-49672D01*
Y-50338D01*
X237994Y-51005D01*
X237327D01*
X237994D01*
X238660Y-51671D01*
Y-52338D01*
X237994Y-53004D01*
X236661D01*
X235994Y-52338D01*
X226921Y-129483D02*
X225803Y-128757D01*
X226362Y-129120D01*
X224548Y-131914D01*
X223626Y-132111D01*
X223067Y-131747D01*
X222871Y-130826D01*
X225861Y-133562D02*
X226979Y-134288D01*
X226420Y-133925D01*
X228598Y-130572D01*
X227676Y-130768D01*
X104395Y-86071D02*
X103728Y-86737D01*
Y-88070D01*
X104395Y-88736D01*
X107061D01*
X107727Y-88070D01*
Y-86737D01*
X107061Y-86071D01*
X103728Y-84738D02*
Y-82072D01*
X104395D01*
X107061Y-84738D01*
X107727D01*
X103728Y-80739D02*
Y-78073D01*
X104395D01*
X107061Y-80739D01*
X107727D01*
X112068Y-67149D02*
X111401Y-66483D01*
X110068D01*
X109402Y-67149D01*
Y-69815D01*
X110068Y-70481D01*
X111401D01*
X112068Y-69815D01*
X113400Y-66483D02*
X116066D01*
Y-67149D01*
X113400Y-69815D01*
Y-70481D01*
X120065Y-66483D02*
X118732Y-67149D01*
X117399Y-68482D01*
Y-69815D01*
X118066Y-70481D01*
X119398D01*
X120065Y-69815D01*
Y-69148D01*
X119398Y-68482D01*
X117399D01*
X141731Y-86211D02*
X141065Y-86877D01*
Y-88210D01*
X141731Y-88876D01*
X144397D01*
X145063Y-88210D01*
Y-86877D01*
X144397Y-86211D01*
X141065Y-84878D02*
Y-82212D01*
X141731D01*
X144397Y-84878D01*
X145063D01*
X141065Y-78213D02*
Y-80879D01*
X143064D01*
X142398Y-79546D01*
Y-78880D01*
X143064Y-78213D01*
X144397D01*
X145063Y-78880D01*
Y-80213D01*
X144397Y-80879D01*
X204645Y-106151D02*
X203813Y-106594D01*
X203423Y-107868D01*
X203866Y-108700D01*
X206415Y-109480D01*
X207247Y-109037D01*
X207637Y-107763D01*
X207194Y-106930D01*
X209001Y-103301D02*
X208221Y-105851D01*
X206451Y-102522D01*
X205814Y-102327D01*
X204982Y-102769D01*
X204592Y-104044D01*
X205035Y-104876D01*
X210170Y-99477D02*
X209390Y-102027D01*
X207620Y-98698D01*
X206983Y-98503D01*
X206151Y-98945D01*
X205761Y-100220D01*
X206204Y-101052D01*
X123659Y10000D02*
X123146Y10790D01*
X121842Y11068D01*
X121052Y10554D01*
X120498Y7947D01*
X121011Y7156D01*
X122315Y6879D01*
X123105Y7392D01*
X126878Y5909D02*
X124270Y6463D01*
X127432Y8517D01*
X127571Y9169D01*
X127057Y9959D01*
X125754Y10236D01*
X124963Y9723D01*
X128182Y5632D02*
X129485Y5355D01*
X128834Y5494D01*
X129665Y9405D01*
X128875Y8891D01*
X62698Y-170641D02*
X62032Y-171308D01*
Y-172640D01*
X62698Y-173307D01*
X65364D01*
X66031Y-172640D01*
Y-171308D01*
X65364Y-170641D01*
X66031Y-166642D02*
Y-169308D01*
X63365Y-166642D01*
X62698D01*
X62032Y-167309D01*
Y-168642D01*
X62698Y-169308D01*
Y-165310D02*
X62032Y-164643D01*
Y-163310D01*
X62698Y-162644D01*
X65364D01*
X66031Y-163310D01*
Y-164643D01*
X65364Y-165310D01*
X62698D01*
X161908Y-6884D02*
X161778Y-5950D01*
X160715Y-5146D01*
X159782Y-5276D01*
X158174Y-7402D01*
X158303Y-8336D01*
X159366Y-9140D01*
X160300Y-9010D01*
X160961Y-10346D02*
X162024Y-11150D01*
X161492Y-10748D01*
X163905Y-7559D01*
X162971Y-7688D01*
X164021Y-11824D02*
X164150Y-12758D01*
X165213Y-13562D01*
X166147Y-13432D01*
X167755Y-11306D01*
X167625Y-10373D01*
X166562Y-9568D01*
X165629Y-9698D01*
X165227Y-10230D01*
X165356Y-11163D01*
X166951Y-12369D01*
X21942Y-126067D02*
X21326Y-125451D01*
X20093D01*
X19477Y-126067D01*
Y-128533D01*
X20093Y-129149D01*
X21326D01*
X21942Y-128533D01*
X23175Y-129149D02*
X24408D01*
X23792D01*
Y-125451D01*
X23175Y-126067D01*
X26258Y-125451D02*
X28723D01*
Y-126067D01*
X26258Y-128533D01*
Y-129149D01*
X36131Y-180117D02*
X35245Y-180439D01*
X34682Y-181648D01*
X35004Y-182533D01*
X37420Y-183660D01*
X38306Y-183337D01*
X38869Y-182129D01*
X38547Y-181244D01*
X39714Y-180317D02*
X40278Y-179109D01*
X39996Y-179713D01*
X36372Y-178023D01*
X36694Y-178909D01*
X38625Y-173191D02*
X37499Y-175607D01*
X39311Y-176452D01*
X39270Y-174963D01*
X39552Y-174359D01*
X40437Y-174036D01*
X41645Y-174600D01*
X41968Y-175485D01*
X41404Y-176693D01*
X40519Y-177016D01*
X34367Y-131271D02*
X33701Y-130605D01*
X32368D01*
X31702Y-131271D01*
Y-133937D01*
X32368Y-134603D01*
X33701D01*
X34367Y-133937D01*
X35700Y-134603D02*
X37033D01*
X36367D01*
Y-130605D01*
X35700Y-131271D01*
X41032Y-134603D02*
Y-130605D01*
X39033Y-132604D01*
X41698D01*
X148795Y-109432D02*
X148128Y-110099D01*
Y-111432D01*
X148795Y-112098D01*
X151461D01*
X152127Y-111432D01*
Y-110099D01*
X151461Y-109432D01*
X148128Y-108099D02*
Y-105434D01*
X148795D01*
X151461Y-108099D01*
X152127D01*
X159233Y-151067D02*
X158567Y-150401D01*
X157234D01*
X156568Y-151067D01*
Y-153733D01*
X157234Y-154399D01*
X158567D01*
X159233Y-153733D01*
X163232Y-150401D02*
X161899Y-151067D01*
X160566Y-152400D01*
Y-153733D01*
X161233Y-154399D01*
X162566D01*
X163232Y-153733D01*
Y-153067D01*
X162566Y-152400D01*
X160566D01*
X196733Y-122687D02*
X195811Y-122883D01*
X195086Y-124001D01*
X195282Y-124922D01*
X197517Y-126374D01*
X198439Y-126178D01*
X199165Y-125060D01*
X198969Y-124139D01*
X201706Y-121148D02*
X200254Y-123384D01*
X199470Y-119696D01*
X198911Y-119333D01*
X197989Y-119529D01*
X197263Y-120647D01*
X197459Y-121569D01*
X120167Y-136967D02*
X119501Y-137633D01*
Y-138966D01*
X120167Y-139632D01*
X122833D01*
X123499Y-138966D01*
Y-137633D01*
X122833Y-136967D01*
X119501Y-132968D02*
Y-135634D01*
X121500D01*
X120834Y-134301D01*
Y-133634D01*
X121500Y-132968D01*
X122833D01*
X123499Y-133634D01*
Y-134967D01*
X122833Y-135634D01*
X180988Y-136973D02*
X180066Y-137169D01*
X179340Y-138286D01*
X179536Y-139208D01*
X181772Y-140660D01*
X182693Y-140464D01*
X183419Y-139347D01*
X183223Y-138425D01*
X184508Y-137670D02*
X185234Y-136552D01*
X184871Y-137111D01*
X181518Y-134933D01*
X181714Y-135855D01*
D11*
X62854Y-188005D02*
G03*
X62854Y-188005I-4826J0D01*
G01*
X166665Y-45898D02*
X177664D01*
X166665Y-22600D02*
X177664D01*
Y-45898D02*
Y-22600D01*
X166665Y-45898D02*
Y-22600D01*
X173150Y-83200D02*
X187057D01*
X173150Y-59676D02*
X187057D01*
Y-83200D02*
Y-59676D01*
X173150Y-83200D02*
Y-59676D01*
X95128Y-158528D02*
Y-148928D01*
X99328D01*
X95128Y-158528D02*
X99328D01*
Y-148928D01*
X133328Y-111100D02*
X142928D01*
Y-115300D02*
Y-111100D01*
X133328Y-115300D02*
Y-111100D01*
Y-115300D02*
X142928D01*
X48544Y22192D02*
X50908Y24039D01*
X48507Y27112D02*
X50908Y24039D01*
X35620Y12095D02*
X42082Y17144D01*
X26230Y18591D02*
X37972Y27765D01*
X35594Y25907D02*
X35597Y25932D01*
X34561Y27257D02*
X35597Y25932D01*
X27548Y21778D02*
X34561Y27257D01*
X27548Y21778D02*
X28583Y20452D01*
X26480Y4954D02*
X28844Y6801D01*
X24078Y8027D02*
X26480Y4954D01*
X95837Y39132D02*
X98760Y39807D01*
X97883Y43607D02*
X98760Y39807D01*
X79857Y35443D02*
X87847Y37288D01*
X74092Y45299D02*
X88611Y48651D01*
X85670Y47972D02*
X85683Y47993D01*
X85305Y49632D02*
X85683Y47993D01*
X76633Y47630D02*
X85305Y49632D01*
X76633Y47630D02*
X77012Y45991D01*
X68555Y32834D02*
X71478Y33509D01*
X67677Y36634D02*
X68555Y32834D01*
X118661Y39825D02*
X119472Y43640D01*
X118661Y39825D02*
X121596Y39202D01*
X131887Y48176D02*
X132237Y49821D01*
X140942Y47971D01*
X140592Y46326D02*
X140942Y47971D01*
X140571Y46312D02*
X140592Y46326D01*
X128949Y48782D02*
X143523Y45684D01*
X130008Y37414D02*
X138029Y35709D01*
X148984Y33380D02*
X149795Y37195D01*
X146050Y34004D02*
X148984Y33380D01*
X166502Y24801D02*
X168855Y27912D01*
X166502Y24801D02*
X168895Y22991D01*
X182021Y26753D02*
X183036Y28095D01*
X190134Y22726D01*
X189120Y21385D02*
X190134Y22726D01*
X189094Y21381D02*
X189120Y21385D01*
X179618Y28548D02*
X191501Y19561D01*
X175754Y17804D02*
X182294Y12858D01*
X191227Y6102D02*
X193580Y9212D01*
X188835Y7911D02*
X191227Y6102D01*
X129500Y-190900D02*
X139100D01*
X129500D02*
Y-186700D01*
X139100Y-190900D02*
Y-186700D01*
X129500D02*
X139100D01*
X138200Y-200000D02*
X144200D01*
X138200Y-192200D02*
X144200D01*
Y-200000D02*
Y-192200D01*
X127400Y-200000D02*
X133400D01*
X127400Y-192200D02*
X133400D01*
X127400Y-200000D02*
Y-192200D01*
X30428Y-131718D02*
Y-123855D01*
X20628Y-117100D02*
X22227Y-117090D01*
X19406Y-118855D02*
X20628Y-117100D01*
X19406Y-125873D02*
Y-118855D01*
X181528Y-58530D02*
X182258Y-57800D01*
X180798D02*
X181528Y-58530D01*
Y-45005D01*
X179873Y-43350D02*
X181528Y-45005D01*
X178766Y-43350D02*
X179873D01*
X94028Y-2505D02*
X103628D01*
X94028D02*
Y1695D01*
X103628Y-2505D02*
Y1695D01*
X94028D02*
X103628D01*
X143388Y-39465D02*
Y-29864D01*
X147588D01*
X143388Y-39465D02*
X147588D01*
Y-29864D01*
X121550Y-39402D02*
Y-29802D01*
X125750D01*
X121550Y-39402D02*
X125750D01*
Y-29802D01*
X126988Y-39564D02*
Y-29965D01*
X131188D01*
X126988Y-39564D02*
X131188D01*
Y-29965D01*
X141588Y-39465D02*
Y-29864D01*
X137388Y-39465D02*
X141588D01*
X137388Y-29864D02*
X141588D01*
X137388Y-39465D02*
Y-29864D01*
X167388Y-27465D02*
X176988D01*
X167388D02*
Y-23265D01*
X176988Y-27465D02*
Y-23265D01*
X167388D02*
X176988D01*
X167388Y-33364D02*
X176988D01*
X167388D02*
Y-29164D01*
X176988Y-33364D02*
Y-29164D01*
X167388D02*
X176988D01*
X167388Y-39265D02*
X176988D01*
X167388D02*
Y-35065D01*
X176988Y-39265D02*
Y-35065D01*
X167388D02*
X176988D01*
X167388Y-45164D02*
X176988D01*
X167388D02*
Y-40964D01*
X176988Y-45164D02*
Y-40964D01*
X167388D02*
X176988D01*
X92628Y-13505D02*
Y-3905D01*
X88428Y-13505D02*
X92628D01*
X88428Y-3905D02*
X92628D01*
X88428Y-13505D02*
Y-3905D01*
X53086Y-120404D02*
X58586D01*
X53086Y-124304D02*
Y-120404D01*
X60886Y-132604D02*
X61386Y-133104D01*
X60386D02*
X60886Y-132604D01*
X60386Y-133104D02*
X61386D01*
X59386Y-127804D02*
Y-125204D01*
X53086Y-132604D02*
X58586D01*
X53086D02*
Y-128704D01*
X45448Y-131718D02*
Y-125518D01*
X48648D01*
X45448Y-131718D02*
X48648D01*
Y-125518D01*
X53234Y-115819D02*
X59434D01*
Y-119019D02*
Y-115819D01*
X53234Y-119019D02*
Y-115819D01*
Y-119019D02*
X59434D01*
X81228Y-156605D02*
X84428D01*
X81228D02*
Y-154605D01*
X84428Y-156605D02*
Y-154605D01*
X81228Y-150405D02*
X84428D01*
X81228Y-152405D02*
Y-150405D01*
X84428Y-152405D02*
Y-150405D01*
X84512Y11893D02*
X86460Y12343D01*
X85231Y8775D02*
X87180Y9225D01*
X84512Y11893D02*
X85231Y8775D01*
X88604Y12838D02*
X90553Y13288D01*
X89324Y9720D02*
X91272Y10170D01*
X90553Y13288D02*
X91272Y10170D01*
X191676Y-148395D02*
X211071Y-160990D01*
X191676Y-148395D02*
X207805Y-123558D01*
X227201Y-136153D01*
X211071Y-160990D02*
X227201Y-136153D01*
X226671Y-99233D02*
X232408Y-100987D01*
X232899Y-120672D02*
X238161Y-103458D01*
X215494Y-115351D02*
X220757Y-98137D01*
X221009Y-117750D02*
X226747Y-119504D01*
X193257Y-128911D02*
X195941Y-130654D01*
X194851Y-132331D02*
X195941Y-130654D01*
X192168Y-130588D02*
X193257Y-128911D01*
X189880Y-134111D02*
X192564Y-135854D01*
X193653Y-134176D01*
X189880Y-134111D02*
X190969Y-132433D01*
X68328Y-165005D02*
X74528D01*
X68328D02*
Y-161805D01*
X74528Y-165005D02*
Y-161805D01*
X68328D02*
X74528D01*
X53728Y-161505D02*
X57928D01*
Y-158405D01*
X53728Y-161505D02*
Y-158405D01*
Y-151705D02*
X57928D01*
Y-154805D02*
Y-151705D01*
X53728Y-154805D02*
Y-151705D01*
X59128Y-161505D02*
X63328D01*
Y-158405D01*
X59128Y-161505D02*
Y-158405D01*
Y-151705D02*
X63328D01*
Y-154805D02*
Y-151705D01*
X59128Y-154805D02*
Y-151705D01*
X81628Y-124394D02*
X93439D01*
X69817D02*
X81628D01*
Y-148016D02*
X93439D01*
X69817D02*
X81628D01*
X-6706Y-112014D02*
X17664Y-112014D01*
X-6706Y-40413D02*
X17664Y-40413D01*
X-6706Y-112014D02*
X-6706Y-40413D01*
X91103Y-40489D02*
X94303Y-40489D01*
Y-50289D02*
Y-40489D01*
X94303Y-102189D02*
X94303Y-111989D01*
X91103Y-111989D02*
X94303Y-111989D01*
X17664Y-40434D02*
X17664Y-112014D01*
X132828Y-103392D02*
X133328Y-102892D01*
X132828Y-102392D02*
X133328Y-102892D01*
X132828Y-103392D02*
X132828Y-102392D01*
X136128Y-101692D02*
X140328Y-101692D01*
X136128Y-110092D02*
X140328D01*
X14133Y-168071D02*
X29212Y-180724D01*
X27043Y-152685D02*
X42123Y-165338D01*
X127861Y-105640D02*
X132061Y-105640D01*
X132061Y-102540D02*
X132061Y-105640D01*
X127861Y-105640D02*
Y-102540D01*
X127861Y-95840D02*
X132061Y-95840D01*
Y-98940D02*
Y-95840D01*
X127861Y-95840D02*
X127861Y-98940D01*
X31750Y-129255D02*
X34850Y-129255D01*
X31750Y-125055D02*
X34850Y-125055D01*
X31750Y-125055D02*
X31750Y-129255D01*
X38450Y-129255D02*
X41550Y-129255D01*
X38450Y-125055D02*
X41550Y-125055D01*
X41550Y-129255D01*
X31850Y-119655D02*
X41450Y-119655D01*
X41450Y-123855D02*
X41450Y-119655D01*
X31850Y-123855D02*
X31850Y-119655D01*
X31850Y-123855D02*
X41450Y-123855D01*
X26628Y-118855D02*
X28628D01*
X26628Y-115655D02*
X28628D01*
Y-118855D02*
Y-115655D01*
X22428Y-118855D02*
X24428D01*
X22428Y-115655D02*
X24428D01*
X22428Y-118855D02*
Y-115655D01*
X20628Y-123855D02*
X23728D01*
X20628Y-119655D02*
X23728D01*
X20628Y-123855D02*
Y-119655D01*
X27328Y-123855D02*
X30428D01*
X27328Y-119655D02*
X30428D01*
Y-123855D02*
Y-119655D01*
X54714Y-176419D02*
X69215Y-183180D01*
X47022Y-192913D02*
X61523Y-199675D01*
X48235Y-186527D02*
X50601Y-181452D01*
X65454Y-194557D02*
X67821Y-189482D01*
X121928Y-128105D02*
X131528D01*
X121928Y-123905D02*
X121928Y-128105D01*
X131528Y-123905D02*
X131528Y-128105D01*
X121928Y-123905D02*
X131528D01*
X208282Y12034D02*
X220401Y-3478D01*
X192455Y-332D02*
X204574Y-15844D01*
X75728Y-171205D02*
Y-161605D01*
X79928D01*
X75728Y-171205D02*
X79928D01*
Y-161605D01*
X164028Y-149105D02*
Y-142305D01*
X160028Y-142305D02*
X164028Y-142305D01*
X160028Y-149105D02*
X164028D01*
X151228Y-149105D02*
Y-142305D01*
X155228D01*
X151228Y-149105D02*
X155228Y-149105D01*
X124728Y-142005D02*
X131528D01*
X131528Y-138005D01*
X124728Y-142005D02*
Y-138005D01*
X124728Y-129205D02*
X131528D01*
Y-133205D02*
Y-129205D01*
X124728Y-133205D02*
X124728Y-129205D01*
X143816Y-111866D02*
X147016D01*
X143816D02*
Y-109866D01*
X147016Y-111866D02*
Y-109866D01*
X143816Y-105666D02*
X147016D01*
X143816Y-107666D02*
Y-105666D01*
X147016Y-107666D02*
Y-105666D01*
X173733Y-169438D02*
X188812Y-156785D01*
X186643Y-184824D02*
X201723Y-172171D01*
X122389Y-77305D02*
X129288D01*
Y-77698D02*
Y-77305D01*
X122389Y-77698D02*
Y-77305D01*
Y-89105D02*
X129288D01*
Y-88711D01*
X122389Y-89105D02*
Y-88711D01*
X122363Y-84937D02*
Y-81559D01*
X133728Y-86905D02*
X134228Y-86405D01*
X133728Y-86905D02*
X134228Y-87405D01*
Y-86405D01*
X142628Y-141505D02*
X157428D01*
X142628Y-121705D02*
X157428Y-121705D01*
X142628Y-121705D02*
X142628Y-141505D01*
X157428D02*
Y-121705D01*
X68478Y-154389D02*
X68978Y-153889D01*
X68478Y-153389D02*
X68978Y-153889D01*
X68478Y-154389D02*
Y-153389D01*
X70378Y-151989D02*
X77978D01*
X70378Y-160389D02*
X77978D01*
X94028Y-161605D02*
Y-157605D01*
X87228Y-161605D02*
Y-157605D01*
Y-161605D02*
X94028D01*
Y-152805D02*
Y-148805D01*
X87228Y-152805D02*
Y-148805D01*
X94028D01*
X30928Y-36905D02*
Y-27305D01*
X35128D01*
X30928Y-36905D02*
X35128D01*
Y-27305D01*
X64528Y-153705D02*
X67728D01*
Y-155705D02*
Y-153705D01*
X64528Y-155705D02*
Y-153705D01*
Y-159905D02*
X67728D01*
Y-157905D01*
X64528Y-159905D02*
Y-157905D01*
X132228Y-133605D02*
X135428D01*
Y-135605D02*
Y-133605D01*
X132228Y-135605D02*
Y-133605D01*
Y-139805D02*
X135428D01*
Y-137805D01*
X132228Y-139805D02*
Y-137805D01*
X121450Y-28742D02*
Y-19142D01*
X125650D01*
X121450Y-28742D02*
X125650D01*
Y-19142D01*
X97600Y-92113D02*
X97600Y-101713D01*
X97600Y-92113D02*
X101800D01*
X97600Y-101713D02*
X101800D01*
X101800Y-92113D02*
X101800Y-101713D01*
X139203Y-96374D02*
X148803D01*
X148803Y-100574D01*
X139203Y-96374D02*
X139203Y-100574D01*
X148803D01*
X189328Y-88605D02*
X198928D01*
X189328D02*
Y-84405D01*
X198928Y-88605D02*
Y-84405D01*
X189328D02*
X198928D01*
X177568Y-84105D02*
X180268D01*
X177568Y-88905D02*
X180268D01*
X177568D02*
Y-84105D01*
X183668D02*
X186368D01*
X183668Y-88905D02*
X186368D01*
Y-84105D01*
X81228Y-116029D02*
X90828Y-116029D01*
X90828Y-120229D02*
X90828Y-116029D01*
X81228Y-120229D02*
X81228Y-116029D01*
X81228Y-120229D02*
X90828Y-120229D01*
X76028Y-37405D02*
X76028Y-27805D01*
X80228Y-27805D01*
X76028Y-37405D02*
X80228Y-37405D01*
X80228Y-27805D01*
X222518Y-48405D02*
Y-45205D01*
X220518Y-48405D02*
X222518D01*
X220518Y-45205D02*
X222518D01*
X216318Y-48405D02*
Y-45205D01*
Y-48405D02*
X218318D01*
X216318Y-45205D02*
X218318D01*
X181373Y-132798D02*
X187076Y-136502D01*
X189255Y-133147D01*
X181373Y-132798D02*
X183552Y-129443D01*
X188345Y-122063D02*
X194047Y-125767D01*
X191869Y-129121D02*
X194047Y-125767D01*
X186166Y-125418D02*
X188345Y-122063D01*
X39363Y-182858D02*
X42263Y-184210D01*
X39363Y-182858D02*
X40208Y-181045D01*
X42263Y-184210D02*
X43108Y-182397D01*
X41983Y-177239D02*
X44883Y-178591D01*
X41138Y-179051D02*
X41983Y-177239D01*
X44038Y-180404D02*
X44883Y-178591D01*
X166418Y-8205D02*
X168349Y-5653D01*
X164823Y-6999D02*
X166418Y-8205D01*
X166753Y-4446D02*
X168349Y-5653D01*
X161473Y-4465D02*
X163403Y-1913D01*
X161473Y-4465D02*
X163068Y-5672D01*
X163403Y-1913D02*
X164999Y-3119D01*
X129627Y10219D02*
X130293Y13349D01*
X127671Y10635D02*
X129627Y10219D01*
X128337Y13765D02*
X130293Y13349D01*
X123563Y11508D02*
X124228Y14638D01*
X123563Y11508D02*
X125519Y11092D01*
X124228Y14638D02*
X126184Y14223D01*
X213380Y-103121D02*
X213964Y-101208D01*
X210319Y-102185D02*
X210904Y-100272D01*
X213964Y-101208D01*
X212152Y-107137D02*
X212736Y-105224D01*
X209091Y-106201D02*
X209676Y-104289D01*
X209091Y-106201D02*
X212152Y-107137D01*
X135846Y-88705D02*
X140046D01*
Y-85605D01*
X135846Y-88705D02*
Y-85605D01*
Y-78905D02*
X140046D01*
Y-82005D02*
Y-78905D01*
X135846Y-82005D02*
Y-78905D01*
X119128Y-75905D02*
Y-71705D01*
X116028D02*
X119128D01*
X116028Y-75905D02*
X119128D01*
X109328D02*
Y-71705D01*
X112428D01*
X109328Y-75905D02*
X112428D01*
X109068Y-88564D02*
X113268D01*
Y-85465D01*
X109068Y-88564D02*
Y-85465D01*
Y-78764D02*
X113268D01*
Y-81865D02*
Y-78764D01*
X109068Y-81865D02*
Y-78764D01*
X114128Y-87155D02*
Y-85155D01*
X117328Y-87155D02*
Y-85155D01*
X114128Y-87155D02*
X117328D01*
X114128Y-82955D02*
Y-80955D01*
X117328Y-82955D02*
Y-80955D01*
X114128D02*
X117328D01*
X224698Y-59247D02*
X225198Y-59747D01*
X225698Y-59247D01*
X224698Y-59247D02*
X225698Y-59247D01*
X239854Y-60291D02*
X239854Y-83191D01*
X226771Y-55666D02*
X230824Y-55666D01*
X226771Y-55666D02*
X226771Y-59520D01*
X226771Y-87628D02*
X230824Y-87628D01*
X226771Y-87628D02*
Y-83775D01*
X177568Y-89605D02*
X180268D01*
X177568Y-94405D02*
X180268D01*
X177568D02*
Y-89605D01*
X183668D02*
X186368D01*
X183668Y-94405D02*
X186368D01*
Y-89605D01*
X189328Y-94105D02*
X198928D01*
X189328D02*
Y-89905D01*
X198928Y-94105D02*
Y-89905D01*
X189328D02*
X198928D01*
X103788Y-17564D02*
Y-17064D01*
X96988Y-5765D02*
X103788D01*
X96988Y-17564D02*
X103788D01*
X107688Y-15464D02*
X108188Y-14965D01*
X107688Y-15464D02*
X108188Y-15965D01*
Y-14965D01*
X96988Y-17564D02*
Y-17064D01*
X103788Y-6265D02*
Y-5765D01*
X96988Y-6265D02*
Y-5765D01*
X94800Y-18300D02*
X96800D01*
X94800Y-21500D02*
X96800D01*
X94800D02*
Y-18300D01*
X99000D02*
X101000D01*
X99000Y-21500D02*
X101000D01*
Y-18300D01*
X155928Y-49005D02*
X160128D01*
X155928Y-52105D02*
Y-49005D01*
X160128Y-52105D02*
Y-49005D01*
X155928Y-58805D02*
X160128D01*
X155928D02*
Y-55705D01*
X160128Y-58805D02*
Y-55705D01*
X167628Y-60005D02*
Y-56005D01*
X160828Y-60005D02*
Y-56005D01*
Y-60005D02*
X167628D01*
Y-51205D02*
Y-47205D01*
X160828Y-51205D02*
Y-47205D01*
X167628D01*
X188728Y-48605D02*
X190428D01*
X188728Y-45005D02*
X190428D01*
X172328Y-54705D02*
Y-53005D01*
X168728Y-54705D02*
Y-53005D01*
X215268Y-39472D02*
Y-21272D01*
X194868Y-39472D02*
Y-21272D01*
X138488Y-40464D02*
X148088D01*
Y-44664D02*
Y-40464D01*
X138488Y-44664D02*
Y-40464D01*
Y-44664D02*
X148088D01*
X136388Y-33264D02*
Y-23664D01*
X132188Y-33264D02*
X136388D01*
X132188Y-23664D02*
X136388D01*
X132188Y-33264D02*
Y-23664D01*
X163188Y-45804D02*
Y-44004D01*
X161488Y-45804D02*
X163188D01*
X150788D02*
Y-44004D01*
Y-45804D02*
X152488D01*
X163188Y-35204D02*
Y-33404D01*
X161488D02*
X163188D01*
X150788Y-35204D02*
Y-33404D01*
X152488D01*
X148688Y-37004D02*
X149188Y-36504D01*
X148688Y-36004D02*
X149188Y-36504D01*
X148688Y-37004D02*
Y-36004D01*
X137988Y-55865D02*
X147588D01*
Y-60065D02*
Y-55865D01*
X137988Y-60065D02*
Y-55865D01*
Y-60065D02*
X147588D01*
X137588Y-55064D02*
Y-45465D01*
X141788D01*
X137588Y-55064D02*
X141788D01*
Y-45465D01*
X86700Y-13500D02*
Y-3900D01*
X82500Y-13500D02*
X86700D01*
X82500Y-3900D02*
X86700D01*
X82500Y-13500D02*
Y-3900D01*
X142588Y-53965D02*
Y-52965D01*
X143088Y-53465D01*
X142588Y-53965D02*
X143088Y-53465D01*
X146188Y-52965D02*
X146388D01*
X148788Y-51964D02*
Y-48864D01*
X147788D02*
X148788D01*
X143788Y-51964D02*
Y-48864D01*
X144788D01*
X143788Y-51964D02*
Y-48864D01*
X144788D01*
X188712Y-29664D02*
X190412D01*
X188712Y-33264D02*
X190412D01*
X215268Y-62457D02*
Y-44257D01*
X194868Y-62457D02*
Y-44257D01*
X222518Y-38565D02*
Y-35364D01*
X220518Y-38565D02*
X222518D01*
X220518Y-35364D02*
X222518D01*
X216318Y-38565D02*
Y-35364D01*
Y-38565D02*
X218318D01*
X216318Y-35364D02*
X218318D01*
D12*
X48748Y-131818D02*
Y-125418D01*
X53134Y-119119D02*
X59534D01*
X68228Y-161705D02*
X74628D01*
D13*
X22595Y-114805D02*
X23595D01*
X22595D02*
X23095Y-114305D01*
X23595Y-114805D01*
X134928Y-7805D02*
Y-4405D01*
X132928Y-9805D02*
X134928Y-7805D01*
X129528Y-9805D02*
X132928D01*
X129528Y-2405D02*
X132928D01*
X134928Y-4405D01*
Y-7805D02*
Y-4405D01*
X127528Y-7805D02*
Y-4405D01*
X129528Y-2405D01*
X127528Y-7805D02*
X129528Y-9805D01*
X127528Y-7805D02*
Y-4405D01*
X149128Y-8205D02*
Y-4805D01*
Y-8205D02*
X151128Y-10205D01*
X149128Y-4805D02*
X151128Y-2805D01*
X149128Y-8205D02*
Y-4805D01*
X156528Y-8205D02*
Y-4805D01*
X154528Y-2805D02*
X156528Y-4805D01*
X151128Y-2805D02*
X154528D01*
X151128Y-10205D02*
X154528D01*
X156528Y-8205D01*
Y-4805D01*
X217672Y-19656D02*
X225486Y-38066D01*
X234691Y-34159D01*
X226877Y-15748D02*
X234691Y-34159D01*
X217672Y-19656D02*
X226877Y-15748D01*
X113800Y-161405D02*
Y-158005D01*
X111800Y-163405D02*
X113800Y-161405D01*
X108400Y-163405D02*
X111800D01*
X108400Y-156005D02*
X111800D01*
X113800Y-158005D01*
Y-161405D02*
Y-158005D01*
X106400Y-161405D02*
Y-158005D01*
X108400Y-156005D01*
X106400Y-161405D02*
X108400Y-163405D01*
X106400Y-161405D02*
Y-158005D01*
X106372Y-152233D02*
Y-148833D01*
Y-152233D02*
X108372Y-154233D01*
X106372Y-148833D02*
X108372Y-146833D01*
X106372Y-152233D02*
Y-148833D01*
X113772Y-152233D02*
Y-148833D01*
X111772Y-146833D02*
X113772Y-148833D01*
X108372Y-146833D02*
X111772D01*
X108372Y-154233D02*
X111772D01*
X113772Y-152233D01*
Y-148833D01*
D14*
X134863Y-124536D02*
X135363Y-124036D01*
X134863Y-123536D02*
X135363Y-124036D01*
X134863Y-124536D02*
X134863Y-123536D01*
D15*
X45635Y-137699D02*
Y-133901D01*
X47534D01*
X48167Y-134534D01*
Y-135800D01*
X47534Y-136433D01*
X45635D01*
X46901D02*
X48167Y-137699D01*
X51966D02*
X49434D01*
X51966Y-135167D01*
Y-134534D01*
X51333Y-133901D01*
X50067D01*
X49434Y-134534D01*
X53233Y-133901D02*
X55765D01*
Y-134534D01*
X53233Y-137066D01*
Y-137699D01*
X60835Y-118699D02*
Y-114901D01*
X62734D01*
X63367Y-115534D01*
Y-116800D01*
X62734Y-117433D01*
X60835D01*
X62101D02*
X63367Y-118699D01*
X67166D02*
X64634D01*
X67166Y-116167D01*
Y-115534D01*
X66533Y-114901D01*
X65267D01*
X64634Y-115534D01*
X70965Y-114901D02*
X69699Y-115534D01*
X68432Y-116800D01*
Y-118066D01*
X69066Y-118699D01*
X70332D01*
X70965Y-118066D01*
Y-117433D01*
X70332Y-116800D01*
X68432D01*
X65267Y-123021D02*
Y-120488D01*
X64634Y-119855D01*
X63367D01*
X62734Y-120488D01*
Y-123021D01*
X63367Y-123654D01*
X64634D01*
X64001Y-122388D02*
X65267Y-123654D01*
X64634D02*
X65267Y-123021D01*
X69066Y-119855D02*
X67799Y-120488D01*
X66533Y-121755D01*
Y-123021D01*
X67166Y-123654D01*
X68432D01*
X69066Y-123021D01*
Y-122388D01*
X68432Y-121755D01*
X66533D01*
X182178Y-598D02*
X181245Y-728D01*
X180440Y-1791D01*
X180570Y-2724D01*
X181102Y-3126D01*
X182035Y-2997D01*
X182839Y-1934D01*
X183773Y-1804D01*
X184304Y-2206D01*
X184434Y-3140D01*
X183630Y-4203D01*
X182696Y-4332D01*
X182450Y867D02*
X185640Y-1545D01*
X185381Y322D01*
X187248Y581D01*
X184058Y2993D01*
X189258Y3239D02*
X186069Y5651D01*
X186457Y2850D01*
X188065Y4976D01*
X53922Y21797D02*
X53710Y20879D01*
X54417Y19748D01*
X55335Y19536D01*
X55900Y19890D01*
X56112Y20808D01*
X55406Y21938D01*
X55618Y22857D01*
X56183Y23210D01*
X57101Y22998D01*
X57808Y21867D01*
X57596Y20949D01*
X52651Y22574D02*
X56042Y24693D01*
X54205Y25117D01*
X54629Y26954D01*
X51238Y24835D01*
X51097Y26319D02*
X50179Y26531D01*
X49472Y27661D01*
X49684Y28579D01*
X50250Y28932D01*
X51168Y28721D01*
X51380Y29639D01*
X51945Y29992D01*
X52864Y29780D01*
X53570Y28650D01*
X53358Y27731D01*
X52793Y27378D01*
X51874Y27590D01*
X51662Y26672D01*
X51097Y26319D01*
X51874Y27590D02*
X51168Y28721D01*
X231008Y-90866D02*
X230621Y-90138D01*
X229505Y-89797D01*
X228777Y-90184D01*
X228607Y-90742D01*
X228994Y-91470D01*
X230109Y-91811D01*
X230496Y-92539D01*
X230326Y-93097D01*
X229598Y-93484D01*
X228482Y-93143D01*
X228095Y-92415D01*
X232294Y-90650D02*
X231271Y-93996D01*
X232727Y-93221D01*
X233501Y-94678D01*
X234524Y-91332D01*
X235640Y-91673D02*
X237870Y-92355D01*
X237700Y-92912D01*
X234787Y-94461D01*
X234617Y-95019D01*
X145817Y24544D02*
X145026Y24031D01*
X144749Y22727D01*
X145263Y21937D01*
X145914Y21798D01*
X146705Y22312D01*
X146982Y23615D01*
X147773Y24129D01*
X148424Y23990D01*
X148938Y23200D01*
X148661Y21896D01*
X147870Y21383D01*
X145442Y25987D02*
X149353Y25155D01*
X148327Y26736D01*
X149908Y27763D01*
X145996Y28594D01*
X146828Y32506D02*
X147203Y31063D01*
X148229Y29482D01*
X149533Y29205D01*
X150323Y29719D01*
X150601Y31022D01*
X150087Y31813D01*
X149435Y31951D01*
X148645Y31438D01*
X148229Y29482D01*
X92420Y-120029D02*
Y-116230D01*
X94319D01*
X94953Y-116863D01*
Y-118129D01*
X94319Y-118762D01*
X92420D01*
X93686D02*
X94953Y-120029D01*
X96219D02*
X97485D01*
X96852D01*
Y-116230D01*
X96219Y-116863D01*
X99384Y-119395D02*
X100018Y-120029D01*
X101284D01*
X101917Y-119395D01*
Y-116863D01*
X101284Y-116230D01*
X100018D01*
X99384Y-116863D01*
Y-117496D01*
X100018Y-118129D01*
X101917D01*
X113270Y-90552D02*
X112687Y-89969D01*
X111521D01*
X110938Y-90552D01*
Y-92885D01*
X111521Y-93468D01*
X112687D01*
X113270Y-92885D01*
X114436Y-89969D02*
X116769D01*
Y-90552D01*
X114436Y-92885D01*
Y-93468D01*
X117935Y-90552D02*
X118518Y-89969D01*
X119685D01*
X120268Y-90552D01*
Y-91135D01*
X119685Y-91719D01*
X120268Y-92302D01*
Y-92885D01*
X119685Y-93468D01*
X118518D01*
X117935Y-92885D01*
Y-92302D01*
X118518Y-91719D01*
X117935Y-91135D01*
Y-90552D01*
X118518Y-91719D02*
X119685D01*
D16*
X1006Y-49455D02*
D03*
X1006Y-57355D02*
D03*
X993Y-65242D02*
D03*
X1006Y-73155D02*
D03*
X993Y-81042D02*
D03*
X993Y-88942D02*
D03*
D17*
X4943Y-53417D02*
D03*
X-2957Y-61292D02*
D03*
X4956Y-69205D02*
D03*
X-2957Y-77092D02*
D03*
X4943Y-85017D02*
D03*
X-2957Y-92917D02*
D03*
D18*
X4181Y-99005D02*
D03*
X4193Y-105892D02*
D03*
D19*
X-2944Y-102455D02*
D03*
D20*
X20272Y-109779D02*
D03*
D21*
X23087Y-106715D02*
D03*
D22*
X187618Y-86505D02*
D03*
Y-92005D02*
D03*
M02*
