G04*
G04 #@! TF.GenerationSoftware,Altium Limited,Altium Designer,22.1.2 (22)*
G04*
G04 Layer_Color=2752767*
%FSLAX25Y25*%
%MOIN*%
G70*
G04*
G04 #@! TF.SameCoordinates,673B4CCC-D109-4FC9-AC55-69538E973762*
G04*
G04*
G04 #@! TF.FilePolarity,Positive*
G04*
G01*
G75*
%ADD10C,0.01000*%
%ADD127C,0.01500*%
%ADD248C,0.01600*%
%ADD299C,0.00200*%
%ADD300C,0.01400*%
D10*
X293805Y28033D02*
G03*
X293805Y28033I-2000J0D01*
G01*
X295138D02*
G03*
X295138Y28033I-3333J0D01*
G01*
X288471Y69699D02*
X291805Y71366D01*
X295138Y69699D01*
X293471Y73033D02*
X295138Y69699D01*
X293471Y73033D02*
X295138Y76366D01*
X291805Y74699D02*
X295138Y76366D01*
X288471D02*
X291805Y74699D01*
X288471Y76366D02*
X290138Y73033D01*
X288471Y69699D02*
X290138Y73033D01*
X290805Y57033D02*
X291805Y56033D01*
X289805Y57033D02*
X290805D01*
X289805D02*
X290805Y58033D01*
X289805Y59033D02*
X290805Y58033D01*
X289805Y59033D02*
X290805D01*
X291805Y60033D01*
X292805Y59033D01*
X293805D01*
X292805Y58033D02*
X293805Y59033D01*
X292805Y58033D02*
X293805Y57033D01*
X292805D02*
X293805D01*
X291805Y56033D02*
X292805Y57033D01*
X290138Y56366D02*
X291805Y54699D01*
X288471Y56366D02*
X290138D01*
X288471D02*
X290138Y58033D01*
X288471Y59699D02*
X290138Y58033D01*
X288471Y59699D02*
X290138D01*
X291805Y61366D01*
X293471Y59699D01*
X295138D01*
X293471Y58033D02*
X295138Y59699D01*
X293471Y58033D02*
X295138Y56366D01*
X293471D02*
X295138D01*
X291805Y54699D02*
X293471Y56366D01*
X291805Y41033D02*
X293805Y45033D01*
X289805D02*
X293805D01*
X289805D02*
X291805Y41033D01*
Y39699D02*
X295138Y46366D01*
X288471D02*
X295138D01*
X288471D02*
X291805Y39699D01*
X288471Y13033D02*
X291805Y9699D01*
X295138Y13033D01*
X291805Y16366D02*
X295138Y13033D01*
X288471D02*
X291805Y16366D01*
Y-5301D02*
X295138Y1366D01*
X288471D02*
X295138D01*
X288471D02*
X291805Y-5301D01*
X288471Y-20301D02*
X295138D01*
Y-13634D01*
X288471D02*
X295138D01*
X288471Y-20301D02*
Y-13634D01*
X1141455Y72698D02*
X1145453D01*
X1141455Y59698D02*
X1142454Y60697D01*
X1144454D01*
X1145453Y59698D01*
Y58698D01*
X1144454Y57698D01*
X1143454D01*
X1144454D01*
X1145453Y56699D01*
Y55699D01*
X1144454Y54699D01*
X1142454D01*
X1141455Y55699D01*
X1147453Y54699D02*
X1149452D01*
X1148452D01*
Y60697D01*
X1147453Y59698D01*
X1152451Y54699D02*
Y55699D01*
X1153451D01*
Y54699D01*
X1152451D01*
X1161448Y60697D02*
X1157450D01*
Y57698D01*
X1159449Y58698D01*
X1160449D01*
X1161448Y57698D01*
Y55699D01*
X1160449Y54699D01*
X1158449D01*
X1157450Y55699D01*
X1163448Y59698D02*
X1164447Y60697D01*
X1166447D01*
X1167446Y59698D01*
Y55699D01*
X1166447Y54699D01*
X1164447D01*
X1163448Y55699D01*
Y59698D01*
X1169446Y54699D02*
Y58698D01*
X1170445D01*
X1171445Y57698D01*
Y54699D01*
Y57698D01*
X1172445Y58698D01*
X1173444Y57698D01*
Y54699D01*
X1175444D02*
X1177443D01*
X1176443D01*
Y58698D01*
X1175444D01*
X1180442Y54699D02*
X1182441D01*
X1181442D01*
Y60697D01*
X1180442D01*
X1193438Y54699D02*
X1191438Y56699D01*
Y58698D01*
X1193438Y60697D01*
X1196437Y59698D02*
X1197437Y60697D01*
X1199436D01*
X1200436Y59698D01*
Y55699D01*
X1199436Y54699D01*
X1197437D01*
X1196437Y55699D01*
Y59698D01*
X1202435Y54699D02*
Y55699D01*
X1203435D01*
Y54699D01*
X1202435D01*
X1207433Y59698D02*
X1208433Y60697D01*
X1210432D01*
X1211432Y59698D01*
Y58698D01*
X1210432Y57698D01*
X1211432Y56699D01*
Y55699D01*
X1210432Y54699D01*
X1208433D01*
X1207433Y55699D01*
Y56699D01*
X1208433Y57698D01*
X1207433Y58698D01*
Y59698D01*
X1208433Y57698D02*
X1210432D01*
X1213431Y59698D02*
X1214431Y60697D01*
X1216430D01*
X1217430Y59698D01*
Y55699D01*
X1216430Y54699D01*
X1214431D01*
X1213431Y55699D01*
Y59698D01*
X1219429D02*
X1220429Y60697D01*
X1222429D01*
X1223428Y59698D01*
Y55699D01*
X1222429Y54699D01*
X1220429D01*
X1219429Y55699D01*
Y59698D01*
X1225428Y54699D02*
Y58698D01*
X1226427D01*
X1227427Y57698D01*
Y54699D01*
Y57698D01*
X1228426Y58698D01*
X1229426Y57698D01*
Y54699D01*
X1231426D02*
Y58698D01*
X1232425D01*
X1233425Y57698D01*
Y54699D01*
Y57698D01*
X1234425Y58698D01*
X1235424Y57698D01*
Y54699D01*
X1237424D02*
X1239423Y56699D01*
Y58698D01*
X1237424Y60697D01*
X1144454Y39699D02*
Y45697D01*
X1141455Y42698D01*
X1145453D01*
X1147453Y44698D02*
X1148452Y45697D01*
X1150452D01*
X1151451Y44698D01*
Y43698D01*
X1150452Y42698D01*
X1149452D01*
X1150452D01*
X1151451Y41699D01*
Y40699D01*
X1150452Y39699D01*
X1148452D01*
X1147453Y40699D01*
X1153451Y39699D02*
Y40699D01*
X1154451D01*
Y39699D01*
X1153451D01*
X1158449Y44698D02*
X1159449Y45697D01*
X1161448D01*
X1162448Y44698D01*
Y43698D01*
X1161448Y42698D01*
X1160449D01*
X1161448D01*
X1162448Y41699D01*
Y40699D01*
X1161448Y39699D01*
X1159449D01*
X1158449Y40699D01*
X1164447Y39699D02*
X1166447D01*
X1165447D01*
Y45697D01*
X1164447Y44698D01*
X1169446Y39699D02*
Y43698D01*
X1170445D01*
X1171445Y42698D01*
Y39699D01*
Y42698D01*
X1172445Y43698D01*
X1173444Y42698D01*
Y39699D01*
X1175444D02*
X1177443D01*
X1176443D01*
Y43698D01*
X1175444D01*
X1180442Y39699D02*
X1182441D01*
X1181442D01*
Y45697D01*
X1180442D01*
X1193438Y39699D02*
X1191438Y41699D01*
Y43698D01*
X1193438Y45697D01*
X1196437Y39699D02*
X1198436D01*
X1197437D01*
Y45697D01*
X1196437Y44698D01*
X1201435Y39699D02*
Y40699D01*
X1202435D01*
Y39699D01*
X1201435D01*
X1206434D02*
X1208433D01*
X1207433D01*
Y45697D01*
X1206434Y44698D01*
X1211432D02*
X1212432Y45697D01*
X1214431D01*
X1215431Y44698D01*
Y40699D01*
X1214431Y39699D01*
X1212432D01*
X1211432Y40699D01*
Y44698D01*
X1217430D02*
X1218430Y45697D01*
X1220429D01*
X1221429Y44698D01*
Y40699D01*
X1220429Y39699D01*
X1218430D01*
X1217430Y40699D01*
Y44698D01*
X1223428Y39699D02*
Y43698D01*
X1224428D01*
X1225428Y42698D01*
Y39699D01*
Y42698D01*
X1226427Y43698D01*
X1227427Y42698D01*
Y39699D01*
X1229426D02*
Y43698D01*
X1230426D01*
X1231426Y42698D01*
Y39699D01*
Y42698D01*
X1232425Y43698D01*
X1233425Y42698D01*
Y39699D01*
X1235424D02*
X1237424Y41699D01*
Y43698D01*
X1235424Y45697D01*
X1141455Y27698D02*
X1145453D01*
X1141455Y12698D02*
X1145453D01*
X1141455Y-2302D02*
X1145453D01*
X1141455Y-17302D02*
X1145453D01*
X1032486Y72698D02*
X1036485D01*
Y60697D02*
X1032486D01*
Y57698D01*
X1034486Y58698D01*
X1035485D01*
X1036485Y57698D01*
Y55699D01*
X1035485Y54699D01*
X1033486D01*
X1032486Y55699D01*
X1042483Y60697D02*
X1038484D01*
Y57698D01*
X1040484Y58698D01*
X1041483D01*
X1042483Y57698D01*
Y55699D01*
X1041483Y54699D01*
X1039484D01*
X1038484Y55699D01*
X1044483Y54699D02*
Y55699D01*
X1045482D01*
Y54699D01*
X1044483D01*
X1049481D02*
X1051480D01*
X1050481D01*
Y60697D01*
X1049481Y59698D01*
X1058478Y54699D02*
X1054479D01*
X1058478Y58698D01*
Y59698D01*
X1057478Y60697D01*
X1055479D01*
X1054479Y59698D01*
X1060477Y54699D02*
Y58698D01*
X1061477D01*
X1062477Y57698D01*
Y54699D01*
Y57698D01*
X1063476Y58698D01*
X1064476Y57698D01*
Y54699D01*
X1066475D02*
X1068475D01*
X1067475D01*
Y58698D01*
X1066475D01*
X1071474Y54699D02*
X1073473D01*
X1072474D01*
Y60697D01*
X1071474D01*
X1084470Y54699D02*
X1082470Y56699D01*
Y58698D01*
X1084470Y60697D01*
X1087469Y54699D02*
X1089468D01*
X1088468D01*
Y60697D01*
X1087469Y59698D01*
X1092467Y54699D02*
Y55699D01*
X1093467D01*
Y54699D01*
X1092467D01*
X1100464D02*
Y60697D01*
X1097465Y57698D01*
X1101464D01*
X1103463Y59698D02*
X1104463Y60697D01*
X1106462D01*
X1107462Y59698D01*
Y55699D01*
X1106462Y54699D01*
X1104463D01*
X1103463Y55699D01*
Y59698D01*
X1109461D02*
X1110461Y60697D01*
X1112461D01*
X1113460Y59698D01*
Y55699D01*
X1112461Y54699D01*
X1110461D01*
X1109461Y55699D01*
Y59698D01*
X1115460Y54699D02*
Y58698D01*
X1116459D01*
X1117459Y57698D01*
Y54699D01*
Y57698D01*
X1118459Y58698D01*
X1119458Y57698D01*
Y54699D01*
X1121458D02*
Y58698D01*
X1122457D01*
X1123457Y57698D01*
Y54699D01*
Y57698D01*
X1124457Y58698D01*
X1125456Y57698D01*
Y54699D01*
X1127456D02*
X1129455Y56699D01*
Y58698D01*
X1127456Y60697D01*
X1036485Y45697D02*
X1034486Y44698D01*
X1032486Y42698D01*
Y40699D01*
X1033486Y39699D01*
X1035485D01*
X1036485Y40699D01*
Y41699D01*
X1035485Y42698D01*
X1032486D01*
X1042483Y45697D02*
X1040484Y44698D01*
X1038484Y42698D01*
Y40699D01*
X1039484Y39699D01*
X1041483D01*
X1042483Y40699D01*
Y41699D01*
X1041483Y42698D01*
X1038484D01*
X1044483Y39699D02*
Y40699D01*
X1045482D01*
Y39699D01*
X1044483D01*
X1049481Y40699D02*
X1050481Y39699D01*
X1052480D01*
X1053480Y40699D01*
Y44698D01*
X1052480Y45697D01*
X1050481D01*
X1049481Y44698D01*
Y43698D01*
X1050481Y42698D01*
X1053480D01*
X1055479Y44698D02*
X1056479Y45697D01*
X1058478D01*
X1059478Y44698D01*
Y43698D01*
X1058478Y42698D01*
X1057478D01*
X1058478D01*
X1059478Y41699D01*
Y40699D01*
X1058478Y39699D01*
X1056479D01*
X1055479Y40699D01*
X1061477Y39699D02*
Y43698D01*
X1062477D01*
X1063476Y42698D01*
Y39699D01*
Y42698D01*
X1064476Y43698D01*
X1065476Y42698D01*
Y39699D01*
X1067475D02*
X1069474D01*
X1068475D01*
Y43698D01*
X1067475D01*
X1072474Y39699D02*
X1074473D01*
X1073473D01*
Y45697D01*
X1072474D01*
X1085469Y39699D02*
X1083470Y41699D01*
Y43698D01*
X1085469Y45697D01*
X1088468Y39699D02*
X1090468D01*
X1089468D01*
Y45697D01*
X1088468Y44698D01*
X1093467Y39699D02*
Y40699D01*
X1094466D01*
Y39699D01*
X1093467D01*
X1098465Y45697D02*
X1102464D01*
Y44698D01*
X1098465Y40699D01*
Y39699D01*
X1104463Y44698D02*
X1105463Y45697D01*
X1107462D01*
X1108462Y44698D01*
Y40699D01*
X1107462Y39699D01*
X1105463D01*
X1104463Y40699D01*
Y44698D01*
X1110461D02*
X1111461Y45697D01*
X1113460D01*
X1114460Y44698D01*
Y40699D01*
X1113460Y39699D01*
X1111461D01*
X1110461Y40699D01*
Y44698D01*
X1116459Y39699D02*
Y43698D01*
X1117459D01*
X1118459Y42698D01*
Y39699D01*
Y42698D01*
X1119458Y43698D01*
X1120458Y42698D01*
Y39699D01*
X1122457D02*
Y43698D01*
X1123457D01*
X1124457Y42698D01*
Y39699D01*
Y42698D01*
X1125456Y43698D01*
X1126456Y42698D01*
Y39699D01*
X1128455D02*
X1130455Y41699D01*
Y43698D01*
X1128455Y45697D01*
X1032486Y27698D02*
X1036485D01*
X1032486Y12698D02*
X1036485D01*
X1032486Y-2302D02*
X1036485D01*
X1032486Y-17302D02*
X1036485D01*
X920519Y69699D02*
X918520Y71699D01*
Y73698D01*
X920519Y75697D01*
X923518Y69699D02*
Y75697D01*
X925517Y73698D01*
X927517Y75697D01*
Y69699D01*
X929516D02*
X931516D01*
X930516D01*
Y73698D01*
X929516D01*
X934515D02*
X938513Y69699D01*
X936514Y71699D01*
X938513Y73698D01*
X934515Y69699D01*
X943512D02*
X941512D01*
X940513Y70699D01*
Y72698D01*
X941512Y73698D01*
X943512D01*
X944511Y72698D01*
Y71699D01*
X940513D01*
X950509Y75697D02*
Y69699D01*
X947510D01*
X946511Y70699D01*
Y72698D01*
X947510Y73698D01*
X950509D01*
X952509Y69699D02*
X954508Y71699D01*
Y73698D01*
X952509Y75697D01*
X918520Y58698D02*
Y54699D01*
Y56699D01*
X919519Y57698D01*
X920519Y58698D01*
X921519D01*
X924518Y55699D02*
X925517Y54699D01*
X927517D01*
X928516Y55699D01*
Y59698D01*
X927517Y60697D01*
X925517D01*
X924518Y59698D01*
Y58698D01*
X925517Y57698D01*
X928516D01*
X930516Y59698D02*
X931516Y60697D01*
X933515D01*
X934515Y59698D01*
Y55699D01*
X933515Y54699D01*
X931516D01*
X930516Y55699D01*
Y59698D01*
X936514Y53700D02*
X940513D01*
X942512Y54699D02*
X944511D01*
X943512D01*
Y60697D01*
X942512Y59698D01*
X947510Y60697D02*
X951509D01*
Y59698D01*
X947510Y55699D01*
Y54699D01*
X953508Y59698D02*
X954508Y60697D01*
X956507D01*
X957507Y59698D01*
Y55699D01*
X956507Y54699D01*
X954508D01*
X953508Y55699D01*
Y59698D01*
X959507Y60697D02*
Y54699D01*
Y57698D01*
X960506Y58698D01*
X962506D01*
X963505Y57698D01*
Y54699D01*
X969503Y60697D02*
X967504Y59698D01*
X965504Y57698D01*
Y55699D01*
X966504Y54699D01*
X968503D01*
X969503Y55699D01*
Y56699D01*
X968503Y57698D01*
X965504D01*
X971503Y59698D02*
X972502Y60697D01*
X974502D01*
X975501Y59698D01*
Y55699D01*
X974502Y54699D01*
X972502D01*
X971503Y55699D01*
Y59698D01*
X977501Y53700D02*
X981499D01*
X983499Y54699D02*
X985498D01*
X984498D01*
Y60697D01*
X983499Y59698D01*
X991496Y54699D02*
Y60697D01*
X988497Y57698D01*
X992496D01*
X994495Y59698D02*
X995495Y60697D01*
X997494D01*
X998494Y59698D01*
Y55699D01*
X997494Y54699D01*
X995495D01*
X994495Y55699D01*
Y59698D01*
X1000493Y58698D02*
Y54699D01*
Y56699D01*
X1001493Y57698D01*
X1002493Y58698D01*
X1003492D01*
X1006491Y54699D02*
X1008491D01*
X1007491D01*
Y60697D01*
X1006491Y59698D01*
X1011490D02*
X1012489Y60697D01*
X1014489D01*
X1015488Y59698D01*
Y55699D01*
X1014489Y54699D01*
X1012489D01*
X1011490Y55699D01*
Y59698D01*
X1017488D02*
X1018487Y60697D01*
X1020487D01*
X1021486Y59698D01*
Y55699D01*
X1020487Y54699D01*
X1018487D01*
X1017488Y55699D01*
Y59698D01*
X920519Y39699D02*
X918520Y41699D01*
Y43698D01*
X920519Y45697D01*
X923518Y39699D02*
Y45697D01*
X925517Y43698D01*
X927517Y45697D01*
Y39699D01*
X929516D02*
X931516D01*
X930516D01*
Y43698D01*
X929516D01*
X934515D02*
X938513Y39699D01*
X936514Y41699D01*
X938513Y43698D01*
X934515Y39699D01*
X943512D02*
X941512D01*
X940513Y40699D01*
Y42698D01*
X941512Y43698D01*
X943512D01*
X944511Y42698D01*
Y41699D01*
X940513D01*
X950509Y45697D02*
Y39699D01*
X947510D01*
X946511Y40699D01*
Y42698D01*
X947510Y43698D01*
X950509D01*
X952509Y39699D02*
X954508Y41699D01*
Y43698D01*
X952509Y45697D01*
X922518Y28698D02*
X919519D01*
X918520Y27698D01*
Y25699D01*
X919519Y24699D01*
X922518D01*
X924518Y29698D02*
X925517Y30697D01*
X927517D01*
X928516Y29698D01*
Y25699D01*
X927517Y24699D01*
X925517D01*
X924518Y25699D01*
Y29698D01*
X930516Y30697D02*
Y24699D01*
Y27698D01*
X931516Y28698D01*
X933515D01*
X934515Y27698D01*
Y24699D01*
X936514D02*
Y28698D01*
X939513D01*
X940513Y27698D01*
Y24699D01*
X946511Y30697D02*
X944511Y29698D01*
X942512Y27698D01*
Y25699D01*
X943512Y24699D01*
X945511D01*
X946511Y25699D01*
Y26699D01*
X945511Y27698D01*
X942512D01*
X952509Y24699D02*
X948510D01*
X952509Y28698D01*
Y29698D01*
X951509Y30697D01*
X949510D01*
X948510Y29698D01*
X920519Y9699D02*
X918520Y11699D01*
Y13698D01*
X920519Y15697D01*
X923518Y9699D02*
Y15697D01*
X925517Y13698D01*
X927517Y15697D01*
Y9699D01*
X929516D02*
X931516D01*
X930516D01*
Y13698D01*
X929516D01*
X934515D02*
X938513Y9699D01*
X936514Y11699D01*
X938513Y13698D01*
X934515Y9699D01*
X943512D02*
X941512D01*
X940513Y10699D01*
Y12698D01*
X941512Y13698D01*
X943512D01*
X944511Y12698D01*
Y11699D01*
X940513D01*
X950509Y15697D02*
Y9699D01*
X947510D01*
X946511Y10699D01*
Y12698D01*
X947510Y13698D01*
X950509D01*
X952509Y9699D02*
X954508Y11699D01*
Y13698D01*
X952509Y15697D01*
X920519Y-5301D02*
X918520Y-3301D01*
Y-1302D01*
X920519Y697D01*
X923518Y-5301D02*
Y697D01*
X925517Y-1302D01*
X927517Y697D01*
Y-5301D01*
X929516D02*
X931516D01*
X930516D01*
Y-1302D01*
X929516D01*
X934515D02*
X938513Y-5301D01*
X936514Y-3301D01*
X938513Y-1302D01*
X934515Y-5301D01*
X943512D02*
X941512D01*
X940513Y-4301D01*
Y-2302D01*
X941512Y-1302D01*
X943512D01*
X944511Y-2302D01*
Y-3301D01*
X940513D01*
X950509Y697D02*
Y-5301D01*
X947510D01*
X946511Y-4301D01*
Y-2302D01*
X947510Y-1302D01*
X950509D01*
X952509Y-5301D02*
X954508Y-3301D01*
Y-1302D01*
X952509Y697D01*
X922518Y-16302D02*
X919519D01*
X918520Y-17302D01*
Y-19301D01*
X919519Y-20301D01*
X922518D01*
X928516D02*
X924518D01*
X928516Y-16302D01*
Y-15302D01*
X927517Y-14303D01*
X925517D01*
X924518Y-15302D01*
X934515Y-14303D02*
X932515Y-15302D01*
X930516Y-17302D01*
Y-19301D01*
X931516Y-20301D01*
X933515D01*
X934515Y-19301D01*
Y-18301D01*
X933515Y-17302D01*
X930516D01*
X936514Y-15302D02*
X937514Y-14303D01*
X939513D01*
X940513Y-15302D01*
Y-19301D01*
X939513Y-20301D01*
X937514D01*
X936514Y-19301D01*
Y-15302D01*
X942512Y-14303D02*
Y-20301D01*
Y-17302D01*
X943512Y-16302D01*
X945511D01*
X946511Y-17302D01*
Y-20301D01*
X948510D02*
Y-16302D01*
X951509D01*
X952509Y-17302D01*
Y-20301D01*
X958507D02*
X954508D01*
X958507Y-16302D01*
Y-15302D01*
X957507Y-14303D01*
X955508D01*
X954508Y-15302D01*
X960506Y-20301D02*
X962506D01*
X961506D01*
Y-14303D01*
X960506Y-15302D01*
X965504D02*
X966504Y-14303D01*
X968503D01*
X969503Y-15302D01*
Y-19301D01*
X968503Y-20301D01*
X966504D01*
X965504Y-19301D01*
Y-15302D01*
X971503Y-20301D02*
Y-16302D01*
X972502D01*
X973502Y-17302D01*
Y-20301D01*
Y-17302D01*
X974502Y-16302D01*
X975501Y-17302D01*
Y-20301D01*
X981499D02*
X977501D01*
X981499Y-16302D01*
Y-15302D01*
X980500Y-14303D01*
X978500D01*
X977501Y-15302D01*
X987497Y-14303D02*
X985498Y-15302D01*
X983499Y-17302D01*
Y-19301D01*
X984498Y-20301D01*
X986498D01*
X987497Y-19301D01*
Y-18301D01*
X986498Y-17302D01*
X983499D01*
X993495Y-14303D02*
X989497D01*
Y-17302D01*
X991496Y-16302D01*
X992496D01*
X993495Y-17302D01*
Y-19301D01*
X992496Y-20301D01*
X990496D01*
X989497Y-19301D01*
X843940Y69699D02*
Y75697D01*
X846939D01*
X847939Y74698D01*
Y72698D01*
X846939Y71699D01*
X843940D01*
X845939D02*
X847939Y69699D01*
X850938D02*
X852937D01*
X853937Y70699D01*
Y72698D01*
X852937Y73698D01*
X850938D01*
X849938Y72698D01*
Y70699D01*
X850938Y69699D01*
X855936Y73698D02*
Y70699D01*
X856936Y69699D01*
X859935D01*
Y73698D01*
X861934Y69699D02*
Y73698D01*
X864933D01*
X865933Y72698D01*
Y69699D01*
X871931Y75697D02*
Y69699D01*
X868932D01*
X867932Y70699D01*
Y72698D01*
X868932Y73698D01*
X871931D01*
X876929Y69699D02*
X874930D01*
X873930Y70699D01*
Y72698D01*
X874930Y73698D01*
X876929D01*
X877929Y72698D01*
Y71699D01*
X873930D01*
X883927Y75697D02*
Y69699D01*
X880928D01*
X879928Y70699D01*
Y72698D01*
X880928Y73698D01*
X883927D01*
X843940Y54699D02*
Y60697D01*
X846939D01*
X847939Y59698D01*
Y57698D01*
X846939Y56699D01*
X843940D01*
X845939D02*
X847939Y54699D01*
X850938D02*
X852937D01*
X853937Y55699D01*
Y57698D01*
X852937Y58698D01*
X850938D01*
X849938Y57698D01*
Y55699D01*
X850938Y54699D01*
X855936Y58698D02*
Y55699D01*
X856936Y54699D01*
X859935D01*
Y58698D01*
X861934Y54699D02*
Y58698D01*
X864933D01*
X865933Y57698D01*
Y54699D01*
X871931Y60697D02*
Y54699D01*
X868932D01*
X867932Y55699D01*
Y57698D01*
X868932Y58698D01*
X871931D01*
X876929Y54699D02*
X874930D01*
X873930Y55699D01*
Y57698D01*
X874930Y58698D01*
X876929D01*
X877929Y57698D01*
Y56699D01*
X873930D01*
X883927Y60697D02*
Y54699D01*
X880928D01*
X879928Y55699D01*
Y57698D01*
X880928Y58698D01*
X883927D01*
X843940Y39699D02*
Y45697D01*
X846939D01*
X847939Y44698D01*
Y42698D01*
X846939Y41699D01*
X843940D01*
X845939D02*
X847939Y39699D01*
X850938D02*
X852937D01*
X853937Y40699D01*
Y42698D01*
X852937Y43698D01*
X850938D01*
X849938Y42698D01*
Y40699D01*
X850938Y39699D01*
X855936Y43698D02*
Y40699D01*
X856936Y39699D01*
X859935D01*
Y43698D01*
X861934Y39699D02*
Y43698D01*
X864933D01*
X865933Y42698D01*
Y39699D01*
X871931Y45697D02*
Y39699D01*
X868932D01*
X867932Y40699D01*
Y42698D01*
X868932Y43698D01*
X871931D01*
X876929Y39699D02*
X874930D01*
X873930Y40699D01*
Y42698D01*
X874930Y43698D01*
X876929D01*
X877929Y42698D01*
Y41699D01*
X873930D01*
X883927Y45697D02*
Y39699D01*
X880928D01*
X879928Y40699D01*
Y42698D01*
X880928Y43698D01*
X883927D01*
X843940Y24699D02*
Y30697D01*
X846939D01*
X847939Y29698D01*
Y27698D01*
X846939Y26699D01*
X843940D01*
X845939D02*
X847939Y24699D01*
X850938D02*
X852937D01*
X853937Y25699D01*
Y27698D01*
X852937Y28698D01*
X850938D01*
X849938Y27698D01*
Y25699D01*
X850938Y24699D01*
X855936Y28698D02*
Y25699D01*
X856936Y24699D01*
X859935D01*
Y28698D01*
X861934Y24699D02*
Y28698D01*
X864933D01*
X865933Y27698D01*
Y24699D01*
X871931Y30697D02*
Y24699D01*
X868932D01*
X867932Y25699D01*
Y27698D01*
X868932Y28698D01*
X871931D01*
X876929Y24699D02*
X874930D01*
X873930Y25699D01*
Y27698D01*
X874930Y28698D01*
X876929D01*
X877929Y27698D01*
Y26699D01*
X873930D01*
X883927Y30697D02*
Y24699D01*
X880928D01*
X879928Y25699D01*
Y27698D01*
X880928Y28698D01*
X883927D01*
X845939Y9699D02*
X843940Y11699D01*
Y13698D01*
X845939Y15697D01*
X848938Y9699D02*
Y15697D01*
X850938Y13698D01*
X852937Y15697D01*
Y9699D01*
X854936D02*
X856936D01*
X855936D01*
Y13698D01*
X854936D01*
X859935D02*
X863933Y9699D01*
X861934Y11699D01*
X863933Y13698D01*
X859935Y9699D01*
X868932D02*
X866932D01*
X865933Y10699D01*
Y12698D01*
X866932Y13698D01*
X868932D01*
X869932Y12698D01*
Y11699D01*
X865933D01*
X875930Y15697D02*
Y9699D01*
X872931D01*
X871931Y10699D01*
Y12698D01*
X872931Y13698D01*
X875930D01*
X877929Y9699D02*
X879928Y11699D01*
Y13698D01*
X877929Y15697D01*
X845939Y-5301D02*
X843940Y-3301D01*
Y-1302D01*
X845939Y697D01*
X848938Y-5301D02*
Y697D01*
X850938Y-1302D01*
X852937Y697D01*
Y-5301D01*
X854936D02*
X856936D01*
X855936D01*
Y-1302D01*
X854936D01*
X859935D02*
X863933Y-5301D01*
X861934Y-3301D01*
X863933Y-1302D01*
X859935Y-5301D01*
X868932D02*
X866932D01*
X865933Y-4301D01*
Y-2302D01*
X866932Y-1302D01*
X868932D01*
X869932Y-2302D01*
Y-3301D01*
X865933D01*
X875930Y697D02*
Y-5301D01*
X872931D01*
X871931Y-4301D01*
Y-2302D01*
X872931Y-1302D01*
X875930D01*
X877929Y-5301D02*
X879928Y-3301D01*
Y-1302D01*
X877929Y697D01*
X843940Y-20301D02*
Y-14303D01*
X846939D01*
X847939Y-15302D01*
Y-17302D01*
X846939Y-18301D01*
X843940D01*
X845939D02*
X847939Y-20301D01*
X850938D02*
X852937D01*
X853937Y-19301D01*
Y-17302D01*
X852937Y-16302D01*
X850938D01*
X849938Y-17302D01*
Y-19301D01*
X850938Y-20301D01*
X855936Y-16302D02*
Y-19301D01*
X856936Y-20301D01*
X859935D01*
Y-16302D01*
X861934Y-20301D02*
Y-16302D01*
X864933D01*
X865933Y-17302D01*
Y-20301D01*
X871931Y-14303D02*
Y-20301D01*
X868932D01*
X867932Y-19301D01*
Y-17302D01*
X868932Y-16302D01*
X871931D01*
X876929Y-20301D02*
X874930D01*
X873930Y-19301D01*
Y-17302D01*
X874930Y-16302D01*
X876929D01*
X877929Y-17302D01*
Y-18301D01*
X873930D01*
X883927Y-14303D02*
Y-20301D01*
X880928D01*
X879928Y-19301D01*
Y-17302D01*
X880928Y-16302D01*
X883927D01*
X786954Y69699D02*
X784955Y71699D01*
Y73698D01*
X786954Y75697D01*
X789953Y69699D02*
Y75697D01*
X791953Y73698D01*
X793952Y75697D01*
Y69699D01*
X795952D02*
X797951D01*
X796951D01*
Y73698D01*
X795952D01*
X800950D02*
X804949Y69699D01*
X802949Y71699D01*
X804949Y73698D01*
X800950Y69699D01*
X809947D02*
X807948D01*
X806948Y70699D01*
Y72698D01*
X807948Y73698D01*
X809947D01*
X810947Y72698D01*
Y71699D01*
X806948D01*
X816945Y75697D02*
Y69699D01*
X813946D01*
X812946Y70699D01*
Y72698D01*
X813946Y73698D01*
X816945D01*
X818944Y69699D02*
X820943Y71699D01*
Y73698D01*
X818944Y75697D01*
X784955Y54699D02*
Y60697D01*
X787954D01*
X788954Y59698D01*
Y57698D01*
X787954Y56699D01*
X784955D01*
X791953Y58698D02*
X793952D01*
X794952Y57698D01*
Y54699D01*
X791953D01*
X790953Y55699D01*
X791953Y56699D01*
X794952D01*
X800950Y60697D02*
Y54699D01*
X797951D01*
X796951Y55699D01*
Y57698D01*
X797951Y58698D01*
X800950D01*
X784955Y39699D02*
Y45697D01*
X787954D01*
X788954Y44698D01*
Y42698D01*
X787954Y41699D01*
X784955D01*
X791953Y43698D02*
X793952D01*
X794952Y42698D01*
Y39699D01*
X791953D01*
X790953Y40699D01*
X791953Y41699D01*
X794952D01*
X800950Y45697D02*
Y39699D01*
X797951D01*
X796951Y40699D01*
Y42698D01*
X797951Y43698D01*
X800950D01*
X784955Y24699D02*
Y30697D01*
X787954D01*
X788954Y29698D01*
Y27698D01*
X787954Y26699D01*
X784955D01*
X791953Y28698D02*
X793952D01*
X794952Y27698D01*
Y24699D01*
X791953D01*
X790953Y25699D01*
X791953Y26699D01*
X794952D01*
X800950Y30697D02*
Y24699D01*
X797951D01*
X796951Y25699D01*
Y27698D01*
X797951Y28698D01*
X800950D01*
X784955Y9699D02*
Y15697D01*
X787954D01*
X788954Y14698D01*
Y12698D01*
X787954Y11699D01*
X784955D01*
X791953Y13698D02*
X793952D01*
X794952Y12698D01*
Y9699D01*
X791953D01*
X790953Y10699D01*
X791953Y11699D01*
X794952D01*
X800950Y15697D02*
Y9699D01*
X797951D01*
X796951Y10699D01*
Y12698D01*
X797951Y13698D01*
X800950D01*
X784955Y-5301D02*
Y697D01*
X787954D01*
X788954Y-302D01*
Y-2302D01*
X787954Y-3301D01*
X784955D01*
X791953Y-1302D02*
X793952D01*
X794952Y-2302D01*
Y-5301D01*
X791953D01*
X790953Y-4301D01*
X791953Y-3301D01*
X794952D01*
X800950Y697D02*
Y-5301D01*
X797951D01*
X796951Y-4301D01*
Y-2302D01*
X797951Y-1302D01*
X800950D01*
X784955Y-20301D02*
Y-14303D01*
X787954D01*
X788954Y-15302D01*
Y-17302D01*
X787954Y-18301D01*
X784955D01*
X791953Y-16302D02*
X793952D01*
X794952Y-17302D01*
Y-20301D01*
X791953D01*
X790953Y-19301D01*
X791953Y-18301D01*
X794952D01*
X800950Y-14303D02*
Y-20301D01*
X797951D01*
X796951Y-19301D01*
Y-17302D01*
X797951Y-16302D01*
X800950D01*
X635000Y75697D02*
X638999D01*
X636999D01*
Y69699D01*
X641998D02*
X643997D01*
X644997Y70699D01*
Y72698D01*
X643997Y73698D01*
X641998D01*
X640998Y72698D01*
Y70699D01*
X641998Y69699D01*
X646996Y67700D02*
Y73698D01*
X649995D01*
X650995Y72698D01*
Y70699D01*
X649995Y69699D01*
X646996D01*
X658992Y75697D02*
Y69699D01*
X662991D01*
X665990Y73698D02*
X667989D01*
X668989Y72698D01*
Y69699D01*
X665990D01*
X664990Y70699D01*
X665990Y71699D01*
X668989D01*
X670988Y73698D02*
Y70699D01*
X671988Y69699D01*
X674987D01*
Y68700D01*
X673987Y67700D01*
X672988D01*
X674987Y69699D02*
Y73698D01*
X679986Y69699D02*
X677986D01*
X676986Y70699D01*
Y72698D01*
X677986Y73698D01*
X679986D01*
X680985Y72698D01*
Y71699D01*
X676986D01*
X682984Y73698D02*
Y69699D01*
Y71699D01*
X683984Y72698D01*
X684984Y73698D01*
X685984D01*
X694981Y72698D02*
X698979D01*
X706977Y75697D02*
Y69699D01*
X709976D01*
X710975Y70699D01*
Y71699D01*
X709976Y72698D01*
X706977D01*
X709976D01*
X710975Y73698D01*
Y74698D01*
X709976Y75697D01*
X706977D01*
X713975Y69699D02*
X715974D01*
X716973Y70699D01*
Y72698D01*
X715974Y73698D01*
X713975D01*
X712975Y72698D01*
Y70699D01*
X713975Y69699D01*
X719973Y74698D02*
Y73698D01*
X718973D01*
X720972D01*
X719973D01*
Y70699D01*
X720972Y69699D01*
X724971Y74698D02*
Y73698D01*
X723971D01*
X725971D01*
X724971D01*
Y70699D01*
X725971Y69699D01*
X729969D02*
X731969D01*
X732968Y70699D01*
Y72698D01*
X731969Y73698D01*
X729969D01*
X728970Y72698D01*
Y70699D01*
X729969Y69699D01*
X734968D02*
Y73698D01*
X735967D01*
X736967Y72698D01*
Y69699D01*
Y72698D01*
X737967Y73698D01*
X738966Y72698D01*
Y69699D01*
X746964Y75697D02*
Y69699D01*
X750962D01*
X753962Y73698D02*
X755961D01*
X756960Y72698D01*
Y69699D01*
X753962D01*
X752962Y70699D01*
X753962Y71699D01*
X756960D01*
X758960Y73698D02*
Y70699D01*
X759960Y69699D01*
X762959D01*
Y68700D01*
X761959Y67700D01*
X760959D01*
X762959Y69699D02*
Y73698D01*
X767957Y69699D02*
X765958D01*
X764958Y70699D01*
Y72698D01*
X765958Y73698D01*
X767957D01*
X768957Y72698D01*
Y71699D01*
X764958D01*
X770956Y73698D02*
Y69699D01*
Y71699D01*
X771956Y72698D01*
X772955Y73698D01*
X773955D01*
X635000Y60697D02*
X638999D01*
X636999D01*
Y54699D01*
X641998D02*
X643997D01*
X644997Y55699D01*
Y57698D01*
X643997Y58698D01*
X641998D01*
X640998Y57698D01*
Y55699D01*
X641998Y54699D01*
X646996Y52700D02*
Y58698D01*
X649995D01*
X650995Y57698D01*
Y55699D01*
X649995Y54699D01*
X646996D01*
X658992Y60697D02*
Y54699D01*
X662991D01*
X665990Y58698D02*
X667989D01*
X668989Y57698D01*
Y54699D01*
X665990D01*
X664990Y55699D01*
X665990Y56699D01*
X668989D01*
X670988Y58698D02*
Y55699D01*
X671988Y54699D01*
X674987D01*
Y53700D01*
X673987Y52700D01*
X672988D01*
X674987Y54699D02*
Y58698D01*
X679986Y54699D02*
X677986D01*
X676986Y55699D01*
Y57698D01*
X677986Y58698D01*
X679986D01*
X680985Y57698D01*
Y56699D01*
X676986D01*
X682984Y58698D02*
Y54699D01*
Y56699D01*
X683984Y57698D01*
X684984Y58698D01*
X685984D01*
X694981Y57698D02*
X698979D01*
X706977Y60697D02*
Y54699D01*
X709976D01*
X710975Y55699D01*
Y56699D01*
X709976Y57698D01*
X706977D01*
X709976D01*
X710975Y58698D01*
Y59698D01*
X709976Y60697D01*
X706977D01*
X713975Y54699D02*
X715974D01*
X716973Y55699D01*
Y57698D01*
X715974Y58698D01*
X713975D01*
X712975Y57698D01*
Y55699D01*
X713975Y54699D01*
X719973Y59698D02*
Y58698D01*
X718973D01*
X720972D01*
X719973D01*
Y55699D01*
X720972Y54699D01*
X724971Y59698D02*
Y58698D01*
X723971D01*
X725971D01*
X724971D01*
Y55699D01*
X725971Y54699D01*
X729969D02*
X731969D01*
X732968Y55699D01*
Y57698D01*
X731969Y58698D01*
X729969D01*
X728970Y57698D01*
Y55699D01*
X729969Y54699D01*
X734968D02*
Y58698D01*
X735967D01*
X736967Y57698D01*
Y54699D01*
Y57698D01*
X737967Y58698D01*
X738966Y57698D01*
Y54699D01*
X746964Y60697D02*
Y54699D01*
X750962D01*
X753962Y58698D02*
X755961D01*
X756960Y57698D01*
Y54699D01*
X753962D01*
X752962Y55699D01*
X753962Y56699D01*
X756960D01*
X758960Y58698D02*
Y55699D01*
X759960Y54699D01*
X762959D01*
Y53700D01*
X761959Y52700D01*
X760959D01*
X762959Y54699D02*
Y58698D01*
X767957Y54699D02*
X765958D01*
X764958Y55699D01*
Y57698D01*
X765958Y58698D01*
X767957D01*
X768957Y57698D01*
Y56699D01*
X764958D01*
X770956Y58698D02*
Y54699D01*
Y56699D01*
X771956Y57698D01*
X772955Y58698D01*
X773955D01*
X635000Y45697D02*
X638999D01*
X636999D01*
Y39699D01*
X641998D02*
X643997D01*
X644997Y40699D01*
Y42698D01*
X643997Y43698D01*
X641998D01*
X640998Y42698D01*
Y40699D01*
X641998Y39699D01*
X646996Y37700D02*
Y43698D01*
X649995D01*
X650995Y42698D01*
Y40699D01*
X649995Y39699D01*
X646996D01*
X658992Y45697D02*
Y39699D01*
X662991D01*
X665990Y43698D02*
X667989D01*
X668989Y42698D01*
Y39699D01*
X665990D01*
X664990Y40699D01*
X665990Y41699D01*
X668989D01*
X670988Y43698D02*
Y40699D01*
X671988Y39699D01*
X674987D01*
Y38700D01*
X673987Y37700D01*
X672988D01*
X674987Y39699D02*
Y43698D01*
X679986Y39699D02*
X677986D01*
X676986Y40699D01*
Y42698D01*
X677986Y43698D01*
X679986D01*
X680985Y42698D01*
Y41699D01*
X676986D01*
X682984Y43698D02*
Y39699D01*
Y41699D01*
X683984Y42698D01*
X684984Y43698D01*
X685984D01*
X694981Y42698D02*
X698979D01*
X706977Y45697D02*
Y39699D01*
X709976D01*
X710975Y40699D01*
Y41699D01*
X709976Y42698D01*
X706977D01*
X709976D01*
X710975Y43698D01*
Y44698D01*
X709976Y45697D01*
X706977D01*
X713975Y39699D02*
X715974D01*
X716973Y40699D01*
Y42698D01*
X715974Y43698D01*
X713975D01*
X712975Y42698D01*
Y40699D01*
X713975Y39699D01*
X719973Y44698D02*
Y43698D01*
X718973D01*
X720972D01*
X719973D01*
Y40699D01*
X720972Y39699D01*
X724971Y44698D02*
Y43698D01*
X723971D01*
X725971D01*
X724971D01*
Y40699D01*
X725971Y39699D01*
X729969D02*
X731969D01*
X732968Y40699D01*
Y42698D01*
X731969Y43698D01*
X729969D01*
X728970Y42698D01*
Y40699D01*
X729969Y39699D01*
X734968D02*
Y43698D01*
X735967D01*
X736967Y42698D01*
Y39699D01*
Y42698D01*
X737967Y43698D01*
X738966Y42698D01*
Y39699D01*
X746964Y45697D02*
Y39699D01*
X750962D01*
X753962Y43698D02*
X755961D01*
X756960Y42698D01*
Y39699D01*
X753962D01*
X752962Y40699D01*
X753962Y41699D01*
X756960D01*
X758960Y43698D02*
Y40699D01*
X759960Y39699D01*
X762959D01*
Y38700D01*
X761959Y37700D01*
X760959D01*
X762959Y39699D02*
Y43698D01*
X767957Y39699D02*
X765958D01*
X764958Y40699D01*
Y42698D01*
X765958Y43698D01*
X767957D01*
X768957Y42698D01*
Y41699D01*
X764958D01*
X770956Y43698D02*
Y39699D01*
Y41699D01*
X771956Y42698D01*
X772955Y43698D01*
X773955D01*
X635000Y30697D02*
X638999D01*
X636999D01*
Y24699D01*
X641998D02*
X643997D01*
X644997Y25699D01*
Y27698D01*
X643997Y28698D01*
X641998D01*
X640998Y27698D01*
Y25699D01*
X641998Y24699D01*
X646996Y22700D02*
Y28698D01*
X649995D01*
X650995Y27698D01*
Y25699D01*
X649995Y24699D01*
X646996D01*
X658992Y30697D02*
Y24699D01*
X662991D01*
X665990Y28698D02*
X667989D01*
X668989Y27698D01*
Y24699D01*
X665990D01*
X664990Y25699D01*
X665990Y26699D01*
X668989D01*
X670988Y28698D02*
Y25699D01*
X671988Y24699D01*
X674987D01*
Y23700D01*
X673987Y22700D01*
X672988D01*
X674987Y24699D02*
Y28698D01*
X679986Y24699D02*
X677986D01*
X676986Y25699D01*
Y27698D01*
X677986Y28698D01*
X679986D01*
X680985Y27698D01*
Y26699D01*
X676986D01*
X682984Y28698D02*
Y24699D01*
Y26699D01*
X683984Y27698D01*
X684984Y28698D01*
X685984D01*
X694981Y27698D02*
X698979D01*
X706977Y30697D02*
Y24699D01*
X709976D01*
X710975Y25699D01*
Y26699D01*
X709976Y27698D01*
X706977D01*
X709976D01*
X710975Y28698D01*
Y29698D01*
X709976Y30697D01*
X706977D01*
X713975Y24699D02*
X715974D01*
X716973Y25699D01*
Y27698D01*
X715974Y28698D01*
X713975D01*
X712975Y27698D01*
Y25699D01*
X713975Y24699D01*
X719973Y29698D02*
Y28698D01*
X718973D01*
X720972D01*
X719973D01*
Y25699D01*
X720972Y24699D01*
X724971Y29698D02*
Y28698D01*
X723971D01*
X725971D01*
X724971D01*
Y25699D01*
X725971Y24699D01*
X729969D02*
X731969D01*
X732968Y25699D01*
Y27698D01*
X731969Y28698D01*
X729969D01*
X728970Y27698D01*
Y25699D01*
X729969Y24699D01*
X734968D02*
Y28698D01*
X735967D01*
X736967Y27698D01*
Y24699D01*
Y27698D01*
X737967Y28698D01*
X738966Y27698D01*
Y24699D01*
X746964Y30697D02*
Y24699D01*
X750962D01*
X753962Y28698D02*
X755961D01*
X756960Y27698D01*
Y24699D01*
X753962D01*
X752962Y25699D01*
X753962Y26699D01*
X756960D01*
X758960Y28698D02*
Y25699D01*
X759960Y24699D01*
X762959D01*
Y23700D01*
X761959Y22700D01*
X760959D01*
X762959Y24699D02*
Y28698D01*
X767957Y24699D02*
X765958D01*
X764958Y25699D01*
Y27698D01*
X765958Y28698D01*
X767957D01*
X768957Y27698D01*
Y26699D01*
X764958D01*
X770956Y28698D02*
Y24699D01*
Y26699D01*
X771956Y27698D01*
X772955Y28698D01*
X773955D01*
X635000Y15697D02*
X638999D01*
X636999D01*
Y9699D01*
X641998D02*
X643997D01*
X644997Y10699D01*
Y12698D01*
X643997Y13698D01*
X641998D01*
X640998Y12698D01*
Y10699D01*
X641998Y9699D01*
X646996Y7700D02*
Y13698D01*
X649995D01*
X650995Y12698D01*
Y10699D01*
X649995Y9699D01*
X646996D01*
X658992Y15697D02*
Y9699D01*
X662991D01*
X665990Y13698D02*
X667989D01*
X668989Y12698D01*
Y9699D01*
X665990D01*
X664990Y10699D01*
X665990Y11699D01*
X668989D01*
X670988Y13698D02*
Y10699D01*
X671988Y9699D01*
X674987D01*
Y8700D01*
X673987Y7700D01*
X672988D01*
X674987Y9699D02*
Y13698D01*
X679986Y9699D02*
X677986D01*
X676986Y10699D01*
Y12698D01*
X677986Y13698D01*
X679986D01*
X680985Y12698D01*
Y11699D01*
X676986D01*
X682984Y13698D02*
Y9699D01*
Y11699D01*
X683984Y12698D01*
X684984Y13698D01*
X685984D01*
X694981Y12698D02*
X698979D01*
X706977Y15697D02*
Y9699D01*
X709976D01*
X710975Y10699D01*
Y11699D01*
X709976Y12698D01*
X706977D01*
X709976D01*
X710975Y13698D01*
Y14698D01*
X709976Y15697D01*
X706977D01*
X713975Y9699D02*
X715974D01*
X716973Y10699D01*
Y12698D01*
X715974Y13698D01*
X713975D01*
X712975Y12698D01*
Y10699D01*
X713975Y9699D01*
X719973Y14698D02*
Y13698D01*
X718973D01*
X720972D01*
X719973D01*
Y10699D01*
X720972Y9699D01*
X724971Y14698D02*
Y13698D01*
X723971D01*
X725971D01*
X724971D01*
Y10699D01*
X725971Y9699D01*
X729969D02*
X731969D01*
X732968Y10699D01*
Y12698D01*
X731969Y13698D01*
X729969D01*
X728970Y12698D01*
Y10699D01*
X729969Y9699D01*
X734968D02*
Y13698D01*
X735967D01*
X736967Y12698D01*
Y9699D01*
Y12698D01*
X737967Y13698D01*
X738966Y12698D01*
Y9699D01*
X746964Y15697D02*
Y9699D01*
X750962D01*
X753962Y13698D02*
X755961D01*
X756960Y12698D01*
Y9699D01*
X753962D01*
X752962Y10699D01*
X753962Y11699D01*
X756960D01*
X758960Y13698D02*
Y10699D01*
X759960Y9699D01*
X762959D01*
Y8700D01*
X761959Y7700D01*
X760959D01*
X762959Y9699D02*
Y13698D01*
X767957Y9699D02*
X765958D01*
X764958Y10699D01*
Y12698D01*
X765958Y13698D01*
X767957D01*
X768957Y12698D01*
Y11699D01*
X764958D01*
X770956Y13698D02*
Y9699D01*
Y11699D01*
X771956Y12698D01*
X772955Y13698D01*
X773955D01*
X635000Y697D02*
X638999D01*
X636999D01*
Y-5301D01*
X641998D02*
X643997D01*
X644997Y-4301D01*
Y-2302D01*
X643997Y-1302D01*
X641998D01*
X640998Y-2302D01*
Y-4301D01*
X641998Y-5301D01*
X646996Y-7300D02*
Y-1302D01*
X649995D01*
X650995Y-2302D01*
Y-4301D01*
X649995Y-5301D01*
X646996D01*
X658992Y697D02*
Y-5301D01*
X662991D01*
X665990Y-1302D02*
X667989D01*
X668989Y-2302D01*
Y-5301D01*
X665990D01*
X664990Y-4301D01*
X665990Y-3301D01*
X668989D01*
X670988Y-1302D02*
Y-4301D01*
X671988Y-5301D01*
X674987D01*
Y-6300D01*
X673987Y-7300D01*
X672988D01*
X674987Y-5301D02*
Y-1302D01*
X679986Y-5301D02*
X677986D01*
X676986Y-4301D01*
Y-2302D01*
X677986Y-1302D01*
X679986D01*
X680985Y-2302D01*
Y-3301D01*
X676986D01*
X682984Y-1302D02*
Y-5301D01*
Y-3301D01*
X683984Y-2302D01*
X684984Y-1302D01*
X685984D01*
X694981Y-2302D02*
X698979D01*
X706977Y697D02*
Y-5301D01*
X709976D01*
X710975Y-4301D01*
Y-3301D01*
X709976Y-2302D01*
X706977D01*
X709976D01*
X710975Y-1302D01*
Y-302D01*
X709976Y697D01*
X706977D01*
X713975Y-5301D02*
X715974D01*
X716973Y-4301D01*
Y-2302D01*
X715974Y-1302D01*
X713975D01*
X712975Y-2302D01*
Y-4301D01*
X713975Y-5301D01*
X719973Y-302D02*
Y-1302D01*
X718973D01*
X720972D01*
X719973D01*
Y-4301D01*
X720972Y-5301D01*
X724971Y-302D02*
Y-1302D01*
X723971D01*
X725971D01*
X724971D01*
Y-4301D01*
X725971Y-5301D01*
X729969D02*
X731969D01*
X732968Y-4301D01*
Y-2302D01*
X731969Y-1302D01*
X729969D01*
X728970Y-2302D01*
Y-4301D01*
X729969Y-5301D01*
X734968D02*
Y-1302D01*
X735967D01*
X736967Y-2302D01*
Y-5301D01*
Y-2302D01*
X737967Y-1302D01*
X738966Y-2302D01*
Y-5301D01*
X746964Y697D02*
Y-5301D01*
X750962D01*
X753962Y-1302D02*
X755961D01*
X756960Y-2302D01*
Y-5301D01*
X753962D01*
X752962Y-4301D01*
X753962Y-3301D01*
X756960D01*
X758960Y-1302D02*
Y-4301D01*
X759960Y-5301D01*
X762959D01*
Y-6300D01*
X761959Y-7300D01*
X760959D01*
X762959Y-5301D02*
Y-1302D01*
X767957Y-5301D02*
X765958D01*
X764958Y-4301D01*
Y-2302D01*
X765958Y-1302D01*
X767957D01*
X768957Y-2302D01*
Y-3301D01*
X764958D01*
X770956Y-1302D02*
Y-5301D01*
Y-3301D01*
X771956Y-2302D01*
X772955Y-1302D01*
X773955D01*
X635000Y-14303D02*
X638999D01*
X636999D01*
Y-20301D01*
X641998D02*
X643997D01*
X644997Y-19301D01*
Y-17302D01*
X643997Y-16302D01*
X641998D01*
X640998Y-17302D01*
Y-19301D01*
X641998Y-20301D01*
X646996Y-22300D02*
Y-16302D01*
X649995D01*
X650995Y-17302D01*
Y-19301D01*
X649995Y-20301D01*
X646996D01*
X658992Y-14303D02*
Y-20301D01*
X662991D01*
X665990Y-16302D02*
X667989D01*
X668989Y-17302D01*
Y-20301D01*
X665990D01*
X664990Y-19301D01*
X665990Y-18301D01*
X668989D01*
X670988Y-16302D02*
Y-19301D01*
X671988Y-20301D01*
X674987D01*
Y-21300D01*
X673987Y-22300D01*
X672988D01*
X674987Y-20301D02*
Y-16302D01*
X679986Y-20301D02*
X677986D01*
X676986Y-19301D01*
Y-17302D01*
X677986Y-16302D01*
X679986D01*
X680985Y-17302D01*
Y-18301D01*
X676986D01*
X682984Y-16302D02*
Y-20301D01*
Y-18301D01*
X683984Y-17302D01*
X684984Y-16302D01*
X685984D01*
X694981Y-17302D02*
X698979D01*
X706977Y-14303D02*
Y-20301D01*
X709976D01*
X710975Y-19301D01*
Y-18301D01*
X709976Y-17302D01*
X706977D01*
X709976D01*
X710975Y-16302D01*
Y-15302D01*
X709976Y-14303D01*
X706977D01*
X713975Y-20301D02*
X715974D01*
X716973Y-19301D01*
Y-17302D01*
X715974Y-16302D01*
X713975D01*
X712975Y-17302D01*
Y-19301D01*
X713975Y-20301D01*
X719973Y-15302D02*
Y-16302D01*
X718973D01*
X720972D01*
X719973D01*
Y-19301D01*
X720972Y-20301D01*
X724971Y-15302D02*
Y-16302D01*
X723971D01*
X725971D01*
X724971D01*
Y-19301D01*
X725971Y-20301D01*
X729969D02*
X731969D01*
X732968Y-19301D01*
Y-17302D01*
X731969Y-16302D01*
X729969D01*
X728970Y-17302D01*
Y-19301D01*
X729969Y-20301D01*
X734968D02*
Y-16302D01*
X735967D01*
X736967Y-17302D01*
Y-20301D01*
Y-17302D01*
X737967Y-16302D01*
X738966Y-17302D01*
Y-20301D01*
X746964Y-14303D02*
Y-20301D01*
X750962D01*
X753962Y-16302D02*
X755961D01*
X756960Y-17302D01*
Y-20301D01*
X753962D01*
X752962Y-19301D01*
X753962Y-18301D01*
X756960D01*
X758960Y-16302D02*
Y-19301D01*
X759960Y-20301D01*
X762959D01*
Y-21300D01*
X761959Y-22300D01*
X760959D01*
X762959Y-20301D02*
Y-16302D01*
X767957Y-20301D02*
X765958D01*
X764958Y-19301D01*
Y-17302D01*
X765958Y-16302D01*
X767957D01*
X768957Y-17302D01*
Y-18301D01*
X764958D01*
X770956Y-16302D02*
Y-20301D01*
Y-18301D01*
X771956Y-17302D01*
X772955Y-16302D01*
X773955D01*
X561620Y69699D02*
Y75697D01*
X564619D01*
X565619Y74698D01*
Y72698D01*
X564619Y71699D01*
X561620D01*
X563619D02*
X565619Y69699D01*
X568617D02*
X570617D01*
X571617Y70699D01*
Y72698D01*
X570617Y73698D01*
X568617D01*
X567618Y72698D01*
Y70699D01*
X568617Y69699D01*
X573616Y73698D02*
Y70699D01*
X574616Y69699D01*
X577615D01*
Y73698D01*
X579614Y69699D02*
Y73698D01*
X582613D01*
X583613Y72698D01*
Y69699D01*
X589611Y75697D02*
Y69699D01*
X586612D01*
X585612Y70699D01*
Y72698D01*
X586612Y73698D01*
X589611D01*
X565619Y59698D02*
X564619Y60697D01*
X562619D01*
X561620Y59698D01*
Y58698D01*
X562619Y57698D01*
X564619D01*
X565619Y56699D01*
Y55699D01*
X564619Y54699D01*
X562619D01*
X561620Y55699D01*
X567618Y54699D02*
X569617D01*
X568617D01*
Y60697D01*
X567618D01*
X573616Y54699D02*
X575615D01*
X576615Y55699D01*
Y57698D01*
X575615Y58698D01*
X573616D01*
X572616Y57698D01*
Y55699D01*
X573616Y54699D01*
X579614Y59698D02*
Y58698D01*
X578614D01*
X580614D01*
X579614D01*
Y55699D01*
X580614Y54699D01*
X565619Y44698D02*
X564619Y45697D01*
X562619D01*
X561620Y44698D01*
Y43698D01*
X562619Y42698D01*
X564619D01*
X565619Y41699D01*
Y40699D01*
X564619Y39699D01*
X562619D01*
X561620Y40699D01*
X567618Y39699D02*
X569617D01*
X568617D01*
Y45697D01*
X567618D01*
X573616Y39699D02*
X575615D01*
X576615Y40699D01*
Y42698D01*
X575615Y43698D01*
X573616D01*
X572616Y42698D01*
Y40699D01*
X573616Y39699D01*
X579614Y44698D02*
Y43698D01*
X578614D01*
X580614D01*
X579614D01*
Y40699D01*
X580614Y39699D01*
X561620Y24699D02*
Y30697D01*
X564619D01*
X565619Y29698D01*
Y27698D01*
X564619Y26699D01*
X561620D01*
X563619D02*
X565619Y24699D01*
X568617D02*
X570617D01*
X571617Y25699D01*
Y27698D01*
X570617Y28698D01*
X568617D01*
X567618Y27698D01*
Y25699D01*
X568617Y24699D01*
X573616Y28698D02*
Y25699D01*
X574616Y24699D01*
X577615D01*
Y28698D01*
X579614Y24699D02*
Y28698D01*
X582613D01*
X583613Y27698D01*
Y24699D01*
X589611Y30697D02*
Y24699D01*
X586612D01*
X585612Y25699D01*
Y27698D01*
X586612Y28698D01*
X589611D01*
X561620Y9699D02*
Y15697D01*
X564619D01*
X565619Y14698D01*
Y12698D01*
X564619Y11699D01*
X561620D01*
X563619D02*
X565619Y9699D01*
X568617D02*
X570617D01*
X571617Y10699D01*
Y12698D01*
X570617Y13698D01*
X568617D01*
X567618Y12698D01*
Y10699D01*
X568617Y9699D01*
X573616Y13698D02*
Y10699D01*
X574616Y9699D01*
X577615D01*
Y13698D01*
X579614Y9699D02*
Y13698D01*
X582613D01*
X583613Y12698D01*
Y9699D01*
X589611Y15697D02*
Y9699D01*
X586612D01*
X585612Y10699D01*
Y12698D01*
X586612Y13698D01*
X589611D01*
X561620Y-5301D02*
Y697D01*
X564619D01*
X565619Y-302D01*
Y-2302D01*
X564619Y-3301D01*
X561620D01*
X563619D02*
X565619Y-5301D01*
X568617D02*
X570617D01*
X571617Y-4301D01*
Y-2302D01*
X570617Y-1302D01*
X568617D01*
X567618Y-2302D01*
Y-4301D01*
X568617Y-5301D01*
X573616Y-1302D02*
Y-4301D01*
X574616Y-5301D01*
X577615D01*
Y-1302D01*
X579614Y-5301D02*
Y-1302D01*
X582613D01*
X583613Y-2302D01*
Y-5301D01*
X589611Y697D02*
Y-5301D01*
X586612D01*
X585612Y-4301D01*
Y-2302D01*
X586612Y-1302D01*
X589611D01*
X561620Y-20301D02*
Y-14303D01*
X564619D01*
X565619Y-15302D01*
Y-17302D01*
X564619Y-18301D01*
X561620D01*
X563619D02*
X565619Y-20301D01*
X568617D02*
X570617D01*
X571617Y-19301D01*
Y-17302D01*
X570617Y-16302D01*
X568617D01*
X567618Y-17302D01*
Y-19301D01*
X568617Y-20301D01*
X573616Y-16302D02*
Y-19301D01*
X574616Y-20301D01*
X577615D01*
Y-16302D01*
X579614Y-20301D02*
Y-16302D01*
X582613D01*
X583613Y-17302D01*
Y-20301D01*
X589611Y-14303D02*
Y-20301D01*
X586612D01*
X585612Y-19301D01*
Y-17302D01*
X586612Y-16302D01*
X589611D01*
X511032Y69699D02*
Y75697D01*
X514031D01*
X515031Y74698D01*
Y72698D01*
X514031Y71699D01*
X511032D01*
X517030Y75697D02*
X521029D01*
X519030D01*
Y69699D01*
X523028Y75697D02*
Y69699D01*
Y72698D01*
X527027D01*
Y75697D01*
Y69699D01*
X511032Y54699D02*
Y60697D01*
X514031D01*
X515031Y59698D01*
Y57698D01*
X514031Y56699D01*
X511032D01*
X517030Y60697D02*
X521029D01*
X519030D01*
Y54699D01*
X523028Y60697D02*
Y54699D01*
Y57698D01*
X527027D01*
Y60697D01*
Y54699D01*
X511032Y39699D02*
Y45697D01*
X514031D01*
X515031Y44698D01*
Y42698D01*
X514031Y41699D01*
X511032D01*
X517030Y45697D02*
X521029D01*
X519030D01*
Y39699D01*
X523028Y45697D02*
Y39699D01*
Y42698D01*
X527027D01*
Y45697D01*
Y39699D01*
X511032Y24699D02*
Y30697D01*
X515031Y24699D01*
Y30697D01*
X517030Y24699D02*
Y30697D01*
X520029D01*
X521029Y29698D01*
Y27698D01*
X520029Y26699D01*
X517030D01*
X523028Y30697D02*
X527027D01*
X525028D01*
Y24699D01*
X529026Y30697D02*
Y24699D01*
Y27698D01*
X533025D01*
Y30697D01*
Y24699D01*
X511032Y9699D02*
Y15697D01*
X514031D01*
X515031Y14698D01*
Y12698D01*
X514031Y11699D01*
X511032D01*
X517030Y15697D02*
X521029D01*
X519030D01*
Y9699D01*
X523028Y15697D02*
Y9699D01*
Y12698D01*
X527027D01*
Y15697D01*
Y9699D01*
X511032Y-5301D02*
Y697D01*
X514031D01*
X515031Y-302D01*
Y-2302D01*
X514031Y-3301D01*
X511032D01*
X517030Y697D02*
X521029D01*
X519030D01*
Y-5301D01*
X523028Y697D02*
Y-5301D01*
Y-2302D01*
X527027D01*
Y697D01*
Y-5301D01*
X511032Y-20301D02*
Y-14303D01*
X515031Y-20301D01*
Y-14303D01*
X517030Y-20301D02*
Y-14303D01*
X520029D01*
X521029Y-15302D01*
Y-17302D01*
X520029Y-18301D01*
X517030D01*
X523028Y-14303D02*
X527027D01*
X525028D01*
Y-20301D01*
X529026Y-14303D02*
Y-20301D01*
Y-17302D01*
X533025D01*
Y-14303D01*
Y-20301D01*
X401064Y69699D02*
X403064D01*
X402064D01*
Y75697D01*
X401064Y74698D01*
X406063Y69699D02*
X408062D01*
X407062D01*
Y75697D01*
X406063Y74698D01*
X411061Y69699D02*
Y70699D01*
X412061D01*
Y69699D01*
X411061D01*
X416059Y74698D02*
X417059Y75697D01*
X419058D01*
X420058Y74698D01*
Y73698D01*
X419058Y72698D01*
X420058Y71699D01*
Y70699D01*
X419058Y69699D01*
X417059D01*
X416059Y70699D01*
Y71699D01*
X417059Y72698D01*
X416059Y73698D01*
Y74698D01*
X417059Y72698D02*
X419058D01*
X422057Y69699D02*
X424057D01*
X423057D01*
Y75697D01*
X422057Y74698D01*
X427056Y69699D02*
Y73698D01*
X428055D01*
X429055Y72698D01*
Y69699D01*
Y72698D01*
X430055Y73698D01*
X431054Y72698D01*
Y69699D01*
X433054D02*
X435053D01*
X434054D01*
Y73698D01*
X433054D01*
X438052Y69699D02*
X440052D01*
X439052D01*
Y75697D01*
X438052D01*
X451048Y69699D02*
X449049Y71699D01*
Y73698D01*
X451048Y75697D01*
X454047Y74698D02*
X455047Y75697D01*
X457046D01*
X458046Y74698D01*
Y70699D01*
X457046Y69699D01*
X455047D01*
X454047Y70699D01*
Y74698D01*
X460045Y69699D02*
Y70699D01*
X461045D01*
Y69699D01*
X460045D01*
X465043Y74698D02*
X466043Y75697D01*
X468043D01*
X469042Y74698D01*
Y73698D01*
X468043Y72698D01*
X467043D01*
X468043D01*
X469042Y71699D01*
Y70699D01*
X468043Y69699D01*
X466043D01*
X465043Y70699D01*
X471042Y74698D02*
X472041Y75697D01*
X474041D01*
X475040Y74698D01*
Y70699D01*
X474041Y69699D01*
X472041D01*
X471042Y70699D01*
Y74698D01*
X477040D02*
X478039Y75697D01*
X480039D01*
X481038Y74698D01*
Y70699D01*
X480039Y69699D01*
X478039D01*
X477040Y70699D01*
Y74698D01*
X483038Y69699D02*
Y73698D01*
X484037D01*
X485037Y72698D01*
Y69699D01*
Y72698D01*
X486037Y73698D01*
X487036Y72698D01*
Y69699D01*
X489036D02*
Y73698D01*
X490035D01*
X491035Y72698D01*
Y69699D01*
Y72698D01*
X492035Y73698D01*
X493035Y72698D01*
Y69699D01*
X495034D02*
X497033Y71699D01*
Y73698D01*
X495034Y75697D01*
X405063Y54699D02*
X401064D01*
X405063Y58698D01*
Y59698D01*
X404063Y60697D01*
X402064D01*
X401064Y59698D01*
X407062D02*
X408062Y60697D01*
X410061D01*
X411061Y59698D01*
Y58698D01*
X410061Y57698D01*
X409062D01*
X410061D01*
X411061Y56699D01*
Y55699D01*
X410061Y54699D01*
X408062D01*
X407062Y55699D01*
X413060Y54699D02*
Y55699D01*
X414060D01*
Y54699D01*
X413060D01*
X422057Y60697D02*
X420058Y59698D01*
X418059Y57698D01*
Y55699D01*
X419058Y54699D01*
X421058D01*
X422057Y55699D01*
Y56699D01*
X421058Y57698D01*
X418059D01*
X428055Y54699D02*
X424057D01*
X428055Y58698D01*
Y59698D01*
X427056Y60697D01*
X425057D01*
X424057Y59698D01*
X430055Y54699D02*
Y58698D01*
X431055D01*
X432054Y57698D01*
Y54699D01*
Y57698D01*
X433054Y58698D01*
X434054Y57698D01*
Y54699D01*
X436053D02*
X438052D01*
X437053D01*
Y58698D01*
X436053D01*
X441051Y54699D02*
X443051D01*
X442051D01*
Y60697D01*
X441051D01*
X454047Y54699D02*
X452048Y56699D01*
Y58698D01*
X454047Y60697D01*
X457046Y59698D02*
X458046Y60697D01*
X460045D01*
X461045Y59698D01*
Y55699D01*
X460045Y54699D01*
X458046D01*
X457046Y55699D01*
Y59698D01*
X463044Y54699D02*
Y55699D01*
X464044D01*
Y54699D01*
X463044D01*
X472041Y60697D02*
X470042Y59698D01*
X468043Y57698D01*
Y55699D01*
X469042Y54699D01*
X471042D01*
X472041Y55699D01*
Y56699D01*
X471042Y57698D01*
X468043D01*
X474041Y59698D02*
X475040Y60697D01*
X477040D01*
X478039Y59698D01*
Y55699D01*
X477040Y54699D01*
X475040D01*
X474041Y55699D01*
Y59698D01*
X480039D02*
X481038Y60697D01*
X483038D01*
X484037Y59698D01*
Y55699D01*
X483038Y54699D01*
X481038D01*
X480039Y55699D01*
Y59698D01*
X486037Y54699D02*
Y58698D01*
X487036D01*
X488036Y57698D01*
Y54699D01*
Y57698D01*
X489036Y58698D01*
X490035Y57698D01*
Y54699D01*
X492035D02*
Y58698D01*
X493035D01*
X494034Y57698D01*
Y54699D01*
Y57698D01*
X495034Y58698D01*
X496033Y57698D01*
Y54699D01*
X498033D02*
X500032Y56699D01*
Y58698D01*
X498033Y60697D01*
X405063Y39699D02*
X401064D01*
X405063Y43698D01*
Y44698D01*
X404063Y45697D01*
X402064D01*
X401064Y44698D01*
X407062D02*
X408062Y45697D01*
X410061D01*
X411061Y44698D01*
Y43698D01*
X410061Y42698D01*
X409062D01*
X410061D01*
X411061Y41699D01*
Y40699D01*
X410061Y39699D01*
X408062D01*
X407062Y40699D01*
X413060Y39699D02*
Y40699D01*
X414060D01*
Y39699D01*
X413060D01*
X422057Y45697D02*
X420058Y44698D01*
X418059Y42698D01*
Y40699D01*
X419058Y39699D01*
X421058D01*
X422057Y40699D01*
Y41699D01*
X421058Y42698D01*
X418059D01*
X428055Y39699D02*
X424057D01*
X428055Y43698D01*
Y44698D01*
X427056Y45697D01*
X425057D01*
X424057Y44698D01*
X430055Y39699D02*
Y43698D01*
X431055D01*
X432054Y42698D01*
Y39699D01*
Y42698D01*
X433054Y43698D01*
X434054Y42698D01*
Y39699D01*
X436053D02*
X438052D01*
X437053D01*
Y43698D01*
X436053D01*
X441051Y39699D02*
X443051D01*
X442051D01*
Y45697D01*
X441051D01*
X454047Y39699D02*
X452048Y41699D01*
Y43698D01*
X454047Y45697D01*
X457046Y44698D02*
X458046Y45697D01*
X460045D01*
X461045Y44698D01*
Y40699D01*
X460045Y39699D01*
X458046D01*
X457046Y40699D01*
Y44698D01*
X463044Y39699D02*
Y40699D01*
X464044D01*
Y39699D01*
X463044D01*
X472041Y45697D02*
X470042Y44698D01*
X468043Y42698D01*
Y40699D01*
X469042Y39699D01*
X471042D01*
X472041Y40699D01*
Y41699D01*
X471042Y42698D01*
X468043D01*
X474041Y44698D02*
X475040Y45697D01*
X477040D01*
X478039Y44698D01*
Y40699D01*
X477040Y39699D01*
X475040D01*
X474041Y40699D01*
Y44698D01*
X480039D02*
X481038Y45697D01*
X483038D01*
X484037Y44698D01*
Y40699D01*
X483038Y39699D01*
X481038D01*
X480039Y40699D01*
Y44698D01*
X486037Y39699D02*
Y43698D01*
X487036D01*
X488036Y42698D01*
Y39699D01*
Y42698D01*
X489036Y43698D01*
X490035Y42698D01*
Y39699D01*
X492035D02*
Y43698D01*
X493035D01*
X494034Y42698D01*
Y39699D01*
Y42698D01*
X495034Y43698D01*
X496033Y42698D01*
Y39699D01*
X498033D02*
X500032Y41699D01*
Y43698D01*
X498033Y45697D01*
X405063Y24699D02*
X401064D01*
X405063Y28698D01*
Y29698D01*
X404063Y30697D01*
X402064D01*
X401064Y29698D01*
X410061Y24699D02*
Y30697D01*
X407062Y27698D01*
X411061D01*
X413060Y24699D02*
Y25699D01*
X414060D01*
Y24699D01*
X413060D01*
X421058D02*
Y30697D01*
X418059Y27698D01*
X422057D01*
X424057Y24699D02*
X426056D01*
X425057D01*
Y30697D01*
X424057Y29698D01*
X429055Y24699D02*
Y28698D01*
X430055D01*
X431054Y27698D01*
Y24699D01*
Y27698D01*
X432054Y28698D01*
X433054Y27698D01*
Y24699D01*
X435053D02*
X437053D01*
X436053D01*
Y28698D01*
X435053D01*
X440052Y24699D02*
X442051D01*
X441051D01*
Y30697D01*
X440052D01*
X453047Y24699D02*
X451048Y26699D01*
Y28698D01*
X453047Y30697D01*
X456046Y29698D02*
X457046Y30697D01*
X459046D01*
X460045Y29698D01*
Y25699D01*
X459046Y24699D01*
X457046D01*
X456046Y25699D01*
Y29698D01*
X462044Y24699D02*
Y25699D01*
X463044D01*
Y24699D01*
X462044D01*
X471042Y30697D02*
X469042Y29698D01*
X467043Y27698D01*
Y25699D01*
X468043Y24699D01*
X470042D01*
X471042Y25699D01*
Y26699D01*
X470042Y27698D01*
X467043D01*
X477040Y24699D02*
X473041D01*
X477040Y28698D01*
Y29698D01*
X476040Y30697D01*
X474041D01*
X473041Y29698D01*
X479039D02*
X480039Y30697D01*
X482038D01*
X483038Y29698D01*
Y25699D01*
X482038Y24699D01*
X480039D01*
X479039Y25699D01*
Y29698D01*
X485037Y24699D02*
Y28698D01*
X486037D01*
X487036Y27698D01*
Y24699D01*
Y27698D01*
X488036Y28698D01*
X489036Y27698D01*
Y24699D01*
X491035D02*
Y28698D01*
X492035D01*
X493035Y27698D01*
Y24699D01*
Y27698D01*
X494034Y28698D01*
X495034Y27698D01*
Y24699D01*
X497033D02*
X499032Y26699D01*
Y28698D01*
X497033Y30697D01*
X401064Y14698D02*
X402064Y15697D01*
X404063D01*
X405063Y14698D01*
Y13698D01*
X404063Y12698D01*
X403064D01*
X404063D01*
X405063Y11699D01*
Y10699D01*
X404063Y9699D01*
X402064D01*
X401064Y10699D01*
X411061Y15697D02*
X407062D01*
Y12698D01*
X409062Y13698D01*
X410061D01*
X411061Y12698D01*
Y10699D01*
X410061Y9699D01*
X408062D01*
X407062Y10699D01*
X413060Y9699D02*
Y10699D01*
X414060D01*
Y9699D01*
X413060D01*
X421058D02*
Y15697D01*
X418059Y12698D01*
X422057D01*
X424057Y14698D02*
X425057Y15697D01*
X427056D01*
X428055Y14698D01*
Y13698D01*
X427056Y12698D01*
X426056D01*
X427056D01*
X428055Y11699D01*
Y10699D01*
X427056Y9699D01*
X425057D01*
X424057Y10699D01*
X430055Y9699D02*
Y13698D01*
X431055D01*
X432054Y12698D01*
Y9699D01*
Y12698D01*
X433054Y13698D01*
X434054Y12698D01*
Y9699D01*
X436053D02*
X438052D01*
X437053D01*
Y13698D01*
X436053D01*
X441051Y9699D02*
X443051D01*
X442051D01*
Y15697D01*
X441051D01*
X454047Y9699D02*
X452048Y11699D01*
Y13698D01*
X454047Y15697D01*
X457046Y14698D02*
X458046Y15697D01*
X460045D01*
X461045Y14698D01*
Y10699D01*
X460045Y9699D01*
X458046D01*
X457046Y10699D01*
Y14698D01*
X463044Y9699D02*
Y10699D01*
X464044D01*
Y9699D01*
X463044D01*
X468043Y10699D02*
X469042Y9699D01*
X471042D01*
X472041Y10699D01*
Y14698D01*
X471042Y15697D01*
X469042D01*
X468043Y14698D01*
Y13698D01*
X469042Y12698D01*
X472041D01*
X474041Y14698D02*
X475040Y15697D01*
X477040D01*
X478039Y14698D01*
Y10699D01*
X477040Y9699D01*
X475040D01*
X474041Y10699D01*
Y14698D01*
X480039D02*
X481038Y15697D01*
X483038D01*
X484037Y14698D01*
Y10699D01*
X483038Y9699D01*
X481038D01*
X480039Y10699D01*
Y14698D01*
X486037Y9699D02*
Y13698D01*
X487036D01*
X488036Y12698D01*
Y9699D01*
Y12698D01*
X489036Y13698D01*
X490035Y12698D01*
Y9699D01*
X492035D02*
Y13698D01*
X493035D01*
X494034Y12698D01*
Y9699D01*
Y12698D01*
X495034Y13698D01*
X496033Y12698D01*
Y9699D01*
X498033D02*
X500032Y11699D01*
Y13698D01*
X498033Y15697D01*
X401064Y-302D02*
X402064Y697D01*
X404063D01*
X405063Y-302D01*
Y-1302D01*
X404063Y-2302D01*
X403064D01*
X404063D01*
X405063Y-3301D01*
Y-4301D01*
X404063Y-5301D01*
X402064D01*
X401064Y-4301D01*
X407062D02*
X408062Y-5301D01*
X410061D01*
X411061Y-4301D01*
Y-302D01*
X410061Y697D01*
X408062D01*
X407062Y-302D01*
Y-1302D01*
X408062Y-2302D01*
X411061D01*
X413060Y-5301D02*
Y-4301D01*
X414060D01*
Y-5301D01*
X413060D01*
X418059Y-302D02*
X419058Y697D01*
X421058D01*
X422057Y-302D01*
Y-1302D01*
X421058Y-2302D01*
X420058D01*
X421058D01*
X422057Y-3301D01*
Y-4301D01*
X421058Y-5301D01*
X419058D01*
X418059Y-4301D01*
X424057Y697D02*
X428055D01*
Y-302D01*
X424057Y-4301D01*
Y-5301D01*
X430055D02*
Y-1302D01*
X431055D01*
X432054Y-2302D01*
Y-5301D01*
Y-2302D01*
X433054Y-1302D01*
X434054Y-2302D01*
Y-5301D01*
X436053D02*
X438052D01*
X437053D01*
Y-1302D01*
X436053D01*
X441051Y-5301D02*
X443051D01*
X442051D01*
Y697D01*
X441051D01*
X454047Y-5301D02*
X452048Y-3301D01*
Y-1302D01*
X454047Y697D01*
X457046Y-5301D02*
X459046D01*
X458046D01*
Y697D01*
X457046Y-302D01*
X462044Y-5301D02*
Y-4301D01*
X463044D01*
Y-5301D01*
X462044D01*
X467043Y-302D02*
X468043Y697D01*
X470042D01*
X471042Y-302D01*
Y-4301D01*
X470042Y-5301D01*
X468043D01*
X467043Y-4301D01*
Y-302D01*
X473041D02*
X474041Y697D01*
X476040D01*
X477040Y-302D01*
Y-4301D01*
X476040Y-5301D01*
X474041D01*
X473041Y-4301D01*
Y-302D01*
X479039D02*
X480039Y697D01*
X482038D01*
X483038Y-302D01*
Y-4301D01*
X482038Y-5301D01*
X480039D01*
X479039Y-4301D01*
Y-302D01*
X485037Y-5301D02*
Y-1302D01*
X486037D01*
X487036Y-2302D01*
Y-5301D01*
Y-2302D01*
X488036Y-1302D01*
X489036Y-2302D01*
Y-5301D01*
X491035D02*
Y-1302D01*
X492035D01*
X493035Y-2302D01*
Y-5301D01*
Y-2302D01*
X494034Y-1302D01*
X495034Y-2302D01*
Y-5301D01*
X497033D02*
X499032Y-3301D01*
Y-1302D01*
X497033Y697D01*
X401064Y-15302D02*
X402064Y-14303D01*
X404063D01*
X405063Y-15302D01*
Y-16302D01*
X404063Y-17302D01*
X405063Y-18301D01*
Y-19301D01*
X404063Y-20301D01*
X402064D01*
X401064Y-19301D01*
Y-18301D01*
X402064Y-17302D01*
X401064Y-16302D01*
Y-15302D01*
X402064Y-17302D02*
X404063D01*
X411061Y-20301D02*
X407062D01*
X411061Y-16302D01*
Y-15302D01*
X410061Y-14303D01*
X408062D01*
X407062Y-15302D01*
X413060Y-20301D02*
Y-19301D01*
X414060D01*
Y-20301D01*
X413060D01*
X422057Y-14303D02*
X420058Y-15302D01*
X418059Y-17302D01*
Y-19301D01*
X419058Y-20301D01*
X421058D01*
X422057Y-19301D01*
Y-18301D01*
X421058Y-17302D01*
X418059D01*
X424057Y-15302D02*
X425057Y-14303D01*
X427056D01*
X428055Y-15302D01*
Y-16302D01*
X427056Y-17302D01*
X428055Y-18301D01*
Y-19301D01*
X427056Y-20301D01*
X425057D01*
X424057Y-19301D01*
Y-18301D01*
X425057Y-17302D01*
X424057Y-16302D01*
Y-15302D01*
X425057Y-17302D02*
X427056D01*
X430055Y-20301D02*
Y-16302D01*
X431055D01*
X432054Y-17302D01*
Y-20301D01*
Y-17302D01*
X433054Y-16302D01*
X434054Y-17302D01*
Y-20301D01*
X436053D02*
X438052D01*
X437053D01*
Y-16302D01*
X436053D01*
X441051Y-20301D02*
X443051D01*
X442051D01*
Y-14303D01*
X441051D01*
X454047Y-20301D02*
X452048Y-18301D01*
Y-16302D01*
X454047Y-14303D01*
X461045Y-20301D02*
X457046D01*
X461045Y-16302D01*
Y-15302D01*
X460045Y-14303D01*
X458046D01*
X457046Y-15302D01*
X463044Y-20301D02*
Y-19301D01*
X464044D01*
Y-20301D01*
X463044D01*
X468043D02*
X470042D01*
X469042D01*
Y-14303D01*
X468043Y-15302D01*
X473041D02*
X474041Y-14303D01*
X476040D01*
X477040Y-15302D01*
Y-19301D01*
X476040Y-20301D01*
X474041D01*
X473041Y-19301D01*
Y-15302D01*
X479039D02*
X480039Y-14303D01*
X482038D01*
X483038Y-15302D01*
Y-19301D01*
X482038Y-20301D01*
X480039D01*
X479039Y-19301D01*
Y-15302D01*
X485037Y-20301D02*
Y-16302D01*
X486037D01*
X487036Y-17302D01*
Y-20301D01*
Y-17302D01*
X488036Y-16302D01*
X489036Y-17302D01*
Y-20301D01*
X491035D02*
Y-16302D01*
X492035D01*
X493035Y-17302D01*
Y-20301D01*
Y-17302D01*
X494034Y-16302D01*
X495034Y-17302D01*
Y-20301D01*
X497033D02*
X499032Y-18301D01*
Y-16302D01*
X497033Y-14303D01*
X342080Y-35301D02*
X344079D01*
X343079D01*
Y-29303D01*
X342080Y-30302D01*
X347078Y-34301D02*
X348078Y-35301D01*
X350077D01*
X351077Y-34301D01*
Y-30302D01*
X350077Y-29303D01*
X348078D01*
X347078Y-30302D01*
Y-31302D01*
X348078Y-32302D01*
X351077D01*
X356075Y-35301D02*
Y-29303D01*
X353076Y-32302D01*
X357075D01*
X365072Y-29303D02*
X369071D01*
X367072D01*
Y-35301D01*
X372070D02*
X374069D01*
X375069Y-34301D01*
Y-32302D01*
X374069Y-31302D01*
X372070D01*
X371070Y-32302D01*
Y-34301D01*
X372070Y-35301D01*
X378068Y-30302D02*
Y-31302D01*
X377068D01*
X379068D01*
X378068D01*
Y-34301D01*
X379068Y-35301D01*
X383067Y-31302D02*
X385066D01*
X386066Y-32302D01*
Y-35301D01*
X383067D01*
X382067Y-34301D01*
X383067Y-33301D01*
X386066D01*
X388065Y-35301D02*
X390064D01*
X389065D01*
Y-29303D01*
X388065D01*
X342080Y69699D02*
X344079D01*
X343079D01*
Y75697D01*
X342080Y74698D01*
X351077Y75697D02*
X349078Y74698D01*
X347078Y72698D01*
Y70699D01*
X348078Y69699D01*
X350077D01*
X351077Y70699D01*
Y71699D01*
X350077Y72698D01*
X347078D01*
X357075Y75697D02*
X353076D01*
Y72698D01*
X355076Y73698D01*
X356075D01*
X357075Y72698D01*
Y70699D01*
X356075Y69699D01*
X354076D01*
X353076Y70699D01*
X346078Y54699D02*
X342080D01*
X346078Y58698D01*
Y59698D01*
X345079Y60697D01*
X343079D01*
X342080Y59698D01*
X346078Y39699D02*
X342080D01*
X346078Y43698D01*
Y44698D01*
X345079Y45697D01*
X343079D01*
X342080Y44698D01*
X346078Y24699D02*
X342080D01*
X346078Y28698D01*
Y29698D01*
X345079Y30697D01*
X343079D01*
X342080Y29698D01*
Y9699D02*
X344079D01*
X343079D01*
Y15697D01*
X342080Y14698D01*
X347078D02*
X348078Y15697D01*
X350077D01*
X351077Y14698D01*
Y10699D01*
X350077Y9699D01*
X348078D01*
X347078Y10699D01*
Y14698D01*
X342080Y-5301D02*
X344079D01*
X343079D01*
Y697D01*
X342080Y-302D01*
X347078D02*
X348078Y697D01*
X350077D01*
X351077Y-302D01*
Y-4301D01*
X350077Y-5301D01*
X348078D01*
X347078Y-4301D01*
Y-302D01*
X342080Y-15302D02*
X343079Y-14303D01*
X345079D01*
X346078Y-15302D01*
Y-16302D01*
X345079Y-17302D01*
X344079D01*
X345079D01*
X346078Y-18301D01*
Y-19301D01*
X345079Y-20301D01*
X343079D01*
X342080Y-19301D01*
X470039Y-57796D02*
X474038D01*
X470039Y-55797D02*
X474038D01*
X482035Y-59795D02*
Y-53797D01*
X485034D01*
X486034Y-54797D01*
Y-56796D01*
X485034Y-57796D01*
X482035D01*
X484035D02*
X486034Y-59795D01*
X489033D02*
X491032D01*
X492032Y-58796D01*
Y-56796D01*
X491032Y-55797D01*
X489033D01*
X488033Y-56796D01*
Y-58796D01*
X489033Y-59795D01*
X494031Y-55797D02*
Y-58796D01*
X495031Y-59795D01*
X498030D01*
Y-55797D01*
X501029Y-54797D02*
Y-55797D01*
X500030D01*
X502029D01*
X501029D01*
Y-58796D01*
X502029Y-59795D01*
X508027D02*
X506028D01*
X505028Y-58796D01*
Y-56796D01*
X506028Y-55797D01*
X508027D01*
X509027Y-56796D01*
Y-57796D01*
X505028D01*
X515025Y-53797D02*
Y-59795D01*
X512026D01*
X511026Y-58796D01*
Y-56796D01*
X512026Y-55797D01*
X515025D01*
X523022Y-59795D02*
Y-53797D01*
X526021D01*
X527021Y-54797D01*
Y-56796D01*
X526021Y-57796D01*
X523022D01*
X530020Y-55797D02*
X532019D01*
X533019Y-56796D01*
Y-59795D01*
X530020D01*
X529020Y-58796D01*
X530020Y-57796D01*
X533019D01*
X536018Y-54797D02*
Y-55797D01*
X535018D01*
X537017D01*
X536018D01*
Y-58796D01*
X537017Y-59795D01*
X540017Y-53797D02*
Y-59795D01*
Y-56796D01*
X541016Y-55797D01*
X543015D01*
X544015Y-56796D01*
Y-59795D01*
X552013Y-53797D02*
Y-59795D01*
X556011D01*
X561010D02*
X559010D01*
X558011Y-58796D01*
Y-56796D01*
X559010Y-55797D01*
X561010D01*
X562009Y-56796D01*
Y-57796D01*
X558011D01*
X564009Y-59795D02*
Y-55797D01*
X567008D01*
X568008Y-56796D01*
Y-59795D01*
X572006Y-61795D02*
X573006D01*
X574006Y-60795D01*
Y-55797D01*
X571006D01*
X570007Y-56796D01*
Y-58796D01*
X571006Y-59795D01*
X574006D01*
X577005Y-54797D02*
Y-55797D01*
X576005D01*
X578004D01*
X577005D01*
Y-58796D01*
X578004Y-59795D01*
X581003Y-53797D02*
Y-59795D01*
Y-56796D01*
X582003Y-55797D01*
X584002D01*
X585002Y-56796D01*
Y-59795D01*
X592999Y-56796D02*
X596998D01*
X594999Y-54797D02*
Y-58796D01*
X604995Y-53797D02*
X608994D01*
X606995D01*
Y-59795D01*
X611993D02*
X613993D01*
X614992Y-58796D01*
Y-56796D01*
X613993Y-55797D01*
X611993D01*
X610994Y-56796D01*
Y-58796D01*
X611993Y-59795D01*
X617991D02*
X619991D01*
X620990Y-58796D01*
Y-56796D01*
X619991Y-55797D01*
X617991D01*
X616992Y-56796D01*
Y-58796D01*
X617991Y-59795D01*
X622990D02*
X624989D01*
X623989D01*
Y-53797D01*
X622990D01*
X637985Y-54797D02*
X636985Y-53797D01*
X634986D01*
X633986Y-54797D01*
Y-55797D01*
X634986Y-56796D01*
X636985D01*
X637985Y-57796D01*
Y-58796D01*
X636985Y-59795D01*
X634986D01*
X633986Y-58796D01*
X639984Y-59795D02*
X641984D01*
X640984D01*
Y-55797D01*
X639984D01*
X644983D02*
X648981D01*
X644983Y-59795D01*
X648981D01*
X653980D02*
X651980D01*
X650981Y-58796D01*
Y-56796D01*
X651980Y-55797D01*
X653980D01*
X654979Y-56796D01*
Y-57796D01*
X650981D01*
X662977D02*
X666975D01*
X662977Y-55797D02*
X666975D01*
X678972Y-54797D02*
X677972Y-53797D01*
X675973D01*
X674973Y-54797D01*
Y-55797D01*
X675973Y-56796D01*
X677972D01*
X678972Y-57796D01*
Y-58796D01*
X677972Y-59795D01*
X675973D01*
X674973Y-58796D01*
X680971Y-59795D02*
X682970D01*
X681971D01*
Y-53797D01*
X680971D01*
X686969Y-59795D02*
X688968D01*
X689968Y-58796D01*
Y-56796D01*
X688968Y-55797D01*
X686969D01*
X685969Y-56796D01*
Y-58796D01*
X686969Y-59795D01*
X692967Y-54797D02*
Y-55797D01*
X691967D01*
X693967D01*
X692967D01*
Y-58796D01*
X693967Y-59795D01*
X702964D02*
X704963D01*
X703964D01*
Y-53797D01*
X702964D01*
X710961Y-59795D02*
X708962D01*
X707962Y-58796D01*
Y-56796D01*
X708962Y-55797D01*
X710961D01*
X711961Y-56796D01*
Y-57796D01*
X707962D01*
X713960Y-59795D02*
Y-55797D01*
X716959D01*
X717959Y-56796D01*
Y-59795D01*
X721958Y-61795D02*
X722957D01*
X723957Y-60795D01*
Y-55797D01*
X720958D01*
X719958Y-56796D01*
Y-58796D01*
X720958Y-59795D01*
X723957D01*
X726956Y-54797D02*
Y-55797D01*
X725956D01*
X727956D01*
X726956D01*
Y-58796D01*
X727956Y-59795D01*
X730955Y-53797D02*
Y-59795D01*
Y-56796D01*
X731954Y-55797D01*
X733954D01*
X734953Y-56796D01*
Y-59795D01*
X743951Y-55797D02*
X745950D01*
X746950Y-56796D01*
Y-59795D01*
X743951D01*
X742951Y-58796D01*
X743951Y-57796D01*
X746950D01*
X748949Y-59795D02*
X751948D01*
X752948Y-58796D01*
X751948Y-57796D01*
X749949D01*
X748949Y-56796D01*
X749949Y-55797D01*
X752948D01*
X764944Y-53797D02*
Y-59795D01*
X761945D01*
X760945Y-58796D01*
Y-56796D01*
X761945Y-55797D01*
X764944D01*
X769942Y-59795D02*
X767943D01*
X766943Y-58796D01*
Y-56796D01*
X767943Y-55797D01*
X769942D01*
X770942Y-56796D01*
Y-57796D01*
X766943D01*
X773941Y-59795D02*
Y-54797D01*
Y-56796D01*
X772941D01*
X774940D01*
X773941D01*
Y-54797D01*
X774940Y-53797D01*
X777940Y-59795D02*
X779939D01*
X778939D01*
Y-55797D01*
X777940D01*
X782938Y-59795D02*
Y-55797D01*
X785937D01*
X786937Y-56796D01*
Y-59795D01*
X791935D02*
X789936D01*
X788936Y-58796D01*
Y-56796D01*
X789936Y-55797D01*
X791935D01*
X792935Y-56796D01*
Y-57796D01*
X788936D01*
X798933Y-53797D02*
Y-59795D01*
X795934D01*
X794934Y-58796D01*
Y-56796D01*
X795934Y-55797D01*
X798933D01*
X806930Y-59795D02*
X808930D01*
X807930D01*
Y-55797D01*
X806930D01*
X811928Y-59795D02*
Y-55797D01*
X814928D01*
X815927Y-56796D01*
Y-59795D01*
X824924Y-54797D02*
Y-55797D01*
X823925D01*
X825924D01*
X824924D01*
Y-58796D01*
X825924Y-59795D01*
X828923Y-53797D02*
Y-59795D01*
Y-56796D01*
X829923Y-55797D01*
X831922D01*
X832922Y-56796D01*
Y-59795D01*
X837920D02*
X835921D01*
X834921Y-58796D01*
Y-56796D01*
X835921Y-55797D01*
X837920D01*
X838920Y-56796D01*
Y-57796D01*
X834921D01*
X846917Y-59795D02*
Y-53797D01*
X849916D01*
X850916Y-54797D01*
Y-56796D01*
X849916Y-57796D01*
X846917D01*
X856914Y-54797D02*
X855914Y-53797D01*
X853915D01*
X852915Y-54797D01*
Y-58796D01*
X853915Y-59795D01*
X855914D01*
X856914Y-58796D01*
X858913Y-53797D02*
Y-59795D01*
X861912D01*
X862912Y-58796D01*
Y-57796D01*
X861912Y-56796D01*
X858913D01*
X861912D01*
X862912Y-55797D01*
Y-54797D01*
X861912Y-53797D01*
X858913D01*
X870910Y-59795D02*
X872909D01*
X871909D01*
Y-53797D01*
X870910D01*
X876908Y-55797D02*
X878907D01*
X879907Y-56796D01*
Y-59795D01*
X876908D01*
X875908Y-58796D01*
X876908Y-57796D01*
X879907D01*
X881906Y-55797D02*
Y-58796D01*
X882906Y-59795D01*
X885905D01*
Y-60795D01*
X884905Y-61795D01*
X883905D01*
X885905Y-59795D02*
Y-55797D01*
X888904Y-59795D02*
X890903D01*
X891903Y-58796D01*
Y-56796D01*
X890903Y-55797D01*
X888904D01*
X887904Y-56796D01*
Y-58796D01*
X888904Y-59795D01*
X893902Y-55797D02*
Y-58796D01*
X894902Y-59795D01*
X897901D01*
Y-55797D01*
X900900Y-54797D02*
Y-55797D01*
X899900D01*
X901899D01*
X900900D01*
Y-58796D01*
X901899Y-59795D01*
X505028Y-47799D02*
X509027D01*
X505028Y-45799D02*
X509027D01*
X521023Y-44800D02*
X520023Y-43800D01*
X518024D01*
X517024Y-44800D01*
Y-48798D01*
X518024Y-49798D01*
X520023D01*
X521023Y-48798D01*
X524022Y-45799D02*
X526021D01*
X527021Y-46799D01*
Y-49798D01*
X524022D01*
X523022Y-48798D01*
X524022Y-47799D01*
X527021D01*
X529020Y-49798D02*
X531019D01*
X530020D01*
Y-43800D01*
X529020D01*
X538017Y-45799D02*
X535018D01*
X534019Y-46799D01*
Y-48798D01*
X535018Y-49798D01*
X538017D01*
X540017Y-45799D02*
Y-48798D01*
X541016Y-49798D01*
X544015D01*
Y-45799D01*
X546015Y-49798D02*
X548014D01*
X547014D01*
Y-43800D01*
X546015D01*
X552013Y-45799D02*
X554012D01*
X555012Y-46799D01*
Y-49798D01*
X552013D01*
X551013Y-48798D01*
X552013Y-47799D01*
X555012D01*
X558011Y-44800D02*
Y-45799D01*
X557011D01*
X559010D01*
X558011D01*
Y-48798D01*
X559010Y-49798D01*
X565008D02*
X563009D01*
X562009Y-48798D01*
Y-46799D01*
X563009Y-45799D01*
X565008D01*
X566008Y-46799D01*
Y-47799D01*
X562009D01*
X572006Y-43800D02*
Y-49798D01*
X569007D01*
X568008Y-48798D01*
Y-46799D01*
X569007Y-45799D01*
X572006D01*
X581003Y-49798D02*
Y-44800D01*
Y-46799D01*
X580004D01*
X582003D01*
X581003D01*
Y-44800D01*
X582003Y-43800D01*
X585002Y-45799D02*
Y-49798D01*
Y-47799D01*
X586002Y-46799D01*
X587001Y-45799D01*
X588001D01*
X592000Y-49798D02*
X593999D01*
X594999Y-48798D01*
Y-46799D01*
X593999Y-45799D01*
X592000D01*
X591000Y-46799D01*
Y-48798D01*
X592000Y-49798D01*
X596998D02*
Y-45799D01*
X597998D01*
X598997Y-46799D01*
Y-49798D01*
Y-46799D01*
X599997Y-45799D01*
X600997Y-46799D01*
Y-49798D01*
X609994Y-44800D02*
Y-45799D01*
X608994D01*
X610993D01*
X609994D01*
Y-48798D01*
X610993Y-49798D01*
X614992D02*
X616992D01*
X617991Y-48798D01*
Y-46799D01*
X616992Y-45799D01*
X614992D01*
X613993Y-46799D01*
Y-48798D01*
X614992Y-49798D01*
X620990D02*
X622990D01*
X623989Y-48798D01*
Y-46799D01*
X622990Y-45799D01*
X620990D01*
X619991Y-46799D01*
Y-48798D01*
X620990Y-49798D01*
X625989D02*
X627988D01*
X626988D01*
Y-43800D01*
X625989D01*
X636985Y-49798D02*
X639984D01*
X640984Y-48798D01*
X639984Y-47799D01*
X637985D01*
X636985Y-46799D01*
X637985Y-45799D01*
X640984D01*
X643983Y-44800D02*
Y-45799D01*
X642983D01*
X644982D01*
X643983D01*
Y-48798D01*
X644982Y-49798D01*
X648981Y-45799D02*
X650981D01*
X651980Y-46799D01*
Y-49798D01*
X648981D01*
X647982Y-48798D01*
X648981Y-47799D01*
X651980D01*
X653980Y-45799D02*
Y-49798D01*
Y-47799D01*
X654979Y-46799D01*
X655979Y-45799D01*
X656979D01*
X660977Y-44800D02*
Y-45799D01*
X659978D01*
X661977D01*
X660977D01*
Y-48798D01*
X661977Y-49798D01*
X674973Y-45799D02*
X671974D01*
X670974Y-46799D01*
Y-48798D01*
X671974Y-49798D01*
X674973D01*
X679971D02*
X677972D01*
X676972Y-48798D01*
Y-46799D01*
X677972Y-45799D01*
X679971D01*
X680971Y-46799D01*
Y-47799D01*
X676972D01*
X682970Y-49798D02*
Y-45799D01*
X685969D01*
X686969Y-46799D01*
Y-49798D01*
X689968Y-44800D02*
Y-45799D01*
X688968D01*
X690968D01*
X689968D01*
Y-48798D01*
X690968Y-49798D01*
X693967Y-45799D02*
Y-49798D01*
Y-47799D01*
X694966Y-46799D01*
X695966Y-45799D01*
X696966D01*
X702964Y-49798D02*
X700964D01*
X699965Y-48798D01*
Y-46799D01*
X700964Y-45799D01*
X702964D01*
X703964Y-46799D01*
Y-47799D01*
X699965D01*
X711961Y-51797D02*
Y-45799D01*
X714960D01*
X715960Y-46799D01*
Y-48798D01*
X714960Y-49798D01*
X711961D01*
X718959D02*
X720958D01*
X721958Y-48798D01*
Y-46799D01*
X720958Y-45799D01*
X718959D01*
X717959Y-46799D01*
Y-48798D01*
X718959Y-49798D01*
X723957D02*
X726956D01*
X727956Y-48798D01*
X726956Y-47799D01*
X724957D01*
X723957Y-46799D01*
X724957Y-45799D01*
X727956D01*
X729955Y-49798D02*
X731954D01*
X730955D01*
Y-45799D01*
X729955D01*
X735953Y-44800D02*
Y-45799D01*
X734953D01*
X736953D01*
X735953D01*
Y-48798D01*
X736953Y-49798D01*
X739952D02*
X741951D01*
X740951D01*
Y-45799D01*
X739952D01*
X745950Y-49798D02*
X747949D01*
X748949Y-48798D01*
Y-46799D01*
X747949Y-45799D01*
X745950D01*
X744950Y-46799D01*
Y-48798D01*
X745950Y-49798D01*
X750948D02*
Y-45799D01*
X753947D01*
X754947Y-46799D01*
Y-49798D01*
X763944Y-44800D02*
Y-45799D01*
X762944D01*
X764944D01*
X763944D01*
Y-48798D01*
X764944Y-49798D01*
X768942D02*
X770942D01*
X771942Y-48798D01*
Y-46799D01*
X770942Y-45799D01*
X768942D01*
X767943Y-46799D01*
Y-48798D01*
X768942Y-49798D01*
X780939Y-44800D02*
Y-45799D01*
X779939D01*
X781938D01*
X780939D01*
Y-48798D01*
X781938Y-49798D01*
X785937D02*
X787936D01*
X788936Y-48798D01*
Y-46799D01*
X787936Y-45799D01*
X785937D01*
X784937Y-46799D01*
Y-48798D01*
X785937Y-49798D01*
X791935D02*
X793934D01*
X794934Y-48798D01*
Y-46799D01*
X793934Y-45799D01*
X791935D01*
X790935Y-46799D01*
Y-48798D01*
X791935Y-49798D01*
X796933D02*
X798933D01*
X797933D01*
Y-43800D01*
X796933D01*
X810929Y-49798D02*
X808930D01*
X807930Y-48798D01*
Y-46799D01*
X808930Y-45799D01*
X810929D01*
X811928Y-46799D01*
Y-47799D01*
X807930D01*
X813928Y-49798D02*
Y-45799D01*
X816927D01*
X817927Y-46799D01*
Y-49798D01*
X823925Y-43800D02*
Y-49798D01*
X820926D01*
X819926Y-48798D01*
Y-46799D01*
X820926Y-45799D01*
X823925D01*
X835921D02*
X832922D01*
X831922Y-46799D01*
Y-48798D01*
X832922Y-49798D01*
X835921D01*
X840919D02*
X838920D01*
X837920Y-48798D01*
Y-46799D01*
X838920Y-45799D01*
X840919D01*
X841919Y-46799D01*
Y-47799D01*
X837920D01*
X843918Y-49798D02*
Y-45799D01*
X846917D01*
X847917Y-46799D01*
Y-49798D01*
X850916Y-44800D02*
Y-45799D01*
X849916D01*
X851916D01*
X850916D01*
Y-48798D01*
X851916Y-49798D01*
X854915Y-45799D02*
Y-49798D01*
Y-47799D01*
X855914Y-46799D01*
X856914Y-45799D01*
X857914D01*
X863912Y-49798D02*
X861912D01*
X860913Y-48798D01*
Y-46799D01*
X861912Y-45799D01*
X863912D01*
X864911Y-46799D01*
Y-47799D01*
X860913D01*
X872909Y-51797D02*
Y-45799D01*
X875908D01*
X876908Y-46799D01*
Y-48798D01*
X875908Y-49798D01*
X872909D01*
X879906D02*
X881906D01*
X882906Y-48798D01*
Y-46799D01*
X881906Y-45799D01*
X879906D01*
X878907Y-46799D01*
Y-48798D01*
X879906Y-49798D01*
X884905D02*
X887904D01*
X888904Y-48798D01*
X887904Y-47799D01*
X885905D01*
X884905Y-46799D01*
X885905Y-45799D01*
X888904D01*
X890903Y-49798D02*
X892902D01*
X891903D01*
Y-45799D01*
X890903D01*
X896901Y-44800D02*
Y-45799D01*
X895901D01*
X897901D01*
X896901D01*
Y-48798D01*
X897901Y-49798D01*
X900900D02*
X902899D01*
X901899D01*
Y-45799D01*
X900900D01*
X906898Y-49798D02*
X908897D01*
X909897Y-48798D01*
Y-46799D01*
X908897Y-45799D01*
X906898D01*
X905898Y-46799D01*
Y-48798D01*
X906898Y-49798D01*
X911896D02*
Y-45799D01*
X914895D01*
X915895Y-46799D01*
Y-49798D01*
X917894D02*
Y-48798D01*
X918894D01*
Y-49798D01*
X917894D01*
D127*
X282492Y80199D02*
X1277215D01*
X282492Y-24801D02*
X1277215D01*
X282492Y-39801D02*
X1277215D01*
Y95199D01*
X282492D02*
X1277215D01*
X282492Y-39801D02*
Y95199D01*
X1136955Y-39801D02*
Y95199D01*
X1027986Y-39801D02*
Y95199D01*
X914020Y-39801D02*
Y95199D01*
X839440Y-39801D02*
Y95199D01*
X780455Y-39801D02*
Y95199D01*
X630500Y-39801D02*
Y95199D01*
X557120Y-39801D02*
Y95199D01*
X506532Y-39801D02*
Y95199D01*
X396564Y-39801D02*
Y95199D01*
X337580Y-39801D02*
Y95199D01*
D248*
X1141455Y84699D02*
Y91897D01*
X1145053D01*
X1146253Y90697D01*
Y88298D01*
X1145053Y87099D01*
X1141455D01*
X1143854D02*
X1146253Y84699D01*
X1149852D02*
X1152251D01*
X1153451Y85899D01*
Y88298D01*
X1152251Y89498D01*
X1149852D01*
X1148652Y88298D01*
Y85899D01*
X1149852Y84699D01*
X1155850Y89498D02*
Y85899D01*
X1157050Y84699D01*
X1160649D01*
Y89498D01*
X1164247Y90697D02*
Y89498D01*
X1163048D01*
X1165447D01*
X1164247D01*
Y85899D01*
X1165447Y84699D01*
X1172645D02*
X1170245D01*
X1169046Y85899D01*
Y88298D01*
X1170245Y89498D01*
X1172645D01*
X1173844Y88298D01*
Y87099D01*
X1169046D01*
X1181042Y91897D02*
Y84699D01*
X1177443D01*
X1176243Y85899D01*
Y88298D01*
X1177443Y89498D01*
X1181042D01*
X1190639Y84699D02*
Y91897D01*
X1194238D01*
X1195437Y90697D01*
Y88298D01*
X1194238Y87099D01*
X1190639D01*
X1199036Y89498D02*
X1201435D01*
X1202635Y88298D01*
Y84699D01*
X1199036D01*
X1197836Y85899D01*
X1199036Y87099D01*
X1202635D01*
X1206234Y90697D02*
Y89498D01*
X1205034D01*
X1207433D01*
X1206234D01*
Y85899D01*
X1207433Y84699D01*
X1211032Y91897D02*
Y84699D01*
Y88298D01*
X1212232Y89498D01*
X1214631D01*
X1215831Y88298D01*
Y84699D01*
X1225428Y91897D02*
Y84699D01*
X1230226D01*
X1236224D02*
X1233825D01*
X1232625Y85899D01*
Y88298D01*
X1233825Y89498D01*
X1236224D01*
X1237424Y88298D01*
Y87099D01*
X1232625D01*
X1239823Y84699D02*
Y89498D01*
X1243422D01*
X1244621Y88298D01*
Y84699D01*
X1249420Y82300D02*
X1250619D01*
X1251819Y83500D01*
Y89498D01*
X1248220D01*
X1247021Y88298D01*
Y85899D01*
X1248220Y84699D01*
X1251819D01*
X1255418Y90697D02*
Y89498D01*
X1254218D01*
X1256617D01*
X1255418D01*
Y85899D01*
X1256617Y84699D01*
X1260216Y91897D02*
Y84699D01*
Y88298D01*
X1261416Y89498D01*
X1263815D01*
X1265015Y88298D01*
Y84699D01*
X1032486Y91897D02*
Y84699D01*
Y88298D01*
X1037285D01*
Y91897D01*
Y84699D01*
X1040884D02*
X1043283D01*
X1044483Y85899D01*
Y88298D01*
X1043283Y89498D01*
X1040884D01*
X1039684Y88298D01*
Y85899D01*
X1040884Y84699D01*
X1046882D02*
X1049281D01*
X1048081D01*
Y91897D01*
X1046882D01*
X1056479Y84699D02*
X1054079D01*
X1052880Y85899D01*
Y88298D01*
X1054079Y89498D01*
X1056479D01*
X1057678Y88298D01*
Y87099D01*
X1052880D01*
X1067275Y91897D02*
Y84699D01*
X1072074D01*
X1078072D02*
X1075672D01*
X1074473Y85899D01*
Y88298D01*
X1075672Y89498D01*
X1078072D01*
X1079271Y88298D01*
Y87099D01*
X1074473D01*
X1081670Y84699D02*
Y89498D01*
X1085269D01*
X1086469Y88298D01*
Y84699D01*
X1091267Y82300D02*
X1092467D01*
X1093667Y83500D01*
Y89498D01*
X1090068D01*
X1088868Y88298D01*
Y85899D01*
X1090068Y84699D01*
X1093667D01*
X1097265Y90697D02*
Y89498D01*
X1096066D01*
X1098465D01*
X1097265D01*
Y85899D01*
X1098465Y84699D01*
X1102064Y91897D02*
Y84699D01*
Y88298D01*
X1103263Y89498D01*
X1105663D01*
X1106862Y88298D01*
Y84699D01*
X918520Y91897D02*
X923318D01*
X920919D01*
Y84699D01*
X929316D02*
X926917D01*
X925717Y85899D01*
Y88298D01*
X926917Y89498D01*
X929316D01*
X930516Y88298D01*
Y87099D01*
X925717D01*
X932915Y84699D02*
Y89498D01*
X934115D01*
X935314Y88298D01*
Y84699D01*
Y88298D01*
X936514Y89498D01*
X937714Y88298D01*
Y84699D01*
X940113Y82300D02*
Y89498D01*
X943712D01*
X944911Y88298D01*
Y85899D01*
X943712Y84699D01*
X940113D01*
X947310D02*
X949710D01*
X948510D01*
Y91897D01*
X947310D01*
X954508Y89498D02*
X956907D01*
X958107Y88298D01*
Y84699D01*
X954508D01*
X953308Y85899D01*
X954508Y87099D01*
X958107D01*
X961706Y90697D02*
Y89498D01*
X960506D01*
X962905D01*
X961706D01*
Y85899D01*
X962905Y84699D01*
X970103D02*
X967704D01*
X966504Y85899D01*
Y88298D01*
X967704Y89498D01*
X970103D01*
X971303Y88298D01*
Y87099D01*
X966504D01*
X843940Y84699D02*
Y91897D01*
X847539D01*
X848738Y90697D01*
Y88298D01*
X847539Y87099D01*
X843940D01*
X852337Y89498D02*
X854736D01*
X855936Y88298D01*
Y84699D01*
X852337D01*
X851138Y85899D01*
X852337Y87099D01*
X855936D01*
X863134Y91897D02*
Y84699D01*
X859535D01*
X858335Y85899D01*
Y88298D01*
X859535Y89498D01*
X863134D01*
X877529Y90697D02*
X876329Y91897D01*
X873930D01*
X872731Y90697D01*
Y89498D01*
X873930Y88298D01*
X876329D01*
X877529Y87099D01*
Y85899D01*
X876329Y84699D01*
X873930D01*
X872731Y85899D01*
X879928Y91897D02*
Y84699D01*
Y88298D01*
X881128Y89498D01*
X883527D01*
X884727Y88298D01*
Y84699D01*
X888326Y89498D02*
X890725D01*
X891924Y88298D01*
Y84699D01*
X888326D01*
X887126Y85899D01*
X888326Y87099D01*
X891924D01*
X894324Y82300D02*
Y89498D01*
X897922D01*
X899122Y88298D01*
Y85899D01*
X897922Y84699D01*
X894324D01*
X905120D02*
X902721D01*
X901521Y85899D01*
Y88298D01*
X902721Y89498D01*
X905120D01*
X906320Y88298D01*
Y87099D01*
X901521D01*
X784955Y91897D02*
Y87099D01*
X787354Y84699D01*
X789753Y87099D01*
Y91897D01*
X792153Y84699D02*
X794552D01*
X793352D01*
Y89498D01*
X792153D01*
X799350D02*
X801750D01*
X802949Y88298D01*
Y84699D01*
X799350D01*
X798151Y85899D01*
X799350Y87099D01*
X802949D01*
X805348Y84699D02*
X810147Y89498D01*
X812546Y84699D02*
Y91897D01*
X816145D01*
X817345Y90697D01*
Y88298D01*
X816145Y87099D01*
X812546D01*
X820943Y89498D02*
X823343D01*
X824542Y88298D01*
Y84699D01*
X820943D01*
X819744Y85899D01*
X820943Y87099D01*
X824542D01*
X831740Y91897D02*
Y84699D01*
X828141D01*
X826941Y85899D01*
Y88298D01*
X828141Y89498D01*
X831740D01*
X635000Y91897D02*
Y84699D01*
X638599D01*
X639798Y85899D01*
Y90697D01*
X638599Y91897D01*
X635000D01*
X642198Y89498D02*
Y84699D01*
Y87099D01*
X643397Y88298D01*
X644597Y89498D01*
X645796D01*
X649395Y84699D02*
X651795D01*
X650595D01*
Y89498D01*
X649395D01*
X655393Y84699D02*
X657793D01*
X656593D01*
Y91897D01*
X655393D01*
X661391Y84699D02*
X663791D01*
X662591D01*
Y91897D01*
X661391D01*
X674587D02*
Y84699D01*
X679386D01*
X682984Y89498D02*
X685384D01*
X686583Y88298D01*
Y84699D01*
X682984D01*
X681785Y85899D01*
X682984Y87099D01*
X686583D01*
X688982Y89498D02*
Y85899D01*
X690182Y84699D01*
X693781D01*
Y83500D01*
X692581Y82300D01*
X691382D01*
X693781Y84699D02*
Y89498D01*
X699779Y84699D02*
X697380D01*
X696180Y85899D01*
Y88298D01*
X697380Y89498D01*
X699779D01*
X700979Y88298D01*
Y87099D01*
X696180D01*
X703378Y89498D02*
Y84699D01*
Y87099D01*
X704577Y88298D01*
X705777Y89498D01*
X706977D01*
X717773Y84699D02*
Y91897D01*
X721372D01*
X722572Y90697D01*
Y88298D01*
X721372Y87099D01*
X717773D01*
X726170Y89498D02*
X728570D01*
X729769Y88298D01*
Y84699D01*
X726170D01*
X724971Y85899D01*
X726170Y87099D01*
X729769D01*
X732168Y84699D02*
X734568D01*
X733368D01*
Y89498D01*
X732168D01*
X738167D02*
Y84699D01*
Y87099D01*
X739366Y88298D01*
X740566Y89498D01*
X741765D01*
X561620Y91897D02*
Y84699D01*
Y88298D01*
X566418D01*
Y91897D01*
Y84699D01*
X570017D02*
X572416D01*
X573616Y85899D01*
Y88298D01*
X572416Y89498D01*
X570017D01*
X568818Y88298D01*
Y85899D01*
X570017Y84699D01*
X576015D02*
X578414D01*
X577215D01*
Y91897D01*
X576015D01*
X585612Y84699D02*
X583213D01*
X582013Y85899D01*
Y88298D01*
X583213Y89498D01*
X585612D01*
X586812Y88298D01*
Y87099D01*
X582013D01*
X596409Y91897D02*
X601207D01*
X598808D01*
Y84699D01*
X603606Y89498D02*
Y85899D01*
X604806Y84699D01*
X608405D01*
Y83500D01*
X607205Y82300D01*
X606005D01*
X608405Y84699D02*
Y89498D01*
X610804Y82300D02*
Y89498D01*
X614403D01*
X615602Y88298D01*
Y85899D01*
X614403Y84699D01*
X610804D01*
X621600D02*
X619201D01*
X618002Y85899D01*
Y88298D01*
X619201Y89498D01*
X621600D01*
X622800Y88298D01*
Y87099D01*
X618002D01*
X511032Y84699D02*
Y91897D01*
X514631D01*
X515831Y90697D01*
Y88298D01*
X514631Y87099D01*
X511032D01*
X518230Y84699D02*
X520629D01*
X519429D01*
Y91897D01*
X518230D01*
X525428Y89498D02*
X527827D01*
X529026Y88298D01*
Y84699D01*
X525428D01*
X524228Y85899D01*
X525428Y87099D01*
X529026D01*
X532625Y90697D02*
Y89498D01*
X531426D01*
X533825D01*
X532625D01*
Y85899D01*
X533825Y84699D01*
X541022D02*
X538623D01*
X537424Y85899D01*
Y88298D01*
X538623Y89498D01*
X541022D01*
X542222Y88298D01*
Y87099D01*
X537424D01*
X549420Y91897D02*
Y84699D01*
X545821D01*
X544621Y85899D01*
Y88298D01*
X545821Y89498D01*
X549420D01*
X401064Y91897D02*
Y84699D01*
Y88298D01*
X405863D01*
Y91897D01*
Y84699D01*
X409461D02*
X411861D01*
X413060Y85899D01*
Y88298D01*
X411861Y89498D01*
X409461D01*
X408262Y88298D01*
Y85899D01*
X409461Y84699D01*
X415460D02*
X417859D01*
X416659D01*
Y91897D01*
X415460D01*
X425057Y84699D02*
X422657D01*
X421458Y85899D01*
Y88298D01*
X422657Y89498D01*
X425057D01*
X426256Y88298D01*
Y87099D01*
X421458D01*
X440651Y90697D02*
X439452Y91897D01*
X437053D01*
X435853Y90697D01*
Y89498D01*
X437053Y88298D01*
X439452D01*
X440651Y87099D01*
Y85899D01*
X439452Y84699D01*
X437053D01*
X435853Y85899D01*
X443051Y84699D02*
X445450D01*
X444250D01*
Y89498D01*
X443051D01*
X449049D02*
X453847D01*
X449049Y84699D01*
X453847D01*
X459845D02*
X457446D01*
X456246Y85899D01*
Y88298D01*
X457446Y89498D01*
X459845D01*
X461045Y88298D01*
Y87099D01*
X456246D01*
X346878Y90697D02*
X345679Y91897D01*
X343279D01*
X342080Y90697D01*
Y85899D01*
X343279Y84699D01*
X345679D01*
X346878Y85899D01*
X350477Y84699D02*
X352876D01*
X354076Y85899D01*
Y88298D01*
X352876Y89498D01*
X350477D01*
X349277Y88298D01*
Y85899D01*
X350477Y84699D01*
X356475Y89498D02*
Y85899D01*
X357675Y84699D01*
X361274D01*
Y89498D01*
X363673Y84699D02*
Y89498D01*
X367272D01*
X368471Y88298D01*
Y84699D01*
X372070Y90697D02*
Y89498D01*
X370870D01*
X373270D01*
X372070D01*
Y85899D01*
X373270Y84699D01*
X296291Y90697D02*
X295091Y91897D01*
X292692D01*
X291492Y90697D01*
Y89498D01*
X292692Y88298D01*
X295091D01*
X296291Y87099D01*
Y85899D01*
X295091Y84699D01*
X292692D01*
X291492Y85899D01*
X298690Y89498D02*
Y85899D01*
X299889Y84699D01*
X303488D01*
Y83500D01*
X302289Y82300D01*
X301089D01*
X303488Y84699D02*
Y89498D01*
X305888Y84699D02*
Y89498D01*
X307087D01*
X308287Y88298D01*
Y84699D01*
Y88298D01*
X309486Y89498D01*
X310686Y88298D01*
Y84699D01*
X313085Y91897D02*
Y84699D01*
X316684D01*
X317884Y85899D01*
Y87099D01*
Y88298D01*
X316684Y89498D01*
X313085D01*
X321482Y84699D02*
X323882D01*
X325081Y85899D01*
Y88298D01*
X323882Y89498D01*
X321482D01*
X320283Y88298D01*
Y85899D01*
X321482Y84699D01*
X327481D02*
X329880D01*
X328680D01*
Y91897D01*
X327481D01*
D299*
X120828Y-189905D02*
G03*
X120828Y-189905I-600J0D01*
G01*
X121228D02*
G03*
X121228Y-189905I-1000J0D01*
G01*
X98072Y-189905D02*
G03*
X98072Y-189905I-600J0D01*
G01*
X98472D02*
G03*
X98472Y-189905I-1000J0D01*
G01*
X154728Y-39405D02*
X155728Y-38905D01*
X156728Y-39405D01*
X156228Y-38405D02*
X156728Y-39405D01*
X156228Y-38405D02*
X156728Y-37405D01*
X155728Y-37905D02*
X156728Y-37405D01*
X154728D02*
X155728Y-37905D01*
X154728Y-37405D02*
X155228Y-38405D01*
X154728Y-39405D02*
X155228Y-38405D01*
X157328Y-39405D02*
X158328Y-38905D01*
X159328Y-39405D01*
X158828Y-38405D02*
X159328Y-39405D01*
X158828Y-38405D02*
X159328Y-37405D01*
X158328Y-37905D02*
X159328Y-37405D01*
X157328D02*
X158328Y-37905D01*
X157328Y-37405D02*
X157828Y-38405D01*
X157328Y-39405D02*
X157828Y-38405D01*
X157328Y-41905D02*
X158328Y-41405D01*
X159328Y-41905D01*
X158828Y-40905D02*
X159328Y-41905D01*
X158828Y-40905D02*
X159328Y-39905D01*
X158328Y-40405D02*
X159328Y-39905D01*
X157328D02*
X158328Y-40405D01*
X157328Y-39905D02*
X157828Y-40905D01*
X157328Y-41905D02*
X157828Y-40905D01*
X154728Y-41905D02*
X155728Y-41405D01*
X156728Y-41905D01*
X156228Y-40905D02*
X156728Y-41905D01*
X156228Y-40905D02*
X156728Y-39905D01*
X155728Y-40405D02*
X156728Y-39905D01*
X154728D02*
X155728Y-40405D01*
X154728Y-39905D02*
X155228Y-40905D01*
X154728Y-41905D02*
X155228Y-40905D01*
X135828Y-43705D02*
X136828Y-43205D01*
X137828Y-43705D01*
X137328Y-42705D02*
X137828Y-43705D01*
X137328Y-42705D02*
X137828Y-41705D01*
X136828Y-42205D02*
X137828Y-41705D01*
X135828D02*
X136828Y-42205D01*
X135828Y-41705D02*
X136328Y-42705D01*
X135828Y-43705D02*
X136328Y-42705D01*
X161328Y-46505D02*
X162328Y-46005D01*
X163328Y-46505D01*
X162828Y-45505D02*
X163328Y-46505D01*
X162828Y-45505D02*
X163328Y-44505D01*
X162328Y-45005D02*
X163328Y-44505D01*
X161328D02*
X162328Y-45005D01*
X161328Y-44505D02*
X161828Y-45505D01*
X161328Y-46505D02*
X161828Y-45505D01*
X149128Y-132605D02*
X150128Y-132105D01*
X151128Y-132605D01*
X150628Y-131605D02*
X151128Y-132605D01*
X150628Y-131605D02*
X151128Y-130605D01*
X150128Y-131105D02*
X151128Y-130605D01*
X149128D02*
X150128Y-131105D01*
X149128Y-130605D02*
X149628Y-131605D01*
X149128Y-132605D02*
X149628Y-131605D01*
X152199Y-137539D02*
X153199Y-137039D01*
X154199Y-137539D01*
X153699Y-136539D02*
X154199Y-137539D01*
X153699Y-136539D02*
X154199Y-135538D01*
X153199Y-136038D02*
X154199Y-135538D01*
X152199D02*
X153199Y-136038D01*
X152199Y-135538D02*
X152699Y-136539D01*
X152199Y-137539D02*
X152699Y-136539D01*
X146055Y-137539D02*
X147055Y-137039D01*
X148055Y-137539D01*
X147555Y-136539D02*
X148055Y-137539D01*
X147555Y-136539D02*
X148055Y-135538D01*
X147055Y-136038D02*
X148055Y-135538D01*
X146055D02*
X147055Y-136038D01*
X146055Y-135538D02*
X146555Y-136539D01*
X146055Y-137539D02*
X146555Y-136539D01*
X146028Y-127705D02*
X147028Y-127205D01*
X148028Y-127705D01*
X147528Y-126705D02*
X148028Y-127705D01*
X147528Y-126705D02*
X148028Y-125705D01*
X147028Y-126205D02*
X148028Y-125705D01*
X146028D02*
X147028Y-126205D01*
X146028Y-125705D02*
X146528Y-126705D01*
X146028Y-127705D02*
X146528Y-126705D01*
X153728Y-119205D02*
X154728Y-118705D01*
X155728Y-119205D01*
X155228Y-118205D02*
X155728Y-119205D01*
X155228Y-118205D02*
X155728Y-117205D01*
X154728Y-117705D02*
X155728Y-117205D01*
X153728D02*
X154728Y-117705D01*
X153728Y-117205D02*
X154228Y-118205D01*
X153728Y-119205D02*
X154228Y-118205D01*
X169428Y-61176D02*
X170428Y-60676D01*
X171428Y-61176D01*
X170928Y-60176D02*
X171428Y-61176D01*
X170928Y-60176D02*
X171428Y-59176D01*
X170428Y-59676D02*
X171428Y-59176D01*
X169428D02*
X170428Y-59676D01*
X169428Y-59176D02*
X169928Y-60176D01*
X169428Y-61176D02*
X169928Y-60176D01*
X153728Y-114705D02*
X154728Y-114205D01*
X155728Y-114705D01*
X155228Y-113705D02*
X155728Y-114705D01*
X155228Y-113705D02*
X155728Y-112705D01*
X154728Y-113205D02*
X155728Y-112705D01*
X153728D02*
X154728Y-113205D01*
X153728Y-112705D02*
X154228Y-113705D01*
X153728Y-114705D02*
X154228Y-113705D01*
X152228Y-127705D02*
X153228Y-127205D01*
X154228Y-127705D01*
X153728Y-126705D02*
X154228Y-127705D01*
X153728Y-126705D02*
X154228Y-125705D01*
X153228Y-126205D02*
X154228Y-125705D01*
X152228D02*
X153228Y-126205D01*
X152228Y-125705D02*
X152728Y-126705D01*
X152228Y-127705D02*
X152728Y-126705D01*
X122164Y-147005D02*
X123164Y-146505D01*
X124164Y-147005D01*
X123664Y-146005D02*
X124164Y-147005D01*
X123664Y-146005D02*
X124164Y-145005D01*
X123164Y-145505D02*
X124164Y-145005D01*
X122164D02*
X123164Y-145505D01*
X122164Y-145005D02*
X122664Y-146005D01*
X122164Y-147005D02*
X122664Y-146005D01*
X117928Y-147005D02*
X118928Y-146505D01*
X119928Y-147005D01*
X119428Y-146005D02*
X119928Y-147005D01*
X119428Y-146005D02*
X119928Y-145005D01*
X118928Y-145505D02*
X119928Y-145005D01*
X117928D02*
X118928Y-145505D01*
X117928Y-145005D02*
X118428Y-146005D01*
X117928Y-147005D02*
X118428Y-146005D01*
X122164Y-142905D02*
X123164Y-142405D01*
X124164Y-142905D01*
X123664Y-141905D02*
X124164Y-142905D01*
X123664Y-141905D02*
X124164Y-140905D01*
X123164Y-141405D02*
X124164Y-140905D01*
X122164D02*
X123164Y-141405D01*
X122164Y-140905D02*
X122664Y-141905D01*
X122164Y-142905D02*
X122664Y-141905D01*
X98800Y-104505D02*
X99800Y-104005D01*
X100800Y-104505D01*
X100300Y-103505D02*
X100800Y-104505D01*
X100300Y-103505D02*
X100800Y-102505D01*
X99800Y-103005D02*
X100800Y-102505D01*
X98800D02*
X99800Y-103005D01*
X98800Y-102505D02*
X99300Y-103505D01*
X98800Y-104505D02*
X99300Y-103505D01*
X39928Y-106005D02*
X40928Y-105505D01*
X41928Y-106005D01*
X41428Y-105005D02*
X41928Y-106005D01*
X41428Y-105005D02*
X41928Y-104005D01*
X40928Y-104505D02*
X41928Y-104005D01*
X39928D02*
X40928Y-104505D01*
X39928Y-104005D02*
X40428Y-105005D01*
X39928Y-106005D02*
X40428Y-105005D01*
X27028Y-99105D02*
X28028Y-98605D01*
X29028Y-99105D01*
X28528Y-98105D02*
X29028Y-99105D01*
X28528Y-98105D02*
X29028Y-97105D01*
X28028Y-97605D02*
X29028Y-97105D01*
X27028D02*
X28028Y-97605D01*
X27028Y-97105D02*
X27528Y-98105D01*
X27028Y-99105D02*
X27528Y-98105D01*
X22034Y-133605D02*
X23034Y-133105D01*
X24034Y-133605D01*
X23534Y-132605D02*
X24034Y-133605D01*
X23534Y-132605D02*
X24034Y-131605D01*
X23034Y-132105D02*
X24034Y-131605D01*
X22034D02*
X23034Y-132105D01*
X22034Y-131605D02*
X22534Y-132605D01*
X22034Y-133605D02*
X22534Y-132605D01*
X32034Y-133605D02*
X33034Y-133105D01*
X34034Y-133605D01*
X33534Y-132605D02*
X34034Y-133605D01*
X33534Y-132605D02*
X34034Y-131605D01*
X33034Y-132105D02*
X34034Y-131605D01*
X32034D02*
X33034Y-132105D01*
X32034Y-131605D02*
X32534Y-132605D01*
X32034Y-133605D02*
X32534Y-132605D01*
X27034Y-133605D02*
X28034Y-133105D01*
X29034Y-133605D01*
X28534Y-132605D02*
X29034Y-133605D01*
X28534Y-132605D02*
X29034Y-131605D01*
X28034Y-132105D02*
X29034Y-131605D01*
X27034D02*
X28034Y-132105D01*
X27034Y-131605D02*
X27534Y-132605D01*
X27034Y-133605D02*
X27534Y-132605D01*
X136728Y-99105D02*
X137728Y-98605D01*
X138728Y-99105D01*
X138228Y-98105D02*
X138728Y-99105D01*
X138228Y-98105D02*
X138728Y-97105D01*
X137728Y-97605D02*
X138728Y-97105D01*
X136728D02*
X137728Y-97605D01*
X136728Y-97105D02*
X137228Y-98105D01*
X136728Y-99105D02*
X137228Y-98105D01*
X105528Y-87605D02*
X106528Y-87105D01*
X107528Y-87605D01*
X107028Y-86605D02*
X107528Y-87605D01*
X107028Y-86605D02*
X107528Y-85605D01*
X106528Y-86105D02*
X107528Y-85605D01*
X105528D02*
X106528Y-86105D01*
X105528Y-85605D02*
X106028Y-86605D01*
X105528Y-87605D02*
X106028Y-86605D01*
X22028Y-70905D02*
X23028Y-70405D01*
X24028Y-70905D01*
X23528Y-69905D02*
X24028Y-70905D01*
X23528Y-69905D02*
X24028Y-68905D01*
X23028Y-69405D02*
X24028Y-68905D01*
X22028D02*
X23028Y-69405D01*
X22028Y-68905D02*
X22528Y-69905D01*
X22028Y-70905D02*
X22528Y-69905D01*
X22028Y-82005D02*
X23028Y-81505D01*
X24028Y-82005D01*
X23528Y-81005D02*
X24028Y-82005D01*
X23528Y-81005D02*
X24028Y-80005D01*
X23028Y-80505D02*
X24028Y-80005D01*
X22028D02*
X23028Y-80505D01*
X22028Y-80005D02*
X22528Y-81005D01*
X22028Y-82005D02*
X22528Y-81005D01*
X53416Y-149729D02*
X54416Y-149229D01*
X55416Y-149729D01*
X54916Y-148729D02*
X55416Y-149729D01*
X54916Y-148729D02*
X55416Y-147729D01*
X54416Y-148229D02*
X55416Y-147729D01*
X53416D02*
X54416Y-148229D01*
X53416Y-147729D02*
X53916Y-148729D01*
X53416Y-149729D02*
X53916Y-148729D01*
X48216Y-146229D02*
X49216Y-145729D01*
X50216Y-146229D01*
X49716Y-145229D02*
X50216Y-146229D01*
X49716Y-145229D02*
X50216Y-144229D01*
X49216Y-144729D02*
X50216Y-144229D01*
X48216D02*
X49216Y-144729D01*
X48216Y-144229D02*
X48716Y-145229D01*
X48216Y-146229D02*
X48716Y-145229D01*
X56016Y-149729D02*
X57016Y-149229D01*
X58016Y-149729D01*
X57516Y-148729D02*
X58016Y-149729D01*
X57516Y-148729D02*
X58016Y-147729D01*
X57016Y-148229D02*
X58016Y-147729D01*
X56016D02*
X57016Y-148229D01*
X56016Y-147729D02*
X56516Y-148729D01*
X56016Y-149729D02*
X56516Y-148729D01*
X50816Y-149729D02*
X51816Y-149229D01*
X52816Y-149729D01*
X52316Y-148729D02*
X52816Y-149729D01*
X52316Y-148729D02*
X52816Y-147729D01*
X51816Y-148229D02*
X52816Y-147729D01*
X50816D02*
X51816Y-148229D01*
X50816Y-147729D02*
X51316Y-148729D01*
X50816Y-149729D02*
X51316Y-148729D01*
X45616Y-149729D02*
X46616Y-149229D01*
X47616Y-149729D01*
X47116Y-148729D02*
X47616Y-149729D01*
X47116Y-148729D02*
X47616Y-147729D01*
X46616Y-148229D02*
X47616Y-147729D01*
X45616D02*
X46616Y-148229D01*
X45616Y-147729D02*
X46116Y-148729D01*
X45616Y-149729D02*
X46116Y-148729D01*
X45616Y-146229D02*
X46616Y-145729D01*
X47616Y-146229D01*
X47116Y-145229D02*
X47616Y-146229D01*
X47116Y-145229D02*
X47616Y-144229D01*
X46616Y-144729D02*
X47616Y-144229D01*
X45616D02*
X46616Y-144729D01*
X45616Y-144229D02*
X46116Y-145229D01*
X45616Y-146229D02*
X46116Y-145229D01*
X48216Y-149729D02*
X49216Y-149229D01*
X50216Y-149729D01*
X49716Y-148729D02*
X50216Y-149729D01*
X49716Y-148729D02*
X50216Y-147729D01*
X49216Y-148229D02*
X50216Y-147729D01*
X48216D02*
X49216Y-148229D01*
X48216Y-147729D02*
X48716Y-148729D01*
X48216Y-149729D02*
X48716Y-148729D01*
X50816Y-146229D02*
X51816Y-145729D01*
X52816Y-146229D01*
X52316Y-145229D02*
X52816Y-146229D01*
X52316Y-145229D02*
X52816Y-144229D01*
X51816Y-144729D02*
X52816Y-144229D01*
X50816D02*
X51816Y-144729D01*
X50816Y-144229D02*
X51316Y-145229D01*
X50816Y-146229D02*
X51316Y-145229D01*
X56016Y-146229D02*
X57016Y-145729D01*
X58016Y-146229D01*
X57516Y-145229D02*
X58016Y-146229D01*
X57516Y-145229D02*
X58016Y-144229D01*
X57016Y-144729D02*
X58016Y-144229D01*
X56016D02*
X57016Y-144729D01*
X56016Y-144229D02*
X56516Y-145229D01*
X56016Y-146229D02*
X56516Y-145229D01*
X53416Y-146229D02*
X54416Y-145729D01*
X55416Y-146229D01*
X54916Y-145229D02*
X55416Y-146229D01*
X54916Y-145229D02*
X55416Y-144229D01*
X54416Y-144729D02*
X55416Y-144229D01*
X53416D02*
X54416Y-144729D01*
X53416Y-144229D02*
X53916Y-145229D01*
X53416Y-146229D02*
X53916Y-145229D01*
X66278Y-170472D02*
X67278Y-169972D01*
X68278Y-170472D01*
X67778Y-169472D02*
X68278Y-170472D01*
X67778Y-169472D02*
X68278Y-168472D01*
X67278Y-168972D02*
X68278Y-168472D01*
X66278D02*
X67278Y-168972D01*
X66278Y-168472D02*
X66778Y-169472D01*
X66278Y-170472D02*
X66778Y-169472D01*
X125128Y-104740D02*
X126128Y-104240D01*
X127128Y-104740D01*
X126628Y-103740D02*
X127128Y-104740D01*
X126628Y-103740D02*
X127128Y-102740D01*
X126128Y-103240D02*
X127128Y-102740D01*
X125128D02*
X126128Y-103240D01*
X125128Y-102740D02*
X125628Y-103740D01*
X125128Y-104740D02*
X125628Y-103740D01*
X36928Y-175205D02*
X37928Y-174705D01*
X38928Y-175205D01*
X38428Y-174205D02*
X38928Y-175205D01*
X38428Y-174205D02*
X38928Y-173205D01*
X37928Y-173705D02*
X38928Y-173205D01*
X36928D02*
X37928Y-173705D01*
X36928Y-173205D02*
X37428Y-174205D01*
X36928Y-175205D02*
X37428Y-174205D01*
X96228Y-179405D02*
X97228Y-178905D01*
X98228Y-179405D01*
X97728Y-178405D02*
X98228Y-179405D01*
X97728Y-178405D02*
X98228Y-177405D01*
X97228Y-177905D02*
X98228Y-177405D01*
X96228D02*
X97228Y-177905D01*
X96228Y-177405D02*
X96728Y-178405D01*
X96228Y-179405D02*
X96728Y-178405D01*
X118728Y-178905D02*
X119728Y-178405D01*
X120728Y-178905D01*
X120228Y-177905D02*
X120728Y-178905D01*
X120228Y-177905D02*
X120728Y-176905D01*
X119728Y-177405D02*
X120728Y-176905D01*
X118728D02*
X119728Y-177405D01*
X118728Y-176905D02*
X119228Y-177905D01*
X118728Y-178905D02*
X119228Y-177905D01*
X61216Y-146229D02*
X62216Y-145729D01*
X63216Y-146229D01*
X62716Y-145229D02*
X63216Y-146229D01*
X62716Y-145229D02*
X63216Y-144229D01*
X62216Y-144729D02*
X63216Y-144229D01*
X61216D02*
X62216Y-144729D01*
X61216Y-144229D02*
X61716Y-145229D01*
X61216Y-146229D02*
X61716Y-145229D01*
X58616Y-146229D02*
X59616Y-145729D01*
X60616Y-146229D01*
X60116Y-145229D02*
X60616Y-146229D01*
X60116Y-145229D02*
X60616Y-144229D01*
X59616Y-144729D02*
X60616Y-144229D01*
X58616D02*
X59616Y-144729D01*
X58616Y-144229D02*
X59116Y-145229D01*
X58616Y-146229D02*
X59116Y-145229D01*
X58616Y-149729D02*
X59616Y-149229D01*
X60616Y-149729D01*
X60116Y-148729D02*
X60616Y-149729D01*
X60116Y-148729D02*
X60616Y-147729D01*
X59616Y-148229D02*
X60616Y-147729D01*
X58616D02*
X59616Y-148229D01*
X58616Y-147729D02*
X59116Y-148729D01*
X58616Y-149729D02*
X59116Y-148729D01*
X61216Y-149729D02*
X62216Y-149229D01*
X63216Y-149729D01*
X62716Y-148729D02*
X63216Y-149729D01*
X62716Y-148729D02*
X63216Y-147729D01*
X62216Y-148229D02*
X63216Y-147729D01*
X61216D02*
X62216Y-148229D01*
X61216Y-147729D02*
X61716Y-148729D01*
X61216Y-149729D02*
X61716Y-148729D01*
X66416Y-153229D02*
X67416Y-152729D01*
X68416Y-153229D01*
X67916Y-152229D02*
X68416Y-153229D01*
X67916Y-152229D02*
X68416Y-151229D01*
X67416Y-151729D02*
X68416Y-151229D01*
X66416D02*
X67416Y-151729D01*
X66416Y-151229D02*
X66916Y-152229D01*
X66416Y-153229D02*
X66916Y-152229D01*
X63816Y-153229D02*
X64816Y-152729D01*
X65816Y-153229D01*
X65316Y-152229D02*
X65816Y-153229D01*
X65316Y-152229D02*
X65816Y-151229D01*
X64816Y-151729D02*
X65816Y-151229D01*
X63816D02*
X64816Y-151729D01*
X63816Y-151229D02*
X64316Y-152229D01*
X63816Y-153229D02*
X64316Y-152229D01*
X151828Y-7505D02*
X152828Y-7005D01*
X153828Y-7505D01*
X153328Y-6505D02*
X153828Y-7505D01*
X153328Y-6505D02*
X153828Y-5505D01*
X152828Y-6005D02*
X153828Y-5505D01*
X151828D02*
X152828Y-6005D01*
X151828Y-5505D02*
X152328Y-6505D01*
X151828Y-7505D02*
X152328Y-6505D01*
X163928Y-21205D02*
X164928Y-20705D01*
X165928Y-21205D01*
X165428Y-20205D02*
X165928Y-21205D01*
X165428Y-20205D02*
X165928Y-19205D01*
X164928Y-19705D02*
X165928Y-19205D01*
X163928D02*
X164928Y-19705D01*
X163928Y-19205D02*
X164428Y-20205D01*
X163928Y-21205D02*
X164428Y-20205D01*
X147256Y-22557D02*
X148256Y-22057D01*
X149256Y-22557D01*
X148756Y-21557D02*
X149256Y-22557D01*
X148756Y-21557D02*
X149256Y-20557D01*
X148256Y-21057D02*
X149256Y-20557D01*
X147256D02*
X148256Y-21057D01*
X147256Y-20557D02*
X147756Y-21557D01*
X147256Y-22557D02*
X147756Y-21557D01*
X144037Y-20026D02*
X145037Y-19526D01*
X146037Y-20026D01*
X145537Y-19026D02*
X146037Y-20026D01*
X145537Y-19026D02*
X146037Y-18026D01*
X145037Y-18526D02*
X146037Y-18026D01*
X144037D02*
X145037Y-18526D01*
X144037Y-18026D02*
X144537Y-19026D01*
X144037Y-20026D02*
X144537Y-19026D01*
X150328Y-25105D02*
X151328Y-24605D01*
X152328Y-25105D01*
X151828Y-24105D02*
X152328Y-25105D01*
X151828Y-24105D02*
X152328Y-23105D01*
X151328Y-23605D02*
X152328Y-23105D01*
X150328D02*
X151328Y-23605D01*
X150328Y-23105D02*
X150828Y-24105D01*
X150328Y-25105D02*
X150828Y-24105D01*
X144488Y-29465D02*
X145488Y-28964D01*
X146488Y-29465D01*
X145988Y-28464D02*
X146488Y-29465D01*
X145988Y-28464D02*
X146488Y-27465D01*
X145488Y-27964D02*
X146488Y-27465D01*
X144488D02*
X145488Y-27964D01*
X144488Y-27465D02*
X144988Y-28464D01*
X144488Y-29465D02*
X144988Y-28464D01*
X160383Y-16971D02*
X161383Y-16471D01*
X162383Y-16971D01*
X161883Y-15971D02*
X162383Y-16971D01*
X161883Y-15971D02*
X162383Y-14971D01*
X161383Y-15471D02*
X162383Y-14971D01*
X160383D02*
X161383Y-15471D01*
X160383Y-14971D02*
X160883Y-15971D01*
X160383Y-16971D02*
X160883Y-15971D01*
X152628Y-58105D02*
X153628Y-57605D01*
X154628Y-58105D01*
X154128Y-57105D02*
X154628Y-58105D01*
X154128Y-57105D02*
X154628Y-56105D01*
X153628Y-56605D02*
X154628Y-56105D01*
X152628D02*
X153628Y-56605D01*
X152628Y-56105D02*
X153128Y-57105D01*
X152628Y-58105D02*
X153128Y-57105D01*
X171828Y-169305D02*
X172828Y-168805D01*
X173828Y-169305D01*
X173328Y-168305D02*
X173828Y-169305D01*
X173328Y-168305D02*
X173828Y-167305D01*
X172828Y-167805D02*
X173828Y-167305D01*
X171828D02*
X172828Y-167805D01*
X171828Y-167305D02*
X172328Y-168305D01*
X171828Y-169305D02*
X172328Y-168305D01*
X97528Y-58805D02*
X98528Y-58305D01*
X99528Y-58805D01*
X99028Y-57805D02*
X99528Y-58805D01*
X99028Y-57805D02*
X99528Y-56805D01*
X98528Y-57305D02*
X99528Y-56805D01*
X97528D02*
X98528Y-57305D01*
X97528Y-56805D02*
X98028Y-57805D01*
X97528Y-58805D02*
X98028Y-57805D01*
X199508Y-87428D02*
X200508Y-86927D01*
X201508Y-87428D01*
X201008Y-86427D02*
X201508Y-87428D01*
X201008Y-86427D02*
X201508Y-85427D01*
X200508Y-85927D02*
X201508Y-85427D01*
X199508D02*
X200508Y-85927D01*
X199508Y-85427D02*
X200008Y-86427D01*
X199508Y-87428D02*
X200008Y-86427D01*
X178015Y-98263D02*
X179015Y-97763D01*
X180015Y-98263D01*
X179515Y-97263D02*
X180015Y-98263D01*
X179515Y-97263D02*
X180015Y-96263D01*
X179015Y-96763D02*
X180015Y-96263D01*
X178015D02*
X179015Y-96763D01*
X178015Y-96263D02*
X178515Y-97263D01*
X178015Y-98263D02*
X178515Y-97263D01*
X177615Y-80139D02*
X178615Y-79639D01*
X179615Y-80139D01*
X179115Y-79139D02*
X179615Y-80139D01*
X179115Y-79139D02*
X179615Y-78139D01*
X178615Y-78639D02*
X179615Y-78139D01*
X177615D02*
X178615Y-78639D01*
X177615Y-78139D02*
X178115Y-79139D01*
X177615Y-80139D02*
X178115Y-79139D01*
X32028Y-48005D02*
X33028Y-47505D01*
X34028Y-48005D01*
X33528Y-47005D02*
X34028Y-48005D01*
X33528Y-47005D02*
X34028Y-46005D01*
X33028Y-46505D02*
X34028Y-46005D01*
X32028D02*
X33028Y-46505D01*
X32028Y-46005D02*
X32528Y-47005D01*
X32028Y-48005D02*
X32528Y-47005D01*
X117582Y-12021D02*
X118582Y-11521D01*
X119582Y-12021D01*
X119082Y-11021D02*
X119582Y-12021D01*
X119082Y-11021D02*
X119582Y-10021D01*
X118582Y-10521D02*
X119582Y-10021D01*
X117582D02*
X118582Y-10521D01*
X117582Y-10021D02*
X118082Y-11021D01*
X117582Y-12021D02*
X118082Y-11021D01*
X201268Y-142599D02*
X202268Y-142099D01*
X203268Y-142599D01*
X202768Y-141599D02*
X203268Y-142599D01*
X202768Y-141599D02*
X203268Y-140599D01*
X202268Y-141099D02*
X203268Y-140599D01*
X201268D02*
X202268Y-141099D01*
X201268Y-140599D02*
X201768Y-141599D01*
X201268Y-142599D02*
X201768Y-141599D01*
X202668Y-151499D02*
X203668Y-150999D01*
X204668Y-151499D01*
X204168Y-150499D02*
X204668Y-151499D01*
X204168Y-150499D02*
X204668Y-149499D01*
X203668Y-149999D02*
X204668Y-149499D01*
X202668D02*
X203668Y-149999D01*
X202668Y-149499D02*
X203168Y-150499D01*
X202668Y-151499D02*
X203168Y-150499D01*
X208568Y-155199D02*
X209568Y-154699D01*
X210568Y-155199D01*
X210068Y-154199D02*
X210568Y-155199D01*
X210068Y-154199D02*
X210568Y-153199D01*
X209568Y-153699D02*
X210568Y-153199D01*
X208568D02*
X209568Y-153699D01*
X208568Y-153199D02*
X209068Y-154199D01*
X208568Y-155199D02*
X209068Y-154199D01*
X197568Y-147899D02*
X198568Y-147399D01*
X199568Y-147899D01*
X199068Y-146899D02*
X199568Y-147899D01*
X199068Y-146899D02*
X199568Y-145899D01*
X198568Y-146399D02*
X199568Y-145899D01*
X197568D02*
X198568Y-146399D01*
X197568Y-145899D02*
X198068Y-146899D01*
X197568Y-147899D02*
X198068Y-146899D01*
X206256Y-136115D02*
X207256Y-135615D01*
X208256Y-136115D01*
X207756Y-135115D02*
X208256Y-136115D01*
X207756Y-135115D02*
X208256Y-134115D01*
X207256Y-134615D02*
X208256Y-134115D01*
X206256D02*
X207256Y-134615D01*
X206256Y-134115D02*
X206756Y-135115D01*
X206256Y-136115D02*
X206756Y-135115D01*
X214080Y-132988D02*
X215080Y-132488D01*
X216080Y-132988D01*
X215580Y-131988D02*
X216080Y-132988D01*
X215580Y-131988D02*
X216080Y-130988D01*
X215080Y-131488D02*
X216080Y-130988D01*
X214080D02*
X215080Y-131488D01*
X214080Y-130988D02*
X214580Y-131988D01*
X214080Y-132988D02*
X214580Y-131988D01*
X220080Y-136488D02*
X221080Y-135988D01*
X222080Y-136488D01*
X221580Y-135488D02*
X222080Y-136488D01*
X221580Y-135488D02*
X222080Y-134488D01*
X221080Y-134988D02*
X222080Y-134488D01*
X220080D02*
X221080Y-134988D01*
X220080Y-134488D02*
X220580Y-135488D01*
X220080Y-136488D02*
X220580Y-135488D01*
X209180Y-130488D02*
X210180Y-129988D01*
X211180Y-130488D01*
X210680Y-129488D02*
X211180Y-130488D01*
X210680Y-129488D02*
X211180Y-128488D01*
X210180Y-128988D02*
X211180Y-128488D01*
X209180D02*
X210180Y-128988D01*
X209180Y-128488D02*
X209680Y-129488D01*
X209180Y-130488D02*
X209680Y-129488D01*
X24760Y-172461D02*
X25760Y-171961D01*
X26760Y-172461D01*
X26260Y-171461D02*
X26760Y-172461D01*
X26260Y-171461D02*
X26760Y-170461D01*
X25760Y-170961D02*
X26760Y-170461D01*
X24760D02*
X25760Y-170961D01*
X24760Y-170461D02*
X25260Y-171461D01*
X24760Y-172461D02*
X25260Y-171461D01*
X27946Y-169445D02*
X28946Y-168945D01*
X29946Y-169445D01*
X29446Y-168445D02*
X29946Y-169445D01*
X29446Y-168445D02*
X29946Y-167445D01*
X28946Y-167945D02*
X29946Y-167445D01*
X27946D02*
X28946Y-167945D01*
X27946Y-167445D02*
X28446Y-168445D01*
X27946Y-169445D02*
X28446Y-168445D01*
X118427Y-17549D02*
X119427Y-17050D01*
X120427Y-17549D01*
X119927Y-16549D02*
X120427Y-17549D01*
X119927Y-16549D02*
X120427Y-15550D01*
X119427Y-16049D02*
X120427Y-15550D01*
X118427D02*
X119427Y-16049D01*
X118427Y-15550D02*
X118927Y-16549D01*
X118427Y-17549D02*
X118927Y-16549D01*
X213866Y-151834D02*
X214866Y-151334D01*
X215866Y-151834D01*
X215366Y-150834D02*
X215866Y-151834D01*
X215366Y-150834D02*
X215866Y-149834D01*
X214866Y-150334D02*
X215866Y-149834D01*
X213866D02*
X214866Y-150334D01*
X213866Y-149834D02*
X214366Y-150834D01*
X213866Y-151834D02*
X214366Y-150834D01*
X219228Y-143505D02*
X220228Y-143005D01*
X221228Y-143505D01*
X220728Y-142505D02*
X221228Y-143505D01*
X220728Y-142505D02*
X221228Y-141505D01*
X220228Y-142005D02*
X221228Y-141505D01*
X219228D02*
X220228Y-142005D01*
X219228Y-141505D02*
X219728Y-142505D01*
X219228Y-143505D02*
X219728Y-142505D01*
X35634Y-30605D02*
X36634Y-30105D01*
X37634Y-30605D01*
X37134Y-29605D02*
X37634Y-30605D01*
X37134Y-29605D02*
X37634Y-28605D01*
X36634Y-29105D02*
X37634Y-28605D01*
X35634D02*
X36634Y-29105D01*
X35634Y-28605D02*
X36134Y-29605D01*
X35634Y-30605D02*
X36134Y-29605D01*
X112740Y6295D02*
X113740Y6795D01*
X114740Y6295D01*
X114240Y7295D02*
X114740Y6295D01*
X114240Y7295D02*
X114740Y8295D01*
X113740Y7795D02*
X114740Y8295D01*
X112740D02*
X113740Y7795D01*
X112740Y8295D02*
X113240Y7295D01*
X112740Y6295D02*
X113240Y7295D01*
X188800Y-98200D02*
X189800Y-97700D01*
X190800Y-98200D01*
X190300Y-97200D02*
X190800Y-98200D01*
X190300Y-97200D02*
X190800Y-96200D01*
X189800Y-96700D02*
X190800Y-96200D01*
X188800D02*
X189800Y-96700D01*
X188800Y-96200D02*
X189300Y-97200D01*
X188800Y-98200D02*
X189300Y-97200D01*
X175700Y-103100D02*
X176700Y-102600D01*
X177700Y-103100D01*
X177200Y-102100D02*
X177700Y-103100D01*
X177200Y-102100D02*
X177700Y-101100D01*
X176700Y-101600D02*
X177700Y-101100D01*
X175700D02*
X176700Y-101600D01*
X175700Y-101100D02*
X176200Y-102100D01*
X175700Y-103100D02*
X176200Y-102100D01*
X217168Y-62805D02*
X218168Y-62305D01*
X219168Y-62805D01*
X218668Y-61805D02*
X219168Y-62805D01*
X218668Y-61805D02*
X219168Y-60805D01*
X218168Y-61305D02*
X219168Y-60805D01*
X217168D02*
X218168Y-61305D01*
X217168Y-60805D02*
X217668Y-61805D01*
X217168Y-62805D02*
X217668Y-61805D01*
X126828Y-158905D02*
X127828Y-158405D01*
X128828Y-158905D01*
X128328Y-157905D02*
X128828Y-158905D01*
X128328Y-157905D02*
X128828Y-156905D01*
X127828Y-157405D02*
X128828Y-156905D01*
X126828D02*
X127828Y-157405D01*
X126828Y-156905D02*
X127328Y-157905D01*
X126828Y-158905D02*
X127328Y-157905D01*
X136600Y-165800D02*
X137600Y-165300D01*
X138600Y-165800D01*
X138100Y-164800D02*
X138600Y-165800D01*
X138100Y-164800D02*
X138600Y-163800D01*
X137600Y-164300D02*
X138600Y-163800D01*
X136600D02*
X137600Y-164300D01*
X136600Y-163800D02*
X137100Y-164800D01*
X136600Y-165800D02*
X137100Y-164800D01*
X136600Y-174076D02*
X137600Y-173576D01*
X138600Y-174076D01*
X138100Y-173076D02*
X138600Y-174076D01*
X138100Y-173076D02*
X138600Y-172076D01*
X137600Y-172576D02*
X138600Y-172076D01*
X136600D02*
X137600Y-172576D01*
X136600Y-172076D02*
X137100Y-173076D01*
X136600Y-174076D02*
X137100Y-173076D01*
X117928Y-142905D02*
X118928Y-142405D01*
X119928Y-142905D01*
X119428Y-141905D02*
X119928Y-142905D01*
X119428Y-141905D02*
X119928Y-140905D01*
X118928Y-141405D02*
X119928Y-140905D01*
X117928D02*
X118928Y-141405D01*
X117928Y-140905D02*
X118428Y-141905D01*
X117928Y-142905D02*
X118428Y-141905D01*
X208519Y-102075D02*
X209519Y-101575D01*
X210519Y-102075D01*
X210019Y-101075D02*
X210519Y-102075D01*
X210019Y-101075D02*
X210519Y-100075D01*
X209519Y-100575D02*
X210519Y-100075D01*
X208519D02*
X209519Y-100575D01*
X208519Y-100075D02*
X209019Y-101075D01*
X208519Y-102075D02*
X209019Y-101075D01*
X220286Y-42764D02*
X221286Y-42264D01*
X222286Y-42764D01*
X221786Y-41764D02*
X222286Y-42764D01*
X221786Y-41764D02*
X222286Y-40764D01*
X221286Y-41264D02*
X222286Y-40764D01*
X220286D02*
X221286Y-41264D01*
X220286Y-40764D02*
X220786Y-41764D01*
X220286Y-42764D02*
X220786Y-41764D01*
X206886Y-105879D02*
X207886Y-105379D01*
X208886Y-105879D01*
X208386Y-104879D02*
X208886Y-105879D01*
X208386Y-104879D02*
X208886Y-103879D01*
X207886Y-104379D02*
X208886Y-103879D01*
X206886D02*
X207886Y-104379D01*
X206886Y-103879D02*
X207386Y-104879D01*
X206886Y-105879D02*
X207386Y-104879D01*
X225328Y-85305D02*
X226328Y-84805D01*
X227328Y-85305D01*
X226828Y-84305D02*
X227328Y-85305D01*
X226828Y-84305D02*
X227328Y-83305D01*
X226328Y-83805D02*
X227328Y-83305D01*
X225328D02*
X226328Y-83805D01*
X225328Y-83305D02*
X225828Y-84305D01*
X225328Y-85305D02*
X225828Y-84305D01*
X136600Y-177480D02*
X137600Y-176980D01*
X138600Y-177480D01*
X138100Y-176480D02*
X138600Y-177480D01*
X138100Y-176480D02*
X138600Y-175480D01*
X137600Y-175980D02*
X138600Y-175480D01*
X136600D02*
X137600Y-175980D01*
X136600Y-175480D02*
X137100Y-176480D01*
X136600Y-177480D02*
X137100Y-176480D01*
X136600Y-169404D02*
X137600Y-168904D01*
X138600Y-169404D01*
X138100Y-168404D02*
X138600Y-169404D01*
X138100Y-168404D02*
X138600Y-167404D01*
X137600Y-167904D02*
X138600Y-167404D01*
X136600D02*
X137600Y-167904D01*
X136600Y-167404D02*
X137100Y-168404D01*
X136600Y-169404D02*
X137100Y-168404D01*
X193204Y-157384D02*
X194204Y-156884D01*
X195204Y-157384D01*
X194704Y-156384D02*
X195204Y-157384D01*
X194704Y-156384D02*
X195204Y-155384D01*
X194204Y-155884D02*
X195204Y-155384D01*
X193204D02*
X194204Y-155884D01*
X193204Y-155384D02*
X193704Y-156384D01*
X193204Y-157384D02*
X193704Y-156384D01*
X213237Y-2687D02*
X214237Y-2187D01*
X215237Y-2687D01*
X214737Y-1687D02*
X215237Y-2687D01*
X214737Y-1687D02*
X215237Y-687D01*
X214237Y-1187D02*
X215237Y-687D01*
X213237D02*
X214237Y-1187D01*
X213237Y-687D02*
X213737Y-1687D01*
X213237Y-2687D02*
X213737Y-1687D01*
X31126Y-160605D02*
X32126Y-160105D01*
X33126Y-160605D01*
X32626Y-159605D02*
X33126Y-160605D01*
X32626Y-159605D02*
X33126Y-158605D01*
X32126Y-159105D02*
X33126Y-158605D01*
X31126D02*
X32126Y-159105D01*
X31126Y-158605D02*
X31626Y-159605D01*
X31126Y-160605D02*
X31626Y-159605D01*
X47298Y-122755D02*
X48298Y-122255D01*
X49298Y-122755D01*
X48798Y-121755D02*
X49298Y-122755D01*
X48798Y-121755D02*
X49298Y-120755D01*
X48298Y-121255D02*
X49298Y-120755D01*
X47298D02*
X48298Y-121255D01*
X47298Y-120755D02*
X47798Y-121755D01*
X47298Y-122755D02*
X47798Y-121755D01*
X43031Y-146229D02*
X44031Y-145729D01*
X45031Y-146229D01*
X44531Y-145229D02*
X45031Y-146229D01*
X44531Y-145229D02*
X45031Y-144229D01*
X44031Y-144729D02*
X45031Y-144229D01*
X43031D02*
X44031Y-144729D01*
X43031Y-144229D02*
X43531Y-145229D01*
X43031Y-146229D02*
X43531Y-145229D01*
X43031Y-149729D02*
X44031Y-149229D01*
X45031Y-149729D01*
X44531Y-148729D02*
X45031Y-149729D01*
X44531Y-148729D02*
X45031Y-147729D01*
X44031Y-148229D02*
X45031Y-147729D01*
X43031D02*
X44031Y-148229D01*
X43031Y-147729D02*
X43531Y-148729D01*
X43031Y-149729D02*
X43531Y-148729D01*
X40150Y-141362D02*
X41150Y-140862D01*
X42150Y-141362D01*
X41650Y-140362D02*
X42150Y-141362D01*
X41650Y-140362D02*
X42150Y-139362D01*
X41150Y-139862D02*
X42150Y-139362D01*
X40150D02*
X41150Y-139862D01*
X40150Y-139362D02*
X40650Y-140362D01*
X40150Y-141362D02*
X40650Y-140362D01*
X49473Y-131244D02*
X50473Y-130744D01*
X51473Y-131244D01*
X50973Y-130244D02*
X51473Y-131244D01*
X50973Y-130244D02*
X51473Y-129244D01*
X50473Y-129744D02*
X51473Y-129244D01*
X49473D02*
X50473Y-129744D01*
X49473Y-129244D02*
X49973Y-130244D01*
X49473Y-131244D02*
X49973Y-130244D01*
X54384Y-127504D02*
X55384Y-127004D01*
X56384Y-127504D01*
X55884Y-126504D02*
X56384Y-127504D01*
X55884Y-126504D02*
X56384Y-125504D01*
X55384Y-126004D02*
X56384Y-125504D01*
X54384D02*
X55384Y-126004D01*
X54384Y-125504D02*
X54884Y-126504D01*
X54384Y-127504D02*
X54884Y-126504D01*
X109228Y-128755D02*
X110228Y-128255D01*
X111228Y-128755D01*
X110728Y-127755D02*
X111228Y-128755D01*
X110728Y-127755D02*
X111228Y-126755D01*
X110228Y-127255D02*
X111228Y-126755D01*
X109228D02*
X110228Y-127255D01*
X109228Y-126755D02*
X109728Y-127755D01*
X109228Y-128755D02*
X109728Y-127755D01*
X105100Y-55500D02*
X106100Y-55000D01*
X107100Y-55500D01*
X106600Y-54500D02*
X107100Y-55500D01*
X106600Y-54500D02*
X107100Y-53500D01*
X106100Y-54000D02*
X107100Y-53500D01*
X105100D02*
X106100Y-54000D01*
X105100Y-53500D02*
X105600Y-54500D01*
X105100Y-55500D02*
X105600Y-54500D01*
X100900Y-64685D02*
X101900Y-64185D01*
X102900Y-64685D01*
X102400Y-63685D02*
X102900Y-64685D01*
X102400Y-63685D02*
X102900Y-62685D01*
X101900Y-63185D02*
X102900Y-62685D01*
X100900D02*
X101900Y-63185D01*
X100900Y-62685D02*
X101400Y-63685D01*
X100900Y-64685D02*
X101400Y-63685D01*
X105817Y-81881D02*
X106817Y-81381D01*
X107817Y-81881D01*
X107317Y-80881D02*
X107817Y-81881D01*
X107317Y-80881D02*
X107817Y-79881D01*
X106817Y-80381D02*
X107817Y-79881D01*
X105817D02*
X106817Y-80381D01*
X105817Y-79881D02*
X106317Y-80881D01*
X105817Y-81881D02*
X106317Y-80881D01*
X117800Y-55500D02*
X118800Y-55000D01*
X119800Y-55500D01*
X119300Y-54500D02*
X119800Y-55500D01*
X119300Y-54500D02*
X119800Y-53500D01*
X118800Y-54000D02*
X119800Y-53500D01*
X117800D02*
X118800Y-54000D01*
X117800Y-53500D02*
X118300Y-54500D01*
X117800Y-55500D02*
X118300Y-54500D01*
X149205Y-82095D02*
X150205Y-81595D01*
X151205Y-82095D01*
X150705Y-81095D02*
X151205Y-82095D01*
X150705Y-81095D02*
X151205Y-80095D01*
X150205Y-80595D02*
X151205Y-80095D01*
X149205D02*
X150205Y-80595D01*
X149205Y-80095D02*
X149705Y-81095D01*
X149205Y-82095D02*
X149705Y-81095D01*
X152500Y-92900D02*
X153500Y-92400D01*
X154500Y-92900D01*
X154000Y-91900D02*
X154500Y-92900D01*
X154000Y-91900D02*
X154500Y-90900D01*
X153500Y-91400D02*
X154500Y-90900D01*
X152500D02*
X153500Y-91400D01*
X152500Y-90900D02*
X153000Y-91900D01*
X152500Y-92900D02*
X153000Y-91900D01*
X159400Y-83300D02*
X160400Y-82800D01*
X161400Y-83300D01*
X160900Y-82300D02*
X161400Y-83300D01*
X160900Y-82300D02*
X161400Y-81300D01*
X160400Y-81800D02*
X161400Y-81300D01*
X159400D02*
X160400Y-81800D01*
X159400Y-81300D02*
X159900Y-82300D01*
X159400Y-83300D02*
X159900Y-82300D01*
X189629Y-121763D02*
X190629Y-121263D01*
X191629Y-121763D01*
X191129Y-120763D02*
X191629Y-121763D01*
X191129Y-120763D02*
X191629Y-119763D01*
X190629Y-120263D02*
X191629Y-119763D01*
X189629D02*
X190629Y-120263D01*
X189629Y-119763D02*
X190129Y-120763D01*
X189629Y-121763D02*
X190129Y-120763D01*
X192428Y-123616D02*
X193428Y-123116D01*
X194428Y-123616D01*
X193928Y-122616D02*
X194428Y-123616D01*
X193928Y-122616D02*
X194428Y-121616D01*
X193428Y-122116D02*
X194428Y-121616D01*
X192428D02*
X193428Y-122116D01*
X192428Y-121616D02*
X192928Y-122616D01*
X192428Y-123616D02*
X192928Y-122616D01*
X158216Y-119205D02*
X159216Y-118705D01*
X160216Y-119205D01*
X159716Y-118205D02*
X160216Y-119205D01*
X159716Y-118205D02*
X160216Y-117205D01*
X159216Y-117705D02*
X160216Y-117205D01*
X158216D02*
X159216Y-117705D01*
X158216Y-117205D02*
X158716Y-118205D01*
X158216Y-119205D02*
X158716Y-118205D01*
X158216Y-114705D02*
X159216Y-114205D01*
X160216Y-114705D01*
X159716Y-113705D02*
X160216Y-114705D01*
X159716Y-113705D02*
X160216Y-112705D01*
X159216Y-113205D02*
X160216Y-112705D01*
X158216D02*
X159216Y-113205D01*
X158216Y-112705D02*
X158716Y-113705D01*
X158216Y-114705D02*
X158716Y-113705D01*
X169428Y-117505D02*
X170428Y-117005D01*
X171428Y-117505D01*
X170928Y-116505D02*
X171428Y-117505D01*
X170928Y-116505D02*
X171428Y-115505D01*
X170428Y-116005D02*
X171428Y-115505D01*
X169428D02*
X170428Y-116005D01*
X169428Y-115505D02*
X169928Y-116505D01*
X169428Y-117505D02*
X169928Y-116505D01*
X173828Y-74105D02*
X174828Y-73605D01*
X175828Y-74105D01*
X175328Y-73105D02*
X175828Y-74105D01*
X175328Y-73105D02*
X175828Y-72105D01*
X174828Y-72605D02*
X175828Y-72105D01*
X173828D02*
X174828Y-72605D01*
X173828Y-72105D02*
X174328Y-73105D01*
X173828Y-74105D02*
X174328Y-73105D01*
X173428Y-78505D02*
X174428Y-78005D01*
X175428Y-78505D01*
X174928Y-77505D02*
X175428Y-78505D01*
X174928Y-77505D02*
X175428Y-76505D01*
X174428Y-77005D02*
X175428Y-76505D01*
X173428D02*
X174428Y-77005D01*
X173428Y-76505D02*
X173928Y-77505D01*
X173428Y-78505D02*
X173928Y-77505D01*
X173628Y-83288D02*
X174628Y-82788D01*
X175628Y-83288D01*
X175128Y-82288D02*
X175628Y-83288D01*
X175128Y-82288D02*
X175628Y-81288D01*
X174628Y-81788D02*
X175628Y-81288D01*
X173628D02*
X174628Y-81788D01*
X173628Y-81288D02*
X174128Y-82288D01*
X173628Y-83288D02*
X174128Y-82288D01*
X36928Y-154894D02*
X37928Y-154394D01*
X38928Y-154894D01*
X38428Y-153894D02*
X38928Y-154894D01*
X38428Y-153894D02*
X38928Y-152894D01*
X37928Y-153394D02*
X38928Y-152894D01*
X36928D02*
X37928Y-153394D01*
X36928Y-152894D02*
X37428Y-153894D01*
X36928Y-154894D02*
X37428Y-153894D01*
X57104Y-100300D02*
X58104Y-99800D01*
X59105Y-100300D01*
X58605Y-99300D02*
X59105Y-100300D01*
X58605Y-99300D02*
X59105Y-98300D01*
X58104Y-98800D02*
X59105Y-98300D01*
X57104D02*
X58104Y-98800D01*
X57104Y-98300D02*
X57604Y-99300D01*
X57104Y-100300D02*
X57604Y-99300D01*
X148300Y-146705D02*
X149300Y-146205D01*
X150300Y-146705D01*
X149800Y-145705D02*
X150300Y-146705D01*
X149800Y-145705D02*
X150300Y-144705D01*
X149300Y-145205D02*
X150300Y-144705D01*
X148300D02*
X149300Y-145205D01*
X148300Y-144705D02*
X148800Y-145705D01*
X148300Y-146705D02*
X148800Y-145705D01*
X122164Y-132605D02*
X123164Y-132105D01*
X124164Y-132605D01*
X123664Y-131605D02*
X124164Y-132605D01*
X123664Y-131605D02*
X124164Y-130605D01*
X123164Y-131105D02*
X124164Y-130605D01*
X122164D02*
X123164Y-131105D01*
X122164Y-130605D02*
X122664Y-131605D01*
X122164Y-132605D02*
X122664Y-131605D01*
X144416Y-114000D02*
X145416Y-113500D01*
X146416Y-114000D01*
X145916Y-113000D02*
X146416Y-114000D01*
X145916Y-113000D02*
X146416Y-112000D01*
X145416Y-112500D02*
X146416Y-112000D01*
X144416D02*
X145416Y-112500D01*
X144416Y-112000D02*
X144916Y-113000D01*
X144416Y-114000D02*
X144916Y-113000D01*
X133692Y-84205D02*
X134692Y-83705D01*
X135692Y-84205D01*
X135192Y-83205D02*
X135692Y-84205D01*
X135192Y-83205D02*
X135692Y-82205D01*
X134692Y-82705D02*
X135692Y-82205D01*
X133692D02*
X134692Y-82705D01*
X133692Y-82205D02*
X134192Y-83205D01*
X133692Y-84205D02*
X134192Y-83205D01*
X124300Y-69900D02*
X125300Y-69400D01*
X126300Y-69900D01*
X125800Y-68900D02*
X126300Y-69900D01*
X125800Y-68900D02*
X126300Y-67900D01*
X125300Y-68400D02*
X126300Y-67900D01*
X124300D02*
X125300Y-68400D01*
X124300Y-67900D02*
X124800Y-68900D01*
X124300Y-69900D02*
X124800Y-68900D01*
X155600Y-18200D02*
X156600Y-17700D01*
X157600Y-18200D01*
X157100Y-17200D02*
X157600Y-18200D01*
X157100Y-17200D02*
X157600Y-16200D01*
X156600Y-16700D02*
X157600Y-16200D01*
X155600D02*
X156600Y-16700D01*
X155600Y-16200D02*
X156100Y-17200D01*
X155600Y-18200D02*
X156100Y-17200D01*
X105817Y-73231D02*
X106817Y-72731D01*
X107817Y-73231D01*
X107317Y-72231D02*
X107817Y-73231D01*
X107317Y-72231D02*
X107817Y-71231D01*
X106817Y-71731D02*
X107817Y-71231D01*
X105817D02*
X106817Y-71731D01*
X105817Y-71231D02*
X106317Y-72231D01*
X105817Y-73231D02*
X106317Y-72231D01*
X72058Y-66677D02*
X73058Y-66177D01*
X74058Y-66677D01*
X73558Y-65677D02*
X74058Y-66677D01*
X73558Y-65677D02*
X74058Y-64677D01*
X73058Y-65177D02*
X74058Y-64677D01*
X72058D02*
X73058Y-65177D01*
X72058Y-64677D02*
X72558Y-65677D01*
X72058Y-66677D02*
X72558Y-65677D01*
X99874Y-123049D02*
X100874Y-122549D01*
X101874Y-123049D01*
X101374Y-122049D02*
X101874Y-123049D01*
X101374Y-122049D02*
X101874Y-121049D01*
X100874Y-121549D02*
X101874Y-121049D01*
X99874D02*
X100874Y-121549D01*
X99874Y-121049D02*
X100374Y-122049D01*
X99874Y-123049D02*
X100374Y-122049D01*
X82034Y-69601D02*
X83034Y-69101D01*
X84034Y-69601D01*
X83534Y-68601D02*
X84034Y-69601D01*
X83534Y-68601D02*
X84034Y-67601D01*
X83034Y-68101D02*
X84034Y-67601D01*
X82034D02*
X83034Y-68101D01*
X82034Y-67601D02*
X82534Y-68601D01*
X82034Y-69601D02*
X82534Y-68601D01*
X77034Y-69601D02*
X78034Y-69101D01*
X79034Y-69601D01*
X78534Y-68601D02*
X79034Y-69601D01*
X78534Y-68601D02*
X79034Y-67601D01*
X78034Y-68101D02*
X79034Y-67601D01*
X77034D02*
X78034Y-68101D01*
X77034Y-67601D02*
X77534Y-68601D01*
X77034Y-69601D02*
X77534Y-68601D01*
X86806Y-99685D02*
X87806Y-99185D01*
X88806Y-99685D01*
X88306Y-98685D02*
X88806Y-99685D01*
X88306Y-98685D02*
X88806Y-97685D01*
X87806Y-98185D02*
X88806Y-97685D01*
X86806D02*
X87806Y-98185D01*
X86806Y-97685D02*
X87306Y-98685D01*
X86806Y-99685D02*
X87306Y-98685D01*
X52500Y-55700D02*
X53500Y-55200D01*
X54500Y-55700D01*
X54000Y-54700D02*
X54500Y-55700D01*
X54000Y-54700D02*
X54500Y-53700D01*
X53500Y-54200D02*
X54500Y-53700D01*
X52500D02*
X53500Y-54200D01*
X52500Y-53700D02*
X53000Y-54700D01*
X52500Y-55700D02*
X53000Y-54700D01*
X52500Y-59600D02*
X53500Y-59100D01*
X54500Y-59600D01*
X54000Y-58600D02*
X54500Y-59600D01*
X54000Y-58600D02*
X54500Y-57600D01*
X53500Y-58100D02*
X54500Y-57600D01*
X52500D02*
X53500Y-58100D01*
X52500Y-57600D02*
X53000Y-58600D01*
X52500Y-59600D02*
X53000Y-58600D01*
X70500Y-62800D02*
X71500Y-62300D01*
X72500Y-62800D01*
X72000Y-61800D02*
X72500Y-62800D01*
X72000Y-61800D02*
X72500Y-60800D01*
X71500Y-61300D02*
X72500Y-60800D01*
X70500D02*
X71500Y-61300D01*
X70500Y-60800D02*
X71000Y-61800D01*
X70500Y-62800D02*
X71000Y-61800D01*
X63300Y-100300D02*
X64300Y-99800D01*
X65300Y-100300D01*
X64800Y-99300D02*
X65300Y-100300D01*
X64800Y-99300D02*
X65300Y-98300D01*
X64300Y-98800D02*
X65300Y-98300D01*
X63300D02*
X64300Y-98800D01*
X63300Y-98300D02*
X63800Y-99300D01*
X63300Y-100300D02*
X63800Y-99300D01*
X62300Y-59600D02*
X63300Y-59100D01*
X64300Y-59600D01*
X63800Y-58600D02*
X64300Y-59600D01*
X63800Y-58600D02*
X64300Y-57600D01*
X63300Y-58100D02*
X64300Y-57600D01*
X62300D02*
X63300Y-58100D01*
X62300Y-57600D02*
X62800Y-58600D01*
X62300Y-59600D02*
X62800Y-58600D01*
X128028Y-30077D02*
X129028Y-29577D01*
X130028Y-30077D01*
X129528Y-29077D02*
X130028Y-30077D01*
X129528Y-29077D02*
X130028Y-28077D01*
X129028Y-28577D02*
X130028Y-28077D01*
X128028D02*
X129028Y-28577D01*
X128028Y-28077D02*
X128528Y-29077D01*
X128028Y-30077D02*
X128528Y-29077D01*
X83500Y-189100D02*
X84500Y-188600D01*
X85500Y-189100D01*
X85000Y-188100D02*
X85500Y-189100D01*
X85000Y-188100D02*
X85500Y-187100D01*
X84500Y-187600D02*
X85500Y-187100D01*
X83500D02*
X84500Y-187600D01*
X83500Y-187100D02*
X84000Y-188100D01*
X83500Y-189100D02*
X84000Y-188100D01*
X147200Y-195076D02*
X148200Y-194576D01*
X149200Y-195076D01*
X148700Y-194076D02*
X149200Y-195076D01*
X148700Y-194076D02*
X149200Y-193076D01*
X148200Y-193576D02*
X149200Y-193076D01*
X147200D02*
X148200Y-193576D01*
X147200Y-193076D02*
X147700Y-194076D01*
X147200Y-195076D02*
X147700Y-194076D01*
X118866Y-174132D02*
X119866Y-173632D01*
X120866Y-174132D01*
X120366Y-173132D02*
X120866Y-174132D01*
X120366Y-173132D02*
X120866Y-172132D01*
X119866Y-172632D02*
X120866Y-172132D01*
X118866D02*
X119866Y-172632D01*
X118866Y-172132D02*
X119366Y-173132D01*
X118866Y-174132D02*
X119366Y-173132D01*
X92428Y-170205D02*
X93428Y-169705D01*
X94428Y-170205D01*
X93928Y-169205D02*
X94428Y-170205D01*
X93928Y-169205D02*
X94428Y-168205D01*
X93428Y-168705D02*
X94428Y-168205D01*
X92428D02*
X93428Y-168705D01*
X92428Y-168205D02*
X92928Y-169205D01*
X92428Y-170205D02*
X92928Y-169205D01*
X121048Y-180305D02*
X122048Y-179805D01*
X123048Y-180305D01*
X122548Y-179305D02*
X123048Y-180305D01*
X122548Y-179305D02*
X123048Y-178305D01*
X122048Y-178805D02*
X123048Y-178305D01*
X121048D02*
X122048Y-178805D01*
X121048Y-178305D02*
X121548Y-179305D01*
X121048Y-180305D02*
X121548Y-179305D01*
X85751Y-183449D02*
X86752Y-182949D01*
X87752Y-183449D01*
X87252Y-182448D02*
X87752Y-183449D01*
X87252Y-182448D02*
X87752Y-181448D01*
X86752Y-181948D02*
X87752Y-181448D01*
X85751D02*
X86752Y-181948D01*
X85751Y-181448D02*
X86251Y-182448D01*
X85751Y-183449D02*
X86251Y-182448D01*
X40128Y-75779D02*
X41128Y-75279D01*
X42128Y-75779D01*
X41628Y-74779D02*
X42128Y-75779D01*
X41628Y-74779D02*
X42128Y-73779D01*
X41128Y-74279D02*
X42128Y-73779D01*
X40128D02*
X41128Y-74279D01*
X40128Y-73779D02*
X40628Y-74779D01*
X40128Y-75779D02*
X40628Y-74779D01*
X80628Y-30605D02*
X81628Y-30105D01*
X82628Y-30605D01*
X82128Y-29605D02*
X82628Y-30605D01*
X82128Y-29605D02*
X82628Y-28605D01*
X81628Y-29105D02*
X82628Y-28605D01*
X80628D02*
X81628Y-29105D01*
X80628Y-28605D02*
X81128Y-29605D01*
X80628Y-30605D02*
X81128Y-29605D01*
X96300Y-148100D02*
X97300Y-147600D01*
X98300Y-148100D01*
X97800Y-147100D02*
X98300Y-148100D01*
X97800Y-147100D02*
X98300Y-146100D01*
X97300Y-146600D02*
X98300Y-146100D01*
X96300D02*
X97300Y-146600D01*
X96300Y-146100D02*
X96800Y-147100D01*
X96300Y-148100D02*
X96800Y-147100D01*
X50800Y-160700D02*
X51800Y-160200D01*
X52800Y-160700D01*
X52300Y-159700D02*
X52800Y-160700D01*
X52300Y-159700D02*
X52800Y-158700D01*
X51800Y-159200D02*
X52800Y-158700D01*
X50800D02*
X51800Y-159200D01*
X50800Y-158700D02*
X51300Y-159700D01*
X50800Y-160700D02*
X51300Y-159700D01*
X100000Y-157700D02*
X101000Y-157200D01*
X102000Y-157700D01*
X101500Y-156700D02*
X102000Y-157700D01*
X101500Y-156700D02*
X102000Y-155700D01*
X101000Y-156200D02*
X102000Y-155700D01*
X100000D02*
X101000Y-156200D01*
X100000Y-155700D02*
X100500Y-156700D01*
X100000Y-157700D02*
X100500Y-156700D01*
X84800Y-156400D02*
X85800Y-155900D01*
X86800Y-156400D01*
X86300Y-155400D02*
X86800Y-156400D01*
X86300Y-155400D02*
X86800Y-154400D01*
X85800Y-154900D02*
X86800Y-154400D01*
X84800D02*
X85800Y-154900D01*
X84800Y-154400D02*
X85300Y-155400D01*
X84800Y-156400D02*
X85300Y-155400D01*
X94300Y-164400D02*
X95300Y-163900D01*
X96300Y-164400D01*
X95800Y-163400D02*
X96300Y-164400D01*
X95800Y-163400D02*
X96300Y-162400D01*
X95300Y-162900D02*
X96300Y-162400D01*
X94300D02*
X95300Y-162900D01*
X94300Y-162400D02*
X94800Y-163400D01*
X94300Y-164400D02*
X94800Y-163400D01*
X90128Y-164400D02*
X91128Y-163900D01*
X92128Y-164400D01*
X91628Y-163400D02*
X92128Y-164400D01*
X91628Y-163400D02*
X92128Y-162400D01*
X91128Y-162900D02*
X92128Y-162400D01*
X90128D02*
X91128Y-162900D01*
X90128Y-162400D02*
X90628Y-163400D01*
X90128Y-164400D02*
X90628Y-163400D01*
X94300Y-161918D02*
X95300Y-161418D01*
X96300Y-161918D01*
X95800Y-160918D02*
X96300Y-161918D01*
X95800Y-160918D02*
X96300Y-159918D01*
X95300Y-160418D02*
X96300Y-159918D01*
X94300D02*
X95300Y-160418D01*
X94300Y-159918D02*
X94800Y-160918D01*
X94300Y-161918D02*
X94800Y-160918D01*
X140041Y-117805D02*
X141041Y-117305D01*
X142041Y-117805D01*
X141541Y-116805D02*
X142041Y-117805D01*
X141541Y-116805D02*
X142041Y-115805D01*
X141041Y-116305D02*
X142041Y-115805D01*
X140041D02*
X141041Y-116305D01*
X140041Y-115805D02*
X140541Y-116805D01*
X140041Y-117805D02*
X140541Y-116805D01*
X125128Y-114640D02*
X126128Y-114140D01*
X127128Y-114640D01*
X126628Y-113640D02*
X127128Y-114640D01*
X126628Y-113640D02*
X127128Y-112640D01*
X126128Y-113140D02*
X127128Y-112640D01*
X125128D02*
X126128Y-113140D01*
X125128Y-112640D02*
X125628Y-113640D01*
X125128Y-114640D02*
X125628Y-113640D01*
X227135Y-31510D02*
X228135Y-32510D01*
X229135Y-31510D01*
X228135Y-30510D02*
X229135Y-31510D01*
X227135D02*
X228135Y-30510D01*
X223228Y-22305D02*
X224228Y-23305D01*
X225228Y-22305D01*
X224228Y-21305D02*
X225228Y-22305D01*
X223228D02*
X224228Y-21305D01*
X62028Y-14419D02*
X64028D01*
Y-12419D01*
X62028D02*
X64028D01*
X62028Y-14419D02*
Y-12419D01*
X208348Y-148532D02*
X209348Y-146532D01*
X207347D02*
X209348D01*
X207347D02*
X208348Y-148532D01*
X213708Y-140277D02*
X214708Y-138277D01*
X212708D02*
X214708D01*
X212708D02*
X213708Y-140277D01*
X211700Y-90200D02*
X213700D01*
Y-88200D01*
X211700D02*
X213700D01*
X211700Y-90200D02*
Y-88200D01*
X149700Y-166900D02*
X151700D01*
Y-164900D01*
X149700D02*
X151700D01*
X149700Y-166900D02*
Y-164900D01*
X125877Y-188536D02*
X126477Y-187336D01*
X125277D02*
X126477D01*
X125277D02*
X125877Y-188536D01*
Y-188936D02*
X126877Y-186936D01*
X124877D02*
X126877D01*
X124877D02*
X125877Y-188936D01*
X125577Y-204693D02*
X125877Y-204993D01*
X125277Y-204693D02*
X125577D01*
X125277D02*
X125577Y-204393D01*
X125277Y-204093D02*
X125577Y-204393D01*
X125277Y-204093D02*
X125577D01*
X125877Y-203793D01*
X126177Y-204093D01*
X126477D01*
X126177Y-204393D02*
X126477Y-204093D01*
X126177Y-204393D02*
X126477Y-204693D01*
X126177D02*
X126477D01*
X125877Y-204993D02*
X126177Y-204693D01*
X125377Y-204893D02*
X125877Y-205393D01*
X124877Y-204893D02*
X125377D01*
X124877D02*
X125377Y-204393D01*
X124877Y-203893D02*
X125377Y-204393D01*
X124877Y-203893D02*
X125377D01*
X125877Y-203393D01*
X126377Y-203893D01*
X126877D01*
X126377Y-204393D02*
X126877Y-203893D01*
X126377Y-204393D02*
X126877Y-204893D01*
X126377D02*
X126877D01*
X125877Y-205393D02*
X126377Y-204893D01*
X91522Y-204693D02*
X91822Y-204993D01*
X91222Y-204693D02*
X91522D01*
X91222D02*
X91522Y-204393D01*
X91222Y-204093D02*
X91522Y-204393D01*
X91222Y-204093D02*
X91522D01*
X91822Y-203793D01*
X92122Y-204093D01*
X92422D01*
X92122Y-204393D02*
X92422Y-204093D01*
X92122Y-204393D02*
X92422Y-204693D01*
X92122D02*
X92422D01*
X91822Y-204993D02*
X92122Y-204693D01*
X91322Y-204893D02*
X91822Y-205393D01*
X90822Y-204893D02*
X91322D01*
X90822D02*
X91322Y-204393D01*
X90822Y-203893D02*
X91322Y-204393D01*
X90822Y-203893D02*
X91322D01*
X91822Y-203393D01*
X92322Y-203893D01*
X92822D01*
X92322Y-204393D02*
X92822Y-203893D01*
X92322Y-204393D02*
X92822Y-204893D01*
X92322D02*
X92822D01*
X91822Y-205393D02*
X92322Y-204893D01*
X91822Y-188536D02*
X92422Y-187336D01*
X91222D02*
X92422D01*
X91222D02*
X91822Y-188536D01*
Y-188936D02*
X92822Y-186936D01*
X90822D02*
X92822D01*
X90822D02*
X91822Y-188936D01*
X52428Y-84882D02*
X53428Y-84382D01*
X54428Y-84882D01*
X53928Y-83882D02*
X54428Y-84882D01*
X53928Y-83882D02*
X54428Y-82882D01*
X53428Y-83382D02*
X54428Y-82882D01*
X52428D02*
X53428Y-83382D01*
X52428Y-82882D02*
X52928Y-83882D01*
X52428Y-84882D02*
X52928Y-83882D01*
X46916Y-84882D02*
X47916Y-84382D01*
X48916Y-84882D01*
X48416Y-83882D02*
X48916Y-84882D01*
X48416Y-83882D02*
X48916Y-82882D01*
X47916Y-83382D02*
X48916Y-82882D01*
X46916D02*
X47916Y-83382D01*
X46916Y-82882D02*
X47416Y-83882D01*
X46916Y-84882D02*
X47416Y-83882D01*
X49672Y-87638D02*
X50672Y-87138D01*
X51672Y-87638D01*
X51172Y-86638D02*
X51672Y-87638D01*
X51172Y-86638D02*
X51672Y-85638D01*
X50672Y-86138D02*
X51672Y-85638D01*
X49672D02*
X50672Y-86138D01*
X49672Y-85638D02*
X50172Y-86638D01*
X49672Y-87638D02*
X50172Y-86638D01*
X55184Y-87638D02*
X56184Y-87138D01*
X57184Y-87638D01*
X56684Y-86638D02*
X57184Y-87638D01*
X56684Y-86638D02*
X57184Y-85638D01*
X56184Y-86138D02*
X57184Y-85638D01*
X55184D02*
X56184Y-86138D01*
X55184Y-85638D02*
X55684Y-86638D01*
X55184Y-87638D02*
X55684Y-86638D01*
X57940Y-84882D02*
X58940Y-84382D01*
X59940Y-84882D01*
X59440Y-83882D02*
X59940Y-84882D01*
X59440Y-83882D02*
X59940Y-82882D01*
X58940Y-83382D02*
X59940Y-82882D01*
X57940D02*
X58940Y-83382D01*
X57940Y-82882D02*
X58440Y-83882D01*
X57940Y-84882D02*
X58440Y-83882D01*
X57940Y-79370D02*
X58940Y-78870D01*
X59940Y-79370D01*
X59440Y-78370D02*
X59940Y-79370D01*
X59440Y-78370D02*
X59940Y-77370D01*
X58940Y-77870D02*
X59940Y-77370D01*
X57940D02*
X58940Y-77870D01*
X57940Y-77370D02*
X58440Y-78370D01*
X57940Y-79370D02*
X58440Y-78370D01*
X55184Y-82126D02*
X56184Y-81626D01*
X57184Y-82126D01*
X56684Y-81126D02*
X57184Y-82126D01*
X56684Y-81126D02*
X57184Y-80126D01*
X56184Y-80626D02*
X57184Y-80126D01*
X55184D02*
X56184Y-80626D01*
X55184Y-80126D02*
X55684Y-81126D01*
X55184Y-82126D02*
X55684Y-81126D01*
X52428Y-79370D02*
X53428Y-78870D01*
X54428Y-79370D01*
X53928Y-78370D02*
X54428Y-79370D01*
X53928Y-78370D02*
X54428Y-77370D01*
X53428Y-77870D02*
X54428Y-77370D01*
X52428D02*
X53428Y-77870D01*
X52428Y-77370D02*
X52928Y-78370D01*
X52428Y-79370D02*
X52928Y-78370D01*
X49672Y-82126D02*
X50672Y-81626D01*
X51672Y-82126D01*
X51172Y-81126D02*
X51672Y-82126D01*
X51172Y-81126D02*
X51672Y-80126D01*
X50672Y-80626D02*
X51672Y-80126D01*
X49672D02*
X50672Y-80626D01*
X49672Y-80126D02*
X50172Y-81126D01*
X49672Y-82126D02*
X50172Y-81126D01*
X55184Y-76614D02*
X56184Y-76114D01*
X57184Y-76614D01*
X56684Y-75614D02*
X57184Y-76614D01*
X56684Y-75614D02*
X57184Y-74614D01*
X56184Y-75114D02*
X57184Y-74614D01*
X55184D02*
X56184Y-75114D01*
X55184Y-74614D02*
X55684Y-75614D01*
X55184Y-76614D02*
X55684Y-75614D01*
X49672Y-76614D02*
X50672Y-76114D01*
X51672Y-76614D01*
X51172Y-75614D02*
X51672Y-76614D01*
X51172Y-75614D02*
X51672Y-74614D01*
X50672Y-75114D02*
X51672Y-74614D01*
X49672D02*
X50672Y-75114D01*
X49672Y-74614D02*
X50172Y-75614D01*
X49672Y-76614D02*
X50172Y-75614D01*
X46916Y-79370D02*
X47916Y-78870D01*
X48916Y-79370D01*
X48416Y-78370D02*
X48916Y-79370D01*
X48416Y-78370D02*
X48916Y-77370D01*
X47916Y-77870D02*
X48916Y-77370D01*
X46916D02*
X47916Y-77870D01*
X46916Y-77370D02*
X47416Y-78370D01*
X46916Y-79370D02*
X47416Y-78370D01*
X171455Y21009D02*
X172455Y20009D01*
X173455Y21009D01*
X172455Y22009D02*
X173455Y21009D01*
X171455D02*
X172455Y22009D01*
X194242Y13898D02*
X195242Y15898D01*
X193242D02*
X195242D01*
X193242D02*
X194242Y13898D01*
X174145Y29097D02*
X175145Y31097D01*
X173145D02*
X175145D01*
X173145D02*
X174145Y29097D01*
X184958Y10797D02*
X185958Y9797D01*
X186958Y10797D01*
X185958Y11797D02*
X186958Y10797D01*
X184958D02*
X185958Y11797D01*
X124661Y38916D02*
X125661Y37916D01*
X126661Y38916D01*
X125661Y39916D02*
X126661Y38916D01*
X124661D02*
X125661Y39916D01*
X147983Y41624D02*
X148983Y43624D01*
X146983D02*
X148983D01*
X146983D02*
X147983Y41624D01*
X123336Y46863D02*
X124336Y48863D01*
X122336D02*
X124336D01*
X122336D02*
X123336Y46863D01*
X141220Y35397D02*
X142220Y34397D01*
X143220Y35397D01*
X142220Y36397D02*
X143220Y35397D01*
X141220D02*
X142220Y36397D01*
X90777Y38776D02*
X91777Y37776D01*
X92778Y38776D01*
X91777Y39776D02*
X92778Y38776D01*
X90777D02*
X91777Y39776D01*
X69395Y41094D02*
X70395Y43094D01*
X68395D02*
X70395D01*
X68395D02*
X69395Y41094D01*
X93946Y46762D02*
X94946Y48762D01*
X92946D02*
X94946D01*
X92946D02*
X93946Y46762D01*
X74282Y34968D02*
X75282Y33968D01*
X76282Y34968D01*
X75282Y35968D02*
X76282Y34968D01*
X74282D02*
X75282Y35968D01*
X23327Y12701D02*
X24327Y14701D01*
X22327D02*
X24327D01*
X22327D02*
X23327Y12701D01*
X43183Y28214D02*
X44183Y30214D01*
X42183D02*
X44183D01*
X42183D02*
X43183Y28214D01*
X30675Y9731D02*
X31675Y8731D01*
X32675Y9731D01*
X31675Y10731D02*
X32675Y9731D01*
X30675D02*
X31675Y10731D01*
X44015Y20154D02*
X45015Y19154D01*
X46015Y20154D01*
X45015Y21154D02*
X46015Y20154D01*
X44015D02*
X45015Y21154D01*
D300*
X394761Y-53797D02*
Y-59795D01*
Y-56796D01*
X398760D01*
Y-53797D01*
Y-59795D01*
X401759D02*
X403758D01*
X404758Y-58796D01*
Y-56796D01*
X403758Y-55797D01*
X401759D01*
X400759Y-56796D01*
Y-58796D01*
X401759Y-59795D01*
X406757D02*
X408757D01*
X407757D01*
Y-53797D01*
X406757D01*
X414755Y-59795D02*
X412755D01*
X411756Y-58796D01*
Y-56796D01*
X412755Y-55797D01*
X414755D01*
X415754Y-56796D01*
Y-57796D01*
X411756D01*
X423752Y-53797D02*
Y-59795D01*
X427750D01*
X432749D02*
X430750D01*
X429750Y-58796D01*
Y-56796D01*
X430750Y-55797D01*
X432749D01*
X433748Y-56796D01*
Y-57796D01*
X429750D01*
X435748Y-59795D02*
Y-55797D01*
X438747D01*
X439747Y-56796D01*
Y-59795D01*
X443745Y-61795D02*
X444745D01*
X445745Y-60795D01*
Y-55797D01*
X442746D01*
X441746Y-56796D01*
Y-58796D01*
X442746Y-59795D01*
X445745D01*
X448744Y-54797D02*
Y-55797D01*
X447744D01*
X449743D01*
X448744D01*
Y-58796D01*
X449743Y-59795D01*
X452742Y-53797D02*
Y-59795D01*
Y-56796D01*
X453742Y-55797D01*
X455741D01*
X456741Y-56796D01*
Y-59795D01*
X394761Y-49798D02*
Y-43800D01*
X397760D01*
X398760Y-44800D01*
Y-46799D01*
X397760Y-47799D01*
X394761D01*
X396761D02*
X398760Y-49798D01*
X401759D02*
X403758D01*
X404758Y-48798D01*
Y-46799D01*
X403758Y-45799D01*
X401759D01*
X400759Y-46799D01*
Y-48798D01*
X401759Y-49798D01*
X406757Y-45799D02*
Y-48798D01*
X407757Y-49798D01*
X410756D01*
Y-45799D01*
X413755Y-44800D02*
Y-45799D01*
X412755D01*
X414755D01*
X413755D01*
Y-48798D01*
X414755Y-49798D01*
X420753D02*
X418753D01*
X417754Y-48798D01*
Y-46799D01*
X418753Y-45799D01*
X420753D01*
X421752Y-46799D01*
Y-47799D01*
X417754D01*
X427750Y-43800D02*
Y-49798D01*
X424752D01*
X423752Y-48798D01*
Y-46799D01*
X424752Y-45799D01*
X427750D01*
X435748Y-49798D02*
Y-43800D01*
X438747D01*
X439747Y-44800D01*
Y-46799D01*
X438747Y-47799D01*
X435748D01*
X442746Y-45799D02*
X444745D01*
X445745Y-46799D01*
Y-49798D01*
X442746D01*
X441746Y-48798D01*
X442746Y-47799D01*
X445745D01*
X448744Y-44800D02*
Y-45799D01*
X447744D01*
X449743D01*
X448744D01*
Y-48798D01*
X449743Y-49798D01*
X452742Y-43800D02*
Y-49798D01*
Y-46799D01*
X453742Y-45799D01*
X455741D01*
X456741Y-46799D01*
Y-49798D01*
X464739Y-43800D02*
Y-49798D01*
X468737D01*
X473736D02*
X471736D01*
X470737Y-48798D01*
Y-46799D01*
X471736Y-45799D01*
X473736D01*
X474735Y-46799D01*
Y-47799D01*
X470737D01*
X476735Y-49798D02*
Y-45799D01*
X479734D01*
X480733Y-46799D01*
Y-49798D01*
X484732Y-51797D02*
X485732D01*
X486731Y-50798D01*
Y-45799D01*
X483732D01*
X482733Y-46799D01*
Y-48798D01*
X483732Y-49798D01*
X486731D01*
X489730Y-44800D02*
Y-45799D01*
X488731D01*
X490730D01*
X489730D01*
Y-48798D01*
X490730Y-49798D01*
X493729Y-43800D02*
Y-49798D01*
Y-46799D01*
X494729Y-45799D01*
X496728D01*
X497728Y-46799D01*
Y-49798D01*
X295491Y-44800D02*
X294491Y-43800D01*
X292492D01*
X291492Y-44800D01*
Y-45799D01*
X292492Y-46799D01*
X294491D01*
X295491Y-47799D01*
Y-48798D01*
X294491Y-49798D01*
X292492D01*
X291492Y-48798D01*
X297490Y-49798D02*
X299490D01*
X298490D01*
Y-43800D01*
X297490D01*
X303488Y-49798D02*
X305488D01*
X306487Y-48798D01*
Y-46799D01*
X305488Y-45799D01*
X303488D01*
X302489Y-46799D01*
Y-48798D01*
X303488Y-49798D01*
X309486Y-44800D02*
Y-45799D01*
X308487D01*
X310486D01*
X309486D01*
Y-48798D01*
X310486Y-49798D01*
X323482Y-43800D02*
Y-49798D01*
X320483D01*
X319483Y-48798D01*
Y-46799D01*
X320483Y-45799D01*
X323482D01*
X328480Y-49798D02*
X326481D01*
X325481Y-48798D01*
Y-46799D01*
X326481Y-45799D01*
X328480D01*
X329480Y-46799D01*
Y-47799D01*
X325481D01*
X332479Y-49798D02*
Y-44800D01*
Y-46799D01*
X331479D01*
X333479D01*
X332479D01*
Y-44800D01*
X333479Y-43800D01*
X336478Y-49798D02*
X338477D01*
X337477D01*
Y-45799D01*
X336478D01*
X341476Y-49798D02*
Y-45799D01*
X344475D01*
X345475Y-46799D01*
Y-49798D01*
X347474D02*
X349473D01*
X348474D01*
Y-45799D01*
X347474D01*
X353472Y-44800D02*
Y-45799D01*
X352472D01*
X354472D01*
X353472D01*
Y-48798D01*
X354472Y-49798D01*
X357471D02*
X359470D01*
X358471D01*
Y-45799D01*
X357471D01*
X363469Y-49798D02*
X365468D01*
X366468Y-48798D01*
Y-46799D01*
X365468Y-45799D01*
X363469D01*
X362469Y-46799D01*
Y-48798D01*
X363469Y-49798D01*
X368467D02*
Y-45799D01*
X371466D01*
X372466Y-46799D01*
Y-49798D01*
X374465D02*
X377464D01*
X378464Y-48798D01*
X377464Y-47799D01*
X375465D01*
X374465Y-46799D01*
X375465Y-45799D01*
X378464D01*
X386461D02*
X387461D01*
Y-46799D01*
X386461D01*
Y-45799D01*
Y-48798D02*
X387461D01*
Y-49798D01*
X386461D01*
Y-48798D01*
M02*
